<svg xmlns="http://www.w3.org/2000/svg" xmlns:xlink="http://www.w3.org/1999/xlink" viewBox="0 0 512 512">
    <path fill="#d0103a" d="M0 0h512v512H0z"/>
    <path fill="#fedf00" d="M0 0h348v512H0z"/>
    <path fill="#0018a8" d="M0 0h164v512H0z"/>
    <path fill="#c7b37f" d="M240 173c7 0 9 6 15 6 4 0 6-2 10-3 2-2 3-2 6-2s4 0 6 3a9 9 0 0 1 1 5 32 32 0 0 1-2 7l-1 3c0 3 4 4 7 5 1 0 6 0 10-4-2 0-4-1-4-3s1-4 3-4h2v-1l3-2a3 3 0 0 1 2 1h5l1 1h3c2 0 3 0 4 2l1 1a5 5 0 0 1 4 2l1 2h1a5 5 0 0 1 2 4v2c-2 5-5 7-9 11l-3 6 1 2 2-2c2 0 3 1 3 2v2l3-1a10 10 0 0 1 2 0 13 13 0 0 1 7 3 17 17 0 0 1 6 13c-1 4 0 12-11 15 2 1 3 2 3 4s-1 4-3 4a4 4 0 0 1-3-1c-2 2-3 4-3 8l1 4a9 9 0 0 0 3 5c1-2 2-2 3-2l4 1v1l1 1v3l1 1 1 2c0 2-3 4-5 4h-2l4 3a14 14 0 0 1 2 9l-2 9a16 16 0 0 1-6 6 28 28 0 0 1-13 5l-8 2h-12c-5 1-9 1-14 5 2 2 4 3 4 6 0 2-2 4-4 5h-2l-1 1a5 5 0 0 1-3 1c-2 0-3 0-5-2l-4 4-2 1-3-2a18 18 0 0 1-3-3l-5 2a5 5 0 0 1-3-1l-2-1-1-1c-3-1-4-2-4-5 0-2 1-4 3-5-4-4-8-4-13-5h-12l-8-2-7-1c-8-4-13-9-14-18v-2c0-5 1-8 5-11h-3c-2-1-3-2-3-5v-2l1-1 1-2v-1c1-1 2-3 4-3l3 2 2-3c2-2 2-3 2-6a11 11 0 0 0-1-4l-1-3a4 4 0 0 1-3 1c-2 0-4-2-4-4s1-3 3-4l-4-2-4-5-2-4a15 15 0 0 1-1-5v-1c1-4 1-6 4-9a11 11 0 0 1 5-4 12 12 0 0 1 6-2l2 1h1v-1c0-1 1-3 3-3l2 2 1-1c0-3-2-5-3-7-4-4-9-7-9-13l3-4h1l1-1a4 4 0 0 1 1-1l2-1 1-2 4-1h3l1-1h5l2-1 2 1 2 1 1 1c2 0 4 2 4 4l-1 3-3 1a13 13 0 0 0 9 2c4 0 8-1 8-4l-2-4a15 15 0 0 1-1-7l1-5c1-2 3-3 5-3z"/>
    <g fill="none" stroke="#703d29">
        <path stroke-linejoin="round" d="M218 191l2 2a3 3 0 0 0 3-1v-3a4 4 0 0 0-1-2l-4 4z"/>
        <path stroke-linecap="round" d="M321 253c-1-2-4-1-4 0 0 3 2 4 4 3l2-1 1-3a4 4 0 0 0-1-2 4 4 0 0 0-1-1h-3c-4 0-8 5-9 11a24 24 0 0 0-1 9 18 18 0 0 0 5 9 20 20 0 0 0 8 5h3c3 0 4-3 3-5s-5-4-6-1a3 3 0 0 0 0 1v2c2 1 3 1 3-1"/>
        <path d="M307 283a9 9 0 0 1 5-3l7 2a15 15 0 0 1 9 13l-2 8c-1 1-2 7-12 11a67 67 0 0 1-21 3c-8 1-16 1-20 6"/>
        <path d="M309 293l1-3c1-1 3-2 5-1l2 2 1 1v2c2 6-1 12-5 14l-11 4h-13a56 56 0 0 0-6 0h-6l-5 1-1 1h-1a32 32 0 0 0-8 3l-2 2-1 1c-1 1-3 3-3 5v1c0 2 1 4 4 4m4-136l1 3c0 2-1 3-3 3-3 0-5-4-3-7 2-4 7-2 12 1l-1-3c0-4 3-5 4-8l-1-5h-4c-3 1-7 4-13 4-7 0-11-3-14-4h-4v5c1 3 3 4 3 8v3c4-2 9-5 12-1 1 3-1 7-4 7l-3-3 1-3"/>
        <path stroke-linecap="round" d="M252 192l2 4-3 4m2-3l-1 2"/>
        <path fill="#c7b37f" d="M221 187h1l1 1v4h-1l-1 1h-2l-1-1v-1h-1v-1l4-3z" stroke="none"/>
        <path stroke-linecap="round" d="M220 190c0-2-2-2-2-1-1 1-1 3 1 4a3 3 0 0 0 3-1l1-4-2-1c-2-2-5-2-6 1-2 4 1 7 4 9l12 3c7-1 13-4 16-6h2v2"/>
        <path d="M198 289l-1 1-2 1-1 1v1l-1 2v2m15-8v3l-1 1-1 2-1 1h-3M256 327c0 2-2 3-4 4h-1M323 285a15 15 0 0 1 5 11l-2 7c0 2-2 8-12 12a68 68 0 0 1-21 3c-8 0-15 0-20 6"/>
        <path d="M310 290c1-1 3-2 5-1a5 5 0 0 1 2 2M321 283h1a6 6 0 0 0 4 0c2 0 3-2 2-5a5 5 0 0 0-1-2"/>
        <path stroke-linecap="round" d="M192 224l-4 2a23 23 0 0 0-2 6m37-42c0 2-1 3-2 3"/>
        <path d="M318 218c3 0 14 2 15 15 0 13-8 15-12 16"/>
        <path d="M319 218c6-1 13 4 13 16 0 9-6 14-9 15m-8 14v-2l1-1v-2l1-1 1-1m6-3v1l-1 1v1h-1l-1 1h-1m-12-43l1-1v-1l1-2 1-1 1-1 2-2 2-2 1-1 1-1 1-2v-1l1-2v-3m-10 103l1-1h1l1-1h0v-2m-126-10h3m4-29v1h0v1h-1 0l-1 1h-1m8-13v3l-1 1h-1l-1 1h-2m12-32v1l-1 1v1l-1 1h-2 0m0-5v1"/>
        <path stroke-linecap="round" d="M203 243a6 6 0 0 1-1 1m120 36h1c1 1 3 0 2-2"/>
        <path d="M318 256l4 1 2-2v-3a4 4 0 0 0-1-1 5 5 0 0 0-1-1v-1m5 28a3 3 0 0 0 0-1l-1-2-1-1m1 0c0-1-1-2-3-2m-3 2l-1-1a13 13 0 0 1-4-8c0-4 2-7 3-8m-45 67l2-1 1-1 1-1 2-1h1l3-1h3m-24 15a14 14 0 0 1-6 5 14 14 0 0 1-6-5"/>
        <path stroke-linecap="round" d="M252 330a8 8 0 0 1-2 3"/>
        <path d="M252 328l-1 2m-1 3l-1 1-2 1-1 1m-5-143l1-2c0-3-3-5-4-8 0-2-1-3 1-5h4c3 1 7 5 13 5-6 0-10-4-13-5h-4c-2 2-1 3-1 5l4 8-1 2m15-10c6-1 12-5 14-5h3-4c-3 1-6 5-13 5m64 90a12 12 0 0 1-5-10c0-3 1-7 3-8m-56 78a14 14 0 0 1-6 5 14 14 0 0 1-7-5"/>
        <path stroke-linecap="round" d="M245 195l2-1h3l-1 2"/>
        <path d="M236 199c4 0 8-2 10-4m26 131l1 1v1l-1 2a3 3 0 0 1-3-2m-33-129l10-4m78 85h-2l-1-1c-2-1-5-3-7-7a15 15 0 0 1-2-4v-2a21 21 0 0 1 1-5 16 16 0 0 1 3-7c1-2 1-2 3-2m-115-32a6 6 0 0 1 2 5c0 2-2 6-7 8l-5-1"/>
        <path d="M205 229l1 2-1 3a10 10 0 0 1-7 3 8 8 0 0 1-5-1 7 7 0 0 1-3-4M205 234l1 4c0 2-1 3-3 5a5 5 0 0 1-1 1m103-17v2m0-3v4m0-13v6m0-7v7m-1 66l-4 4a16 16 0 0 1-4 4 20 20 0 0 1-6 1l-5 1h-5l-6-1h-4a23 23 0 0 0-9 1l-5 3-5-3a23 23 0 0 0-9-1h-4l-6 1a37 37 0 0 1-10-1l-6-1a16 16 0 0 1-5-4m34 43l2-1m24-2h3l1-1 1-1v-3m38-109c1-2 0-4-2-4m-106 37a7 7 0 0 1-3 4m3-38a5 5 0 0 1-3 3h-4"/>
        <path stroke-linecap="round" d="M195 226c1 1 3 0 2-2a2 2 0 0 0-2-2"/>
        <path d="M200 293l1 1h1v-4a4 4 0 0 0-5 0l-2 1-1 2-1 2c-1 4 1 9 4 12"/>
        <path stroke-linecap="round" d="M272 326l1 1v1l-2 2-2-2"/>
        <path d="M312 188a6 6 0 0 1 5 5c0 4-2 5-3 8-2 3-9 8-9 13 0 4 1 6 3 7s4 0 5-1c2-2 1-5-1-6-3 0-3 4-1 4m14 55a3 3 0 0 0-2-2 3 3 0 0 0-3 3l1 2"/>
        <path d="M307 220a6 6 0 0 0-2 5c0 2 2 6 7 8l5-1m-125-8a8 8 0 0 0-4 3 14 14 0 0 0-1 5v5a13 13 0 0 0 2 5v1h1m51 74c4 2 7 3 10 7a8 8 0 0 1-2 10 7 7 0 0 1-5 1l-4-2m-37-90a7 7 0 0 1 3 6c0 3-1 5-3 6"/>
        <path stroke-linecap="round" d="M201 253c3 4 5 7 5 11 0 5-1 8-4 11"/>
        <path d="M264 200a3 3 0 0 0 1-2v-3l1 3-2 1m41 70v12a20 20 0 0 1 0 4m0-18v18m0-34v11m0-10v9m0-21v7m0-8v9m0-16v3m0-3v4m-1 52l-1 1a15 15 0 0 1-3 4 16 16 0 0 1-5 3 20 20 0 0 1-5 2l-5 1h-5l-6-1h-4a23 23 0 0 0-9 1l-5 3a17 17 0 0 0-5-3 23 23 0 0 0-9-1h-5l-5 1a37 37 0 0 1-10-1 20 20 0 0 1-10-5 18 18 0 0 1-2-2m-2-3a8 8 0 0 1-2 7l-4 2c-3 0-4-2-4-3"/>
        <path d="M205 287a8 8 0 0 1 1 2v5a4 4 0 0 1 0 0m-17 15l9 6a67 67 0 0 0 21 3c8 0 15 0 20 5m14-3a12 12 0 0 1 3 5m-6 9a7 7 0 0 1-1 0 7 7 0 0 1-5 2 5 5 0 0 1-3-2m-5-3l1 1a6 6 0 0 0 4 2m21 0a14 14 0 0 1-6 5 14 14 0 0 1-6-5v-1m12 1h1a7 7 0 0 0 5 2 4 4 0 0 0 3-2l1-1"/>
        <path d="M271 333v1l-1 1-2 1h-1M274 324a6 6 0 0 1 2 2l1 3a5 5 0 0 1-1 3 6 6 0 0 1-5 2 4 4 0 0 1 0 0m0-1a6 6 0 0 1-4-1m51-54a19 19 0 0 1-4-6 15 15 0 0 1-1-3l-1-3 1-5a17 17 0 0 1 3-7l2-2m-1-61c2 1 3 3 3 5 0 3-1 4-3 7s-9 8-8 12l1 2m-3 3l2 1a4 4 0 0 0 3 0m-17-35a5 5 0 0 1 2 2c1 4-2 7-5 9a17 17 0 0 1-6 2"/>
        <path d="M292 193l-3-1a3 3 0 0 1 0-1m-12 4a4 4 0 0 1-1-1c-1 0-2-1-1-3l3-9c0-4-1-7-4-8"/>
        <path stroke-linecap="round" d="M278 181v2l-1 2-1 2v1l-1 2v1l-1 1 1 1m30 101h1a6 6 0 0 0 4 3c3 0 4-2 4-3 0-2-1-3-2-3l-1-1"/>
        <path d="M190 284a6 6 0 0 1-3 0c-3-1-4-3-4-6m11-25s0 0 0 0c1 3-2 4-3 4a5 5 0 0 1-3-2 4 4 0 0 1 0-2m17-19l1 1m-1-6l1 1"/>
        <path stroke-linecap="round" d="M206 232a7 7 0 0 1-1 2 10 10 0 0 1-7 4 8 8 0 0 1-5-2 8 8 0 0 1-3-4"/>
        <path d="M204 220a6 6 0 0 1 2 3"/>
        <path stroke-linecap="round" d="M206 227a9 9 0 0 1-7 6 7 7 0 0 1-5-1"/>
        <path d="M192 226c0 2 2 4 4 4 4 0 6-6 3-9"/>
        <path stroke-linecap="round" d="M184 244l1 2a13 13 0 0 0 5 3m4 0c4 0 6-3 5-5 0-3-2-4-3-4"/>
        <path d="M200 215l2 2"/>
        <path stroke-linecap="round" d="M200 195a9 9 0 0 0 4 4m115 25a4 4 0 0 1-3 6 4 4 0 0 1-4-2"/>
        <path d="M305 199v13"/>
        <path stroke-linecap="round" d="M195 226c1 1 3-1 2-2 0-1-2-2-4-1-2 2-1 6 3 6s6-5 3-9c-4-4-9-3-13 0a17 17 0 0 0-6 10 17 17 0 0 0 0 7 17 17 0 0 0 2 6l1 1 2 2a12 12 0 0 0 8 3c4 0 6-3 6-6-1-3-4-4-6-3-1 1-1 4 1 5l2-3m103-57h5a8 8 0 0 1 1 6l-2 5"/>
        <path stroke-linecap="round" d="M304 186c3-2 6-1 7 1a7 7 0 0 1 1 5 9 9 0 0 1-4 7"/>
        <path d="M316 191c2 1 4 2 4 5s-1 4-4 7c-2 3-8 7-8 12l3 3"/>
        <path stroke-linecap="round" d="M316 226c-1 1-2-1-2-2 1-1 2-2 4-1 2 2 2 6-3 6-3 0-6-5-2-9 3-4 9-3 13 0 1 2 5 5 5 10 1 5 1 12-4 17a14 14 0 0 1-9 2c-4 0-6-3-5-6 0-3 3-4 5-3s2 4-1 5c-1 0-2-2-1-3"/>
        <path d="M314 224c1-3 3-3 5-3 6 0 9 6 9 12 0 8-3 12-9 13l-4-3"/>
        <path stroke-linecap="square" d="M318 223c5 1 7 6 7 11 0 4 0 9-8 11"/>
        <path d="M327 276a3 3 0 1 0-5 2"/>
        <path stroke-linecap="round" d="M316 272a13 13 0 0 0 5 4m-1 9c-3-2-8-4-13-2a6 6 0 0 0-3 3 8 8 0 0 0 2 8 6 6 0 0 0 4 2c3 0 3-2 3-2 1-3-1-3-1-4l-3 1v2"/>
        <path stroke-linecap="round" d="M272 327c1 1 0 2-1 2-2 1-3-1-3-2 0-2 2-4 4-4a4 4 0 0 1 4 3v2a5 5 0 0 1-1 3 6 6 0 0 1-4 2c-4 0-6-3-6-6 0-6 9-10 13-10a67 67 0 0 1 14-2l8-1 7-1a22 22 0 0 0 10-5 14 14 0 0 0 4-18 12 12 0 0 0-8-5c-3 0-6 1-8 4a6 6 0 0 0 1 5l3 2c3 0 4-2 4-2 1-3-1-3-1-4l-3 1v2"/>
        <path stroke-linecap="round" d="M270 317c-4 2-7 3-9 7a8 8 0 0 0-1 4l2 6a7 7 0 0 0 6 1l3-2"/>
        <path d="M308 243c-2 1-3 4-3 6 0 3 1 5 3 6"/>
        <path stroke-linecap="round" d="M310 253c-3 4-5 7-5 11 0 5 1 8 4 11"/>
        <path d="M293 186v-1c1-2 4-2 6-1 2 2 2 4 2 7a7 7 0 0 1-4 5"/>
        <path stroke-linecap="round" d="M212 185h-5a8 8 0 0 0-1 6c0 2 1 3 3 5"/>
        <path d="M207 186c-3-2-5-1-7 1a7 7 0 0 0-1 5 9 9 0 0 0 5 7"/>
        <path d="M200 188a6 6 0 0 0-5 5c0 4 1 5 3 8s8 8 8 13c0 4-1 6-3 7s-4 0-4-1c-2-2-2-5 0-6 3 0 4 4 1 4"/>
        <path d="M195 191c-2 1-4 2-4 4 0 3 1 5 4 8 2 3 8 7 8 12 0 1-1 3-3 3"/>
        <path stroke-linecap="round" d="M191 253c1-2 3-1 3 0 0 3-2 4-4 3l-2-1a4 4 0 0 1 0-5 4 4 0 0 1 1-1h3c4 0 8 5 10 11a24 24 0 0 1 0 9 18 18 0 0 1-5 9 20 20 0 0 1-8 5 6 6 0 0 1-3 0c-2-1-4-3-2-5 1-3 4-4 5-1l1 1-1 2c-1 1-3 1-3-1"/>
        <path d="M187 280h2l2-1 7-7a15 15 0 0 0 1-3v-3a21 21 0 0 0 0-5 16 16 0 0 0-3-7c-1-2-2-2-4-2m-7 24a3 3 0 1 1 5 2"/>
        <path d="M186 273a3 3 0 0 1 3-2 3 3 0 0 1 3 3 3 3 0 0 1-1 2M192 273a12 12 0 0 0 5-10c0-3-2-7-3-8"/>
        <path stroke-linecap="round" d="M196 272a13 13 0 0 1-5 4"/>
        <path d="M204 283c-1-2-3-3-5-3a11 11 0 0 0-7 2 15 15 0 0 0-7 9 14 14 0 0 0-1 4l2 8c0 1 2 7 12 11a68 68 0 0 0 20 3c9 1 16 1 21 6"/>
        <path stroke-linecap="round" d="M192 285c2-2 7-4 12-2a7 7 0 0 1 3 3 8 8 0 0 1-1 8l-4 2c-3 0-4-2-4-2 0-3 1-3 2-4l2 1v2"/>
        <path d="M202 293a3 3 0 0 0-1-3 4 4 0 0 0-4-1 5 5 0 0 0-2 2l-1 1-1 2c-2 6 1 12 5 14a24 24 0 0 0 12 4h24l5 1 1 1h1a32 32 0 0 1 8 3l2 2 1 1 4 5v1c0 2-2 4-5 4"/>
        <path d="M239 327c-1 1 0 2 1 2 2 1 3-1 3-2 0-2-2-4-4-4a4 4 0 0 0-4 3 6 6 0 0 0 0 2 5 5 0 0 0 1 3 6 6 0 0 0 4 2c4 0 6-3 6-6 0-6-9-10-12-10a67 67 0 0 0-15-2l-8-1-7-1a22 22 0 0 1-10-5 14 14 0 0 1-4-18 12 12 0 0 1 9-5c3 0 5 1 7 4v5a5 5 0 0 1-4 2c-3 0-4-2-4-2 0-3 1-3 2-4l2 1v2"/>
        <path stroke-linecap="round" d="M219 186a97 97 0 0 0-1-1c-1-2-3-2-5-1-2 2-3 4-2 7a7 7 0 0 0 3 5"/>
        <path d="M293 192c-3 3-6 4-11 4-1 1-4 0-6-1-1-1-2-2-1-5 0-1 3-5 3-8 0-5-2-7-5-8-5-2-10 3-13 4a11 11 0 0 1-4 1l-5-1c-3-1-8-6-13-4-3 1-5 3-4 8 0 3 2 7 3 8 0 3-1 4-2 5a12 12 0 0 1-6 2c-5-1-8-2-11-5"/>
        <path stroke-linecap="round" d="M238 316l4 1c4 2 7 3 9 7a9 9 0 0 1 1 6"/>
        <path d="M238 333a6 6 0 0 0 3 1c3 0 6-3 6-7 0-2-2-4-3-5"/>
        <path stroke-linecap="round" d="M239 327c-1 2 0 2 1 3 2 0 3-2 3-3a4 4 0 0 0-1-3"/>
        <path d="M312 188c3 0 5 3 5 6s-2 5-3 7l-4 3"/>
        <path stroke-linecap="round" d="M309 185a5 5 0 0 1 2 2 7 7 0 0 1 2 5c-1 3-3 6-5 7m-4-14l1 1a7 7 0 0 1 1 5 7 7 0 0 1-3 5m-4-12c2 2 2 5 2 7l-4 5m9 32l1 2a11 11 0 0 0 5 3 6 6 0 0 0 5-1m-130 43l3 2a3 3 0 0 1 0 1l-1 2c-1 1-3 1-3-2"/>
        <path d="M193 249c4 1 8 6 9 11a24 24 0 0 1 0 9 18 18 0 0 1-4 9l-2 2h-1m-6-9c1 0 3 1 3 3a3 3 0 0 1-1 2"/>
        <path d="M188 273c1 0 3 1 3 3a3 3 0 0 1-1 2"/>
        <path stroke-linecap="round" d="M203 256c2 2 3 3 3 6m0 7a14 14 0 0 1-1 3 14 14 0 0 1-3 4"/>
        <path d="M203 244a8 8 0 0 1 3 3"/>
        <path stroke-linecap="round" d="M206 240a9 9 0 0 1-2 3m-8-14h2l1-1 1-1v-2"/>
        <path d="M193 223l-2 1a7 7 0 0 0-3 2 14 14 0 0 0-2 5v6a13 13 0 0 0 2 4l1 1 4 2"/>
        <path stroke-linecap="round" d="M202 216c0 1 0 2-2 2"/>
        <path d="M197 223c-2-2-5-2-8 0l-2 1a7 7 0 0 0-1 1l-1 2a10 10 0 0 0-1 2v7a15 15 0 0 0 2 5 8 8 0 0 0 6 5c1 0 4-1 4-3"/>
        <path stroke-linecap="round" d="M291 190c0-2 2-2 2-1 1 1 1 3-1 4a3 3 0 0 1-3-1l-1-4 2-1c2-2 5-2 7 1 1 4-2 7-5 9l-11 3c-8-1-13-4-17-6h-2v2"/>
        <path stroke-linecap="round" d="M293 188l1 1c1 1 0 3-2 4m14 41c-2 3 0 8 2 10h2"/>
        <path d="M307 228l-2 3a4 4 0 0 0 1 3 11 11 0 0 0 8 3 8 8 0 0 0 5-1 7 7 0 0 0 3-5m-17 50v2l-2 6a15 15 0 0 1-3 4 16 16 0 0 1-5 3 20 20 0 0 1-5 2 33 33 0 0 1-5 1h-5l-6-1h-4a23 23 0 0 0-9 1 17 17 0 0 0-5 3l-5-3a18 18 0 0 0-4-1h-10l-5 1h-5l-6-1a20 20 0 0 1-5-2l-4-3a15 15 0 0 1-4-4 15 15 0 0 1-1-6v-83h98v81z"/>
        <g fill="#c7b37f" stroke="none">
            <path d="M198 293a2 2 0 1 1 4 0 2 2 0 0 1-4 0zm-12-15l2-1 1 1-1 2-2-2zM193 243l1-2 2 2-2 1-1-1zm25-53l1-1 1 1-1 2-1-2z"/>
        </g>
        <g stroke="#c7b37f" stroke-linecap="round">
            <path d="M191 251a2 2 0 0 0 0 1h-1v1m4 22l1-1v-1l1-1v-1m-1 11l-1 1h-1a14 14 0 0 0-1 1l-1 1m12-30l-1-1v-1h-1"/>
            <path stroke-linecap="butt" d="M203 244h-1a4 4 0 0 1-1 1"/>
            <path d="M190 231v1l1 1a7 7 0 0 0 2 2l1 1m-1-5l1 1a6 6 0 0 0 3 0h1m6-32l-2-1a10 10 0 0 1-2-2l-1-1m6-4l1 1 1 2 2 2m1-5l1 1 1 1 1 1 1 1"/>
        </g>
        <path fill="#703d29" d="M267 185l-2-1-4 2a10 10 0 0 1-5 1 9 9 0 0 1-6-1l-3-2-2 2v1l1-2a2 2 0 0 1 1 0l4 2a10 10 0 0 0 5 1l5-1 4-2h1v1h1v-1z" stroke="none"/>
    </g>
    <g fill="#703d29">
        <path d="M212 299v-1h-2l1 1-1 1-2 2v1-5l1-1h-1l-1-1h-1v1h1v7l5-5zM214 300h1v-1h-3l1 1-1 4-1 1h1l1 1v-1l1-5zm3 1h1v2h-1-1l1-2zm-2 4l-1 1 1 1h1v-3h1v2l1 1h1l-1-3h1l1-1c0-1 0-2-2-3h-3l1 1-1 4zm6 2l-1 1h2l1 1v-1l-1-1 1-4 1-1 1 1v1l1-1v-1h-3l-2-1h-1v2l1-1h1v5zm11-3v-1h-2l1 1-1 1-1 3-1-3a4 4 0 0 1 0-1v-1h-1l-1-1v1h1l1 6v1l4-6zm0 6l2 1 2-2-1-2-2-2 1-1c2 0 2 2 2 2v-2h-1l-2 1c-1 1 0 2 1 2l1 2-1 1-2-2v2zm13-4v-1h-2l1 1v1l-2 3-1-3a4 4 0 0 1 0-1v-1h-2l1 1 1 5 1 1 3-6zM246 311l-1 1h3s-2 0-2-2v-3h1l4 5v-5l1-2h-2l1 1v4h-1l-3-4v-1h-2l1 2v4zm8-4l1-1h-3l1 1v5h2l-1-1v-4zm4 4l-1 1h3l-1-1v-4-1h1l1 1v-1-1h-5v2l1-1h1v5zm5-2v-2l1 2h-1zm2 0v3h2v-1s0 1 0 0l-3-6h-1l-2 6v1h2l-1-1v-1h1l2-1zm6-4h1c2-1 1 1 2 1v-2h-3l-2 1 1 1 1 4-1 1h3l-1-1v-2s-1 0 0 0l1 1 1-1-1-2-1 1h-1v-1zm3 3c1 2 2 3 4 2 2 0 2-3 2-4 0-2-2-3-3-3-2 1-3 3-3 5zm1-1c0-1 0-3 2-3 1 0 2 1 2 3 1 1 0 3-1 3-2 0-3-2-3-3zm7-3v-1l2 1-1 2h-1v-2zm0 4l-1 1 1 1 1-1h1l-1-1v-1-1h1l1 2 1 1 1-1h-1l-2-3h1v-1c0-1-1-2-3-2l-1 1h-1l1 1 1 4zm7-1l-1 1h2l1-1-1-1-1-4v-1h1l1 1v-1l-1-1-2 1-3 1v1l1 1v-2h2l1 5zm4-6v-1h-2l1 1 1 4v2l1-1h2l-2-1-1-4zm2 2c1 2 2 3 4 2s2-3 2-4l-4-3c-2 1-3 3-2 5zm1-1c-1-1-1-3 1-3 1-1 2 0 3 2l-1 4c-2 0-3-2-3-3zm6-4v-1l2 1-1 2-1-2zm1 4l-1 2h1l1-1h1l-1-1-1-1v-1h1l1 1 2 1 1-1h-1l-2-2v-2l-3-1-1 1h-1v1h1l2 4z"/>
    </g>
    <g fill="#fedf00" transform="matrix(.512 0 0 .512 0 77)">
        <path fill="#d52b1e" d="M413 249h82v82h-82z"/>
        <path id="a" fill="#fff" d="M451 314l-1 5-2 4a13 13 0 0 1-3 4l-6 2c-6-1-8-7-10-11-1-6-4-8-7-6v4a9 9 0 0 0 4 3l-3 4s-6-1-8-8c0-2 1-7 5-8 6-2 9 2 11 5 2 4 3 12 9 11 3-1 5-5 5-8l2-2 4 1z"/>
        <use width="100%" height="100%" transform="matrix(-1 0 0 1 908 0)" xlink:href="#a"/>
        <path d="M461 279l11-12 2-3h-3v-2l3-1v-2h-3v-2h1l2-1h1c2-3 10-6 15-1 4 4 3 11-2 13a6 6 0 0 1-7-1l2-4c3 2 5 0 5-2 0-3-2-4-4-5-3 0-4 1-5 3l-1 4v4a9 9 0 0 1-3 3l-11 12-43 47-3-3 43-47z"/>
        <path fill="#fff" d="M430 283s2 13 11 34c5-2 8-3 13-3l12 2a171 171 0 0 0 12-33l-24-31-25 31z"/>
        <path d="M456 262l17 22s-2 11-9 26l-8-1v-47zm-5 0l-16 22s2 11 9 26l7-1v-47z"/>
    </g>
    <g fill="#d52b1e">
        <path fill="#fedf00" d="M258 204h42v42h-42z"/>
        <path d="M264 204h6v42h-6zm12 0h6v42h-6zm12 0h6v42h-6z"/>
    </g>
    <g fill="#d52b1e" stroke="none">
        <path fill="#fedf00" d="M211 283l2 3 2 3a14 14 0 0 0 6 4l9 1 5-1h6a32 32 0 0 1 3 0h4l5 2v-44h-42v32z"/>
        <path d="M216 291l2 1 3 1v-42h-5zm24 2v-42h-5v42h5zm9-42h-5v42a31 31 0 0 1 5 0v-42zm-19 0v43h-4v-43z"/>
    </g>
    <g transform="matrix(.512 0 0 .512 0 77)">
        <path fill="#fedf00" d="M586 402a21 21 0 0 1-3 7l-4 6a26 26 0 0 1-13 7 52 52 0 0 1-17 2l-10-1-11-1a63 63 0 0 0-6 0 83 83 0 0 0-18 4v-86h82v59l-1 3z"/>
        <g id="b">
            <path fill="#d52b1e" d="M525 347h-1l-1 1-1 1h-1v2l-1 1-2 1h-1v2l1 1v1h1l2 1h2l1 1h2l2 1a2 2 0 0 0 0 1l1 4 1 1-2 2v3l2 2v2l1 2 1 1v-1l1-1v-1-1h1l-1-1-2-2 1-1 2-2h1l1 1h2v10h-1v1l1 1h2v-1h1v-1-2a12 12 0 0 1 0-3v-1l1-2v-3a24 24 0 0 0 10 0l3 1v2h1v-1h2v1h1v-2h1a5 5 0 0 1 0 1v1l-1 1-1 2-1 1-1 1-2 1v1l1 1h2v-1h1l1-1 1-1a13 13 0 0 1 3-4l1-1 1-1v-2l1 1v8a4 4 0 0 1-1 2h-1v1l1 1h2v-2h1v-1l1-4v-2l1-2-1-4-1-1v-3a43 43 0 0 1 0-3l3-2a3 3 0 0 0 0-2v-2a3 3 0 0 0-1-1l-3-1-4-1h-4l-5 1h-11l-6 1a67 67 0 0 1-4 0l-2-1h1l1-2 1-1a2 2 0 0 0-1 0h-1a3 3 0 0 0-1 0l-1 1-2-1a9 9 0 0 0-3-1zm2 12z"/>
            <g fill="none" stroke="#fedf00" stroke-linecap="round">
                <path d="M569 360h-4c-2 1-4-1-7-1l-3 2a9 9 0 0 1-2 0l1-1-2 1a8 8 0 0 1-2-1l1-1h-1a4 4 0 0 1-1-1 21 21 0 0 0 1 0l4-1 8 1 6-1 1-2-1-1-1-1"/>
                <path fill="#fcd900" stroke-linecap="butt" d="M525 351h-2v1h2v-1h0z"/>
                <path d="M536 364a14 14 0 0 0 1 2v4m7-7v1l-1 4v0m-11-4c1 0 0 4 2 4"/>
                <path stroke-linecap="butt" d="M560 370h1a8 8 0 0 0 2-2"/>
                <path d="M552 368l8-3m-4-1h1c1-1 1 0 2 1l5 3h0l1 1"/>
                <path fill="#fcd900" stroke-linecap="butt" d="M518 355h0l1-1 1 1s0 0 0 0 0 0 0 0v1l-1-1a1 1 0 0 1 0 0 1 1 0 0 1-1 0 1 1 0 0 1 0 0z"/>
            </g>
            <path fill="#0065bd" d="M525 364l-2-1h1l1-1v-2h1l1 1v4l-2-1zm-1 1a1 1 0 1 1 1 1 1 1 0 0 1-1-1zm-2-16v-2a4 4 0 0 1-1-1v-2-1h1l1 1v3h1l-1 1-1 1zm4 10l2 1a9 9 0 0 0 4-4l1-4h-2l-2 4-2 3h-1zm5 18l1-1 1-1h1a9 9 0 0 1-1 3v1h-1l-1-2zm33 2l1 1 2 1h-2a8 8 0 0 1-1 0h-1l1-2zm-10-2l2 1 1 1a9 9 0 0 1-3 0h-1l1-2zm-17 2l1 1 2 1a9 9 0 0 1-3 1h-1l-1-1 2-2zm-9-29l-1-2 1-1v-2-2l1-1v2l1 2v2a2 2 0 0 1-1 1 2 2 0 0 1-1 1z"/>
        </g>
        <use width="100%" height="100%" y="37" xlink:href="#b"/>
    </g>
    <path fill="none" d="M211 204h42v42h-42zm47 0h42v42h-42zm-47 79l2 3 2 3a14 14 0 0 0 6 4l9 1 5-1h6a32 32 0 0 1 3 0h4l5 2v-44h-42v32zm89 0l-1 3-3 3a14 14 0 0 1-6 4 26 26 0 0 1-9 1l-5-1a56 56 0 0 0-6 0 32 32 0 0 0-3 0h-4l-5 2v-44h42v32z"/>
</svg>
