<svg xmlns="http://www.w3.org/2000/svg" viewBox="0 0 512 512">
    <defs>
        <clipPath id="a">
            <path d="M0 0h512v512H0z"/>
        </clipPath>
    </defs>
    <g clip-path="url(#a)">
        <path fill="#fff" fill-rule="evenodd" d="M-168 1h430v256h-430z"/>
        <path fill="#c00" d="M-168 1v19l103 63 38 1-141-84z"/>
        <path fill="#006" d="M-124 1L0 78V0h-124z"/>
        <path fill="#c00" d="M17 1v99h-185v57H17v99h57v-99h185v-57H74V0H17z"/>
        <path fill="#006" d="M90 1v73L212 1 90 0z"/>
        <path fill="#c00" d="M94 82h34L261 1l-35 1L94 82z"/>
        <path fill="#006" d="M260 23L158 83h100v90h-85l85 55 1 28h-45L90 183v73H0v-73l-115 73h-53v256h853V0H261m-429 29v53l89 1-89-54zm0 144v55l85-54-85-1z"/>
        <path fill="#c00" d="M160 176l-35-1 134 80-1-18-97-61zm-295 81l126-79h-33l-126 79"/>
        <path fill="#49497d" d="M369 245l2 2-2-2z"/>
        <path fill="#0e0e6e" d="M371 245l2 2-2-2z"/>
        <path fill="#262678" d="M364 247l2 2-2-2z"/>
        <path fill="#808067" d="M366 247l3 2-3-2z"/>
        <path fill="#58587b" d="M373 247l2 2-2-2z"/>
        <path fill="#0e0e6e" d="M293 249l2 3-2-3z"/>
        <path fill="#1b1b74" d="M360 249l2 3-2-3z"/>
        <path fill="#6e6c70" d="M362 249l2 3-2-3z"/>
        <path fill="#cc3" d="M297 253c0 56-7 119 35 163 9 9 25 30 39 29s33-22 42-33c36-48 30-105 31-160-16 7-24 9-39 9-10 2-26-5-36-10a57 57 0 0 1-33 10c-19 0-25-3-39-8z"/>
        <path fill="#99994e" d="M375 249l2 3-2-3z"/>
        <path fill="#49497d" d="M377 249l2 3-2-3z"/>
        <path fill="#0e0e6e" d="M444 249l3 3-3-3z"/>
        <path fill="#a4a43d" d="M295 252l2 2-2-2z"/>
        <path fill="#6e6c70" d="M297 252l2 2-2-2z"/>
        <path fill="#3a3a7c" d="M299 252l3 2-3-2z"/>
        <path fill="#1b1b74" d="M356 252l2 2-2-2z"/>
        <path fill="#6e6c70" d="M358 252l2 2-2-2z"/>
        <path fill="#a4a43d" d="M360 252l2 2-2-2z"/>
        <path fill="#d0d045" d="M369 252l2 2-2-2z"/>
        <path fill="#a4a43d" d="M377 252l2 2-2-2z"/>
        <path fill="#8d8d5b" d="M379 252l3 2-3-2z"/>
        <path fill="#3a3a7c" d="M382 252l2 2-2-2z"/>
        <path fill="#262678" d="M438 252l2 2-2-2z"/>
        <path fill="#53527c" d="M440 252l2 2-2-2z"/>
        <path fill="#8d8d5b" d="M442 252l2 2-2-2z"/>
        <path fill="#737370" d="M304 254l2 2-2-2z"/>
        <path fill="#53527c" d="M306 254l2 2-2-2z"/>
        <path fill="#1b1b74" d="M308 254l2 2-2-2z"/>
        <path fill="#262678" d="M351 254l3 2-3-2z"/>
        <path fill="#6e6c70" d="M353 254l3 2-3-2z"/>
        <path fill="#a4a43d" d="M356 254l2 2-2-2z"/>
        <path fill="#e5e59d" d="M366 254l3 2-3-2z"/>
        <path fill="#fff" d="M301 259c-1 30 0 63 4 94 5 17 5 26 12 36l106-1a97 97 0 0 0 12-32c6-32 6-67 6-99a66 66 0 0 1-38 8 74 74 0 0 1-33-10c-10 6-13 9-30 10-13 1-23 2-39-6z"/>
        <path fill="#f2f1d7" d="M371 254l2 2-2-2z"/>
        <path fill="#d9d868" d="M373 254l2 2-2-2z"/>
        <path fill="#a4a43d" d="M382 254l2 2-2-2z"/>
        <path fill="#99994e" d="M384 254l2 2-2-2z"/>
        <path fill="#49497d" d="M386 254l2 2-2-2z"/>
        <path fill="#0e0e6e" d="M388 254l2 2-2-2z"/>
        <path fill="#3a3a7c" d="M431 254l3 2-3-2z"/>
        <path fill="#667" d="M434 254l2 2-2-2z"/>
        <path fill="#99994e" d="M436 254l2 2-2-2z"/>
        <path fill="#a4a43d" d="M438 254l2 2-2-2m-130 2l2 2-2-2z"/>
        <path fill="#99994e" d="M310 256l2 2-2-2z"/>
        <path fill="#6e6c70" d="M312 256l3 2-3-2z"/>
        <path fill="#49497d" d="M315 256l2 2-2-2z"/>
        <path fill="#1b1b74" d="M317 256l2 2-2-2m28 0l2 2-2-2z"/>
        <path fill="#53527c" d="M347 256l2 2-2-2z"/>
        <path fill="#8d8d5b" d="M349 256l2 2-2-2z"/>
        <path fill="#a4a43d" d="M351 256l3 2-3-2z"/>
        <path fill="#e5e59d" d="M362 256l2 2-2-2z"/>
        <path fill="#fbfaf2" d="M364 256l2 2-2-2z"/>
        <path fill="#f2f1d2" d="M375 256l2 2-2-2z"/>
        <path fill="#d9d868" d="M377 256l2 2-2-2z"/>
        <path fill="#a4a43d" d="M388 256l2 2-2-2z"/>
        <path fill="#6e6c70" d="M390 256l2 2-2-2z"/>
        <path fill="#3a3a7c" d="M392 256l3 2-3-2z"/>
        <path fill="#0e0e6e" d="M421 256l2 2-2-2z"/>
        <path fill="#32327b" d="M423 256l2 2-2-2z"/>
        <path fill="#58587b" d="M425 256l2 2-2-2z"/>
        <path fill="#808067" d="M427 256l2 2-2-2z"/>
        <path fill="#a4a43d" d="M431 257h1-1z"/>
        <path fill="#dddc7a" d="M299 258l3 2-3-2z"/>
        <path fill="#d0d045" d="M302 258l2 2-3-2z"/>
        <path fill="#a4a43d" d="M318 259l2 1-2-1z"/>
        <path fill="#808067" d="M321 258l2 2-2-2z"/>
        <path fill="#667" d="M323 258l2 2-2-2z"/>
        <path fill="#58587b" d="M325 258l3 2-3-2z"/>
        <path fill="#49497d" d="M328 258l2 2-2-2z"/>
        <path fill="#737370" d="M341 258l2 2-2-2z"/>
        <path fill="#99994e" d="M343 258l2 2-2-2z"/>
        <path fill="#a4a43d" d="M345 258l2 2-2-2z"/>
        <path fill="#e5e59d" d="M358 258l2 2-2-2z"/>
        <path fill="#fbfaf2" d="M360 258l2 2-2-2z"/>
        <path fill="#f2f1d2" d="M379 258l3 2-3-2z"/>
        <path fill="#d9d868" d="M382 258l2 2-2-2z"/>
        <path fill="#a4a43d" d="M394 259l1 1-1-1z"/>
        <path fill="#808067" d="M397 258l2 2-2-2z"/>
        <path fill="#667" d="M399 258l2 2-2-2z"/>
        <path fill="#58587b" d="M401 258l2 2-2-2z"/>
        <path fill="#3a3a7c" d="M403 258l2 2-2-2z"/>
        <path fill="#58587b" d="M413 259l2 1-2-1z"/>
        <path fill="#737370" d="M416 258l2 2-2-2z"/>
        <path fill="#99994e" d="M418 258l3 2-3-2z"/>
        <path fill="#a4a43d" d="M421 258l2 2-2-2z"/>
        <path fill="#dddc7a" d="M438 258l2 2-2-2z"/>
        <path fill="#d0d045" d="M440 258l2 2-2-2z"/>
        <path fill="#f2f1d7" d="M304 260l2 2-2-2z"/>
        <path fill="#e0dea1" d="M306 260l2 2-2-2z"/>
        <path fill="#dddc7a" d="M308 260l2 2-2-2z"/>
        <path fill="#d9d868" d="M351 260l3 2-3-2z"/>
        <path fill="#e5e3af" d="M353 260l3 2-3-2z"/>
        <path fill="#f6f6e4" d="M384 260l2 2-2-2z"/>
        <path fill="#e1e18c" d="M386 260l2 2-2-2z"/>
        <path fill="#d4d456" d="M429 260l2 2-2-2z"/>
        <path fill="#e1e18c" d="M431 260l3 2-3-2z"/>
        <path fill="#eeedc1" d="M434 260l2 2-2-2z"/>
        <path fill="#f2f1d2" d="M312 262l3 3-3-3z"/>
        <path fill="#e0dea1" d="M315 262l2 3-2-3z"/>
        <path fill="#dddc7a" d="M317 262l2 3-2-3z"/>
        <path fill="#d0d045" d="M319 262l2 3-2-3z"/>
        <path fill="#dddc7a" d="M345 262l2 3-2-3z"/>
        <path fill="#e5e3af" d="M347 262l2 3-2-3z"/>
        <path fill="#f6f6e4" d="M349 262l2 3-2-3z"/>
        <path fill="#eeedc1" d="M390 262l2 3-2-3z"/>
        <path fill="#e1e18c" d="M392 262l3 3-3-3z"/>
        <path fill="#d4d456" d="M395 262l2 3-2-3z"/>
        <path fill="#d9d868" d="M421 262l2 3-2-3z"/>
        <path fill="#e1e18c" d="M423 262l2 3-2-3z"/>
        <path fill="#eeedc1" d="M425 262l2 3-2-3z"/>
        <path fill="#f6f6e4" d="M427 262l2 3-2-3z"/>
        <path fill="#f2f1d7" d="M323 265l2 2-2-2z"/>
        <path fill="#f2f1d2" d="M325 265l3 2-3-2z"/>
        <path fill="#eeedc1" d="M328 265l2 2-2-2z"/>
        <path fill="#f2f1d2" d="M338 265l1 1-1-1z"/>
        <path fill="#fbfaf2" d="M341 265l2 2-2-2z"/>
        <path fill="#fef8f1" d="M351 265l5 4v-4h-5z"/>
        <path fill="#f2f1d7" d="M399 265l2 2-2-2z"/>
        <path fill="#f2f1d2" d="M401 265l2 2-2-2z"/>
        <path fill="#e5e3af" d="M403 265l2 2-2-2z"/>
        <path fill="#e5e59d" d="M407 265l1 1-1-1z"/>
        <path fill="#e0dea1" d="M410 265l2 2-2-2z"/>
        <path fill="#f2f1d2" d="M413 265l2 1-2-1z"/>
        <path fill="#fbfaf2" d="M416 265l2 2-2-2z"/>
        <path fill="#fef8f1" d="M347 267l2 2-2-2z"/>
        <path fill="#fbbe66" d="M349 267l2 2-2-2z"/>
        <path fill="#fbc477" d="M347 269l2 2-2-2z"/>
        <path fill="#fcb144" d="M351 269l3 2-3-2z"/>
        <path fill="#fe9f11" d="M347 271l2 2-2-2z"/>
        <path fill="#fea522" d="M351 271l3 2-3-2z"/>
        <path fill="#fae3c9" d="M345 273l2 2-2-2m9 0l2 2-2-2z"/>
        <path fill="#fbead6" d="M364 273l2 2-2-2z"/>
        <path fill="#f9d6aa" d="M366 273l3 2-3-2z"/>
        <path fill="#fae3c9" d="M375 273l2 2-2-2z"/>
        <path fill="#fef8f1" d="M377 273l2 2-2-2z"/>
        <path fill="#f9d099" d="M345 275l2 3-2-3z"/>
        <path fill="#fdab33" d="M353 275l3 3-3-3z"/>
        <path fill="#fcf1e4" d="M358 275l2 3-2-3z"/>
        <path fill="#fbc477" d="M360 275l2 3-2-3z"/>
        <path fill="#fea522" d="M362 275l2 3-2-3z"/>
        <path fill="#fcb755" d="M379 275l3 3-3-3z"/>
        <path fill="#f9d6aa" d="M382 275l2 3-2-3z"/>
        <path fill="#faca88" d="M345 278l2 2-2-2z"/>
        <path fill="#fea522" d="M356 278l2 2-2-2m28 0l2 2-2-2z"/>
        <path fill="#f8dcbb" d="M386 278l2 2-2-2z"/>
        <path fill="#f6f6e4" d="M299 280l3 2-3-2z"/>
        <path fill="#fbc477" d="M345 280l2 2-2-2z"/>
        <path fill="#fbbe66" d="M388 280l2 2-2-2z"/>
        <path fill="#f8dcbb" d="M390 280l2 2-2-2z"/>
        <path fill="#faca88" d="M345 282l2 2-2-2z"/>
        <path fill="#fcb755" d="M395 282l2 2-2-2z"/>
        <path fill="#f8dcbb" d="M397 282l2 2-2-2z"/>
        <path fill="#fef8f1" d="M343 284l2 2-2-2z"/>
        <path fill="#fe9f11" d="M345 284l2 2-2-2z"/>
        <path fill="#fdab33" d="M405 284l3 2-3-2z"/>
        <path fill="#fcb144" d="M408 284l2 2-2-2z"/>
        <path fill="#fbc477" d="M410 284l2 2-2-2z"/>
        <path fill="#f9d6aa" d="M412 284l4 4-4-4z"/>
        <path fill="#fef8f1" d="M414 284l2 2-2-2z"/>
        <path fill="#fcb144" d="M343 286l2 2-2-2z"/>
        <path fill="#fdab33" d="M373 286l2 2-2-2z"/>
        <path fill="#fbc477" d="M375 286l2 2-2-2zm9 0l2 2-2-2z"/>
        <path fill="#fea522" d="M386 286l2 2-2-2z"/>
        <path fill="#fae3c9" d="M341 288l2 3-2-3z"/>
        <path fill="#fcb144" d="M369 288l2 3-2-3z"/>
        <path fill="#fae3c9" d="M371 288l2 3-2-3z"/>
        <path fill="#f8dcbb" d="M388 288l2 3-2-3z"/>
        <path fill="#fdab33" d="M390 288l2 3-2-3z"/>
        <path fill="#fe9f11" d="M403 288l2 3-2-3z"/>
        <path fill="#fcb755" d="M405 288l3 3-3-3z"/>
        <path fill="#f9d099" d="M408 288l2 3-2-3z"/>
        <path fill="#fbead6" d="M410 288l2 3-2-3z"/>
        <path fill="#fcb144" d="M341 291l2 2-2-2z"/>
        <path fill="#fbbe66" d="M366 291l3 2-3-2z"/>
        <path fill="#f9d099" d="M392 291l3 2-3-2z"/>
        <path fill="#fbead6" d="M401 291l2 2-2-2z"/>
        <path fill="#fcf1e4" d="M338 293l3 2-3-2z"/>
        <path fill="#fbbe66" d="M364 293l2 2-2-2z"/>
        <path fill="#f9d099" d="M395 293l2 2-2-2z"/>
        <path fill="#fae3c9" d="M401 293l2 2-2-2z"/>
        <path fill="#fbc477" d="M338 295l3 2-3-2z"/>
        <path fill="#fcb144" d="M362 295l2 2-2-2m35 0l2 2-2-2z"/>
        <path fill="#fbbe66" d="M401 295l2 2-2-2z"/>
        <path fill="#f6f6e4" d="M299 297l3 2-3-2z"/>
        <path fill="#fea522" d="M338 297l3 2-3-2z"/>
        <path fill="#fbead6" d="M362 297l2 2-2-2z"/>
        <path fill="#fcf1e4" d="M397 297l2 2-2-2z"/>
        <path fill="#fef8f1" d="M403 297l2 2-2-2z"/>
        <path fill="#fcf1e4" d="M336 299l2 2-2-2z"/>
        <path fill="#fbbe66" d="M360 299l2 2-2-2z"/>
        <path fill="#faca88" d="M399 299l2 2-2-2z"/>
        <path fill="#f9d099" d="M403 299l2 2-2-2z"/>
        <path fill="#f9d6aa" d="M336 301l2 3-2-3z"/>
        <path fill="#fcf1e4" d="M360 301l2 3-2-3z"/>
        <path fill="#fae3c9" d="M371 301l2 3-2-3z"/>
        <path fill="#fea522" d="M373 301l2 3-2-3z"/>
        <path fill="#fcb144" d="M375 301l2 3-2-3z"/>
        <path fill="#f9d6aa" d="M377 301l2 3-2-3z"/>
        <path fill="#fef8f1" d="M399 301l2 3-2-3z"/>
        <path fill="#fea522" d="M401 301l2 3-2-3z"/>
        <path fill="#fdab33" d="M403 301l2 3-2-3z"/>
        <path fill="#faca88" d="M336 304l-2 6 2-6z"/>
        <path fill="#fea522" d="M358 304l2 2-2-2z"/>
        <path fill="#fef8f1" d="M360 304l2 2-2-2z"/>
        <path fill="#f9d099" d="M371 304l2 2-2-2z"/>
        <path fill="#fdab33" d="M379 304l3 2-3-2z"/>
        <path fill="#fae3c9" d="M382 304l2 2-2-2z"/>
        <path fill="#f8dcbb" d="M401 304l2 2-2-2z"/>
        <path fill="#f90" d="M403 304l2 2-2-2z"/>
        <path fill="#fbead6" d="M406 305l1 2-1-2z"/>
        <path fill="#fea522" d="M362 306l2 2-2-2z"/>
        <path fill="#fbbe66" d="M364 306l2 2-2-2z"/>
        <path fill="#faca88" d="M366 306l3 2-3-2z"/>
        <path fill="#fcb144" d="M369 306l2 2-2-2z"/>
        <path fill="#fae3c9" d="M371 306l2 2-2-2z"/>
        <path fill="#fe9f11" d="M373 306l2 2-2-2z"/>
        <path fill="#fdab33" d="M384 306l2 2-2-2z"/>
        <path fill="#fbc477" d="M386 306l2 2-2-2z"/>
        <path fill="#faca88" d="M388 306l2 2-2-2z"/>
        <path fill="#f9d6aa" d="M390 306l2 2-2-2z"/>
        <path fill="#fae3c9" d="M394 307h1l-1-1z"/>
        <path fill="#fef8f1" d="M397 306l2 2-2-2z"/>
        <path fill="#fbc477" d="M403 306l2 2-2-2z"/>
        <path fill="#fef8f1" d="M310 308l2 2-2-2z"/>
        <path fill="#fcf1e4" d="M312 308l3 2-3-2z"/>
        <path fill="#fcb755" d="M369 308l2 2-2-2z"/>
        <path fill="#fbead6" d="M373 308l2 2-2-2z"/>
        <path fill="#fea522" d="M375 308l2 2-2-2z"/>
        <path fill="#fe9f11" d="M392 308l3 2-3-2z"/>
        <path fill="#fcb144" d="M395 308l-3 4 3-4z"/>
        <path fill="#fe9f11" d="M399 308l2 2-2-2z"/>
        <path fill="#fbbe66" d="M401 308l2 2-2-2z"/>
        <path fill="#fcf1e4" d="M403 308l2 2-2-2z"/>
        <path fill="#fae3c9" d="M310 310l2 2-2-2z"/>
        <path fill="#fe9f11" d="M312 310l5 4-5-4z"/>
        <path fill="#fbead6" d="M315 310l2 2-2-2zm19 0l2 2-2-2z"/>
        <path fill="#fae3c9" d="M336 310l2 2-2-2z"/>
        <path fill="#fe9f11" d="M356 310l2 2-2-2z"/>
        <path fill="#fbc477" d="M358 310l2 2-2-2z"/>
        <path fill="#fea522" d="M360 310l2 2-2-2z"/>
        <path fill="#fbc477" d="M366 310l3 2-3-2z"/>
        <path fill="#fef8f1" d="M369 310l2 2-2-2z"/>
        <path fill="#fbc477" d="M377 310l2 2-2-2z"/>
        <path fill="#fff" d="M395 310l2 2-2-2z"/>
        <path fill="#fdab33" d="M397 310l2 2-2-2z"/>
        <path fill="#fbc477" d="M405 310l3 2-3-2z"/>
        <path fill="#fef8f1" d="M310 312l2 2-2-2z"/>
        <path fill="#fbead6" d="M317 312l2 2-2-2z"/>
        <path fill="#f9d6aa" d="M328 312l2 2-2-2z"/>
        <path fill="#fe9f11" d="M338 312l3 2-3-2z"/>
        <path fill="#f9d6aa" d="M342 313l1 1-1-1z"/>
        <path fill="#f8dcbb" d="M356 312l2 2-2-2z"/>
        <path fill="#fcf1e4" d="M362 312l2 2-2-2z"/>
        <path fill="#f9d6aa" d="M379 312l3 2-3-2z"/>
        <path fill="#fdab33" d="M395 312l2 2-2-2z"/>
        <path fill="#fcb755" d="M408 312l2 2-2-2z"/>
        <path fill="#fef8f1" d="M410 312l2 2-2-2z"/>
        <path fill="#53527c" d="M293 314l2 3-2-3z"/>
        <path fill="#fcb755" d="M312 314l3 3-3-3z"/>
        <path fill="#fea522" d="M317 314l2 3-2-3z"/>
        <path fill="#fbead6" d="M325 314l3 3-3-3z"/>
        <path fill="#fe9f11" d="M330 314l2 3-2-3z"/>
        <path fill="#fcf1e4" d="M332 314l2 3-2-3z"/>
        <path fill="#fbbe66" d="M338 314l3 3-3-3z"/>
        <path fill="#fbc477" d="M341 314l2 3-2-3z"/>
        <path fill="#fbbe66" d="M343 314l2 3-2-3z"/>
        <path fill="#fea522" d="M353 314l3 3-3-3z"/>
        <path fill="#f9d6aa" d="M382 314l2 3-2-3z"/>
        <path fill="#fcb144" d="M410 314l2 3-2-3z"/>
        <path fill="#8d8d5b" d="M444 314l3 3-3-3z"/>
        <path fill="#e5e3af" d="M299 317l3 2-3-2z"/>
        <path fill="#f8dcbb" d="M312 317l3 2-3-2z"/>
        <path fill="#fdab33" d="M319 317l2 2-2-2z"/>
        <path fill="#fe9f11" d="M325 317l3 2-3-2z"/>
        <path fill="#faca88" d="M330 317l2 2-2-2z"/>
        <path fill="#fcf1e4" d="M338 317l3 2-3-2z"/>
        <path fill="#f9d099" d="M353 317l3 2-3-2m31 0l2 2-2-2z"/>
        <path fill="#fbbe66" d="M412 317l2 2-2-2z"/>
        <path fill="#fea522" d="M315 319l2 2-2-2z"/>
        <path fill="#fdab33" d="M321 319l2 2-2-2z"/>
        <path fill="#fea522" d="M323 319l2 2-2-2z"/>
        <path fill="#fe9f11" d="M328 319l2 2-2-2z"/>
        <path fill="#fef8f1" d="M330 319l2 2-2-2z"/>
        <path fill="#fbbe66" d="M341 319l2 2-2-2z"/>
        <path fill="#fef8f1" d="M353 319l3 2-3-2z"/>
        <path fill="#fbbe66" d="M386 319l2 2-2-2z"/>
        <path fill="#f9d099" d="M414 319l2 2-2-2z"/>
        <path fill="#f9d6aa" d="M315 321l2 2-2-2z"/>
        <path fill="#f9d099" d="M328 321l2 2-2-2z"/>
        <path fill="#fcf1e4" d="M341 321l2 2-2-2z"/>
        <path fill="#fdab33" d="M351 321l3 2-3-2m37 0l2 2-2-2z"/>
        <path fill="#fbead6" d="M416 321l2 2-2-2z"/>
        <path fill="#fea522" d="M317 323l2 2-2-2z"/>
        <path fill="#fe9f11" d="M325 323l3 2-3-2z"/>
        <path fill="#fcb144" d="M343 323l2 2-2-2z"/>
        <path fill="#faca88" d="M351 323l3 2-3-2z"/>
        <path fill="#f8dcbb" d="M388 323l2 2-2-2z"/>
        <path fill="#fcb144" d="M416 323l2 2-2-2z"/>
        <path fill="#d3d079" d="M299 325l3 2-3-2z"/>
        <path fill="#faca88" d="M317 325l2 2-2-2zm26 0l2 2-2-2z"/>
        <path fill="#fae3c9" d="M351 325l3 2-3-2m37 0l2 2-2-2z"/>
        <path fill="#f8dcbb" d="M418 325l3 2-3-2z"/>
        <path fill="#f2f1d7" d="M438 325l2 2-2-2z"/>
        <path fill="#58587b" d="M445 327l1 1-1-1z"/>
        <path fill="#d9d868" d="M300 329l1 1-1-1z"/>
        <path fill="#f8dcbb" d="M317 327l2 3-2-3z"/>
        <path fill="#f9d6aa" d="M386 327l2 3-2-3z"/>
        <path fill="#fe9f11" d="M388 327l2 3-2-3z"/>
        <path fill="#fcb144" d="M418 327l3 3-3-3z"/>
        <path fill="#f2f1d2" d="M439 329v1-1z"/>
        <path fill="#fcf1e4" d="M317 330l2 2-2-2z"/>
        <path fill="#fef8f1" d="M384 330l2 2-2-2z"/>
        <path fill="#fe9f11" d="M386 330l2 2-2-2z"/>
        <path fill="#fdab33" d="M392 330l-2 4 2-4z"/>
        <path fill="#fcb755" d="M395 330l2 2-2-2z"/>
        <path fill="#fea522" d="M421 330l2 2-2-2z"/>
        <path fill="#f9d099" d="M423 330l2 2-2-2z"/>
        <path fill="#53527c" d="M444 330l3 2-3-2z"/>
        <path fill="#808067" d="M296 333v2-2z"/>
        <path fill="#fea522" d="M319 332l2 2-2-2m6 0l3 2-3-2z"/>
        <path fill="#fe9f11" d="M349 332l2 2-2-2z"/>
        <path fill="#fae3c9" d="M384 332l2 2-2-2z"/>
        <path fill="#fef8f1" d="M392 332l3 2-3-2z"/>
        <path fill="#fcb144" d="M397 332l2 2-2-2z"/>
        <path fill="#fcb755" d="M425 332l2 2-2-2z"/>
        <path fill="#fef8f1" d="M427 332l4 4-4-4z"/>
        <path fill="#e5e59d" d="M439 333v2-2z"/>
        <path fill="#32327b" d="M445 333l1 2-1-2z"/>
        <path fill="#fcb755" d="M320 335v2l-1-2z"/>
        <path fill="#fef8f1" d="M328 334l2 2-2-2z"/>
        <path fill="#fbbe66" d="M349 334l2 2-2-2z"/>
        <path fill="#fbead6" d="M384 334l2 2-2-2z"/>
        <path fill="#fe9f11" d="M388 334l2 2-2-2z"/>
        <path fill="#fcf1e4" d="M390 334l2 2-2-2z"/>
        <path fill="#fbead6" d="M397 334l2 2-2-2z"/>
        <path fill="#fdab33" d="M427 334l2 2-2-2z"/>
        <path fill="#667" d="M295 336l2 2-2-2z"/>
        <path fill="#f6f6e4" d="M302 336l2 2-3-2z"/>
        <path fill="#f9d6aa" d="M328 336l2 2-2-2z"/>
        <path fill="#fdab33" d="M345 336l2 2-2-2z"/>
        <path fill="#fe9f11" d="M347 336l2 2-2-2z"/>
        <path fill="#fcf1e4" d="M349 336l2 2-2-2z"/>
        <path fill="#fea522" d="M386 336l2 2-2-2z"/>
        <path fill="#faca88" d="M388 336l2 2-2-2m11 0l2 2-2-2z"/>
        <path fill="#fcb144" d="M429 336l2 2-2-2z"/>
        <path fill="#dddc7a" d="M438 336l2 2-2-2z"/>
        <path fill="#58587b" d="M295 338l2 2-2-2z"/>
        <path fill="#f2f1d2" d="M302 338l2 2-3-2z"/>
        <path fill="#fcb144" d="M320 340v1l-1-1z"/>
        <path fill="#fea522" d="M328 338l2 2-2-2z"/>
        <path fill="#fef8f1" d="M349 338l2 2-2-2z"/>
        <path fill="#fea522" d="M351 338l3 2-3-2z"/>
        <path fill="#fcb144" d="M356 338l2 2-2-2z"/>
        <path fill="#fbead6" d="M358 338l2 2-2-2z"/>
        <path fill="#f8dcbb" d="M386 338l2 2-2-2z"/>
        <path fill="#fcf1e4" d="M388 338l2 2-2-2z"/>
        <path fill="#fef8f1" d="M399 338l2 2-2-2z"/>
        <path fill="#fe9f11" d="M401 338l2 2-2-2z"/>
        <path fill="#fbead6" d="M431 338l3 2-3-2z"/>
        <path fill="#d9d868" d="M438 338l2 2-2-2z"/>
        <path fill="#3a3a7c" d="M295 340l2 3-2-3z"/>
        <path fill="#e5e3af" d="M302 340l2 3-3-3z"/>
        <path fill="#faca88" d="M330 340l2 3-2-3z"/>
        <path fill="#fbead6" d="M351 340l3 3-3-3z"/>
        <path fill="#fe9f11" d="M358 340l2 3-2-3z"/>
        <path fill="#fcf1e4" d="M360 340l2 3-2-3z"/>
        <path fill="#fbead6" d="M384 340l2 3-2-3z"/>
        <path fill="#fae3c9" d="M386 340l2 3-2-3z"/>
        <path fill="#fbead6" d="M388 340l2 3-2-3z"/>
        <path fill="#fbbe66" d="M401 340l2 3-2-3m17 0l3 3-3-3z"/>
        <path fill="#fcf1e4" d="M421 340l2 3-2-3z"/>
        <path fill="#fef8f1" d="M423 340l2 3-2-3z"/>
        <path fill="#f8dcbb" d="M425 340l2 3-2-3z"/>
        <path fill="#fcb755" d="M427 340l2 3-2-3z"/>
        <path fill="#fae3c9" d="M431 340l3 3-3-3z"/>
        <path fill="#808067" d="M442 340l2 3-2-3z"/>
        <path fill="#32327b" d="M295 343l2 2-2-2z"/>
        <path fill="#a4a43d" d="M298 344l1 1-1-1z"/>
        <path fill="#e5e59d" d="M302 343l2 2-3-2z"/>
        <path fill="#fbc477" d="M319 343l2 2-2-2z"/>
        <path fill="#f9d6aa" d="M332 343l2 2-2-2z"/>
        <path fill="#fbbe66" d="M353 343l3 2-3-2z"/>
        <path fill="#f9d099" d="M360 343l2 2-2-2z"/>
        <path fill="#fae3c9" d="M379 343l3 2-3-2z"/>
        <path fill="#fcb144" d="M382 343l2 2-2-2z"/>
        <path fill="#fae3c9" d="M390 343l2 2-2-2z"/>
        <path fill="#f8dcbb" d="M401 343l2 2-2-2z"/>
        <path fill="#f9d099" d="M418 343l3 2-3-2z"/>
        <path fill="#fbc477" d="M429 343l2 2-2-2z"/>
        <path fill="#fbead6" d="M431 343l3 2-3-2z"/>
        <path fill="#737370" d="M442 343l2 2-2-2z"/>
        <path fill="#d9d868" d="M302 345l2 2-3-2z"/>
        <path fill="#f9d099" d="M319 345l2 2-2-2z"/>
        <path fill="#f9d6aa" d="M334 345l2 2-2-2m20 0l2 2-3-2z"/>
        <path fill="#fbc477" d="M360 345l2 2-2-2z"/>
        <path fill="#fef8f1" d="M371 345l2 2-2-2z"/>
        <path fill="#f8dcbb" d="M373 345l2 2-2-2z"/>
        <path fill="#fbc477" d="M375 345l2 2-2-2z"/>
        <path fill="#fea522" d="M377 345l2 2-2-2z"/>
        <path fill="#fbead6" d="M390 345l2 2-2-2z"/>
        <path fill="#f2f1d2" d="M436 345l2 2-2-2z"/>
        <path fill="#58587b" d="M442 345l2 2-2-2z"/>
        <path fill="#99994e" d="M297 347l2 2-2-2z"/>
        <path fill="#d0d045" d="M302 347l2 2-3-2z"/>
        <path fill="#fcb144" d="M336 347l2 2-2-2z"/>
        <path fill="#fae3c9" d="M338 347l3 2-3-2z"/>
        <path fill="#fef8f1" d="M353 347l3 2-3-2z"/>
        <path fill="#fcb755" d="M362 347l2 2-2-2z"/>
        <path fill="#fbc477" d="M364 347l2 2-2-2z"/>
        <path fill="#fcb144" d="M366 347l3 2-3-2z"/>
        <path fill="#fea522" d="M369 347l2 2-2-2z"/>
        <path fill="#fe9f11" d="M386 347l2 2-2-2z"/>
        <path fill="#f9d6aa" d="M388 347l2 2-2-2z"/>
        <path fill="#fef8f1" d="M418 347l3 2-3-2z"/>
        <path fill="#e0dea1" d="M436 347l2 2-2-2z"/>
        <path fill="#3a3a7c" d="M442 347l2 2-2-2z"/>
        <path fill="#737370" d="M297 349l2 2-2-2z"/>
        <path fill="#fbfaf2" d="M304 349l2 2-2-2z"/>
        <path fill="#fea522" d="M321 349l2 2-2-2z"/>
        <path fill="#fe9f11" d="M341 349l2 2-2-2z"/>
        <path fill="#fcb144" d="M343 349l2 2-2-2z"/>
        <path fill="#fbc477" d="M345 349l2 2-2-2z"/>
        <path fill="#faca88" d="M347 349l2 2-2-2z"/>
        <path fill="#fbc477" d="M349 349l2 2-2-2z"/>
        <path fill="#fcb144" d="M351 349l3 2-3-2z"/>
        <path fill="#fdab33" d="M353 349l3 2-3-2z"/>
        <path fill="#fbc477" d="M384 349l2 2-2-2z"/>
        <path fill="#fef8f1" d="M386 349l2 2-2-2z"/>
        <path fill="#fdab33" d="M416 349l2 2-2-2z"/>
        <path fill="#e1e18c" d="M436 349l2 2-2-2z"/>
        <path fill="#a4a43d" d="M441 351l1 1-1-2z"/>
        <path fill="#262678" d="M442 349l2 2-2-2z"/>
        <path fill="#58587b" d="M297 351l2 2-2-2z"/>
        <path fill="#f2f1d2" d="M304 351l2 2-2-2z"/>
        <path fill="#faca88" d="M321 351l2 2-2-2z"/>
        <path fill="#fe9f11" d="M379 351l3 2-3-2z"/>
        <path fill="#fbead6" d="M382 351l2 2-2-2z"/>
        <path fill="#fbc477" d="M401 351l2 2-2-2z"/>
        <path fill="#faca88" d="M416 351l2 2-2-2z"/>
        <path fill="#d4d456" d="M436 351l2 2-2-2z"/>
        <path fill="#32327b" d="M297 353l2 3-2-3z"/>
        <path fill="#e5e59d" d="M304 353l2 3-2-3z"/>
        <path fill="#fef8f1" d="M321 353l2 3-2-3z"/>
        <path fill="#fe9f11" d="M323 353l2 3-2-3z"/>
        <path fill="#fbead6" d="M379 353l3 3-3-3z"/>
        <path fill="#fea522" d="M401 353l2 3-2-3z"/>
        <path fill="#fcf1e4" d="M416 353l2 3-2-3z"/>
        <path fill="#808067" d="M440 353l2 3-2-3z"/>
        <path fill="#0e0e6e" d="M297 356l2 2-2-2z"/>
        <path fill="#a4a43d" d="M299 356l3 2-3-2z"/>
        <path fill="#d9d868" d="M304 356l2 2-2-2z"/>
        <path fill="#f8dcbb" d="M323 356l2 2-2-2z"/>
        <path fill="#f9d6aa" d="M399 356l2 2-2-2z"/>
        <path fill="#faca88" d="M414 356l2 2-2-2z"/>
        <path fill="#f2f1d2" d="M434 356l2 2-2-2z"/>
        <path fill="#58587b" d="M440 356l2 2-2-2z"/>
        <path fill="#8d8d5b" d="M299 358l3 2-3-2z"/>
        <path fill="#f9d6aa" d="M325 358l3 2-3-2z"/>
        <path fill="#fdab33" d="M369 358l2 2-2-2z"/>
        <path fill="#fff" d="M371 358l2 2-2-2z"/>
        <path fill="#fcb144" d="M374 358l2 1-2-1z"/>
        <path fill="#fef8f1" d="M397 358l-2 4 2-4z"/>
        <path fill="#fe9f11" d="M399 358l2 2-2-2z"/>
        <path fill="#fdab33" d="M412 358l-2 4 2-4z"/>
        <path fill="#e5e59d" d="M434 358l2 2-2-2z"/>
        <path fill="#3a3a7c" d="M440 358l2 2-2-2z"/>
        <path fill="#667" d="M299 360l3 2-3-2z"/>
        <path fill="#f2f1d2" d="M306 360l2 2-2-2z"/>
        <path fill="#f9d6aa" d="M328 360l2 2-2-2z"/>
        <path fill="#fe9f11" d="M369 360l2 2-2-2z"/>
        <path fill="#faca88" d="M371 360l2 2-2-2z"/>
        <path fill="#fea522" d="M373 360l2 2-2-2z"/>
        <path fill="#fcf1e4" d="M375 360l2 2-2-2z"/>
        <path fill="#fdab33" d="M397 360l2 2-2-2z"/>
        <path fill="#fef8f1" d="M412 360l2 2-2-2z"/>
        <path fill="#d9d868" d="M434 360l2 2-2-2z"/>
        <path fill="#a4a43d" d="M438 360l2 2-2-2z"/>
        <path fill="#0e0e6e" d="M440 360l2 2-2-2z"/>
        <path fill="#3a3a7c" d="M299 362l3 2-3-2z"/>
        <path fill="#e5e59d" d="M306 362l2 2-2-2z"/>
        <path fill="#fae3c9" d="M330 362l4 4-4-4z"/>
        <path fill="#fe9f11" d="M332 362l2 2-2-2z"/>
        <path fill="#f8dcbb" d="M373 362l2 2-2-2z"/>
        <path fill="#fcf1e4" d="M392 362l3 2-3-2z"/>
        <path fill="#fdab33" d="M395 362l2 2-2-2z"/>
        <path fill="#fcb144" d="M408 362l2 2-2-2z"/>
        <path fill="#fef8f1" d="M410 362l2 2-2-2z"/>
        <path fill="#fbfaf2" d="M431 362l3 2-3-2z"/>
        <path fill="#8d8d5b" d="M438 362l2 2-2-2z"/>
        <path fill="#0e0e6e" d="M299 364l3 2-3-2z"/>
        <path fill="#a4a43d" d="M302 364l2 2-3-2z"/>
        <path fill="#d4d456" d="M306 364l2 2-2-2z"/>
        <path fill="#f9d6aa" d="M371 364l2 2-2-2z"/>
        <path fill="#f9d099" d="M390 364l2 2-2-2z"/>
        <path fill="#fe9f11" d="M392 364l3 2-3-2z"/>
        <path fill="#faca88" d="M405 364l3 2-3-2z"/>
        <path fill="#eeedc1" d="M431 364l3 2-3-2z"/>
        <path fill="#58587b" d="M438 364l2 2-2-2z"/>
        <path fill="#737370" d="M302 366l2 2-3-2z"/>
        <path fill="#f6f6e4" d="M308 366l2 2-2-2z"/>
        <path fill="#fbbe66" d="M332 366l2 2-2-2z"/>
        <path fill="#fcb144" d="M366 366l3 2-3-2z"/>
        <path fill="#f8dcbb" d="M369 368l1 1-1-1z"/>
        <path fill="#fbbe66" d="M386 366l2 2-2-2z"/>
        <path fill="#fe9f11" d="M388 366l2 2-2-2z"/>
        <path fill="#fbc477" d="M401 366l2 2-2-2z"/>
        <path fill="#fcf1e4" d="M403 366l2 2-2-2z"/>
        <path fill="#d3d079" d="M431 366l3 2-3-2z"/>
        <path fill="#a4a43d" d="M436 366l2 2-2-2z"/>
        <path fill="#262678" d="M438 366l2 2-2-2z"/>
        <path fill="#49497d" d="M302 369l2 2-3-3z"/>
        <path fill="#e0dea1" d="M308 369l2 2-2-3z"/>
        <path fill="#fae3c9" d="M330 369l2 2-2-3z"/>
        <path fill="#fdab33" d="M360 369l2 2-2-3z"/>
        <path fill="#fbc477" d="M362 369l2 2-2-3z"/>
        <path fill="#fbead6" d="M364 369l2 2-2-3z"/>
        <path fill="#fcb144" d="M371 369l2 2-2-3z"/>
        <path fill="#f9d6aa" d="M399 369l2 2-2-3z"/>
        <path fill="#99994e" d="M436 369l2 2-2-3z"/>
        <path fill="#0e0e6e" d="M302 371l2 2-3-2z"/>
        <path fill="#a4a43d" d="M304 371l2 2-2-2z"/>
        <path fill="#d4d456" d="M308 371l2 2-2-2z"/>
        <path fill="#f9d099" d="M328 371l2 2-2-2z"/>
        <path fill="#fe9f11" d="M330 371l2 2-2-2m11 0l2 2-2-2z"/>
        <path fill="#f9d6aa" d="M343 371l2 2-2-2z"/>
        <path fill="#f9d099" d="M345 371l2 2-2-2z"/>
        <path fill="#f9d6aa" d="M353 371l3 2-3-2z"/>
        <path fill="#fae3c9" d="M356 371l2 2-2-2z"/>
        <path fill="#fef8f1" d="M358 371l2 2-2-2z"/>
        <path fill="#fbead6" d="M375 371l2 2-2-2z"/>
        <path fill="#fae3c9" d="M377 371l2 2-2-2z"/>
        <path fill="#faca88" d="M379 371l3 2-3-2z"/>
        <path fill="#fbc477" d="M382 371l2 2-2-2z"/>
        <path fill="#fdab33" d="M384 371l2 2-2-2z"/>
        <path fill="#fe9f11" d="M395 371l2 2-2-2z"/>
        <path fill="#f9d6aa" d="M397 371l2 2-2-2z"/>
        <path fill="#e5e3af" d="M429 371l2 2-2-2z"/>
        <path fill="#667" d="M436 371l2 2-2-2z"/>
        <path fill="#737370" d="M304 373l2 2-2-2z"/>
        <path fill="#f2f1d7" d="M310 373l2 2-2-2z"/>
        <path fill="#fea522" d="M325 373l3 2-3-2z"/>
        <path fill="#fe9f11" d="M336 373l2 2-2-2z"/>
        <path fill="#fbbe66" d="M338 373l3 2-3-2z"/>
        <path fill="#fcf1e4" d="M341 373l2 2-2-2z"/>
        <path fill="#fea522" d="M392 373l3 2-3-2z"/>
        <path fill="#fbead6" d="M395 373l2 2-2-2z"/>
        <path fill="#dddc7a" d="M429 373l2 2-2-2z"/>
        <path fill="#a4a43d" d="M434 373l2 2-2-2z"/>
        <path fill="#262678" d="M436 373l2 2-2-2z"/>
        <path fill="#49497d" d="M304 375l2 2-2-2z"/>
        <path fill="#a4a43d" d="M307 377v1l-1-2z"/>
        <path fill="#d3d079" d="M310 375l2 2-2-2z"/>
        <path fill="#f9d099" d="M328 375l2 2-2-2z"/>
        <path fill="#fcb144" d="M330 375l2 2-2-2z"/>
        <path fill="#faca88" d="M332 375l2 2-2-2z"/>
        <path fill="#f8dcbb" d="M334 375l2 2-2-2z"/>
        <path fill="#fef8f1" d="M336 375l2 2-2-2z"/>
        <path fill="#f8dcbb" d="M384 375l2 2-2-2z"/>
        <path fill="#fcf1e4" d="M392 375l3 2-3-2z"/>
        <path fill="#f6f6e4" d="M427 375l2 2-2-2z"/>
        <path fill="#8d8d5b" d="M434 375l2 2-2-2z"/>
        <path fill="#fbfaf2" d="M312 377l3 2-3-2z"/>
        <path fill="#fbbe66" d="M384 377l2 2-2-2z"/>
        <path fill="#faca88" d="M390 377l2 2-2-2z"/>
        <path fill="#e1e18c" d="M427 377l2 2-2-2z"/>
        <path fill="#49497d" d="M434 377l2 2-2-2z"/>
        <path fill="#58587b" d="M306 379l2 2-2-2z"/>
        <path fill="#e5e59d" d="M312 379l3 2-3-2z"/>
        <path fill="#fe9f11" d="M384 379l2 2-2-2z"/>
        <path fill="#fdab33" d="M388 379l2 2-2-2z"/>
        <path fill="#fbfaf2" d="M425 379l2 2-2-2z"/>
        <path fill="#a4a43d" d="M431 379l3 2-3-2z"/>
        <path fill="#0e0e6e" d="M434 379l2 2-2-2z"/>
        <path fill="#1b1b74" d="M306 382l2 2-2-3z"/>
        <path fill="#a4a43d" d="M308 382l2 2-2-3z"/>
        <path fill="#d0d045" d="M312 382l3 2-3-3z"/>
        <path fill="#fbead6" d="M382 382l2 2-2-3z"/>
        <path fill="#fe9f11" d="M386 382l2 2-2-3z"/>
        <path fill="#fbead6" d="M388 382l2 2-2-3z"/>
        <path fill="#e5e59d" d="M425 382l2 2-2-3z"/>
        <path fill="#667" d="M431 382l3 2-3-3z"/>
        <path fill="#6e6c70" d="M308 384l2 2-2-2z"/>
        <path fill="#e5e3af" d="M315 384l2 2-2-2z"/>
        <path fill="#faca88" d="M382 385l1 2-1-2z"/>
        <path fill="#fae3c9" d="M386 384l2 2-2-2z"/>
        <path fill="#fbfaf2" d="M423 384l2 2-2-2z"/>
        <path fill="#a4a43d" d="M429 384l2 2-2-2z"/>
        <path fill="#1b1b74" d="M431 384l3 2-3-2m-123 2l2 2-2-2z"/>
        <path fill="#a4a43d" d="M310 386l2 2-2-2z"/>
        <path fill="#d0d045" d="M315 386l2 2-2-2z"/>
        <path fill="#fbfaf2" d="M317 386l2 2-2-2z"/>
        <path fill="#f9d6aa" d="M384 386l2 2-2-2z"/>
        <path fill="#e5e59d" d="M423 386l2 2-2-2z"/>
        <path fill="#6e6c70" d="M429 386l2 2-2-2m-119 2l2 2-2-2z"/>
        <path fill="#8cbf84" d="M317 388l2 2-2-2z"/>
        <path fill="#0cf" d="M318 388c7 16 34 53 54 53 20-1 42-38 51-53H318z"/>
        <path fill="#a4a43d" d="M427 388l2 2-2-2z"/>
        <path fill="#1b1b74" d="M429 388l2 2-2-2m-119 2l2 2-2-2z"/>
        <path fill="#a4a43d" d="M312 390l3 2-3-2z"/>
        <path fill="#adb333" d="M317 390l2 2-2-2z"/>
        <path fill="#1ac5b5" d="M319 390l2 2-2-2z"/>
        <path fill="#68b070" d="M421 390l2 2-2-2z"/>
        <path fill="#667" d="M427 390l2 2-2-2z"/>
        <path fill="#58587b" d="M312 392l3 2-3-2z"/>
        <path fill="#7fb15c" d="M319 392l2 2-2-2z"/>
        <path fill="#27c2aa" d="M418 392l3 2-3-2z"/>
        <path fill="#a4a43d" d="M425 392l-2 5 2-5z"/>
        <path fill="#0e0e6e" d="M427 392l2 2-2-2m-115 2l2 3-2-3z"/>
        <path fill="#a4a43d" d="M315 395l4 4-4-5z"/>
        <path fill="#34be9e" d="M321 395l2 2-2-3z"/>
        <path fill="#96b247" d="M418 395l3 2-3-3z"/>
        <path fill="#53527c" d="M425 395l2 2-2-3z"/>
        <path fill="#3a3a7c" d="M315 397l2 2-2-2z"/>
        <path fill="#a2b23d" d="M321 397l2 2-2-2z"/>
        <path fill="#0dc9c1" d="M323 397l2 2-2-2z"/>
        <path fill="#5bb47c" d="M416 397l2 2-2-2z"/>
        <path fill="#8d8d5b" d="M423 397l2 2-2-2z"/>
        <path fill="#737370" d="M317 399l2 2-2-2z"/>
        <path fill="#74b166" d="M323 399l2 2-2-2z"/>
        <path fill="#27c2aa" d="M414 399l2 2-2-2z"/>
        <path fill="#a4a43d" d="M421 399l-3 4 3-4z"/>
        <path fill="#262678" d="M423 399l2 2-2-2z"/>
        <path fill="#0e0e6e" d="M317 401l2 2-2-2z"/>
        <path fill="#a4a43d" d="M319 401l4 4-4-4z"/>
        <path fill="#42bb92" d="M325 401l3 2-3-2z"/>
        <path fill="#0dc9c1" d="M412 401l2 2-2-2z"/>
        <path fill="#96b247" d="M414 401l2 2-2-2z"/>
        <path fill="#58587b" d="M421 401l2 2-2-2z"/>
        <path fill="#3a3a7c" d="M319 403l2 2-2-2z"/>
        <path fill="#adb333" d="M325 403l3 2-3-2z"/>
        <path fill="#27c2aa" d="M328 403l2 2-2-2z"/>
        <path fill="#74b166" d="M412 403l2 2-2-2z"/>
        <path fill="#8d8d5b" d="M418 403l3 2-3-2z"/>
        <path fill="#6e6c70" d="M321 405l2 2-2-2z"/>
        <path fill="#96b247" d="M328 405l2 2-2-2z"/>
        <path fill="#0dc9c1" d="M330 405l2 2-2-2z"/>
        <path fill="#42bb92" d="M410 405l2 2-2-2z"/>
        <path fill="#a4a43d" d="M416 405l-4 7 4-7z"/>
        <path fill="#1b1b74" d="M418 405l3 2-3-2z"/>
        <path fill="#0e0e6e" d="M321 408l2 2-2-3z"/>
        <path fill="#8d8d5b" d="M323 408l2 2-2-3z"/>
        <path fill="#7fb15c" d="M330 408l2 2-2-3z"/>
        <path fill="#34be9e" d="M408 408l2 2-2-3z"/>
        <path fill="#3a3a7c" d="M416 408l2 2-2-3z"/>
        <path fill="#1b1b74" d="M323 410l2 2-2-2z"/>
        <path fill="#a4a43d" d="M325 410l24 23-24-23z"/>
        <path fill="#74b166" d="M332 410l2 2-2-2z"/>
        <path fill="#27c2aa" d="M405 410l3 2-3-2z"/>
        <path fill="#adb333" d="M408 410l2 2-2-2z"/>
        <path fill="#667" d="M414 410l2 2-2-2z"/>
        <path fill="#32327b" d="M325 412l3 2-3-2z"/>
        <path fill="#42bb92" d="M334 412l2 2-2-2z"/>
        <path fill="#0dc9c1" d="M403 412l-8 11 8-11z"/>
        <path fill="#adb333" d="M405 412l3 2-3-2z"/>
        <path fill="#737370" d="M412 412l2 2-2-2z"/>
        <path fill="#49497d" d="M328 414l2 2-2-2z"/>
        <path fill="#42bb92" d="M336 414l2 2-2-2z"/>
        <path fill="#96b247" d="M403 414l2 2-2-2z"/>
        <path fill="#8d8d5b" d="M410 414l-2 4 2-4z"/>
        <path fill="#0e0e6e" d="M412 414l2 2-2-2z"/>
        <path fill="#53527c" d="M330 416l2 2-2-2z"/>
        <path fill="#42bb92" d="M338 416l3 2-3-2z"/>
        <path fill="#96b247" d="M401 416l2 2-2-2z"/>
        <path fill="#0e0e6e" d="M410 416l2 2-2-2z"/>
        <path fill="#6e6c70" d="M332 418l2 2-2-2z"/>
        <path fill="#42bb92" d="M341 418l2 2-2-2z"/>
        <path fill="#96b247" d="M399 418l2 2-2-2z"/>
        <path fill="#a4a43d" d="M405 418l-4 7 4-7z"/>
        <path fill="#262678" d="M408 418l2 2-2-2z"/>
        <path fill="#6e6c70" d="M334 421l2 2-2-3z"/>
        <path fill="#42bb92" d="M343 421l2 2-2-3z"/>
        <path fill="#96b247" d="M397 421l2 2-2-3z"/>
        <path fill="#262678" d="M405 421l3 2-3-3z"/>
        <path fill="#6e6c70" d="M336 423l2 2-2-2z"/>
        <path fill="#68b070" d="M345 423l2 2-2-2z"/>
        <path fill="#27c2aa" d="M392 423l3 2-3-2z"/>
        <path fill="#adb333" d="M395 423l2 2-2-2z"/>
        <path fill="#262678" d="M403 423l2 2-2-2z"/>
        <path fill="#667" d="M338 425l3 2-3-2z"/>
        <path fill="#74b166" d="M347 425l2 2-2-2z"/>
        <path fill="#34be9e" d="M390 425l2 2-2-2z"/>
        <path fill="#adb333" d="M392 425l3 2-3-2z"/>
        <path fill="#8d8d5b" d="M399 425l-2 4 2-4z"/>
        <path fill="#262678" d="M401 425l2 2-2-2z"/>
        <path fill="#49497d" d="M341 427l2 2-2-2z"/>
        <path fill="#96b247" d="M349 427l2 2-2-2z"/>
        <path fill="#0dc9c1" d="M351 427l3 2-3-2z"/>
        <path fill="#42bb92" d="M388 427l2 2-2-2z"/>
        <path fill="#0e0e6e" d="M399 427l2 2-2-2z"/>
        <path fill="#49497d" d="M343 429l2 2-2-2z"/>
        <path fill="#a2b23d" d="M351 429l3 2-3-2z"/>
        <path fill="#27c2aa" d="M353 429l3 2-3-2z"/>
        <path fill="#74b166" d="M386 429l2 2-2-2z"/>
        <path fill="#a4a43d" d="M392 429l-6 9 6-9z"/>
        <path fill="#808067" d="M395 429l2 2-2-2z"/>
        <path fill="#0e0e6e" d="M397 429l2 2-2-2z"/>
        <path fill="#262678" d="M345 431l2 3-2-3z"/>
        <path fill="#adb333" d="M353 431l3 3-3-3z"/>
        <path fill="#42bb92" d="M356 431l2 3-2-3z"/>
        <path fill="#0dc9c1" d="M382 431l2 3-2-3z"/>
        <path fill="#96b247" d="M384 431l2 3-2-3z"/>
        <path fill="#6e6c70" d="M392 431l3 3-3-3z"/>
        <path fill="#1b1b74" d="M347 434l2 2-2-3z"/>
        <path fill="#8d8d5b" d="M349 434l2 2-2-3z"/>
        <path fill="#74b166" d="M358 434l2 2-2-3z"/>
        <path fill="#0dc9c1" d="M360 434l2 2-2-3z"/>
        <path fill="#34be9e" d="M379 434l3 2-3-3z"/>
        <path fill="#adb333" d="M382 434l2 2-2-3z"/>
        <path fill="#49497d" d="M390 434l2 2-2-3z"/>
        <path fill="#0e0e6e" d="M349 436l2 2-2-2z"/>
        <path fill="#6e6c70" d="M351 436l3 2-3-2z"/>
        <path fill="#a4a43d" d="M353 436l5 4-5-4z"/>
        <path fill="#96b247" d="M360 436l2 2-2-2z"/>
        <path fill="#27c2aa" d="M362 436l2 2-2-2z"/>
        <path fill="#68b070" d="M377 436l2 2-2-2z"/>
        <path fill="#32327b" d="M388 436l2 2-2-2z"/>
        <path fill="#49497d" d="M353 438l3 2-3-2z"/>
        <path fill="#5bb47c" d="M364 438l2 2-2-2z"/>
        <path fill="#27c2aa" d="M373 438l2 2-2-2z"/>
        <path fill="#96b247" d="M375 438l2 2-2-2z"/>
        <path fill="#a4a43d" d="M382 438l-3 4 3-4z"/>
        <path fill="#808067" d="M384 438l2 2-2-2z"/>
        <path fill="#0e0e6e" d="M386 438l2 2-2-2z"/>
        <path fill="#262678" d="M356 440l2 2-2-2z"/>
        <path fill="#8d8d5b" d="M358 440l2 2-2-2z"/>
        <path fill="#8bb252" d="M366 440l3 2-3-2z"/>
        <path fill="#1ac5b5" d="M369 440l2 2-2-2z"/>
        <path fill="#5bb47c" d="M371 440l2 2-2-2z"/>
        <path fill="#58587b" d="M382 440l2 2-2-2z"/>
        <path fill="#0e0e6e" d="M358 442l2 2-2-2z"/>
        <path fill="#667" d="M360 442l2 2-2-2z"/>
        <path fill="#a4a43d" d="M362 442l2 2-2-2z"/>
        <path fill="#99994e" d="M377 442l2 2-2-2z"/>
        <path fill="#32327b" d="M379 442l3 2-3-2m-17 2l2 3-2-3z"/>
        <path fill="#99994e" d="M364 444l2 3-2-3z"/>
        <path fill="#a4a43d" d="M373 444l2 3-2-3z"/>
        <path fill="#667" d="M375 444l2 3-2-3z"/>
        <path fill="#0e0e6e" d="M377 444l2 3-2-3m-13 3l2 2-2-3z"/>
        <path fill="#667" d="M366 447l3 2-3-3z"/>
        <path fill="#a4a43d" d="M369 447l2 2-2-3z"/>
        <path fill="#99994e" d="M371 447l2 2-2-3z"/>
        <path fill="#32327b" d="M373 447l2 2-2-3z"/>
        <path fill="#262678" d="M369 449l2 2-2-2z"/>
        <path fill="#0e0e6e" d="M371 449l2 2-2-2z"/>
        <path fill="#f90" d="M373 304c3 7 14 16 17 20-4 5-5 4-4 12 6-7 7-7 11-6 9 9 1 28-6 33-8 4-6 0-18 5 5 5 11 0 16 1 3 3-1 9 1 14 5 0 4-9 5-12 3-12 22-20 23-31 4-2 8 0 13 3-2-10-10-10-12-13-6-8-10-17-21-20-8-1-8 1-13-3-4-2-14-7-12-3z"/>
        <path fill="#fff" fill-rule="evenodd" d="M397 313a2 2 0 1 1-3 0 2 2 0 0 1 3 0z"/>
        <path fill="#f90" d="M346 337c6-7 8-20 11-25 5 1 5 2 12-2-9-2-10-2-11-6 4-13 25-15 32-11 8 5 3 6 13 14 2-7-6-10-7-15 2-4 9-3 13-8-3-3-10 1-14 2-11 3-28-11-38-6-3-3-4-7-4-13-7 7-4 14-5 17-5 9-11 17-8 28 3 8 4 6 4 13-1 4-1 15 2 12z"/>
        <path fill="#fff" fill-rule="evenodd" d="M343 312a2 2 0 0 1 2 0 2 2 0 1 1-3 2 2 2 0 0 1 1-2z"/>
        <path fill="#f90" d="M390 342c-8-2-21 3-27 3-1-5-1-5-8-9 3 9 3 10 0 13-12 3-25-14-25-22 0-9 3-6 4-18-6 2-5 10-9 13-4 1-7-6-12-7-2 4 6 8 8 11 8 9 5 29 14 36-1 4-4 7-9 10 10 3 14-4 18-4 10-1 20 0 27-8 6-7 4-7 10-10 4-2 13-8 9-8z"/>
        <path fill="#fff" fill-rule="evenodd" d="M370 358a2 2 0 1 1 2-3 2 2 0 0 1-2 3z"/>
    </g>
</svg>
