<svg xmlns="http://www.w3.org/2000/svg" xmlns:xlink="http://www.w3.org/1999/xlink" viewBox="0 0 512 512">
    <path fill="#e41e20" d="M0 0h512v512H0z"/>
    <path id="a" d="M205 100c-5 0-13 1-13 5-14-2-15 3-15 8 2-2 3-3 5-3 1 0 3 0 5 2a23 23 0 0 1 5 4h-12a18 18 0 0 1-6-3l-5-4c-3-3-6-3-5 2 2 4 6 6 11 7l9 1h11c-2 1-3 3-6 3-4 1-8-2-11-2 0 2 3 4 9 6 11 2 19 4 25 7 5 3 9 6 11 9 5 6 6 11 6 12 1 9-2 15-9 16-3 1-8 0-10-3-2-2-4-6-3-12 0-3 3-9 1-11a292 292 0 0 0-35-16c-3-1-5 3-6 4a54 54 0 0 1-38-25c-5-8-12 0-11 8 2 8 9 15 17 19s18 9 28 9c5 1 5 8-1 9-13 0-23 0-33-10-7-6-12 2-9 6 3 14 23 18 43 14 8-2 3 7 1 7-8 6-23 12-37 0-6-5-10-1-8 6 6 17 29 14 44 5 4-2 8 3 3 7-19 13-29 13-37 8-11-4-12 8-6 12 7 4 26 1 39-7 6-5 6 2 2 5-15 13-22 17-38 15-9-1-8 9-2 13 9 6 26-3 40-14 5-3 6 2 3 7a57 57 0 0 1-23 20 29 29 0 0 1-19 0c-7-2-7 5-4 10 2 4 11 5 20 2 9-4 19-11 25-20 6-5 6 2 3 7-14 21-26 29-42 27-8-1-9 5-5 10 8 7 19 6 27 0a751 751 0 0 0 31-33c6-4 8 0 6 9-2 5-5 11-15 15-7 4-2 9 3 9 3 0 9-3 13-8 6-7 6-11 10-21 3-5 8-3 8 2-3 11-5 12-10 17-5 4 3 6 6 4 9-6 12-13 14-19 2-5 8-3 5 5-6 18-17 26-35 29-2 1-3 2-2 4l7 8-32 8-16-10c-1-4-2-9-10-5-6-3-9-2-12 1 5 0 7 1 8 3 3 6 8 7 14 5l9 8h-18c-7-7-12-7-16-1-4 0-5 0-7 4 3-1 6-2 7 0 7 4 11 3 15 0l18 1-8 5c-9-3-14 1-16 9a18 18 0 0 0-2 10c1-3 3-6 6-8 8 3 12-1 12-6 4-3 11-4 15-8l12 4c1 6 5 8 12 6 7 1 6 4 7 6 2-3 2-7-3-10-2-5-6-7-10-4-5-1-6-3-11-5l32-8 8 7c2 1 3 2 4 0 7-10 11-20 17-27 3-3 6-6 10-7 2-1 4-1 6 1 1 2 2 4 2 9-1 6-2 8-4 11l-6 9c-5 6-10 9-14 11-7 5-9 3-15 3s-8 4-3 8a21 21 0 0 0 14 3l10-7c3-4 8 0 4 4-6 8-12 13-20 13-8 1-7 5-1 8 10 4 18-4 23-9 3-4 6-4 5 2-3 11-8 15-16 15-6 0-6 4-1 8 10 7 17-5 21-13 2-6 6-3 7 2 0 8-4 13-12 21 6 11 14 22 21 32l20-228-20-36-11-11v-2l4-1c-4-4-8-6-16-8l10-1a32 32 0 0 0-14-11l9-7c-7 0-14-2-20-4a41 41 0 0 0-13-4zm1 9c4 0 6 1 6 3 0 1-2 3-6 3s-7-2-7-4c0-1 3-3 7-3z"/>
    <use width="100%" height="100%" transform="matrix(-1 0 0 1 512 0)" xlink:href="#a"/>
</svg>
