<svg xmlns="http://www.w3.org/2000/svg" viewBox="0 0 512 512">
    <defs>
        <clipPath id="a">
            <path d="M0 0h512v512H0z"/>
        </clipPath>
    </defs>
    <g clip-path="url(#a)">
        <path fill="#3a7dce" fill-rule="evenodd" d="M0 0h512v512H0z"/>
        <path fill="#fff" d="M96 238c-4-8-4-8-4-15h-3c-1 0-2 7-5 5-1 0 2-6-1-8v-7s-4 3-8-5c-1-2-3 2-3 2s1 2-1 3c-2-2-4-1-7-4s1-5-5-7c3-9 3-8 13-11-6-4-6-4-10-10l-13-7c-7-10-11-29-11-42 5-5 11 15 21 21l13 5c7 4 9 8 15 12l16 5c8 6 11 14 17 16 6 0 7-4 9-4 11-1 16-2 19-6 2-2 7 2 22-4l-2-7s4-4 9-2c0-4 0-13 5-17-3-3-1-6-1-6l3-4c-1-9 2-9 2-11 1-3-2-2-1-5 1-4 6-4 7-7 0-3-2-4-2-5v-11c10-3 13-11 17-8 2-11 4-15 15-15 1-4-4-7-2-8 4 0 6 0 11 6 1 2 1-3 3-3 1-1 4-1 5-3l3-9c2-3 3 1 4 7 8 0 26 2 33 4 6 2 9-1 15-2 4 4 7 1 9 10 3 4 8 0 9 1 6 18 28 6 29 6 3 0 6 8 8 8 4-1 3-3 6-2-1 7 6 14 6 19 0 0 2 1 3-1l4-5 9 2 19 6c1 3 3 5 7 4 3 3 1 5 3 5 3-1 5-4 8-2 4 2 8 6 10 10 0 2-2 9 0 21 0 3 1 6 5 13-1 7 5 18 5 21s-3 5-5 9c7 6 0 15-4 21 28 6 15 17 37 11-5 14-3 13 2 26-11 7 0 10-7 19-1 1 4 8 11 8-2 16-7 10-6 33-14-1-8 17-18 15 0 10 5 11 4 22-8 2-8 2-11 8l-6-2c-2 10-6 11 0 21h-9c-1 3 3 4 3 7 0 2-10 8-18 8-2 5 5 10 5 12-9 2-13 13-13 13s5 2 4 4c-2-2-4-2-7-2-2 0-7 0-11 7-5 2-7 1-11 6-1-5-4 0-6 2-3 1-7 6-7 6a52 52 0 0 1 1-6l-9 2h-1l-2-6-9 8-4-2-5 7c-1 0-5-4-9-4-18 7-21-13-24-2-3-2-3 0-7 1-2 0-2-4-5-4-4 1-4 5-6 3-2-8-14-7-15-11s5-3 7-6c2-4-2-5 5-9 8-6 3-8 4-12 3-6 3-7 1-13 0 0-6-17-8-17-3-1-3 7-9 9-11 3-31-10-34-10s-18 4-17-4c-2 7-10 2-11 2-7 0-4 6-9 6l-25-3v4l-15-7-13-4c-11-4-5-13-24-8v-11h-9c3-23 0-11-2-32l-7 2c-8-11 10-9-6-15 0 0 0-12-4-8l2 6c-15-2-18-6-18-21 0 0 12 2 11 0-2-3-4-22-4-23 0-2 11-8 9-14l6-1"/>
        <path fill="none" stroke="#fff" stroke-linecap="round" stroke-linejoin="round" stroke-width="3" d="M596 314a4 4 0 0 0 0 3v-3z"/>
        <path fill="none" stroke="#fff" stroke-linejoin="round" stroke-width="3" d="M120 164s-3 0-3 2l2-2zm0-6c-1 0-4 0-3 2 1-2 3-2 3-2zm12 36s3 0 2 3l-2-3z"/>
    </g>
</svg>
