<svg xmlns="http://www.w3.org/2000/svg" xmlns:xlink="http://www.w3.org/1999/xlink" viewBox="0 0 512 512">
    <path fill="#74acdf" d="M0 0h512v512H0z"/>
    <path fill="#fff" d="M0 171h512v170H0z"/>
    <g id="c" transform="translate(-154) scale(1.024)">
        <path id="a" fill="#f6b40e" stroke="#85340a" stroke-width="1" d="M397 251l28 62 2 1v-1l-24-64m0 24c-1 9 5 14 4 23-1 8 4 13 5 16v6c1 0 3-2 2-7 0-4-4-6-3-16s-4-13-3-22"/>
        <use width="100%" height="100%" transform="rotate(23 400 250)" xlink:href="#a"/>
        <use width="100%" height="100%" transform="rotate(45 400 250)" xlink:href="#a"/>
        <use width="100%" height="100%" transform="rotate(68 400 250)" xlink:href="#a"/>
        <path id="b" fill="#85340a" d="M404 274c1 9 6 13 5 22 2-7-3-12-3-22m-8-23l20 42-16-44"/>
        <use width="100%" height="100%" transform="rotate(23 400 250)" xlink:href="#b"/>
        <use width="100%" height="100%" transform="rotate(45 400 250)" xlink:href="#b"/>
        <use width="100%" height="100%" transform="rotate(68 400 250)" xlink:href="#b"/>
    </g>
    <use width="100%" height="100%" transform="rotate(90 256 256)" xlink:href="#c"/>
    <use width="100%" height="100%" transform="rotate(180 256 256)" xlink:href="#c"/>
    <use width="100%" height="100%" transform="rotate(-90 256 256)" xlink:href="#c"/>
    <circle cx="256" cy="256" r="28" fill="#f6b40e" stroke="#85340a" stroke-width="2"/>
    <path id="h" fill="#843511" d="M266 250c-2 0-4 1-5 3 2 2 7 2 10-1a8 8 0 0 0-5-2zm0 0l4 2c-3 2-6 2-8 0a5 5 0 0 1 4-2z"/>
    <use width="100%" height="100%" transform="matrix(-1 0 0 1 512 0)" xlink:href="#d"/>
    <use width="100%" height="100%" transform="matrix(-1 0 0 1 512 0)" xlink:href="#e"/>
    <use width="100%" height="100%" transform="translate(19)" xlink:href="#f"/>
    <use width="100%" height="100%" transform="matrix(-1 0 0 1 512 0)" xlink:href="#g"/>
    <path fill="#85340a" d="M252 260a2 2 0 1 0 2 3l2 1a4 4 0 0 0 3-1 2 2 0 1 0 2-3l1 1a1 1 0 0 1-2 1 1 1 0 0 1-1-1 3 3 0 0 1-3 2 3 3 0 0 1-3-2 1 1 0 0 1-1 1 1 1 0 0 1-1-1l1-1zm2 6c-2 0-3 2-5 3l3-2h8l3 2c-2-1-3-3-5-3a6 6 0 0 0-2 0 6 6 0 0 0-2 0z"/>
    <path fill="#85340a" d="M253 268a15 15 0 0 0-4 1h14-7l-3-1zM250 269h-1c4 1 2 3 7 3s3-2 7-3c-5 0-3 3-7 3s-3-3-6-3zm10 7a4 4 0 0 0-4-4 4 4 0 0 0-4 4 4 4 0 0 1 4-3 4 4 0 0 1 4 3z"/>
    <path id="e" fill="#85340a" d="M238 250c5-4 12-5 15-2a9 9 0 0 1 2 4c0 2 0 5-2 8h1c1-3 2-7 1-10a14 14 0 0 0-1-2c-4-4-11-5-16 2z"/>
    <path id="d" fill="#85340a" d="M246 249l5 1 2 1v1l-3-2-4-1c-4 0-6 3-6 3-1 0 2-3 6-3z"/>
    <use width="100%" height="100%" transform="translate(-20)" xlink:href="#h"/>
    <circle id="f" cx="246" cy="252" r="2" fill="#85340a"/>
    <path id="g" fill="#85340a" d="M241 253c4 3 7 3 10 2l1-2-2 1c-2 1-5 1-9-1z"/>
</svg>
