<svg xmlns="http://www.w3.org/2000/svg" viewBox="0 0 512 512">
    <defs>
        <clipPath id="a">
            <path fill="gray" d="M496 16h496v496H496z"/>
        </clipPath>
    </defs>
    <g clip-path="url(#a)" transform="translate(-512 -16) scale(1.032)">
        <path fill="#006" d="M0 16h992v496H0z"/>
        <path fill="#bd1021" fill-rule="evenodd" d="M0 264l992 248V16L0 264z"/>
        <path fill="#fff" fill-rule="evenodd" d="M992 43v443L106 264 992 43z"/>
        <g stroke="#000" stroke-width="2">
            <path fill="#9c3900" fill-rule="evenodd" stroke-linejoin="round" d="M826 320s-7-5 1-14c-4-3-1-9-1-9s-6-3 1-13c-5-4-3-11-3-11s-17-7-1-12c-13 5-25-8-25-8h-19c-3-15-28-2-9-47-5 0-11-2-16 2s-21 13-30 4 6-20 7-21c0 0 20-10 22-17 0-5-6-9 0-20 6-10 46-20 64-24 9-4 12-11 12-11l2 7s40-12 42-17 1 5 1 5c16-2 36-15 39-9 13-2 38-14 38-14s9 0 3 10c4 6-1 11-1 11-1 0 1 6-4 10 2 5-3 9-3 9s2 7-7 10c1 6-5 7-5 7s1 6-3 8c0 5-4 7-4 7s2 2-2 5a2029 2029 0 0 1-44 27l32 7 24 16-23 28s-25-3-26-2 5 2 7 5c1 2 3 7 8 7 4-1-9 8-17 9 0 3 10 3 13 1l-8 8 13-2s-2 10-14 12c5 8 3 13 2 13s-8-8-15-6a35 35 0 0 0 10 16c1 1-14 1-16-4s-3 10 2 15c-6 0-11-3-11-3s-4 8-2 12l-8-8-22 9-4-8z"/>
            <path fill="#ffc221" fill-rule="evenodd" d="M660 303c1 0 31-1 45-9a84 84 0 0 0 17 19l4-16s11 0 12 3l-2 7 8 1-2 10 32 7s3-12 5-11c3 2 14 17 30 18s16-13 16-13l4 2 7-14c1 0 3 2 11 2 3 3 4 10 4 10s-10 10-7 17 4 6 4 6l69 17s3 5-3 8l-69-16s-7 8-12 6-1 3-1 3l75 6s5 7 1 9c-5 1-81-5-81-5s-4 10-9 2c-4 5-8-2-8-2s-6 5-7 0c-6 4-9-3-9-3l-33-2-2 3s6 2-3 5 51 2 53 3-4 5-4 5 31 2 36-5-2 9-2 9l24-2c0-1 0 7-17 6 10 7 23 11 23 11s-13 3-27-1c2 7 13 13 13 13s-8 7-26-10c5 9 1 12 1 11s-9-13-29-18c12 8 7 12 7 12s-7-12-17 0c-4-11-20-17-39-18-6-7-10-5-24-9l-19-19s0-14 14-12l1 3s15-6 20 2c6-12 15-2 17 2l26 2s-3-5-1-4 13-5 13-6c0-2-1-7 1-6 2 0-17-3-28 5-3-4-1-13-1-13l-31-7-1 8s-9 2-9 0l-2 7-12-4 4-17s-10 1-24 11c-4-12-36-29-36-29z"/>
            <path fill="none" d="M736 307l-6 29m12-18l-2 10m34-2l-3 9m59 52l-18 2c-2 0 25 8 25 11m-35-9s-15-10-18-9 16-1 17-2m-31-1s-16 0-18-1 16 11 19 10m-32-16l-16-5c4 4 7 9 17 11m3-13c-1-1-20-7-20-10 4 2 11 4 17 2m107-15l-2 9"/>
            <path fill="#ffc221" fill-rule="evenodd" d="M699 262s-21 18 0 28c1-7 3-8 3-8s17 7 28-9c-5-6-13-4-13-4s-16 0-18-7z"/>
            <path fill="none" d="M717 270l-15 12m59 75s4 4 1 8m70-4h-5m-40-3l10 1m17-27s0 10-8 10h-6"/>
            <path fill="none" d="M820 330s4 1 3 4c-1 2 1 9-9 17-10 2-9-9-9-9"/>
            <path fill="none" d="M824 333s6-4 7 2-5 17-9 19-9 0-9-3m19-15s5-5 7 1-4 19-7 20m8-20s2-1 4 0m-13 20c-2 1-6 1-8-3m-18-6h-6m28 22l-1-10-2-3-4 4s0 10-2 10m2-10l-3-6-5 6s0 8-2 9m2-9l-2-6-6 5-2 9m2-10s1-5-1-5-9 7-10 13"/>
            <path fill="#fff" fill-rule="evenodd" stroke-linejoin="round" d="M700 262l4-6c0-4-2-7 2-11 3-2 48-21 51-25a102 102 0 0 0 12-13c1-2 3 8-5 13 9-3 14-5 17-4-3 5-12 13-16 13 9-4 18-7 21-5s-12 12-18 12c10-2 23-6 25-2-6 2-4 3-15 9l-8 2c8-1 20-4 21 2-7 2-9 6-15 7l-27 7c-7 3-19 12-19 12l-25 1-5-12z"/>
            <path fill="none" d="M712 260s0-6 3-8c2-2 15-7 18-11 2-4-5 8-3 11m-13-1s6 3 5 7"/>
            <path fill="none" d="M724 255a5 5 0 1 1-9 0 5 5 0 0 1 9 0z"/>
            <path fill="#fff" fill-rule="evenodd" d="M915 245l48 9s6-6 3-10c7-1 5-11 5-11s9-4 2-12c5-5-1-8-1-8s2-9-5-10c2-6-10-9-10-9s-26 7-44 8c6 6-2 9-2 9s5 4 3 7c-1 2 1 6-5 7 8 4-1 10-1 10s9 7 7 10z"/>
            <path fill="none" d="M910 234l45 5c2 0 10 3 11 5m-54-12l60 1m-59-3s56-3 60-9m-59-3l58-5m-60-2s56-9 56-7m-214-29s17 19 16 32M769 197s5 8 8 9 22 2 23 10c1 6-5 4-4 8 2 5 15 12 29 4m-13 4s12 17 29-1m-9 7s15 8 26-12m-15 14s7 6 22-2m20-8s22 4 23 6m-15-11l15 1m-24-9s26-2 29 3m-40-11s36 1 38 3m-30 34l7-1m-21 16s8 7 18 4m-14 8s10 4 21 1m-17 6s9 6 15 5m-20-2s7 5 7 8m-16-2s2 10 9 14m-14-9s-3 13 5 21m-13-11v7m-50-58l15-1s6-2 2-6m2 3s14 2 18 6l10 14c3 1 3-1 3-1m-6-2s-7 13-2 17m-2-3s-7 9-1 14m-2-1s-5 9 1 14m-3-37c-1 0-7 4-9 3m2 10s3 3 5 3m-4 11l4 2m-4 8l4 2m-67-140s7 4 13 0 34-19 42-21c7-2 11-16 13-22m-6 16l41-12s7-6 7-16m-3 11s42-4 42-19m-7 10s44-12 48-16"/>
            <path fill="none" d="M785 178l31-15c4-1 13-13-1-13"/>
            <path fill="none" d="M798 184s21-14 28-16c4-5 2-11-4-10"/>
            <path fill="none" d="M828 164c1 0 12 0 8 8l-30 17m17-34l46-15s4-8-2-9m39-14s6 3 2 9l-37 11m81-25l-43 12m40-2l-38 11m35-2l-34 10m28 0l-25 7m19 0l-15 6m11 2l-13 6m10 1l-12 6m-9 7s2 0 1 2m-31 14s5 2 1 7c-3 3-10 2-14 8m46-81s6 1 1 9l-38 13-4 4-39 11m82-28s6 3 0 8l-35 13s0 2-2 3l-36 13M912 143s7 2 1 8c-7 4-31 12-31 12s-2 3-6 5l-29 11m67-28c2 1 8 2 1 7l-28 11-1 4-31 13m61-27s3 4-4 8-22 9-22 9m22-9s4 2-1 5l-23 12-12 8"/>
            <path fill="none" d="M870 140s5 4 3 9c4 3 4 7 4 7s6 4 5 9c6 1 6 5 6 5l-2 3s6 0 1 8c3 1 1 3 1 3m-1-3c-1 0-22 8-27 12"/>
            <path fill="none" d="M837 172s6-1 5 6c7-2 5 5 5 5s9-4 7 7c6-1 5 4 5 4s4 0 4 2c4-3 7-1 7-1s3-4 6-3m-34-14l-28 16m34-11l-21 13m28-6l-19 11m23-7s-13 10-16 10m20-7l-13 8m21-10s2 3-13 10"/>
        </g>
    </g>
</svg>
