<svg xmlns="http://www.w3.org/2000/svg" viewBox="0 0 512 512">
    <path fill="#006" d="M0 0h512v512H0z"/>
    <path fill="#fff" d="M0 0v28l307 222h39v-28L39 0H0zm346 0v28L39 250H0v-28L307 0h39z"/>
    <path fill="#fff" d="M144 0v250h58V0h-58zM0 83v84h346V83H0z"/>
    <path fill="#c00" d="M0 100v50h346v-50H0zM156 0v250h34V0h-34zM0 250l115-83h26L26 250H0zM0 0l115 83H90L0 19V0zm205 83L320 0h26L231 83h-26zm141 167l-116-83h26l90 64v19z"/>
    <path fill="#fff" fill-rule="evenodd" d="M55 369l41 15 13-41 13 41 41-15-24 36 37 22-43 4 6 43-30-32-30 32 6-43-43-4 37-22m325 71l-19 2 3 19-13-14-13 14 2-19-19-2 16-9-10-16 18 7 5-18 6 18 18-7-10 16m16-271l-19 2 3 19-13-14-13 14 2-19-19-2 16-9-10-16 18 7 5-18 6 18 18-7-10 16m-89 123l-19 2 3 19-13-14-13 14 2-19-19-2 17-9-11-16 18 7 6-18 5 18 18-7-10 16m214-19l-19 2 3 19-13-14-13 14 2-19-18-2 16-10-11-15 18 7 6-18 6 18 17-7-10 16m-64 82l-11 6 3-11-9-8 12-1 5-11 4 11 12 1-9 8 3 11"/>
</svg>
