<svg xmlns="http://www.w3.org/2000/svg" viewBox="0 0 512 512">
    <defs>
        <clipPath id="a">
            <path d="M0 0h512v512H0z"/>
        </clipPath>
    </defs>
    <g fill-rule="evenodd" clip-path="url(#a)">
        <path fill="#009" d="M0 0h512v512H0z"/>
        <path fill="#fc0" d="M77 0l437 437V0H77z"/>
        <path fill="#FFF" d="M461 470l-26-19-27 19 11-31-27-19h33l10-31 10 31h33l-26 20 9 30zm77 11h-33l-10-31-10 31h-33l27 19-10 31 26-19 27 19-10-31 26-19zM392 380l26-20h-33l-10-31-10 31h-33l27 19-10 31 26-19 26 20-9-31zm-60-61l26-19h-33l-10-31-10 31h-33l26 19-10 31 27-19 26 19-10-31zm-60-59l26-20h-33l-10-31-10 31h-33l27 19-10 31 26-19 27 19-10-31zm-61-61l27-19h-33l-10-31-10 31h-33l26 19-10 31 27-19 26 19-10-31zm-59-60l26-19h-33l-10-31-10 31H92l27 19-11 31 27-19 26 19-9-31zM92 79l26-19H85L75 29 65 60H32l27 19-10 31 26-19 26 19-9-31zM32 19L58 0H25L15-31 5 0h-33l27 19-10 31 26-19 26 19-9-31z"/>
    </g>
</svg>
