<svg xmlns="http://www.w3.org/2000/svg" viewBox="0 0 512 512">
    <path fill="#cf142b" d="M0 0h512v512H0z"/>
    <path fill="#00247d" d="M0 0h256v128H0z"/>
    <path fill="#fff" d="M0 0v14l227 114h29v-14L29 0H0zm256 0v14L29 128H0v-14L227 0h29z"/>
    <path fill="#fff" d="M107 0v128h42V0h-42zM0 43v42h256V43H0z"/>
    <path fill="#cf142b" d="M0 51v26h256V51H0zM115 0v128h26V0h-26zM0 128l85-43h19l-85 43H0zM0 0l85 43H66L0 10V0zm152 43l85-43h19l-85 43h-19zm104 85l-85-43h19l66 34v9z"/>
    <path fill="#fff" d="M443 183v108c0 29-58 38-58 38s-58-9-58-38V183h116z"/>
    <path fill="#2f8f22" d="M443 291c0 29-58 38-58 38s-58-9-58-38l1-4c1 0 0 5 4 9 0 0-3-5 0-10 0 0-1 6 3 10 0 0-3-5 0-11 0 0-1 9 3 11 0 0 1-5-1-9 0 0 3 1 3 9l2-7s0 7 2 9v-8s0 3 3 6c0 0-2-6 0-6 0 0 0 4 3 5v-3l-1-2 3 4v-5c0 1 0 4 3 5 0 0-2-2-1-5l19 1h10l30-2 5-4s2 2-1 7c0 0 3-1 4-6 0 0 2 3 0 6 0 0 4-3 4-7 0 0 1 3-2 8 0 0 3-1 4-6 0 0 1 3-2 7 1 0 6-3 6-9 0 0 2 3-1 8 0 0 3-3 3-7 0 0 2 2 0 7 0 0 4-3 4-7 0 0 1 3-2 7 0 0 2 0 4-4l-1 4s2 0 3-4v4l1-5 1 3v1z"/>
    <path fill="#d40000" d="M413 228h-9s1-2-1-4c0 0 1 2-1 3h-1l-2-2s3 0 2-3c0-2-1-2-2-2v1s-2-1 1-3 2-3 2-4l-3-2 1 2h-1v-3s3 1 4-2c0 0 1-3-3-4l1 2h-2c-1-1-2-1-2-3 0 0 4 1 3-3 0 0-1 3-5-1 0 0 3-2 2-5h-4s3-2 2-3h-3s1-2-1-3l-3 1-3-3-2 3-3-1s-1 2 1 3l-3-1s-2-1-2 1l1 3s-4-1-4 1a6 6 0 0 0 2 4s-2 4-5 1l1 3s2 2 1 3c0 0-2 1-3-2 0 0-3 3 1 5 0 0 2 2 4 0 0 0-1 5-3 4 0 0-1-1 1-2 0 0-3 0-4 3 0 0 0 2 3 3 0 0 2 1 0 2 0 0-2 2-1 3 0 0 1 2-2 2h-2v3h-5l-4 1-1 2 2 2v2l1 1 7-4 7-3h6l4 1h5l3-2h5l6 3 7 4 3 1 2-1v-5l-1-2z"/>
    <path fill="#d40000" d="M355 234s3 2 4 0c0 0 1-3-2-4 0 0 2-2 0-4h-3l-2-2s-2 0-2 2h-4s-2 2 1 4h2l2-1 2 1s-1 2 2 4z"/>
    <path fill="#64b4d1" d="M418 229a5 5 0 0 1 4 3c2 4-2 6-2 6a9 9 0 0 1 0 2c6 1 5 7 5 7l-2-1c-3-2-6 1-8 5s-2 7-1 12c0 5 8 8 8 8l-6 17c-3 7-8 4-10 3-1-2-2-1-2 0-1 0 3 4-5 7s-9 5-10 6h-8l-2-2-9-4c-4-2-4-5-4-5s2-4-3-1c-4 3-8-2-8-2l-5-11-3-8 4-1c3-2 4-5 5-8 2-3 0-8 0-10 0-1-3-6-6-7s-5 2-5 2-1-6 5-7v-2s-4-2-2-6c0 0 1-3 4-3v2s-1 8 11 3 12-7 19-3l6-1s7-3 9-2l11 7s9 3 10-3l-1-3z"/>
    <path fill="#fff" d="M380 266l-1-4s-1-3 1-5l2-2 3-2h1s2-3 6 0c0 0 1-2 3-2 0 0 2-1 3 1 0 0 2-2 4 1 0 0 3-2 5 1 0 0 3-1 4 2l2 4 1 4 4 6-10 3h-4l-10 3-16 1-4-5 6-6z"/>
    <path fill="#d40000" d="M366 293l-3 1-4 2-3 1s-5-2-5 2c0 0-6 1-4 6 0 0 2 4 5 1 0 0-2 3 2 4 0 0 3 1 4-2l-1-3s2 0 3-2c0 0-3 4 0 6 0 0 4 1 4-4 0 0 0-2 2-2 0 0 3-1 5-5 0 0-5-2-5-5zm-10-38s-3-2-5 0c0 0-3-2-5 0l-4 3s-2 1-1 4v4l-2 2s-2 2-4 0c0 0 0 3 4 3 0 0-2 1-1 4 0 0 2 3 0 6 0 0 3-2 3-5v-4s-1 1 2 5v4s3-1 3-4c-1-4-3-2-1-6l1 3c1 1 2 2 1 5l2-5-1-3 6-3 2-5v-8z"/>
    <path fill="none" d="M348 269s-2 0-3-2m-4-1l2 1h1"/>
    <path d="M351 262h-2-1l1 2-1 2s3-1 2-3c0 0-2 0-1-1h2z"/>
    <path fill="#784421" d="M389 268l-9-32 8 33z"/>
    <path d="M357 305s-2-2-4 0l1-1s1-3 3-2l-2 2 2 1z"/>
    <path fill="#64b4d1" d="M349 310s-3-3-1-6l1-1s2 1 1 4l-1 3zm7 3s-5-2-3-6l1-1s2 0 2 2v5z"/>
    <path d="M355 299l-2 2-1-2 1 1 2-1z"/>
    <path fill="#64b4d1" d="M360 312s3-1 3-5c0 0-1-2-2-1 0 0-2 0-1 3v3z"/>
    <path fill="#f5ce00" d="M377 227l4 1s4 2 8 0l4-1-3 4v1l2 3-4-2s-3-2-6 0l-4 2 2-3v-2l-3-3z"/>
    <path fill="#fff" d="M361 307v0z"/>
    <path fill="#d40000" d="M415 234s-3 2-4 0c0 0-1-3 2-4 0 0-2-2 0-4h3l2-2s2 0 2 2h4s2 2-1 4h-2l-2-1-2 1s0 2-2 4z"/>
    <path fill="#f5ce00" d="M393 232l-1 1-1-1 1-2s2-2 5 0l5 2 5 3 5 2c1 0 5 0 7-3v-4l-2-1a2 2 0 0 0-1 1v2l2-1-1 2s-2 4-10 0l-9-5s-5-3-8 1c0 0-2 3 1 5 0 0 2 2 3-1v-3l-3 1c0 2 2 2 2 1z"/>
    <path fill="#e4cb5e" d="M355 249v-6-2c0-1 2-1 3 1l3-2h2l2-2s2-1 2 3l2-2s1-1 3 1l2 3 1 2 1 2 1 1 3 1 1 8v14l-10 12-15-5-7-2-1-5 6-4 3-9-1-6-1-3z"/>
    <path fill="#784421" d="M397 256l1-1 2-1 3 8v3s4 1 4 7l-3 6-5-3-2-1v-18z"/>
    <path fill="#fff" d="M348 305v0z"/>
    <path fill="none" d="M364 303v-1l-1-1M367 241l1 3 2 4"/>
    <path fill="#d40000" d="M404 293l3 1 4 2 4 1s4-2 4 2c0 0 6 1 4 6 0 0-2 4-5 1 0 0 2 3-2 4 0 0-3 1-4-2 0 0-1-1 1-3 0 0-2 0-3-2 0 0 3 4 0 6 0 0-4 1-5-4 0 0 1-2-1-2 0 0-3-1-5-5 0 0 5-2 5-5z"/>
    <path fill="none" d="M365 248l4 32m-3-33l5 31m-4-31l5 30"/>
    <path fill="#784421" d="M377 274l-10-32 8 33z"/>
    <path fill="none" d="M370 246l9 24m-10-23l9 24"/>
    <path fill="#fff" d="M354 311l-1-3v-1 1l1 3z"/>
    <path fill="none" d="M370 246l10 22m-12-21l6 29"/>
    <path fill="#f5ce00" d="M416 269c-4-3-5-8-5-8a16 16 0 0 1 1-10c3-5 8-6 8-6s-5 3-6 7l-1 7 2 6 1 4z"/>
    <path fill="#784421" d="M398 255l-18 6-1 8c-4 6-13 7-13 7l7 7 13 3 7-5 6-6v-10l-1-10z"/>
    <path fill="none" d="M380 267l18-7m-24 14s15-3 25-9l4-3"/>
    <path fill="none" d="M403 265l-4 3s-17 7-29 7m29-2s-13 6-20 7"/>
    <path fill="#d40000" d="M414 255s3-2 5 0c0 0 3-2 5 0l5 3v8l3 2s2 2 4 0c0 0-1 3-4 3v10s-3-2-3-5v-4s1 1-1 5c0 0-2 2-1 4 0 0-3-1-2-4 0-4 2-2 1-6l-2 3a5 5 0 0 0-1 5s-2-3-2-5a9 9 0 0 1 1-3l-5-3-3-5v-8z"/>
    <path fill="#fff" d="M350 275s0-2 3-1c0 0 0-4 5-5 4 0 4 5 4 5l4-2s3 0 2 6l1 1s3-7 8-5c0 0 6 2 2 7 0 0 3 4 5 3 3 0 5-1 7-5 3-4 8-5 9-4 2 0 3 1 3 2 0 0 3-10 13-8l5 2h1l-2 7-6 13-4 1-5-2-1 1v3l-6 5-5 1-4 4-1 2s-3-1-6 0l-1-2-2-2-11-5-2-6-2-1-2 2-3 1-4-4-5-14z"/>
    <path fill="none" d="M395 228s-4 0-4 4"/>
    <path fill="#f5ce00" d="M421 272c-7-2-9-10-9-10-1-5 1-10 1-10 3-8 9-8 9-8 2 0 3 3 3 3l-1 2c-2 1-3-1-3-1v-2h1l1 1-1-1s-2 0-5 3c0 0-3 4-3 9 0 0 0 10 10 13l-3 7-4 12s-3 5-10 3c0 0-3-2-3-5 0 1-1-2 2-2 0 0 2 0 2 2 0 0 0 2-3 1v-1h0v1h1l2 2a5 5 0 0 0 5-1 7 7 0 0 0 2-3l4-9 2-6z"/>
    <path fill="#f5ce00" d="M402 291l1 1-2 1s-2-1-1-3l2-1s2 0 3 2l-1 4c-1 2-4 4-6 4l-7 4s-3 2-2 4h1v-1s0-2 2-1l1 2-2 2-2-1c-2-2-2-4-1-5l3-3 6-2a11 11 0 0 0 5-3l1-3-1-1z"/>
    <path fill="none" d="M402 291l2 1a8 8 0 0 0 1 2m0-6s-1 0-1 2l3 3"/>
    <path fill="#f5ce00" d="M377 232l1 1 1-1-1-2s-2-2-5 0l-5 2-5 3-6 2c1 0-4 0-6-3v-4l2-1 1 1v2l-1-1v2s2 4 10 0l9-5s5-3 8 1c0 0 2 3-1 5 0 0-2 2-3-1v-3l3 1c0 2-2 2-2 1zm-23 37c4-3 5-8 5-8 1-5-1-10-1-10-3-5-8-6-8-6s5 3 6 7l1 7-2 6-1 4z"/>
    <path fill="none" d="M375 228s4 0 4 4"/>
    <path fill="#f5ce00" d="M349 272c7-2 9-10 9-10a17 17 0 0 0-1-10c-3-8-9-8-9-8-2 0-3 3-3 3l1 2c2 1 3-1 3-1v-2h-1l-1 1 1-1s2 0 5 3c0 0 3 4 3 9 0 0 0 10-10 13l3 7 4 12s3 5 10 3c0 0 3-2 3-5 0 1 1-2-2-2 0 0-2 0-2 2 0 0 0 2 3 1v-1h-1 1v1h-1l-2 2a5 5 0 0 1-5-1l-2-3a76 76 0 0 1-4-9l-2-6zM368 291l-1 1 2 1s2-1 1-3l-2-1s-2 0-2 2v4l5 4 8 4s3 2 2 4h-2 1v-1s0-2-2-1l-1 2 2 2 2-1c2-2 2-4 1-5l-3-3-6-2a11 11 0 0 1-5-3l-1-3 1-1z"/>
    <path fill="none" d="M368 291l-2 1-1 2m0-6s1 0 1 2l-3 3m19-61s3-3 7 0M362 253s0-2-2-6l-2-5m5-2l2 5 2 4M364 255l1 4m-6-6s2 1 2 5c0 0-1 3 2 4m-4 1s5 0 5 2l1 3s3 1 3 3m-7-5l1 2m4-5l2 3m3-24l2 2m2 7s3 1 2 7l1 5"/>
    <path fill="#784421" d="M365 247v1s4 0 6-3-4-1-6 2z"/>
    <path fill="none" d="M379 269l20-7"/>
    <path fill="#784421" d="M378 243l7-3-7 3z"/>
    <path fill="none" d="M378 243l5 22m-4-22l5 22m-4-23l6 22m-4-23l8 17m-7-17l9 16m-8-16l9 16m-10 8l3-1m-6-1l18-6m-18 7l18-6m-14 17v2l2-1v-2m3-1l1 2h2l-1-2m-11-12v-3l17-5 1 2m-11 1l1 2m5-4l1 2m1-2l1 2m0-3l1 3m0-3l2-1 1 2m-2-2l1 3M356 285s-4-3 0-7c0 0-4-2-3-4m9 14s-4 0-3-7l-2 4a3 3 0 0 0 2 4s3 1 4-1m-5-11s-2 2-1 4m2-3l1 3m0-4s0 2 2 4m-1-5s0 3 2 5m10-1s1-2 3-2l-1 2s0 2 2 2l2-1"/>
    <path fill="none" d="M378 292s-6-3-5-7c0 0 0-3 2-4m-1 3l1 3m1-4v3m1-4v3m-5 7s3 3 5 3m-6-2l5 3m-7-2l6 3m10 3s-4 2-1 4m-2-6l6-3m-4 4l8-4m-5 4l8-4m-5 4l7-4m2-4s-2-2-8 0l6-3m6-11v3M394 287l4-3s1 2 3 2c0 0 4-1 3-5 0 0-1-3-5-3m12-5s4 1 4 4c0 0 0 5-5 6m5-8s1-2 3-3m-3-2l2 2m-2-1l1 2m-2 0l1 1m-22-21s1-1 3-1m8 11s1-5 6-3m-2-1l-1-3m-2 3v2"/>
    <path fill="#64b4d1" d="M414 313s5-2 3-6l-1-1s-2 0-2 2v5z"/>
    <path fill="#fff" d="M416 311l1-3v-1 1l-1 3z"/>
    <path fill="#64b4d1" d="M421 310s3-3 1-6l-1-1s-2 1-1 4l1 3z"/>
    <path fill="#fff" d="M422 305v-1 1z"/>
    <path fill="#64b4d1" d="M410 312s-4-1-3-5c0 0 1-2 2-1 0 0 2 0 1 3v3z"/>
    <path fill="#fff" d="M409 307v0z"/>
    <path d="M413 305s2-2 4 0l-1-1s-1-3-3-2l2 2-2 1zm2-6l2 2 1-2-1 1-2-1z"/>
    <path fill="none" d="M406 303v-1l1-1m15-32s3 0 3-2m4-1l-1 1h-2"/>
    <path d="M419 262h3l-1 2 1 2s-3-1-2-3c0 0 2 0 1-1h-2z"/>
    <path fill="#64b4d1" d="M420 233l1-3c-1-2 1-2 2-2v2a6 6 0 0 1-3 3z"/>
    <path fill="#fff" d="M421 231l1-2-1 3v-1z"/>
    <path fill="#64b4d1" d="M420 232l-2-2c-2-1 0-3 1-3l1 1v4z"/>
    <path fill="#fff" d="M420 230l-2-2 2 2z"/>
    <path fill="#64b4d1" d="M418 232l-3-2c-2-1-1-2 0-3l1 1 2 4z"/>
    <path fill="#fff" d="M417 230l-2-1v-1c0 1 0 0 0 0l2 2z"/>
    <path fill="#64b4d1" d="M419 232l-3-1c-2-1-3 1-3 2l2 1 4-2z"/>
    <path fill="#fff" d="M414 233h3-3z"/>
    <path fill="none" d="M416 226l1 1M420 226v2"/>
    <path fill="#64b4d1" d="M349 233v-3c0-2-2-2-2-2v2a6 6 0 0 0 2 3z"/>
    <path fill="#fff" d="M349 231l-1-2 1 3v-1z"/>
    <path fill="#64b4d1" d="M350 232l2-2c1-2 0-3-1-3l-1 1v4z"/>
    <path fill="#fff" d="M350 230l2-2h-1l-1 2z"/>
    <path fill="#64b4d1" d="M352 232l2-2c3-1 2-2 1-3l-2 1a5 5 0 0 0-1 4z"/>
    <path fill="#fff" d="M353 230l2-1v-1l-2 2z"/>
    <path fill="#64b4d1" d="M351 232l3-1c2-1 3 1 3 2l-2 1a6 6 0 0 1-4-2z"/>
    <path fill="#fff" d="M356 233h-3 3z"/>
    <path fill="none" d="M354 226l-1 1M349 226v2"/>
    <path d="M394 214l1 4v2c1 0 2 0 2-2 0 0 1 3-1 5 0 0-2 1-4-1v-3-4 4s0 4 3 3c0 0 2 0 2-2h-2a2 2 0 0 1-1-1v-5zm-3 7s0 3-3 3v-2l-1-2v3a3 3 0 0 1 0 2s5-1 4-4zm-4-3l-1-3v-2 4l-2-2c-1-2-2-2-3-2l2 2 4 3zm-7-5l1 3-3-2s-2 0-1 3l-3-2 2 1s0-2 3-3l1 2v-2zm3-4l3 1 2-1s0 2-3 2c1 0-2 0-2-2zm-9 13l2 1h1l2-2-2 2-1 1-1-1-1-1zm12-20c-3 0-1 2-1 2 0 2-2 3-3 2-2-1-1-2-1-2s-1 1 0 2c1 2 3 1 4 0 2 1 4 2 5 0v-2s1 2-1 2c-1 1-3 0-3-2 0 0 2-2-1-2zm1-3v0zm-7 3l-1-1 1 1zm11 0l1-1-1 1zm-13 2h2-2zm-4-9l3 2-2 1 1-1-2-1zm22 1l-3 1 2 1-1-1 2-1zm-10 1l3-1h2l-2 1h-3z"/>
    <path fill="#fff" d="M387 198s1-2 4-1c0 0-1 2-4 1z"/>
    <ellipse cx="389" cy="198" fill="#784421" rx="1" ry="1"/>
    <path d="M381 194l3 1h2l3-2-3 2-1-2 1-2-2 2 1 2h-1-3zm4 12c-1 1 1 1 1 1s1 0 0-1zm0-9l-3-1h-3l3 1h3z"/>
    <path fill="#fff" d="M383 198s-1-2-4-1c0 0 1 2 4 1z"/>
    <ellipse cx="381" cy="198" fill="#784421" rx="1" ry="1"/>
    <path fill="none" stroke="#000" d="M443 183v108c0 29-58 38-58 38s-57-9-57-38V183h115z"/>
</svg>
