<svg xmlns="http://www.w3.org/2000/svg" xmlns:xlink="http://www.w3.org/1999/xlink" viewBox="0 0 512 512">
    <path fill="#f7e017" d="M0 0h512v512H0z"/>
    <path fill="#fff" d="M0 36v227l512 107V249z"/>
    <path d="M0 156v107l512 213V370z"/>
    <g fill="#cf1126" transform="translate(-256) scale(.71111)">
        <path d="M696 570a117 117 0 0 1-50-17l-5-3v4c0 6-3 9-9 11-6 1-16-2-23-8a68 68 0 0 0-25-14 40 40 0 0 0-28 4 9 9 0 0 1-3 1v-9c2-3 5-6 10-7l4-2-2-4c-3-5-2-10 3-14s14-4 22-1a32 32 0 0 0 4 1l-2-6c-4-4-4-7-4-12a15 15 0 0 1 14-14c5 0 9 2 18 10a144 144 0 0 0 86 41c8 1 24 1 34-1a156 156 0 0 0 82-40c6-6 9-8 15-8 4 0 7 1 11 5 3 3 4 6 3 11 0 4 0 5-2 8-3 5-3 5 3 3 7-3 17-1 22 3 4 5 5 9 1 14l-2 5 5 1c6 1 10 6 10 13l-1 3-5-2c-7-2-11-3-19-3-6 0-8 0-13 2a58 58 0 0 0-19 11c-7 6-11 8-17 8s-9-2-12-5v-7-5l-5 3a81 81 0 0 1-19 10 182 182 0 0 1-82 10z"/>
        <path d="M706 525a136 136 0 0 1-98-55c-24-34-32-78-24-118 4-18 12-36 25-49a115 115 0 0 0-8 74c9 50 51 92 101 99 20 6 40 0 59-6 42-15 74-55 78-99 3-24 0-49-11-71 6 3 14 16 19 24 16 31 16 69 7 102-13 42-45 79-88 92a166 166 0 0 1-60 7z"/>
        <g id="a">
            <path d="M512 470c-2-1-5 2-4 5 1 2 5 4 7 5a54 54 0 0 0 24 3 50 50 0 0 0 17-3c3-1 7-2 8-5 1-2-1-4-3-4l-9 3a58 58 0 0 1-21 2 54 54 0 0 1-14-4l-5-2z"/>
            <path d="M515 460c-3-1-5 2-4 5l8 5a42 42 0 0 0 18 3h1a38 38 0 0 0 14-3c3-1 6-2 8-5 1-2 0-4-2-4l-6 1a44 44 0 0 1-20 4l-13-4-4-2z"/>
            <path d="M518 450c-2-1-3 2-3 4s2 3 3 4a30 30 0 0 0 19 5h1a28 28 0 0 0 12-3c3-1 6-2 7-5l-1-4c-2-1-3 1-5 1a34 34 0 0 1-15 4 27 27 0 0 1-13-4l-5-2z"/>
            <path d="M482 303c-4 3-1 9-1 13 1 13 3 27 8 39 6 12 19 19 27 29 3 5 2 12 2 17v46c7 4 15 7 23 6 4-1 13-2 14-6l-1-80c-3-8-11-12-17-17a156 156 0 0 1-14-17c-3-4-13-6-9 2 2 7 7 12 9 19 0 4 5 11 1 13a25 25 0 0 0-11-10c-4-3-12-5-13-11a43 43 0 0 0-11-22c1-7 0-16-7-21h-1z"/>
            <path d="M491 304c-3 1-2 4-1 6a27 27 0 0 1 1 14 44 44 0 0 1 11 21c0 3 3 4 5 6l15 9c1 1 1 2 1 0-1-2-1-5-3-7-3-3-7-6-11-6 0-5-2-8-4-12s-4-7-7-9c0-7 0-13-3-19-1-1-2-3-4-3z"/>
            <path d="M500 307c-2 0-2 3-1 4a54 54 0 0 1 1 14c4 3 6 7 8 11l3 9 8 5-4-8-4-8c-3-3-4-8-4-12 0-5-1-10-4-14l-3-1z"/>
            <path d="M509 308l-2 2 1 3a22 22 0 0 1 1 10l2 7a4 4 0 0 1 4-2l1-1c-1-5-1-10-3-14a10 10 0 0 0-3-5h-1z"/>
        </g>
        <use width="100%" height="100%" transform="matrix(-1 0 0 1 1440 0)" xlink:href="#a"/>
        <path d="M716 476a36 36 0 0 1-30-24c0-2 3 1 4 2a19 19 0 0 0 8 2l9 7c2 1 7 4 6 0-1-2-2-5-1-7l8-12c2 0 4 4 5 6 2 3 5 7 4 11-2 1-2 6 1 4 4-1 7-4 10-7l10-4 5-2a45 45 0 0 1-7 12 32 32 0 0 1-19 11l-13 1z"/>
        <path d="M732 460l-2-8-8-12c-3-1-5 4-6 6-3 4-7 8-7 14-2 2-5-2-6-4a19 19 0 0 1-4-12 51 51 0 0 1 4-21c2-5 5-11 4-17 1-4 0-9-4-12s2-4 4-2c3 0 5 5 8 4 1-3 1-6 4-8 2-4 4 1 5 3 2 2 0 7 3 7 3-3 5-6 9-7 2-1 5 0 3 2-3 3-6 6-6 10-1 6 0 11 2 16 5 9 8 20 6 30-1 5-4 9-8 12l-2-1z"/>
        <path d="M727 390a21 21 0 0 0-6-7c-2 0-4 3-5 4-1 2-3 6-6 3-4-2-5-8-5-13 0-7 3-15 6-21v-14c-1-5-6-9-9-13h6l8 6c2-1 1-4 2-6 0-2 3-5 4-2 2 2 0 6 3 8 2-1 3-4 6-5a8 8 0 0 1 7 0c1 2-2 4-3 6a20 20 0 0 0-4 18l5 14a40 40 0 0 1-1 17c-1 4-4 6-7 7l-1-2z"/>
        <path d="M712 327c-4-3-5-5-5-10l2-5c3-4 2-5-1-4-5 2-8 0-8-4 0-2 0-3 3-7 3-3 3-4 3-5l-9 8a124 124 0 0 1-12 11c-9 6-19 7-23 2-2-2-2-4 0-5a27 27 0 0 0 5-4 86 86 0 0 1 16-12c3-1 4-3 2-3-3 0-12 7-20 13l-7 5a25 25 0 0 1-13 1c-3 0-7-4-7-6l2-1a30 30 0 0 0 5-4c6-5 17-10 25-12 3 0 2-2-1-2a56 56 0 0 0-25 12c-8 7-21 6-25-1l-1-3a93 93 0 0 0 21-8 52 52 0 0 1 18-6c2-1 3-2 0-2-4-1-9 1-19 6-12 6-15 7-22 6-6 0-9-2-14-6l-7-11a64 64 0 0 0 16 1c9 0 11 0 15-2a84 84 0 0 0 24-12 58 58 0 0 1 37-13c12 0 20 3 27 10l5 3 1-9 4 1 1 8 2-2c1-2 5-6 10-8 9-5 24-5 37 0a62 62 0 0 1 17 9 90 90 0 0 0 24 12c6 2 19 3 25 1a62 62 0 0 1 5-1c2 0-2 8-6 12-9 8-19 8-35 0-9-5-21-8-21-5l2 1 18 6a54 54 0 0 0 19 7c2 0 2 1 0 5-2 3-6 5-12 5-5 0-8-2-13-5-8-7-27-14-27-10l4 1a56 56 0 0 1 23 11l6 4v3c-2 3-5 5-9 5-6 1-10-1-15-5-10-8-19-14-22-14s-2 1 3 4a80 80 0 0 1 16 11l5 4c1 1 1 2-1 5s-5 3-9 3c-9-1-16-5-26-16a71 71 0 0 0-9-8c-1 0 0 2 3 5 3 4 4 6 2 9-1 3-3 3-6 2-4-1-5 0-2 3 3 5 3 11-2 15a12 12 0 0 1-3 3l-3-3c-3-4-5-4-8 0a54 54 0 0 1-2 3 113 113 0 0 1-3-2z"/>
        <path d="M727 233l-5 4-5-3v27h10z"/>
        <path d="M695 204a88 88 0 0 1-9 33l11-11 8 10 8-10 9 8 8-8 8 10 8-8 12 9c-4-10-10-19-10-33-12 9-41 10-53 0z"/>
        <path d="M717 198l-13 1a20 20 0 0 0-8 3c0 8 41 12 52 0a20 20 0 0 0-8-4l-13-1v8h-10v-7z"/>
        <path d="M725 154h-6v49h6z"/>
        <path d="M725 155l-3 24 25 12-13-17 17-5zm-3-6c-4 0-6 1-6 3s2 3 6 3 7-1 7-3-3-3-7-3z"/>
    </g>
    <g fill="#f7e017">
        <path d="M250 401c2-1 4-3 5-6a18 18 0 0 0 1-4h-3l-1 3c1 4 0 5-8 6h-5c-3-1-4 0-3 1a7 7 0 0 0 2 1l12-1zm15-1l4-1 3-3c2-3 2-6-1-10-2-2-3-2-4 1-2 2-2 2 0 2l3 2c1 3 1 5-2 5s-3 1-4 2a9 9 0 0 0-1 3l2-1zm-5-3l1-9-1-7-2 2v2l1 8c-1 6 0 7 1 4z"/>
        <path d="M248 394l1-6 1-5c0-2 0-3-2-1l-2 1v15l1-1a9 9 0 0 0 1-3zm-11 1c3-2 3-6 3-9 0-2 2-4 1-6-3 1-4 3-3 5l-1 8c-1 2-5 1-5-1 1-3-3-2-4-1-2 1-4 1-3-1-1-3-4-1-6-1s0-4-3-3c-5 0-10 0-14-3-3-1-2-4-1-6l4-8c3-2-2-1-3 0-2 1 0 4-2 6-1 2-3 5-5 4-4-1-6-4-9-6-2-1-1 3 0 4a23 23 0 0 0 8 4c3 0 3 3 5 4l15 3c2 0 0 3 3 3 1 0 4-1 5 1-2 2 2 2 3 2 2-1 4-1 5 1 2 2 5 2 7 1v-1z"/>
        <path d="M195 374l3-5a17 17 0 0 1 2-4c1-1 0-2-2-1l-1 1-3 8c-2 2-2 3-1 3l2-2zm-27-17c-2 0-2 1 0 2l2 2c2 4 3 5 8 5h4v5l3-2c3-1 5-4 5-5s-2-3-4-3a7 7 0 0 0-3 2c-4 2-8 2-10-2-1-2-3-4-5-4zm18 7v2h-2l2-2zm135-4l-3 1v8h2c3-1 3-1 3 1 0 3-5 9-9 12a9 9 0 0 0-3 2h4c3-2 7-6 8-9 1-2 2-3 2-7l-1-7-3-1zm0 2l1 2-1 3-2-1c-1-2 0-4 2-4zm-22 31a16 16 0 0 0 8-8 21 21 0 0 0 2-3l-4-2c-2 0-1-1-1-3 1-2 0-5-1-5l-1 1v3c0 2 0 4-2 5l-2 2 1 1 2-1 2-1 1 1 1 2c0 2-7 7-12 7l-4-1-1-2 1-3c1-2 0-2-2 1-2 2-2 4-1 6 0 1 5 2 7 1l6-1zm28-16c2-2 4-6 4-10v-4l2-1c2-1 5-4 5-6 0-1-1-1-2 1l-6 4-1 5c-1 5-1 7-4 11l-1 2 3-2zm-29-3h-2v1l2-1zm40-10l-2-1v1h2zm-48-27l-2 2v1l4 7c0 3 2 6 1 9l-3 2-6-1-6 2c-1 0-1-3-2-2l-1 4h6l1 4h4l2-4 3-1a6 6 0 0 0 4-6l-3-12-1-5h-1zm-6 23l2 3c-1 1-3 0-3-1-1-1-1-2 1-2z"/>
        <path d="M230 347a4 4 0 0 0-2 0c-3 3-4 6-2 7s2 2-1 4c-5 2-8 1-15-1-2-1-3-1-2 1l5 3c4 1 9 1 12-1a15 15 0 0 0 4-3l2-3h3c3 1 4 1 4 3l3 1h5l2 1 6 1h8l4 1c4-1 9-4 10-6l2-1c4-1 4-1 1-2a24 24 0 0 1-5-1 13 13 0 0 0-4-1c-2 0-3 1-3 2l2 1 4 1 1 1-7 3a5 5 0 0 1-3 0h-5l-1-1-1-1-3 1h-3l-5-1h-5v-2-2h-3c-4 1-5 1-5-2 0-2-1-3-3-3zm-1 3h1v1h-2l1-1v-1z"/>
        <path d="M222 352c2-1 2-1 3-6l-1-3c-1 0-2 1-2 4l-1 3c-2 2-7 1-8-1l1-3c3-4 2-4-1-2-2 2-2 2-2 0 1-1 0-2-2-1l-1 2-1 1c-2 1-4-1-4-2l8-9a19 19 0 0 0 2-3h-1l-2 1-5 6c-5 6-6 7-3 8a6 6 0 0 0 7 0l2-1v2c0 3 0 4 2 5a9 9 0 0 0 9-1zm111-37c-2 2 0 4 0 6-1 2-3 3-6 3-3 1-5 3-6 6 0 1-2 4-3 1-2-1-4-2-6 0l-2 4c-1-1-1-3-3-3s-1 3 0 5c1 1 2 3 1 5s-4 3-6 2-1-5-3-5c0 1 0 4-2 2-1-1 0-3-2-5l-2 4a23 23 0 0 1 4 9l1 4 1-6h5c3 0 5-3 6-5v-6l7 1c1 2 0 4-1 6l-6 8c-2 1-2 3 0 2 4-2 6-5 8-9l1-8c1-2 4-2 6-2s4-2 3-4c-1-3 2-4 3-5 2-1 4-3 4-6 0-1 0-3-2-3zm-8 14c3 1 0 5-1 2-1-1 0-2 1-2zm-11 3c4 0 2 4 0 2-2 0-1-2 0-2zm-111 18l-1-1-1 1c1 1 2 0 2-1zm36-4l-1-1v1l1-1zm-45-22l-3 2-4 5-4-1c-2-1-1-3-2-4s-3 0-3 2l3 3 3 2c0 2 1 3 2 2 2 0 2 2 2 4a7 7 0 0 0-1 4c1 1 1-1 2-2l1-1h9c2 0 3-1 5-3l5-5c2-1 1-4-1-3l-3 3-5 6h-5l2-2c1-1 2-1 2-3l-3-1-7 3c-2 0-1-2 0-3l5-6c1-1 3-1 1-2h-1zm2 10c1 1-1 2-2 2v-1l2-1zm-5 3c1 0 3 1 1 1-1 1-2 0-1-1z"/>
        <path d="M223 339h-2l1 1 1-1zm80-7c0-1-1-2-2-1l1 2 1-1zm-124-10l1-3v-4c2-1 6 1 7 3s1 2-1 3v2l4-3c0-2-3-5-5-6a11 11 0 0 0-5-1c-4 0-4 0-3 4 1 5-1 5-4 2a11 11 0 0 1-4-9c0-5 2-7 5-7 3-1 3-1 1-2-4 0-7 2-9 7-1 5 2 11 7 14 3 2 4 2 6 0zm149-5v-2l1-2a7 7 0 0 0 2-2h-5l1-1c2-1 2-2 0-2-1-1-3 0-3 3-1 1 0 2 1 2l1 2c0 2 0 3 2 2zm14-2l1-2 2-2c3-2 4-5 3-8l-6-7a37 37 0 0 0-6-4v4c2 0 3 1 6 4 4 3 5 6 4 7-1 2-2 1-5-2l-3-3-1 1 2 4c3 3 3 5 1 6l-1 1a36 36 0 0 0-10-11v2l1 2 7 8 2 2 3-2zm6-18l-10-10v2l1 2 5 4 4 4v-2zm-51 99a1 1 0 1 1-3 0 1 1 0 1 1 3 0zm4-2a1 1 0 1 1-2 0 1 1 0 1 1 2 0z"/>
    </g>
</svg>
