<svg xmlns="http://www.w3.org/2000/svg" viewBox="0 0 512 512">
    <path fill="#229e45" fill-rule="evenodd" d="M0 0h512v512H0z"/>
    <path fill="#f8e509" fill-rule="evenodd" d="M261 405l230-149-231-149L29 257l232 148z"/>
    <path fill="#2b49a3" fill-rule="evenodd" d="M362 256a97 97 0 1 1-195 0 97 97 0 0 1 195 0z"/>
    <path fill="#ffffef" fill-rule="evenodd" d="M232 314l-3-2-3 2 1-3-2-3h3l2-4 1 4h3l-2 3m66 20l-3-2-4 2 1-4-2-2 3-1 2-3 1 3 4 1-3 2m-28-23l-2-1-3 1 1-3-2-2h3l1-3 1 3h3l-2 2m66-6l-2-2-3 2 1-3-2-2 2-1 2-2 1 2 3 1-2 2m-67-17l-3-2-3 2 1-4-3-2h4l1-4 2 4h3l-2 3m-80-27l-3-2-3 2 1-4-3-2 4-1 1-3 2 3 3 1-2 2m10 44l-3-2-3 2v-4l-2-2 3-1 2-3 1 4h4l-3 3m101-52l-3-1-3 1 1-3-2-2 3-1 1-2 2 3h3l-3 2m-5 29l-2-1-2 1v-2l-1-2h2l1-3 1 3h3l-2 2m-109 38l-2-1-2 1 1-2-2-2h2l1-2 1 2h3l-2 2m153 11h-4l1-1-2-2h2l1-1 1 1 2 1-2 1"/>
    <path fill="#ffffef" fill-rule="evenodd" d="M184 292l-2-1-3 1 1-2-2-2h3l1-2 1 2h2l-2 2"/>
    <path fill="#ffffef" fill-rule="evenodd" d="M184 292l-2-1-3 1 1-2-2-2h3l1-2 1 2h2l-2 2m32 2l-2-1-2 1 1-2-2-2h3l1-2 1 2h2l-2 2m-4 13l-2-1-2 1 1-2-2-2h3l1-2 1 2h2l-2 2m67-17l-2-2-2 1v-2l-1-2h2l1-2 1 2 2 1-2 1m-19 3l-2-2-2 1 1-2-2-2h2l1-2 1 2 3 1-2 1m-52-4l-2-1-1 1v-2l-1-1h2v-1l1 1h1l-1 1m128 35l-2-1-2 1 1-2-2-2h2l1-2 1 2h3l-2 2m-16 4l-2-1-1 1v-2l-1-1 2-1v-1l1 2h2l-1 1m8 2l-2-1-2 1 1-2-1-1h1l1-2 1 2h2l-2 1m23-17l-2-1-2 1 1-2-1-1h1l1-2 1 2h2l-2 1m-29 32l-2-1-2 1 1-2-2-2h2l1-2 1 2h2l-1 2m0 11l-2-1h-2l1-2-2-1 2-1 1-1 1 2h2l-1 1m-15-17l-1-1-2 1 1-2-2-1h2l1-2 1 2h1l-1 1m-14 2l-1-1-2 1 1-2-1-1h1l1-2 1 2h1l-1 1m-23-19l-1-1-2 1v-1l-1-2h2l1-1v1l2 1-1 1m3 43l-2-1-1 1v-1l-1-1 2-1v-1l1 1 1 1-1 1m-35-66l-3-2-3 1 1-3-3-3h4l1-3 2 3 3 1-2 2"/>
    <path fill="#fff" fill-rule="evenodd" d="M355 291a95 95 0 0 0 5-15c-52-46-110-69-182-64a95 95 0 0 0-7 16 233 233 0 0 1 184 63z"/>
    <path fill="#309e3a" d="M332 265l2 1a3 3 0 0 0-1 2l2 1 1 1 1-1v-1l-1-1a6 6 0 0 1-2-3 3 3 0 0 1 2-3 3 3 0 0 1 2 0 5 5 0 0 1 2 1 6 6 0 0 1 2 2 3 3 0 0 1-1 3l-2-1 1-2-1-1h-2a1 1 0 0 0-1 1l2 1 1 2a3 3 0 0 1 0 4 3 3 0 0 1-1 1 3 3 0 0 1-2 0 6 6 0 0 1-2-1 5 5 0 0 1-2-3v-3zm-9-5l2 1a3 3 0 0 0 0 1l1 2h1l2-1-1-1-1-1a6 6 0 0 1-1-3 3 3 0 0 1 0-2 3 3 0 0 1 1-1 3 3 0 0 1 2 0l2 1 2 2a3 3 0 0 1-1 3l-1-1v-2l-1-1a2 2 0 0 0-2 0 1 1 0 0 0 0 1l1 1 1 2a3 3 0 0 1 0 4 3 3 0 0 1-3 1 6 6 0 0 1-2-1 5 5 0 0 1-2-2 4 4 0 0 1 0-3zm-11-3l6-9 7 4-1 1-5-3-2 2 5 3-1 2-4-3-2 2 5 3-1 2-7-4zm-16-13l1-2 4 2-2 4a7 7 0 0 1-4-1 6 6 0 0 1-3-2 5 5 0 0 1 0-2v-3a6 6 0 0 1 2-2l3-1 3 1a5 5 0 0 1 2 2v2h-2a2 2 0 0 0 0-2 3 3 0 0 0-1-1 3 3 0 0 0-3 0l-2 2a5 5 0 0 0 0 3l1 2h3l1-1-2-1zm-68-17l1-11 3 1 1 7 3-7 3 1-1 10h-2l1-8-3 8-2-1-1-8-1 8h-2zm-11-2l1-10 8 1v1h-6v2l5 1v1h-5l-1 3 6 1v1h-8zM181 219l1-3 1-1 1-1a6 6 0 0 1 3-1 5 5 0 0 1 3 2l2 4-2 4a5 5 0 0 1-4 1 5 5 0 0 1-3-1 5 5 0 0 1-2-4z"/>
    <path fill="#f7ffff" d="M184 219v3l2 1a3 3 0 0 0 3-1v-3-3a3 3 0 0 0-2-1l-3 1v3z"/>
    <path fill="#309e3a" d="M194 224v-10h7l1 1 1 2-1 2-2 1 1 1 1 1 2 2h-3l-1-2a16 16 0 0 0-2-1 2 2 0 0 0 0-1 4 4 0 0 0-1 0h-1v4h-2z"/>
    <path fill="#fff" d="M196 218h2a8 8 0 0 0 2 0l1-1-1-1a1 1 0 0 0-1 0h-3v2z"/>
    <path fill="#309e3a" d="M206 214h4a8 8 0 0 1 2 1 4 4 0 0 1 2 1 5 5 0 0 1 1 2v2a5 5 0 0 1-2 4l-1 1h-6v-11z"/>
    <path fill="#fff" d="M208 216v7h4v-1l1-2-1-2v-1a2 2 0 0 0-1-1 10 10 0 0 0-2 0h-1z"/>
    <path fill="#309e3a" d="M259 233l2-10 3 1 3 1 1 1v2a3 3 0 0 1-2 2 3 3 0 0 1-1 1 12 12 0 0 1-2-1h-1l-1 4-2-1z"/>
    <path fill="#fff" d="M263 225l-1 3h1l2 1a1 1 0 0 0 1-1v-2a2 2 0 0 0-1 0l-1-1h-1z"/>
    <path fill="#309e3a" d="M268 236l4-10 4 2a8 8 0 0 1 2 1l1 1v2l-1 2a3 3 0 0 1-3 0l1 1 1 2v2h-2l-1-3a15 15 0 0 0 0-2 2 2 0 0 0-1-1 3 3 0 0 0-1 0l-2 4-2-1z"/>
    <path fill="#fff" d="M272 231l2 1h2l1-1v-1a1 1 0 0 0-1 0l-1-1h-2l-1 2z"/>
    <g>
        <path fill="#309e3a" d="M281 236a7 7 0 0 1 1-3l1-1a4 4 0 0 1 2 0h2a5 5 0 0 1 4 3v4a6 6 0 0 1-3 3 5 5 0 0 1-4 1 5 5 0 0 1-3-3 6 6 0 0 1 0-4z"/>
        <path fill="#fff" d="M283 237v2l2 2h2l2-3v-3a3 3 0 0 0-2-1 3 3 0 0 0-2 0l-2 2z"/>
    </g>
    <g>
        <path fill="#309e3a" d="M302 251l5-10 4 2 2 2v3l-2 1h-2l1 2v4l-2-1v-3l-1-2a4 4 0 0 0-1-1l-2 4-2-1z"/>
        <path fill="#fff" d="M306 246l2 1 2 1a2 2 0 0 0 1-2 1 1 0 0 0-1-1 21 21 0 0 0-1 0l-1-1-2 2z"/>
    </g>
    <g>
        <path fill="#309e3a" d="M341 270l2-2a5 5 0 0 1 2 0 4 4 0 0 1 1 0l3 1a5 5 0 0 1 2 3 6 6 0 0 1-1 4 6 6 0 0 1-4 3 5 5 0 0 1-4-1 5 5 0 0 1-2-4 6 6 0 0 1 1-4z"/>
        <path fill="#fff" d="M343 271l-1 3a3 3 0 0 0 1 2 3 3 0 0 0 3 1l2-2 1-3-1-2h-3l-2 1z"/>
    </g>
    <path fill="#309e3a" d="M246 229l2-8 6 2-1 1-4-1v2l4 1-1 1-3-1-1 2 4 1v1l-6-1z"/>
</svg>
