<svg xmlns="http://www.w3.org/2000/svg" viewBox="0 0 512 512">
    <path fill="#ffd520" d="M0 0h512v512H0z"/>
    <path fill="#ff4e12" d="M0 512h512V0z"/>
    <g stroke="none">
        <g fill="#fff" stroke-width="0">
            <path d="M282 163c-4-2-7 0-6 5 0 5 2 8 6 6v-12z"/>
            <path d="M285 153c-3-3-6-1-7 3s0 9 4 8l3-11z"/>
            <path d="M291 144c-3-3-6-2-9 2-2 5-1 8 4 9l5-11zm-4 44c-5 2-5 8-2 12s8 5 11 1l-9-13z"/>
            <path d="M282 174c-5-1-9 5-10 10 0 7-10 10-5 20 1-7 6-10 9-11 4 0 9 0 11-5l-5-14zm14 27c-5 2-6 9-2 14 3 4 13 3 13-1l-11-13zm15 43c0-5-7-7-11-6-3 1-10 0-11-4-2 3 0 7 5 8 4 2 4 4 3 6 3 0 11 0 14-4z"/>
            <path d="M307 215c-5-3-8 1-10 4-3 5-12-1-15 5 4-1 8 2 10 4 6 3 16 2 18-6l-3-7z"/>
            <path d="M310 221c-5 4-7 8-7 11 0 4 4 10 9 11 3-6 4-18-2-22zm-22 24c0-2 3-3 5-2s5 3 4 5l-9-3zm-28-10c0-3 3-7 8-4 5 2 6 6 4 8l-12-4z"/>
            <path d="M272 239c0-1 3-4 9-2s8 5 7 8l-16-6zm-13-4c3-3 2-7-1-9-5-2-3-9-6-10s-6-3-6-6c-2 3-1 6 1 8s-2 10 1 13l11 4zm-67-2c-3-4-9-3-11-1-3 3-3 8 0 9l11-8zm15-6c-1-6-8-6-11-5-4 1-6 7-4 11l15-6z"/>
            <path d="M217 226c3-5-2-11-7-12s-10-1-12-6c-1 4 2 7 5 9 4 2 0 7 5 10l9-1z"/>
            <path d="M217 226c-1-3 1-8 5-7 5 0 7 3 5 7h-10z"/>
            <path d="M227 226c-1-3 2-7 6-6 5 1 7 4 4 8l-10-2z"/>
            <path d="M237 228c-1-3 2-7 7-6 4 1 6 5 3 8l-10-2zm-76 58c-8 0-10 2-12 10-1 11 14 12 12-10z"/>
            <path d="M165 274c-13-5-20 16-33 12 5 7 16 0 20 1 7 1 22-1 13-13zm-9 28c-6-3-13 7-12 11 2 6 16 1 12-11zm-30 42c4 1 8 3 7 10 0 7-13 21-25 22-11 0-15 14-25 10 9-1 9-12 16-15-5-2-8 10-15 10-6 0-10 11-18 10s-9 13-26 13c-12 0-28 15-34 9 13-2 18-9 25-16 12-12 25-7 30-18a31 31 0 0 1-18 6c-8 0-16 12-25 6 5 0 8-2 13-8 6-5 14-2 20-8 10-9 18-1 28-12-3-2-9-1-14 2s-12-2-18 1c1-7 15-3 24-8 10-6 18-4 26-3-11 0-16-11-31-8-6 1-11-9-18-4 0-4 7-7 14-3s10-3 24 6c6 3 16-3 22 1-1-2-4-4-9-3 3-6 20-5 27 1z"/>
            <path d="M138 336c-6-4-14 1-19-1 0 4 2 9 8 11a139 139 0 0 0 11-10z"/>
            <path d="M146 324c-8-4-10 7-17 4 1 4 3 7 9 8l8-12z"/>
            <path d="M151 314c-12-5-14 7-22 5 2 4 13 7 19 5l4-10zm18-54c-3-4-10-1-12 5-1 6 2 14 7 12l5-17z"/>
            <path d="M178 245c-6-1-13-1-12 5-3 1-3 9 3 10l9-15z"/>
            <path d="M182 241c-6-6-13-6-16-3-7 5-13 2-14 7 4-3 8 1 11 0s6 5 15 2l4-6zm-14 102c0 1 6 2 9-1s-1-13-6-14c-6-1-6 11-3 15z"/>
            <path d="M161 343c8 3 12-4 7-8a80 80 0 0 1-7 8z"/>
            <path d="M132 354c-2 4-10 5-18 19-9 14-18 8-20 18 11-9 19-3 25-11 10-13 18-11 21-20 6-12 29-12 30-31-8-2-32 19-38 25zm198-190c10 3 10 16 22 21 11 4 13 14 22 12-9-3-8-13-17-15-11-3-15-20-24-22m43 72c2 4 2 11-5 13 4 2 9 0 11-4-4 9-1 17 6 19-3-7 4-10 1-14 4 2 8 8 8 11 5-6-4-14-2-20l-19-5zm-65 65c-6-6-9 1-12-1s-6-3-8-1c5 1 3 5 13 6-10 0-8 12-15 11 7 7 11-6 17-4-2 1 3 5 0 10 5 0 7-7 7-10l-2-11zm-135 58c-3-1-9-2-12-1-2 2-1 2 2 2 3 1 7 5 0 6-3 0-2 7-8 8 2 3 10 1 12-3 0 3 4 6 2 9 5 0 2-9 9-9-3 0-1 7 4 5-3 2-2 6 2 5-2 0-3 3 0 5 3-4 0-19-11-27zm273-138a17 17 0 1 0 0-35 17 17 0 0 0 0 35z"/>
            <path d="M358 238c5-5 13-8 19-4 5 4 24 8 33 2s13-10 17-9c3 5 7 7 11 7 2 2 6 3 9 3 4 1 9-1 13-5 6 1 12-4 14-10 6-1 7-8 3-13-4-1-1-13-15-11 6 4 1 11 6 14-3 0-7 1-8 6 1-3 0-5-1-6 0-3-7-10-13-8 5 1 2 8 5 11a8 8 0 0 0-6 3c-1-3-7-6-11-6v-4a18 18 0 0 1-2-11l-7 11c-5-3-17 1-23 3-5 1-24-2-28-7a48 48 0 0 0-20-9c-11-3-11-15-23-23 0 15 22 61 27 66zM235 349a17 17 0 1 0 0-34 17 17 0 0 0 0 34z"/>
            <path d="M195 336c3 4 9 4 11 4 2 5 9 5 11 8 3 3 13 2 15 1l-9-5c-3-3-2-9-5-12 3-2 3-6 3-8l4-5a15 15 0 0 0 9-4c2 2 8 0 11 3 0-8-8-13-13-10-2-1-8 0-9 1-1-1-6 2-9 4 3-2 3-6 2-7 2-1 5-4 5-6 3 0 8-2 10-1-4-5-9-6-15-6-5 1-8 5-9 9-3 2-4 9-3 11-2 0-4 2-4 3a26 26 0 0 0-9-2m1-7c-1-3 0-6 1-9 2-6 1-8-5-7a46 46 0 0 0 4 16z"/>
            <path d="M188 291c1 2 6 3 7-2 1-6-2-8-6-6l-1 8z"/>
            <path d="M189 283c2 1 6 3 8-2 2-4 0-7-4-7l-4 9z"/>
            <path d="M192 274c1 2 6 7 10 3s4-9-2-11c-2 0-6 5-8 8z"/>
            <path d="M200 266c1 3 5 8 11 6 7-3 4-11 1-12-2 0-9 3-12 6z"/>
            <path d="M212 260c-1 2 0 10 9 10s6-11 4-12c-4 0-10 0-13 2z"/>
            <path d="M225 258c-1 2-3 16 14 12 3 0 9-13-14-12z"/>
            <path d="M235 259c-2 2 3 16 14 14 12-2 2-16-14-14z"/>
            <path d="M245 261c-2 4 1 16 15 16s0-15-15-16z"/>
            <path d="M256 265c-1 2-2 14 15 15 13 1 10-17-15-15z"/>
            <path d="M275 270c-2 4-5 13 14 14 12 0 5-14-14-14z"/>
            <path d="M290 273c-2 4 0 11 7 12 8 2 10-6 4-10s-11-2-11-2z"/>
            <path d="M299 275c-2 3-1 12 13 12 2 0 13-11-13-12zM196 438a20 20 0 1 0 0-39 20 20 0 0 0 0 39z"/>
            <path d="M339 154l-5 8c-7 20 11 34 21 55a61 61 0 0 1-6 60c-4 5-3 7-8 13-2 2-5 5-4 13 4-1 9 2 10 5 2-2 6-1 7 0 4-2 8-1 12 3 3 0 6 0 10 4 1-4 5-5 7-4 0-5 5-8 9-6a7 7 0 0 1 9-9c5-3 14-4 18 2-8-3-7 6-14 5 2 5-3 8-8 10 3-2 6-3 7-2 3-2 8-1 9 0 4-1 7 0 8 4 5 3 8 10 5 15-1-6-5-5-7-8-3 2-7 2-8-1-2 2-9 4-12 1-1 5-5 8-9 8 1 4-2 10-5 13 4 2 3 7 2 10 6 1 1 7 12 11-5 2-16 0-18-7-5 0-9-6-9-12-4-4-5-9 1-13-5 1-7-7-15-4-3 2-13-1-13-4-1 2-10 1-12-3-3 2-10-1-10-5-4 2-9-2-9-6-3 0-4-3-3-6-4-2-3-5-1-8-3-3-2-6 0-10-2-2-2-5-1-9-12-1-27-4-62-14-52-16-66 21-55 45 14 27-1 33 3 53 5 1 8 5 7 10 3 0 5 2 4 7a9 9 0 0 1 8 3c1-4 7-4 10-1 7 0 10 5 10 12a18 18 0 0 1-2 19v-9c0-4-6-5-5-9-3 1-6-1-7-3a7 7 0 0 1-7 1c4 2 6 8 5 12 2 3 2 8 0 11-1 4-5 6-10 4a8 8 0 0 0 4-7 10 10 0 0 1-3-7c-5 1-12-3-13-5a20 20 0 0 0-20 20c0-4-5-8-5-11-3-10 2-18 14-20-1-4 4-7 2-11a95 95 0 0 0-15-20c5-7 3-17 1-23-4-9-7-7-20 7-21 23-49 17-73 32-7 4-13 6-6-1s25-14 37-20c23-12 42-31 50-67 17-86 83-58 124-42 38 15 31-19 12-40-24-24-19-44-8-59 20-3 58 4 50 10z"/>
            <path d="M409 366a22 22 0 1 0 0-43 22 22 0 0 0 0 43z"/>
        </g>
        <g fill="none" stroke-width="0">
            <path d="M327 155c-5 21-1 31 6 40 15 20 26 63 10 92"/>
            <g stroke-linecap="round">
                <path d="M352 262c2-1 6-3 7-7m-5-2c0-4 6-5 6-9m-6-5c-1-4 5-7 5-11m-8-3c-1-2 5-6 3-9m-8-4c-1-2 3-5 1-8m-7-2c0-2 2-6 1-8m-7-5c1-1 3-2 2-4m-6-5c1 0 3-1 3-3M205 417c-5-2-12 1-13 5m4 4c0-5 7-7 9-5-4-2-6 6-3 7m34-102c-3 2-4 7 0 11m5-9c-2 1-2 7 1 8-3-2 0-5 2-5s3 2 1 4m172 5c-7-2-13 6-6 14 0-7 5-12 11-11m-3 5a3 3 0 0 0-3 3l4 2 2-2m22-157c1 4 7 6 12 5m0-3c-4 0-7-3-7-6 0 2 5 3 7 2M206 340c-1-3 3-5 3-8 1-2 5-4 9 0m-2-26l-2 1m11 12l-4-1m0 6l-4 2m-39 74c-1 2 2 5 3 6m6-11c-1 2-2 5-1 7m20 0c-2-1-1-5-1-8 0-2 3-6 8-3m-28-3h6m23-7a8 8 0 0 0-2 3m12-4c-2 0-3 2-4 3m-20-67c2 1 7 4 7 7m14-23c-6 0-8-7-4-7m15 15c-2 1-1 5 2 7m-16 32c-2-1 0-5 4-4m5 50c0-4 5-6 7-2m-25 13c0-4 2-5 4-6l5 4m-47 5c1-2 3-5 5-4m225-107c-2 1-3 7 4 7m-13 2l1 2m28 8c-1-1-6 4-2 7m-38 35c-1-4 3-4 6-4m-14-21l6-4m-7 17c0-3 2-5 3-6m8-28a17 17 0 0 0 3 9m27-9l-4 3m2 7l2-2m46-107c0 3-5 5-8 3m17-3c2 1 9 0 7-4m-15 24a10 10 0 0 1-5-3m19-7a7 7 0 0 1-5-1m-31 13l7-1m-10-21a5 5 0 0 0-4 1m29 5a10 10 0 0 1-3 5M430 224c3-2 7 9 15 5m0-11l-1 5"/>
            </g>
            <path d="M295 202l3-2M166 319c4 2 6 6 5 11m168-140h7m3 3c0 2 1 8-3 10m2-1c3 1 9 0 11-5m-4 5a7 7 0 0 1-3 10m4-6c4 1 12 1 11-6m-3 6c3 3 14 7 12 0m-22 10c4 1 10-2 8-10m12 4c1 3 15 6 13 0m-3 3c3 6 17 6 12-2m-2 6c3 3 15 1 10-7m0 7c8 6 17-3 7-9m4 7c7 5 15-4 9-7m-62 5c2 0 6 0 7-4m-1 3c-1 6 9 8 11 1m-3 4c2 3 10 5 12 0m-2 2c2 4 9 3 11 0m-3 2c3 5 12 5 14-2m-1 3c3 2 11 1 10-6m-1 5c5 5 13 1 9-7m0 13c3 0 4-6 1-8m-68 9c6-3 7-9 3-14m2 9c4 2 11 0 12-6m-7 6c2 3 3 6 0 10m2-6c7-4 15 3 9 8m-1-9c1 0 4-3 4-6m-1 9c2-3 21 3 9 9m-1-17c4 2 6 7 0 9m5 4c4-4 17-1 12 4m-3-6c2-7 16-3 11 1m-13-8c0 1 0 5-2 7m13-9a6 6 0 0 1-1 5m9-5c1 2 2 4 0 6m-107-63c0 7 2 12 12 7m-9 1c-5 7 0 13 10 7m-25-4c7 7 18 2 11-9m8 15c-2 7 4 9 9 5m-34-10c2 7 9 13 16 8m-7 2c0 10 14 11 17 1m-5 6c4 9 14 5 17 0m-27-15c2 5 5 10 14 6m-39-8c1 4 8 8 15 3m-10 2c-4 6 4 11 13 3m-9 4c2 8 5 15 17 4m-6 5c4 5 11 8 17-1"/>
            <path d="M323 200c-1 7 1 10 5 10 4-1 8-4 10-7m-10 7c0 7 5 12 16 5m-12 3c-2 5 4 14 16 10m-41-24c-1 7 6 11 16 2m-11 5c0 6 7 13 16 3m-12 4c0 10 9 13 16 5m-29-12c2 0 4-1 5-3m-1 10c2 1 5-1 6-3m-1 15c2 2 9 0 9-3m-2 2c4 9 14 9 18-1m-2 4c2 5 7 8 15 6m-11-1c-4 7 1 15 11 7m-9 3c0 5 4 10 10 11m-28-24c-1 11 6 15 15 10m-26-5c3 2 7 2 11 1m5 6c-2 8 7 14 14 5m-26-10c0 4 4 9 12 7m20 9c-5 4-6 10 1 13m-13-14c0 5 3 8 8 8m-15-11c-8 7-1 15 8 8m-3 2c-3 8 7 13 12 5m-28-22c-2 8 1 13 7 13m-17-14c1 4 5 6 9 5m-6 0c-3 6 2 10 9 7m20 15c-1 4 0 7 6 8m-5-2c-8 3-8 10-2 15m-4-23a7 7 0 0 0 1 12m-34-35c-4 4 0 16 9 9m15 5c-5 5-3 14 7 11m-16-14c-3 8 0 11 6 11"/>
            <path d="M295 246a8 8 0 0 0-1 12c2 3 7 2 8-2m-17-13c-6 7 0 16 8 14m23 8c-6 2-11 8-7 12 2 3 11 3 14-7m-18-12c-3 5-2 10 4 12m-4-3c-4 2-6 5-6 9m-3-16c-1 6 1 9 4 11m-4-4c-5-1-8 2-6 7m0-6c-6-2-6-7-4-12m-1 8c-6 0-8 3-8 7"/>
            <path d="M277 240c-4 2-6 8-4 11s7 4 10 1m-18-16c-4 4 0 13 8 11m-18-15c-4 5 0 14 10 12m0 24c-1-6 6-10 14-2m-4-13a10 10 0 0 0-3 8m-28-32c-4 7 1 14 10 11m14 7c-6 5-4 11 0 15m-4-9c-9 0-10 11-2 14m-5-24c-4 3-5 9 1 12m-1 3c-4-1-9 1-8 5m2-4c-3-8-13-7-12 1m15-11c-2 0-7 1-8 5m0-14c-4 4-1 10 3 11m-15-24c0 5 2 8 9 8m-6-1c-3 7 1 9 7 9m-6-1c-4 5-1 10 3 12m-5-6c-7-1-8 7-6 11"/>
            <path d="M231 226c-5 2-7 8-5 11 2 4 7 2 10 1m-8 1c-4 5-1 9 3 11"/>
            <path d="M214 226c-3 3-2 9 5 9 6 0 9-5 7-9m-7 9c-3 5-1 10 7 10m4 7c-6-2-13 0-10 7m0-16c-2 4-2 8 1 11m-2-2c-3 0-7 2-4 8m-1-5c-4-1-10 2-7 7m-1-5c-3 0-8 4-4 8m-2-4c-3 1-7 5-4 8m22-27c-5 2-6 8-3 12m-2-23c-8 3-8 13 1 16m-4-2c-5 3-5 8-2 11m-6-28c-3 1-3 10 5 10m-13-7c-6 4 1 14 11 7m-6 2c0 4 1 9 7 9m-6-3a7 7 0 0 0 3 12m-18-21c-6 5 5 10 9 2m-18 7c-3 4 8 13 12-3m1 0c1 4 3 6 8 6m0 4c-8 1-10 11-2 13m-12-14c0 3 3 6 7 6m4 7c-7 2-8 11-2 10m-3 8c-5-1-5-8 0-11"/>
            <path d="M185 277c-5 3-3 10-1 11s5 0 5-2m0 9c0 4-12 2-6-8m0 9c-4 6 3 12 7 6m-6 2c-2 5 4 9 8 5m-22-53c-2 4 9 6 10-4m-13 10c-2 9 15 8 10-4m1 6a8 8 0 0 0 11-6m-5 6a10 10 0 0 0 5 6m-13-4c-1 5 4 9 10 9m-9-4c-3 4-4 11 5 12m-18-10c-2 3 6 7 11 1m-14 8c-1 3 7 7 11-5m-3 6c1 3 7 6 11 0m-6 3c-1 5 3 9 8 8m-17-9c-1 7 6 10 10 7m-15-4c-2 8 8 11 12 5m-3 3c1 4 8 8 13 4m-25-1c-1 2 8 4 9-3m-4 5c2 5 8 6 12 0m-2 3c1 4 7 7 12 4m3 2c-2 6 5 11 9 8m-20-9c-2 7 7 11 12 7m-23-11c0 7 5 11 11 8m-22-7c-1 4 8 7 12 4m-18 7c3 3 11 0 12-6m-2 5c3 3 10 5 13-2m-3 4c0 5 10 9 13-1m11 2c-1 2 1 7 6 7m-14-9c0 3 4 7 9 6m1 1c-2 3-1 8 4 8m-4-2c-3 3-2 8 3 8m-5-3c-4 3-3 10 3 9m-17-23c0 7 9 8 10 2m-3 4c-1 4 2 8 7 7m-6 41c1 2 6-1 5-4-2-2-7-1-6 2m5-3c0-5-6-6-8-1m2-3c2-3-4-7-6-3m2-1c2-4-5-6-5-2m-1-6c0-2 7 0 4 4m6 5c3-3-2-8-5-6m23 14c-2 0-4 1-3 6 2 3 6 3 7 1"/>
            <path d="M199 373c-2-2-7 1-5 5s6 2 7 1m-14 0c1 2 7 1 7-1m-3-5c1-1 3 0 3 1m-4-32c-3 3-1 10 5 8m-6-2c-3 2 0 9 5 7m-4 0c-2 2 0 7 5 6m-6-4c-1 0-4 0-5 2m2-27c-3 3-1 8 4 8m-5-3c-4 2-4 10 4 11m-4-2c-2 2-1 9 4 8m-2 0l-1 4m-2-7c-2 0-5 2-5 4m-4-7c1-2 7-2 7 4m1-7a4 4 0 0 0-3 2m0-21c-2 3-4 10 5 12m-10 4c0-2 6-4 8-1m-12-10c1 1 5 4 7 2m-27-14a6 6 0 0 0 7 6c4-1 5-4 4-7m-3 7c-3 3 1 8 4 7m-1-9c2-1 7-2 9 1m-26 0c-2 2 6 3 9 0m-3 2c0 2 1 6 8 5"/>
            <path d="M160 335c1-2-4-6-8-2s1 8 3 7m-12-14c-2 4 5 10 9 4"/>
            <path d="M138 332c-3 3 1 7 5 6s3-6 2-7"/>
            <path d="M133 337c-2 2 0 6 3 6s5-2 4-5m5-2c-1 4 4 6 7 3m0-6l-1-2m-23 10c-2 2 3 7 6 2m13-3c-1 1 1 5 4 4m-12-1c0 2 5 4 9 0m-7 2c0 2 1 5 3 4m47 12c-2 4 5 8 9 3m-4 2c-1 2 0 5 2 6m-8-1c1-2 3-4 6-3m-9-2c0-2 2-4 4-3m144-76c-9 1-5 15 2 12m-5-1c-2 3 1 8 5 5m-1 0c-2 5 7 11 11 5m-3 2c0 4 12 7 10-1m-1 4c3 5 14 6 13-2m-3 5c2 4 13 6 13-1m-56-40c2 4 7 5 13 3m-16 0c4 2-2 12-7 8m7-2c4 2 9 1 10-5m-2 4c0 3 4 6 10 4m-20-1c5 5-2 13-5 9m7-5c2 1 8 0 9-4m-3 4c1 3 3 4 7 4m-14 0c2 3 8 4 11 0m-3 2c0 4 4 7 8 6m-21 2c3 1 6-5 4-9m-1 15c4 1 5-5 1-9m8 15c4-1 3-8-5-9m15 14c3-1 1-9-8-8m20 11c2-3-5-9-11-6m17 10c4 1 7-9-6-7m13 7c4-1 6-7-4-5m12 6c3 1 4-7-5-5m-46-23c4 3 10 0 9-5m-1 5c1 2 1 6-2 7m2-2c3 1 6 0 8-4m-3 4c0 2 1 5-1 7m1-4c3 1 6-1 8-4m-2 3c2 1 4 7 0 9m2-2c2 0 6 0 8-3m-1 1c2 1 4 5 3 8m1-1c2-1 6-2 7-5m-1 2a7 7 0 0 1 3 6m0-2c3 0 5-1 5-4m0 2c1 0 4 2 4 5m-1-2c2 0 3-1 5-3m4 0c3 2 0 10-5 8m-43-160c-4 2-18 2-11-9m12 1c-9 4-20-3-8-11m-3-2c-8 0-13 12-3 16m-27-11c-2 4 5 8 10 4 4-3 3-11 1-14m-15 19c-2 8 16 9 13-4m-14 16c1 7 18 5 12-8m2-4c2 2 5 5 12 5m-9-14c1 3 5 4 9 3M127 343c-4 3 2 8 5 2m-9 0c-4 3 3 8 5 3m-8-1c-4 3 2 8 5 3m-9 0c-4 2 1 7 5 2m-9 0c-4 2 1 7 5 2m16-9c0 3 6 5 8 0m-4 3c-2 2 2 5 4 4m-12-4c0 2 5 4 8 1m-5 1c-2 3 1 6 4 5m-11-5c1 2 4 5 7 3m-5 0c-1 1 0 4 1 5m-7-5c-1 2 3 5 6 3m-6-1c-2 2-1 4 1 4m-5-4c-1 1 1 3 3 3m-14-3c-2 1 3 6 6 1m-11 1c-3 1 4 7 6 1m10-1c-2 0-3 3-1 4m-5-3c0 1 2 3 4 2m-6-2c-2 1-1 5 2 4m-8-2c-2 2-1 4 1 4m2-4c0 1 1 2 3 1m-13-2c-2 1-2 7 6 4m-11-2c-3 2-2 6 5 2m1 0c-1 1-2 4 1 2m-7 0c-1 1 0 3 2 2m-8-2c-3 1 2 3 6 0m-5 2c-1 1-1 4 2 3m-8-2c-2 1 1 2 5 0m-4 1c-1 2-1 4 1 3m-6-2c-2 2 1 3 5 2m-5 0c-3 2-2 4 1 3m111 7c-1 1 1 3 4 2 2 0 4-2 2-5m0 4c3 2 7 0 7-3"/>
        </g>
        <g fill="#fff" stroke-width="0">
            <path d="M332 117c-10-5-31-15-37-7 6-2 21 0 34 12l3-5z"/>
            <path d="M338 116c-11-13-18-10-27-15-8-4-20-5-22 2 11-6 22 3 28 4 9 1 14 8 16 11l5-2zm44-2c-6-13-19-10-25-16-8-8-29-16-38-10 19-1 28 13 38 18 7 3 15 11 25 8z"/>
            <path d="M359 113c-10-13-26-24-33-20 9 1 12 7 19 12 7 4 4 10 14 8zm-49 23c-11-4-32-6-41 6 16 3 41 1 41-6z"/>
            <path d="M308 140c-10-5-19 2-29 1-19-2-33 0-35 9 11-10 30-2 37-4 8-2 36 0 44 4-4-6-11-7-17-10zm34-28c-2-9-2-17 10-17-3-4-15-6-16 9-14-10-29-12-32-3 7-6 18-2 31 13a23 23 0 0 1 7-2z"/>
            <path d="M323 123c-7-5-18-13 0-16-7-5-19-3-18 12-21-9-36-6-39 2-4 10 9 15 12 9-3 1-11-2-7-7 5-5 27-1 47 10 6 3 26 2 5-10z"/>
            <path d="M318 137c-6-12-26-1-30-13-5 17 28 8 30 13zm124 13c4 2 7-1 1-4 4 2 8-1 2-3 4 2 7-1 1-4-2 2-4 8-4 11zm2-23c9-10-1-13 10-23 9-8 2-13 10-20 3-2 9-6 10-10 3 9-11 11-10 25 0 9-6 9-8 24-1 4-3 11-12 4z"/>
            <path d="M448 131c5-11 11-11 13-15 6-8 17 1 26-6-1 10-14 7-20 13-5 7-10 10-19 8z"/>
            <path d="M449 134c9-7 15-2 22-6 15-9 21 2 35-2-4 9-24 1-33 8s-40 12-24 0zm-25 50a11 11 0 0 0-10-9c-5-1-7-7-11-7s-7-8-12-8c-6 0-8 7 5 14 13 6 27 14 27 10zm-17 4c-5 0-6 8-11 8 7 4 12-1 16-6l-5-2z"/>
            <path d="M412 189c-5 4-6 12 0 15-4-6 8-9 4-14l-4-1z"/>
            <path d="M417 189c-4 7 5 8 3 14 5-2 6-12 1-15l-5 1z"/>
            <path d="M380 173c9 0 17 5 22 13 4 5 16 7 20 3s2-13-8-10c-3-4-10-3-14-6-3-4-17-14-20 0z"/>
            <path d="M414 179c-3 0-4 5-2 7m7-5v4m-25-11c4 0 5 3 10 5M391 162c16 4 29 8 37 12a43 43 0 0 0 30 3c11-3 32-6 31 8 5-7-2-14-16-15 0-7-7-13-12-9 5 0 9 8 0 12a8 8 0 0 0-12-10c4 1 9 9-1 11-6 2-15 0-22-4-6-4-43-19-35-8z"/>
            <path d="M431 156c-5 2-1 7-9 10s-13 10-12 16c6-11 15-11 18-15 3-5 8-11 3-11z"/>
            <path d="M433 157c-1 9-8 5-5 18a26 26 0 0 1 0 17c8-6 3-18 6-23a33 33 0 0 0 5-8c-2 5-1 15 4 17-4-10 11-18 0-29-1 3-6 8-10 8zm-26-10c1 2 3 7 1 10a22 22 0 0 0 8-8c5 0 7 7 2 10 3 0 8 0 11-4-4-4-14-10-22-8z"/>
            <path d="M329 129a10 10 0 0 0-5-2c-7-1-3-8 3-8 14-15 22-3 39-8 6-2 10-1 13 0 7-5 16-3 22 2l3-2c6-2 11 3 13 10 4-1 10 1 13 5 5-3 8-3 9 0 5-2 10-4 13 3s-7 5-8 19c-1 9-11 12-19 7-12-8-24-10-30 3s-11 20-26 16c-5-1-12 1-16 6-4 6-11 1-19 2 10-2 6-4 15-5 8-1 6-8 11-9-20 5-19-2-35 3 7-9 18-4 23-9-14-1-21-10-27-6-11 6-6 24-33 22-13 0-21 1-29 9 14-28 32-12 41-21a66 66 0 0 0 12-15 6 6 0 0 1 4-3c-22-7-9-18 13-19z"/>
            <path d="M439 126l1 2c0 6-8 6-9 14 0 4-1 7-4 6-2 0-5-5-2-10M333 121a11 11 0 0 0-6-2m52-8c6 3 10 10 19 10 10 1 15 14 31 5h1m-29-13a12 12 0 0 0-1 8m-29 21c-12 0-15 6-15 12 0 5 6 13 16 13 9 0 15-6 15-13s-6-12-16-12z"/>
            <path d="M373 167c0-4-6-3-6-6s3-3 3-7 6-3 8-1c1 3 7 8 8 6m-8-6a10 10 0 0 0-1 13m4-8v6"/>
            <path fill="none" d="M428 148c9 1 11-9 4-10m-15-17c-3-4-11-5-11 3"/>
            <path d="M405 134c-3-8-11-9-15-5-4 3-4 12 4 13l11-8zm-3-5c-5-4-11 4-5 11m-81 8c3-1 7 1 14 4 4 2 17 6 25 2-8 3-14-10-20-8-7 2-18 4-23-1 12 1 18-8 31 0a23 23 0 0 0 13 3c-11-13-25-5-27-15 7 7 23-2 31 11m-28-9l-3-6"/>
        </g>
        <path d="M417 121c-3-3-9-1-7 5a9 9 0 0 1 7-5zm-17 16a21 21 0 0 1 5-3 12 12 0 0 0-3-5c-2-1-6 5-2 8z"/>
        <path fill="none" d="M392 127c-4-3-8-3-10 0-3-1-6 2-6 7m7 2c-5-4-13-3-12 6m-3 4c2-2 6-3 9 0m31-8c-1 1-2 4 0 7-2-3-7-3-13 4m25-11c-7 0-7 5-1 7m-46-23c-5-1-9 2-2 5m13-9c-8-2-11 0-7 2m-15 29c-1 3 1 7 5 2m-4 7l-1 2m-17-39c-5-2-6-6 0-6m-2 16c-5-2-5-7-1-6m11 3c-6-1-6-6-2-5m3-8c-3 0-9 4 0 6m9 1c-8-1-8 2-3 4m9-11c-6-1-8 3-4 4m-15 18c-1-1-2-7 5-5m10 3c-5-1-9 4-5 6m11-11c-5-1-9 0-7 2"/>
        <path fill="#fff" d="M417 121a9 9 0 0 0-7 5"/>
    </g>
</svg>
