<svg xmlns="http://www.w3.org/2000/svg" viewBox="0 0 512 512">
    <defs>
        <clipPath id="a">
            <path d="M0 0h496v496H0z"/>
        </clipPath>
    </defs>
    <g fill-rule="evenodd" clip-path="url(#a)" transform="scale(1.032)">
        <path fill="#b20000" d="M0 0h992v330H0z"/>
        <path fill="#429f00" d="M0 330h992v166H0z"/>
        <path fill="#fff" d="M0 0h110v496H0z"/>
        <g fill="#b20000">
            <path d="M5 8h6v9H5zm16 0h16v9H21zm5-8h5v8h-5zm26 0h5v8h-5zm21 8h16v9H73zm5-8h6v8h-6zM16 17h10v8H16zm15 0h11v8H31zm37 0h11v8H68zm16 0h10v8H84zm-73 8h10v9H11zm26 0h10v9H37zm26 0h10v9H63zm26 0h10v9H89zM99 8h6v9h-6zM5 34h11v8H5zm37 0h10v8H42zm52 0h11v8H94zM11 59h10v8H11zm5 8h10v9H16zm21-8h10v8H37zm-6 8h11v9H31zm-10 9h16v8H21zm5 8h5v9h-5zm37-25h10v8H63zm5 8h11v9H68zm21-8h10v8H89zm-5 8h10v9H84zm-11 9h16v8H73zm6 8h5v9h-5zm-27-8h5v8h-5zM0 76h5v8H0zm105 0h5v8h-5zm-79 42h5v8h-5zm-5 8h16v9H21zm-5 9h26v8H16zm62-17h6v8h-5zM73 126h16v8H73zm-5 8h26v9H68zm5 43h26v8H73zm-10-34h36v8H63zm-52 0h36v8H11zm5 42h15v9H16zm-6-8h27v8H11zm74-17h26v8H84zm-5 25h15v8H79zm-58 8h5v9h-5zm63 0h5v9h-5zM0 160h26v8H0zm47 17h16v8H47zm5 8h5v8h-5zm-15-25h36v8H37zM58 34h10v8H58zm-11 8h16v8H47zm-5 8h10v9H42zm15 0h11v9H58zM0 42h11v8H0zm5 8h11v9H5zm94-8h11v8H99zm-5 8h11v9H94zM0 126h5v8H0zm105 0h5v8h-5zm-58 67h16v9H47zm-5 9h10v8H42zm15 0h11v8H58zm-20 8h10v9H37zm26 0h10v9H63zm-32 9h11v8H31zm37 0h11v8H68zm-42 8h11v8H26zm47 0h11v8H73zm-57 8h15v9H16zm63 0h15v9H79zm10-8h10v8H89zm5-8h11v8H94zm5-9h11v9H99zm-89 17h11v8H11zm-5-8h11v8H5zM0 210h11v9H0zm21 34h5v8h-5zm63 0h5v8h-5zm-32-25h6v8h-6zm-15 25h5v8h-5zm31 0h5v8h-5zm-16 0h5v8h-5zm-52 0h5v8H0zm105 0h5v8h-5zM52 126h5v8h-5zM26 42h5v8h-5zm52 0h6v8h-5zm-31 59h16v8H47zm-10 8h15v9H37zM42 118h5v8h-5zm-11-17h11v8H31zm6-8h15v8H37zm5-9h5v8h-5zm16 8h15v9H58zm5-8h5v8h-5zm5 17h11v8H68zm-10 8h15v9H58zm5 9h5v8h-5zm21-17h10v8H84zm5-8h16v8H89zm10 8h11v8H99zM89 109h16v9H89zm5 9h5v8h-5zm0-34h5v8h-5zM0 101h11v8H0zm5-8h16v8H5zm11 8h10v8H16zM5 109h16v9H5zm6 9h5v8h-6zm0-34h5v8h-6zm-6 67h21v9H5zm26 0h21v9H31zm27 0h21v9H58zm26 0h21v9H84zm-42 17h26v9H42zm-37 0h26v9H5zm74 0h26v9H79zm26 34h5v8h-5zM0 202h5v8H0zm5 286h6v-9H5zm16 0h16v-9H21zm5 8h5v-8h-5zm26 0h5v-8h-5zm21-8h16v-9H73zm5 8h6v-8h-5zm-62-17h10v-8H16zm15 0h11v-8H31zm37 0h11v-8H68zm16 0h10v-8H84zm-47-8h10v-9H37zm26 0h10v-9H63zm26 0h10v-9H89zm10 17h6v-9h-6zM5 462h11v-8H5zm37 0h10v-8H42zm52 0h11v-8H94zm-83-25h10v-8H11zm5-8h10v-9H16zm21 8h10v-8H37zm-6-8h11v-9H31zm-10-9h16v-8H21zm5-8h5v-8h-5zm37 25h10v-8H63zm5-8h11v-9H68zm21 8h10v-8H89zm-5-8h10v-9H84zm-11-9h16v-8H73zm6-8h5v-8h-5zm-27 8h5v-8h-5zm-52 0h5v-8H0zm105 0h5v-8h-5zm-79-42h5v-8h-5z"/>
            <path d="M21 370h16v-8H21zm-5-8h26v-9H16zm63 16h5v-8h-5zm-6-8h16v-8H73zm-5-8h26v-9H68zm5-42h26v-9H73zm-10 33h36v-8H63zm-52 0h36v-8H11zm5-42h15v-8H16zm-5 9h26v-9H11zm73 16h26v-8H84zm-5-25h15v-8H79zM0 336h26v-8H0zm47-16h16v-9H47zm5-9h5v-8h-5zm-15 25h36v-8H37zm21 126h10v-8H58zm-11-8h16v-8H47zm-5-8h10v-9H42zm15 0h11v-9H58zm-57 8h11v-8H0zm5-8h11v-9H5zm94 8h11v-8H99zm-5-8h11v-9H94zM0 370h5v-8H0zm105 0h5v-8h-5zm-63-76h10v-8H42zm15 0h11v-8H58zm-20-8h10v-8H37zm26 0h10v-8H63zm-32-8h11v-9H31zm37 0h11v-9H68zm-42-9h11v-8H26zm47 0h11v-8H73zm-57-8h15v-9H16zm63 0h15v-9H79zm10 8h10v-8H89zm5 8h11v-8H94zm5 9h11v-9H99zm-89-17h11v-8H11zm-5 8h11v-8H5zm-5 9h11v-8H0zm21-34h5v-8h-5zm31 26h5v-9h-5zm0 92h5v-8h-5zm-26 84h5v-8h-5zm52 0h6v-8h-5zm-31-59h16v-8H47zm-10-8h15v-9H37zm5-9h5v-8h-5zm-11 17h11v-8H31zm6 9h15v-9H37zm5 8h5v-8h-5zm16-8h15v-9H58zm5 8h5v-8h-5zm5-17h11v-8H68zm-10-8h15v-9H58zm5-9h5v-8h-5zm21 17h10v-8H84zm5 9h16v-9H89zm10-9h11v-8H99zm-10-8h16v-9H89zm5-9h5v-8h-5zm0 34h5v-8h-5zM0 395h11v-8H0zM5 404h16v-9H5zm11-9h10v-8H16zm-11-8h16v-9H5zm5-9h6v-8h-6zm1 34h5v-8h-6zm-6-67h21v-9H5zm26 0h21v-9H31zm27 0h21v-9H58zm26 0h21v-9H84zm-42-17h26v-8H42zm-37 0h26v-8H5zm74 0h26v-8H79zm26-34h5v-8h-5zM0 294h5v-8H0zm47-42h5v9h-5zm11 0h5v9h-6zm0-17h5v9h-6zm-11 0h5v9h-5zM11 462h10v9H11zm73-159h5v-9h-5zm-63 0h5v-9h-5zm26-9h16v9H47z"/>
        </g>
    </g>
</svg>
