<svg xmlns="http://www.w3.org/2000/svg" xmlns:xlink="http://www.w3.org/1999/xlink" viewBox="0 0 512 512">
    <defs>
        <path id="a" d="M0-360l69 216 212-80L156-36 351 80l-226 20 31 224L0 160l-156 164 31-224-226-20 195-116-125-189 212 81z"/>
        <path id="b" d="M0-210L55-75l145 10L89 29l34 141L0 93l-123 77 34-141-111-94 145-10z"/>
    </defs>
    <path fill="green" d="M0 0h512v512H0z"/>
    <circle cx="268" cy="250" r="61" fill="#ffe000"/>
    <circle cx="287" cy="250" r="50" fill="green"/>
    <circle cx="75" cy="189" r="64" fill="#ffe000"/>
    <path fill="#802000" stroke="#7b3100" d="M71 238h16v-3c-1 0-5-1-4-3l4-16 1-33h-2l-1 14-3 15-3 11-4 7-2 4-2 1v3z"/>
    <path fill="green" d="M83 143l-1 8-2 9c-2 1-4-4-5-1l6 9c0 1 3 3 1 4-4-1-5-6-7-10a18 18 0 0 0-15-9c-2 0-9 0-7 4l9 5c2 0 6 4 5 5l-9-5c-5-2-13-1-15 4-1 2-2 6 0 6 2-3 5-6 9-6 3 1-4 7-1 6l4-2 3 1 3 1-3 1-3 2h-5c-3-1-9-1-10 3 0 2-1 0-2 1-1 2-1 4-4 3l-6 6c2 3 7-3 7-1-3 3 1 4 3 2 2-3 5-7 9-4 2 2 3-1 5-1 0 3 2 0 3 0s1 2 3 1c3-3 8-1 12-3 3-2 0 1-1 2-2 4 0 8-4 10-1 4 2 9-1 12-1 2 4 2 5 3 2 0 0-6 2-6 3 2 3-4 3-6 0-3 0-7 2-11s4 2 2 4c-2 3-3 8-1 12l3 3 3-2c1-6 0-12 2-17 2-2 4 0 5 1 2 3 4 7 8 10a14 14 0 0 1 7 7c0 2 7 2 5 0-2-3-1-6 1-7v-1c-2 0-2-3 0-2 3 1 0-2-1-2-3-2-6-4-7-7 3 0 7 2 10 1s6 0 7 3c2-1 1-3 0-3 2-1 3-2 1-4-1-1 1-3-2-3 0-2-1-4-3-5-2-2-10 3-9-2-1-2 3 0 4-2s-5-2-3-4c1-1 7-2 2-3a8 8 0 0 1-6-1c-2 3-7-2-6 4-1 2-5 7-6 3 1-3 6-4 4-8 0-3-2 0-3 0-1-2 1-4 3-4 3 2 3-3 5-2 2-1 0-2-1-2 1-1 4-2 1-3-3-2-5 2-7 2-2-3 2-4 3-5 0-1-2 0-1-1 0-1 4-1 2-3-3-1-6 0-9 1-2 0-2 4-4 4-1-2 0-5-2-6zm14 38c2 0 0 4-1 4 0-2-3-1-1-3a7 7 0 0 1 2-1z"/>
    <g fill="#ffe000" transform="translate(-26 104) scale(.05833)">
        <use width="100%" height="100%" x="7560" y="4200" xlink:href="#a"/>
        <use width="100%" height="100%" x="6300" y="2205" xlink:href="#a"/>
        <use width="100%" height="100%" x="7560" y="840" xlink:href="#a"/>
        <use width="100%" height="100%" x="8680" y="1869" xlink:href="#a"/>
        <use width="100%" height="100%" x="8064" y="2730" xlink:href="#b"/>
    </g>
</svg>
