<svg xmlns="http://www.w3.org/2000/svg" viewBox="0 0 512 512">
    <path fill="#006" d="M0 0h512v512H0z"/>
    <path fill="#fff" d="M0 0v21l325 162h41v-20L41 0H0zm366 0v21L41 183H0v-20L325 0h41z"/>
    <path fill="#fff" d="M153 0v183h61V0h-61zM0 61v61h366V61H0z"/>
    <path fill="#c00" d="M0 73v37h366V73H0zM165 0v183h36V0h-36zM0 183l122-61h27L27 183H0zM0 0l122 61H95L0 14V0zm217 61L339 0h27L244 61h-27zm149 122l-122-61h27l95 47v14z"/>
    <path fill="#fff" fill-rule="evenodd" d="M337 250l6-18-16-12h20l6-18 6 18 20 1-16 11 6 18-16-11m30 15l11-16-11-16 19 6 12-14v19l18 7-19 6-1 19-11-16m-108 17l-1-20-18-5 18-7v-19l12 14 18-6-10 16 11 16-19-5m-43 45l-8-18-19 2 14-13-8-18 17 9 15-13-4 19 16 10-19 3m-19 61l-14-12-17 10 7-19-14-12h19l8-18 4 19 19 2-16 11m4 66l-18-5-11 16-1-20-18-6 17-7v-20l12 16 18-6-10 16m32 56l-19 3-3 19-9-18-19 2 14-14-8-18 17 10 14-13-3 19m49 42l-17 9 3 19-14-14-17 9 8-18-13-14 19 3 8-17 4 19m59 10l-9 17 13 14-19-3-10 16-3-19-18-4 17-9-2-19 14 14m63-14l-1 19 18 7-19 6-1 19-11-16-19 5 12-15-10-16 18 6m60-223l13 13 17-8-9 18 13 14-19-3-9 17-3-19-19-4 18-9m37 23l6 18 19 1-15 11 5 19-16-11-16 11 6-18-15-12h19m22 36l-2 19 17 9-19 4-3 19-9-17-20 3 13-14-8-17 17 8m3 43l-8 17 13 15-19-3-9 16-3-19-19-3 17-9-3-19 14 14m-11 43l-16 10 4 19-15-13-16 9 7-18-15-13 20 2 7-18 5 19"/>
</svg>
