<svg xmlns="http://www.w3.org/2000/svg" xmlns:xlink="http://www.w3.org/1999/xlink" viewBox="0 0 512 512">
    <path fill="#0021ad" d="M0 0h512v512H0z"/>
    <path fill="#1c8a42" d="M0 0h512v512z"/>
    <circle cx="256" cy="256" r="62" fill="#ffc639"/>
    <path fill="#1c8a42" d="M218 228c5 6 11 16 16 13 4 0 6 1 7 3a40 40 0 0 0 35-15l1-5c0-2 3-2 3-1v2c2 0 3-3 5-5v-2c1-2 2-2 3-1l1 2h5c0-2 1-1 1-1h2c-1 8 2 8 1 13l-1 7c0 3 7 3 5 4-2 2 0 4-3 5-10 4-12 8-12 8l-2 5c-2 3-4 1-5 3v8c1 2 0 4-1 7 0 6-3 7-3 9l-1 13-15-2c3-12 2-22 2-23-1-8-13-6-14-7l-3-2-4-1-2 1c-5 1-7-4-7-4 0-1-11 1-16-1-3 2-4 6-6 6l-4-2c0-4 3-5 3-5l6-4 1-7c1-2 3-1 4-2s2-6 1-7l-5-5c-2-4 1-7 2-7z"/>
    <path fill="#ffc639" d="M452 64c-2-11-28-35-46-50-5-3-8-1-7 3l6 12 3 7v5a25 25 0 0 1 7 12 52 52 0 0 0 12 16c7 5 2 17 2 24 0 5-3 4-6 4-21-20-42-20-61-26-8-1-8 3-5 5 13 14 25 23 41 31l9 5 9 8c7 5 8 9 8 10 0 8-5 15-6 18-2 9-7 11-7 11-41 27-62 34-127 26-1-1-7 0 0 3 17 5 57 14 97-5 9-6 16-4 23-8l30-17c9-4 33-10 39-14 6-1 13-2 14-7 2-2 5-1 7-5 5-1 4-3 4-3-1-4-6-5-9-8-5-1-9-2-12 0l-4 2-5-2c-13 0-11-41-16-57z"/>
    <path fill="#1c8a42" d="M543 218a3 2 16 1 1-6-2 3 2 16 0 1 6 2z"/>
    <g fill="#fff" transform="translate(-12 182) scale(.68267)">
        <path id="a" d="M188 191l-13-12-13 12 2-18-17-2 14-10-9-15 17 5 7-16 6 16 17-5-9 15 14 10-17 3 1 17z"/>
        <path d="M233 336l-13-10-14 10 5-15-14-10h17l5-16 6 15h16l-13 10 5 15z"/>
        <use width="100%" height="100%" x="3" y="269" xlink:href="#a"/>
        <use width="100%" height="100%" x="-112" y="123" xlink:href="#a"/>
        <use width="100%" height="100%" x="108" y="85" xlink:href="#a"/>
    </g>
</svg>
