<svg xmlns="http://www.w3.org/2000/svg" xmlns:xlink="http://www.w3.org/1999/xlink" viewBox="0 0 512 512">
    <path fill="#fff" d="M0 0h512v512H0z"/>
    <path id="a" fill="#435125" d="M243 425l-2-2a76 76 0 0 1-4-4l-5-7-1-1-6-2-5-2 2-3 9 4 7 1 12 9a122 122 0 0 0-7 7l1-1 1 1h-2zm-45-14c-6 1-12-1-17-4s0-2 2-3 5-3 10-3 12 2 20 6c0 0-6 4-15 4zm-25-5l-3-1a6 6 0 0 1-2-3 13 13 0 0 1 0-3 4 4 0 0 1 2-1c2 0 3 2 4 4v3l-1 1zm44-5c-15-2-21-8-24-12a13 13 0 0 1-2-8l2-1c4 1 14 3 24 21zm-31-3c-6 0-11-1-14-3a9 9 0 0 1-3-4 6 6 0 0 1-1-2 19 19 0 0 1 8-1c5 0 12 2 20 9a92 92 0 0 1-10 1zm-30-1c-7 0-16-2-22-8a67 67 0 0 1 15-2c6 0 11 1 14 4l2 2-1 2-8 2zm-22-11a3 3 0 0 1-2-1 5 5 0 0 1-1-2v-4a2 2 0 0 1 1 0l2 1a6 6 0 0 1 1 2l1 3-2 1zm50-1l-3-2a6 6 0 0 1-1-2 13 13 0 0 1 0-4 4 4 0 0 1 1 0c2 0 4 2 5 4v2l-2 2zm-24-1c-14-1-21-5-24-8a16 16 0 0 1-4-5 10 10 0 0 1-1-2h4c4 0 14 2 25 15zm14-2a33 33 0 0 1-20-10 21 21 0 0 1-4-7l3-1a16 16 0 0 1 1 0c5 1 15 3 20 18zm-55-5l-11-1-9-5a5 5 0 0 1-1-3l9-2a37 37 0 0 1 8 1 23 23 0 0 1 14 9l-10 1zm25-9l-3-1a6 6 0 0 1-1-3 12 12 0 0 1 0-3 4 4 0 0 1 1-1c2 0 4 2 5 4v3l-2 1zm-19-3l-10-4c-5-3-11-8-12-16s1 0 2 0 4 0 8 3 8 9 12 17zm12 0l-8-5a51 51 0 0 1-14-20l2-1a4 4 0 0 1 1 0c2 0 5 1 9 5a55 55 0 0 1 10 21zm-32-1c-4 0-5-2-6-3a7 7 0 0 1 0-3 9 9 0 0 1 2-1c3 0 6 2 7 4v2l-3 1zm-9-12h-9c-4-1-6-4-7-7a20 20 0 0 1-2-5c12 0 17 4 19 6a10 10 0 0 1 3 6h-4zm12-11a46 46 0 0 1-3-4l-2-6a85 85 0 0 0-1-7v-5s7 2 7 9l-1 13zm-9-1l-10-4a41 41 0 0 1-10-8c-1-2-3-5-3-10a37 37 0 0 1 0-6 4 4 0 0 1 1 0l6 2a42 42 0 0 1 5 5 85 85 0 0 1 6 7 94 94 0 0 1 6 12v2a1 1 0 0 1-1 0z"/>
    <use width="100%" height="100%" transform="matrix(-1 0 0 1 463 0)" xlink:href="#a"/>
    <path fill="#d47600" d="M468 82h-2v1l-3-1-2 1-4 3-2 1-1-1-1 1v1l-1 1-1 1h-3l-3 2-4-1h-1l-4 4h-5v1l-2 1h-3l-1 1-1 3-2 1h-2v2l-1 1h-2l-1 2h-4l-2 1h-3l-1 2h-1l-1 1h-2l-1 1-1-1h-4l-1-1h-1l-1 2-1 1-2 1v1l-2 2-4 5-3 1-4 1-2 2-7 4-10 5-2 1h-3l-6 2-4 1h-1l-1 1-6 2-3-1-2 1h-10l-4 2-7 3-2 2-4 2-4 1v-1h-2l-3 1h-2l-1-1h-1l-6 3h-8l-3 2h-5l-3 1-2-1-10 1-4-1-3 1-3-2h-6l-1-1-3-1-1 1h-1l-2-1h-1l-2 1h-1l-1-1h-2l-2-2-8 2-2-1-7-2h-1l-2 1-2 1h-7l-3-2h-5l-5-2-6-4-4-2h-1v3l1 2v5l1 1 1 2v17l-1 1v3l-1 4-3 9-1 1-2 2-5 3-3 2h-6l-2-1h-2l-3-2-3-1-3-2-1-1h-2l-2-1h-5l-3-2h-4l-2 1h-4l-1 2h-3l-1 1h-1l-1 1h-2l-1-1h-3v3l-2 2-2 2-1 1-3 7-2 3-1 1-2 2-1 2-5 3-4 1-3 1h-5l-3-1-3-2-3-3-5-5h-1l-1-1h-2v1l-1 1v8l4 6 1 3 1 1 1 1 1 4-1 2 1 2h-2v2l4 4v2l-1 2-1 2v1l2 2 2 2 2 4 1 1 1-1 1 1h1l1 1 1 1 1 1v3l2 4v3l1 1v5l1 1h2l2 1 1 3h3l5 5h1l1 1 1 1 2-1h2l2 1h2l4 1 2 1 3 2 2 1 1 1 1 1 2 1h2l2 1 5 2h2l3 1 1 1h1l2-2h5l2-1v-1h2l5-1h1l4-1h5l5 1 1 1 1 1h2v2l2 2 2 3 1 4 1 2 1 2v1l-1 1v1h1l1-1 2 1h1l2-1 1-1 2 1h3l3 2h1l1-1v-1l-1-1-2-3-1-1-1-2v-7l1-2 1-2 3-2 4-3 2-1 3-2h1l7-2 3-1 21 2 1-1 1-2 3-1h4l1 1 2-1h1l3-2h3l3-3 4-1h1l3-2 3-2 2-1h2l5-1 1-2h2l2-2h2l1-2 1-1 1-1h10l1-4 2-1 3-5v-9l1-4 2-5 1-2 3-1 2-1h2l1-1h12l6 1 2 1 3 2 2 2 1 1h1l1 1 1-1 2-1 2-1 2-1 1-2 4-2h5l1-2h1l3 1h2l2 1 1-1h2l2 2h2l4 3h2l1-1v1h1l1-1h-1l-1-1-2-2 2-2-3-3v-1l-1-1-4-6-5-4-2-2h-1l-3-3-2-3v-1l-2-3-2-1-1-2-4-5-1-1h-2v-2h1l1-1-2-5v-2l1-7 1-1 2-5 2-2 1-3 2-2 1-2 3-1h2l2-1 3 1h6l2-1h2v-1l1-5 1-1 1-1 4-6 4-3 7-6 4-2 2-1 17-8 5-4 2-2 4-3 5-2 4-3 1-2 1-3h1l1-2v-1l3-2h1l13-7h2l1-1 4-1h1l1-2v-4l1-1 1-2v-1l2-1-1-1z"/>
</svg>
