<svg xmlns="http://www.w3.org/2000/svg" viewBox="0 0 512 512">
    <g fill-rule="evenodd">
        <path fill="#ffe800" d="M0 0h512v512H0z"/>
        <path fill="#00148e" d="M0 256h512v256H0z"/>
        <path fill="#da0010" d="M0 384h512v128H0z"/>
    </g>
    <g fill-rule="evenodd">
        <path d="M214 244l-55 58-1-1 55-58 1 1zm38 10l-72 75-1-1 71-76 2 2z"/>
        <path fill="gray" stroke="#000" stroke-width="4" d="M478 60v89l18 88 18-88V60h-36z" transform="matrix(-.052 -.05 -.067 .068 210 349)"/>
        <path fill="gray" stroke="#000" stroke-width="4" d="M478 60v89l18 88 18-88V60h-36z" transform="matrix(-.052 -.05 -.067 .068 192 319)"/>
    </g>
    <path fill="#ffdf00" fill-rule="evenodd" stroke="#000" d="M301 273s-18 336 53 336 107-35 107-35l-1-185-159-116z" transform="matrix(.34 0 0 .486 65 -20)"/>
    <path fill="#0000c4" fill-rule="evenodd" stroke="#000" d="M345 304c0 18-8 270 27 270s89-18 89-18l-1-167-115-85z" transform="matrix(.34 0 0 .486 65 -20)"/>
    <path fill="#e10000" fill-rule="evenodd" stroke="#000" d="M368 321c0 18 4 218 40 218h53l-1-150-92-68z" transform="matrix(.34 0 0 .486 65 -20)"/>
    <path fill-rule="evenodd" d="M166 112l54 58 1-1-54-58-1 1z"/>
    <path fill="#ffdf00" fill-rule="evenodd" stroke="#000" d="M301 273s-35 336 71 336c89 0 89-53 106-53l-18-124-159-159z" transform="matrix(.44 0 0 .465 17 17)"/>
    <g stroke="#000">
        <path fill="none" stroke-width="2" d="M270 155c1 0 28-94 119-147" transform="matrix(.29 -.02 -.038 .265 112 136)"/>
        <path fill="#005b00" fill-rule="evenodd" d="M421-20c0 18-4 31-11 45-6-18-9-27-9-45s7-35 12-49c3 12 8 31 8 49z" transform="matrix(.105 -.166 .22 .105 143 219)"/>
        <path fill="red" fill-rule="evenodd" d="M454-169c0 4-4 7-8 7s-9-3-9-7 4-8 9-8 8 4 8 8z" transform="matrix(.137 -.076 .067 .132 144 218)"/>
        <path fill="#005b00" fill-rule="evenodd" d="M421-20c0 18-4 31-11 45-6-18-9-27-9-45s7-35 12-49c3 12 8 31 8 49z" transform="matrix(.133 .09 -.096 .25 147 97)"/>
        <path fill="#005b00" fill-rule="evenodd" d="M421-20c0 18-4 31-11 45-6-18-9-27-9-45s7-35 12-49c3 12 8 31 8 49z" transform="matrix(.132 -.023 -.023 .245 145 145)"/>
        <path fill="#005b00" fill-rule="evenodd" d="M421-20c0 18-4 31-11 45-6-18-9-27-9-45s7-35 12-49c3 12 8 31 8 49z" transform="matrix(.048 .19 -.13 .146 182 59)"/>
        <path fill="#005b00" fill-rule="evenodd" d="M421-20c0 18-4 31-11 45-6-18-9-27-9-45s7-35 12-49c3 12 8 31 8 49z" transform="matrix(.156 -.14 .14 .178 123 207)"/>
        <path fill="#005b00" fill-rule="evenodd" d="M421-20c0 18-4 31-11 45-6-18-9-27-9-45s7-35 12-49c3 12 8 31 8 49z" transform="matrix(.164 -.17 .19 .153 112 238)"/>
        <path fill="#005b00" fill-rule="evenodd" d="M421-20c0 18-4 31-11 45-6-18-9-27-9-45s7-35 12-49c3 12 8 31 8 49z" transform="matrix(.194 .072 -.145 .24 109 136)"/>
        <path fill="#005b00" fill-rule="evenodd" d="M421-20c0 18-4 31-11 45-6-18-9-27-9-45s7-35 12-49c3 12 8 31 8 49z" transform="matrix(.114 .158 -.242 .167 145 103)"/>
        <path fill="#005b00" fill-rule="evenodd" d="M421-20c0 18-4 31-11 45-6-18-9-27-9-45s7-35 12-49c3 12 8 31 8 49z" transform="matrix(.06 .066 -.102 .123 199 102)"/>
        <path fill="#005b00" fill-rule="evenodd" d="M421-20c0 18-4 31-11 45-6-18-9-27-9-45s7-35 12-49c3 12 8 31 8 49z" transform="matrix(.08 .004 -.06 .13 190 128)"/>
        <path fill="#005b00" fill-rule="evenodd" d="M421-20c0 18-4 31-11 45-6-18-9-27-9-45s7-35 12-49c3 12 8 31 8 49z" transform="matrix(-.007 .11 -.103 .062 227 86)"/>
        <path fill="#005b00" fill-rule="evenodd" d="M421-20c0 18-4 31-11 45-6-18-9-27-9-45s7-35 12-49c3 12 8 31 8 49z" transform="matrix(.05 .087 -.19 .115 177 112)"/>
        <path fill="#005b00" fill-rule="evenodd" d="M421-20c0 18-4 31-11 45-6-18-9-27-9-45s7-35 12-49c3 12 8 31 8 49z" transform="matrix(.098 .168 -.252 .15 166 78)"/>
        <path fill="none" stroke-width="2" d="M270 155c1 0 28-94 119-147" transform="matrix(.266 -.148 .107 .21 94 197)"/>
        <path fill="red" fill-rule="evenodd" d="M454-169c0 4-4 7-8 7s-9-3-9-7 4-8 9-8 8 4 8 8z" transform="matrix(.137 -.076 .067 .132 161 194)"/>
        <path fill="red" fill-rule="evenodd" d="M454-169c0 4-4 7-8 7s-9-3-9-7 4-8 9-8 8 4 8 8z" transform="matrix(.137 -.076 .067 .132 169 189)"/>
        <path fill="red" fill-rule="evenodd" d="M454-169c0 4-4 7-8 7s-9-3-9-7 4-8 9-8 8 4 8 8z" transform="matrix(.14 -.08 .05 .1 136 200)"/>
        <path fill="red" fill-rule="evenodd" d="M454-169c0 4-4 7-8 7s-9-3-9-7 4-8 9-8 8 4 8 8z" transform="matrix(.14 -.08 .05 .1 138 199)"/>
        <path fill="red" fill-rule="evenodd" d="M454-169c0 4-4 7-8 7s-9-3-9-7 4-8 9-8 8 4 8 8z" transform="matrix(.14 -.08 .05 .1 137 201)"/>
        <path fill="red" fill-rule="evenodd" d="M454-169c0 4-4 7-8 7s-9-3-9-7 4-8 9-8 8 4 8 8z" transform="matrix(.152 -.084 .074 .147 145 211)"/>
        <path fill="red" fill-rule="evenodd" d="M454-169c0 4-4 7-8 7s-9-3-9-7 4-8 9-8 8 4 8 8z" transform="matrix(.152 -.084 .074 .147 147 209)"/>
        <path fill="red" fill-rule="evenodd" d="M454-169c0 4-4 7-8 7s-9-3-9-7 4-8 9-8 8 4 8 8z" transform="matrix(.152 -.084 .074 .147 147 210)"/>
    </g>
    <path fill="#0000c4" fill-rule="evenodd" stroke="#000" d="M337 308c0 18-36 213 53 266 35 18 88-18 88 0l-17-142-124-124z" transform="matrix(.44 0 0 .465 17 17)"/>
    <path fill="#e10000" fill-rule="evenodd" stroke="#000" d="M372 344c0 17-18 159 36 195 35 35 124 25 124 25l-71-132-89-88z" transform="matrix(.44 0 0 .465 17 17)"/>
    <path fill-rule="evenodd" d="M149 144l71 75 2-1-72-75-1 1z"/>
    <path fill="#cececc" fill-rule="evenodd" stroke="#000" d="M461 184l17 36v17c0-1 0 18-17 18s-18-35-18-35-18 35-18 71 18 53 18 53-3-37 18-36c20 2 17 18 17 18v35h18V220l18-36-27-53-26 53z" transform="matrix(.102 -.107 .08 .082 75 170)"/>
    <path fill="#cececc" fill-rule="evenodd" stroke="#000" d="M558 96l-27 71 18 53-35-18 35 53v36h18v-36l36-53-36 18 18-54-27-70z" transform="matrix(.08 -.12 .105 .07 96 163)"/>
    <path fill="#e10000" fill-rule="evenodd" stroke="#000" d="M423 137c0 2-2 4-5 4s-4-2-4-4 2-4 4-4 4 2 4 4zm-7 8c0 36 21 188 23 191 0 5-5 7-7 1-7-17-21-160-21-193-1-14 3-15 8-15 4 1 8 4 8 8 0 5-6 9-11 8z" transform="matrix(.303 0 0 .234 43 77)"/>
    <path fill="#0000c4" fill-rule="evenodd" stroke="#000" d="M423 137c0 2-2 4-5 4s-4-2-4-4 2-4 4-4 4 2 4 4zm-7 8c32 61 49 167 51 170 0 5-5 7-7 1-3-3-13-100-50-172 0-14 4-15 9-14 3 0 8 3 8 7 0 5-6 9-11 8z" transform="matrix(.285 .07 -.114 .22 67 54)"/>
    <path fill="#e10000" fill-rule="evenodd" stroke="#000" d="M423 137c0 2-2 4-5 4s-4-2-4-4 2-4 4-4 4 2 4 4zm-7 8c0 36 21 188 23 191 0 5-5 7-7 1-7-17-21-160-21-193-1-14 3-15 8-15 4 1 8 4 8 8 0 5-6 9-11 8z" transform="matrix(.387 0 0 .38 -9 87)"/>
    <path fill="#0000c4" fill-rule="evenodd" stroke="#000" d="M423 137c0 2-2 4-5 4s-4-2-4-4 2-4 4-4 4 2 4 4zm-7 8c32 61 49 167 51 170 0 5-5 7-7 1-3-3-13-100-50-172 0-14 4-15 9-14 3 0 8 3 8 7 0 5-6 9-11 8z" transform="matrix(.365 .112 -.145 .36 23 49)"/>
    <g fill-rule="evenodd">
        <path d="M290 244l54 58 1-1-54-58-1 1zm-38 10l71 75 1-1-71-76-2 2z"/>
        <path fill="gray" stroke="#000" stroke-width="4" d="M478 60v89l18 88 18-88V60h-36z" transform="matrix(.052 -.05 .067 .068 293 349)"/>
        <path fill="gray" stroke="#000" stroke-width="4" d="M478 60v89l18 88 18-88V60h-36z" transform="matrix(.052 -.05 .067 .068 312 319)"/>
    </g>
    <g fill-rule="evenodd">
        <path fill="#ffdf00" stroke="#000" d="M301 273s-18 336 53 336 107-35 107-35l-1-185-159-116z" transform="matrix(-.34 0 0 .486 439 -20)"/>
        <path fill="#0000c4" stroke="#000" d="M345 304c0 18-8 270 27 270s89-18 89-18l-1-167-115-85z" transform="matrix(-.34 0 0 .486 439 -20)"/>
        <path fill="#e10000" stroke="#000" d="M368 321c0 18 4 218 40 218h53l-1-150-92-68z" transform="matrix(-.34 0 0 .486 439 -20)"/>
        <path d="M337 112l-54 58-1-1 55-58 1 1z"/>
        <g fill="#005b00" stroke="#000">
            <path d="M428-17s82 91 111 154c30 64 55 156 55 156s2-86-37-163C505 33 426-12 428-17z" transform="matrix(.124 -.056 .06 .266 244 184)"/>
            <path d="M428-17s82 91 111 154c30 64 55 156 55 156s2-86-37-163C505 33 426-12 428-17z" transform="matrix(.148 -.04 .052 .294 230 162)"/>
            <path d="M428-17s82 91 111 154c30 64 55 156 55 156s2-86-37-163C505 33 426-12 428-17z" transform="matrix(.175 .107 -.022 .3 234 77)"/>
            <path d="M428-17s82 91 111 154c30 64 55 156 55 156s2-86-37-163C505 33 426-12 428-17z" transform="matrix(.186 .023 .012 .333 217 111)"/>
            <path d="M428-17s82 91 111 154c30 64 55 156 55 156s2-86-37-163C505 33 426-12 428-17z" transform="matrix(.136 .126 -.028 .268 259 75)"/>
            <path d="M428-17s82 91 111 154c30 64 55 156 55 156s2-86-37-163C505 33 426-12 428-17z" transform="matrix(.17 0 .026 .304 222 132)"/>
            <path d="M428-17s82 91 111 154c30 64 55 156 55 156s2-86-37-163C505 33 426-12 428-17z" transform="matrix(.15 -.054 .05 .29 229 173)"/>
            <path d="M428-17s82 91 111 154c30 64 55 156 55 156s2-86-37-163C505 33 426-12 428-17z" transform="matrix(.15 -.025 .038 .298 231 151)"/>
            <path d="M428-17s82 91 111 154c30 64 55 156 55 156s2-86-37-163C505 33 426-12 428-17z" transform="matrix(.168 .115 -.038 .285 240 74)"/>
            <path d="M428-17s82 91 111 154c30 64 55 156 55 156s2-86-37-163C505 33 426-12 428-17z" transform="matrix(.184 .04 -.004 .333 221 98)"/>
            <path d="M428-17s82 91 111 154c30 64 55 156 55 156s2-86-37-163C505 33 426-12 428-17z" transform="matrix(.128 .128 -.043 .25 266 78)"/>
            <path d="M428-17s82 91 111 154c30 64 55 156 55 156s2-86-37-163C505 33 426-12 428-17z" transform="matrix(.18 .01 .006 .31 219 121)"/>
        </g>
        <path fill="#ffdf00" stroke="#000" d="M301 273s-35 336 71 336c89 0 89-53 106-53l-18-124-159-159z" transform="matrix(-.44 0 0 .465 486 17)"/>
        <path fill="#0000c4" stroke="#000" d="M337 308c0 18-36 213 53 266 35 18 88-18 88 0l-17-142-124-124z" transform="matrix(-.44 0 0 .465 486 17)"/>
        <path fill="#e10000" stroke="#000" d="M372 344c0 17-18 159 36 195 35 35 124 25 124 25l-71-132-89-88z" transform="matrix(-.44 0 0 .465 486 17)"/>
        <path d="M354 144l-71 75-1-1 71-75 1 1z"/>
        <path fill="#cececc" stroke="#000" d="M461 184l17 36v17c0-1 0 18-17 18s-18-35-18-35-18 35-18 71 18 53 18 53-3-37 18-36c20 2 17 18 17 18v35h18V220l18-36-27-53-26 53z" transform="matrix(-.102 -.107 -.08 .082 428 170)"/>
        <path fill="#cececc" stroke="#000" d="M558 96l-27 71 18 53-35-18 35 53v36h18v-36l36-53-36 18 18-54-27-70z" transform="matrix(-.08 -.12 -.105 .07 407 163)"/>
        <path fill="#e10000" stroke="#000" d="M423 137c0 2-2 4-5 4s-4-2-4-4 2-4 4-4 4 2 4 4zm-7 8c0 36 21 188 23 191 0 5-5 7-7 1-7-17-21-160-21-193-1-14 3-15 8-15 4 1 8 4 8 8 0 5-6 9-11 8z" transform="matrix(-.303 0 0 .234 460 77)"/>
        <path fill="#0000c4" stroke="#000" d="M423 137c0 2-2 4-5 4s-4-2-4-4 2-4 4-4 4 2 4 4zm-7 8c32 61 49 167 51 170 0 5-5 7-7 1-3-3-13-100-50-172 0-14 4-15 9-14 3 0 8 3 8 7 0 5-6 9-11 8z" transform="matrix(-.285 .07 .114 .22 436 54)"/>
        <path fill="#e10000" stroke="#000" d="M423 137c0 2-2 4-5 4s-4-2-4-4 2-4 4-4 4 2 4 4zm-7 8c0 36 21 188 23 191 0 5-5 7-7 1-7-17-21-160-21-193-1-14 3-15 8-15 4 1 8 4 8 8 0 5-6 9-11 8z" transform="matrix(-.387 0 0 .38 512 87)"/>
        <path fill="#0000c4" stroke="#000" d="M423 137c0 2-2 4-5 4s-4-2-4-4 2-4 4-4 4 2 4 4zm-7 8c32 61 49 167 51 170 0 5-5 7-7 1-3-3-13-100-50-172 0-14 4-15 9-14 3 0 8 3 8 7 0 5-6 9-11 8z" transform="matrix(-.365 .112 .145 .36 481 49)"/>
    </g>
    <g fill-rule="evenodd" stroke="#000">
        <path fill="#e10000" d="M478 698a53 53 0 0 0 53 0V556h-35c18 53 18 107-18 142z" transform="matrix(.44 0 0 .465 17 17)"/>
        <path fill="#0000c4" d="M514 610c0 88-43 108-43 126 18 0 30-9 43-20 17-18 19-108 17-107h-17z" transform="matrix(.265 0 0 .524 103 -43)"/>
        <path fill="#0000c4" d="M478 610c-1 51-44 99-36 110 9 9 36-22 72-4 17-18 19-108 17-107h-53z" transform="matrix(.265 0 0 .524 103 -43)"/>
        <path fill="#ffdf00" d="M514 610c0 88-41 94-41 118 18 0 41-13 41-12 17-18 19-108 17-107h-17z" transform="matrix(.265 0 0 .35 95 63)"/>
        <path fill="#ffdf00" d="M478 610c-1 51-43 95-35 106 9 9 35-18 71 0 17-18 19-108 17-107h-53z" transform="matrix(.265 0 0 .35 95 63)"/>
        <path fill="#e10000" d="M478 698a53 53 0 0 0 53 0V556h-35c18 53 18 107-18 142z" transform="matrix(-.44 0 0 .465 486 17)"/>
        <path fill="#0000c4" d="M514 610c0 88-43 108-43 126 18 0 30-9 43-20 17-18 19-108 17-107h-17z" transform="matrix(-.265 0 0 .524 400 -43)"/>
        <path fill="#0000c4" d="M478 610c-1 51-44 99-36 110 9 9 36-22 72-4 17-18 19-108 17-107h-53z" transform="matrix(-.265 0 0 .524 400 -43)"/>
        <path fill="#ffdf00" d="M514 610c0 88-41 94-41 118 18 0 41-13 41-12 17-18 19-108 17-107h-17z" transform="matrix(-.265 0 0 .35 408 63)"/>
        <path fill="#ffdf00" d="M478 610c-1 51-43 95-35 106 9 9 35-18 71 0 17-18 19-108 17-107h-53z" transform="matrix(-.265 0 0 .35 408 63)"/>
    </g>
    <g fill-rule="evenodd" stroke="#000">
        <path fill="#908f8a" stroke-width="5" d="M199 78l-90 35 90 36 44-18 23 18 22 35 23-35 22-18h1202V96H333l-22-18c0-18 4-35 22-35h90c0-18-45-54-135-54-89 0-134 36-134 54h89c18 0 23 17 23 35l-23 18-44-18z" transform="matrix(.09 0 0 .17 174 270)"/>
        <path fill="#b74d00" stroke-width="2" d="M204 96h337v17H204zm0-18h337v18H204zm0-18h337v18H204zm0-17h337v17H204zm0-18h337v18H204zm0-18h337v18H204zm0-18h337V7H204z" transform="matrix(.21 0 0 .207 173 277)"/>
        <path fill="#908f8a" stroke-width="3" d="M423 60l138 124h20L443 60h-20z" transform="matrix(.19 0 0 .207 140 263)"/>
        <path fill="#908f8a" stroke-width="3" d="M423 60l138 124h20L443 60h-20z" transform="matrix(.19 0 0 -.207 140 313)"/>
        <path fill="#908f8a" stroke-width="3" d="M425 60v124h18V60h-18z" transform="matrix(.21 0 0 .207 131 263)"/>
        <path fill="#908f8a" stroke-width="3" d="M423 60l138 124h20L443 60h-20z" transform="matrix(.19 0 0 .207 173 263)"/>
        <path fill="#908f8a" stroke-width="3" d="M423 60l138 124h20L443 60h-20z" transform="matrix(.19 0 0 -.207 173 313)"/>
        <path fill="#908f8a" stroke-width="3" d="M425 60v124h18V60h-18z" transform="matrix(.21 0 0 .207 190 263)"/>
        <path fill="#908f8a" stroke-width="3" d="M425 60v124h18V60h-18z" transform="matrix(.21 0 0 .207 164 263)"/>
        <path fill="#908f8a" stroke-width="3" d="M425 60v124h18V60h-18z" transform="matrix(.21 0 0 .207 157 263)"/>
    </g>
    <g fill="#ffdf00" fill-rule="evenodd" stroke="#000">
        <path d="M656 397c0 88-56 159-124 159s-124-71-124-159 55-160 124-160 124 72 124 160zm-18 0c0 78-48 142-107 142-58 0-106-64-106-142s48-142 106-142c59 0 107 64 107 142z" transform="matrix(.44 0 0 .465 17 17)"/>
        <path d="M580 250a101 101 0 0 0-97 0l7 16a83 83 0 0 1 83 0l7-16z" transform="matrix(.44 0 0 .465 17 17)"/>
        <path d="M580 250a101 101 0 0 0-97 0l7 16a83 83 0 0 1 83 0l7-16z" transform="matrix(.44 0 0 -.465 17 386)"/>
    </g>
    <path fill="#a7cfff" fill-rule="evenodd" d="M298 202c0 36-21 65-47 65s-47-29-47-66c0-36 21-65 47-65s47 29 47 65z"/>
    <path fill="#afff7b" fill-rule="evenodd" stroke="#000" d="M638 397c1 26-5 39-12 67-2 3-11-6-17-11s-7 4-14-3-11 2-16-4-51-7-51-8c4-2 28 0 24-11-4-12-31 0-35-15-2-15-53-16-57-20 2 6 40 9 39 23-1 6-38 8-41 13-3 6 29-2 30 6 0 3-5 0-22 5-8 2 16 10 7 14-9 5-28 7-28 8 3 9 45 20 41 21l-30 15a168 168 0 0 1-31-100c32-11 25-14 84-14s78 2 129 14z" transform="matrix(.44 0 0 .465 17 17)"/>
    <path fill="#fff" fill-rule="evenodd" stroke="#000" d="M638 397l-25 3-27-3c-9 0-19 4-28 4-10 0-18-4-27-4s-19 3-28 3-18-3-27-3-18 3-26 3-17-3-25-3c0-20 3-38 9-55 27 2 11-16 27-16a33 33 0 0 1 25 10c2 0 14-12 28-10 13 2 8 27 26 29 9 6 14 11 27 13 18 2 68-2 69 0a188 188 0 0 1 2 29z" transform="matrix(.44 0 0 .465 17 17)"/>
    <path fill-rule="evenodd" stroke="#000" d="M550 474c0-6 13-9 13-19s-12-9-12-17c0-4 10-7 15-8s8 8 8 9-4-4-8-4-13 1-13 2c1 4 15 8 14 19-1 12-12 15-12 18s5 13 5 13-10-7-10-13z" transform="matrix(.155 0 0 .363 174 70)"/>
    <path fill-rule="evenodd" stroke="#000" d="M550 474c0-6 13-9 13-19s-12-9-12-17c-1-4 12-7 16-7s10 8 10 9-5-5-9-5-14 1-14 2c0 4 14 8 13 19-1 12-12 15-12 18s5 13 5 13-10-7-10-13z" transform="matrix(-.155 0 0 .363 347 69)"/>
    <path fill-rule="evenodd" d="M261 225l-1 1-1-1 1-2 1 1zm14 5h1v15h-1zm4-1v15zM276 237h3z"/>
    <path fill="#b74d00" fill-rule="evenodd" stroke="#000" d="M497 478s26 11 32 18 3 7 3 7l58 2c0-3 10-3 13-11l2-10-18 5 1-10h-16l-2 10-34-1 2-27-7 1-1 26c-1 0-32-8-33-10z" transform="matrix(.44 0 0 .465 15 18)"/>
    <path fill="#fede00" fill-rule="evenodd" stroke="#fede00" d="M441 316s37-11 92-10 92 13 91 13l-11-19c1 0-38-10-81-11s-81 8-80 9l-12 18z" transform="matrix(.44 0 0 .465 17 17)"/>
    <path fill="#38a9f9" fill-rule="evenodd" d="M241 153h10v6h-10zm-24 3l-3 6 12-1-1-6-8 1zm11-2l10-1 1 6-11 1zm37-1h-11v6h10zm22 4l3 7-11-2 2-6 6 1zm-9-2l-10-1-1 5 10 2z"/>
    <path fill="#ffdf00" fill-rule="evenodd" stroke="#000" d="M533 324l-3-14-7 12 2-14-11 8 8-12-14 3 12-7-14-3 14-3-12-7 14 3-8-12 11 8-3-13 8 11 3-13 2 13 8-11-3 13 11-8-7 12 13-3-11 7 13 3-13 3 11 7-13-3 7 12-11-8 3 14-8-12z" transform="matrix(.44 0 0 .465 17 17)"/>
    <path fill="#ffdf00" fill-rule="evenodd" stroke="#000" d="M547 294c0 9-7 17-15 17s-15-8-15-17 7-17 15-17 15 8 15 17z" transform="matrix(.43 0 0 .388 24 41)"/>
    <path fill-rule="evenodd" d="M252 153l-2 1-2-1h4zm5 0l-2 1-2-1h4z"/>
    <path fill="none" stroke="#000" d="M529 298l1 1 2 3 5-3" transform="matrix(.423 -.132 .125 .446 -10 93)"/>
    <path fill="none" stroke="#000" d="M528 304l1 1 3 2c4 0 8-1 10-4" transform="matrix(.44 0 0 .465 17 17)"/>
    <path fill="#b7e1ff" fill-rule="evenodd" d="M224 171s0 6-4 13c-5 8-4 5-4 5l1 4-3-4-4 4 3-6-1-2 3-1 4-8-13 9 18-14zm2 2l4 9a15 15 0 0 1 2 7l6 3-8-12 5 2-9-9zm0 16l5 6v4l-1-3-3 3 1-5-2 1 1-3-1-3zm-21 10l4-2-2 3-2-1zm49-16l9 6-6-3-3-3zm-17-12l13 11-5-3v3l-3-6-1 2-4-7zm3 17l4 7 3-1-7-6zm11-5l1 7 2 2-3-9z"/>
    <path fill="#984000" fill-rule="evenodd" d="M148 92s16-8 34-15a229 229 0 0 1 41-11c5 0 14 14 16 14 1 0 7-4 15-4s12 6 14 6h13c2 0-4-15 0-14 3 0 22 3 40 9l44 16s-42 6-53 4c-2 1 0 10-2 6l-19-3c-2 0-6 3-13 4a374 374 0 0 0-13 4l10 16-13 6s-7-18-10-18-5 12-9 12c-4-1-5-12-8-15s-19-4-25-6l-22-4c-5-2-10 4-13 4-2 0 3-5 1-6s-4 3-5 3l-19-4c-2-1 3-4 2-4h-6z"/>
    <path fill="gray" fill-rule="evenodd" stroke="#772600" stroke-width="4" d="M463-65c0 21-21 38-46 38s-46-17-46-38 21-38 46-38 46 17 46 38z" transform="matrix(.165 0 0 .2 185 98)"/>
    <path fill="#984000" fill-rule="evenodd" stroke="#772600" stroke-width="5" d="M285-60c6-7 15-17 36-17 5-1 5-11 17-11s8 10 17 13c8 3 76-3 76-3s7 5 7 11-5 12-7 12-68-5-73-3c-5 1-8 3-20 3s-15-12-23-12-17-1-30 7z" transform="matrix(.206 0 0 .24 165 101)"/>
    <path fill="none" stroke="#772600" stroke-width="4" d="M488-77h26l22 4h24l21-4c15 0 10-1 7-10-3-6-3-9-7-13-1-8-4-11-5-20-1-7-4-12-1-20 3 6 5 8 15 9 10 0 13-1 20 3 4 5 10 3 20 3 7 2 8 5 14 8 7 4 12 5 22 5l20 5c4 6 11 7 20 7 5 0 9 0 13-2h25c6 8 8 10 19 10 7 6 13 6 20 9h25c9 0 11 4 20 6a201 201 0 0 0 21 9 108 108 0 0 0 22 1c6 4 13 4 18 7l22 5c9 1 12 4 20 5 6 2-2 4-7 5-10 0-10-4-20-5-5-3-13-2-20-5h-2c7 4 13 7 10 13l-23-1c-8-2-12-4-21-4 9-2 11 1 18 4 2 8-3 5-12 5-7-3-12-6-21-7h-20c9 0 12 4 18 8 0 3 0 3-5 4-5-5-12-6-20-9-8 0-16-1-23-3-5 0-5-6 6 3 7 4 9 7 9 10-9-2-13-5-19-8a61 61 0 0 0-23-3c-9-3 1-4 7 5 12 9-2 5-7 3l-22-7-15-3c9 1 12 4 15 10 9 6 0 3-8 2-5-5-12-7-15-12-8-4-9-9-3 2l1 11c-6-6-5-8-11-8-5-3-12-6-15-10-7-1-7-3-14-5l17 18c8 5 10 8 15 12 2 4 8 7 2 2-7-7-13-9-24-14l-15-11c-9-3-5-5 0 5l17 16a68 68 0 0 0 15 14c2 2 6 2 0 3-5-5-12-7-18-12-9-2-12-6-19-11-4-6-10-11-15-15-9-4 2 3 5 8l7 17c3 5-8-2-12-4a57 57 0 0 0-21-8 298 298 0 0 0-20-3c-8-2 4 5 8 11 9 8-8 2-13 0a125 125 0 0 0-25-1c-11 0-3 2 0 6 3 3 5 8 5 10-7-1-13-3-22-3-7 2-15 2-23 2 0 4 1 0 5 5 6 2 9 5 8 8h-48c-5 1 1 1 5 7-2 5-5 3-12 3l-18-5c-5 0-4-1-8-2 14 10 7 8 15 15 1 1 4 2 1 2M371 73l-6-10c-3-6-6-2-9-11V32c-6-5-9-7-15-15-8-7 2-19 3-28-7-2-11 11-22 16-8 5-1-11-5-21-3-14-11 7-14 13-5 3-7 8-15 1 0-5 5-19 3-22-8 4-18 15-26 17-8-1 1-15 1-24-3-1-14 26-19 26s-3-26-5-26c-4 5-11 16-16 19-9-1 2-17 3-23 2-7-9 14-14 15-4 4-12 6-15 7 3-7 19-19 18-23-10 1-24 13-32 14l-13 2c1-8 20-15 23-20-10 2-28 10-33 17-6 1-14 3-20 0 1-8 15-22 18-27-8 4-13 6-22 8-1 2-6 5-5 2 3-7 7-10 10-15-7 1-10 6-18 10-5 0-20 15-24 15a69 69 0 0 1-29 13c-7 2-11 3-15 7 4-7 10-13 15-17a30 30 0 0 1 15-13c2-2 7-3 2-3L73-32c-5 4-11 7-13 5 3-7 7-9 12-15 8-5 0-2-7 0-4 4-12 7-18 10-7 2-12 6-20 9l3-7c7-7 9-10 17-12 2-3 4-1-2-1L28-33 7-32c-11 2-10 2 0-3 5-5 9-4 10-10-7 5-14 8-22 12l-15 1c3-3 5-7 10-10 7-7-4-1-7 0h-25c-4 6 0 0 4-3 4-2 8-5 8-7-5 5-11 7-15 10-5 2-10 2-10 4 4-6 10-9 13-14 6-1 11-3 12-5h-23 16l24-1c13-3-2-4-9-4-1-2 4-4 10-5l17-6a45 45 0 0 0 13-7L8-78l22-2a239 239 0 0 0 22-8c3-4 4-4-4-4l22-5a94 94 0 0 0 20-6l13-10c7 4 7 5 19 5 9 0 15-3 20-7 7-2 8-5 16-6a134 134 0 0 0 23 1c9-2 16-6 22-10l17-8 18 7c8-2 12-5 18-7a28 28 0 0 1 15-8c10-5 9 1 14 6s11 3 18 5c4 6 7 10 12 13 4 5 8 6 16 7 3 4 1 7 7 8 2 3 7 4 10 5" transform="matrix(.206 0 0 .24 165 104)"/>
    <path fill="none" stroke="#782600" stroke-width="3" d="M469 31v1l1 3c1 4 0 3-2 6l-1 11-4 10c-2 3-9 4-8 9-4 1-5-2-5-6l-5-10-5-10-6-9c-1-2-1-5-3-6-2-4-4-4-9-4l-8 3-11 2c-1 1 2 2 2 5l-4 7-4 8c1 2 0 5-2 7 0 4-2 6-3 9l-6 7c-2 3-3 3-8 3-4-1-4-3-8-5l-1-1" transform="matrix(.206 0 0 .24 165 104)"/>
    <path fill="#812e00" fill-rule="evenodd" d="M242 119s0 4-3 7l-7 5 7-2-4 6 8-6 3 6c1-1-1-8-1-9v-7h-3zm16 0s-1 4-3 7-8 5-8 5l8-2-4 6 7-6 3 6-1-9v-7h-2zm-22-36l-2 1-1-1 1-2 2 2z"/>
</svg>
