<svg xmlns="http://www.w3.org/2000/svg" viewBox="0 0 512 512">
    <path fill="#c60b1e" d="M0 0h512v512H0z"/>
    <path fill="#ffc400" d="M0 128h512v256H0z"/>
    <path fill="#ad1519" d="M172 228l-1-1a12 12 0 0 1-1-1h-1l-1-1v-2l2-2h1l1-1h3l1-1h7a41 41 0 0 0 4 2h2l1 1 1 1v1l-1 1v1l-1 1-1 1-9-1-7 1"/>
    <path fill="none" d="M172 228l-1-1a12 12 0 0 1-1-1h-1l-1-1v-2l2-2h1l1-1h3l1-1h7a41 41 0 0 0 4 2h2l1 1 1 1v1l-1 1v1l-1 1-1 1-9-1-7 1z"/>
    <path fill="#c8b100" d="M178 221c0-2 1-3 2-3l1 3-1 2-2-2"/>
    <path fill="none" d="M178 221c0-2 1-3 2-3l1 3-1 2-2-2z"/>
    <path fill="#c8b100" d="M179 221l1-2v4l-1-2"/>
    <path fill="none" d="M179 221l1-2v4l-1-2z"/>
    <path fill="#c8b100" d="M179 218l1-1 1 1-1 1a1 1 0 0 1-1-1"/>
    <path fill="#c8b100" d="M180 218h-1v-3h1v1h1v1h-1v1"/>
    <path fill="none" d="M180 218h-1v-3h1v1h1v1h-1v1"/>
    <path fill="#c8b100" d="M181 218h-3 1v-3h1v1h1v1h-1v1h1"/>
    <path fill="none" d="M181 218h-3 1v-3h1v1h1v1h-1v1h1"/>
    <path fill="none" d="M180 217a1 1 0 0 1 1 1l-1 1-1-1v-1"/>
    <path fill="#c8b100" d="M180 227h-5v-1l-1-1v-2l-3-2v-1c2-1 4 1 6 4l1 1h4v-1c2-3 4-5 6-4v1l-3 2v4h-5"/>
    <path fill="none" d="M180 227h-5v-1l-1-1v-2l-3-2v-1c2-1 4 1 6 4l1 1h4v-1c2-3 4-5 6-4v1l-3 2v4h-5z"/>
    <path fill="none" d="M171 221c1-1 3 1 5 3m12-3c-1-1-3 1-5 3"/>
    <path fill="#c8b100" d="M172 230a5 5 0 0 0 0-1l8-1 8 1h-1v1h-15"/>
    <path fill="none" d="M172 230a5 5 0 0 0 0-1l8-1 8 1h-1v1h-15"/>
    <path fill="#c8b100" d="M180 232a27 27 0 0 0 6-1h1l-1-1a26 26 0 0 0-7-1l-6 1-1 1h1l7 1"/>
    <path fill="none" d="M180 232a27 27 0 0 0 6-1h1l-1-1a26 26 0 0 0-7-1l-6 1-1 1h1l7 1z"/>
    <path fill="#c8b100" d="M188 227h-2l-1-1-2 1-1-1-1 1-2-1-1 1-1-1-1 1-2-1v1h-2v1a33 33 0 0 1 15 0l1-1"/>
    <path fill="none" d="M188 227h-2l-1-1-2 1-1-1-1 1-2-1-1 1-1-1-1 1-2-1v1h-2v1a33 33 0 0 1 15 0l1-1z"/>
    <path fill="#c8b100" d="M180 225a1 1 0 0 0 1 1h1v-1 1h1a1 1 0 0 0 1-1h1a1 1 0 0 0 0 1l1 1 1-1 1 1h1v-1l-1 2h-1v-1a2 2 0 0 1-1 0h-1a2 2 0 0 1-2 0 2 2 0 0 1-1-1 2 2 0 0 1-1 1l-1-1-2 1a2 2 0 0 1-1 0h-1a2 2 0 0 1-1 0h-2-1v1a2 2 0 0 1-1 0 4 4 0 0 1-1-2l1 1h1v-1l1 1 1-1a1 1 0 0 0 0-1h1l1 2 1-1v-1 1h1l1-1h1"/>
    <path fill="none" d="M180 225a1 1 0 0 0 1 1h1v-1 1h1a1 1 0 0 0 1-1h1a1 1 0 0 0 0 1l1 1 1-1 1 1h1v-1l-1 2h-1v-1a2 2 0 0 1-1 0h-1a2 2 0 0 1-2 0 2 2 0 0 1-1-1 2 2 0 0 1-1 1l-1-1-2 1a2 2 0 0 1-1 0h-1a2 2 0 0 1-1 0h-2-1v1a2 2 0 0 1-1 0 4 4 0 0 1-1-2l1 1h1v-1l1 1 1-1a1 1 0 0 0 0-1h1l1 2 1-1v-1 1h1l1-1h1z"/>
    <path fill="#c8b100" d="M180 228l-8 1-1-1h1l8-1 8 1-1 1-8-1"/>
    <path fill="none" d="M180 228l-8 1-1-1h1l8-1 8 1-1 1-8-1z"/>
    <path fill="#fff" d="M177 229v-1 1c1 0 0 0 0 0"/>
    <path fill="none" d="M177 229v-1 1c1 0 0 0 0 0z"/>
    <path fill="#ad1519" d="M180 229h-1-1l1-1h2v1h-1"/>
    <path fill="none" d="M180 229h-1-1l1-1h2v1h-1"/>
    <path fill="#058e6e" d="M175 229h-1l1-1 1 1h-1"/>
    <path fill="none" d="M175 229h-1l1-1 1 1h-1"/>
    <path fill="#ad1519" d="M172 230v-1h1l-1 1"/>
    <path fill="none" d="M172 230v-1h1l-1 1"/>
    <path fill="#fff" d="M182 229v-1l1 1h-1"/>
    <path fill="none" d="M182 229v-1l1 1h-1z"/>
    <path fill="#058e6e" d="M185 229h0l-1-1v1h1"/>
    <path fill="none" d="M185 229h0l-1-1v1h1"/>
    <path fill="#ad1519" d="M187 230v-1h-1l1 1"/>
    <path fill="none" d="M187 230v-1h-1l1 1"/>
    <path fill="#ad1519" d="M180 232l-7-1a27 27 0 0 1 7-1l6 1-6 1"/>
    <path fill="none" d="M180 232l-7-1a27 27 0 0 1 7-1l6 1-6 1z"/>
    <path fill="#c8b100" d="M187 226c1 0 0 0 0 0"/>
    <path fill="none" d="M187 226c1 0 0 0 0 0z"/>
    <path fill="#c8b100" d="M183 225h-1v0"/>
    <path fill="none" d="M183 225h-1v0z"/>
    <path fill="#c8b100" d="M177 225v1-1"/>
    <path fill="none" d="M177 225v1-1z"/>
    <path fill="#c8b100" d="M172 226"/>
    <path fill="none" d="M172 226z"/>
    <path fill="#c8b100" d="M180 222l-1 1v1l1 1v-2l-1-1"/>
    <path fill="none" d="M180 222l-1 1v1l1 1v-2l-1-1"/>
    <path fill="#c8b100" d="M178 225h1l1-1h-2v1"/>
    <path fill="none" d="M178 225h1l1-1h-2v1"/>
    <path fill="#c8b100" d="M182 225h-2v-1h1v1"/>
    <path fill="none" d="M182 225h-2v-1h1v1"/>
    <path fill="#c8b100" d="M174 223l-1 1 1 1h1v-2h-1"/>
    <path fill="none" d="M174 223l-1 1 1 1h1v-2h-1"/>
    <path fill="#c8b100" d="M172 225l1 1 1-1h-2"/>
    <path fill="none" d="M172 225l1 1 1-1h-2"/>
    <path fill="#c8b100" d="M176 225h-2l2-1v1"/>
    <path fill="none" d="M176 225h-2l2-1v1"/>
    <path fill="#c8b100" d="M171 226h-2l1-1h1"/>
    <path fill="none" d="M171 226h-2l1-1h1"/>
    <path fill="#c8b100" d="M174 225v-1l1 1a1 1 0 0 1-1 0"/>
    <path fill="none" d="M174 225v-1l1 1a1 1 0 0 1-1 0z"/>
    <path fill="#c8b100" d="M185 223l1 1-1 1-1-2h1"/>
    <path fill="none" d="M185 223l1 1-1 1-1-2h1"/>
    <path fill="#c8b100" d="M187 225l-1 1-1-1h2"/>
    <path fill="none" d="M187 225l-1 1-1-1h2"/>
    <path fill="#c8b100" d="M183 225h2l-1-1-1 1"/>
    <path fill="none" d="M183 225h2l-1-1-1 1"/>
    <path fill="#c8b100" d="M188 226h2l-1-1h-1"/>
    <path fill="none" d="M188 226h2l-1-1h-1"/>
    <path fill="#c8b100" d="M179 225a1 1 0 0 1 1-1v1a1 1 0 0 1-1 0"/>
    <path fill="none" d="M179 225a1 1 0 0 1 1-1v1a1 1 0 0 1-1 0z"/>
    <path fill="#c8b100" d="M184 225a1 1 0 0 1 1-1 1 1 0 0 1 0 1 1 1 0 0 1-1 0"/>
    <path fill="none" d="M184 225a1 1 0 0 1 1-1 1 1 0 0 1 0 1 1 1 0 0 1-1 0z"/>
    <path fill="#c8b100" d="M169 226h-1v-1h1v1"/>
    <path fill="none" d="M169 226h-1v-1h1v1z"/>
    <path fill="#c8b100" d="M169 226h1v1h-1v-1"/>
    <path fill="none" d="M169 226h1v1h-1v-1z"/>
    <path fill="#c8b100" d="M190 226h1v-1a1 1 0 0 0-1 0v1"/>
    <path fill="none" d="M190 226h1v-1a1 1 0 0 0-1 0v1z"/>
    <path fill="#c8b100" d="M190 226h-1v1h1v-1"/>
    <path fill="none" d="M190 226h-1v1h1v-1z"/>
    <path fill="#c8b100" d="M168 238h23v-6h-23v6z"/>
    <path fill="none" d="M168 238h23v-6h-23v6z"/>
    <path fill="#c8b100" d="M171 242h18l-1-1 1-2a2 2 0 0 1-1 0h-17l1 2-1 1"/>
    <path fill="none" d="M171 242h18l-1-1 1-2a2 2 0 0 1-1 0h-17l1 2-1 1z"/>
    <path fill="#c8b100" d="M171 242h17l1 1-1 1h-17l-1-1 1-1"/>
    <path fill="none" d="M171 242h17l1 1-1 1h-17l-1-1 1-1z"/>
    <path fill="#c8b100" d="M171 238h17l1 1h-19l1-1"/>
    <path fill="none" d="M171 238h17l1 1h-19l1-1z"/>
    <path fill="#005bbf" d="M196 339a9 9 0 0 1-4-1 9 9 0 0 0-4-1l-4 1a9 9 0 0 1-4 1 9 9 0 0 1-4-1 9 9 0 0 0-4-1 9 9 0 0 0-4 1l-4 1v2a9 9 0 0 0 4-1 9 9 0 0 1 4-1 9 9 0 0 1 4 1 9 9 0 0 0 4 1 9 9 0 0 0 4-1 9 9 0 0 1 4-1l4 1a9 9 0 0 0 4 1v-2"/>
    <path fill="none" d="M196 339a9 9 0 0 1-4-1 9 9 0 0 0-4-1l-4 1a9 9 0 0 1-4 1 9 9 0 0 1-4-1 9 9 0 0 0-4-1 9 9 0 0 0-4 1l-4 1v2a9 9 0 0 0 4-1 9 9 0 0 1 4-1 9 9 0 0 1 4 1 9 9 0 0 0 4 1 9 9 0 0 0 4-1 9 9 0 0 1 4-1l4 1a9 9 0 0 0 4 1v-2z"/>
    <path fill="#ccc" d="M196 341a9 9 0 0 1-4-1 9 9 0 0 0-4-1l-4 1a9 9 0 0 1-4 1 9 9 0 0 1-4-1 9 9 0 0 0-4-1l-4 1a9 9 0 0 1-4 1v2a9 9 0 0 0 4 0 9 9 0 0 1 4-1 9 9 0 0 1 4 1 9 9 0 0 0 4 1 9 9 0 0 0 4-1 9 9 0 0 1 4-1 9 9 0 0 1 4 1 9 9 0 0 0 4 1v-3"/>
    <path fill="none" d="M196 341a9 9 0 0 1-4-1 9 9 0 0 0-4-1l-4 1a9 9 0 0 1-4 1 9 9 0 0 1-4-1 9 9 0 0 0-4-1l-4 1a9 9 0 0 1-4 1v2a9 9 0 0 0 4 0 9 9 0 0 1 4-1 9 9 0 0 1 4 1 9 9 0 0 0 4 1 9 9 0 0 0 4-1 9 9 0 0 1 4-1 9 9 0 0 1 4 1 9 9 0 0 0 4 1v-3"/>
    <path fill="#005bbf" d="M196 344a9 9 0 0 1-4-1 9 9 0 0 0-4-1 9 9 0 0 0-4 1 9 9 0 0 1-4 1 9 9 0 0 1-4-1 9 9 0 0 0-4-1 9 9 0 0 0-4 1 9 9 0 0 1-4 1v2l4-1a9 9 0 0 1 4-1 9 9 0 0 1 4 1 9 9 0 0 0 8 0 9 9 0 0 1 4-1l4 1 4 1v-3"/>
    <path fill="none" d="M196 344a9 9 0 0 1-4-1 9 9 0 0 0-4-1 9 9 0 0 0-4 1 9 9 0 0 1-4 1 9 9 0 0 1-4-1 9 9 0 0 0-4-1 9 9 0 0 0-4 1 9 9 0 0 1-4 1v2l4-1a9 9 0 0 1 4-1 9 9 0 0 1 4 1 9 9 0 0 0 8 0 9 9 0 0 1 4-1l4 1 4 1v-3"/>
    <path fill="#ccc" d="M196 349a9 9 0 0 1-4-1 9 9 0 0 0-4-1 9 9 0 0 0-4 1 9 9 0 0 1-4 1 9 9 0 0 1-4-1 9 9 0 0 0-4-1 9 9 0 0 0-4 1 9 9 0 0 1-4 1v-3a9 9 0 0 0 4-1 9 9 0 0 1 4-1 9 9 0 0 1 4 1l4 1a9 9 0 0 0 4-1 9 9 0 0 1 4-1 9 9 0 0 1 4 1l4 1v3"/>
    <path fill="none" d="M196 349a9 9 0 0 1-4-1 9 9 0 0 0-4-1 9 9 0 0 0-4 1 9 9 0 0 1-4 1 9 9 0 0 1-4-1 9 9 0 0 0-4-1 9 9 0 0 0-4 1 9 9 0 0 1-4 1v-3a9 9 0 0 0 4-1 9 9 0 0 1 4-1 9 9 0 0 1 4 1l4 1a9 9 0 0 0 4-1 9 9 0 0 1 4-1 9 9 0 0 1 4 1l4 1v3"/>
    <path fill="#005bbf" d="M196 351a9 9 0 0 1-4-1 9 9 0 0 0-4-1 9 9 0 0 0-4 1 9 9 0 0 1-4 1 9 9 0 0 1-4-1 9 9 0 0 0-4-1 9 9 0 0 0-4 1l-4 1v-2l4-1a9 9 0 0 1 4-1 9 9 0 0 1 4 1 9 9 0 0 0 4 1 9 9 0 0 0 4-1 9 9 0 0 1 4-1 9 9 0 0 1 4 1 9 9 0 0 0 4 1v2"/>
    <path fill="none" d="M196 351a9 9 0 0 1-4-1 9 9 0 0 0-4-1 9 9 0 0 0-4 1 9 9 0 0 1-4 1 9 9 0 0 1-4-1 9 9 0 0 0-4-1 9 9 0 0 0-4 1l-4 1v-2l4-1a9 9 0 0 1 4-1 9 9 0 0 1 4 1 9 9 0 0 0 4 1 9 9 0 0 0 4-1 9 9 0 0 1 4-1 9 9 0 0 1 4 1 9 9 0 0 0 4 1v2z"/>
    <path fill="#c8b100" d="M171 329c0 2-2 3-3 3h23c-1 0-3-1-3-3h1a1 1 0 0 1-1 0h-17"/>
    <path fill="none" d="M171 329c0 2-2 3-3 3h23c-1 0-3-1-3-3h1a1 1 0 0 1-1 0h-17z"/>
    <path fill="#c8b100" d="M171 327h17l1 1h-19l1-1"/>
    <path fill="none" d="M171 327h17l1 1h-19l1-1z"/>
    <path fill="#c8b100" d="M168 338h23v-6h-23v6z"/>
    <path fill="none" d="M168 338h23v-6h-23v6z"/>
    <path fill="#ad1519" d="M166 306l-3 3 1 2c2 1 3 3 2 4a6 6 0 0 0 0-9"/>
    <path fill="none" d="M166 306l-3 3 1 2c2 1 3 3 2 4a6 6 0 0 0 0-9z"/>
    <path fill="#ccc" d="M171 326h17v-82h-17v82z"/>
    <path fill="none" d="M183 245v81m2-81v81m-14 0h17v-81h-17v81z"/>
    <path fill="#ad1519" d="M205 275a53 53 0 0 0-17-3 52 52 0 0 0-8 1c-10 2-17 5-17 9l-4-9c0-3 8-8 19-10a57 57 0 0 1 10 0c7 0 13 0 17 2v10"/>
    <path fill="none" d="M205 275a53 53 0 0 0-17-3 52 52 0 0 0-8 1c-10 2-17 5-17 9l-4-9c0-3 8-8 19-10a57 57 0 0 1 10 0c7 0 13 0 17 2v10"/>
    <path fill="#ad1519" d="M171 285c-4 0-7-1-8-3 0-2 1-4 4-5h4v8"/>
    <path fill="none" d="M171 285c-4 0-7-1-8-3 0-2 1-4 4-5h4v8"/>
    <path fill="#ad1519" d="M188 279l6 2c1 1-2 3-6 6v-8"/>
    <path fill="none" d="M188 279l6 2c1 1-2 3-6 6v-8"/>
    <path fill="#ad1519" d="M161 301c0-1 4-4 10-6l9-4c9-4 15-8 14-10l1 8c1 2-5 6-13 10l-11 4-9 6-1-8"/>
    <path fill="none" d="M161 301c0-1 4-4 10-6l9-4c9-4 15-8 14-10l1 8c1 2-5 6-13 10l-11 4-9 6-1-8z"/>
    <path fill="#c8b100" d="M170 271l3-3-3-1-3 1 2 6h2l-1-3zm-1-3h1l1 1v1a5 5 0 0 1-1 1l-1-3m8-3l-1 1h-1l1 6 5-1h-3l-1-6m9 6l2-7a5 5 0 0 1-1 0 59 59 0 0 1-2 5l-2-4h-2l4 6h1m9-5l1-1a4 4 0 0 0-2 0c-2-1-3 0-3 1-1 3 3 2 3 4l-2 1-1-1a8 8 0 0 1-1 1h2c2 1 3 0 3-1 1-3-3-3-3-4l2-1 1 1"/>
    <path fill="#ad1519" d="M332 226l-1 1-1-1-1 1-2-1-1 1h-1l-1 1-1-1-1-1v-1l-1-1 3-1h2a6 6 0 0 1 3-1 6 6 0 0 1 3 1 6 6 0 0 1 3-1l4 1a4 4 0 0 1 2 0l2 1v2h-1l-1 1-1 1v-1h-2l-1-1-1 1-1-1-1 1-2-1"/>
    <path fill="none" d="M332 226l-1 1-1-1-1 1-2-1-1 1h-1l-1 1-1-1-1-1v-1l-1-1 3-1h2a6 6 0 0 1 3-1 6 6 0 0 1 3 1 6 6 0 0 1 3-1l4 1a4 4 0 0 1 2 0l2 1v2h-1l-1 1-1 1v-1h-2l-1-1-1 1-1-1-1 1-2-1z"/>
    <path fill="#c8b100" d="M331 221l1-2 2 2-2 2-1-2"/>
    <path fill="none" d="M331 221l1-2 2 2-2 2-1-2z"/>
    <path fill="#c8b100" d="M332 221v-1l1 1-1 2v-2"/>
    <path fill="none" d="M332 221v-1l1 1-1 2v-2z"/>
    <path fill="#c8b100" d="M325 230a5 5 0 0 0 0-1l7-1 8 1-1 1h-14"/>
    <path fill="none" d="M325 230a5 5 0 0 0 0-1l7-1 8 1-1 1h-14"/>
    <path fill="#c8b100" d="M332 232l7-1h1l-1-1a26 26 0 0 0-7-1 26 26 0 0 0-6 1l-1 1h1l6 1"/>
    <path fill="none" d="M332 232l7-1h1l-1-1a26 26 0 0 0-7-1 26 26 0 0 0-6 1l-1 1h1l6 1z"/>
    <path fill="#fff" d="M338 222a1 1 0 0 1 1 0v1a1 1 0 0 1-1-1"/>
    <path fill="none" d="M338 222a1 1 0 0 1 1 0v1a1 1 0 0 1-1-1zm0-1a1 1 0 0 1 1-1v1a1 1 0 0 1-1 0zm-1-1a1 1 0 0 1 0-1l1 1h-1zm-2-1h1a1 1 0 0 1 0 1l-1-1zm-1 0h1l-1 1a1 1 0 0 1 0-1zM343 225a3 3 0 0 0 0-1 3 3 0 0 0-3-3 3 3 0 0 0-1 1M338 223v-1c0-1-1-2-3-2l-1 1"/>
    <path fill="none" d="M343 224h0zm0-2h1v1l-1-1zm-1-1a1 1 0 0 1 1 0v1a1 1 0 0 1-1-1zm-1-1h1a1 1 0 0 1-1 1 1 1 0 0 1 0-1zm-2 0h1v1c0 1 0 0 0 0h-1z"/>
    <path fill="#c8b100" d="M340 227h-2l-1-1-1 1-1-1-2 1-1-1-1 1-1-1-1 1-2-1-1 1h-2l1 1a33 33 0 0 1 15 0v-1"/>
    <path fill="none" d="M340 227h-2l-1-1-1 1-1-1-2 1-1-1-1 1-1-1-1 1-2-1-1 1h-2l1 1a33 33 0 0 1 15 0v-1z"/>
    <path fill="#fff" d="M325 222a1 1 0 0 1 1 0 1 1 0 0 1 0 1l-1-1"/>
    <path fill="none" d="M325 222a1 1 0 0 1 1 0 1 1 0 0 1 0 1l-1-1zm1-1a1 1 0 0 1 0-1 1 1 0 0 1 1 1 1 1 0 0 1-1 0zm1-1v-1l1 1h-1zm1-1h1c1 0 0 0 0 0v1l-1-1zm2 0a1 1 0 0 1 1 0l-1 1a1 1 0 0 1 0-1z"/>
    <path fill="none" d="M322 225a3 3 0 0 1-1-1 3 3 0 0 1 3-3l2 1M327 223v-1l2-2 2 1"/>
    <path fill="none" d="M320 224h0zm1-2v1a1 1 0 0 1 0-1zm1-1a1 1 0 0 1 1 0 1 1 0 0 1-1 1 1 1 0 0 1 0-1zm1-1h1a1 1 0 0 1-1 1 1 1 0 0 1 0-1zm1 0h1a1 1 0 0 1 0 1h-1z"/>
    <path fill="#c8b100" d="M332 225h1l1 1h1v-1 1l1 1a1 1 0 0 0 1-2h1a1 1 0 0 0 0 1l1 1a1 1 0 0 0 1-1v1h1l1-1v1l-1 1h-1v-1a2 2 0 0 1-1 1l-2-1a2 2 0 0 1-1 0 2 2 0 0 1-1 0h-1a2 2 0 0 1-2-1 2 2 0 0 1-2 1 2 2 0 0 1-1 0h-2-1-1l-1 1a2 2 0 0 1-1 0l-1-1v-1l1 1h2v-1l1 1 1-1a1 1 0 0 0 0-1l2 2 1-1v-1 1h1a1 1 0 0 0 1-1"/>
    <path fill="none" d="M332 225h1l1 1h1v-1 1l1 1a1 1 0 0 0 1-2h1a1 1 0 0 0 0 1l1 1a1 1 0 0 0 1-1v1h1l1-1v1l-1 1h-1v-1a2 2 0 0 1-1 1l-2-1a2 2 0 0 1-1 0 2 2 0 0 1-1 0h-1a2 2 0 0 1-2-1 2 2 0 0 1-2 1 2 2 0 0 1-1 0h-2-1-1l-1 1a2 2 0 0 1-1 0l-1-1v-1l1 1h2v-1l1 1 1-1a1 1 0 0 0 0-1l2 2 1-1v-1 1h1a1 1 0 0 0 1-1z"/>
    <path fill="#c8b100" d="M332 228l-7 1-1-1 8-1 8 1h1l-1 1-8-1"/>
    <path fill="none" d="M332 228l-7 1-1-1 8-1 8 1h1l-1 1-8-1z"/>
    <path fill="#fff" d="M329 229l1-1v1h-1"/>
    <path fill="none" d="M329 229l1-1v1h-1z"/>
    <path fill="#ad1519" d="M332 229h-1v-1h3l-1 1h-1"/>
    <path fill="none" d="M332 229h-1v-1h3l-1 1h-1"/>
    <path fill="#058e6e" d="M327 229h-1 1l1-1v1h-1"/>
    <path fill="none" d="M327 229h-1 1l1-1v1h-1"/>
    <path fill="#ad1519" d="M325 230v-1 1"/>
    <path fill="none" d="M325 230v-1 1"/>
    <path fill="#fff" d="M334 229l1-1v1h-1"/>
    <path fill="none" d="M334 229l1-1v1h-1z"/>
    <path fill="#058e6e" d="M337 229h1-1v-1l-1 1h1"/>
    <path fill="none" d="M337 229h1-1v-1l-1 1h1"/>
    <path fill="#ad1519" d="M340 230v-1h-1l1 1"/>
    <path fill="none" d="M340 230v-1h-1l1 1"/>
    <path fill="#ad1519" d="M332 232a27 27 0 0 1-6-1 28 28 0 0 1 13 0 27 27 0 0 1-7 1"/>
    <path fill="none" d="M332 232a27 27 0 0 1-6-1 28 28 0 0 1 13 0 27 27 0 0 1-7 1z"/>
    <path fill="#c8b100" d="M340 226"/>
    <path fill="none" d="M340 226z"/>
    <path fill="#c8b100" d="M335 225v0"/>
    <path fill="none" d="M335 225v0z"/>
    <path fill="#c8b100" d="M330 225v0"/>
    <path fill="none" d="M330 225v0z"/>
    <path fill="#c8b100" d="M325 226h-1"/>
    <path fill="none" d="M325 226h-1z"/>
    <path fill="#c8b100" d="M332 222v3l1-1v-1l-1-1"/>
    <path fill="none" d="M332 222v3l1-1v-1l-1-1"/>
    <path fill="#c8b100" d="M330 225h2v-1h-1l-1 1"/>
    <path fill="none" d="M330 225h2v-1h-1l-1 1"/>
    <path fill="#c8b100" d="M334 225h-1l-1-1h2v1"/>
    <path fill="none" d="M334 225h-1l-1-1h2v1"/>
    <path fill="#c8b100" d="M327 223l-1 1 1 1 1-2h-1"/>
    <path fill="none" d="M327 223l-1 1 1 1 1-2h-1"/>
    <path fill="#c8b100" d="M325 225l1 1 1-1h-2"/>
    <path fill="none" d="M325 225l1 1 1-1h-2"/>
    <path fill="#c8b100" d="M329 225h-2l1-1 1 1"/>
    <path fill="none" d="M329 225h-2l1-1 1 1"/>
    <path fill="#c8b100" d="M324 226h-2l1-1h1"/>
    <path fill="none" d="M324 226h-2l1-1h1"/>
    <path fill="#c8b100" d="M327 225a1 1 0 0 1 0-1 1 1 0 0 1 1 1 1 1 0 0 1-1 0"/>
    <path fill="none" d="M327 225a1 1 0 0 1 0-1 1 1 0 0 1 1 1 1 1 0 0 1-1 0z"/>
    <path fill="#c8b100" d="M338 223l1 1-1 1-1-2h1"/>
    <path fill="none" d="M338 223l1 1-1 1-1-2h1"/>
    <path fill="#c8b100" d="M340 225l-1 1-1-1h2"/>
    <path fill="none" d="M340 225l-1 1-1-1h2"/>
    <path fill="#c8b100" d="M336 225h2l-2-1v1"/>
    <path fill="none" d="M336 225h2l-2-1v1"/>
    <path fill="#c8b100" d="M341 226h1l-1-1"/>
    <path fill="none" d="M341 226h1l-1-1"/>
    <path fill="#c8b100" d="M332 225v-1l1 1h-1"/>
    <path fill="none" d="M332 225v-1l1 1h-1z"/>
    <path fill="#c8b100" d="M337 225a1 1 0 0 1 1-1v1a1 1 0 0 1-1 0"/>
    <path fill="none" d="M337 225a1 1 0 0 1 1-1v1a1 1 0 0 1-1 0z"/>
    <path fill="#c8b100" d="M331 219l1-1 1 1-1 1a1 1 0 0 1-1-1"/>
    <path fill="#c8b100" d="M333 219h-1v-2h-1 1v-1h1v3"/>
    <path fill="none" d="M333 219h-1v-2h-1 1v-1h1v3z"/>
    <path fill="#c8b100" d="M334 219h-3 1v-2h-1 1v-1h1v3h1"/>
    <path fill="none" d="M333 218a1 1 0 0 1 0 1l-1 1a1 1 0 0 1-1-1l1-1"/>
    <path fill="#c8b100" d="M322 226h-1l-1-1h2v1"/>
    <path fill="none" d="M322 226h-1l-1-1h2v1z"/>
    <path fill="#c8b100" d="M322 226v0"/>
    <path fill="none" d="M322 226v0z"/>
    <path fill="#c8b100" d="M343 226l1-1h-1-1v1h1"/>
    <path fill="none" d="M343 226l1-1h-1-1v1h1z"/>
    <path fill="#c8b100" d="M343 226h-1v1h1v-1"/>
    <path fill="none" d="M343 226h-1v1h1v-1z"/>
    <path fill="#c8b100" d="M321 238h23v-6h-23v6z"/>
    <path fill="none" d="M321 238h23v-6h-23v6z"/>
    <path fill="#c8b100" d="M341 242h-18l1-1-1-2h18l-1 2 1 1"/>
    <path fill="none" d="M341 242h-18l1-1-1-2h18l-1 2 1 1z"/>
    <path fill="#c8b100" d="M324 242h17l1 1-1 1h-17l-1-1 1-1"/>
    <path fill="none" d="M324 242h17l1 1-1 1h-17l-1-1 1-1z"/>
    <path fill="#c8b100" d="M324 238h17l1 1h-19l1-1"/>
    <path fill="none" d="M324 238h17l1 1h-19l1-1z"/>
    <path fill="#005bbf" d="M316 339l4-1a9 9 0 0 1 4-1l4 1 4 1a9 9 0 0 0 4-1 9 9 0 0 1 4-1l4 1 4 1v2a9 9 0 0 1-4-1 9 9 0 0 0-4-1l-4 1a9 9 0 0 1-4 1 9 9 0 0 1-4-1 9 9 0 0 0-4-1l-4 1a9 9 0 0 1-4 1v-2"/>
    <path fill="none" d="M316 339l4-1a9 9 0 0 1 4-1l4 1 4 1a9 9 0 0 0 4-1 9 9 0 0 1 4-1l4 1 4 1v2a9 9 0 0 1-4-1 9 9 0 0 0-4-1l-4 1a9 9 0 0 1-4 1 9 9 0 0 1-4-1 9 9 0 0 0-4-1l-4 1a9 9 0 0 1-4 1v-2z"/>
    <path fill="#ccc" d="M316 341a9 9 0 0 0 4-1 9 9 0 0 1 4-1l4 1a9 9 0 0 0 4 1l4-1a9 9 0 0 1 4-1 8 8 0 0 1 4 1 9 9 0 0 0 4 1v2a9 9 0 0 1-4 0 9 9 0 0 0-4-1l-4 1a9 9 0 0 1-4 1 9 9 0 0 1-4-1 9 9 0 0 0-4-1 9 9 0 0 0-4 1 9 9 0 0 1-4 1v-3"/>
    <path fill="none" d="M316 341a9 9 0 0 0 4-1 9 9 0 0 1 4-1l4 1a9 9 0 0 0 4 1l4-1a9 9 0 0 1 4-1 8 8 0 0 1 4 1 9 9 0 0 0 4 1v2a9 9 0 0 1-4 0 9 9 0 0 0-4-1l-4 1a9 9 0 0 1-4 1 9 9 0 0 1-4-1 9 9 0 0 0-4-1 9 9 0 0 0-4 1 9 9 0 0 1-4 1v-3"/>
    <path fill="#005bbf" d="M316 344l4-1a9 9 0 0 1 4-1 9 9 0 0 1 4 1l4 1 4-1a9 9 0 0 1 4-1l4 1 4 1v2a9 9 0 0 1-4-1 9 9 0 0 0-4-1 9 9 0 0 0-4 1 9 9 0 0 1-4 1 9 9 0 0 1-4-1 9 9 0 0 0-4-1l-4 1a9 9 0 0 1-4 1v-3"/>
    <path fill="none" d="M316 344l4-1a9 9 0 0 1 4-1 9 9 0 0 1 4 1l4 1 4-1a9 9 0 0 1 4-1l4 1 4 1v2a9 9 0 0 1-4-1 9 9 0 0 0-4-1 9 9 0 0 0-4 1 9 9 0 0 1-4 1 9 9 0 0 1-4-1 9 9 0 0 0-4-1l-4 1a9 9 0 0 1-4 1v-3"/>
    <path fill="#ccc" d="M316 349a9 9 0 0 0 4-1 9 9 0 0 1 4-1 9 9 0 0 1 4 1l4 1 4-1a9 9 0 0 1 4-1l4 1 4 1v-3a9 9 0 0 1-4-1 9 9 0 0 0-4-1 9 9 0 0 0-4 1 9 9 0 0 1-4 1 9 9 0 0 1-4-1 9 9 0 0 0-4-1 9 9 0 0 0-4 1 9 9 0 0 1-4 1v3"/>
    <path fill="none" d="M316 349a9 9 0 0 0 4-1 9 9 0 0 1 4-1 9 9 0 0 1 4 1l4 1 4-1a9 9 0 0 1 4-1l4 1 4 1v-3a9 9 0 0 1-4-1 9 9 0 0 0-4-1 9 9 0 0 0-4 1 9 9 0 0 1-4 1 9 9 0 0 1-4-1 9 9 0 0 0-4-1 9 9 0 0 0-4 1 9 9 0 0 1-4 1v3"/>
    <path fill="#005bbf" d="M316 351l4-1a9 9 0 0 1 4-1 9 9 0 0 1 4 1l4 1 4-1a9 9 0 0 1 4-1l4 1 4 1v-2a9 9 0 0 1-4-1 9 9 0 0 0-4-1l-4 1a9 9 0 0 1-4 1 9 9 0 0 1-4-1 9 9 0 0 0-4-1 9 9 0 0 0-4 1 9 9 0 0 1-4 1v2"/>
    <path fill="none" d="M316 351l4-1a9 9 0 0 1 4-1 9 9 0 0 1 4 1l4 1 4-1a9 9 0 0 1 4-1l4 1 4 1v-2a9 9 0 0 1-4-1 9 9 0 0 0-4-1l-4 1a9 9 0 0 1-4 1 9 9 0 0 1-4-1 9 9 0 0 0-4-1 9 9 0 0 0-4 1 9 9 0 0 1-4 1v2z"/>
    <path fill="#c8b100" d="M341 329c0 2 1 3 3 3h-23c1 0 2-1 2-3h18"/>
    <path fill="none" d="M341 329c0 2 1 3 3 3h-23c1 0 2-1 2-3h18z"/>
    <path fill="#c8b100" d="M324 327h17l1 1h-19l1-1"/>
    <path fill="none" d="M324 327h17l1 1h-19l1-1z"/>
    <path fill="#c8b100" d="M321 338h23v-6h-23v6z"/>
    <path fill="none" d="M321 338h23v-6h-23v6z"/>
    <path fill="#ad1519" d="M346 306l4 3-2 2c-2 1-3 3-2 4a6 6 0 0 1 0-9"/>
    <path fill="none" d="M346 306l4 3-2 2c-2 1-3 3-2 4a6 6 0 0 1 0-9z"/>
    <path fill="#ccc" d="M324 326h17v-82h-17v82z"/>
    <path fill="none" d="M336 244v82m2-82v82m-14 0h17v-82h-17v82z"/>
    <path fill="#ad1519" d="M307 275a53 53 0 0 1 25-2c10 2 18 5 17 9l4-9c0-3-8-8-19-10a57 57 0 0 0-10 0c-7 0-13 0-17 2v10"/>
    <path fill="none" d="M307 275a53 53 0 0 1 25-2c10 2 18 5 17 9l4-9c0-3-8-8-19-10a57 57 0 0 0-10 0c-7 0-13 0-17 2v10"/>
    <path fill="#ad1519" d="M341 285c4 0 8-1 8-3s-1-4-4-5h-4v8"/>
    <path fill="none" d="M341 285c4 0 8-1 8-3s-1-4-4-5h-4v8"/>
    <path fill="#ad1519" d="M324 279l-6 2c-1 1 2 3 6 6v-8"/>
    <path fill="none" d="M324 279l-6 2c-1 1 2 3 6 6v-8"/>
    <path fill="#ad1519" d="M351 301c1-1-4-4-10-6l-9-4c-8-4-15-8-14-10l-1 8c-1 2 5 6 13 10l11 4 9 6 1-8"/>
    <path fill="none" d="M351 301c1-1-4-4-10-6l-9-4c-8-4-15-8-14-10l-1 8c-1 2 5 6 13 10l11 4 9 6 1-8z"/>
    <path fill="#c8b100" d="M318 271l2-7a6 6 0 0 1-1 0l-2 6-3-5h-2a140 140 0 0 1 4 6h1m7-7h-2v7h4v-1a32 32 0 0 1-2 0v-6m7 1l2 1v-1l-6-1v1h2v6h1l1-6m3 7h1l1-3 1 2 1 2h2-1l-1-3 2-2v-1a6 6 0 0 0-2-1h-3l-1 6m3-6l1 1a2 2 0 0 1 0 1l-2 1 1-3m8 8v2l1 1h1l1-7a4 4 0 0 1-1-1l-7 4 1 1 2-1 2 1zm-1-2l2-1-1 2-1-1"/>
    <path fill="none" d="M230 205c0-1 1-2 3-2l2 2-2 2a2 2 0 0 1-3-2z"/>
    <path fill="#ad1519" d="M255 187c7 0 13 1 17 3a32 32 0 0 0 9 2h7l11 3a29 29 0 0 1 8 5l-2 1v4l-5 5-2 2-5 4h-3l-1 3-33-4-34 4-1-3h-3l-5-4-2-2-4-5-1-4-2-1a30 30 0 0 1 8-5l11-3h7a32 32 0 0 0 9-2c4-2 10-3 16-3z"/>
    <path fill="#c8b100" d="M256 232c-13 0-24-2-32-4l-1-2a1 1 0 0 1 1-1 120 120 0 0 1 32-4c12 0 24 2 32 4l1 1-1 2a119 119 0 0 1-32 4"/>
    <path fill="#ad1519" d="M256 230a121 121 0 0 1-29-3c7-2 18-4 29-4a123 123 0 0 1 29 4c-7 2-18 3-29 3"/>
    <path fill="none" d="M257 230v-7m-2 7v-7M253 230v-7m-2 7v-7M250 230v-7m-3 7v-6m1 6v-7M244 229v-5m2 6v-6m-5 5v-5m1 5v-5m1 5v-5"/>
    <path fill="none" stroke="#000" d="M239 229v-5m-1 5v-5M237 229v-5m-3 4v-3m2 4v-4M233 228v-3m-1 3v-3M231 228v-2m-2 1v-1M228 227v-1"/>
    <path fill="none" d="M264 230v-7m-3 7v-7m-2 7v-7"/>
    <path fill="#c8b100" d="M256 221a115 115 0 0 0-32 4l-1-3-2-2a130 130 0 0 1 35-5c14 0 26 2 35 5 0 0-2 0-3 2v3c-8-2-19-4-32-4"/>
    <path fill="#c8b100" d="M256 215a131 131 0 0 0-35 5l-2-1a1 1 0 0 1 1-1c9-3 22-5 36-5s27 2 36 5v1l-1 1c-9-3-21-5-35-5"/>
    <path fill="none" d="M256 230a121 121 0 0 1-29-3c7-2 18-4 29-4a123 123 0 0 1 29 4c-7 2-18 3-29 3z"/>
    <path fill="#fff" d="M246 219l1-2 1 1-1 2a1 1 0 0 1-1-1"/>
    <path fill="#ad1519" d="M256 219h-3l-2-1 1-1h7a1 1 0 0 1 1 1l-1 1h-3"/>
    <path fill="#058e6e" d="M239 220h-4a1 1 0 0 1 1-2h5a1 1 0 0 1 1 1l-1 1h-2"/>
    <path fill="#fff" d="M229 220l1-1a1 1 0 0 1 1 1l-1 2a1 1 0 0 1-1-1"/>
    <path fill="#ad1519" d="M222 222l1-1h3l-2 2-2-1"/>
    <path fill="#058e6e" d="M273 220h3a1 1 0 0 0 0-2h-5l-2 1 1 1h3"/>
    <path fill="#fff" d="M263 219l2-2 1 1-1 2a1 1 0 0 1-2-1m17 2l1-2a1 1 0 0 1 2 1l-2 2a1 1 0 0 1-1-1"/>
    <path fill="#ad1519" d="M290 222l-1-1h-4l3 2 2-1"/>
    <path fill="none" d="M225 227c8-2 19-4 31-4s23 2 31 4"/>
    <path fill="#c8b100" d="M230 196l2 1 2-3a8 8 0 0 1-4-8c0-4 6-8 13-8l9 3v-2a19 19 0 0 0-9-3c-8 0-14 5-15 10a10 10 0 0 0 4 8l-2 2"/>
    <path fill="none" d="M230 196l2 1 2-3a8 8 0 0 1-4-8c0-4 6-8 13-8l9 3v-2a19 19 0 0 0-9-3c-8 0-14 5-15 10a10 10 0 0 0 4 8l-2 2"/>
    <path fill="#c8b100" d="M231 196a10 10 0 0 1-5-8c0-3 2-6 6-8a9 9 0 0 0-4 6 10 10 0 0 0 4 8l-1 2"/>
    <path fill="none" d="M231 196a10 10 0 0 1-5-8c0-3 2-6 6-8a9 9 0 0 0-4 6 10 10 0 0 0 4 8l-1 2"/>
    <path fill="#c8b100" d="M207 200a9 9 0 0 1-3-7l1-4c2-4 9-8 17-8l7 1-1 2a27 27 0 0 0-6-1c-7 0-13 3-15 7a8 8 0 0 0-1 3 8 8 0 0 0 3 6l-3 5-1-2 2-2"/>
    <path fill="none" d="M207 200a9 9 0 0 1-3-7l1-4c2-4 9-8 17-8l7 1-1 2a27 27 0 0 0-6-1c-7 0-13 3-15 7a8 8 0 0 0-1 3 8 8 0 0 0 3 6l-3 5-1-2 2-2z"/>
    <path fill="#c8b100" d="M210 185a11 11 0 0 0-5 4 9 9 0 0 0-1 4c0 3 1 5 3 7l-2 2a11 11 0 0 1-2-7c0-4 2-8 7-10"/>
    <path fill="none" d="M210 185a11 11 0 0 0-5 4 9 9 0 0 0-1 4c0 3 1 5 3 7l-2 2a11 11 0 0 1-2-7c0-4 2-8 7-10z"/>
    <path fill="#c8b100" d="M256 175c2 0 3 2 4 3v6l1 9-5 5-6-5 1-9v-1l1-5c0-1 2-3 4-3"/>
    <path fill="none" d="M256 175c2 0 3 2 4 3v6l1 9-5 5-6-5 1-9v-1l1-5c0-1 2-3 4-3z"/>
    <path fill="#c8b100" d="M256 177a2 2 0 0 1 2 2 31 31 0 0 1 0 4v1l1 8-3 4-4-4 1-8v-1l1-4 2-2"/>
    <path fill="none" d="M256 177a2 2 0 0 1 2 2 31 31 0 0 1 0 4v1l1 8-3 4-4-4 1-8v-1l1-4 2-2z"/>
    <path fill="#c8b100" d="M281 196l-1 1-3-3a8 8 0 0 0 4-8c0-4-5-8-12-8a16 16 0 0 0-9 3 25 25 0 0 0 0-2 19 19 0 0 1 9-3c8 0 14 5 14 10a10 10 0 0 1-3 8l1 2"/>
    <path fill="none" d="M281 196l-1 1-3-3a8 8 0 0 0 4-8c0-4-5-8-12-8a16 16 0 0 0-9 3 25 25 0 0 0 0-2 19 19 0 0 1 9-3c8 0 14 5 14 10a10 10 0 0 1-3 8l1 2"/>
    <path fill="#c8b100" d="M281 196c3-2 4-5 4-8s-2-6-5-8a9 9 0 0 1 3 7c0 3-1 5-3 7l1 2"/>
    <path fill="none" d="M281 196c3-2 4-5 4-8s-2-6-5-8a9 9 0 0 1 3 7c0 3-1 5-3 7l1 2"/>
    <path fill="#c8b100" d="M305 200a9 9 0 0 0 1-11c-2-4-9-8-17-8a28 28 0 0 0-6 1l1 2a27 27 0 0 1 5-1c8 0 14 3 16 7v3a8 8 0 0 1-3 6l3 5 2-2-2-2"/>
    <path fill="none" d="M305 200a9 9 0 0 0 1-11c-2-4-9-8-17-8a28 28 0 0 0-6 1l1 2a27 27 0 0 1 5-1c8 0 14 3 16 7v3a8 8 0 0 1-3 6l3 5 2-2-2-2z"/>
    <path fill="#c8b100" d="M302 185a11 11 0 0 1 4 4 9 9 0 0 1 1 4l-2 7 1 2a11 11 0 0 0 3-7c0-4-3-8-7-10"/>
    <path fill="none" d="M302 185a11 11 0 0 1 4 4 9 9 0 0 1 1 4l-2 7 1 2a11 11 0 0 0 3-7c0-4-3-8-7-10z"/>
    <path fill="#fff" d="M254 194l2-2 2 1a2 2 0 0 1-2 2 2 2 0 0 1-2-1"/>
    <path fill="none" d="M254 194l2-2 2 1a2 2 0 0 1-2 2 2 2 0 0 1-2-1z"/>
    <path fill="#fff" d="M254 190a2 2 0 0 1 2-2 2 2 0 0 1 2 2 2 2 0 0 1-2 2 2 2 0 0 1-2-2m0-4l2-1 1 1-1 1-2-1m1-4l1-1a1 1 0 0 1 1 1l-1 2a1 1 0 0 1-1-1m0-4h2l-1 1-1-1"/>
    <path fill="#c8b100" d="M256 205h1a5 5 0 0 0 5 6 5 5 0 0 0 5-3v-2l1 2c0 2 2 4 5 4a5 5 0 0 0 5-5l1-2 1 2a4 4 0 0 0 0 2 5 5 0 0 0 4 5 5 5 0 0 0 4-2l1-2v2c0 2 1 3 3 3l4-1a28 28 0 0 0 3-4l1 2-4 4c-2 1-3 2-5 1l-3-2a7 7 0 0 1-3 1 7 7 0 0 1-7-4 8 8 0 0 1-11-1 7 7 0 0 1-5 2 7 7 0 0 1-6-3 7 7 0 0 1-6 3 7 7 0 0 1-5-2 8 8 0 0 1-11 1 7 7 0 0 1-7 4 7 7 0 0 1-3-1l-3 2c-2 1-4 0-5-1l-4-4v-2l4 4 4 1c2 0 2-1 2-3v-2l1 2a5 5 0 0 0 4 2c3 0 5-2 5-5v-4l2 2a5 5 0 0 0 5 5c3 0 5-2 5-4v-2l1 2a5 5 0 0 0 5 3 5 5 0 0 0 5-6h1"/>
    <path fill="#fff" d="M291 211l-1-2-2 1 1 2 1-1m-22-4v-2l-2 1 1 2 2-1m-26 0l1-2 1 1c1 1 0 2-1 2l-1-1m-22 4l1-2 1 1v2l-2-1"/>
    <path fill="#c8b100" d="M231 196a6 6 0 0 1 2 3h1l1-1v2l-1 2a8 8 0 0 1 0 2 2 2 0 0 0-2-1 2 2 0 0 0-1 1l-1-1-2-2v-1h2a5 5 0 0 1 1-4M231 207a2 2 0 0 1 0-1 2 2 0 0 1 0-2h-2l-2-1h-2l1 1v1a5 5 0 0 0-3 2 6 6 0 0 0 4 1v1h1l2-1 1-1m3-1a2 2 0 0 0 0-1 2 2 0 0 0 0-1l1-1 3-1 1-1v1l-1 1a6 6 0 0 1 4 1 5 5 0 0 1-3 2 7 7 0 0 0 1 1h-4l-2-1"/>
    <path fill="#ad1519" d="M230 205c0-1 1-2 3-2l2 2-2 2a2 2 0 0 1-3-2"/>
    <path fill="#c8b100" d="M256 193a6 6 0 0 1 2 4l1-1h1v2l-1 2a9 9 0 0 1-1 2 2 2 0 0 0-2-1l-2 1-1-2-1-2v-2h1l1 1a6 6 0 0 1 2-4M254 205a2 2 0 0 1 0-2v-1l-2-1-2-1h-2l1 1-4 2a6 6 0 0 0 4 2l-1 1v1l2-1h2l2-1m3 0l1-2a2 2 0 0 0 0-1l2-1 2-1h1v1a8 8 0 0 1 0 1 6 6 0 0 1 4 1 6 6 0 0 1-4 2v2h-1l-2-1a13 13 0 0 1-2-1m23-9a6 6 0 0 0-2 3h-1l-1-1v4l1 2a2 2 0 0 1 2-1 2 2 0 0 1 1 1l1-1 1-2 1-1h-2a5 5 0 0 0-1-4M281 207v-1a2 2 0 0 0 0-2h2l2-1h1v2a5 5 0 0 1 3 2 6 6 0 0 1-4 1v1h-1l-2-1a12 12 0 0 1-1-1m-3-1a2 2 0 0 1-1-1l1-1-1-1-3-1-1-1v1l1 1a6 6 0 0 0-4 1l3 2-1 1h4l2-1"/>
    <path fill="#ad1519" d="M277 205l2-2 2 2c1 1 0 2-2 2a2 2 0 0 1-2-2m25 5h-3v2h2l1-2"/>
    <path fill="#c8b100" d="M299 211v-1h3l2-3h4a3 3 0 0 0-3-3l-3 1v-1l-2 2v4l-1-2a9 9 0 0 0-2-2h-2v1a8 8 0 0 0-4 1 5 5 0 0 0 3 2l-1 1h1l3 1a16 16 0 0 0 2-1m-86 0a2 2 0 0 0-1-1h-2l-3-3h-3a3 3 0 0 1 3-3l2 1v-1l2 2v4l1-2 3-2h1a7 7 0 0 0 0 1 8 8 0 0 1 4 1 5 5 0 0 1-2 2v1h1-1l-3 1a16 16 0 0 1-2-1"/>
    <path fill="#ad1519" d="M210 210h2l1 2h-2l-1-2m44-7l2-2 2 2-2 2a2 2 0 0 1-2-2"/>
    <path fill="#005bbf" d="M251 171c0-2 2-4 5-4 2 0 4 2 4 4a4 4 0 0 1-4 5 4 4 0 0 1-5-5"/>
    <path fill="#c8b100" d="M255 159v3h-3v2h3v7h-4l1 2h8a4 4 0 0 0 0-2h-3v-7h2v-2h-2v-3h-2z"/>
    <path fill="#ccc" d="M256 353a87 87 0 0 1-38-9 24 24 0 0 1-13-22v-34h102v34c1 10-5 18-13 22a86 86 0 0 1-38 9"/>
    <path fill="none" stroke="#000" d="M256 353a87 87 0 0 1-38-9 24 24 0 0 1-13-22v-34h102v34c1 10-5 18-13 22a86 86 0 0 1-38 9z"/>
    <path fill="#ccc" d="M256 288h52v-57h-52v57z"/>
    <path fill="none" stroke="#000" d="M256 288h52v-57h-52v57z"/>
    <path fill="#ad1519" d="M256 322a25 25 0 0 1-26 25c-14 0-25-11-25-25v-34h51v34"/>
    <path fill="#c8b100" stroke="#000" d="M216 342l6 3v-58h-6v55z"/>
    <path fill="#c8b100" stroke="#000" stroke-linejoin="round" d="M205 322a26 26 0 0 0 6 16v-51h-6v35z"/>
    <path fill="#c7b500" stroke="#000" d="M227 346h6v-59h-6v59z"/>
    <path fill="#c8b100" stroke="#000" d="M239 345a20 20 0 0 0 6-3v-55h-6v58z"/>
    <path fill="#ad1519" d="M205 288h51v-57h-51v57z"/>
    <path fill="none" stroke="#000" d="M205 288h51v-57h-51v57z"/>
    <path fill="#c8b100" stroke="#000" d="M250 337c3-2 5-7 6-13v-37h-6v50z"/>
    <path fill="none" stroke="#000" d="M256 322a25 25 0 0 1-26 25c-14 0-25-11-25-25v-34h51v34"/>
    <path fill="#ad1519" d="M308 288v34a25 25 0 0 1-26 24c-14 0-26-11-26-24v-34h52"/>
    <path fill="none" stroke="#000" d="M308 288v34a25 25 0 0 1-26 24c-14 0-26-11-26-24v-34h52"/>
    <path fill="#c8b100" d="M265 314c1 1 0 1-1 1l-1-1h-1a3 3 0 0 0 2 3v4h1v-4a3 3 0 0 0 2-2h5v-1h-7m23 0v1h-4a3 3 0 0 1 0 1l5 5-1 1-5-5v9h-2v-9l-5 5-2-1 5-5a2 2 0 0 1 0-1h-4v-1h14zm3 0v1h5l2 2v4h2v-4a3 3 0 0 0 2-3h-2a1 1 0 0 1-1 1l-1-1h-7m-7 23a17 17 0 0 0 4-1l1 2a19 19 0 0 1-5 1 3 3 0 0 1-2 2 3 3 0 0 1-3-2 19 19 0 0 1-5-1l1-2 4 1a3 3 0 0 1 2-1v-7h1v7a3 3 0 0 1 2 1zm-11-2l-1 1a18 18 0 0 1-4-3 3 3 0 0 1-3 0 3 3 0 0 1 0-4 16 16 0 0 1-1-5h1a14 14 0 0 0 1 4 3 3 0 0 1 2 0l4-5 2 1-5 5a3 3 0 0 1 0 3 16 16 0 0 0 3 3zm-7-5a1 1 0 0 1 2 0 1 1 0 0 1 0 1 1 1 0 0 1-2 1 1 1 0 0 1 0-2zm-2-5h-2v-5l1-1v3l1 3zm1-6l2 1v4l-1 1-1-3v-3zm6 15a17 17 0 0 0 5 3l1-2a15 15 0 0 1-5-2l-1 1m-1 1a19 19 0 0 0 5 3l-1 1a20 20 0 0 1-4-2v-1m3-10h1l3-3-1-2-3 4m-2-1l-1-1 3-4 2 1-4 4m20 11v1a18 18 0 0 0 4-3h3a3 3 0 0 0 0-4l1-5h-1a14 14 0 0 1-1 4 3 3 0 0 0-2 0l-4-5-2 1 5 5a3 3 0 0 0 0 3 16 16 0 0 1-3 3zm6-5a1 1 0 0 0-2 0 1 1 0 0 0 0 1h2a1 1 0 0 0 0-1zm2-5h2v-5l-1-1v3l-1 3zm-1-6l-2 1v4l2 1v-6m-6 15a17 17 0 0 1-5 3l-1-2a15 15 0 0 0 5-2l1 1m1 2a19 19 0 0 1-5 2l1 2a20 20 0 0 0 4-3v-1m-3-10h-1l-3-3 1-2 3 4m2-1l1-1-3-4-2 1 4 4m-22-9l1 2h5v-2h-6m23 0l-1 2h-4l-1-2h6m-12 23l1-1 1 1-1 2-2-2zm2-8h1v-5h-1v5m-2 0h-2v-5h2v5M262 314l2-2v-6h1v6l2 1h5v1h-7a1 1 0 0 0-1-1 1 1 0 0 0-1 1h-1m13 0v-1h4l-5-6 1-1 5 6h1v-8h1v8h1l5-6 1 1-5 6h5v1h-14zm23 0a1 1 0 0 1 1-1l1 1h1a3 3 0 0 0-1-2v-6h-2v6a3 3 0 0 0-2 1h-5v1h7m-33-16l7 7 1-1-6-7v-1h5v-2h-5a3 3 0 0 0-3-1 3 3 0 0 0-2 2l1 3v5h2v-5zm34 0v5h-1v-5a3 3 0 0 1-1 0l-6 7-1-1 6-7a2 2 0 0 1 0-1h-5v-1h5a3 3 0 0 1 3-2l2 2c1 2 0 3-1 3zm-17 0v3h-1v-3a3 3 0 0 1-2-2h-4v-1h4a3 3 0 0 1 2-2c2 0 3 1 3 2h4v1h-4a3 3 0 0 1-2 2zm-19 4h-1v5l1 1v-6m2 0l2 1v4l-2 1v-6m33 0l-2 1v4l2 1v-6m2 0l1 1v4l-1 1v-6m-28 1l2-1 3 4-1 1-4-4m-1 1l-1 2 3 3 2-1-4-4m20-1l-2-1-3 4 1 1 4-4m1 1l1 1-3 4-2-1 4-4m-22 10l1-2h5v2h-6m-7-19l1-1 2 1-2 2-1-2zm13 1v2h-5l-1-2h6m0-1v-2h-5l-1 2h6m17 19l-1-2h-4l-1 2h6m4-19l2-1 1 1-1 2-2-2zm-17 0l2-1 1 1-2 2-1-2zm7 1l1 2h4l1-2h-6m0-1l1-2h4l1 2h-6m-6 5h-2v5l2 1v-6m1 0h2v5l-2 1v-6"/>
    <path fill="none" d="M284 337a17 17 0 0 0 4-1l1 2a19 19 0 0 1-5 1 3 3 0 0 1-2 2 3 3 0 0 1-3-2 19 19 0 0 1-5-1l1-2 4 1a3 3 0 0 1 2-1v-7h1v7a3 3 0 0 1 2 1zm-5-21a2 2 0 0 1 0-1h-4v-1h4v-1l-5-6 1-1 5 6a2 2 0 0 1 1 0v-8h1v8h1l5-6 1 1-5 6v1h5v1h-5v1l5 5-1 1-5-5v9h-2v-9l-5 5-2-1 5-5m-13-18l6 7 1-1-6-7v-1h5v-1h-5a3 3 0 0 0-3-2 3 3 0 0 0-2 2c0 2 0 3 2 3v5h1v-5h1zm7 37l-1 1a18 18 0 0 1-4-3h-3a3 3 0 0 1 0-4 16 16 0 0 1-1-5h1a14 14 0 0 0 1 4 3 3 0 0 1 2 0l4-5 2 1-5 5a3 3 0 0 1 0 3 16 16 0 0 0 4 3zm-9-14v-4a3 3 0 0 1-2-3c0-1 0-2 2-2v-6h1v6l2 2h5v1h-5a3 3 0 0 1-2 2v4h-2m3 9a1 1 0 0 1 2 0v1a1 1 0 0 1-2 0 1 1 0 0 1 0-1zm-2-5h-2v-5h1v2l1 3zm1-6l2 1a64 64 0 0 0 0 4l-1 1-1-3v-3zm6 15a17 17 0 0 0 5 3l1-2a15 15 0 0 1-5-2l-1 1m-1 2a19 19 0 0 0 5 2l-1 1a20 20 0 0 1-4-2v-1"/>
    <path fill="none" d="M273 325l1 1 4-3-1-2-4 4m-2-1l-1-1 3-4 2 1-4 4m-8-10l1-1 2 1-2 1-1-1zm28 21v1a18 18 0 0 0 4-3h3a3 3 0 0 0 0-4l2-5h-2a14 14 0 0 1-1 4 3 3 0 0 0-2 0l-4-5-2 1 5 5a3 3 0 0 0 0 3 16 16 0 0 1-3 3zm9-14v-4a3 3 0 0 0 2-3 3 3 0 0 0-2-2v-6h-2v6l-2 1h-5v2h5a3 3 0 0 0 2 2v4h2zm-3 9a1 1 0 0 0-2 0 1 1 0 0 0 0 1h2a1 1 0 0 0 0-1zm2-5h2v-5l-1-1v3l-1 3zm-1-6l-2 1v4l2 1v-6m2-21v5h-2v-5a2 2 0 0 1-1 0l-6 7-1-1 6-8h-5v-2h5a3 3 0 0 1 3-1l2 2c1 2 0 3-1 3zm-18 0v3h-1v-3a3 3 0 0 1-2-2h-4v-1h4a3 3 0 0 1 2-2c2 0 3 1 3 2h4v1h-4a3 3 0 0 1-2 2zm10 36a17 17 0 0 1-5 3l-1-2a15 15 0 0 0 5-2l1 1m1 2a19 19 0 0 1-5 2l1 2a20 20 0 0 0 4-3v-1m-29-34l-2 1v4l1 1v-6m2 0l2 1v4l-2 1v-6m33 0l-2 1v4l2 1v-6"/>
    <path fill="none" d="M300 302l1 1v4l-1 1v-6m-10 23l-1 1-3-3 1-2 3 4m2-1l1-1-3-4-2 1 4 4m-20-21l2-1 3 4-1 1-4-4m-1 1l-1 2 3 3 2-1-4-4m20-1l-2-1-3 4 1 1 4-4m1 1l1 1-3 4-2-1 4-4m-22 10l1-2h5v2h-6m0 1l1 2h5v-2h-6m-7-20l1-1 2 1-2 2-1-2zm13 1v2h-5l-1-2h6m0-1v-2h-5l-1 2h6m22 19l1-1 1 1-1 1-1-1zm-5 0l-1-2h-4l-1 2h6m0 1l-1 2h-4l-1-2h6m-12 23l1-1 1 1-1 2-2-2zm2-8h1v-5h-1v5m-2 0h-2v-5h2v5m17-35l1-1 1 1-1 1-1-1zm-18 0l2-1 1 1-1 1-2-1zm7 1l1 2h4l1-2h-6m0-2l1-1h4l1 1h-6m-6 6h-2v5h2v-5m1 0l2 1v4l-2 1v-6"/>
    <path fill="#058e6e" d="M279 314a3 3 0 0 1 3-2l2 2a3 3 0 0 1-2 3 3 3 0 0 1-3-3"/>
    <path fill="#db4446" d="M282 245v-1h-2a6 6 0 0 1-3-1l-1-2-3 1 2 1a5 5 0 0 0 2 2h5"/>
    <path fill="none" d="M282 245v-1h-2a6 6 0 0 1-3-1l-1-2-3 1 2 1a5 5 0 0 0 2 2h5z"/>
    <path fill="#ed72aa" d="M290 243v5-1h-1v1l1 1 1 1v2l-1-1-1-1 1 2-1 2-1-2-1-1 1 2v3l-1-1-1-1v1l2 5c1 2 3 4 6 3s2-5 1-7l-1-5 1-3a9 9 0 0 1 0-4l1-2v-3l1 2v1l1-2 3-1v-1l-1 3-2 2h3l-2 2-1 2-2 1v5l2 6c0 1 0 4-2 5l-3 2c-1 0-2 1-2 3l2 2 1 1 1 1-1 2-1 3v2h-1l-1 1v-2l-1 1v1l-1-1-1-1 1-1s1 0 0 0h-1v-1-1h1l2-1-1-1-1-1v-1 3l-1-1v-2 3l-1-1-1-1-1-2v-1l1-2h-2l-1 1v5a4 4 0 0 1 0 1h-1l-2-1h-1-1l-1 1v1l-1-1h-1v-1h-1l-1-1v-1h2l-1-1v-1h1l1-1v2h4v-2h-1v1-2l-1-1v2-3c0-1 0-2 2-2h5l-4-2-2-3-1-1h-1a5 5 0 0 0-1 1l-1 1v-2l-1 2-1 1v-2l-1 1-2 1v1l-1 1-1-1c-1 0 0 0 0 0h-1l1-1h-1-1v-1l1-1h1l-1-1-1-1h1l1-1 1 1h2l1-1 2-1-1-1-1-1a9 9 0 0 0-2-1h-2 1l1-1h-1l-2-1h-1 3l-1-1-1-1h-2v-1-1h1l-1-1-1-1 1-1h1l1 1v-1l1-1h2l-1 2a2 2 0 0 0 0 1 4 4 0 0 0 1 2h2l2 2h5l1-1-1-2h1l2-1-1-2-2-1v-1l2-1h2v-1h2l3 1 2 3"/>
    <path d="M279 242v-1h1l-1 1c1 0 0 0 0 0"/>
    <path fill="none" d="M279 242v-1h1l-1 1c1 0 0 0 0 0z"/>
    <path d="M283 241v-1h1l2 1h-3"/>
    <path fill="none" d="M283 241v-1h1l2 1h-3zM289 247v-1a8 8 0 0 1-1 0"/>
    <path fill="#db4446" d="M268 242h2v-1l-2-1v2"/>
    <path fill="none" d="M268 242h2v-1l-2-1v2z"/>
    <path fill="#db4446" d="M266 243l-2-1-1 1h1v1l1-1"/>
    <path fill="none" d="M266 243l-2-1-1 1h1v1l1-1z"/>
    <path fill="#db4446" d="M264 246l-1 1v1l1-1 1 1v-1l-1-1"/>
    <path fill="none" d="M264 246l-1 1v1l1-1 1 1v-1l-1-1z"/>
    <path d="M279 246l1-1v1h-1"/>
    <path fill="none" d="M279 246l1-1v1h-1"/>
    <path d="M280 246l1-1v1h-1"/>
    <path fill="none" d="M280 246l1-1v1h-1"/>
    <path d="M280 243h1-1"/>
    <path fill="none" d="M280 243h1-1"/>
    <path d="M281 243h1-1"/>
    <path fill="none" d="M281 243h1-1M275 249l-1 1v1h4l-1 1v3h1a5 5 0 0 0 2-1l1-1v3l1-1 1-1v-1 2l1 2 1-2v-2l1 1m-12 1l1-1 1-1 1-1m1 6l2-1a4 4 0 0 0 1-1"/>
    <path fill="#db4446" d="M267 256h-1l-1 1h2v-1"/>
    <path fill="none" d="M267 256h-1l-1 1h2v-1z"/>
    <path fill="#db4446" d="M266 259l-1 1-1 1h2v-1-1"/>
    <path fill="none" d="M266 259l-1 1-1 1h2v-1-1z"/>
    <path fill="#db4446" d="M268 262v1l1 1v-1l-1-1"/>
    <path fill="none" d="M268 262v1l1 1v-1l-1-1zm17 2l2 2-1 2"/>
    <path fill="#db4446" d="M275 269h-3l2 1h1v-1"/>
    <path fill="none" d="M275 269h-3l2 1h1v-1z"/>
    <path fill="#db4446" d="M273 272l-1 1-1 1 1-1 1 1v-1a14 14 0 0 0 0-1"/>
    <path fill="none" d="M273 272l-1 1-1 1 1-1 1 1v-1a14 14 0 0 0 0-1z"/>
    <path fill="#db4446" d="M275 275v1l1 1v-1l-1-1"/>
    <path fill="none" d="M275 275v1l1 1v-1l-1-1z"/>
    <path fill="#db4446" d="M288 277h-2v1h2v-1"/>
    <path fill="none" d="M288 277h-2v1h2v-1z"/>
    <path fill="#db4446" d="M288 280v1a7 7 0 0 0 0 1l1-1h1l-1-1h-1"/>
    <path fill="none" d="M288 280v1a7 7 0 0 0 0 1l1-1h1l-1-1h-1z"/>
    <path fill="#db4446" d="M291 281l1 1 1 1-1-2h1l-1-1-1 1"/>
    <path fill="none" d="M291 281l1 1 1 1-1-2h1l-1-1-1 1z"/>
    <path fill="#ffd691" stroke="#000" d="M259 338c2 0 3 2 3 4s-2 4-6 4c-2 0-5-2-5-4s1-4 3-4v-1l-1-1h1l1 1 1-1s0 0 0 0h1v1l1-1h1v1h0"/>
    <path fill="#058e6e" stroke="#000" d="M256 349l-6-4h-6l2 2a11 11 0 0 0 4 2l6-1m1 1s3-3 5-3h7l-1 1c-1 0-2 2-5 2h-6"/>
    <path fill="#ad1519" stroke="#000" d="M256 345a5 5 0 0 1 0-7 5 5 0 0 1 2 4 5 5 0 0 1-2 3"/>
    <path fill="#058e6e" stroke="#000" d="M255 351l1-3v-2h1v5h-2"/>
    <path fill="#fff" d="M307 203l1-1 1 1-1 2a1 1 0 0 1-1-1"/>
    <path fill="none" d="M307 203l1-1 1 1-1 2a1 1 0 0 1-1-1z"/>
    <path fill="#fff" d="M308 201l2-1a1 1 0 0 1 1 1l-1 1a1 1 0 0 1-2-1"/>
    <path fill="none" d="M308 201l2-1a1 1 0 0 1 1 1l-1 1a1 1 0 0 1-2-1z"/>
    <path fill="#fff" d="M310 198l1-1a1 1 0 0 1 1 1l-1 1a1 1 0 0 1-2-1"/>
    <path fill="none" d="M310 198l1-1a1 1 0 0 1 1 1l-1 1a1 1 0 0 1-2-1z"/>
    <path fill="#fff" d="M310 194l1-1a1 1 0 0 1 1 1l-1 1-1-1"/>
    <path fill="none" d="M310 194l1-1a1 1 0 0 1 1 1l-1 1-1-1z"/>
    <path fill="#fff" d="M309 191l1-1a1 1 0 0 1 1 1l-1 1a1 1 0 0 1-1-1"/>
    <path fill="none" d="M309 191l1-1a1 1 0 0 1 1 1l-1 1a1 1 0 0 1-1-1z"/>
    <path fill="#fff" d="M307 188l1-1a1 1 0 0 1 1 1l-1 1a1 1 0 0 1-1-1"/>
    <path fill="none" d="M307 188l1-1a1 1 0 0 1 1 1l-1 1a1 1 0 0 1-1-1z"/>
    <path fill="#fff" d="M305 185l1-1a1 1 0 0 1 1 1l-1 1a1 1 0 0 1-1-1"/>
    <path fill="none" d="M305 185l1-1a1 1 0 0 1 1 1l-1 1a1 1 0 0 1-1-1z"/>
    <path fill="#fff" d="M302 183l1-1 1 1-1 1a1 1 0 0 1-1-1"/>
    <path fill="none" d="M302 183l1-1 1 1-1 1a1 1 0 0 1-1-1z"/>
    <path fill="#fff" d="M299 182l1-1 1 1-1 1a1 1 0 0 1-1-1"/>
    <path fill="none" d="M299 182l1-1 1 1-1 1a1 1 0 0 1-1-1z"/>
    <path fill="#fff" d="M296 180l1-1a1 1 0 0 1 1 1l-1 1a1 1 0 0 1-2-1"/>
    <path fill="none" d="M296 180l1-1a1 1 0 0 1 1 1l-1 1a1 1 0 0 1-2-1z"/>
    <path fill="#fff" d="M292 180l1-1 1 1-1 1a1 1 0 0 1-1-1"/>
    <path fill="none" d="M292 180l1-1 1 1-1 1a1 1 0 0 1-1-1z"/>
    <path fill="#fff" d="M288 180l1-1a1 1 0 0 1 2 1l-2 1a1 1 0 0 1-1-1"/>
    <path fill="none" d="M288 180l1-1a1 1 0 0 1 2 1l-2 1a1 1 0 0 1-1-1z"/>
    <path fill="#fff" d="M285 180l1-1 1 1-1 1a1 1 0 0 1-1-1"/>
    <path fill="none" d="M285 180l1-1 1 1-1 1a1 1 0 0 1-1-1z"/>
    <path fill="#fff" d="M281 180l1-1 2 1-1 1a1 1 0 0 1-2-1"/>
    <path fill="none" d="M281 180l1-1 2 1-1 1a1 1 0 0 1-2-1z"/>
    <path fill="#fff" d="M283 183l1-1 1 1-1 1a1 1 0 0 1-1-1m1 3l1-1 1 1-1 1a1 1 0 0 1-1-1m0 3l1-1a1 1 0 0 1 1 1l-1 1a1 1 0 0 1-1-1m-1 3l1-1a1 1 0 0 1 1 1l-1 1a1 1 0 0 1-1-1m-2 3l1-1 1 1-1 1a1 1 0 0 1-1-1M279 178l1-1 1 1-1 1a1 1 0 0 1-1-1"/>
    <path fill="none" d="M279 178l1-1 1 1-1 1a1 1 0 0 1-1-1z"/>
    <path fill="#fff" d="M276 176l1-1 1 1-1 1a1 1 0 0 1-1-1"/>
    <path fill="none" d="M276 176l1-1 1 1-1 1a1 1 0 0 1-1-1z"/>
    <path fill="#fff" d="M272 175l2-1 1 1-1 1a1 1 0 0 1-2-1"/>
    <path fill="none" d="M272 175l2-1 1 1-1 1a1 1 0 0 1-2-1z"/>
    <path fill="#fff" d="M269 174l1-1 1 1-1 1a1 1 0 0 1-1-1"/>
    <path fill="none" d="M269 174l1-1 1 1-1 1a1 1 0 0 1-1-1z"/>
    <path fill="#fff" d="M265 174l1-1 2 1-1 1a1 1 0 0 1-2-1"/>
    <path fill="none" d="M265 174l1-1 2 1-1 1a1 1 0 0 1-2-1z"/>
    <path fill="#fff" d="M262 175l1-1a1 1 0 0 1 1 1l-1 1a1 1 0 0 1-1-1"/>
    <path fill="none" d="M262 175l1-1a1 1 0 0 1 1 1l-1 1a1 1 0 0 1-1-1z"/>
    <path fill="#fff" d="M259 176l1-1 1 1-1 1a1 1 0 0 1-1-1"/>
    <path fill="none" d="M259 176l1-1 1 1-1 1a1 1 0 0 1-1-1z"/>
    <path fill="#fff" d="M202 203l1-1a1 1 0 0 1 2 1l-1 2a1 1 0 0 1-2-1"/>
    <path fill="none" d="M202 203l1-1a1 1 0 0 1 2 1l-1 2a1 1 0 0 1-2-1z"/>
    <path fill="#fff" d="M201 201l1-1 1 1-1 1a1 1 0 0 1-1-1"/>
    <path fill="none" d="M201 201l1-1 1 1-1 1a1 1 0 0 1-1-1z"/>
    <path fill="#fff" d="M200 198l1-1a1 1 0 0 1 1 1l-1 1a1 1 0 0 1-1-1"/>
    <path fill="none" d="M200 198l1-1a1 1 0 0 1 1 1l-1 1a1 1 0 0 1-1-1z"/>
    <path fill="#fff" d="M200 194l1-1 1 1-1 1-1-1"/>
    <path fill="none" d="M200 194l1-1 1 1-1 1-1-1z"/>
    <path fill="#fff" d="M200 191l2-1 1 1-1 1a1 1 0 0 1-2-1"/>
    <path fill="none" d="M200 191l2-1 1 1-1 1a1 1 0 0 1-2-1z"/>
    <path fill="#fff" d="M202 188l1-1a1 1 0 0 1 1 1l-1 1a1 1 0 0 1-1-1"/>
    <path fill="none" d="M202 188l1-1a1 1 0 0 1 1 1l-1 1a1 1 0 0 1-1-1z"/>
    <path fill="#fff" d="M205 185l1-1 1 1-1 1-2-1"/>
    <path fill="none" d="M205 185l1-1 1 1-1 1-2-1z"/>
    <path fill="#fff" d="M207 183l1-1 1 1-1 1a1 1 0 0 1-1-1"/>
    <path fill="none" d="M207 183l1-1 1 1-1 1a1 1 0 0 1-1-1z"/>
    <path fill="#fff" d="M210 182l2-1a1 1 0 0 1 1 1l-1 1a1 1 0 0 1-2-1"/>
    <path fill="none" d="M210 182l2-1a1 1 0 0 1 1 1l-1 1a1 1 0 0 1-2-1z"/>
    <path fill="#fff" d="M214 180l1-1 1 1-1 1a1 1 0 0 1-1-1"/>
    <path fill="none" d="M214 180l1-1 1 1-1 1a1 1 0 0 1-1-1z"/>
    <path fill="#fff" d="M217 180l2-1a1 1 0 0 1 1 1l-2 1a1 1 0 0 1-1-1"/>
    <path fill="none" d="M217 180l2-1a1 1 0 0 1 1 1l-2 1a1 1 0 0 1-1-1z"/>
    <path fill="#fff" d="M221 180l1-1 1 1-1 1a1 1 0 0 1-1-1"/>
    <path fill="none" d="M221 180l1-1 1 1-1 1a1 1 0 0 1-1-1z"/>
    <path fill="#fff" d="M224 180l2-1a1 1 0 0 1 1 1l-1 1a1 1 0 0 1-2-1"/>
    <path fill="none" d="M224 180l2-1a1 1 0 0 1 1 1l-1 1a1 1 0 0 1-2-1z"/>
    <path fill="#fff" d="M228 180l1-1 1 1-1 1a1 1 0 0 1-1-1"/>
    <path fill="none" d="M228 180l1-1 1 1-1 1a1 1 0 0 1-1-1z"/>
    <path fill="#fff" d="M226 183l1-1 1 1-1 1a1 1 0 0 1-1-1m-1 3l1-1 2 1-2 1-1-1m0 3l1-1 1 1-1 1a1 1 0 0 1-1-1m1 3l1-1a1 1 0 0 1 2 1l-2 1a1 1 0 0 1-1-1m2 3l1-1 1 1-1 1a1 1 0 0 1-1-1M230 178l2-1 1 1-2 1a1 1 0 0 1 0-1"/>
    <path fill="none" d="M230 178l2-1 1 1-2 1a1 1 0 0 1 0-1z"/>
    <path fill="#fff" d="M234 176l1-1 1 1-1 1a1 1 0 0 1-2-1"/>
    <path fill="none" d="M234 176l1-1 1 1-1 1a1 1 0 0 1-2-1z"/>
    <path fill="#fff" d="M237 175l1-1 1 1-1 1a1 1 0 0 1-1-1"/>
    <path fill="none" d="M237 175l1-1 1 1-1 1a1 1 0 0 1-1-1z"/>
    <path fill="#fff" d="M240 174l2-1a1 1 0 0 1 1 1l-1 1a1 1 0 0 1-2-1"/>
    <path fill="none" d="M240 174l2-1a1 1 0 0 1 1 1l-1 1a1 1 0 0 1-2-1z"/>
    <path fill="#fff" d="M244 174l1-1a1 1 0 0 1 1 1l-1 1a1 1 0 0 1-1-1"/>
    <path fill="none" d="M244 174l1-1a1 1 0 0 1 1 1l-1 1a1 1 0 0 1-1-1z"/>
    <path fill="#fff" d="M247 175l2-1a1 1 0 0 1 1 1l-2 1a1 1 0 0 1 0-1"/>
    <path fill="none" d="M247 175l2-1a1 1 0 0 1 1 1l-2 1a1 1 0 0 1 0-1z"/>
    <path fill="#fff" d="M251 176l1-1 1 1-1 1a1 1 0 0 1-1-1"/>
    <path fill="none" d="M251 176l1-1 1 1-1 1a1 1 0 0 1-1-1z"/>
    <path fill="#c8b100" stroke="#000" d="M222 244h-1v-1h-1v4h1v3h-3v7h2v15h-4v8h29v-8h-4v-15h2v-7h-3v-3h1v-4h-1v1h-1v-1h-2v1h-1v-1h-2v4h2v3h-4v-9h2v-4h-2v1h-1v-1h-1v1h-1v-1h-2v4h2v9h-4v-3h2v-4h-2v1h-1v-1h-2v1zm-6 36h29m-29-2h29m-29-2h29m-29-2h29m-29-2h29m-25-1h21m-21-2h21m-21-2h21m-21-2h21m-21-2h21m-21-2h21m-21-2h21m-23-2h25m-25-2h25m-25-2h25m-25-1h25m-22-2h18m-11-2h4m-3-2h3m-3-2h3m-3-2h3m-5-2h7m-13 8h4m-5-3h7m-7 35v-2m0-2v-2m-2 2v2m3 0v-2m2 4v-2m0-2v-2m0-2v-1m0-2v-2m-2 7v-2m-3 2v-2m7 0v2m2-2v-1m-6-2v2m4-2v2m3-2v2m-1-2v-2m1-2v2m0-6v2m-1-4v2m1-4v2m-3-2v2m-4-2v2m-1-4v2m3-2v2m4-2v2m2-4v2m-4-2v2m-4-2v2m-1-3v1m7-2v2m-4-5v2m16-2h-3m5-3h-7m7 35v-2m0-2v-2m2 2v2m-4 0v-2m-1 4v-2m0-2v-2m0-2v-1m0-2v-2m2 7v-2m3 2v-2m-7 0v2m-2-2v-1m5-2v2m-3-2v2m-4-2v2m2-2v-2m-2-2v2m0-6v2m2-4v2m-2-4v2m4-2v2m4-2v2m1-4v2m-3-2v2m-4-2v2m-2-4v2m4-2v2m3-2v2m2-3v1m-7-2v2m4-5v2m-8 19v-2m0-6v-2m0 6v-2m0-6v-2m0-2v-1m0-4v-2m0-2v-2m-9 5h4m4-6h3m4 6h3"/>
    <path fill="#c8b100" stroke="#000" d="M235 280v-5c0-1 0-4-5-4-4 0-4 3-4 4v5h9z"/>
    <path fill="#c8b100" stroke="#000" d="M227 275h-2l1-3 2 2-1 1zm7 0h2l-1-3-2 2 1 1zm-3-2l1-2a6 6 0 0 0-2-1l-2 1 2 2h1zm-4-6v-5c0-1-1-3-3-3s-2 2-2 3v5h5zm7 0v-5c0-1 1-3 3-3s2 2 2 3v5h-5zm-2-13l1-4h-5v4h4zm4 0l-1-4h5l-1 4h-3zm-11 0v-4h-4v4h4z"/>
    <path fill="#0039f0" d="M234 280v-4c0-1-1-3-4-3a3 3 0 0 0-3 3v4h7zm-8-13v-5c0-1 0-2-2-2s-2 1-2 2v5h4zm9 0v-5c0-1 0-2 2-2s2 1 2 2v5h-4z"/>
    <path fill="#ad1519" d="M240 288c0-11 7-19 16-19s17 8 17 19c0 10-8 18-17 18s-16-8-16-18"/>
    <path fill="none" stroke="#000" d="M240 288c0-11 7-19 16-19s17 8 17 19c0 10-8 18-17 18s-16-8-16-18z"/>
    <path fill="#005bbf" d="M244 288c0-8 6-14 12-14 7 0 12 6 12 14s-5 13-12 13c-6 0-12-6-12-13"/>
    <path fill="none" stroke="#000" d="M244 288c0-8 6-14 12-14 7 0 12 6 12 14s-5 13-12 13c-6 0-12-6-12-13z"/>
    <path fill="#c8b100" d="M251 278l-2 3 1 3a2 2 0 0 0-2-1 2 2 0 0 0-1 1v1l1 1h1l1 1h-2v1h2l-1 2 1-1 1 1v-1l2 1-1-2h1v-1h-1a1 1 0 0 1 0-1l1-1 1 1v-2l-1-1-1 1v-3l-1-3"/>
    <path fill="none" d="M251 278l-2 3 1 3a2 2 0 0 0-2-1 2 2 0 0 0-1 1v1l1 1h1l1 1h-2v1h2l-1 2 1-1 1 1v-1l2 1-1-2h1v-1h-1a1 1 0 0 1 0-1l1-1 1 1v-2l-1-1-1 1v-3l-1-3z"/>
    <path fill="#c8b100" d="M248 288h5v-1h-5v1z"/>
    <path fill="none" d="M248 288h5v-1h-5v1z"/>
    <path fill="#c8b100" d="M262 278l-2 3 1 3-2-1-1 1v1l1 1h1a1 1 0 0 1 1 1h-2v1h1v2l1-1 1 1v-1l1 1v-2h1v-1h-1a1 1 0 0 1 0-1l1-1 1 1v-2l-1-1-2 1 1-3-1-3"/>
    <path fill="none" d="M262 278l-2 3 1 3-2-1-1 1v1l1 1h1a1 1 0 0 1 1 1h-2v1h1v2l1-1 1 1v-1l1 1v-2h1v-1h-1a1 1 0 0 1 0-1l1-1 1 1v-2l-1-1-2 1 1-3-1-3z"/>
    <path fill="#c8b100" d="M259 288h5v-1h-5v1z"/>
    <path fill="none" d="M259 288h5v-1h-5v1z"/>
    <path fill="#c8b100" d="M256 288l-1 3v2a2 2 0 0 0-1-1 2 2 0 0 0-2 2l1 1h1l1 1h-1v1h1l-1 2 1-1 1 1 1-1 1 1-1-2h1v-1h-1l1-1h1l1-1-2-2a2 2 0 0 0-1 1l1-2c0-2-2-3-2-3"/>
    <path fill="none" d="M256 288l-1 3v2a2 2 0 0 0-1-1 2 2 0 0 0-2 2l1 1h1l1 1h-1v1h1l-1 2 1-1 1 1 1-1 1 1-1-2h1v-1h-1l1-1h1l1-1-2-2a2 2 0 0 0-1 1l1-2c0-2-2-3-2-3z"/>
    <path fill="#c8b100" d="M254 297h4v-1h-4v1z"/>
    <path fill="none" d="M254 297h4v-1h-4v1z"/>
    <path fill="#c8b100" d="M289 238a2 2 0 0 1 0 1h-1a1 1 0 0 1 0-1 1 1 0 0 1-1 0v-1h-1l-1-1v2a7 7 0 0 1-1 1l3 1a10 10 0 0 1 3 3l1-1h2-2v-2h-1a1 1 0 0 1-1 0 1 1 0 0 1 0-1v-1"/>
    <path fill="none" d="M289 238a2 2 0 0 1 0 1h-1a1 1 0 0 1 0-1 1 1 0 0 1-1 0v-1h-1l-1-1v2a7 7 0 0 1-1 1l3 1a10 10 0 0 1 3 3l1-1h2-2v-2h-1a1 1 0 0 1-1 0 1 1 0 0 1 0-1v-1z"/>
    <path d="M287 239"/>
    <path fill="none" d="M287 239z"/>
    <path d="M288 240v-1 1h1-1"/>
    <path fill="none" d="M288 240v-1 1h1-1"/>
    <path d="M286 239v-1l1 1h-1"/>
    <path fill="none" d="M286 239v-1l1 1h-1"/>
    <path d="M285 238"/>
    <path fill="none" d="M285 238z"/>
    <path d="M289 241v-1 1"/>
    <path fill="none" d="M289 241v-1 1z"/>
    <path d="M290 241h-1 1"/>
    <path fill="none" d="M290 241h-1 1"/>
    <path d="M291 242h-1 1"/>
    <path fill="none" d="M291 242h-1 1z"/>
    <path fill="#c8b100" d="M288 236h-1v1l1-1"/>
    <path fill="none" d="M288 236h-1v1l1-1"/>
    <path fill="#c8b100" d="M286 236v1h1v-1h-1"/>
    <path fill="none" d="M286 236v1h1v-1h-1"/>
    <path fill="#c8b100" d="M288 238l-1-1h1v1"/>
    <path fill="none" d="M288 238l-1-1h1v1"/>
    <path fill="#c8b100" d="M287 237"/>
    <path fill="none" d="M287 237z"/>
    <path fill="#c8b100" d="M285 236v-1a2 2 0 0 0-1 0h1v1"/>
    <path fill="none" d="M285 236v-1a2 2 0 0 0-1 0h1v1z"/>
    <path fill="#c8b100" d="M286 236l-1 1v-1h1"/>
    <path fill="none" d="M286 236l-1 1v-1h1"/>
    <path fill="#c8b100" d="M285 236"/>
    <path fill="none" d="M285 236z"/>
    <path fill="#c8b100" d="M290 237l-1 1h1v-1"/>
    <path fill="none" d="M290 237l-1 1h1v-1"/>
    <path fill="#c8b100" d="M289 238h-1 1v-1 1"/>
    <path fill="none" d="M289 238h-1 1v-1 1"/>
    <path fill="#c8b100" d="M290 239l-1-1h1v1"/>
    <path fill="none" d="M290 239l-1-1h1v1"/>
    <path fill="#c8b100" d="M289 238h1l-1 1v-1"/>
    <path fill="none" d="M289 238h1l-1 1v-1z"/>
    <path fill="#c8b100" d="M292 239v1h-1l1-1"/>
    <path fill="none" d="M292 239v1h-1l1-1"/>
    <path fill="#c8b100" d="M292 241l-1-1h1v1"/>
    <path fill="none" d="M292 241l-1-1h1v1"/>
    <path fill="#c8b100" d="M291 239l-1 1h1v-1"/>
    <path fill="none" d="M291 239l-1 1h1v-1"/>
    <path fill="#c8b100" d="M292 240h-1"/>
    <path fill="none" d="M292 240h-1z"/>
    <path fill="#c8b100" d="M293 242h1-1"/>
    <path fill="none" d="M293 242h1-1z"/>
    <path fill="#c8b100" d="M292 241v1h1v-1h-1"/>
    <path fill="none" d="M292 241v1h1v-1h-1"/>
    <path fill="#c8b100" d="M293 242"/>
    <path fill="none" d="M293 242zm41-23h-3 1v-2h-1 1v-1h1v3h1M179 232v-2m0 2v-2m0 2v-2m-1 2v-2M178 232v-2m0 1v-1m0 1v-1m-1 1v-1m0 1v-1m-1 1v-1m0 1v-1m1 1v-1m-1 1v-1m0 1v-1m0 1v-1m-2 1M181 232v-2m-1 2v-2m0 2v-2m152 2v-2m0 2v-2m0 2v-2m-1 2v-2M331 232v-2m-1 1v-1m1 1v-1m-1 1v-1m0 1v-1m-1 1v-1m0 1v-1m1 1v-1m-1 1v-1m0 1v-1m-1 1v-1m-1 1M334 232v-2m-1 2v-2m0 2v-2"/>
</svg>
