<svg xmlns="http://www.w3.org/2000/svg" viewBox="0 0 512 512">
    <defs>
        <clipPath id="a">
            <path d="M229 6h490v490H229z"/>
        </clipPath>
    </defs>
    <g fill-rule="evenodd" clip-path="url(#a)" transform="translate(-240 -7) scale(1.046)">
        <path fill="#ffc621" d="M2 10h992v476H2z"/>
        <path fill="#ef2118" d="M0 334h993v162H0z"/>
        <path fill="#298c08" d="M2 6h992v172H2z"/>
        <ellipse cx="534" cy="353" fill="#006bc6" rx="200" ry="200" transform="matrix(.515 0 0 .515 205 77)"/>
        <path fill="#ffc621" d="M434 186l-6 4 22 32 6-4-22-32zm28 75l-9-7 4-12-46 1-13-10 62-1 12-35 6 14-16 50zm73-68l-6-4-23 31 5 4 24-31zm-62 49l3-10h13l-15-44 6-16 20 60h37l-12 11-52-1zm86 49l3-7-37-12-2 6 36 13zm-66-44h12l4 12 37-27h16l-50 37 11 36-14-8-16-50zm-19 97l8 1v-39h-7v39zm21-76l4 10-10 8 38 27 4 16-51-37-30 22 3-15 42-31zm-98 12l2 7 37-11-2-7-37 11zm79-4l-9 7-10-7-14 44-13 9 18-60-30-22 16-1 42 30z"/>
    </g>
</svg>
