<svg xmlns="http://www.w3.org/2000/svg" viewBox="0 0 512 512">
    <path fill="#68bfe5" d="M0 0v512h512V0H0z"/>
    <g stroke-miterlimit="5">
        <path fill="#fff" d="M310 254v136c0 45 81 71 81 71s80-26 80-70V254z"/>
        <path fill="#d21034" d="M380 302v61h-70v23h70v71l11 4 11-4v-71h69v-23h-69v-61z"/>
        <path fill="#d21034" d="M310 254h161v53H310z"/>
        <g stroke-miterlimit="3">
            <g fill="#fff" stroke="#000" transform="translate(-208 158) scale(.66486)">
                <ellipse cx="798" cy="192" rx="14" ry="11"/>
                <ellipse cx="798" cy="187" rx="12" ry="6"/>
                <ellipse cx="798" cy="199" rx="12" ry="6"/>
                <ellipse cx="798" cy="192" rx="12" ry="6"/>
            </g>
            <path fill="#ffd100" stroke="#000" d="M467 296l-1-3s-4-2-4-4c0-5-2-7-5-7a6 6 0 0 0-5 0l-7 1-2-1a3 3 0 0 1-3-1l-2-3c3 0 5-2 8-5 4-4 7-3 7-3-2 4 0 4 0 4 5-3 1-9-1-9l-1-1c0 2-2 2-2 2 1-7-3-9-3-9l-1 2c-1 4-5 4-10 2s-16 2-19 3c-4 2-11 4-17 1s-7-3-10-3c-2 1-6 2-8 1a9 9 0 0 0-3-1v-1c-2-2 0-4 0-4s-3 1-2 7l1 1 1 2v1h1c0 2 2 0 2-1 0 0-1 6 6 7l-1-1v-2c0-1-2-1-1-2 2-1 2-2 5 0s6 1 6 1l-1-3c1 0 5 5 7 5 3-1 7-3 9-2l8-3c8-1 18-5 22-1 0 0 0 2 2 3 0 0-1 6-11 3l-3-1s-1-2-20 3l-1 1c-1 0-2-1-6 1s-18 6-26 4h-4 1l-1-1c-7-1-6-4-6-4l1 1c1-2-1-5-1-5a4 4 0 0 0 0-1h1c3-3 7-4 7-4-2-3-7-1-7-1l-2-8c-5 1-8 5-8 5 0-4-4-6-4-6v8h0v1h0s-2 0-4 5l-1 2v-1s-2 3-7 0c0 0-7-4-10-4l-4 2s-6 0-7 3c0 0-5 2-1 5l1 3s0-4 1-3l1 1 1 2h0a9 9 0 0 1 1-2h0l1 1h2l2-1v0l1-2a4 4 0 0 0 3-1l6 5h0-1l6 1-1 4-1 1h5v1l-2 6v0s-5 2-8 5l-1-1-4-2h-3v-4l-1-2h-2a22 22 0 0 0-1 1h-1l-1 1a12 12 0 0 0 0 0v0h-2l-2 1v2c-2 1-1 3-1 3 1 6 12 4 12 4l4 1 3 3c2 0 0-2 6-3 7-2 9-4 9-4 2-1 2-3 2-4v1c1 2-1 3-1 3l5-1c2-1 2-3 2-3 2 6 6 6 6 6l1-2h1l-1-3 2 2 1-1 1 2 1-1 3 1a7 7 0 0 0 0-1c5 3 12-1 12-1 2 1 2-1 2-1 3 1 3-1 3-1 5 0 9-4 9-4 3 0 3-2 3-2s3 0 5-3c6-8 15-4 15-4h-5c-14 0-8 9-8 9h1c1 1 5 4 4 7v0c-3 4-8 0-9-3-2-3-5-3-5-3s-7 2-4 8h0l3 5c2 2 7 2 11 1l10-4 5-4c2-3-3-4-4-6-1-1 1-1 1-1 4 2 4-5 4-5a7 7 0 0 0 5 5c2-2 0-7 0-7 6 10 9 9 9 9-3-2-1-5-1-5 3 11 14 1 14 1-1 2 0 3 1 4s2 1 2 3c-1 2-6 2-6 2s-5-1-5 4l5 1h8l3-2c4-1 5-4 5-4z"/>
            <path d="M319 278l1-1 1 1-1-3 2-1v-1l-2 1a2 2 0 0 0 0 1v2h-1zm141 24l-8-1 3-2-1-1c-2 2-3 3-2 4h8zm-58 1c-1-1-1-2 1-4h-1c-1 2-2 3-1 5z"/>
            <path d="M398 299l3 5 1-1c-3-1-4-3-4-4 0-3 3-5 3-5h-1s-3 2-2 5zm52 0l-1 3h1v-2a3 3 0 0 1 2-2l-2 1zm-120-23l-1 2a1 1 0 0 1-1 0h-1l-1-1a2 2 0 0 1 0-1l2-2h-1l-1 2v2h3l1-2c4 1 6-3 6-3s-3 4-6 3z"/>
            <path d="M323 275v2l1 1h1l1-1h-1l-1 1-1-1a2 2 0 0 1 0-2l2-2-2 2zm-5 21l1-1h2l1 3v1h1c1-2-2-4-2-4l-2-1-1 2zm10-5l-3 1v2l2 3-1-3-1-1a1 1 0 0 1 0-1l3-1 1 3-1-3z"/>
            <path d="M323 292a1 1 0 0 0 0 1s0 4 2 5c-2-1-2-5-2-5l1-1h1-2zM322 293l-1 2 1-2h0zM366 271l1 4h-1v-1 1 2l6 2v1h1l1 1v-1l2 1h-1 1l8 5s-3 2-8 1h-1v1l4 6c-1 0-5 0-7-2v1l3 5-3-1h-1v1l-1-1v-1l-1 1-2-2a5 5 0 0 0-1 0l2 3h-2v2c-1 0-4-1-6-5l-2 2-4 1a3 3 0 0 0 0-2 13 13 0 0 1 0-2l1-2v-1s-6 3-10 2l2-5v-2h-5l1-1 1-3v-1l-5-1a7 7 0 0 1 3-1 4 4 0 0 0 0-2h2v-2h-1v2h-2l-1-1 1 1a3 3 0 0 1 0 2 8 8 0 0 0-3 1v1l5 1a6 6 0 0 0-1 3 2 2 0 0 0-1 1v1h1a7 7 0 0 0 5 0v1c-2 2-2 5-2 5 3 1 7 0 9-1v2a15 15 0 0 0 0 2l-1 2v1l5-2 2-1c2 5 6 5 6 5a9 9 0 0 0 1-3 292 292 0 0 0 1 0v-1h2l1 2h1v-1h3l-2-5 7 1a20 20 0 0 0-4-6c6 1 9-2 9-2v-1a36 36 0 0 0-8-4h1-1a9 9 0 0 0-4-1l-1-1c-4 0-5-1-5-2v-1-1l-1-4z"/>
            <path d="M349 270l-2 3h-6a3 3 0 0 0 2 2l4 1c-1 1-3 3-3 5h5l1 4v3-1l4-4 1-1 3 4h1v-3a2 2 0 0 0 1-2l2 1c1 2 4 1 4 1v-1h-2a1 1 0 0 1-1-1v-1-2l1 1 2 1h1-1l-1-3v-1c1-1 2-4 1-6v2l-1 4v1a2 2 0 0 0 0 1l1 1h-2l-2-1 1 2v1l1 1 1 1-3-1-2-2h-1v1l1 1-1 1-1 3-3-3v-1h1-1a2 2 0 0 0-1 1 10 10 0 0 1-3 4 5 5 0 0 0 0-1l-1-2-1-4c-2 2-5 1-5 1 0-2 3-5 3-5l-4-1a3 3 0 0 1-1-2h5a5 5 0 0 0 2-3l4-5c-1 0-2 0-4 5z"/>
            <path d="M353 263l-2 3h1a21 21 0 0 1 13 6l2-2c-5-7-14-7-14-7zm0 1c1 0 9 0 13 6l-1 1a22 22 0 0 0-13-6 420 420 0 0 1 1-1z"/>
            <path d="M352 268a7 7 0 0 0-1 3 5 5 0 0 0-2 4l1 3c1 2 1 4 5 3s4-1 5-3l1-1 2-2 1-1 1-3a7 7 0 0 1-1 3l-1 1a2 2 0 0 1-2 2 3 3 0 0 0-1 1h-1l-4 3c-3 1-4-1-5-3v-1c-1-2 0-5 1-6l1-3 3-2-3 2z"/>
            <path d="M350 277h3v2h4-3a2 2 0 0 1-1-2h-3v-3h-1l1 3z"/>
            <path d="M352 275v1l1 1h2v-1a2 2 0 0 0-3-1zm2 2l-2-1v-1a2 2 0 0 1 3 1v1h-1zm-2-2zm1 4v1h1l1-1h-2zm1 0v1-1zm-3-2v2l1-2h-1zm0 1z"/>
            <path d="M350 277l1 3 1 1h2l1-1h1v-1l-1 1h-2l-2-1-1-2zm1-6a3 3 0 0 0-1 2l1-2a2 2 0 0 1 2 0h-2zm7 4c1 0 3 1 1 3h1c1-2-1-4-1-4l-1 1zm-6 0l2 1h-2v-1zm5 1zm0 1zM357 278h-1 1zm-5-5zM351 274zm4-6s2 1 0 4l1-2-1-2zm9 4l-3-1h-2l-2 2 2-2c1-1 2 0 3 1h2z"/>
            <path d="M363 272a1 1 0 0 1-1 0l-2-1-2 2 3-2c0 1 1 2 2 1z"/>
            <path d="M362 273h-2l-2-1 2 1h2z"/>
            <path d="M360 273a1 1 0 0 1-1-1l2 1h-1z"/>
            <path d="M360 272v1l-1-1h1zm-5-2v1l-1-1h1c1 0 0 0 0 0z"/>
            <path d="M354 269s2 0 1 3v-3l-1-1v1z"/>
            <path d="M354 270l1 2v-1l-1-1v-1l-1 1z"/>
            <path d="M354 270l1 1-1-1 1-1h-1v1zm3 2v0zm10 11c3 0 8 5 8 5l1-1-9-5v1zm2 6l3 4v-1s-2-1-2-3h-1zm-6 0c0 3 3 6 3 6l-2-6h-1zm-8 1v2l1-1v-2l-1 1z"/>
            <g fill="#fff" stroke="none" stroke-width="0">
                <path d="M319 277l1 3 1-3h-2zm3 1l1 2 1-2h-2zM324 278l1 2 1-1v-2l-2 1zM329 278l-2 1h-1v-2s1 0 3 1zm-10 16v-2h2v2l-2 1zm6-2l1-2 2-1 1 2-4 1zM323 292l1-2h1v3s0-1-2-1zm-2 1l1-2h1v1s-2 0-2 2v-1z"/>
            </g>
        </g>
        <g fill="#00a651" stroke="#000">
            <path d="M351 331s5 5 4 9c0 0 3-7 0-9-4-2-4 0-4 0z"/>
            <path fill="#964b36" d="M344 336s-1 2 0 3v5l-1 4 1 5h3s2-2 1-5v-5l-1-4v-2s-2-3-3-1z"/>
            <path d="M346 330s-6-12-11-13c-4 0-4-4-4-4s0 2 4 2 10 5 11 8c0 4 1 3 1 3l-1 4z"/>
            <path d="M346 329s2-15 12-15 7 0 9-1l-11 4c-4 0-7 8-7 10 0 1-2 4-4 3-1-1 1-1 1-1z"/>
            <path d="M348 335s2-6 6-4c0 0-3-6-8-1l2 5zm-7-6s3 13-2 17c0 0 0-7-3-11s3-9 5-6z"/>
            <path d="M341 331l6 8c1 1 2-6-1-8a14 14 0 0 0-5-3v3z"/>
            <path fill="#964b36" d="M330 346l2 3 2 2v2l1 4 3-1s1-2-1-4c0 0 1-2-1-3 0 0 1-2-1-3 0 0 0-2-2-3l-3 3z"/>
            <path d="M333 343s-8-3-12 1l8 2c0 2 4-2 4-3z"/>
            <path d="M331 348l-2-1c0-1-7-3-8 4 0 0-2-7 1-7 4-1 6 1 9 4m-5-13l3 5h1l-4-5zm-2-8s-2-7-4-5c-3 2-2 7-2 7s-5-5-2-9c2-4 8 0 8 7z"/>
            <path fill="#964b36" d="M329 341l1 1 3 1-2-4-2 2z"/>
            <path d="M328 333s-1-6 3-8l1-1s-3 7-2 11v0"/>
            <path d="M329 326s6-14 15-9c0 0-9 1-12 8l-3 4v-3zM325 331l-3-11c-2-1-4-2-6 0 0 0 4-4 9-1 4 3 3 9 3 9v6l-3-3"/>
            <path d="M332 342s-8-15-13-4v4s-3-3-2-8c1-6 10-3 13 1l3 7h-1zm23 5s6-13 10-7c0 0 1 3-1 4 0 0-2-3-4 0l-1 4-4-1z"/>
            <path d="M364 344s4 2 3 5c0 0 4-8-2-9 0 0 1 2-1 4zm1-9s8 2 8 6c0 0 1-7-3-9 0 0-6 1-5 3z"/>
            <path d="M368 325c4-7 8 2 8 2s2-7-3-8-7 15-7 15l-5 1s2-14 9-16l1 1"/>
            <path d="M362 329s-4-10-8-11c-3-1 2-2 4-1 2 2 6 5 5 10l-1 2zm-5 13s2-6 6-8c3-2 7-2 7-2s-5 1-5 4l-2 2-6 4z"/>
            <path fill="#964b36" d="M355 347l-1 4s-3 4-2 5c0 0 3 2 4 1l2-6 1-3-4-1z"/>
            <path fill="#000" d="M344 340h3v-1h-3zm0 3v1l4-1h-4zm-1 5s3 2 5 0c-2 2-4 0-4 0zm-11 0v1s3-1 3-3c-1 2-3 2-3 2zm2 3s2 0 2-2c0 2-2 2-2 2zm0 2s3 0 4-1h-1l-3 1zm20-2l2 1a2 2 0 0 0 2 0l-1-1a2 2 0 0 1-1 1 3 3 0 0 1-2-1z" stroke="none"/>
        </g>
        <g fill="#964b36" stroke="none" stroke-width="0">
            <path d="M431 361zm10-3h-1v-1l-1-1a8 8 0 0 0 0-1v-2l-1-1v-8-3-2l-3-2-1 7 1 8-1 4-2 2-1 2h2l-2 1a1 1 0 0 1 1 0h2v-1h2l1-1 1 1v-1h3v-1z"/>
            <path d="M434 361h5v-1h3s1 1 0 0v-1h-1v-1h-1l-1-1v1h-1l-1 1h-1v-1h-1v1h-1v1c0-1 0-2-1-1v1c0 1 0 0 0 0v1h1m-2-3h-1l-1 1v2h2v-1l1-1-1-1"/>
        </g>
        <g stroke="#000">
            <path d="M440 339l-1 1-2-1 2-2 1 2zm-4-2l-2 1-1-1 1-2 2 2z"/>
            <path d="M438 337l-1 2-2-2 2-1 1 1zM436 339l-2 2-1-2 1-2 2 2z"/>
            <path d="M438 340l-2 2-1-2 2-2 1 2z"/>
        </g>
        <path fill="#00a651" stroke="#000" d="M439 322s14-19 28 1l-1 4v-1h-1v-1h-2v-2l-1 1v-2l-2 2v-4l-2 4v-3 1l-1-1-1 1h-1v1l-1-2-1 2-1-2v2l-1-2v2l-3-2 1 2-2-1 1 1h-2v1h-2v1l-3-1 1 1v1s15-5 16 14l-3 1 1-1-1-1-2-2 1-2h-1v-1h0l-1-1h-1v-2l-1 2v-3l-1 2v-1h-1l-1-1v1l-1-1v1l-2-1v1-1h-1l-2-1v1l-1-1-1 1s14 8 10 21l-1 1v-4l-1 2v-5 1l-1-2-1 2v-2l-1 1v-3l-1 1-1-4-1 2v-3l-1 2-1-3v1l-1-2h-4c-1-1-3 3-3 3v-2l-1 2v-2l-1 5-1-4v4l-1-1v1l-1-1v2l-1-1v2l-1-1v3l-1-1v1h0l-1 3-1-2v3l1 1h-1v2s-4-7 1-14c4-7 11-9 11-9h-1v-1l-4 2v-1h-1v-1l-1 1h0l-1 1v-2l-1 3v-2l-2 4v-3l-1 3v-3l-1 3v-3l-1 3-1-3v3l-1-2-1 3-1-3v5l-1-2v3l-1-2 1 4-2-1 1 2-2-2v3l-1-1v1s0-13 9-16c8-2 14 1 14 1l-3-3h0-1l1-1h-3l1-1h-2v-1l-2 1 1-1-2 1v-1l-1 1v-1l-4 4 1-5-1 1v-1l-1 2v-1l-1 1v-1l-1 1-1-1v2l-1-1-1 1-1-1v1h-2l1 1-2-1v2l-1-1-1 2v-2l-1 2s8-20 28-7l2 3v1-14l1 6v-2 3l2-5s-2 8-1 10c0 0 1-8 4-9l-3 6h1l-1 1h1l-1 2-1 1 1 1 1-1z"/>
        <path d="M437 331s1-1 3 0h1c-3-2-5 0-5 0zm-1-7h1l-1 1 1-1-1 3 3-4-2 1 1-1h-2l1-2h-1v3z"/>
        <path d="M433 324l1 1h-1l3 5v-1 2l1-3-1 1-2-3h1l-1-2 1 1v-2 1l-2-1v1zm-2 6l1 1h3l-1-1h-3zm3 6l-1-3h1v3zm3-1v-2l1 2zm2 2l-1-2h1v2z"/>
        <path fill="#00a651" stroke="#000" d="M332 401h-3l-2 2h4l1-2m0 1l-1 3 2 3 1-5-1-1m-3-6l-3 2v3l3-3a9 9 0 0 0 0-1m1 0l1-3-2-2v4l1 1m-2-1l-1-3-3-1 2 4h2m4 5s3-1 3 2v2l-3-4h0z"/>
        <path d="M332 402l1 2v-2l1-5h-1l-1 5z"/>
        <path d="M330 401v1l3-1v-1l-3 1zm3-3l-6-2v-1l6 3z"/>
        <path d="M329 398h-1l2-2v1zm2-1l-1-3 1 3zm2 4l2 1-2-1z"/>
        <path fill="#fff" stroke="#000" d="M361 402c2-1 2-5 2-5l-4 3 6-10c-1 3-8 5-13 8-5 2-2 10-2 10a16 16 0 0 1-4-8c-1-4-2-5-5-6-4 0-5 3-5 3l-5 3h5s3 1 3 4-3 13 2 19c3 4 16 7 16 7"/>
        <path fill="#fff" stroke="#000" d="M351 410s1-5 4-4c4 0 4-4 6-5 2 0 12-3 13-7 0 0-1 7-10 11 0 0 7-2 8-4 0 0-3 7-11 8 0 0 7-1 8-3 0 0-3 5-8 5 0 0 5 2 6 1 0 0-3 3-6 3h1s-3 4-7 1c-3-2-3 1-3 1"/>
        <path fill="#fff" stroke="#000" d="M358 417l5 11 10 9-3-2 2 2h-2l2 1h-3v1l-1-1v1l-1-1-1 1h-1-1-1l-1 2-5-13"/>
        <path d="M363 440l-6-13h1l6 12zm6-1l-11-13 11 12zm2-1l-12-12v-1l13 12zM340 398l-2-1-1 1h3zm-5 0l1 1-1 1h1v-3l-1 1zM340 398l-2 1-1-1h3zM340 398h-2 2zM339 398h-1 1zM339 420v2l2 2c0 2 1 2 2 1h1s-4-2-4-4l-1-1z"/>
        <g fill="#964b36" stroke="#000">
            <path d="M439 396s5-8 10-6l9 3s0 5-3 5-5-5-8-3l-4 4s-7 1-4-3z" stroke="none"/>
            <path d="M418 431l-1 2h2l-2-2z"/>
            <path d="M416 433s-3-2-5 2l-5 11c-2 1 12-6 13-9 0 0 1-4-1-4h-2z"/>
            <path d="M417 433s-3 1-4 5-5 6-5 7m49-52s-4 2-3 5" stroke="none"/>
        </g>
        <path fill="#fff200" d="M423 402s0-10 9-10c2 0 1 2 1 2s2-1 3 1c0 0 2-1 3 1 0 0 3 0 2 2 0 0 2 0 2 2 0 0 2-1 2 1 0 0 3-2 2 1 0 0 3-1 4 2s-3 9-6 11"/>
        <path d="M447 403s1 8-3 11c5-3 3-11 3-11zm-5 9c3-3 3-11 3-11s-1 8-3 11zm-3-2c0-5 4-10 4-10s-4 5-4 10zm-2-1c0-6 4-10 4-10v-1s-4 5-4 11zm-3-2c0-7 5-10 5-11s-5 4-5 11zm-3-2c0-6 5-10 5-10s-5 4-5 10zm-5-2a10 10 0 0 1 7-9 11 11 0 0 0-7 9z"/>
        <path fill="#00a651" d="M418 415s-1-10 4-13l2 1s3-1 3 1c0 1 2-1 2 1 0 0 4-1 3 2 0 0 3-1 2 1 1 0 3-1 3 1 0 0 3 0 2 2 0 0 4 0 3 2 0 0 2 0 2 2 0 0 3 0 2 3a24 24 0 0 1-10 7"/>
        <path fill="#00a651" d="M415 425s-3-8 2-10h3s2-1 3 1c0 0 1-2 2 0l1 1s2-1 2 1c0 0 2 0 2 2 0 0 3 0 2 1 0 0 3 1 2 2 0 0 3 0 1 2 0 0 2-1 1 2-1 2-5 5-8 5"/>
        <path fill="#00a651" d="M418 431s-5-5-3-6l1 1h2l2 1 2 1 1 1 2 1 1 1s3 1 2 2c0 0-5 1-8-1h-2z"/>
        <path d="M435 423c3-1 9-8 9-8s-6 7-9 8zm-2-1h1a47 47 0 0 0 8-9l-8 9zm-1-1c3-2 7-10 7-10s-4 8-7 10zm-1-2l6-10c0 1-6 7-6 10zm-11-4c0-6 4-12 4-12s-5 6-4 12zm3 0c-1-4 4-10 4-10v-1c0 1-5 7-4 11zm4 2c0-5 5-10 5-10s-5 5-5 10zm-10 9c-2-5 1-11 1-11s-3 6-1 11zm2 0c-2-5 1-11 1-11s-3 6-1 11zm8 5c5-2 8-6 8-6s-3 4-8 6zm-1-1c4-2 8-7 8-7h-1s-3 5-7 7zm-1-1v1l7-8-7 8zm-5-2a21 21 0 0 1 3-11s-4 6-3 11zm2 1c4-3 5-10 5-11h-1s-1 8-4 11z"/>
        <path d="M424 429c5-3 6-9 6-9s-1 6-6 9zm1-14v1l-4 11h1l3-11c0-5 4-11 4-11s-4 5-4 11z"/>
        <path d="M428 418s-1 8-5 11c5-3 6-10 6-11l6-9-1-1-6 10zm-12 8l2 6-1-6h-1zm2 0v6l1-5h-1zM418 432h1l1-5-2 5zM419 432a7 7 0 0 0 3-4s-1 3-3 4zm0 0c2 0 4-3 4-3s-2 3-4 3z"/>
        <path d="M419 432v1a8 8 0 0 0 6-3s-2 2-6 2z"/>
        <path d="M420 432v1s5 1 6-2c-1 2-6 1-6 1z"/>
        <path fill="none" stroke="#000" stroke-width="3" d="M310 254v136c0 45 81 71 81 71s80-26 80-70V254z"/>
    </g>
    <path fill="#002868" d="M0 0v210h313V0H0z"/>
    <path fill="#fff" d="M0 0v23l121 82L0 186v24h35l121-82 121 82h36v-24l-122-81 121-82V0h-34L156 81 35 0H0z" color="#000" font-family="sans-serif" font-weight="400" overflow="visible" style="line-height:normal;text-indent:0;text-align:start;text-decoration-line:none;text-decoration-style:solid;text-decoration-color:#000;text-transform:none;block-progression:tb;isolation:auto;mix-blend-mode:normal"/>
    <path fill="#ce1126" d="M0 0v16l133 89L0 194v16h23l133-89 133 89h23v-16l-132-89 132-89V0h-23L156 89 23 0H0z" color="#000" font-family="sans-serif" font-weight="400" overflow="visible" style="line-height:normal;text-indent:0;text-align:start;text-decoration-line:none;text-decoration-style:solid;text-decoration-color:#000;text-transform:none;block-progression:tb;isolation:auto;mix-blend-mode:normal"/>
    <path fill="#fff" d="M130 0v70H0v70h130v70h52v-70h131V70H182V0h-52z" color="#000" font-family="sans-serif" font-weight="400" overflow="visible" style="line-height:normal;text-indent:0;text-align:start;text-decoration-line:none;text-decoration-style:solid;text-decoration-color:#000;text-transform:none;block-progression:tb;isolation:auto;mix-blend-mode:normal"/>
    <path fill="#ce1126" d="M141 0v84H0v42h141v84h31v-84h141V84H172V0h-31z" color="#000" font-family="sans-serif" font-weight="400" overflow="visible" style="line-height:normal;text-indent:0;text-align:start;text-decoration-line:none;text-decoration-style:solid;text-decoration-color:#000;text-transform:none;block-progression:tb;isolation:auto;mix-blend-mode:normal"/>
</svg>
