<svg xmlns="http://www.w3.org/2000/svg" xmlns:xlink="http://www.w3.org/1999/xlink" viewBox="0 0 512 512">
    <defs>
        <linearGradient id="a">
            <stop offset="0" stop-color="#a43907"/>
            <stop offset="1" stop-color="#fff"/>
        </linearGradient>
        <linearGradient id="b" x1="444" x2="471" y1="592" y2="577" gradientTransform="scale(1.003 .997)" gradientUnits="userSpaceOnUse" xlink:href="#a"/>
        <linearGradient id="c" x1="458" x2="521" y1="563" y2="553" gradientTransform="scale(.936 1.068)" gradientUnits="userSpaceOnUse" xlink:href="#a"/>
        <linearGradient id="d" x1="472" x2="445" y1="579" y2="580" gradientTransform="scale(1.003 .997)" gradientUnits="userSpaceOnUse" xlink:href="#a"/>
        <linearGradient id="e" x1="518" x2="456" y1="554" y2="558" gradientTransform="scale(.936 1.068)" gradientUnits="userSpaceOnUse" xlink:href="#a"/>
        <linearGradient id="f" x1="852" x2="646" y1="370" y2="370" gradientUnits="userSpaceOnUse" xlink:href="#a"/>
        <linearGradient id="g" x1="389" x2="677" y1="507" y2="509" gradientTransform="scale(.823 1.215)" gradientUnits="userSpaceOnUse" xlink:href="#a"/>
        <linearGradient id="h" x1="580" x2="557" y1="505" y2="506" gradientTransform="scale(.835 1.198)" gradientUnits="userSpaceOnUse" xlink:href="#a"/>
        <linearGradient id="i" x1="581" x2="559" y1="512" y2="514" gradientTransform="scale(.823 1.215)" gradientUnits="userSpaceOnUse" xlink:href="#a"/>
        <linearGradient id="j" x1="552" x2="590" y1="518" y2="504" gradientTransform="scale(.835 1.198)" gradientUnits="userSpaceOnUse" xlink:href="#a"/>
    </defs>
    <path fill="#006" d="M0 0h512v512H0z"/>
    <path fill="#006" fill-rule="evenodd" d="M0 0h512v256H0z"/>
    <path fill="#fff" d="M0 0v29l455 227h57v-29L57 0H0zm512 0v29L57 256H0v-29L455 0h57z"/>
    <path fill="#fff" d="M213 0v256h86V0h-86zM0 85v86h512V85H0z"/>
    <path fill="#c00" d="M0 102v52h512v-52H0zM230 0v256h52V0h-52zM0 256l171-85h38L38 256H0zM0 0l171 85h-39L1 19V0zm303 85L474 0h38L341 85h-38zm209 171l-171-85h39l132 66v19z"/>
    <path fill="url(#b)" fill-rule="evenodd" stroke="#fff" stroke-width="10" d="M671 322a13 13 0 0 0-2 0c-3 0-9 11-12 18l-9 13c-1 1-2 3-1 5-7 1-8 7-8 10l1 3 4 8v0c5 10 11 22 15 23 5 1 19-4 29-12a164 164 0 0 0 62 12c24 0 45-5 62-12 10 8 24 13 29 12 4-1 10-14 15-23l4-8 1-3c0-3-1-9-8-10 1-2 0-4-1-5l-9-13c-3-7-9-18-12-18-5-1-15 1-15 2v1l-21 19c0 1 1 15 5 27a147 147 0 0 1-50 9c-20 0-37-4-51-9a136 136 0 0 0 6-27l-21-19v-1l-13-2zm5 24c3 0 6 2 8 4v2a79 79 0 0 1-4 10 86 86 0 0 1-14-10c2-3 6-6 10-6h0zm148 0h0c4 0 8 3 10 6a86 86 0 0 1-14 10 78 78 0 0 1-4-10 17 17 0 0 1 0-2c2-2 5-4 8-4zm-166 27l10 7a12 12 0 0 1-3 2h-6a18 18 0 0 1-1-6 70 70 0 0 1 0-3zm184 0v3a18 18 0 0 1-1 6 12 12 0 0 1-9-2l10-7z" transform="translate(-509 18) scale(1.168)"/>
    <path fill="url(#b)" fill-rule="evenodd" stroke="#000" d="M446 596s5-9 10-9c5 1 9 7 9 7a41 41 0 0 0 7-8s-7-16-11-17-12 1-12 2l-3 24z" transform="matrix(-1.477 0 0 1.545 954 -485)"/>
    <path fill="url(#c)" fill-rule="evenodd" stroke="#000" d="M433 586c0 1 2 24 10 32s21 13 26 12 15-25 15-25-11 11-19 9c-9-1-14-15-15-22-2-7-1-21-1-21l-16 15z" transform="matrix(-1.477 0 0 1.545 954 -485)"/>
    <path fill="url(#d)" fill-rule="evenodd" stroke="#000" d="M446 596s5-9 10-9c5 1 9 7 9 7a41 41 0 0 0 7-8s-7-16-11-17-12 1-12 2l-3 24z" transform="matrix(1.477 0 0 1.545 -220 -485)"/>
    <path fill="url(#e)" fill-rule="evenodd" stroke="#000" d="M433 586c0 1 2 24 10 32s21 13 26 12 15-25 15-25-11 11-19 9c-9-1-14-15-15-22-2-7-1-21-1-21l-16 15z" transform="matrix(1.477 0 0 1.545 -220 -485)"/>
    <path fill="url(#f)" fill-rule="evenodd" stroke="#000" stroke-width="2" d="M656 339l-9 13c-2 3-1 8 4 15s45 34 98 34 93-27 98-34 6-12 4-15l-9-13c0 8-34 40-93 40s-93-32-93-40z" transform="translate(-508 19) scale(1.168)"/>
    <path fill="url(#g)" fill-rule="evenodd" stroke="#000" d="M468 626l7-12-4-3c-1 3-5 4-5 8s2 7 2 6z" transform="matrix(1.477 0 0 1.545 -219 -484)"/>
    <path fill="url(#h)" fill-rule="evenodd" stroke="#000" d="M475 623s1-5-3-6-6 3-5 2c0-2 3-3 3-9v-8s1-7 8-6c6 1 7 6 7 8l-1 3-9 16z" transform="matrix(1.477 0 0 1.545 -220 -485)"/>
    <path d="M448 446l2 4 2-1-1-2v-1l2-1 6 10v1l-1 1 1 1 5-4v-1l-2 1-6-11 2-1h1l1 2 1-1-2-4-11 7zm-14 9l1 1 1-1 5 11-1 1 1 1 5-3v-1l-1 1h-1l-2-6 5-3 3 5v1l-1 1v1l6-3-1-1h-1l-6-11 2-1-1-1-6 3 1 1h2l2 4-6 3-2-4v-1l1-1-6 3zm-3 9v1l2-1v1l1 4h-1c-3 1-6 0-7-4s0-7 4-8a5 5 0 0 1 1 0h1l1 2h1v-4l-5 1c-5 2-7 5-6 10 1 4 5 7 10 5a15 15 0 0 0 4-2l-1-5v-1h1v-1l-6 2zm-14 12l7-2-1-1h-1l-4-11v-1h2l-1-1-6 2v1l2-1 4 12h-1l-1 1v1zm-34 6l11-1-1-4h-1v3h-5l-1-6h3l1 2h1v-5h-2v2h-3v-6h4l1 2h1v-3l-11 1v1h2l1 12-1 1v1zm-17-15v1h1v1l1 12h-2v1h6v-1h-1l-1-1v-5h6l1 5-1 1h-1v1h6v-1h-1l-1-1v-12h2v-1h-6v1h1v5h-6v-5h2v-1h-6zm-13-1v5h1l1-3h2v13h-1v1h6v-1h-1l-1-1v-12h3l1 3h1v-4l-12-1zm-20 13l11 1 1-4h-2v2h-5v-6h3v2h1v-5h-1v2h-3v-5h5v2h1v-3l-10-1v1h1l1 1-1 12h-2v1zm-25-6l6 2v-1l-1-1 3-12h2v-1l-6-2v1l1 1h1l-4 12h-2v1zm-10-4a11 11 0 0 0 3 2c3 1 6 0 7-3a4 4 0 0 0-1-4l-2-2c-1-1-2-2-1-3 0-1 1-2 3-1h1v3l1 1 1-4a11 11 0 0 0-3-2c-3-1-5 0-6 3a4 4 0 0 0 0 3l2 3c2 1 2 2 2 3-1 1-2 2-3 1a6 6 0 0 1-2-1v-3h-1l-1 4zm-14-6l10 5 2-4h-1l-2 2-4-2 2-5 3 1-1 2h1l3-4-2-1-1 1v1l-2-2 2-5 4 2v1l-1 2h1l2-3-9-5-1 1 1 1v1l-5 10v1l-1-1-1 1zm-1-18l-5-4-1 1 1 1v1l-6 10h-1l-1-1v1l5 4 4 1c3 0 4-1 6-3 2-4 2-8-2-11zm-2 0l1 1c2 2 3 4 0 8s-4 4-7 2h-1l7-11zm40 16l-1 1h2v1l-3 11v1h-1v1l5 1v-1l-1-1 1-5c2 1 3 2 3 4l1 3 2 1a14 14 0 0 0 2 1v-1c-2-1-2-1-2-3l-1-3a4 4 0 0 0-2-2c3 0 4-1 5-3 0-3-1-4-4-5l-6-1zm4 2c2 1 3 2 3 4-1 2-2 2-4 2h-1l1-6zm74 1v1h1v1l2 12h-1v1l6-1v-1h-2l-1-5h1c2-1 3 0 4 2l2 3h2a17 17 0 0 0 3 0l-1-1-3-1-2-4-2-1c2 0 3-2 3-4 0-3-2-4-6-3l-6 1zm4 1h1c2-1 4 0 4 2s-1 3-3 3h-1l-1-5z"/>
    <path fill="url(#i)" fill-rule="evenodd" stroke="#000" d="M468 626l7-12-4-3c-1 3-5 4-5 8s2 7 2 6z" transform="matrix(-1.477 0 0 1.545 953 -484)"/>
    <path fill="url(#j)" fill-rule="evenodd" stroke="#000" d="M475 623s1-5-3-6-6 3-5 2c0-2 3-3 3-9v-8s1-7 8-6c6 1 7 6 7 8l-1 3-9 16z" transform="matrix(-1.477 0 0 1.545 954 -485)"/>
    <path fill="#0072c4" fill-rule="evenodd" stroke="#fff" stroke-width="4" d="M397 606s-76-21-75-102V397h149l1 106c0 81-75 103-75 103z" transform="matrix(1.477 0 0 1.545 -219 -481)"/>
    <g fill-rule="evenodd">
        <path fill="#bcbcbc" d="M272 169l3-2c2-1 3-3 5-3l5-2a13 13 0 0 0 4-4l1-6 5-2 5-2 6-1 6 2 5 4 4 3 5 3 5 3 3 3a36 36 0 0 0 5 4l7 2h12l6 1h7l6 1h20a51 51 0 0 0 6 0l7-1h8l6 2 4 2a13 13 0 0 1 5 4 25 25 0 0 1 4 5l2 6 1 7 1 7-2 6v7l-1 6v6l-1 7a71 71 0 0 0-4 7 15 15 0 0 0-3 4l-2 2c2 0 2 2 2 4l1 6 1 6h-1c-1 1-3 1-3-1a12 12 0 0 1-2-6l-1-6c-1-2-1-2-4-2-1-2-3-2-6-2-2 0-2 0-2 3v6l-2 6-4 3c-1 3-2 3-4 3l-3-3c2-2 3-2 3-5l3-5-3-4a26 26 0 0 1-2-5l-5-2-6 2h-6l-6 2h-12l-6-1-6-1-6 1-5 4-2 6-2 5a18 18 0 0 0-1 6c0 3-1 3-3 2l-3-5 1-6c0-2-1-2-2 0l-1 6a6 6 0 0 1-3 3l-4 4v-9l1-6-2-6-3-4-6-3a10 10 0 0 0-4-3l-4-3-4-4-1-6a22 22 0 0 0-2-6 24 24 0 0 0-1-6l-2-6v-14l-1-6-1-6-3-3c-1 2-3 3-5 3l-6-2-5-2a43 43 0 0 0-3-3l-1-7c0-2 1-1 2-3z"/>
        <path fill="#fefefe" d="M300 186h1l4-3 3-1 3-3 4-2 4-1 3-1 4-3v-2l-2 4-3 3-2 4c-1 1-3 1-3 3l1 1h3a14 14 0 0 0 3-4l2-3 2-3 4-2 3-2a6 6 0 0 1-1 4v4l1 3 1-5v4l1 4 2 2v-5l1 5 1 4c1 0 1 2 1 0l2-7v-4 0-1a39 39 0 0 1 1 6v4l3-3a18 18 0 0 1 2-3l-2 3a18 18 0 0 1 2-3v-1a40 40 0 0 0 0 5v4l1 4 1 3 1-2 1-6c0-3 0 0 1 1a13 13 0 0 1 1 5v2l2-3 2-3c2-1 2-1 2-3v-5a41 41 0 0 0 2-5l1 2 1 4 2 4a15 15 0 0 0 2 4v4c2-1 2-3 2-6l-1-4v-4c-1-1-2-1-1-3h4l1 3 1 5 2 3h1l1-4 2-2 1 4 1 4 2 2v-10l1-4 1 4 2-2h1l1 5 2 4a16 16 0 0 0 2 3l2 2v-7l-1-5v-3a11 11 0 0 1 3 4l2 4a20 20 0 0 1 2 4l3 3 2 1-1-6a9 9 0 0 0-1-4l-3-3v-2a26 26 0 0 1 4 5 7 7 0 0 0 3 2l4 2a6 6 0 0 0 3 2l-3-2a6 6 0 0 0 3 2v1a13 13 0 0 0-2-6 9 9 0 0 0-3-4 9 9 0 0 0-3-3l-3-3c2-1 3 0 5 1l3 4a18 18 0 0 0 3 5l3 2c2 1 2 0 1-1-1-2 0-2 1-1l4 2c0 1 1 2 2 1v-1c0-2-1-4-3-4l-3-3-2-3 2 3-2-3 4 1a7 7 0 0 1 3 3l3 2 3 3 1 4 1 4c0 2-1 1-1 0 0-2-1-2-2-1l1 4a8 8 0 0 1-1 3c-1 1-1-1-2-2 0-2 0-2-2-3v1l2 5a12 12 0 0 1 1 5l-1 4v14a23 23 0 0 0 0 5v-5 5l-2-5a10 10 0 0 1-2-3l-1-5-2-2 1 7 1 4v4l-1 3c-1 1-2 1-2 3l-2-5-1-5-3-3-3-4-2-4h-2l1 4 1 5v4l-3-5-2-4-2-3-1-2 1 4a8 8 0 0 1 1 4l-2-7-3-5-3-2a6 6 0 0 1-2-1l1 4 1 5-1-2-2-4-2-3-1 2 1 4v12l-2-4-2-4h-3l1 4c-1 1-1 2-2 0 0-2-1-2-2-3-2 0-1-1-2-3v-3l-4 1v9l-2 3-1 4c-1 1-1 1-1-1v-11-4c0-2-1-2-3-2v3l1 5v4l-1 4-2 2a15 15 0 0 1-3-3h-5c-2 0-2-1-3-2a31 31 0 0 1-1-6l-1-4a6 6 0 0 0-2-3l-1 6-1 3-1-4c-1-2-1-4-3-3-2 0-3 0-3 3l3 4v4l-1 3-3-5c0-2-1-1-2-1h-2v3l-2-1v4l-2 4c0-1 0 0 0 0l-6-2-2 2-4 1h-12l2-3a20 20 0 0 0 3-3l2-3 3-2 4 1c2 0 3 1 4-1l4-2 4-2 3-3 1-4-4 1-3 3-4 1h-4l-5 1 5-3 3-1c1-1 2-1 2-3 1-2-1-1-2 0l-4 1a14 14 0 0 1-4 1v-2l2-2-4 1h-14l-1-3 4-1 3-2 2-1h-4c-2-1 0-1 1-2l4 1 4-2 3-3 3-2 3-3 1-2-4 2a10 10 0 0 1-3 2 8 8 0 0 1-4 1h-5c-2 0 0-1 0-1 1-1 2-2 1-3h-9l-4-1 2-1a18 18 0 0 0 4-1l2-2-4-1h-3zm-29-7l-1-7c0-2 1-1 2-3l3-2c2-1 3-3 5-3l5-2a13 13 0 0 0 4-4l1-6 5-2 5-2 6-1 6 2 5 4 4 3 5 3-1 1c0 2-1 2-2 2a8 8 0 0 1-3-3v2l-3 1-1-5c0-2-1-1-1 0v4h-8c-2 1-1 1 0 3l4 2 4-1h5l2 1v3l-2 2a16 16 0 0 1-5 1l-4 2c0 1-1 2-3 2a10 10 0 0 1-4 1h-2a13 13 0 0 0 2-4l1-2c-2 0-3 0-3 2s-1 2-2 3l1-4a25 25 0 0 1-5 0l-1 2h-4l-2-1c0-2-1-2-3-2l-3 2-3-1c-2 0-2 1-1 2l1 1 3 1h5c2 0 1 0 1 2h-4a17 17 0 0 1-4-1h-4c0 1-2 1 0 1l5 2c1 1 0 2-1 2a2 2 0 0 0-3 0h-4c3 1-2-2-3-3z"/>
        <path fill="#bcbcbc" d="M282 167l-2 2-4 2-2 1 4-1 4-1v-3zm15-16l1 2 1 4 1-5-2-1h-1z"/>
        <path fill="#c4c4c2" stroke="#000" d="M349 418l2-1 1-2 2 1 3 1v1h-3a7 7 0 0 0-3 1l-2-1z" transform="matrix(1.477 0 0 1.545 -229 -480)"/>
        <path fill="#bcbcbc" d="M303 152v1l1 4a7 7 0 0 0 2-3c0-2-1-2-3-2zm12 39l1-1 4-3a13 13 0 0 1 4-2h2c0 1 0 2-2 3l-2 2-3 1h-4zm6 10l4-4a15 15 0 0 1 3-3l3-4 2-3 1 4a7 7 0 0 1-1 4l-3 3-4 2a26 26 0 0 1-3 2l-2-1zm-10 8l1-1 5-3a10 10 0 0 0 4-1h2c1 1 1 2-1 3a9 9 0 0 1-3 1l-4 1h-3 3-4zm14 0v-1-1l4-4 3-1v3l-2 3c-1 1-1 2-3 2l-2-1z"/>
        <path d="M293 164l-2 2-2-2 2-2 2 2z"/>
    </g>
    <g fill="#005120" fill-rule="evenodd" stroke="#002b0d">
        <path d="M352 480h1c-3 0-1-1 3 3 2-1 2-2 4 1 1 2 1 0 2-2 1 4 1 7 4 4l7 1c2 3 1-1 3 1 4 0 4-4 8-5 2 3 4 1 7-1 2 1 5 5 5 1 2-3 2-3 4 0 2 2 2-1 4-2 3 2 6 2 11 1 0 3 2 2 4 1 4 2 5 2 10 0 2-3 1 0 2 2l7-1c3 0 4 0 5-3 2 2 2 4 5 1 4 0 3 1 5-1 2 4 3 1 5 3a15 15 0 0 1-6 7c-2 3-3 6-6 7l-8 6-13 1h-37c-3 2-7 2-11 3l-11-1-7-6c-2-2-2-5-4-6l-3-9v-6z" transform="matrix(1.477 0 0 1.545 -223 -481)"/>
        <path d="M438 488v0l-2 4-3 2m-3-3h0l-6 8 6-8-6 8m-7-12l-1 4m-2 2v1-1zm-7-5h0-1c1 0 1 0 0 0zm-50 0l4 4v8m3-7c1 0 2 3 5 4l-5-4c1 0 2 3 5 4v-6c1 2 3 4 3 2 5 0 7-2 11-3 0 1-1 1 1 2m60-4h1l-5 7m-33-9h7" transform="matrix(1.477 0 0 1.545 -223 -481)"/>
    </g>
    <path fill="#fff" fill-rule="evenodd" d="M294 279c-16 0-21 17-37 17h-1v1c0 11 1 22 3 32 14-1 19-17 35-17 15 0 21 17 36 17s21-17 37-17 21 17 37 17 21-17 36-17 21 15 35 16a190 190 0 0 0 3-32h-1c-16 0-21-17-37-17s-21 17-36 17-21-17-37-17-21 17-37 17-21-17-36-17zm0 64c-13 0-18 10-28 15a151 151 0 0 0 12 24c4-3 9-6 16-6 15 0 21 17 36 17 16 0 21-17 37-17s21 17 37 17 21-17 36-17a25 25 0 0 1 16 6 153 153 0 0 0 11-24c-9-5-15-15-27-15-15 0-21 17-36 17s-21-17-37-17-21 17-37 17-21-17-36-17zm73 64c-16 0-21 17-37 17-15 0-20-15-34-16 19 20 40 33 54 40 5-4 10 4 17 4s12-8 17-5a176 176 0 0 0 53-39c-13 2-19 16-33 16-16 0-21-17-37-17z"/>
    <g transform="translate(-527 22) scale(1.177)">
        <path fill="none" stroke="#512007" d="M333 541a110 110 0 0 1 10-3l16 16-13 3-13-16z" transform="matrix(1.255 0 0 1.312 259 -430)"/>
        <path fill="none" stroke="#512007" d="M414 471c0-5 8-31 8-31m-5 31l6-31m-4 31l5-31m-10 27l6-2m-4-2l4-2m-3-2a24 24 0 0 1 4-1m-4-3l5-1m-2-3h3m-3-4l4 1" transform="matrix(1.063 0 0 1.03 277 -178)"/>
        <path fill="none" d="M771 328c0-8-11-55-11-55m8 53l-9-53m5 49l-6-48m13 47l-7-3m4-5l-5-2m4-4a30 42 0 0 0-5-2m5-6l-6-1m3-6l-4 1m3-7l-4 1"/>
        <path fill="none" stroke="#512007" d="M414 471c0-5 8-31 8-31m-5 30l6-30m-3 28l4-28m-10 27l6-2m-4-2l4-2m-3-2a24 24 0 0 1 4-1m-4-3l5-1m-2-3h3m-3-4l4 1" transform="matrix(-1.255 0 0 1.312 1321 -302)"/>
        <path fill="#dd8b59" fill-rule="evenodd" stroke="#512007" d="M395 572l1-73h3l-1 73h-3zm29-70l-1 62-2 2 1-64h2z" transform="matrix(1.255 0 0 1.312 259 -430)"/>
        <path fill="#dd8b59" fill-rule="evenodd" stroke="#512007" d="M363 560s3 30 36 29 43-30 43-30h-14c-1 0-12 14-27 13s-19-4-22-6l-6-8-17-6 1 6 6 2zm90-3l-1-4v-3l2-4-25 4v7h24z" transform="matrix(1.255 0 0 1.312 259 -430)"/>
        <path fill="none" stroke="#512007" d="M449 550l-1 6h4v-6h-4zm-5 0v6h2l1-6h-3zm-4 6v-5h2l1 5h-3zm-5 0v-4h3l1 5-4-1zm-6 0l1-4h3v5l-4-1zm-67 4l7 1 8 10" transform="matrix(1.255 0 0 1.312 259 -430)"/>
        <path fill="none" stroke="#512007" d="M367 561s6 20 34 20 34-22 34-22" transform="matrix(1.255 0 0 1.312 259 -430)"/>
        <path fill="none" stroke="#512007" d="M440 559s-14 29-39 27c-26-2-30-11-32-16l-3-9" transform="matrix(1.255 0 0 1.312 259 -430)"/>
        <path fill="#dd8b59" fill-rule="evenodd" stroke="#512007" d="M373 558v-54h-1v53l1 1zm-41-17l22 11-1 1-21-10v-2z" transform="matrix(1.255 0 0 1.312 259 -430)"/>
        <path fill="#dd8b59" fill-rule="evenodd" stroke="#512007" d="M342 538l3 18 2 1-3-19h-2zm20 0l21-3v3l-20 2-1-2z" transform="matrix(1.255 0 0 1.312 259 -430)"/>
        <path fill="#fecf3e" fill-rule="evenodd" stroke="#512007" d="M365 514l10 3c3 0 1-3 1-3h4l1-4-16 4z" transform="matrix(1.255 0 0 1.312 259 -430)"/>
        <path fill="#dd8b59" fill-rule="evenodd" stroke="#512007" d="M363 522l23-6v2l-23 6v-2z" transform="matrix(1.255 0 0 1.312 259 -430)"/>
        <path fill="#fecf3e" fill-rule="evenodd" stroke="#512007" d="M415 513s2 3 3 3l3-2s1 3 3 2c2 0 3-4 3-4l3 1 2-5-17 5zm-2 28l3 2 3-2c0 1 0 4 4 3s3-4 3-4-1 1 2 1c3 1 5-3 5-3l-20 3z" transform="matrix(1.255 0 0 1.312 259 -430)"/>
        <path fill="#dd8b59" fill-rule="evenodd" stroke="#512007" d="M363 513a5 5 0 0 0 1 3l19-7v-1l-20 5zm25-4l20-6v3l-18 5-2-2z" transform="matrix(1.255 0 0 1.312 259 -430)"/>
        <path fill="#fecf3e" fill-rule="evenodd" stroke="#512007" d="M413 522s-3 3-2 7l3 9c1 0 3-6 7-6s10 3 10 3l-1-10c0-4 5-9 5-9l-22 6z" transform="matrix(1.255 0 0 1.312 259 -430)"/>
        <path fill="#dd8b59" fill-rule="evenodd" stroke="#512007" d="M387 517v2l24-6v-2l-24 6z" transform="matrix(1.255 0 0 1.312 259 -430)"/>
        <path fill="#b6b6b4" fill-rule="evenodd" stroke="#512007" d="M356 552s-6-1-6 0c0 2 3 3 3 4s-1 4 1 4 3-2 3-2v-5l-2-1z" transform="matrix(1.255 0 0 1.312 259 -430)"/>
        <path fill="#dd8b59" fill-rule="evenodd" stroke="#512007" d="M388 537v2l21-3-1-1-20 2z" transform="matrix(1.255 0 0 1.312 259 -430)"/>
        <path fill="#fecf3e" fill-rule="evenodd" stroke="#512007" d="M363 541s0 2 2 2l3-2s1 3 4 3c3-1 5-4 5-4s0 2 2 2 3-3 3-3l-18 2h-1zm0-17s-3 0-2 6 3 8 4 8c0 0 2-5 6-6 3-1 9 3 9 3l1-9c0-5 3-8 3-8l-21 6z" transform="matrix(1.255 0 0 1.312 259 -430)"/>
        <path fill="#dd8b59" fill-rule="evenodd" stroke="#512007" d="M412 539v2l21-3v-2l-21 3zm0-19v2l25-6v-2l-25 6z" transform="matrix(1.255 0 0 1.312 259 -430)"/>
        <path fill="none" stroke="#512007" d="M414 511v2l18-5 1-2c-2 1-18 6-19 5zm39 34l-18-29m-3 20l2-18" transform="matrix(1.255 0 0 1.312 259 -430)"/>
        <path fill="#fecf3e" fill-rule="evenodd" stroke="#512007" d="M389 510l4 3 3-3s0 4 2 3c3 0 3-3 3-3h3l2-5-17 5zm-1 8c0 1-3 6-2 10l3 8s5-4 9-5c3-1 9 3 9 3l-2-8c0-3 5-13 5-13l-22 5zm0 21c0 1 1 3 3 3s3-2 3-2-1 3 2 3c4 0 5-4 5-4s0 2 3 1l6-4c-1 0-21 4-22 3z" transform="matrix(1.255 0 0 1.312 259 -430)"/>
        <use width="992" height="496" transform="translate(-7 7)" xlink:href="#k"/>
        <use width="992" height="496" transform="translate(7 4)" xlink:href="#k"/>
        <use width="992" height="496" transform="translate(0 11)" xlink:href="#k"/>
        <path id="k" fill="#be0f17" fill-rule="evenodd" stroke="#512007" stroke-width="1" d="M409 477a2 2 0 1 1-4 0 2 2 0 0 1 4 0z" transform="matrix(.04 -1.072 1.024 .043 252 668)"/>
        <path fill="none" stroke="#512007" d="M398 500l9 4 32 43m-15-43l8 4 2 6m-61-10l9 7 1 5m-42 30l33-26m-40 21l31-26m22 4l30 49m-4-29s3 12 7 14l8 4" transform="matrix(1.255 0 0 1.312 259 -430)"/>
        <path fill="none" stroke="#512007" d="M413 540s2 13 6 16l7 5" transform="matrix(1.255 0 0 1.312 259 -430)"/>
        <path fill="none" stroke="#512007" d="M391 439s3 19 10 24a950 950 0 0 1 13 8" transform="matrix(1.255 0 0 1.312 256 -299)"/>
        <path fill="none" stroke="#512007" d="M391 439s7 15 14 19l15 10m-54-28c2 4 2 10 4 13a66 66 0 0 1 6 7m-9-20l6 13 16 17" transform="matrix(1.255 0 0 1.312 256 -299)"/>
        <path fill-rule="evenodd" stroke="#512007" d="M385 471a2 2 0 1 1-5 0 2 2 0 0 1 5 0zm10 5a2 2 0 1 1-3 0 2 2 0 0 1 3 0zm14 1a2 2 0 1 1-4 0 2 2 0 0 1 4 0zm12-4l-2 1-1-2 1-1 2 1zm9-6c1 1 0 1-1 1l-2-1 2-2 2 2z" transform="matrix(1.255 0 0 1.312 256 -299)"/>
        <path fill="red" fill-rule="evenodd" stroke="#512007" d="M374 404l-13 4 13 2v-6zm25-4l-9 3 9 2v-5zm25 3l-9 3 9 2v-5z" transform="matrix(1.255 0 0 1.312 256 -299)"/>
        <path fill="none" stroke="#512007" d="M414 471c0-5 8-31 8-31m-5 30l6-30m-3 28l4-28m-10 27l6-2m-4-2l4-2m-3-2a24 24 0 0 1 4-1m-4-3l5-1m-2-3h3m-3-4l4 1" transform="matrix(1.255 0 0 1.312 256 -299)"/>
        <path fill="none" stroke="#512007" d="M414 471c0-5 8-31 8-31m-5 31l6-31m-4 31l5-31m-10 27l6-2m-4-2l4-2m-3-2a24 24 0 0 1 4-1m-4-3l5-1m-2-3h3m-3-4l4 1" transform="matrix(1.255 0 0 1.363 225 -323)"/>
        <path fill="none" stroke="#512007" d="M414 471c0-5 8-31 8-31m-5 30l6-30m-3 28l4-28m-10 27l6-2m-4-2l4-2m-3-2a24 24 0 0 1 4-1m-4-3l5-1m-2-3h3m-3-4l4 1" transform="matrix(-1.255 0 0 1.32 1259 -307)"/>
        <path fill="#dd8b59" fill-rule="evenodd" stroke="#512007" d="M426 559h28v-2h-28v2zm2-8l27-4v-3l-27 5v2z" transform="matrix(1.255 0 0 1.312 259 -430)"/>
        <use width="992" height="496" transform="translate(0 6)" xlink:href="#k"/>
    </g>
</svg>
