<svg xmlns="http://www.w3.org/2000/svg" xmlns:xlink="http://www.w3.org/1999/xlink" viewBox="0 0 512 512">
    <rect fill="#fff" fill-rule="evenodd" rx="0" ry="0"/>
    <rect id="a" width="512" height="102" y="205" fill="#c00" fill-rule="evenodd" rx="0" ry="0"/>
    <use width="600" height="300" transform="matrix(0 1 -.9375 0 496 0)" xlink:href="#a"/>
    <path fill="#ebeae3" fill-rule="evenodd" stroke="#000" d="M291 156c3-5 1-8-3-9 0 0-15 5-31 6-16 0-35-5-35-5-4 2-3 8-1 11 0 0 17 6 36 6a108 108 0 0 0 30-6c4-1 4-3 4-3z"/>
    <path fill="#fff" stroke="#161111" stroke-width="2" d="M320 390l-31-65-71 6 40-59-40-59 71 6 31-64 31 64 71-6-40 59 40 59-71-6z" transform="matrix(1 0 0 1.06667 -64 -34)"/>
    <path fill="#b02320" fill-rule="evenodd" stroke="#000" d="M256 130c38 7 37 9 37 9l10-32s1-6-2-10-10-2-10-2-1-5-5-6c-3-2-16 4-20 6l-11 2a52 52 0 0 1-17-6 15 15 0 0 0-7-2c-3 0-5 1-7 3l-1 4s-2-2-5-2-5 1-7 3l-3 7 4 8v12l7 13 36-7z"/>
    <path fill="#ebeae3" fill-rule="evenodd" stroke="#000" d="M292 149l2 3-1 2v1l-1 1-1 2-4 1s-15-5-31-5-35 6-35 6l-2-2v-3l-1-1v-2-2a4 4 0 0 1 2-2s17-6 36-6a101 101 0 0 1 36 7z"/>
    <path fill="none" stroke="#000" d="M212 108s0-2 1-4a4 4 0 0 1 5-2l1 2 2-1"/>
    <path fill="#fc0" fill-rule="evenodd" stroke="#000" d="M306 114l-6 13h-2l-6-1-3 1 5-12 1 4 4 4-1-5-3-8 11 4z"/>
    <path fill="#121116" stroke="#121116" stroke-linejoin="round" d="M253 74h6v29h-6z"/>
    <path fill="#f6ca1f" fill-rule="evenodd" stroke="#000" d="M213 128l4 10s18-8 39-7c31 0 40 7 40 7l5-12-4 2-3 2-4 2-5-1-5-3-2-5-4 4-6 1-7-2-5-7s-4 8-10 9c-8 1-12-4-12-4s-3 7-8 8c-7 2-13-4-13-4z"/>
    <g stroke-width="2">
        <path fill="#eee" stroke="#1e1e1e" stroke-linejoin="round" d="M431 247a7 7 0 0 1-7 7 7 7 0 0 1-6-7 7 7 0 0 1 6-6 7 7 0 0 1 7 6" transform="matrix(.52155 0 0 .55632 60 -68)"/>
        <path fill="#a3afb8" fill-rule="evenodd" d="M280 72s2 0 3-1l-1-3s2 2 1 3l-1 1h-2z"/>
        <path fill="#eee" stroke="#1e1e1e" stroke-linejoin="round" d="M431 247a7 7 0 0 1-7 7 7 7 0 0 1-6-7 7 7 0 0 1 6-6 7 7 0 0 1 7 6" transform="matrix(.52155 0 0 .55632 52 -63)"/>
        <path fill="#a3afb8" fill-rule="evenodd" d="M271 76s3 0 3-1v-3l1 3-2 2-2-1z"/>
        <path fill="#eee" stroke="#1e1e1e" stroke-linejoin="round" d="M431 247a7 7 0 0 1-7 7 7 7 0 0 1-6-7 7 7 0 0 1 6-6 7 7 0 0 1 7 6" transform="matrix(.52155 0 0 .55632 69 -70)"/>
        <path fill="#a3afb8" fill-rule="evenodd" d="M289 70s3 0 3-2v-2l1 2-2 2a3 3 0 0 1-2 0z"/>
        <path fill="#eee" stroke="#1e1e1e" stroke-linejoin="round" d="M431 247a7 7 0 0 1-7 7 7 7 0 0 1-6-7 7 7 0 0 1 6-6 7 7 0 0 1 7 6" transform="matrix(.52155 0 0 .55632 80 -68)"/>
        <path fill="#a3afb8" fill-rule="evenodd" d="M300 72s2 0 3-1l-1-3c1 0 2 1 2 3l-2 1h-2z"/>
        <path fill="#eee" stroke="#1e1e1e" stroke-linejoin="round" d="M431 247a7 7 0 0 1-7 7 7 7 0 0 1-6-7 7 7 0 0 1 6-6 7 7 0 0 1 7 6" transform="matrix(.52155 0 0 .55632 88 -60)"/>
        <path fill="#a3afb8" fill-rule="evenodd" d="M308 79s3 0 3-1v-3l1 3-2 1h-2z"/>
        <path fill="#eee" stroke="#1e1e1e" stroke-linejoin="round" d="M431 247a7 7 0 0 1-7 7 7 7 0 0 1-6-7 7 7 0 0 1 6-6 7 7 0 0 1 7 6" transform="matrix(.52155 0 0 .55632 92 -49)"/>
        <path fill="#a3afb8" fill-rule="evenodd" d="M311 91s3 0 3-1v-3l1 2c0 2-1 2-2 2h-2z"/>
        <path fill="#eee" stroke="#1e1e1e" stroke-linejoin="round" d="M431 247a7 7 0 0 1-7 7 7 7 0 0 1-6-7 7 7 0 0 1 6-6 7 7 0 0 1 7 6" transform="matrix(.52155 0 0 .55632 90 -37)"/>
        <path fill="#a3afb8" fill-rule="evenodd" d="M310 103s3 0 3-2v-2l1 2-2 2h-2z"/>
        <path fill="#eee" stroke="#1e1e1e" stroke-linejoin="round" d="M431 247a7 7 0 0 1-7 7 7 7 0 0 1-6-7 7 7 0 0 1 6-6 7 7 0 0 1 7 6" transform="matrix(.52155 0 0 .55632 86 -26)"/>
        <path fill="#a3afb8" fill-rule="evenodd" d="M305 113s3 0 3-1v-3l1 3-2 1h-2z"/>
        <path fill="#eee" stroke="#1e1e1e" stroke-linejoin="round" d="M431 247a7 7 0 0 1-7 7 7 7 0 0 1-6-7 7 7 0 0 1 6-6 7 7 0 0 1 7 6" transform="matrix(.52155 0 0 .55632 44 -60)"/>
        <path fill="#a3afb8" fill-rule="evenodd" d="M263 79s3 0 3-1v-3l1 3-2 2a3 3 0 0 1-2-1z"/>
        <g stroke-width="3">
            <path fill="#eee" stroke="#1e1e1e" stroke-linejoin="round" d="M431 247a7 7 0 0 1-7 7 7 7 0 0 1-6-7 7 7 0 0 1 6-6 7 7 0 0 1 7 6" transform="matrix(.43616 0 0 .46523 70 -39)"/>
            <path fill="#a3afb8" fill-rule="evenodd" d="M254 78l3-1-1-2 1 2-1 1a2 2 0 0 1-2 0z"/>
        </g>
        <g stroke-width="3">
            <path fill="#eee" stroke="#1e1e1e" stroke-linejoin="round" d="M431 247a7 7 0 0 1-7 7 7 7 0 0 1-6-7 7 7 0 0 1 6-6 7 7 0 0 1 7 6" transform="matrix(.43616 0 0 .46523 70 -35)"/>
            <path fill="#a3afb8" fill-rule="evenodd" d="M254 82l3-1-1-3 1 3-1 1a2 2 0 0 1-2 0z"/>
        </g>
        <g stroke-width="3">
            <path fill="#eee" stroke="#1e1e1e" stroke-linejoin="round" d="M431 247a7 7 0 0 1-7 7 7 7 0 0 1-6-7 7 7 0 0 1 6-6 7 7 0 0 1 7 6" transform="matrix(.43616 0 0 .46523 71 -29)"/>
            <path fill="#a3afb8" fill-rule="evenodd" d="M254 87l3-1v-2 2l-1 2a2 2 0 0 1-2-1z"/>
        </g>
        <g stroke-width="3">
            <path fill="#eee" stroke="#1e1e1e" stroke-linejoin="round" d="M431 247a7 7 0 0 1-7 7 7 7 0 0 1-6-7 7 7 0 0 1 6-6 7 7 0 0 1 7 6" transform="matrix(.47168 0 0 .50313 56 -33)"/>
            <path fill="#a3afb8" fill-rule="evenodd" d="M254 93l3-1v-2l1 2-2 2a3 3 0 0 1-2-1z"/>
        </g>
        <path fill="#eee" stroke="#1e1e1e" stroke-linejoin="round" d="M431 247a7 7 0 0 1-7 7 7 7 0 0 1-6-7 7 7 0 0 1 6-6 7 7 0 0 1 7 6" transform="matrix(.52155 0 0 .55632 34 -38)"/>
        <path fill="#a3afb8" fill-rule="evenodd" d="M254 101s3 0 3-1v-3l1 3-2 2-2-1z"/>
        <path fill="#eee" stroke="#1e1e1e" stroke-linejoin="round" d="M431 247a7 7 0 0 1-7 7 7 7 0 0 1-6-7 7 7 0 0 1 6-6 7 7 0 0 1 7 6" transform="matrix(.48982 0 0 .52248 48 -13)"/>
        <path fill="#a3afb8" fill-rule="evenodd" d="M254 118l3-2v-2 2l-1 2a3 3 0 0 1-2 0z"/>
        <path fill="#eee" stroke="#1e1e1e" stroke-linejoin="round" d="M431 247a7 7 0 0 1-7 7 7 7 0 0 1-6-7 7 7 0 0 1 6-6 7 7 0 0 1 7 6" transform="matrix(.52155 0 0 .55632 25 -60)"/>
        <path fill="#a3afb8" fill-rule="evenodd" d="M245 79s2 0 3-1l-1-3s2 2 1 3l-1 1h-2z"/>
        <path fill="#eee" stroke="#1e1e1e" stroke-linejoin="round" d="M431 247a7 7 0 0 1-7 7 7 7 0 0 1-6-7 7 7 0 0 1 6-6 7 7 0 0 1 7 6" transform="matrix(.52155 0 0 .55632 17 -64)"/>
        <path fill="#a3afb8" fill-rule="evenodd" d="M236 76s3 0 3-2v-2l1 2-2 2h-2z"/>
        <path fill="#eee" stroke="#1e1e1e" stroke-linejoin="round" d="M431 247a7 7 0 0 1-7 7 7 7 0 0 1-6-7 7 7 0 0 1 6-6 7 7 0 0 1 7 6" transform="matrix(.52155 0 0 .55632 9 -68)"/>
        <path fill="#a3afb8" fill-rule="evenodd" d="M228 72s3 0 3-2v-2l1 2-2 2a3 3 0 0 1-2 0z"/>
        <path fill="#eee" stroke="#1e1e1e" stroke-linejoin="round" d="M431 247a7 7 0 0 1-7 7 7 7 0 0 1-6-7 7 7 0 0 1 6-6 7 7 0 0 1 7 6" transform="matrix(.52155 0 0 .55632 0 -70)"/>
        <path fill="#a3afb8" fill-rule="evenodd" d="M219 69s3 0 3-1v-3l1 3-2 2-2-1z"/>
        <path fill="#eee" stroke="#1e1e1e" stroke-linejoin="round" d="M431 247a7 7 0 0 1-7 7 7 7 0 0 1-6-7 7 7 0 0 1 6-6 7 7 0 0 1 7 6" transform="matrix(.52155 0 0 .55632 -11 -67)"/>
        <path fill="#a3afb8" fill-rule="evenodd" d="M208 72s3 0 3-1v-3l1 3-2 2-2-1z"/>
        <path fill="#eee" stroke="#1e1e1e" stroke-linejoin="round" d="M431 247a7 7 0 0 1-7 7 7 7 0 0 1-6-7 7 7 0 0 1 6-6 7 7 0 0 1 7 6" transform="matrix(.52155 0 0 .55632 -19 -59)"/>
        <path fill="#a3afb8" fill-rule="evenodd" d="M201 80l3-1-1-3c1 0 2 2 1 3l-1 2-2-1z"/>
        <path fill="#eee" stroke="#1e1e1e" stroke-linejoin="round" d="M431 247a7 7 0 0 1-7 7 7 7 0 0 1-6-7 7 7 0 0 1 6-6 7 7 0 0 1 7 6" transform="matrix(.52155 0 0 .55632 -22 -48)"/>
        <path fill="#a3afb8" fill-rule="evenodd" d="M198 92s2 0 3-2l-1-2s2 1 1 2l-1 2h-2z"/>
        <path fill="#eee" stroke="#1e1e1e" stroke-linejoin="round" d="M431 247a7 7 0 0 1-7 7 7 7 0 0 1-6-7 7 7 0 0 1 6-6 7 7 0 0 1 7 6" transform="matrix(.52155 0 0 .55632 -21 -36)"/>
        <path fill="#a3afb8" fill-rule="evenodd" d="M199 104s3 0 3-2v-2l1 2-2 2a3 3 0 0 1-2 0z"/>
        <path fill="#eee" stroke="#1e1e1e" stroke-linejoin="round" d="M431 247a7 7 0 0 1-7 7 7 7 0 0 1-6-7 7 7 0 0 1 6-6 7 7 0 0 1 7 6" transform="matrix(.52155 0 0 .55632 -16 -25)"/>
        <path fill="#a3afb8" fill-rule="evenodd" d="M204 114s3 0 3-1v-3l1 3-2 2-2-1z"/>
        <g stroke-width="3">
            <path fill="#eee" stroke="#1e1e1e" stroke-linejoin="round" d="M431 247a7 7 0 0 1-7 7 7 7 0 0 1-6-7 7 7 0 0 1 6-6 7 7 0 0 1 7 6" transform="matrix(.31597 -.0903 .13499 .53737 45 32)"/>
            <path fill="#a3afb8" fill-rule="evenodd" d="M212 129l2-2-1-3 1 3v2h-2z"/>
        </g>
        <g stroke-width="3">
            <path fill="#eee" stroke="#1e1e1e" stroke-linejoin="round" d="M431 247a7 7 0 0 1-7 7 7 7 0 0 1-6-7 7 7 0 0 1 6-6 7 7 0 0 1 7 6" transform="matrix(.31758 .08362 -.125 .54011 196 -43)"/>
            <path fill="#a3afb8" fill-rule="evenodd" d="M298 128l2-1 1-3v3l-1 2-2-1z"/>
        </g>
    </g>
    <path fill="#b3a192" fill-rule="evenodd" stroke="#000" d="M253 57v6l-7 2c-1 3 2 7 2 7s2-2 8-2c5 0 8 2 8 2l1-5v-3l-4-1h-3v-6h-5z"/>
    <path fill="#f0ddcb" stroke="#121116" stroke-linejoin="round" d="M262 67l-1 1a1 1 0 0 1-1-1 1 1 0 0 1 1-1 1 1 0 0 1 1 1m3 0l-1 2-1-2a1 1 0 0 1 1-1l1 2m-5-1l-2 1-1-1a1 1 0 0 1 1-2 1 1 0 0 1 2 2m-6 0l-1 1-1-1 1-1 1 1m-3 0l-1 1-2-1 2-1 1 1m6-4l-1 1a1 1 0 0 1-1-1 1 1 0 0 1 1-1 1 1 0 0 1 1 1m0-5l-1 1a1 1 0 0 1-1-1 1 1 0 0 1 1-1 1 1 0 0 1 1 1m0 3l-1 1a1 1 0 0 1-1-1 1 1 0 0 1 1-1 1 1 0 0 1 1 1m-9 7l-2 1-1-1a1 1 0 0 1 2-1 1 1 0 0 1 1 1"/>
    <path fill="#916c68" stroke="#4d3126" stroke-linejoin="round" d="M257 67l-2 1a1 1 0 0 1-1-1 1 1 0 0 1 1-2 1 1 0 0 1 2 2"/>
    <g stroke-width="3">
        <path fill="#eee" stroke="#1e1e1e" stroke-linejoin="round" d="M431 247a7 7 0 0 1-7 7 7 7 0 0 1-6-7 7 7 0 0 1 6-6 7 7 0 0 1 7 6" transform="matrix(.386 0 0 .41173 92 -53)"/>
        <path fill="#a3afb8" fill-rule="evenodd" d="M254 50l3-1v-2 2l-1 1a2 2 0 0 1-2 0z"/>
    </g>
    <path fill="#fc0" fill-rule="evenodd" stroke="#000" d="M216 139l3 4 1 7s24-7 35-6 38 7 38 7l1-6c0-4 2-7 2-7s-25-8-41-8c-16 1-23 3-27 4a249 249 0 0 0-12 5zM251 39h10l-3 3-1 4 4-1 4-3v13l-4-3-3-1v3l5 6-15 1 5-7 1-3-4 1-3 3V42l3 4h3v-4l-2-4z"/>
    <path fill="#fc0" fill-rule="evenodd" stroke="#121116" d="M250 82s-7 0-13-4-13-8-22-6c-1 1-8 4-11 14-2 7 0 16 2 20l6 8 4-3s-10-8-9-19 7-14 7-14 6-5 14 0a77 77 0 0 0 26 9l-4-5z"/>
    <path fill="#fc0" fill-rule="evenodd" stroke="#000" d="M211 123l-4-8 11-5-3 7-1 6 2-3c2-2 3-8 3-8l5 17-4-3-5 1-3 1-2-5z"/>
    <path fill="#fc0" fill-rule="evenodd" stroke="#121116" d="M263 81s7 0 13-4c6-3 12-7 21-5 2 0 9 4 12 14 2 7 0 16-3 20l-3 6-5-2s8-7 7-18-6-14-6-14-6-5-15 0l-17 7-8 2 4-6z"/>
    <path fill="#fc0" stroke="#121116" stroke-linejoin="round" d="M259 74h3v29h-3zm-10 0h4v29h-4z"/>
    <path fill="#fc0" stroke="#121116" stroke-linejoin="round" d="M265 67a10 10 0 0 1-10 9 10 10 0 0 1-9-9 10 10 0 0 1 9-10 10 10 0 0 1 10 10"/>
    <path fill="#fc0" fill-rule="evenodd" stroke="#000" d="M247 103h17l-4 5c-2 3-1 5-1 5l4-2 4-4v17l-4-4-4-1h-6l-4 1a30 30 0 0 0-4 4v-16s1 3 4 4l4 1s0-4-2-6l-4-4z"/>
    <path fill="#f6ca1f" fill-rule="evenodd" stroke="#000" d="M256 116s3 6 5 9c2 1 7 3 9 2 5-1 9-6 9-6s0 5 3 8c3 2 6 3 8 2l10-7 2 2-9 7c-2 1-9 0-11-2-3-2-4-6-4-6s-1 3-4 4-7 1-11-1c-3 0-6-4-7-5v-2s-2 6-6 7a18 18 0 0 1-12 0c-3-1-3-3-3-3s-1 6-8 8c-8 2-15-4-15-4l1-2s5 5 12 5c6-1 9-10 9-10s3 5 11 5 10-11 10-11h1z"/>
    <g fill="#fc0" stroke="#000" stroke-width="2">
        <path fill-rule="evenodd" d="M339 336l1-7a5 5 0 0 1 5-2c1 1 3 2 2 6v7c1 1 1 2 4 2 2-1 3-1 2-3l-1-2c-1-1 2-9 1-13 0-4-2-8-5-9-3 0-6 0-9 2a35 35 0 0 0-6 8v15l6-1v-3z" transform="matrix(.52155 0 0 .55632 60 -67)"/>
        <path fill-rule="evenodd" d="M328 340l-4-6a5 5 0 0 0-5 0c-1 1-2 3-1 6 2 4 4 5 3 7 0 1 0 2-2 3s-3 0-4-2l1-2-7-11c-1-4-1-8 2-10 2-2 5-3 8-2 4 0 9 5 9 5l6 13-5 2-1-3z" transform="matrix(.52155 0 0 .55632 60 -67)"/>
        <path fill-rule="evenodd" d="M327 298s-6 9-5 17l9 23v2l4-1-1-2s2-19 1-24-8-15-8-15zm9 43l6 5c3 2 5 2 6 1 2-1 1-4 0-5h-3c0 2-1 2-2 1l-5-3-2 1zm-5 1l-3 7c-3 3-4 4-6 4l-2-5c1-2 3-2 3-1h2a149 149 0 0 0 4-6l2 1z" transform="matrix(.52155 0 0 .55632 60 -67)"/>
        <path stroke-linejoin="round" d="M342 342c0 1-4 2-9 2s-9-1-9-2 4-2 9-2 9 1 9 2" transform="matrix(.51436 -.09206 .0863 .54866 33 -35)"/>
    </g>
    <g fill="#fc0" stroke="#000" stroke-width="2">
        <path fill-rule="evenodd" d="M339 336l1-7a5 5 0 0 1 5-2c1 1 3 2 2 6v7c1 1 1 2 4 2 2-1 3-1 2-3l-1-2c-1-1 2-9 1-13 0-4-2-8-5-9-3 0-6 0-9 2a35 35 0 0 0-6 8v15l6-1v-3z" transform="matrix(.48843 .1951 -.1829 .521 178 -120)"/>
        <path fill-rule="evenodd" d="M328 340l-4-6a5 5 0 0 0-5 0c-1 1-2 3-1 6 2 4 4 5 3 7 0 1 0 2-2 3s-3 0-4-2l1-2-7-11c-1-4-1-8 2-10 2-2 5-3 8-2 4 0 9 5 9 5l6 13-5 2-1-3z" transform="matrix(.48843 .1951 -.1829 .521 178 -120)"/>
        <path fill-rule="evenodd" d="M327 298s-6 9-5 17l9 23v2l4-1-1-2s2-19 1-24-8-15-8-15zm9 43l6 5c3 2 5 2 6 1 2-1 1-4 0-5h-3c0 2-1 2-2 1l-5-3-2 1zm-5 1l-3 7c-3 3-4 4-6 4l-2-5c1-2 3-2 3-1h2a149 149 0 0 0 4-6l2 1z" transform="matrix(.48843 .1951 -.1829 .521 178 -120)"/>
        <path stroke-linejoin="round" d="M342 342c0 1-4 2-9 2s-9-1-9-2 4-2 9-2 9 1 9 2" transform="matrix(.51196 .1062 -.09955 .5461 142 -100)"/>
    </g>
    <path fill="#cca715" fill-rule="evenodd" stroke="#000" d="M215 139s1 2 2 1 17-8 40-8 37 6 38 7h2c1-1-1-3-1-3s-15-7-40-7-41 8-41 8v1z"/>
    <path fill-rule="evenodd" d="M244 149l2-3 2 1h-2l-1 1h4l-3 1 2 1-5-1-2-1-2 2 2-2h2l1 1zm-17 3l2-2h0l-1 2 2-1h2l-3 1c-1 1 2 1 2 1h-5-2l-2 2 2-3h3zm31-4l2-3 3 1h-3l-1 2 2-1h2l-3 1c-1 1 2 1 2 1h-5c0-1-1-2-2-1l-2 1 2-2h2l1 1zm14 2l3-3 2 2-3-1-1 1h4l-3 1 2 1-5-1-2-1-2 1 2-2 2 1h1zm14 2l2-1 2 1-2-1-1 1h3l-2 1 1 1-4-1-1-2-2 1 2-1h1l1 1z"/>
    <path fill="#0f6545" stroke="#000" stroke-linejoin="round" d="M241 138c0 2-2 4-4 5l-6-2c0-2 2-4 4-5l6 2z"/>
    <path fill="#cecfc1" d="M235 138l-1 1h-1l1-1h1z"/>
    <path fill="#0f6545" stroke="#000" stroke-linejoin="round" d="M280 141c0 1-3 2-6 1-2-1-4-3-4-5 1-2 4-2 6-1 3 1 5 3 4 4z"/>
    <path fill="#cecfc1" d="M275 137l-1 1-1-2h1l1 1z"/>
    <path fill="#1f2d86" stroke="#000" stroke-linejoin="round" d="M251 134h10v6h-10z"/>
    <path fill="#707c8b" d="M255 136h-1-1l1-1h1z"/>
    <path fill="#9f1209" fill-rule="evenodd" stroke="#000" d="M222 140l2 5-3 2h-3c-2-1-3-3-2-4l6-3z"/>
    <path fill="#8f322f" d="M219 144l-1 1-1-1 1-2 1 2z"/>
    <path fill="#e2a494" d="M218 143a1 1 0 0 1 0 1h-1v-1a1 1 0 0 1 0-1h1v1z"/>
    <path fill="#9f1209" fill-rule="evenodd" stroke="#000" d="M290 141l-2 4 4 2h3v-4l-5-3z"/>
    <path fill="#aa675d" d="M295 144l-2 1-1-1 1-1 2 1z"/>
    <path fill="#e2a494" d="M293 144v1a1 1 0 0 1-1 0 1 1 0 0 1 0-1v-1a1 1 0 0 1 1 0v1z"/>
    <path fill="#f5d8bc" d="M265 135a1 1 0 0 1-1 1 1 1 0 0 1-1-1 1 1 0 0 1 1-1 1 1 0 0 1 1 1zm4 0a1 1 0 0 1-1 1 1 1 0 0 1-1-1 1 1 0 0 1 1-1 1 1 0 0 1 1 1zm-2 2a1 1 0 0 1-1 1 1 1 0 0 1-1-1l1-1 1 1zm2 3a1 1 0 0 1-1 1 1 1 0 0 1-1-1 1 1 0 0 1 1-1 1 1 0 0 1 1 1zm-4-1a1 1 0 0 1-1 1 1 1 0 0 1-1-1 1 1 0 0 1 1 0 1 1 0 0 1 1 0zm-21-3a1 1 0 0 1-1 1 1 1 0 0 1-1-1 1 1 0 0 1 1-1 1 1 0 0 1 1 1zm4-1a1 1 0 0 1-1 1 1 1 0 0 1 0-1 1 1 0 0 1 0-1 1 1 0 0 1 1 1zm-2 2a1 1 0 0 1 0 1 1 1 0 0 1-1 0 1 1 0 0 1 0-1 1 1 0 0 1 1 0zm3 3a1 1 0 0 1-1 0 1 1 0 0 1 0-1 1 1 0 0 1 1 1zm-4 0a1 1 0 0 1-1 1 1 1 0 0 1-1-1 1 1 0 0 1 1-1 1 1 0 0 1 1 1zm-19 0a1 1 0 0 1-1 1 1 1 0 0 1-1-1 1 1 0 0 1 1-1 1 1 0 0 1 1 1zm4-2a1 1 0 0 1-1 1 1 1 0 0 1-1 0 1 1 0 0 1 1-1 1 1 0 0 1 1 0zm-2 3a1 1 0 0 1 0 1 1 1 0 0 1-1 0 1 1 0 0 1 0-2 1 1 0 0 1 1 1zm3 2a1 1 0 0 1 0 1 1 1 0 0 1-1-1 1 1 0 0 1 0-1 1 1 0 0 1 1 1zm-4 1a1 1 0 0 1 0 1 1 1 0 0 1-1 0 1 1 0 0 1 0-1 1 1 0 0 1 1 0zm56-6a1 1 0 0 1-1 0 1 1 0 0 1 0-1 1 1 0 0 1 1 0 1 1 0 0 1 0 1zm5 1a1 1 0 0 1-1 1 1 1 0 0 1-1-1 1 1 0 0 1 1-1 1 1 0 0 1 1 1zm-3 1a1 1 0 0 1-1 1 1 1 0 0 1-1-1 1 1 0 0 1 1-1l1 1zm2 4a1 1 0 0 1-1 1 1 1 0 0 1-1-1 1 1 0 0 1 1-1 1 1 0 0 1 0 1zm-5-2a1 1 0 0 1-1 1 1 1 0 0 1 0-1 1 1 0 0 1 1-1 1 1 0 0 1 0 1z"/>
    <path fill="none" stroke="#000" d="M292 95s-2 2-4 2a7 7 0 0 1-5-2v-2M249 99l-5-1-3-2c-2 0-4 2-4 4 1 2 2 2 4 1l-1-2c-2 0-1 2-1 2m-16-5s1 2 4 1c3 0 4-2 4-2l-1-3h-2"/>
    <g stroke="#161111">
        <path fill="#c00" d="M312 169c2-1 4-3 5-7 2-3 2-10 4-13 1-5 4-11 1-10-4 0-5 3-7 6l-2 4-1-13v-13l-1-7-2-2c-2 0-3 2-3 3v12l-1 8v-13a420 420 0 0 1-1-7v-4c0-3-1-3-2-3s-3 0-3 3a22 22 0 0 0-1 4l1 5-1 16-1-9a805 805 0 0 0 0-6v-6c0-1-1-4-3-4-1 0-2 1-2 4v21l-1-5-1-5v-5l-1-3c-2 0-3 1-3 3v7a88 88 0 0 1-1 13l-1 6a44 44 0 0 0 0 13c1 4 5 6 4 9v11c0 2 2 2 7 1 7-1 10 2 16 0-1-7 1-11 1-13zm-4-15c1-4 3-6 5-7" transform="matrix(1.6 0 0 1.70667 -224 0)"/>
        <path fill="none" d="M292 150l7-3 8-2 4-1m-23 27h2a67 67 0 0 1 3 0l3-1m6 1h6l4-2" transform="matrix(1.6 0 0 1.70667 -224 0)"/>
    </g>
</svg>
