<svg xmlns="http://www.w3.org/2000/svg" xmlns:xlink="http://www.w3.org/1999/xlink" viewBox="0 0 512 512">
    <defs>
        <g id="c">
            <g id="b">
                <path id="a" fill="#fcd116" d="M0-1v1h1" transform="rotate(18 0 -1)"/>
                <use width="100%" height="100%" transform="scale(-1 1)" xlink:href="#a"/>
            </g>
            <use width="100%" height="100%" transform="rotate(72)" xlink:href="#b"/>
            <use width="100%" height="100%" transform="rotate(144)" xlink:href="#b"/>
            <use width="100%" height="100%" transform="rotate(-144)" xlink:href="#b"/>
            <use width="100%" height="100%" transform="rotate(-72)" xlink:href="#b"/>
        </g>
    </defs>
    <path fill="#ce1126" d="M0 0h512v512H0z"/>
    <path fill="#007a5e" d="M72 72h368v368H72z"/>
    <path fill="#fcd116" d="M72 72h368L72 440h368z"/>
    <circle cx="256" cy="256" r="61" fill="#ce1126"/>
    <use width="100%" height="100%" transform="translate(256 256) scale(56.32)" xlink:href="#c"/>
    <use width="100%" height="100%" x="-100" transform="translate(-16)" xlink:href="#d"/>
    <use id="d" width="100%" height="100%" transform="translate(256 36) scale(33.28)" xlink:href="#c"/>
    <use width="100%" height="100%" x="100" transform="translate(16)" xlink:href="#d"/>
    <path fill="#ce1126" d="M100 257c7 14 22 30 36 35 0-14-5-33-12-48l-24 13z"/>
    <path fill="#fcd116" d="M87 208c11 23-29 78 38 91a68 68 0 0 1-12-44 76 76 0 0 1 35 32c17-63-45-59-61-79z"/>
    <use width="100%" height="100%" x="-100" transform="translate(-16 442)" xlink:href="#d"/>
    <use width="100%" height="100%" transform="translate(256 478) scale(33.28)" xlink:href="#c"/>
    <use width="100%" height="100%" x="100" transform="translate(16 442)" xlink:href="#d"/>
</svg>
