<svg xmlns="http://www.w3.org/2000/svg" xmlns:xlink="http://www.w3.org/1999/xlink" viewBox="0 0 512 512">
    <defs>
        <radialGradient id="a">
            <stop offset="0" stop-color="#f9f0aa"/>
            <stop offset="1" stop-color="#b07e09"/>
        </radialGradient>
        <radialGradient id="d" cx="447" cy="308" r="17" gradientUnits="userSpaceOnUse" xlink:href="#a"/>
        <radialGradient id="e" cx="452" cy="313" r="11" gradientUnits="userSpaceOnUse" xlink:href="#a"/>
        <radialGradient id="f" cx="454" cy="309" r="10" gradientUnits="userSpaceOnUse" xlink:href="#a"/>
        <radialGradient id="g" cx="458" cy="307" r="17" gradientUnits="userSpaceOnUse" xlink:href="#a"/>
        <radialGradient id="j" cx="446" cy="252" r="13" gradientUnits="userSpaceOnUse" xlink:href="#a"/>
        <radialGradient id="m" cx="478" cy="215" r="0" gradientUnits="userSpaceOnUse">
            <stop offset="0" stop-color="#a50a0a"/>
            <stop offset="1" stop-color="#4c0505"/>
        </radialGradient>
        <radialGradient id="n" cx="489" cy="210" r="0" fx="489" fy="210" gradientTransform="scale(.97707 1.02346)" gradientUnits="userSpaceOnUse">
            <stop offset="0" stop-color="#fff"/>
            <stop offset="1" stop-color="#fff" stop-opacity="0"/>
        </radialGradient>
        <linearGradient id="h" x1="474" x2="472" y1="259" y2="232" gradientUnits="userSpaceOnUse">
            <stop offset="0" stop-color="#b07e09" stop-opacity="0"/>
            <stop offset="1" stop-color="#b07e09"/>
        </linearGradient>
        <linearGradient id="i" x1="483" x2="486" y1="297" y2="327" gradientUnits="userSpaceOnUse">
            <stop offset="0" stop-color="#b07e09" stop-opacity="0"/>
            <stop offset="1" stop-color="#b07e09"/>
        </linearGradient>
        <linearGradient id="k" x1="452" x2="455" y1="250" y2="241" gradientUnits="userSpaceOnUse">
            <stop offset="0" stop-color="#f9f0aa"/>
            <stop offset="1" stop-color="#b07e09"/>
        </linearGradient>
        <linearGradient id="l" x1="473" x2="476" y1="237" y2="270" gradientUnits="userSpaceOnUse">
            <stop offset="0" stop-color="#f9f0aa"/>
            <stop offset="1" stop-color="#b07e09"/>
        </linearGradient>
    </defs>
    <path fill="#4997d0" d="M0 0h512v512H0z"/>
    <path fill="#fff" d="M171 0h170v512H171z"/>
    <g transform="translate(0 96) scale(.53333)">
        <g stroke="none">
            <path fill="none" d="M452 378l6-2m2-4a13 13 0 0 1 3 4m-8-5a15 15 0 0 1 3 4m-49-136l-5 3m0 0v-4m-2 5v2m2 1h-2m-4-1l1 8m-2-1a6 6 0 0 0 2 2m-5 6l1 4m4-4l-2 1m2 4l-4 3m-3 40a16 16 0 0 0 4 5m0 1a8 8 0 0 1-3-1m5 9l1 1m0 3l4 4m-2 3l3 1m-1 2h2m2-5l-1 4m1 2l1-2m4 6v4m39 28l-1 1m-2-4l-1-2"/>
            <g stroke-width="0">
                <path fill="#406325" d="M486 385l-3-3c-8-4-16-6-24-7l-6-3c-5-2-11-3-16-6a8 8 0 0 1-2-1c-2-3-5-3-7-5-9-8-18-15-22-26-6-13-13-26-12-40 1-9 0-18 2-27 3-13 7-26 15-36h-1a104 104 0 0 0-16 37c-2 8-1 18-1 27-1 14 6 27 11 40 5 10 14 18 22 26 2 2 6 2 8 5a10 10 0 0 0 2 1l15 6 6 3a76 76 0 0 1 24 7 8 8 0 0 1 4 3l1-1"/>
                <g fill="#67923d">
                    <path d="M406 332a47 47 0 0 1 0-24c7 13 5 24 0 24zm46 45c-7 0-20 9-22 11 15 0 24-7 22-11zm8-4a60 60 0 0 1-14-27c15 11 19 24 14 27z"/>
                    <path d="M455 373a55 55 0 0 1-16-23c15 8 20 20 16 23zm-16-7c1-8-6-24-7-26-3 17 3 28 7 26zm-27-24a42 42 0 0 1 0-21c6 11 3 21 0 21zm-14-77a51 51 0 0 1 21-16c-7 15-18 20-21 16z"/>
                    <path d="M399 259a52 52 0 0 1 17-20c-4 16-14 24-17 20zm28 100c-5-7-8-24-8-27 11 13 12 25 7 27zm-29-37c-7 1-22-5-23-6 14-4 24 2 23 6zm-2-10c0-5 8-15 10-16-1 12-7 18-10 16zm51 59a57 57 0 0 0-26 14c18 0 29-9 26-14z"/>
                </g>
                <g fill="#406325">
                    <path d="M406 332c5 0 7-11 0-24a79 79 0 0 1 0 24zm12 20a49 49 0 0 0-22-12c9 12 20 15 22 12zm-25-53a57 57 0 0 0-15-24c2 17 11 26 15 24zm9 34c-5-4-19-6-21-5 10 8 20 9 21 5zm-10-25a42 42 0 0 0-17-14c6 13 15 17 17 14zm3-48c1-7-6-23-7-25-3 16 2 27 7 25zm4-15a48 48 0 0 0 0-24c-7 14-4 25 0 25zM404 238a40 40 0 0 0 4-20c-7 10-7 19-4 20zm6-6a39 39 0 0 0 9-18c-9 7-12 16-9 18zm-16 43c0 1-1-8-10-18 1 14 6 20 10 18zm33 86a53 53 0 0 0-26-6c13 10 25 10 26 6zm12 5c-5 2-11-9-8-26a99 99 0 0 0 8 26zm13 11c2 4-7 12-22 11 12-5 22-9 22-11zm8-4c5-3 1-16-14-27 8 13 14 25 14 27z"/>
                    <path d="M455 373c4-3-1-15-16-23 9 11 16 21 16 23zm-43-31c4 0 6-10 0-21v21zm-14-77c3 4 14-1 21-16a91 91 0 0 1-21 16z"/>
                    <path d="M399 259c3 4 13-4 17-20-8 12-16 20-17 20zm28 99c4-1 4-13-8-26l8 26zm-29-36c1-4-9-9-23-6 12 2 22 5 23 6zm-2-10c3 2 9-4 10-16a69 69 0 0 1-10 16zm51 59c3 5-8 14-26 14 14-6 25-12 26-14z"/>
                    <path d="M399 326a45 45 0 0 0-17-15c5 13 15 19 17 15z"/>
                </g>
                <g fill="#67923d">
                    <path d="M392 274c4-5 18-9 20-9-8 11-18 13-20 9zm25 78c-1 4-12 1-21-12a85 85 0 0 0 21 11zm-24-53c-4 2-13-7-15-24 7 13 13 23 15 24zm8 34c0 4-10 3-20-5a75 75 0 0 0 20 5zm-9-25c-2 3-11-1-17-14 8 8 16 14 17 14zm3-48c-5 2-10-9-8-25 3 14 6 25 8 25zm4-15c-4 1-7-10 0-24v24zm5-7c-3-1-3-10 4-20a66 66 0 0 0-4 20zm6-6c-3-2 0-11 9-18a66 66 0 0 0-9 18z"/>
                    <path d="M394 275c-4 2-9-4-10-18l10 18zm33 86c-1 4-13 4-26-6 13 4 24 7 26 6zm-8-10a41 41 0 0 1-7-19c9 9 10 18 7 19zm-17-25a44 44 0 0 1-3-23c8 12 7 23 3 23zm-3 0c-3 4-12-2-17-15a78 78 0 0 0 17 15z"/>
                </g>
                <g fill="#406325">
                    <path d="M392 274c2 4 12 2 20-9-12 7-17 10-20 9zm10 52c4 0 5-11-3-23a73 73 0 0 1 3 23zm17 25c3-1 2-10-7-19l7 19z"/>
                    <path d="M394 292a41 41 0 0 0-4-26c-5 16 0 27 4 26z"/>
                </g>
                <path fill="#67923d" d="M394 294c-6 1-9-12-4-27l4 27z"/>
                <path fill="#67923d" d="M393 294a53 53 0 0 1 9-25c2 16-5 26-9 25z"/>
                <path fill="#406325" d="M393 294c4 1 11-9 9-25l-9 25z"/>
                <path fill="#67923d" d="M394 303a50 50 0 0 1 11-23c1 16-7 26-11 23z"/>
                <path fill="#406325" d="M394 303c4 3 11-7 11-23-5 13-9 23-11 23z"/>
            </g>
            <g fill="#ba1f3e" stroke-width="0">
                <circle cx="397" cy="251" r="1"/>
                <circle cx="405" cy="245" r="1"/>
                <circle cx="402" cy="242" r="1"/>
                <circle cx="393" cy="313" r="1"/>
                <circle cx="395" cy="297" r="1"/>
                <circle cx="408" cy="335" r="1"/>
                <circle cx="402" cy="336" r="1"/>
                <circle cx="447" cy="368" r="1"/>
                <circle cx="450" cy="375" r="1"/>
            </g>
        </g>
        <g stroke="none">
            <path fill="none" d="M561 259l2 2m-6-19l-1-5m3 3l-1 5m-4 0l5 4m4 1l-1 6m1 1l1-2m-2 12l4 4m0-1l2-3m2 31a24 24 0 0 1-3 4m-4 0l3 4m2 5a13 13 0 0 1-4 4m0 5l-4 5m9-21l-2 1m-2-7l1 1m-9 37h-2m-2-1l1 1m-8 5v6m4-9l1 2m4 0h-2m-31 26l-1 1m12-4h-4m-6 6a27 27 0 0 0-3-1m-14 3l-3 4m-1-5l-4 6m2 3a52 52 0 0 1-5-2m17-1l-7-1m10-1h-10m8-2l-1-1m-6 6l-2-2m58-49l-4 4m2-80h-2"/>
            <g stroke-width="0">
                <path fill="#406325" d="M474 385a8 8 0 0 1 4-3c7-4 15-6 24-7l6-3 15-6a8 8 0 0 0 2-1c2-3 6-3 8-5 8-8 17-15 22-26 5-13 12-26 11-40 0-9 1-19-1-27a105 105 0 0 0-16-37l2 1a104 104 0 0 1 15 37c2 8 1 18 1 27 1 14-6 27-11 40-5 10-14 18-22 25l-7 5a10 10 0 0 1-2 2c-5 2-11 3-16 6l-6 3a76 76 0 0 0-24 7 8 8 0 0 0-3 3l-2-1"/>
                <g fill="#406325">
                    <path d="M554 335c2-8 0-25-2-27-6 15-3 27 2 27z"/>
                    <path d="M547 342c2-6 0-20-1-21-5 11-3 21 1 21zm16-74a47 47 0 0 0-19-15c6 13 17 18 19 15z"/>
                    <path d="M562 260a43 43 0 0 0-15-17c3 13 12 19 15 17zm4 15c-3-5-15-8-16-8 7 9 15 11 17 7zm-2 46a40 40 0 0 0 20-6c-13-3-21 2-20 6zm0-6c0-5-7-17-8-18-1 12 4 20 8 18z"/>
                    <path d="M564 301a50 50 0 0 0-11-23c0 16 7 26 11 23zm-53 76a48 48 0 0 0 22 11c-9-13-20-15-22-11z"/>
                </g>
                <g fill="#67923d">
                    <path d="M554 334c-5 1-8-11-2-26 0 14 0 25 2 26zm-54 44a48 48 0 0 1 22 11c-15 1-24-7-22-11zm0-8c2-8 15-21 18-22-4 17-14 25-18 22zm22-4c-1-8 5-24 7-26 3 16-3 27-7 26zm21-15a49 49 0 0 1 22-11c-9 12-20 15-22 11zm26-53c1-6 9-18 11-19-1 14-8 21-11 19zM557 336a50 50 0 0 1 24-5c-11 9-23 9-24 5zm10-24a44 44 0 0 1 18-15c-6 13-15 18-18 15zm-1-46c0-8 8-23 10-24 1 16-6 26-10 24zm-7-26a41 41 0 0 1 0-20c5 11 3 20 0 20zm-4-2a50 50 0 0 1-11-22c12 9 15 20 11 22z"/>
                    <path d="M566 273s3-8 14-16c-3 14-10 18-14 15zm-34 90c7-6 27-8 29-7-14 11-28 12-29 6zm14-21c-3 0-6-10 0-21v21zm17-74c-2 3-13-2-19-15a79 79 0 0 0 19 15zm-1-8c-3 2-12-4-15-17l15 17zm4 15c-1 3-9 1-16-8 10 6 14 8 17 8zm-2 46c-1-4 7-9 20-6a69 69 0 0 0-20 6zm-1-6c-3 2-8-6-8-18a69 69 0 0 0 8 18zM564 302c-4 2-11-8-11-24 5 13 9 23 11 24zm-53 75c2-4 13-2 22 11a80 80 0 0 0-22-11z"/>
                </g>
                <g fill="#406325">
                    <path d="M522 366c4 1 10-10 7-26l-7 26z"/>
                    <path d="M532 361a55 55 0 0 0 4-27c-10 13-9 26-4 27zm-32 17c-2 4 7 12 22 11a80 80 0 0 1-22-11zm0-8c4 3 14-5 18-22-8 12-16 22-18 22zm43-19c2 4 13 1 22-11a85 85 0 0 1-22 11zm26-53c3 2 10-5 11-19a75 75 0 0 1-11 19zm-12 38c1 5 12 4 24-5-12 4-23 6-24 5zm10-24c3 3 12-2 18-15a75 75 0 0 1-18 15zm-1-46c4 2 11-8 10-24-4 13-8 23-10 24zm-7-26c4 0 6-9 0-20v20zm-4-2c4-2 1-13-11-22a82 82 0 0 1 11 22zm11 35c4 3 11-1 15-16-8 10-13 15-15 16zm-34 90c1 5 15 5 29-7-15 5-27 7-29 7z"/>
                    <path d="M539 355a41 41 0 0 0 4-20c-8 10-7 19-4 20zm20-29a44 44 0 0 0 3-23c-9 12-8 23-3 23z"/>
                </g>
                <path fill="#67923d" d="M532 361c-5-1-6-14 4-27-3 13-5 25-4 26zm35-69c-1-8 4-20 7-22 2 14-3 24-7 22zm-28 63c-4-1-4-10 4-20a68 68 0 0 0-4 20zm23-105c-2-5 0-19 2-21 5 12 2 22-2 21zm-58 121c3-8 16-21 19-22-4 17-15 25-19 22zm55-42a45 45 0 0 1 17-16c-5 14-15 19-17 16zm0-3c-5 0-6-11 3-23a73 73 0 0 0-3 23z"/>
                <path fill="#406325" d="M567 294c5 2 9-10 7-24a98 98 0 0 1-7 24z"/>
                <path fill="#406325" d="M568 294c0-8-7-23-9-25-2 16 4 26 9 25zm-5-44c3 1 6-9 1-21a73 73 0 0 1-2 21zm-59 121c4 3 15-5 19-22-9 12-17 21-19 21zm55-42c3 3 12-2 17-16a78 78 0 0 1-17 16z"/>
                <path fill="#67923d" d="M568 294c-5 1-11-9-9-25 3 13 7 24 9 25z"/>
            </g>
            <g fill="#ba1f3e" stroke-width="0">
                <circle cx="565" cy="255" r="1"/>
                <circle cx="568" cy="267" r="1"/>
                <circle cx="570" cy="304" r="1"/>
                <circle cx="565" cy="297" r="1"/>
                <circle cx="550" cy="337" r="1"/>
                <circle cx="556" cy="340" r="1"/>
                <circle cx="514" cy="372" r="1"/>
                <circle cx="507" cy="377" r="1"/>
                <circle cx="557" cy="249" r="1"/>
            </g>
        </g>
        <g id="b" fill="#8c959d" stroke="#485654" stroke-width="0">
            <path d="M434 336c0 1 1 3 2 2h1-2a2 2 0 0 1 0-2h-1z"/>
            <path stroke="none" d="M437 338c-1 2-2 2-3 1l-1-2-1 1a4 4 0 0 0 2 2c1 1 3 0 4-1s2-3 1-4a4 4 0 0 0-2-2l-1 1 2 1c1 1 0 2-1 3z"/>
            <path fill="#485654" stroke="none" d="M437 338a4 4 0 0 1-1 1l-1 1a2 2 0 0 1-1-1 2 2 0 0 1-1 0 2 2 0 0 1 0-1v-1l-1 2 1 1h1a2 2 0 0 0 1 0 3 3 0 0 0 1 0 5 5 0 0 0 2-1l1-2v-1a2 2 0 0 0 0-1 3 3 0 0 0-1-1 4 4 0 0 0-1-1l-1 1h1a2 2 0 0 1 1 2v1a5 5 0 0 1-1 1zm0 0l1-1v-1a2 2 0 0 0-1-1h-1l1-2a4 4 0 0 1 2 2v3a6 6 0 0 1-1 1l-1 1-2 1a2 2 0 0 1-1-1 3 3 0 0 1-1 0 5 5 0 0 1-1-1l1-2v2h1l1 1 1-1a4 4 0 0 0 1-1z"/>
            <path fill="#6c301e" stroke="#351710" stroke-linejoin="round" d="M515 249l-40 40-41 39-5 5-7 8-2 1a23 23 0 0 0-4 4l-13 14v2l6 9c2 1 3 2 4 1 3-6 11-14 14-21l5-12 12-13 1-1 1-1 70-74-1-1z"/>
            <path d="M432 328l-3-1h4l-1 1z"/>
            <path fill="#b2b6ba" d="M557 220l-32 26h-1l-3-2v-1l2-1v-1h-1-1l-1 1-1 2c-20 18-36 35-55 54l-23 21-6 5a6 6 0 0 0-2 1l-2 6-3 4 4 3 11-11 1-1a13 13 0 0 0-1-2 34 34 0 0 0-1-1l-1-1s0 0 0 0l79-77a1 1 0 0 0 1 0l2 3 2 1 32-29z"/>
            <path fill="#485654" stroke="none" d="M431 330h1a125 125 0 0 1 2-5 2 2 0 0 0-1 0h1l-1 3-1 2a3 3 0 0 1-1 0z"/>
            <circle cx="438" cy="328" r="1" fill="none"/>
            <circle cx="434" cy="332" r="1" fill="none"/>
            <path fill="#485654" stroke="none" d="M441 322h-1a12 12 0 0 1-1-1 11 11 0 0 1 2 1z"/>
            <path d="M502 259l4 4v-1l-3-4-1 1z"/>
        </g>
        <use width="100%" height="100%" transform="rotate(-177 487 0)" xlink:href="#b"/>
        <g stroke="none" stroke-width="0">
            <path fill="#67923d" d="M434 365a56 56 0 0 0-29 1c16 8 29 5 29-1zm89 4a55 55 0 0 1 29 1c-16 8-29 4-29-1z"/>
            <path fill="#406325" d="M434 366c0 5-13 8-29 0 15 1 27 1 29-1zm89 3c0 5 13 9 29 1-15 1-28 0-29-1z"/>
        </g>
        <g id="c">
            <path fill="#b2b6ba" stroke="#485654" stroke-width="0" d="M509 360a238 238 0 0 0-77-68c4 0 12 4 15 6 24 15 44 36 66 60a35 35 0 0 1-4 3l-1-1z"/>
            <path fill="#8c959d" d="M511 360l-2 1c-23-30-55-58-77-69 30 14 56 42 78 68h1z"/>
            <path fill="#485654" d="M511 360l-2 1a302 302 0 0 0-17-20 336 336 0 0 0-18-18 284 284 0 0 0-20-17 196 196 0 0 0-11-7l-11-7a136 136 0 0 1 23 13 211 211 0 0 1 20 17 360 360 0 0 1 18 18l17 20zm0 0a899 899 0 0 0-18-20 360 360 0 0 0-18-18 212 212 0 0 0-20-17 135 135 0 0 0-23-13 201 201 0 0 1 22 14 285 285 0 0 1 20 17 336 336 0 0 1 18 18 302 302 0 0 1 17 20l2-1z"/>
            <g fill="#fab81c" stroke="#6c301e" stroke-width="0">
                <path d="M518 355a18 18 0 0 0-6 2c0 2-2 3-3 4l-1-1h0a7 7 0 0 0-1 0l-1 1c-1 1 0 2 1 3l2 1 2-1 11 10c3 0 4-1 3-3h-1v-1c2-2 3-5 1-10-3-4-5-5-7-5zm6 5l1 2c1 3 0 6-3 7h0l-1-1-2-2c1-1 0-2-1-1l-1-2-2-2v-1l3-3c3-1 5 1 6 3z"/>
                <path d="M525 363l-1-1 1-1 1 2h-1z"/>
                <path d="M525 362l-1-1h1l1 1h-1zM524 361l-1-1 2-1v1l-1 1z"/>
                <path d="M523 360v-1l1-1 1 1-2 1zM522 359v-2c0 1 0 1 0 0 0 0 0 0 0 0h1v1l-1 1z"/>
            </g>
            <path fill="#fab81c" d="M511 364c1-2 2-4 4-4m-4 4c2 0 4-1 4-3m-2 4c1 1 3-1 4-2m-3 4l4-2m-2 4l3-3m-2 4a4 4 0 0 0 4-2m-2 3l3-2m-1 4l3-2"/>
            <path fill="#6c301e" d="M511 364a7 7 0 0 1 2-3l1-1h1a4 4 0 0 0-1 0l-1 1a9 9 0 0 0-2 3zm1 0h1a5 5 0 0 0 1-1l1-1v-1a2 2 0 0 1 0 1 5 5 0 0 1-1 1 5 5 0 0 1-1 1 2 2 0 0 1-1 0zm1 1h2a6 6 0 0 0 2-2 5 5 0 0 1-1 1 5 5 0 0 1-1 1 4 4 0 0 1-1 0h-1zm1 2a4 4 0 0 0 1 0 4 4 0 0 0 1-1 5 5 0 0 0 1-1l1-1a5 5 0 0 1-2 2 3 3 0 0 1-2 1zm2 1a4 4 0 0 0 2 0 5 5 0 0 0 1-2v1l-1 1a4 4 0 0 1-1 0h-1zm1 2a7 7 0 0 0 1 0 5 5 0 0 0 1-1 4 4 0 0 0 2-1l-1 1h-1a5 5 0 0 1-2 1zm2 1h1a4 4 0 0 0 1 0l1-1v-1a3 3 0 0 1 0 1 4 4 0 0 1-1 1 4 4 0 0 1-2 0zm2 2a4 4 0 0 0 1 0 3 3 0 0 0 1-1 4 4 0 0 0 1-1 3 3 0 0 1-1 1 3 3 0 0 1-1 1 3 3 0 0 1-1 0z"/>
        </g>
        <use width="100%" height="100%" transform="rotate(-177 490 0)" xlink:href="#c"/>
        <g stroke="none" stroke-width="0">
            <path fill="#406325" d="M409 240a52 52 0 0 0 20-18c-16 4-23 14-20 18zm146 5a50 50 0 0 0-16-20c3 15 12 23 16 20z"/>
            <path fill="#67923d" d="M409 240c-3-3 4-14 20-18-11 9-20 16-20 18zm146 5c-4 3-13-5-15-20l15 20z"/>
        </g>
        <g stroke="none" stroke-width="0">
            <path fill="url(#d)" d="M452 318s-6 1-8-8c-1-9 6-10 6-10l13-1 2 18-13 1z"/>
            <path fill="url(#e)" d="M453 315s-4 1-5-5c0-5 2-5 2-5l10 1v8l-7 1z"/>
            <path fill="url(#f)" d="M450 305l9-1 2 6h-7s-1-5-4-5z"/>
            <path fill="url(#g)" d="M449 300s8-2 9 7c0 2-1 7-5 8l14-1-1-15h-5l-12 1z"/>
            <path fill="#f9f0aa" d="M452 318l57-3c16-9 0-43-13-62 2-4-30-14-44-13l-5 1c-8 0-8 10-5 17 3 6 30 55 11 60h-1z"/>
            <path fill="url(#h)" d="M508 273a148 148 0 0 0-12-20c2-4-30-14-44-13l-5 1c-8 0-8 10-5 17l8 15"/>
            <path fill="url(#i)" d="M455 285c6 15 9 30-2 33h-1l57-3c9-5 8-17 4-30"/>
            <path fill="url(#j)" d="M447 244c-3 0-4 3-4 5 0 6 4 7 4 7l6-1 3-12-9 1z"/>
            <path fill="url(#k)" d="M447 244l9-1 1 9h-8s3-7-2-8z"/>
            <path fill="url(#l)" d="M496 253c7-1 7-10 2-13-15-1-36 0-50 1 1 0 6 0 6 6a8 8 0 0 1-3 7l-4 2h4l3-1c21-3 42-2 42-2z"/>
            <path fill="#b07e09" d="M459 267h-1l-1-1h3v1c-1 0-1 0 0 0l1 3 1 1h1v-1l1 1h-1l-3 1h-1l1-1v-1l-1-3zm4 0v-1h-1 2c1 0 1 0 0 0v1l2 3v1h0a7 7 0 0 0-1 0h-1 1l-1-1-1-3zm5 1l1-1a2 2 0 0 0-1-1h-1v1l1 1zm0 1l1 1h1l-1-2a2 2 0 0 0-1 0v1zm-2-2v-1h-1 3l2 1-1 1h1l1 1v2h-3c-1 0-1 0 0 0v-1l-2-3zm8-2v1l1 1-1-1h-1a8 8 0 0 0-1 0l1 2 1-1s-1 0 0 0v1l1 1-1-1h-1l1 2h2v-1 1h1l-1 1h-3-1l1-1-1-1-1-3h-1v-1h4zm2 1h-1v-1h3l2 2-1 1 2 1v1h1l-1 1-1-1-1-2h-1v1l1 1h1l-1 1h-1l-1-1s1 0 0 0l-1-3v-1zm2 1c0 1 0 0 0 0h1l-1-1h-1l1 1zm7 2v1h0a7 7 0 0 0-1 0h-1 1l-1-2-1-2v-1l-1 1h-1v-1h5l1 1h-1l-1-1h-1v1l2 3zm3-1v1l1 1h-1-1l1-1v-5 1l4 4 1 1h-2c-1 0 0 0 0 0v-1l-1-1h-1zm2 0v-1l-2-1v2h2zm3-2l-1-1-1-1h2l2 1a4 4 0 0 1 3 3v2h-4c-1 0-1-1 0 0v-1l-1-3zm2 2v1h1l1-1a4 4 0 0 0-1-2 3 3 0 0 0-1-1h-1c-1 0 0 0 0 0l1 3zm-21 13l1 1h-1a9 9 0 0 0-1 0h-1l1-1-1-1-1-2v-1h-1 1l1-1v1l2 4zm0-5h3a1 1 0 0 1-1 1h-1l1 1a3 3 0 0 1 3 2v1l-2 1-1-1s0-1 0 0h2l-1-2h-2v-1a24 24 0 0 1-1-2zm7 1l-1-1h2a3 3 0 0 1 2 0 4 4 0 0 1 3 3l-1 2h-4v-1l-1-3zm2 3l1 1h1v-1a4 4 0 0 0 0-2 3 3 0 0 0-2-2 3 3 0 0 0-1 0v1l1 3zm7-5v1h-1a10 10 0 0 0-1 0v2h1v-1l1 1v1l-1-1v2h2v-1l1 1v1h-4v-2l-1-2-1-1h1l3-1zm-28 15l1 1 3 1v1l-1 1a3 3 0 0 1-2 0v-1a9 9 0 0 0-1-1l1 1 1 1 1-1-1-1-2-1a2 2 0 0 1-1-2l1-1a3 3 0 0 1 2 1v-1l1 1v1h-1l-1-1h-1v1zm7-2l1 1h-1-2l1 2 1-1s-1 0 0 0l1 2-1-1h-1l1 2h2v-1 2h-3-1l1-1-1-1-1-3-1-1h4zm4 4l1 1h0a6 6 0 0 0-2 0s0 1 0 0v-1l-1-3-1-1h3a2 2 0 0 1 2 1v1l-2 1v1zm0-2h1a2 2 0 0 0-1-1l-1-1v1l1 1zm6 2v1h0a7 7 0 0 0-1 0h-1l1-1v-1l-1-3h-1-1v1a7 7 0 0 0-1-1h1l4-1 1 1v1h-1l-1-1v1l1 3zm2-3l-1-1v-1h2v1c-1 0 0 0 0 0v2l1 2h1v1h-2l-1-1h1v-1l-1-2zm6-2v1c0 1 0 0 0 0h-1a10 10 0 0 0-1 0v2l1-1h1v1h-1s-1 0 0 0v2h2v-1h1a9 9 0 0 0 0 1l-1 1h-3-1l1-1a1 1 0 0 0 0-1l-1-3h-1v-1h4zm2 1l-1-1s-1 0 0 0h1l1 1 2 3v-1l1-3h1s1 0 0 0v1l1 3 1 1h-2-1l1-1-1-3v4h-1l-3-4v1l1 2 1 1h-2l1-1-1-3zm8 1h1l1-1-1-1h-1v2zm1 1v1l1 1 1-1-1-1a2 2 0 0 0-1 0zm-2-2l-1-1h3l1 1v1l1 1v2h-3c-1 0-1 0 0 0v-1l-1-3zm5 0l-1-1 1-1h2l1 2v1l1 1 1 1-1 1-1-1-1-1a1 1 0 0 0 0-1v2h1v1h-2-1l1-1v-1l-1-2zm1 1h1l1-1-1-1h-1v2zm7-3l1 1h-1a10 10 0 0 0-2 0l1 2h1v-1 1l1 1h-1l-1-1 1 2h1v-1l1 1v1h-4v-1l-1-4-1-1h4zm-33 13v-1h-1 4a4 4 0 0 1 2 2v2l-2 1-2 1v-3l-1-2zm2 3v1h1l1-1a4 4 0 0 0 0-2 2 2 0 0 0-2-2 3 3 0 0 0-1 0v1l1 3zm7-5l1 1v1l-1-1a9 9 0 0 0-2 0l1 2 1-1v2l-1-1v2h2v-1l1 1v1h-4-1 1v-1l-1-3v-1h-1 1l3-1zm7 4v1h1l-1 1h-2v-1h1v-1l-1-3h-1v-1h2l1 4zm3-3v-1l-1 1a1 1 0 0 0 0 1h1a1 1 0 0 0 0-1zm1 3l-1-1a1 1 0 0 0-1 1l1 1h1a1 1 0 0 0 0-1zm1 0a1 1 0 0 1 0 1 2 2 0 0 1-2 0 2 2 0 0 1-2-1l1-1v-1l-1-1 1-1a2 2 0 0 1 2 1v1l1 1v1zm3 0h1v-1 2h-3l1-2 1-1a2 2 0 0 0-1-1 1 1 0 0 0-1-1v2l-1-1a1 1 0 0 1 1-1h1l2 1v1l-2 2v0h1zm4 0l1 1h0-3 1v-4l-1-1h-1 2l1 4z"/>
        </g>
        <g fill="#448127" stroke="none" stroke-width="0">
            <path fill="url(#m)" d="M476 219l-4 5c-1 5 2 9 8 13 4 3 13 3 16 1l-14-13-6-5z"/>
            <path d="M504 354a323 323 0 0 0-2-2 101 101 0 0 1-33 28c15-4 25-15 35-26zm-16 36a460 460 0 0 1 18-32 274 274 0 0 0-2-3c-7 12-16 27-16 35zm42-114a62 62 0 0 0-4-13 127 127 0 0 0-44-44v-1h1-1 1l-1-1h1v-1l1-1h-1 1l-1-1h1-1l1-1h-1v-1h-1 1-1v-1 1-1h-1v-1l-1 1v-1 1-1l-1 1v-1 1-1l-1 1v-1 1-1l-1 1v-1 1-1 1l-1-1v1-1 1h-1v1-1 1h-1v1a9 9 0 0 0-1 4l1 1c-1 3-3 5-3 8 1-2 3-4 5-4-1 2-2 6-1 7l1-1 1 2 1-2v4a6 6 0 0 1 2-2l-1 3 2-3 1 5 1-3v4l2-2v4a5 5 0 0 1 2-2v3h3l-1 3 3-3-1 4 2-2-1 3c3 0 4-2 5-3l1 4c0-2 1-2 2-3l3 6-1-5 2 5 1-4a20 20 0 0 1 2 5l1-3c20 21 24 47 3 75 7-6 9-14 14-21-5 9-6 20-14 27 7-6 9-12 13-18-4 13-11 27-20 39a691 691 0 0 1 5 6l4-7c9-16 25-38 17-71z"/>
        </g>
        <path fill="#eac102" d="M473 215l-2 2h3v-2h-1z"/>
        <path fill="#a08307" d="M471 217a10 10 0 0 1 1-1 10 10 0 0 1 1 0 10 10 0 0 1-1 0 10 10 0 0 1-1 1z"/>
        <ellipse cx="478" cy="215" rx="1" ry="1"/>
        <g fill="#34541f">
            <path d="M488 390a83 83 0 0 1 2-5 96 96 0 0 1 1-4l5-8a200 200 0 0 1 4-9 354 354 0 0 1 3-4l2-4-2 4a400 400 0 0 0-3 4l-4 9a134 134 0 0 0-4 8 98 98 0 0 0-2 4 83 83 0 0 0-2 5zm-19-10a76 76 0 0 0 5-2 72 72 0 0 0 5-3 72 72 0 0 0 9-6 85 85 0 0 0 7-8 114 114 0 0 0 4-4l3-4a154 154 0 0 1-3 4 112 112 0 0 1-3 4 82 82 0 0 1-8 8 70 70 0 0 1-9 6 71 71 0 0 1-5 3 77 77 0 0 1-5 2zm38-29a139 139 0 0 0 4-7l4-7a342 342 0 0 0 4-7l3-7-1 4-2 3a256 256 0 0 1-4 8 161 161 0 0 1-4 6 94 94 0 0 1-4 7zm6-25a58 58 0 0 0 4-7 60 60 0 0 0 4-7 73 73 0 0 0 5-15v-2a61 61 0 0 0 1-6 52 52 0 0 0 0-8 51 51 0 0 0-1-7 53 53 0 0 0-3-8 54 54 0 0 1 3 8 51 51 0 0 1 1 7v8a61 61 0 0 1 0 6 90 90 0 0 1-1 2 73 73 0 0 1-5 15 60 60 0 0 1-4 7 58 58 0 0 1-4 7z"/>
            <path d="M511 320a36 36 0 0 0 5-6 52 52 0 0 0 4-6 96 96 0 0 0 3-7l1-4v-1l1-1v-2l1-7a46 46 0 0 0-1-8l-1-7a80 80 0 0 0-3-8 80 80 0 0 1 3 7 57 57 0 0 1 1 8 46 46 0 0 1 1 8 41 41 0 0 1-1 7v2l-1 1v1l-1 4a96 96 0 0 1-3 7 52 52 0 0 1-4 6 36 36 0 0 1-5 6z"/>
            <path d="M505 349l4-5 1-2 2-3a69 69 0 0 0 3-5l3-6 5-11a75 75 0 0 0 3-12l2-12v-12a52 52 0 0 0-3-12 73 73 0 0 0-5-11 73 73 0 0 1 5 11 52 52 0 0 1 3 12v12l-2 12a76 76 0 0 1-3 12 145 145 0 0 1-5 11l-3 6a67 67 0 0 1-3 5l-1 3-2 2-4 5z"/>
            <path d="M508 352l7-11a201 201 0 0 0 6-12 82 82 0 0 0 5-13l2-6a59 59 0 0 0 0-4 128 128 0 0 0 2-16l-1-14a58 58 0 0 0-4-13 54 54 0 0 0-7-11 54 54 0 0 1 7 11 58 58 0 0 1 4 13 73 73 0 0 1 1 14l-1 13a134 134 0 0 1 0 4 59 59 0 0 1-1 3 74 74 0 0 1-2 6 82 82 0 0 1-5 13l-6 12a443 443 0 0 1-7 11zm-28-131h1a19 19 0 0 1 4 1l5 3a36 36 0 0 1 5 4 45 45 0 0 1 1 2l2 2a61 61 0 0 0-1-2 42 42 0 0 0-2-2 38 38 0 0 0-5-4 27 27 0 0 0-5-3 18 18 0 0 0-5-1z"/>
        </g>
        <g fill="#448127">
            <path d="M496 232l5 4s-5-1-8-5"/>
            <path fill="#34541f" d="M496 232a14 14 0 0 1 3 1 13 13 0 0 1 2 3 15 15 0 0 1-2-1 16 16 0 0 1-2-1c-2 0-3-1-4-3a15 15 0 0 0 4 3 18 18 0 0 0 2 1 14 14 0 0 0 2 1 11 11 0 0 0-1-1l-1-1a18 18 0 0 0-1-1 19 19 0 0 0-2-1z"/>
            <path d="M490 231l8 5s-2-4-5-5"/>
            <path fill="#34541f" d="M490 231l4 2a140 140 0 0 0 3 2l1 1a11 11 0 0 0-1-2l-1-1a11 11 0 0 0-2-1l-1-1a8 8 0 0 1 1 1 11 11 0 0 1 4 4l-2-1-2-2a152 152 0 0 1-4-2z"/>
            <path d="M493 228s3 2 4 5c0 0-7-3-8-5"/>
            <path fill="#34541f" d="M493 228a11 11 0 0 1 2 2 7 7 0 0 1 1 1l1 2a80 80 0 0 1-2-1 50 50 0 0 1-2-1 34 34 0 0 1-2-1l-1-1-1-1 1 1 1 1 2 1a84 84 0 0 0 4 2 5 5 0 0 0-1-2 8 8 0 0 0-1-1 13 13 0 0 0-3-2z"/>
            <path d="M487 231l8 5-5-5"/>
            <path fill="#34541f" d="M487 231a127 127 0 0 0 4 3 35 35 0 0 0 3 2h1a16 16 0 0 0-2-3l-1-1a11 11 0 0 0-2-1l3 2a13 13 0 0 1 3 3h-1a4 4 0 0 1-1 0 14 14 0 0 1-1-1 33 33 0 0 1-2-1 64 64 0 0 1-2-1 56 56 0 0 1-2-2z"/>
            <path d="M487 233l5 3s-2-4-5-5"/>
            <path fill="#34541f" d="M487 233a31 31 0 0 0 2 1l2 1a5 5 0 0 0 1 1 12 12 0 0 0-1-2 13 13 0 0 0-3-2 11 11 0 0 0-1-1l3 2a13 13 0 0 1 2 3l-1-1a11 11 0 0 1-2 0l-1-1a18 18 0 0 1-1-1z"/>
            <path d="M485 226s7 5 8 8l-8-4"/>
            <path fill="#34541f" d="M485 226a52 52 0 0 1 2 2 51 51 0 0 1 3 2 26 26 0 0 1 2 2l1 1v1a77 77 0 0 1-2-1 50 50 0 0 1-2-1 35 35 0 0 1-2-1 15 15 0 0 1-1-1 4 4 0 0 1-1 0h1a37 37 0 0 0 3 2 87 87 0 0 0 4 2 5 5 0 0 0-1-1 12 12 0 0 0-1-1l-2-2a51 51 0 0 0-2-2 71 71 0 0 0-2-2z"/>
        </g>
        <g stroke="none" stroke-width="0">
            <path fill="#406325" d="M445 370a42 42 0 0 1-20 5c10-8 19-8 20-5zm70 5c5 5 21 8 23 7-10-11-22-12-23-7z"/>
            <path fill="#67923d" d="M445 370c-1-3-10-3-20 5a69 69 0 0 1 20-5zm70 5c1-5 13-4 23 7a84 84 0 0 0-23-7z"/>
        </g>
    </g>
</svg>
