<svg xmlns="http://www.w3.org/2000/svg" viewBox="0 0 512 512">
    <path fill="#be0027" fill-rule="evenodd" d="M0 0h512v512H0z"/>
    <path fill="#3b5aa3" fill-rule="evenodd" d="M21 21h470v471H21z"/>
    <path fill="#cbe0e5" fill-rule="evenodd" d="M252 396h6a148 148 0 0 0 0-260 8 8 0 0 0-6 0 149 149 0 0 0 0 260z"/>
    <path fill="#add2d9" fill-rule="evenodd" d="M252 399h6c76-57 77-93 73-93H181c-3 0 1 36 71 93z"/>
    <path fill="#fdf9a1" fill-rule="evenodd" d="M193 335a29 29 0 0 1 20 1c6 3 10 3 16 3s11 5 18 5c13 0 18 7 8 7l-19-3c-10 1-17 4-27 14l12 8c9-4 11-8 16-9 6 0 8-4 15-4 8 2 19-1 25-2 11-3 6-10-1-13-5-2-16 0-22-2-5-2-1-5 2-6l8 1 18-1c11-2 10-5 15-5a16 16 0 0 0 9-3c3-2 6-6 10-6l10 1-14 30-38 39-20 7-43-28-22-33 4-1z"/>
    <path fill="#179a3b" fill-rule="evenodd" d="M242 305h87l2-8-6-1c-3 0-8 4-12 4-2 0-5-5-8-5-4 0-5 4-9 4l-9-2c-5 0-4 3-10 3-8-1-11-7-17-7-10 0-10 9-18 12z"/>
    <path fill="#fdf9a1" fill-rule="evenodd" d="M242 307h90v-3l-92 1 2 2z"/>
    <path fill="#a79270" fill-rule="evenodd" d="M279 334c2 5 3 7 9 8 5 2 13-4 8-9s-10-6-14-10c-10-9-24-32-24-48l-1-68c0-2-5 4-5 6l1 65c1 17 10 29 17 40 3 5 8 10 9 16z"/>
    <text x="465" y="270" fill="#bd0728" stroke="#fff" stroke-width="2" font-family="helvetica" font-size="26" transform="translate(-256 5)">
        <tspan>G</tspan>
    </text>
    <text x="488" y="270" fill="#bd0728" stroke="#fff" stroke-width="2" font-family="helvetica" font-size="26" transform="translate(-256 5)">
        <tspan>U</tspan>
    </text>
    <text x="516" y="270" fill="#bd0728" stroke="#fff" stroke-width="2" font-family="helvetica" font-size="26" transform="translate(-256 5)">
        <tspan>A</tspan>
    </text>
    <text x="540" y="270" fill="#bd0728" stroke="#fff" stroke-width="2" font-family="helvetica" font-size="26" transform="translate(-256 5)">
        <tspan>M</tspan>
    </text>
    <path fill="#239e46" fill-rule="evenodd" d="M212 207c-1 3 3 0 4-1 5-1 7-8 15-4 7 3 16 1 11 4-6 4-17 8-18 25 1 2 1 2 2 0 2-4 11-15 15-14 1 0 6-5 7-4 0 4-7 13-7 25 0 3 3 4 5 2s2-4 5-6c5-4 4-21 5-20 3 4 4 17 9 22 4 5 8 3 7-3-2-13-8-9-11-22 0-2 0-5 3-4 4 2 6 3 9 8l12 11c6 4 8 0 5-5a30 30 0 0 0-16-14l-10-2c-1-1-3-3-1-4a32 32 0 0 1 15-6c5 0 9 4 13 5 7 2 7-3 4-6s-8-7-13-7c-10 1-10 1-16 5-2 1-5 3-4 1 2-4 0-3 4-7 2-3 4-6 7-6l7-5c3-4 1-6-3-4l-8 3c-5 2-10 15-10 16-1 3-2 2-2 0 1-9 1-24-2-30-4-9-4-5-6-1a30 30 0 0 0 0 20c1 4 4 7 4 10l-2-2c-3-4-5-8-10-10a27 27 0 0 0-15-1l3 3c3 2 9 3 13 6 4 2 6 3 7 6s2 6 0 6c-4 0-10-4-22-2-6 0-12 6-15 12z"/>
    <path fill-rule="evenodd" d="M239 320h3v6h-3z"/>
    <path fill="#fdf9ff" fill-rule="evenodd" d="M221 280c14 20 37 31 37 40h-44c10-12 16-20 7-40z"/>
    <path fill="#a68861" fill-rule="evenodd" d="M208 321c19 4 42 6 57-1 0 4-5 10-9 10h-37l14-2h-20c-2 0-6-5-5-7z"/>
    <path fill="#be0027" fill-rule="evenodd" d="M252 406a8 8 0 0 0 6 0 159 159 0 0 0 1-280 8 8 0 0 0-7 0 161 161 0 0 0 0 280zm0-13a7 7 0 0 0 6 0c93-55 94-200 0-251-1-2-4-1-6 0-89 52-94 191 0 251z"/>
    <text x="465" y="270" fill="#bd0728" font-family="helvetica" font-size="26" transform="translate(-256 5)">
        <tspan>G</tspan>
    </text>
    <text x="488" y="270" fill="#bd0728" font-family="helvetica" font-size="26" transform="translate(-256 5)">
        <tspan>U</tspan>
    </text>
    <text x="516" y="270" fill="#bd0728" font-family="helvetica" font-size="26" transform="translate(-256 5)">
        <tspan>A</tspan>
    </text>
    <text x="540" y="270" fill="#bd0728" font-family="helvetica" font-size="26" transform="translate(-256 5)">
        <tspan>M</tspan>
    </text>
</svg>
