<svg xmlns="http://www.w3.org/2000/svg" viewBox="0 0 512 512">
    <defs>
        <clipPath id="a">
            <path d="M165 0h744v744H165z"/>
        </clipPath>
    </defs>
    <g clip-path="url(#a)" transform="matrix(.7 0 0 .7 -113 0)">
        <path fill="#ba0000" fill-rule="evenodd" d="M1063 744H0V0h1063z"/>
        <path fill="#fff" fill-rule="evenodd" d="M516 360s-75-32-64-116c10-40 29-68 62-82a223 223 0 0 1 48-9c-4 4-8 8-10 13-3 10 0 18 4 27a78 78 0 0 1 11 35 53 53 0 0 1-21 49c-10 7-21 9-30 18a41 41 0 0 0-14 26c0 24 7 27 14 39z"/>
        <path fill="#ba0000" fill-rule="evenodd" stroke="#000" stroke-width="3" d="M502 239v0"/>
        <path fill="none" stroke="#ba0000" stroke-width="3" d="M507 351c-29-25-27-90-5-112"/>
        <path fill="#ba0000" fill-rule="evenodd" d="M502 223l9-2 2-9 4 8 10-3-7 8 5 8-9-4-6 7 1-9"/>
        <path fill="#fff" fill-rule="evenodd" d="M523 355s9-82 92-96c41-2 73 8 97 35a223 223 0 0 1 22 44l-15-6c-10 0-18 5-25 12-8 9-17 15-30 20a53 53 0 0 1-53-6c-10-7-15-17-26-23a41 41 0 0 0-29-5c-23 7-24 14-33 25z"/>
        <path fill="#ba0000" fill-rule="evenodd" stroke="#000" stroke-width="3" d="M634 306l1-1"/>
        <path fill="none" stroke="#ba0000" stroke-width="3" d="M528 343c16-35 79-52 106-37"/>
        <path fill="#ba0000" fill-rule="evenodd" d="M650 301l4 8 10-1-7 7 5 8-8-4-7 7 1-10-9-4 10-2"/>
        <path fill="#fff" fill-rule="evenodd" d="M528 361s80-18 120 57c15 38 16 71-2 103-10 13-22 24-35 34 2-5 2-11 1-16-3-9-10-15-19-19a77 77 0 0 1-29-22 53 53 0 0 1-11-52c3-12 11-21 14-33a41 41 0 0 0-5-29c-13-19-20-18-34-23z"/>
        <path fill="#ba0000" fill-rule="evenodd" stroke="#000" stroke-width="3" d="M610 451h1"/>
        <path fill="none" stroke="#ba0000" stroke-width="3" d="M541 362c39 4 75 58 69 89"/>
        <path fill="#ba0000" fill-rule="evenodd" d="M620 464l-7 7 5 8-9-4-6 8 1-10-9-4 10-2 1-9 4 8"/>
        <path fill="#fff" fill-rule="evenodd" d="M527 369s39 71-21 131c-34 25-65 35-100 26-16-6-30-14-43-23 5 0 11-1 15-4 9-5 12-14 14-24a77 77 0 0 1 13-33 53 53 0 0 1 47-26c12 0 22 5 35 5a41 41 0 0 0 26-13c15-18 12-25 14-39z"/>
        <path fill="#ba0000" fill-rule="evenodd" stroke="#000" stroke-width="3" d="M463 473h0"/>
        <path fill="none" stroke="#ba0000" stroke-width="3" d="M529 381c7 39-35 88-66 91"/>
        <path fill="#ba0000" fill-rule="evenodd" d="M453 485l-9-4-6 7 1-9-9-5 10-1 1-9 5 8 9-2-6 7"/>
        <path fill="#fff" fill-rule="evenodd" d="M518 367s-55 61-131 24c-35-23-55-49-58-86 0-16 4-32 7-48 3 6 6 10 10 14 7 6 17 6 26 5a77 77 0 0 1 36 1 53 53 0 0 1 40 35c4 12 3 23 8 35a41 41 0 0 0 20 21c22 8 28 3 42-1z"/>
        <path fill="#ba0000" fill-rule="evenodd" stroke="#000" stroke-width="3" d="M398 342h0"/>
        <path fill="none" stroke="#ba0000" stroke-width="3" d="M506 373c-33 20-94-4-107-32"/>
        <path fill="#ba0000" fill-rule="evenodd" d="M383 337l1-10-8-4 9-2 1-10 5 9 9-2-7 7 5 9-8-4"/>
    </g>
</svg>
