<svg xmlns="http://www.w3.org/2000/svg" viewBox="0 0 512 512">
    <path fill="#006" d="M0 0h512v512H0z"/>
    <path fill="#fff" d="M0 0v19l234 153h30v-19L30 0H0zm264 0v19L30 172H0v-19L234 0h30z"/>
    <path fill="#fff" d="M110 0v172h44V0h-44zM0 57v58h264V57H0z"/>
    <path fill="#c00" d="M0 69v34h264V69H0zM119 0v172h26V0h-26zM0 172l88-57h19l-87 57H0zM0 0l88 57H68L0 13V0zm156 57l88-57h20l-88 57h-20zm108 115l-88-57h19l68 44v13z"/>
    <path fill="#fff" fill-rule="evenodd" d="M69 444l-16 17 3-24-24-2 21-12-13-20 22 9 7-23 7 23 22-9-12 20 20 12-24 2 3 24m296 6l-12 12 2-16-16-2 14-8-9-14 15 6 6-16 5 16 15-6-9 14 14 8-16 2 2 16m-11-259l-12 12 2-17-16-1 14-9-9-14 15 6 6-16 5 16 15-6-9 14 14 9-16 1 2 17m-104 88l-12 12 2-16-16-2 14-8-9-14 16 6 5-16 5 16 16-6-10 14 15 8-17 2 2 16m164-37l-11 12 2-16-17-2 14-8-9-14 16 6 5-16 5 16 16-6-9 14 14 8-17 2 3 16m-64 42l-8-7 11-1 4-10 4 10 10 1-8 7 3 10-9-5-10 5"/>
</svg>
