<svg xmlns="http://www.w3.org/2000/svg" viewBox="0 0 512 512">
    <defs>
        <clipPath id="a">
            <path d="M148 0h744v744H148z"/>
        </clipPath>
    </defs>
    <g clip-path="url(#a)" transform="matrix(.7 0 0 .7 -102 0)">
        <path fill="#ba0000" fill-rule="evenodd" d="M1063 744H0V0h1063z"/>
        <path fill="#ffef00" fill-rule="evenodd" stroke="#000" stroke-width="3" d="M557 547v-10l-13-16 17 3 7-17 8 20 17 7-12 10 3 19-12-11-13 1-2-6z"/>
        <path fill="#fff" fill-rule="evenodd" stroke="#000" stroke-width="4" d="M466 301c-11 5-54 54-60 62-5 11-14 25-24 34-10 8-16 19-15 29 0 13 7 21 13 31 3 4 8 6 13 7 10 1 11 4 16 6 19 27 49 46 70 62a99 99 0 0 1 26 18 47 47 0 0 1 4 29l-16 59c-3 16 11 13 12 9 7-8 16-2 29-50l19-24 7-4c11-13 3-20-4-23l-13-5-16-15c-8-22-44-68-53-75a62 62 0 0 0-14-12l-17-7c-4-2-1-7 2-9 29-16 52-33 79-51l5-3-10-57-47-16-6 5z"/>
        <path fill="#ffec00" fill-rule="evenodd" d="M505 601l29-6-4 10-28 9 3-13z"/>
        <path fill="none" stroke="#000" stroke-width="3" d="M430 492a55 55 0 0 1 31-30"/>
        <path fill="none" stroke="#000" stroke-width="4" d="M504 601l12-4 8-2 7-1 7-2m-40 27l4-3 10-4 6-2 7-1a44 44 0 0 1 7-2"/>
        <path fill="none" stroke="#000" stroke-width="3" d="M510 496h0l-1 2c-1 2-6 6-10 6h-9m20 77h2l6 1h6l7 1h7l5 1-5-1 5 1m-47 48l3-3 9-3 6-2 6-2 6-2m8-60c-1 3 1 4 2 6l8 5 5 1 3 1M371 435h0l2-1 4-4m21 35s24-12 26-15l5-4 4-2 3-4 3-5 2-5m30 18v5c-1 2-4 10-7 12"/>
        <path fill="none" stroke="#000" stroke-width="3" d="M428 447l10 3a145 145 0 0 1 24 14l5 4 4 4a30 30 0 0 1 4 5c5 4 17 30 17 31a63 63 0 0 1 2 5l3 4 3 4 5 4 5 3 24 16c3 1 9 8 4 12l-5 5a16 16 0 0 1-5 3c-10 3-15 2-17 2h-2M380 399l4 1 5 1 9 4 5 4a34 34 0 0 0 6 4l8 2h11-6 6"/>
        <path fill="#ffe606" fill-rule="evenodd" stroke="#000" stroke-width="3" d="M379 426l17 2 14-1c7 0 8-3 10-5l6-9c3-2 8 4 8 4 12 11 3 24 2 25-6 5-7 5-11 2l-7-8c-6-2-17 0-17 0l-6 2c-3 1-5 4-10 4-5 1-7 0-9-4-3-5-2-11 3-12z"/>
        <path fill="#ffef00" fill-rule="evenodd" stroke="#000" stroke-width="3" d="M703 175l-9 5-7 19c0-1-5-17-6-16l-18 2 13-17-2-18 15 6 15-12-4 16 8 10-5 5z"/>
        <path fill="#fff" fill-rule="evenodd" stroke="#000" stroke-width="4" d="M533 375c11 7 74 20 84 21 12-1 29 1 41 5 12 5 25 5 33-1 11-6 15-17 20-26 2-5 2-11 0-15-4-9-1-12-2-17 14-30 16-65 20-91a99 99 0 0 1 3-32 47 47 0 0 1 23-18l59-15c15-6 5-16 2-15-10-2-10-13-58-1l-30-4-7-5c-17-3-19 8-18 15l2 14-5 22c-16 17-38 72-40 82 0 10-4 9-3 18 0 8-1 3 2 19 0 4-5 4-9 3-28-18-54-29-83-45l-5-2-45 36 9 49 7 3z"/>
        <path fill="#ffec00" fill-rule="evenodd" d="M776 194l-20-22 11-2 22 20-13 4z"/>
        <path fill="none" stroke="#000" stroke-width="3" d="M718 313a55 55 0 0 1-41-13"/>
        <path fill="none" stroke="#000" stroke-width="4" d="M776 195l-9-9a96 96 0 0 0-5-6l-5-6a54 54 0 0 1-6-5m43 22a21 21 0 0 1-4-2l-7-7a79 79 0 0 0-6-5l-4-5a44 44 0 0 1-5-4"/>
        <path fill="none" stroke="#000" stroke-width="3" d="M682 241h3c1 0 7 3 9 6a76 76 0 0 1 4 6l1 2m58-56h-1v-2l-3-5-3-6-3-6-2-6-3-5 3 5-3-5m65 18l-4-2-7-6a68 68 0 0 0-5-4l-4-5a38 38 0 0 1-5-4m-56 22c3-1 3-2 4-4l1-9a48 48 0 0 1-1-5l-1-3m-32 225v-1h-2l-5-2m20-35s-22-15-26-16l-6-3-4-2-5-1-5 1-6 1m1-35l5-3c2-1 10-2 13 0"/>
        <path fill="none" stroke="#000" stroke-width="3" d="M680 336l-2-10a145 145 0 0 1 0-27v-7l2-6 3-6c1-5 17-29 18-30a63 63 0 0 1 3-4l3-4 2-5 1-6v-6l2-29c0-2 3-11 9-9l6 2c2 0 4 2 5 3 8 7 9 12 10 14l1 2m-82 193h0l-1-2-1-6-1-5v-5l1-6v-8l-2-6-3-6-3-5 3 5-3-5"/>
        <path fill="#ffe606" fill-rule="evenodd" stroke="#000" stroke-width="3" d="M685 389l-7-15-7-12c-4-6-7-6-9-6l-11-2c-4-1-1-8-1-8 4-16 20-14 21-14 7 2 8 3 7 8l-3 10c1 6 8 15 8 16l5 4c2 2 5 2 9 6 2 4 3 6 0 10-3 5-9 7-12 3z"/>
        <path fill="#ffef00" fill-rule="evenodd" stroke="#000" stroke-width="3" d="M301 245l9 5 20-4-11 13 12 14-21-2-14 12-3-15-18-6 15-6 4-12 7 1z"/>
        <path fill="#fff" fill-rule="evenodd" stroke="#000" stroke-width="4" d="M561 278c0-12-23-73-27-82a112 112 0 0 1-19-37c-3-13-10-23-19-27-12-5-23-3-33-2-6 1-10 4-13 8-6 8-9 7-13 11-32 5-63 22-87 33a99 99 0 0 1-28 15c-13 0-23-6-28-9l-45-41c-13-10-16 4-14 6 5 9-5 15 31 49l14 28v8c6 15 17 11 21 7l11-10 22-7c22 3 81-8 90-12 9-5 9-1 17-7 6-4 3-1 14-12 4-3 7 2 7 6 1 33 6 61 9 94l1 5 55 17 36-33-2-8z"/>
        <path fill="#ffec00" fill-rule="evenodd" d="M277 174c1 1-8 29-8 29l-8-8 6-30 10 9z"/>
        <path fill="none" stroke="#000" stroke-width="3" d="M408 158a55 55 0 0 1 12 41"/>
        <path fill="none" stroke="#000" stroke-width="4" d="M278 173l-3 13a96 96 0 0 0-2 7l-2 8-1 7m-6-48l1 5-1 10a79 79 0 0 0-2 7l-1 7a44 44 0 0 1-1 6"/>
        <path fill="none" stroke="#000" stroke-width="3" d="M367 227h0l-1-2c-1-2-2-8 0-12a71 71 0 0 1 3-6l1-1m-78-19v1l-1 1-3 6-4 5-3 6-4 5-3 5 3-5-3 5m-20-64l1 4-1 9-1 7-2 6a38 38 0 0 1-1 6m49 35c-2-2-4-1-5-1-2 0-5 1-8 5a46 46 0 0 1-4 3l-2 2m205-97v1c1-1 0-1 1 2l1 5m-40 3v30l2 7v4l2 5 3 3 4 5m-30 18l-4-2c-2-2-7-7-8-12"/>
        <path fill="none" stroke="#000" stroke-width="3" d="M448 177l-7 7a146 146 0 0 1-23 15l-6 3-6 2-6 1c-5 2-34 1-35 1a64 64 0 0 1-5-1l-5 1h-5l-6 3-5 3a661 661 0 0 1-25 15c-3 1-11 3-13-3l-2-6v-7c2-10 5-14 6-15l1-2m207-37h0l-1 2-5 4-3 3-5 3a29 29 0 0 0-5 3l-7 4-4 5-3 5-3 6 3-6-3 6m17 106l1-1v-1l1-9 1-8-1-8v-9a36 36 0 0 0-1-7 43 43 0 0 0-1-7v-5l-2-7-2-6-2-7a20 20 0 0 1-1-5l-2-5-3-6-2-5-2-6-1-2"/>
        <path fill="#ffe606" fill-rule="evenodd" stroke="#000" stroke-width="3" d="M490 143l-9 14-6 12c-3 7-1 10 0 12l4 10c1 4-6 5-6 5-15 5-23-9-23-10-2-7-2-9 3-10s7-1 10-3c5-4 8-15 8-15l1-7c1-3-1-6 1-10 2-5 3-6 8-6 6-1 10 3 9 8z"/>
        <path fill="#ffef00" fill-rule="evenodd" stroke="#000" stroke-width="3" d="M470 290c-2-2 43 17 49 17 8-3 43-33 43-33 1 3 2 10 5 12l-39 33c1 17-2 35 7 55h-11c-9-10-13-54-13-54l-44-20c2-1 4-6 3-10z"/>
        <path fill="none" stroke="#000" stroke-width="3" d="M513 336l-11 5c-41 22-62 54-63 55l-3 5c-1 2-3 3-3 5a88 88 0 0 1-6 6l1 1m113-103l9 7c38 26 76 31 78 31l6 1 5 1 9 1c1 0-1 0 0 0"/>
    </g>
</svg>
