<svg xmlns="http://www.w3.org/2000/svg" viewBox="0 0 512 512">
    <defs>
        <clipPath id="a">
            <path d="M0 0h512v512H0z"/>
        </clipPath>
    </defs>
    <g clip-path="url(#a)">
        <g fill-rule="evenodd">
            <path fill="#fff" d="M0 0h1024v512H0z"/>
            <path fill="#000063" d="M1024 445c-11 7-21 23-52 23-61 0-76-34-122-34-30 0-45 34-76 34-61 0-76-34-122-34-30 0-45 34-76 34-61 0-76-34-122-34-30 0-46 34-76 34-61 0-76-34-122-34-31 0-46 34-76 34-61 0-76-34-122-34-31 0-40 25-58 25v43c18 0 27-24 58-24 46 0 61 34 122 34 30 0 45-34 76-34 46 0 61 34 122 34 30 0 46-34 76-34 46 0 61 34 122 34 31 0 46-34 76-34 46 0 61 34 122 34 31 0 46-34 76-34 46 0 61 34 122 34 31 0 41-10 52-16v-51zm0-85c-11 7-21 23-52 23-61 0-76-34-122-34-30 0-45 34-76 34-61 0-76-34-122-34-30 0-45 34-76 34-61 0-76-34-122-34-30 0-46 34-76 34-61 0-76-34-122-34-31 0-46 34-76 34-61 0-76-34-122-34-31 0-40 25-58 25v43c18 0 27-24 58-24 46 0 61 34 122 34 30 0 45-34 76-34 46 0 61 34 122 34 30 0 46-34 76-34 46 0 61 34 122 34 31 0 46-34 76-34 46 0 61 34 122 34 31 0 46-34 76-34 46 0 61 34 122 34 31 0 41-10 52-16v-51zm0-85c-11 7-21 23-52 23-61 0-76-34-122-34-30 0-45 34-76 34-61 0-76-34-122-34-30 0-45 34-76 34-61 0-76-34-122-34-30 0-46 34-76 34-61 0-76-34-122-34-31 0-46 34-76 34-61 0-76-34-122-34-31 0-40 25-58 25v43c18 0 27-24 58-24 46 0 61 34 122 34 30 0 45-34 76-34 46 0 61 34 122 34 30 0 46-34 76-34 46 0 61 34 122 34 31 0 46-34 76-34 46 0 61 34 122 34 31 0 46-34 76-34 46 0 61 34 122 34 31 0 41-10 52-16v-51zm0-85c-11 7-21 23-52 23-61 0-76-34-122-34-30 0-45 34-76 34-61 0-76-34-122-34-30 0-45 34-76 34-61 0-76-34-122-34-30 0-46 34-76 34-61 0-76-34-122-34-31 0-46 34-76 34-61 0-76-34-122-34-31 0-40 25-58 25v43c18 1 27-24 58-24 46 0 61 34 122 34 30 0 45-34 76-34 46 0 61 34 122 34 30 0 46-34 76-34 46 0 61 34 122 34 31 0 46-34 76-34 46 0 61 34 122 34 31 0 46-34 76-34 46 0 61 34 122 34 31 0 41-9 52-16v-50zm0-84c-11 6-21 23-52 23-61 0-76-34-122-34-30 0-45 34-76 34-61 0-76-34-122-34-30 0-45 34-76 34-61 0-76-34-122-34-30 0-46 34-76 34-61 0-76-34-122-34-31 0-46 34-76 34-61 0-76-34-122-34-31 0-40 24-58 24v44c18 0 27-25 58-25 46 0 61 34 122 34 30 0 45-34 76-34 46 0 61 34 122 34 30 0 46-34 76-34 46 0 61 34 122 34 31 0 46-34 76-34 46 0 61 34 122 34 31 0 46-34 76-34 46 0 61 34 122 34 31 0 41-9 52-16v-50zm0-85c-11 7-21 23-52 23-61 0-76-34-122-34-30 0-45 34-76 34-61 0-76-34-122-34-30 0-45 34-76 34-61 0-76-34-122-34-30 0-46 34-76 34-61 0-76-34-122-34-31 0-46 34-76 34-61 0-76-34-122-34-31 0-40 24-58 24v44c18 0 27-24 58-24 46 0 61 34 122 34 30 0 46-34 76-34 46 0 61 34 122 34 30 0 46-34 76-34 46 0 61 34 122 34 31 0 46-34 76-34 46 0 61 34 122 34 31 0 46-34 76-34 46 0 61 34 122 34 31 0 41-10 52-17V21z"/>
        </g>
        <path fill="#000063" fill-rule="evenodd" d="M0 0h261v158H0z"/>
        <path fill="#fff" d="M0 0v18l232 140h29v-18L29 0H0zm261 0v18L29 158H0v-18L232 0h29z"/>
        <path fill="#fff" d="M109 0v158h43V0h-43zM0 53v52h261V53H0z"/>
        <path fill="#c00" d="M0 63v32h261V63H0zM118 0v158h26V0h-26zM0 158l87-53h20l-87 53H0zM0 0l87 53H68L0 12V0zm155 53l87-53h19l-87 53h-19zm106 105l-87-53h20l67 41v12z"/>
        <path fill="#a24300" fill-rule="evenodd" stroke="#fff" stroke-width="7" d="M815-301l-18 709c0 37 80 37 89 0l-18-709h-53z" transform="matrix(.2064 0 0 .4902 212 267)"/>
        <path fill="#006d00" fill-rule="evenodd" stroke="#fff" stroke-width="8" d="M496 549l18 71 35-53-18 88 36-35-36 89 36-36-36 89 36-36-36 107 36-36-36 107 36-36-36 106-17 54-18 17-18-17-17-54-36-106 36 35-36-106 36 36-36-107 36 36-36-89 36 36-36-89 36 35-18-88 35 53 18-71z" transform="matrix(-.2354 .06743 -.1035 -.19501 591 323)"/>
        <path fill="none" stroke="#000" d="M496 549v496m-71-177l71 106 71-106" transform="matrix(-.2354 .06743 -.1035 -.19501 591 323)"/>
        <path fill="none" stroke="#000" d="M425 797l71 107 71-107" transform="matrix(-.2354 .06743 -.1035 -.19501 591 323)"/>
        <path fill="none" stroke="#000" d="M425 726l71 107 71-107" transform="matrix(-.2354 .06743 -.1035 -.19501 591 323)"/>
        <path fill="none" stroke="#000" d="M425 673l71 89 71-89" transform="matrix(-.2354 .06743 -.1035 -.19501 591 323)"/>
        <path fill="none" stroke="#000" d="M425 620l71 89 71-89" transform="matrix(-.2354 .06743 -.1035 -.19501 591 323)"/>
        <path fill="none" stroke="#000" d="M443 567l53 106 53-106" transform="matrix(-.2354 .06743 -.1035 -.19501 591 323)"/>
        <path fill="#006d00" fill-rule="evenodd" stroke="#fff" stroke-width="8" d="M496 549l18 71 35-53-18 88 36-35-36 89 36-36-36 89 36-36-36 107 36-36-36 107 36-36-36 106-17 54-18 17-18-17-17-54-36-106 36 35-36-106 36 36-36-107 36 36-36-89 36 36-36-89 36 35-18-88 35 53 18-71z" transform="matrix(.17703 -.18126 .22077 .14638 74 94)"/>
        <path fill="none" stroke="#000" d="M496 549v496m-71-177l71 106 71-106" transform="matrix(.17703 -.18126 .22077 .14638 74 94)"/>
        <path fill="none" stroke="#000" d="M425 797l71 107 71-107" transform="matrix(.17703 -.18126 .22077 .14638 74 94)"/>
        <path fill="none" stroke="#000" d="M425 726l71 107 71-107" transform="matrix(.17703 -.18126 .22077 .14638 74 94)"/>
        <path fill="none" stroke="#000" d="M425 673l71 89 71-89" transform="matrix(.17703 -.18126 .22077 .14638 74 94)"/>
        <path fill="none" stroke="#000" d="M425 620l71 89 71-89" transform="matrix(.17703 -.18126 .22077 .14638 74 94)"/>
        <path fill="none" stroke="#000" d="M443 567l53 106 53-106" transform="matrix(.17703 -.18126 .22077 .14638 74 94)"/>
        <path fill="#006d00" fill-rule="evenodd" stroke="#fff" stroke-width="8" d="M496 549l18 71 35-53-18 88 36-35-36 89 36-36-36 89 36-36-36 107 36-36-36 107 36-36-36 106-17 54-18 17-18-17-17-54-36-106 36 35-36-106 36 36-36-107 36 36-36-89 36 36-36-89 36 35-18-88 35 53 18-71z" transform="matrix(.1135 .2156 -.24917 .1076 582 -58)"/>
        <path fill="none" stroke="#000" d="M496 549v496m-71-177l71 106 71-106" transform="matrix(.1135 .2156 -.24917 .1076 582 -58)"/>
        <path fill="none" stroke="#000" d="M425 797l71 107 71-107" transform="matrix(.1135 .2156 -.24917 .1076 582 -58)"/>
        <path fill="none" stroke="#000" d="M425 726l71 107 71-107" transform="matrix(.1135 .2156 -.24917 .1076 582 -58)"/>
        <path fill="none" stroke="#000" d="M425 673l71 89 71-89" transform="matrix(.1135 .2156 -.24917 .1076 582 -58)"/>
        <path fill="none" stroke="#000" d="M425 620l71 89 71-89" transform="matrix(.1135 .2156 -.24917 .1076 582 -58)"/>
        <path fill="none" stroke="#000" d="M443 567l53 106 53-106" transform="matrix(.1135 .2156 -.24917 .1076 582 -58)"/>
        <path fill="#006d00" fill-rule="evenodd" stroke="#fff" stroke-width="8" d="M496 549l18 71 35-53-18 88 36-35-36 89 36-36-36 89 36-36-36 107 36-36-36 107 36-36-36 106-17 54-18 17-18-17-17-54-36-106 36 35-36-106 36 36-36-107 36 36-36-89 36 36-36-89 36 35-18-88 35 53 18-71z" transform="matrix(-.15682 .19451 -.23555 -.12827 706 198)"/>
        <path fill="none" stroke="#000" d="M496 549v496m-71-177l71 106 71-106" transform="matrix(-.15682 .19451 -.23555 -.12827 706 198)"/>
        <path fill="none" stroke="#000" d="M425 797l71 107 71-107" transform="matrix(-.15682 .19451 -.23555 -.12827 706 198)"/>
        <path fill="none" stroke="#000" d="M425 726l71 107 71-107" transform="matrix(-.15682 .19451 -.23555 -.12827 706 198)"/>
        <path fill="none" stroke="#000" d="M425 673l71 89 71-89" transform="matrix(-.15682 .19451 -.23555 -.12827 706 198)"/>
        <path fill="none" stroke="#000" d="M425 620l71 89 71-89" transform="matrix(-.15682 .19451 -.23555 -.12827 706 198)"/>
        <path fill="none" stroke="#000" d="M443 567l53 106 53-106" transform="matrix(-.15682 .19451 -.23555 -.12827 706 198)"/>
        <path fill="#006d00" fill-rule="evenodd" stroke="#fff" stroke-width="8" d="M496 549l18 71 35-53-18 88 36-35-36 89 36-36-36 89 36-36-36 107 36-36-36 107 36-36-36 106-17 54-18 17-18-17-17-54-36-106 36 35-36-106 36 36-36-107 36 36-36-89 36 36-36-89 36 35-18-88 35 53 18-71z" transform="matrix(-.15547 -.16616 .17678 -.15123 276 396)"/>
        <path fill="none" stroke="#000" d="M496 549v496m-71-177l71 106 71-106" transform="matrix(-.15547 -.16616 .17678 -.15123 276 396)"/>
        <path fill="none" stroke="#000" d="M425 797l71 107 71-107" transform="matrix(-.15547 -.16616 .17678 -.15123 276 396)"/>
        <path fill="none" stroke="#000" d="M425 726l71 107 71-107" transform="matrix(-.15547 -.16616 .17678 -.15123 276 396)"/>
        <path fill="none" stroke="#000" d="M425 673l71 89 71-89" transform="matrix(-.15547 -.16616 .17678 -.15123 276 396)"/>
        <path fill="none" stroke="#000" d="M425 620l71 89 71-89" transform="matrix(-.15547 -.16616 .17678 -.15123 276 396)"/>
        <path fill="none" stroke="#000" d="M443 567l53 106 53-106" transform="matrix(-.15547 -.16616 .17678 -.15123 276 396)"/>
        <path fill="#006d00" fill-rule="evenodd" stroke="#fff" stroke-width="8" d="M461 549l28 71 43-53-11 88 28-35-18 89 26-36-25 89 35-36-36 107 36-36-36 107 36-36-36 106-17 54-18 17-18-17-17-54-36-106 36 35-36-106 36 36-36-107 36 36-46-89 46 36-54-89 43 35-25-88 36 53v-71z" transform="matrix(-.27108 -.06397 -.15704 .20433 684 -32)"/>
        <path fill="none" stroke="#000" d="M467 585l29 124v336" transform="matrix(-.27108 -.06397 -.15704 .20433 684 -32)"/>
        <path fill="none" stroke="#000" d="M436 886l60 88 61-88" transform="matrix(-.27108 -.06397 -.15704 .20433 684 -32)"/>
        <path fill="none" stroke="#000" d="M435 815l61 89 61-89" transform="matrix(-.27108 -.06397 -.15704 .20433 684 -32)"/>
        <path fill="none" stroke="#000" d="M435 744l61 89 60-89" transform="matrix(-.27108 -.06397 -.15704 .20433 684 -32)"/>
        <path fill="none" stroke="#000" d="M433 691l63 71 53-71" transform="matrix(-.27108 -.06397 -.15704 .20433 684 -32)"/>
        <path fill="none" stroke="#000" d="M425 638l71 71 46-71" transform="matrix(-.27108 -.06397 -.15704 .20433 684 -32)"/>
        <path fill="none" stroke="#000" d="M436 593l53 87 36-95" transform="matrix(-.27108 -.06397 -.15704 .20433 684 -32)"/>
        <path fill="#006d00" fill-rule="evenodd" stroke="#fff" stroke-width="8" d="M461 549l28 71 43-53-11 88 28-35-18 89 26-36-25 89 35-36-36 107 36-36-36 107 36-36-36 106-17 54-18 17-18-17-17-54-36-106 36 35-36-106 36 36-36-107 36 36-46-89 46 36-54-89 43 35-25-88 36 53v-71z" transform="matrix(.27011 .06695 .00989 .24471 241 -138)"/>
        <path fill="none" stroke="#000" d="M467 585l29 124v336" transform="matrix(.27011 .06695 .00989 .24471 241 -138)"/>
        <path fill="none" stroke="#000" d="M436 886l60 88 61-88" transform="matrix(.27011 .06695 .00989 .24471 241 -138)"/>
        <path fill="none" stroke="#000" d="M435 815l61 89 61-89" transform="matrix(.27011 .06695 .00989 .24471 241 -138)"/>
        <path fill="none" stroke="#000" d="M435 744l61 89 60-89" transform="matrix(.27011 .06695 .00989 .24471 241 -138)"/>
        <path fill="none" stroke="#000" d="M433 691l63 71 53-71" transform="matrix(.27011 .06695 .00989 .24471 241 -138)"/>
        <path fill="none" stroke="#000" d="M425 638l71 71 46-71" transform="matrix(.27011 .06695 .00989 .24471 241 -138)"/>
        <path fill="none" stroke="#000" d="M436 593l53 87 36-95" transform="matrix(.27011 .06695 .00989 .24471 241 -138)"/>
        <path fill="#006d00" fill-rule="evenodd" stroke="#fff" stroke-width="8" d="M354 532l89 88 18-53v88l35-35-18 89 36-36-18 89 35-36-17 107 35-36-35 107 35-36-18 106-17 54-18 17-18-17-17-54-54-82 36 12-36-107 36 36-53-107 35 36-53-89 53 36-71-89 53 35-70-70 70 35-53-89z" transform="matrix(.03453 -.23456 .24402 .04167 116 230)"/>
        <path fill="none" stroke="#000" d="M379 560l64 96 18 53 9 45 8 79 10 71 8 141" transform="matrix(.03453 -.23456 .24402 .04167 116 230)"/>
        <path fill="none" stroke="#000" d="M425 904l64 71 51-89" transform="matrix(.03453 -.23456 .24402 .04167 116 230)"/>
        <path fill="none" stroke="#000" d="M417 815l71 89 50-89" transform="matrix(.03453 -.23456 .24402 .04167 116 230)"/>
        <path fill="none" stroke="#000" d="M408 752l70 81 46-89M372 638l89 71 26-71" transform="matrix(.03453 -.23456 .24402 .04167 116 230)"/>
        <path fill="none" stroke="#000" d="M361 602l82 53 10-53m-63 89l81 71 34-71" transform="matrix(.03453 -.23456 .24402 .04167 116 230)"/>
        <g fill-rule="evenodd">
            <path fill="#c00" stroke="#000" d="M542 1173l-2-229-61-107c-16-52-8-78 17-80 24-1 49 14 84 16 36 1 29-60 82-58s144 32 222 37 119-27 209-30c90-4 114 42 119 42s30-18 56-22c25-3 34 10 34 10s-2 58-14 92-54 90-56 90l-15 251c0 2-675-7-675-12z" transform="matrix(.13659 0 0 .12573 266 208)"/>
            <g stroke="#000">
                <path fill="#fff100" d="M532 585s-68-52-70-177c-1-72 34-124 123-124 124 0 301 53 301 53v17s-142-53-301-53c-71 0-107 52-107 105 0 89 71 179 71 179v141h-17V585z" transform="matrix(-.13659 0 0 .12573 508 253)"/>
                <path fill="#fff" d="M478 549a18 18 0 1 1-35 0 18 18 0 0 1 35 0z" transform="matrix(-.13659 0 0 .12573 506 253)"/>
                <path fill="#fff" d="M478 549a18 18 0 1 1-35 0 18 18 0 0 1 35 0z" transform="matrix(-.13659 0 0 .12573 509 247)"/>
                <path fill="#fff" d="M478 549a18 18 0 1 1-35 0 18 18 0 0 1 35 0z" transform="matrix(-.13659 0 0 .12573 510 242)"/>
                <path fill="#fff" d="M478 549a18 18 0 1 1-35 0 18 18 0 0 1 35 0z" transform="matrix(-.13659 0 0 .12573 511 237)"/>
                <path fill="#fff" d="M478 549a18 18 0 1 1-35 0 18 18 0 0 1 35 0z" transform="matrix(-.13659 0 0 .12573 511 231)"/>
                <path fill="#fff" d="M478 549a18 18 0 1 1-35 0 18 18 0 0 1 35 0z" transform="matrix(-.13659 0 0 .12573 503 257)"/>
                <path fill="#fff" d="M478 549a18 18 0 1 1-35 0 18 18 0 0 1 35 0z" transform="matrix(-.13659 0 0 .12573 509 225)"/>
                <path fill="#fff" d="M478 549a18 18 0 1 1-35 0 18 18 0 0 1 35 0z" transform="matrix(-.13659 0 0 .12573 504 221)"/>
                <path fill="#fff" d="M478 549a18 18 0 1 1-35 0 18 18 0 0 1 35 0z" transform="matrix(-.13659 0 0 .12573 498 218)"/>
                <path fill="#fff" d="M478 549a18 18 0 1 1-35 0 18 18 0 0 1 35 0z" transform="matrix(-.13659 0 0 .12573 492 217)"/>
                <path fill="#fff" d="M478 549a18 18 0 1 1-35 0 18 18 0 0 1 35 0z" transform="matrix(-.13659 0 0 .12573 486 217)"/>
                <path fill="#fff" d="M478 549a18 18 0 1 1-35 0 18 18 0 0 1 35 0z" transform="matrix(-.13659 0 0 .12573 479 218)"/>
                <path fill="#fff" d="M478 549a18 18 0 1 1-35 0 18 18 0 0 1 35 0z" transform="matrix(-.13659 0 0 .12573 473 219)"/>
                <path fill="#fff" d="M478 549a18 18 0 1 1-35 0 18 18 0 0 1 35 0z" transform="matrix(-.13659 0 0 .12573 466 220)"/>
                <path fill="#fff" d="M478 549a18 18 0 1 1-35 0 18 18 0 0 1 35 0z" transform="matrix(-.13659 0 0 .12573 460 222)"/>
            </g>
            <path fill="#fff" stroke="#000" d="M478 549a18 18 0 1 1-35 0 18 18 0 0 1 35 0z" transform="matrix(.13659 0 0 .12573 269 253)"/>
            <path fill="#fff" stroke="#000" d="M478 549a18 18 0 1 1-35 0 18 18 0 0 1 35 0z" transform="matrix(.13659 0 0 .12573 266 247)"/>
            <path fill="#fff" stroke="#000" d="M478 549a18 18 0 1 1-35 0 18 18 0 0 1 35 0z" transform="matrix(.13659 0 0 .12573 265 242)"/>
            <path fill="#fff" stroke="#000" d="M478 549a18 18 0 1 1-35 0 18 18 0 0 1 35 0z" transform="matrix(.13659 0 0 .12573 264 237)"/>
            <path fill="#fff" stroke="#000" d="M478 549a18 18 0 1 1-35 0 18 18 0 0 1 35 0z" transform="matrix(.13659 0 0 .12573 264 231)"/>
            <path fill="#fff" stroke="#000" d="M478 549a18 18 0 1 1-35 0 18 18 0 0 1 35 0z" transform="matrix(.13659 0 0 .12573 266 225)"/>
            <path fill="#fff" stroke="#000" d="M478 549a18 18 0 1 1-35 0 18 18 0 0 1 35 0z" transform="matrix(.13659 0 0 .12573 271 221)"/>
            <path fill="#fff" stroke="#000" d="M478 549a18 18 0 1 1-35 0 18 18 0 0 1 35 0z" transform="matrix(.13659 0 0 .12573 277 218)"/>
            <path fill="#fff" stroke="#000" d="M478 549a18 18 0 1 1-35 0 18 18 0 0 1 35 0z" transform="matrix(.13659 0 0 .12573 283 217)"/>
            <path fill="#fff" stroke="#000" d="M478 549a18 18 0 1 1-35 0 18 18 0 0 1 35 0z" transform="matrix(.13659 0 0 .12573 289 217)"/>
            <path fill="#fff" stroke="#000" d="M478 549a18 18 0 1 1-35 0 18 18 0 0 1 35 0z" transform="matrix(.13659 0 0 .12573 296 218)"/>
            <path fill="#fff" stroke="#000" d="M478 549a18 18 0 1 1-35 0 18 18 0 0 1 35 0z" transform="matrix(.13659 0 0 .12573 302 219)"/>
            <path fill="#fff" stroke="#000" d="M478 549a18 18 0 1 1-35 0 18 18 0 0 1 35 0z" transform="matrix(.13659 0 0 .12573 309 220)"/>
            <path fill="#fff" stroke="#000" d="M478 549a18 18 0 1 1-35 0 18 18 0 0 1 35 0z" transform="matrix(.13659 0 0 .12573 315 222)"/>
            <path fill="#fff" stroke="#000" d="M478 549a18 18 0 1 1-35 0 18 18 0 0 1 35 0z" transform="matrix(.13659 0 0 .12573 272 257)"/>
            <path fill="#fff100" stroke="#000" d="M532 585s-68-52-70-177c-1-72 34-124 123-124 124 0 301 53 301 53v17s-142-53-301-53c-71 0-107 52-107 105 0 89 71 179 71 179v141h-17V585z" transform="matrix(.13659 0 0 .12573 266 253)"/>
            <path fill="#fff100" stroke="#000" stroke-width="3" d="M1240 532s16-36 71-36c38 0 71 36 71 71v71h35v-71c0-36 36-71 71-71 53 0 71 35 71 35s0-106-71-106c-53 0-71 36-71 36s18-54 18-107-35-88-35-88c0 6-36 35-36 88s18 107 18 107-18-36-71-36c-71 0-71 106-71 106z" transform="matrix(.04553 0 0 .0479 299 309)"/>
            <path fill="#fff100" stroke="#000" stroke-width="3" d="M1240 532s16-36 71-36c38 0 71 36 71 71v71h35v-71c0-36 36-71 71-71 53 0 71 35 71 35s0-106-71-106c-53 0-71 36-71 36s18-54 18-107-35-88-35-88c0 6-36 35-36 88s18 107 18 107-18-36-71-36c-71 0-71 106-71 106z" transform="matrix(.04553 0 0 .0479 348 309)"/>
            <path fill="#fff100" stroke="#000" d="M532 833V673s35 53 88 53c44 0 89-70 89-70s41 53 88 53c42 0 89-69 89-69s43 69 88 69c46 0 89-53 89-53s46 70 106 70c53 0 71-53 71-53v160H532z" transform="matrix(.13659 0 0 .12573 266 253)"/>
            <path fill="#fff100" stroke="#000" d="M709 833V709s106 35 106 124H709z" transform="matrix(.13659 0 0 .12573 242 253)"/>
            <path fill="#fff100" stroke="#000" d="M709 833V709s106 35 106 124H709z" transform="matrix(-.13659 0 0 .12573 533 253)"/>
            <path fill="#fff100" stroke="#000" d="M602 833c0-89 107-145 107-145s106 56 106 145H602z" transform="matrix(.13659 0 0 .12573 266 253)"/>
            <path fill="#fff100" stroke="#000" d="M602 833c0-89 107-145 107-145s106 56 106 145H602z" transform="matrix(.13659 0 0 .12573 315 253)"/>
            <path fill="#fff100" stroke="#000" d="M585 848c0-89 124-160 124-160s124 71 124 160H585z" transform="matrix(.13659 0 0 .12573 291 251)"/>
            <path fill="#fff" stroke="#000" d="M1276 656c-36-18-166-36-377-36s-350 18-385 36c-36 17-36 53 0 70 35 18 175 36 385 36s341-18 377-36c35-17 35-53 0-71z" transform="matrix(.13505 0 0 .12573 266 275)"/>
            <path fill="gray" d="M436 366c0 5-40 5-49 5-8 0-48 1-48-5 0-4 40-4 48-4 9 0 49 1 49 4z"/>
            <path fill="#c00" d="M344 350c0 2-1 3-3 3s-2-1-2-3 1-2 2-2c2 0 3 1 3 2zm92 0c0 2-1 3-3 3-1 0-2-1-2-3s1-2 2-2c2 0 3 1 3 2z"/>
            <path d="M392 349c0 1-2 3-5 3s-5-2-5-3 3-3 5-3 5 2 5 3z"/>
            <path fill="#006300" d="M415 349c0 1-1 3-3 3s-4-2-4-3 2-3 4-3 3 2 3 3zm-49 0c0 1-2 3-4 3s-4-2-4-3 2-3 4-3 4 2 4 3z"/>
            <path fill="#fff100" stroke="#000" stroke-width="2" d="M1258 496s35-53 71-53h35v35c0 54-53 71-53 71h142s-53-18-53-71v-35h35c36 0 71 53 71 53V354s-35 54-71 54h-35v-36c0-53 53-71 53-71h-142s53 18 53 71v36h-35c-36 0-71-54-71-54v142z" transform="matrix(.07805 0 0 .07185 280 298)"/>
            <path fill="#fff100" stroke="#000" stroke-width="3" d="M1382 549h71s-53-17-53-71v-35h35c36 0 71 53 71 53V354s-35 54-71 54h-35v-36c0-53 53-71 53-71h-71v248z" transform="matrix(.03903 0 0 .06287 285 307)"/>
            <path fill="#fff100" stroke="#000" stroke-width="3" d="M1382 549h71s-53-17-53-71v-35h35c36 0 71 53 71 53V354s-35 54-71 54h-35v-36c0-53 53-71 53-71h-71v248z" transform="matrix(-.03903 0 0 .06287 490 307)"/>
            <path fill="#fff" stroke="#000" d="M904 602a18 18 0 1 1-36 0 18 18 0 0 1 36 0z" transform="matrix(.13659 0 0 .12573 266 253)"/>
            <path fill="#fff100" stroke="#000" stroke-width="2" d="M1258 496s35-53 71-53h35v35c0 54-53 71-53 71h142s-53-18-53-71v-35h35c36 0 71 53 71 53V354s-35 54-71 54h-35v-36c0-53 53-71 53-71h-142s53 18 53 71v36h-35c-36 0-71-54-71-54v142z" transform="matrix(.07805 0 0 .07185 280 251)"/>
            <path fill="#fff" stroke="#000" d="M904 602a18 18 0 1 1-36 0 18 18 0 0 1 36 0z" transform="matrix(.13659 0 0 .12573 267 206)"/>
            <path fill="#fff100" stroke="#000" d="M850 656h71v53h-71z" transform="matrix(.13659 0 0 .12573 266 208)"/>
            <path fill="#fff100" stroke="#000" d="M850 683h71v203h-71z" transform="matrix(.13659 0 0 .12573 266 208)"/>
            <path fill="#fff" stroke="#000" d="M478 549a18 18 0 1 1-35 0 18 18 0 0 1 35 0z" transform="matrix(.13659 0 0 .12573 324 246)"/>
            <path fill="#fff" stroke="#000" d="M478 549a18 18 0 1 1-35 0 18 18 0 0 1 35 0z" transform="matrix(.13659 0 0 .12573 324 240)"/>
            <path fill="#fff" stroke="#000" d="M478 549a18 18 0 1 1-35 0 18 18 0 0 1 35 0z" transform="matrix(.13659 0 0 .12573 324 235)"/>
            <path fill="#fff" stroke="#000" d="M478 549a18 18 0 1 1-35 0 18 18 0 0 1 35 0z" transform="matrix(.13659 0 0 .12573 324 229)"/>
            <path d="M393 358l-5 1-5-1c0-1 2-2 5-2s4 0 4 1zm44 4h-5l-5-2h6l4 2zm-19-3l-5 1-5-2 6-1c2 0 5 1 4 2zm-81 3h5l4-2h-5c-3 0-5 1-4 2zm19-4l5 2 5-2c0-1-2-2-5-2l-5 3z"/>
        </g>
    </g>
</svg>
