<svg xmlns="http://www.w3.org/2000/svg" viewBox="0 0 512 512">
    <defs>
        <clipPath id="a">
            <path d="M162 6h492v491H162z"/>
        </clipPath>
    </defs>
    <g clip-path="url(#a)" transform="translate(-168 -6) scale(1.0413)">
        <path fill="#e73e2d" fill-rule="evenodd" d="M4 6h803v294H4z"/>
        <path fill="#fec74a" fill-rule="evenodd" stroke="#d8aa3f" stroke-width="2" d="M358 277c-19-15-53-10-59-50 26 21 22-1 61 19l-2 31z"/>
        <path fill="#fec74a" fill-rule="evenodd" stroke="#d8aa3f" stroke-width="2" d="M363 259c-13-20-48-26-41-65 19 27 21 5 53 36l-12 29z"/>
        <path fill="#fec74a" fill-rule="evenodd" stroke="#d8aa3f" stroke-width="2" d="M369 246c-5-23-34-42-13-76 7 33 17 13 35 54l-22 22z"/>
        <path fill="#fec74a" fill-rule="evenodd" stroke="#d8aa3f" stroke-width="2" d="M383 234c3-24-20-50 11-76-4 33 12 18 16 62l-27 14z"/>
        <path fill="#fec74a" fill-rule="evenodd" stroke="#d8aa3f" stroke-width="2" d="M395 224c12-20 3-54 41-65-17 29 4 22-10 64l-31 1z"/>
        <path fill="#fec74a" fill-rule="evenodd" stroke="#d8aa3f" stroke-width="2" d="M414 227c17-16 19-51 59-49-25 22-3 22-30 57l-29-8z"/>
        <path fill="#fec74a" fill-rule="evenodd" stroke="#d8aa3f" stroke-width="2" d="M429 236c22-10 34-43 72-29-31 14-10 20-46 46l-26-17z"/>
        <path fill="#fec74a" fill-rule="evenodd" stroke="#d8aa3f" stroke-width="2" d="M443 251c23-4 44-32 76-8-33 4-14 16-56 31l-20-23z"/>
        <path fill="#fec74a" fill-rule="evenodd" stroke="#d8aa3f" stroke-width="2" d="M526 255l-107 2 4 29 103-31z"/>
        <path fill="#fec74a" fill-rule="evenodd" stroke="#d8aa3f" stroke-width="2" d="M510 216l-99 38 16 32 83-70z"/>
        <path fill="#fec74a" fill-rule="evenodd" stroke="#d8aa3f" stroke-width="2" d="M431 275l52-93-79 73 27 20z"/>
        <path fill="#fec74a" fill-rule="evenodd" stroke="#d8aa3f" d="M382 573l-14-82-15 82h29z" transform="matrix(1.2145 .40191 -.39943 1.207 195 -578)"/>
        <path fill="#fec74a" fill-rule="evenodd" stroke="#d8aa3f" stroke-width="2" d="M424 259l-17-106-20 107 37-1z"/>
        <path fill="#fec74a" fill-rule="evenodd" stroke="#d8aa3f" d="M379 570l-11-79-18 83 29-4z" transform="matrix(1.1791 -.4886 .48383 1.1816 -307 -238)"/>
        <path fill="#fec74a" fill-rule="evenodd" stroke="#d8aa3f" stroke-width="2" d="M407 249l-78-65 56 94 22-29z"/>
        <path fill="#fec74a" fill-rule="evenodd" stroke="#d8aa3f" stroke-width="2" d="M302 216l84 69 12-36-96-33z"/>
        <path fill="#fec74a" fill-rule="evenodd" stroke="#d8aa3f" stroke-width="2" d="M385 256l-99-1 98 33 1-32z"/>
        <path fill="#fec74a" fill-rule="evenodd" stroke="#d8aa3f" stroke-width="2" d="M464 274a59 59 0 1 1-118 0 59 59 0 0 1 119 0z"/>
        <path fill="#005989" fill-rule="evenodd" d="M3 297h807v200H3z"/>
        <path fill="#fff" fill-rule="evenodd" d="M3 442c15 7 36 24 59 24 39 0 40-26 79-25s32 28 84 28c44 0 58-33 96-29 27-2 39 31 82 32 44 1 60-36 88-33 30 0 39 30 81 30 53 0 62-31 95-29 24 0 42 23 77 23 27 1 51-20 66-27l1-36c-16 6-41 26-65 26-35 2-57-23-81-22-29 0-41 30-91 30-45 0-55-30-84-30s-38 32-87 32c-40-1-56-31-85-31-30 0-61 30-95 28-46-2-56-28-86-28-23 0-47 25-74 25S5 405 2 405l1 37zm0-70c15 7 36 24 59 24 39 0 40-26 79-25s32 28 84 28c44 0 58-33 96-29 27-2 39 31 82 32 44 1 60-36 88-33 30 0 39 29 81 30 53 0 62-31 95-29 24-1 42 23 77 23 27 1 51-20 66-28l1-35c-16 6-41 26-65 26-35 2-57-23-81-23-29 1-41 30-91 30-45 0-55-30-84-30-29 1-38 33-87 33-40-1-56-31-85-31-30 0-61 29-95 28-46-2-56-28-86-28-23 0-47 24-74 25-27 0-58-25-61-25l1 37z"/>
        <path fill="#fff" fill-rule="evenodd" d="M3 302c15 7 36 25 59 25 39-1 40-27 79-25 39 1 32 28 84 28 44 0 58-33 95-29 28-2 39 31 82 31 44 1 61-35 88-32 30 0 40 29 81 29 53 1 62-30 96-28 23-1 42 22 76 23 28 1 51-20 66-28l1-35c-16 6-41 26-65 26-35 1-57-23-81-23-29 1-41 30-90 30-45 0-56-30-85-30-28 1-37 33-86 32-41 0-56-31-85-30-30 0-61 29-95 28-46-2-56-28-86-28-23 0-47 24-74 25-27 0-58-25-61-25l1 36z"/>
        <path fill="#ffc84b" fill-rule="evenodd" stroke="#d8aa3f" stroke-width="2" d="M293 79c59-4 48-9 72-13 29 4 33 22 49 33 0 0-6 21-26 18-3-8 10-11-27-33-21-1-58 4-68-5zm182 32l-42 2v11c28 0 33-3 42-13z"/>
        <path fill="#ffc84b" fill-rule="evenodd" stroke="#d8aa3f" stroke-linejoin="round" stroke-width="2" d="M330 110c7-4 11-3 17-3 4 8 9 9 18 10a48 48 0 0 0 38 21c29-1 38-21 58-24h20c-3-5-6-9-13-9a195 195 0 0 0-52 3l-24 7c-7-4-25-22-36-22-6 2-6 4-9 7-7 3-13 1-17 10z"/>
        <path fill="#ffc84b" fill-rule="evenodd" stroke="#d8aa3f" stroke-width="2" d="M359 101a3 3 0 1 1-6 0 3 3 0 0 1 6 0zM378 109c43-52 81-45 130-49 2 6 1 15-22 23-32 5-89 39-90 39-10-1-18-12-18-13z"/>
        <path fill="none" stroke="#d9a43e" stroke-linecap="round" stroke-width="2" d="M467 75l32 2m-35 4l23 2"/>
    </g>
</svg>
