<svg xmlns="http://www.w3.org/2000/svg" viewBox="0 0 512 512">
    <defs>
        <clipPath id="a">
            <path d="M0 0h512v512H0z"/>
        </clipPath>
    </defs>
    <g clip-path="url(#a)">
        <path fill="#006" d="M0 0h1024v512H0z"/>
        <path fill="#006" fill-rule="evenodd" d="M0 0h512v256H0z"/>
        <path fill="#fff" d="M0 0v29l455 227h57v-29L57 0H0zm512 0v29L57 256H0v-29L455 0h57z"/>
        <path fill="#fff" d="M213 0v256h86V0h-86zM0 85v86h512V85H0z"/>
        <path fill="#c00" d="M0 102v52h512v-52H0zM230 0v256h52V0h-52zM0 256l171-85h38L38 256H0zM0 0l171 85h-39L1 19V0zm303 85L474 0h38L341 85h-38zm209 171l-171-85h39l132 66v19z"/>
        <path fill="#fff" fill-rule="evenodd" d="M308 186c-1 1-3 3-6 2-2-1-7-10-13-8l-11 3c-2 0-9 2-9 8s1 9 2 9l3-3s0 7 4 7 13 0 14 3c0 2-4 6-3 11 1 4 6 10 6 10s-8 6-8 9l2 7-33 2s-3 97-1 104l4 26s-8-2-14 4-28 17-29 22c0 4-2 9 0 12s10 13 8 12c-8-1-10-12-16-16-4-4-14-3-16 1a31 31 0 0 0 0 13l9 28c2 5 19 12 27 11 15 0 22-7 23-6 0 1 32 34 97 34 51 0 89-33 89-32 0 0 21 6 28 4 8-2 19-7 21-11l9-34c0-4 0-9-5-10s-8-1-11 0-4 5-8 12l-6 6c2-2 5-11 6-15 0-3 2-9-2-13l-17-10c-7-4-12-12-16-12l-8-2c1 0 5-10 4-20V246c-1 0-28 2-28 0s2-11 0-17c-3-6-12-10-9-12 2-1 15-4 14-10 0-5-8-5-12-7l-14-11c-1 0 29-19 27-19s-14-3-18-1c0-4 16-14 13-15-3-2-16-3-12-4 3 0 4-9 4-9l-15 2-4-4-7 2-3-7-6 4-2-3s-6 1-6 0l-1-4c-1 0-6 5-7 4l-6-8-5 16-4 1-23-13 6 13-5 3 1 5-15-5 6 12h-11l5 9-2 6s16 11 15 12zm95 238l8 12c-2 0-21 13-28 15a368 368 0 0 1-32 7 419 419 0 0 0 32-18 130 130 0 0 0 20-16zm-119 0l-6 12s15 11 27 15c11 4 31 5 30 5s-25-11-32-16l-19-16z"/>
        <g fill="#fec500" fill-rule="evenodd" stroke="#6d6666">
            <path d="M395-213l35 21c7 5 28 23 30 22l13-10s-24-19-39-23-39-8-39-10z" transform="matrix(.34457 0 0 .41648 161 259)"/>
            <path d="M391-232c2 0 47 23 61 35s20 26 22 26l22-3c-1 0-10-30-31-39-20-9-74-19-75-19z" transform="matrix(.34457 0 0 .41648 161 259)"/>
            <path d="M604-296l-12 32-7 23s-36 3-34-1c1-4 55-54 52-54z" transform="matrix(.34457 0 0 .41648 161 261)"/>
            <path d="M399-261s43 28 57 45c15 16 30 45 31 45l40-7c0 1-46-46-68-60s-59-22-60-23z" transform="matrix(.34457 0 0 .41648 161 259)"/>
            <path d="M443-274s21 33 26 45a1347 1347 0 0 0 16 41h34s-17-37-35-55-40-29-41-31z" transform="matrix(.34457 0 0 .41648 161 261)"/>
            <path d="M455-292c0 3 31 31 38 50a402 402 0 0 1 14 43l29-7s-26-49-43-62c-16-13-37-22-38-24z" transform="matrix(.34457 0 0 .41648 161 261)"/>
            <path d="M701-210s-62 7-84 13-35 27-35 27 29 11 31 9 19-19 37-26c19-6 52-22 50-23z" transform="matrix(.34457 0 0 .41648 161 259)"/>
            <path d="M698-250l-67 54-32 28c-1 1-32-4-30-5 2-2 45-37 74-53s53-22 55-24z" transform="matrix(.34457 0 0 .41648 161 259)"/>
            <path d="M686-279c-5 6-54 45-67 59l-34 39s-26-11-24-16c1-5 36-34 61-51 24-16 66-29 64-31z" transform="matrix(.34457 0 0 .41648 161 259)"/>
            <path d="M636-282a725 725 0 0 0-35 39c-6 9-23 45-23 45l-25-23c0-1 32-35 51-48s33-11 32-13z" transform="matrix(.34457 0 0 .41648 161 259)"/>
            <path d="M565-242a11 11 0 1 1-21 0 11 11 0 0 1 21 0zm21 14c0 5-5 9-10 9s-11-4-11-9 5-9 11-9 10 4 10 9zm-46-10c0 5-6 9-13 9s-13-4-13-9 6-10 13-10 13 5 13 10z" transform="matrix(.34457 0 0 .41648 161 261)"/>
            <path d="M573-219c0 10-6 18-14 18s-15-8-15-18 7-18 15-18 14 8 14 18zm-39 1c0 7-7 14-15 14s-14-7-14-14 6-14 14-14 15 6 15 14z" transform="matrix(.34457 0 0 .41648 161 261)"/>
            <path d="M514-207c0 6-5 12-11 12s-11-6-11-13c0-6 5-12 11-12s11 6 11 13zm81-2c0 8-7 15-17 15-9 0-16-7-16-15s7-14 17-14c9 0 16 6 16 14zm-40-21c0 5-6 9-14 9s-13-4-13-9 6-8 13-8 14 4 14 8z" transform="matrix(.34457 0 0 .41648 161 261)"/>
            <path d="M557-210c0 7-8 12-19 12s-18-5-18-12 8-13 18-13 19 6 19 13zm48 22c0 9-8 16-18 16s-17-7-17-16 8-15 17-15c10 0 18 7 18 15zm-96-4c0 6-4 11-10 11s-9-5-9-11 4-10 9-10 10 4 10 10z" transform="matrix(.34457 0 0 .41648 161 261)"/>
            <path d="M579-193c0 7-7 13-15 13s-15-6-15-13 7-14 15-14 15 6 15 13zm-48-1c0 6-6 12-13 12s-13-6-13-12 6-12 13-12 13 6 13 12z" transform="matrix(.34457 0 0 .41648 161 261)"/>
            <path d="M555-191c0 7-7 13-14 13-8 0-14-6-14-13s6-12 14-12 14 5 14 12zm-61-76c4 0 28 8 28 8l-25 10 31-4c-2 0-26 22-19 21 7-2 21-16 22-16s15 23 17 21l1-22 26 13a123 123 0 0 1-17-17l36 2-24-12s16-15 13-15-31 15-28 14l29-31-27 13s5-19 2-18l-22 25-6-24c1 0 2 26-5 27l-32 5z" transform="matrix(.34457 0 0 .41648 161 261)"/>
        </g>
        <g fill-rule="evenodd">
            <path fill="#00389b" d="M305 228c0 1 6 18 16 18s14-4 14-4c-1 0-5-3-7-9l-3-9-20 4zm35-7s7 17 10 20c3 2 11 4 14 4h7s-3-2-6-11l-3-13h-22zm44 6s-1 13 0 16 8 9 8 9 9-1 9-9a42 42 0 0 0-3-15l-14-1z"/>
            <path fill="#005120" stroke="#000" d="M289 21s1 5 0 8-11 13-11 21c0 7 11 30 47 31 35 1 80-19 80-20-1 0-85-57-86-56l-30 16zm234 40s8 21 11 23 4 7 4 7l49 10s5-13-2-24c-7-10-33-37-33-37l-29 21zm33-25c2 0 13 10 22 5 10-5 25-19 25-19s-13 4-22 3c-9 0-24 12-25 11z" transform="matrix(.34457 0 0 .41648 198 197)"/>
            <path fill="#005120" stroke="#000" d="M287 23s-3-9-13-10c-9-1-26 1-32-4-5-4-7-15-10-15h-11c-1 0-4-9 5-14s15 0 19-4 12-6 21-6c10-1 25 11 32 14s22 7 28 4c5-3 38-16 50-16 11-1 36-2 45-1s46 5 57 10 70 26 78 31l26 11s-32 32-48 37a355 355 0 0 1-95 12c-30-2-53-5-76-17-22-11-47-22-48-28l-1-14-27 10z" transform="matrix(.34457 0 0 .41648 198 197)"/>
            <path fill="#005120" stroke="#000" d="M251-14c-1 0-7 2-6 4 1 1 4 4 11 4 7-1 14-5 14-5s-8-4-19-3z" transform="matrix(.34457 0 0 .41648 198 197)"/>
            <path stroke="#000" d="M251-13v6s8 2 8 1c0-2 0-6-2-6l-6-1z" transform="matrix(.34457 0 0 .41648 198 197)"/>
            <path fill="#001707" stroke="#000007" d="M332-8c2-4 0-9 12-15s33-4 33-4-6 5-7 9l1 7s-12-4-20-1-19 4-19 4zm53-21c-1 1-10 11-9 14s13 11 17 10 22-9 23-13c1-5 2-11 0-12-1-1-30 2-31 1zm40-1c-3 2-2 13-1 14s15 16 18 16c3 1 26-1 28-4s7-13 6-15c-2-2-7-6-22-9s-24-3-29-2zm58 13l38 21c13 9 18 18 21 19 4 1 19-8 20-11 0-2-19-15-31-21-13-6-48-7-48-8zm-5 9c-2 2 23 45 28 47 5 1 33-9 33-12-1-3-8-10-26-19-17-10-31-16-35-16zM448 8c-4 2-11 41-7 43s52-5 54-9-20-39-26-39-18 2-22 5zm-50-8c-5 5-4 41-2 43s31 10 34 7c3-2 7-43 4-46S423-7 417-7c-6-1-16 6-19 7zm-65-1c-5 4-5 14 0 15l30 13c12 5 19 11 22 11 4 0 7-37 3-39a62 62 0 0 0-24-3 156 156 0 0 0-31 3z" transform="matrix(.34457 0 0 .41648 198 197)"/>
        </g>
        <path fill="#d40f0f" fill-rule="evenodd" d="M240 388c3-3 8-10 14-10s12 5 12 5l7 27-11 7c-1 0-5-10-9-9s-4 15-4 14l-17-21 8-13zm171-3c2-1 10-7 16-7 7 0 10 3 13 6 4 3 7 10 7 10l-8 21-4 1c0-1-3-7-7-8-4 0-5 7-5 7l-12-31z"/>
        <path fill="#fddc59" fill-rule="evenodd" d="M415 391c0 2 12 32 31 37 19 6 26-5 28-9s10-3 10-3-2 27-5 31c-3 3-6 11-24 11s-34-17-40-22c-5-5-12-18-15-24s15-20 15-21zm-211 59c1 0 9 9 21 8 13-1 34-8 43-21 10-12 15-26 15-26l-15-25s-1 8-4 14c-2 5-10 20-22 25-12 4-12 6-16 6a66 66 0 0 1-18-9l-6 15s-1 10 2 13z"/>
        <path fill="#fddc59" fill-rule="evenodd" d="M240 387c-1 0-24 13-23 18s39 81 122 82c82 1 132-69 128-80-3-12-29-25-29-25s7 5 6 12-30 69-101 67-105-56-105-62 4-10 2-12z"/>
        <path fill="#d40f0f" fill-rule="evenodd" d="M463 442c2-1 14-34 20-33 7 1 5 10 4 13l-7 25s0-5-5-6c-4-2-11 2-12 1zm-259 8c0-1-5-8 1-9 7-2 15 1 15 1l-10-24c-6-10-7-9-12-7s-4 7-2 14l8 25z"/>
        <path fill="#fdc400" fill-rule="evenodd" d="M280 389l8-27-22-16 27-1 9-27 9 27h28l-22 17 8 27-23-16z"/>
        <path fill="#fff" fill-rule="evenodd" d="M428 250v103c1 50-51 95-85 103-34-8-86-53-86-103V250h171z"/>
        <path fill="#d40f0f" fill-rule="evenodd" stroke="#000" d="M177 326l1 161s2-4 35-2c32 2 35 36 71 36 35 0 35-36 70-36s36 36 71 36 36-36 71-36 36 36 73 38c33-2 33-38 69-40l35 2V326H177z" transform="matrix(.34457 0 0 .40213 196 119)"/>
        <path fill="#0062bb" fill-rule="evenodd" d="M257 335v21h13c11 1 12 15 24 15s12-15 24-15 13 15 25 15 12-15 24-15 12 14 25 15c11-1 12-14 24-15h12v-21h-12c-12 0-12 14-24 14s-12-14-25-14-12 14-24 14-12-14-24-14-13 14-25 14-12-14-24-14h-13zm4 43l9 21c11 1 12 14 24 14s12-14 24-14 13 14 25 14 12-14 24-14 12 14 25 14c11 0 12-13 24-14l9-22-9 1c-12 0-12 14-24 14s-13-14-25-14-12 14-24 14-12-14-25-14-12 14-24 14-12-14-24-14h-9zm82 78c12 0 40-21 40-21s-4-14-16-14-12 14-24 14-12-14-25-14-15 14-15 14 28 21 40 21z"/>
        <path fill="#fdc400" fill-rule="evenodd" stroke="#000" d="M91 118h13c6 0 8-2 8-3v-1h7v6l-3 2-1-2-1 2-1-1-2 1v-1l-2 2-2-1-2 2-3-2-4 3-1-4-5 1-2 2-2-2s2-1 1-2h-2l-1-3h2v-2h2l1 3z" transform="matrix(1.684 0 0 1.4651 127 127)"/>
        <path fill="#fdc400" fill-rule="evenodd" stroke="#000" d="M98 94s-3 3-3 7c1 4 8 9 8 9s3-2 5 0 1 7 1 7h-6v-2l-5 1v-2l-4-1 2-1-6-3 2-2-4-3h3l-4-3h2l-1-3h1l-1-3h2l1 2v-5h3v4l1-3 3 1z" transform="matrix(1.684 0 0 1.4651 127 127)"/>
        <path fill-rule="evenodd" d="M400 302l-4 2h6l-2-2zm5 3l-1 4 3-3-3-1zm8 0a34 34 0 0 0 4 4l-2-4h-2zm-70-5l-5 3 7-1-2-2zm4 4l-2 5 5-3-3-2zm-2-6l-4-2 4-1v3zm-69-2l-5-3 6 1-1 2zm-5 3l-7 3h9l-2-3zm5 5l-6 4h8l-2-4zm-1-38l-2-4 5 3-3 1zm5-5l1-3 4 4-5-1zm7 2l1-4 4 5c-1 1-4 0-5-1z"/>
        <path fill="#fdc400" fill-rule="evenodd" stroke="#000" d="M137 111l5 4-8 1-3-1-1 2 2 1h-4l1 2h3l-1 1 2 1 2-2h3l-1 2 4-2v2l2-3 1 2 3-2 3 3 1-3 2-1-2-2v-5h-14z" transform="matrix(1.684 0 0 1.4651 126 127)"/>
        <path fill="#fdc400" fill-rule="evenodd" stroke="#000" d="M115 105h41c4 0 7-2 7-5 1-2-6-2-8-1-3 0-14 5-18 5s-9-4-9-6c-1-3 2-6 6-6l12 1 5-4h5l-2 1 6-1s-4 4-8 5c-4 2-13 1-16 1s-5 0-5 2c0 3 3 4 5 4l8-3-1-1h7v-1h4l-2-1h5c3 0 11 2 10 5 0 3-3 6-6 6s-5-1-5 1l5 2 5-2 2 3 3-1-2 4 3 1-1 2h3l-3 3 2 2-2 2-2-2-1 1h-3l1-3-2 2-2-2s4-1 4-3-2-4-8-4l-10 1c-5 0-5-2-8-2s-13 4-18 4h-11l4-10z" transform="matrix(1.684 0 0 1.4651 126 127)"/>
        <path fill="#fdc400" fill-rule="evenodd" stroke="#000" d="M107 103s-4 0-4 4v4l2-4s-2 5 0 6a9 9 0 0 0 3 1v-4s-1 4 2 5h3a70 70 0 0 0-1-4l2 3s1 2 3 1c3-1 1-3 1-3l-3-2s3 3 4 2-1-4-1-3 2 3 3 1-1-3-2-5v-3l1-4s2 1 2-2c0-2-3-2-3-2l-1-2-2 1-1-3-4 2-2 2s-4-2-4 1 3 2 3 3l-1 5z" transform="matrix(1.684 0 0 1.4651 127 127)"/>
        <path fill-rule="evenodd" d="M311 269l3-1c1 0 4 1 3 2h-3l-3-1zm14 0l-4-1c-2 0-3 1-2 2h3l3-1z"/>
        <path fill="#000039" fill-rule="evenodd" d="M314 278l1 6 3-6h-4z"/>
        <path fill="none" stroke="#000" d="M110 103l2-1c2 0 3 1 3 2h-3l-2-1zM112 100v2m7-7l1 1-1 1m-11-3l-1 1 1 2" transform="matrix(1.684 0 0 1.4651 127 127)"/>
        <path fill="none" stroke="#000" d="M111 136s-1 2 1 2 1-2 1-2" transform="matrix(1.684 0 0 1.4651 127 72)"/>
        <path fill="#fdc400" fill-rule="evenodd" d="M324 438l7-24-20-15h25l8-23 8 23h25l-20 15 8 24-21-14z"/>
        <path fill="#003017" fill-rule="evenodd" d="M327 432l6-19-17-12h21l7-19 7 19h21l-17 12 6 19-17-12z"/>
        <path fill="#fdc400" fill-rule="evenodd" d="M283 390l7-22-20-14 25-1 8-22 8 22 25 1-20 14 7 22-20-13z"/>
        <path fill="#003017" fill-rule="evenodd" d="M286 384l6-18-17-11h21l7-18 6 18h21l-16 11 6 18-17-10z"/>
        <path fill="#fdc400" fill-rule="evenodd" d="M365 390l8-22-20-14 25-1 8-22 8 22 25 1-20 14 8 22-21-13z"/>
        <path fill="#003017" fill-rule="evenodd" d="M369 384l6-18-17-11h21l7-18 7 18h21l-17 11 6 18-17-10z"/>
        <path fill="none" d="M224 403c9 39 47 68 98 74 66 9 128-24 140-74"/>
        <path d="M224 409l12-7 1 3-5 2 2 4 5-3 1 3-13 7-1-3 6-3-2-4-5 3-2-2m6 11l11-9 4 7-2 1-2-4-3 2 2 4-1 1-3-4-3 3 3 4-2 2-4-7m8 12l10-10 2 2-4 4 2 3 4-4 2 2-10 10-2-2 5-5-3-2-5 4-1-2m13 6l2 2 3-6-5 4m-6 2l11-9 3 3-7 13-2-2 2-3-3-2-2 2-2-2m10 10l7-11-3-2 1-2 7 6-1 2-3-2-6 10-2-1m5 4l7-13 3 2-3 5 3 2 3-5 2 1-7 13-3-1 4-6-3-2-4 6-2-2m14 9l6-14 6 3-1 2-4-2-1 4 4 2-1 2-4-2-3 6-2-1m13-2a17 17 0 0 0-1 4l1 2 1-1 2-4 1-5a2 2 0 0 0-1-1h-2l-1 5m-3-1a27 27 0 0 1 2-4l1-2 2-1a5 5 0 0 1 2 1 5 5 0 0 1 2 1l1 2v2a30 30 0 0 1-3 8 6 6 0 0 1-1 2h-2a5 5 0 0 1-2 0 5 5 0 0 1-2-1 4 4 0 0 1-1-2 6 6 0 0 1 0-3l1-3m12-4l2 1-2 10a5 5 0 0 0 0 3l1 1 1-1 1-2 3-10 2 1-2 10-1 2a3 3 0 0 1-3 2 5 5 0 0 1-2 0 5 5 0 0 1-3-2v-4l3-11m7 18l3-15 2 1 2 11 2-10 2 1-3 15-3-1-1-11-2 10-2-1m13 1h3l1-1a26 26 0 0 0 1-7 3 3 0 0 0-1-2 4 4 0 0 0-1 0h-1l-2 10m-3 2l3-15 4 1h2l1 1v6l-1 5-1 2-1 1a8 8 0 0 1-3 0l-4-1m11 2l1-16 8 1-1 3-4-1v4h4l-1 3-4-1v5h5l-1 3-7-1m12-1h2l1-1v-2a25 25 0 0 0 1-6l-1-2a1 1 0 0 0-1 0 4 4 0 0 0-1 0h-1v11m-3 2l1-16 4 1h2l1 1 1 2v3a35 35 0 0 1 0 5l-1 2a3 3 0 0 1-1 2h-7m16 0l-1-15 3-1v16h-2m7 0l-1-13h-3l-1-3h9v2h-3l1 13-2 1m9-17h2l2 10 1 2h1l1-1a5 5 0 0 0 0-2l-1-10 2-1 2 11v2a4 4 0 0 1 0 1 4 4 0 0 1-2 2l-2 1-3-1-2-3-1-11m13 4h1l2-1v-2l-1-2h-3l1 5m0 9l-3-15 4-1h3l2 3-1 4-2 1-2 1 1 6-2 1m10-11l1 5h2l1-1-1-5-1-5h-2l-1 1 1 5m-3 1a29 29 0 0 1-1-4 6 6 0 0 1 0-2 4 4 0 0 1 1-2 5 5 0 0 1 2-1h3l1 1 2 1 1 4 1 4v2l-1 2-2 1-3 1-1-1-2-2a28 28 0 0 1-1-4m13 4l-5-15 2-1 7 9-4-10 3-1 5 14-3 1-7-8 4 10-2 1m16-8l-5-12-3 2-1-2 7-5 1 2-2 2 5 11-2 2m6-4l-7-13 2-1 3 5 3-2-3-6 2-1 7 13-2 1-3-6-3 3 3 6-2 1m9-7l-8-12 6-5 1 2-4 3 2 3 4-3 1 2-3 3 2 4 4-3 1 2-6 4m7-13l2-2 1 1 1 1h1l1-2-1-1-1-1a5 5 0 0 0-1 0l-2 1h-3a4 4 0 0 1-1-1 4 4 0 0 1-2-3 5 5 0 0 1 2-3l3-2 2 2a4 4 0 0 1 1 0l-2 2-2-1h-1v3h3l1-1a6 6 0 0 1 3 0l2 2 1 3a5 5 0 0 1-1 3l-3 2-3-2a14 14 0 0 1-1-1m11-4l-10-10 4-6 2 2-3 3 2 3 3-4 2 2-3 3 3 3 3-4 2 2-5 6m3-14l1-2-5-3 4 5m2 7l-9-12 2-3 13 6-2 3-3-2-2 3 3 3-2 2m2-13l1-2h1l2 1 1-1v-1a2 2 0 0 0-1-1 2 2 0 0 0-1-1l-2 1-1 1a8 8 0 0 1-3 1 4 4 0 0 1-2-1 4 4 0 0 1-2-2 5 5 0 0 1 1-3c0-2 1-2 2-3l3 1-1 3v-1a3 3 0 0 0-2 0l-1 1v1l1 1 2-1 2-1a6 6 0 0 1 3-1 4 4 0 0 1 2 1 4 4 0 0 1 2 2 5 5 0 0 1 0 4l-3 3-3-1-1-1"/>
    </g>
</svg>
