<svg xmlns="http://www.w3.org/2000/svg" viewBox="0 0 512 512">
    <path fill="#fff" d="M0 0h512v512H0z"/>
    <path fill="#009543" d="M0 358h512v154H0z"/>
    <path fill="#00209f" d="M0 0h512v154H0z"/>
    <path stroke="#000" stroke-width="2" d="M258 163c-3 0-6 3-6 3v35l-11 11h9v20l-52 71-8-3-13 29s33 21 81 20c54-1 82-21 82-21l-14-29-6 3-53-70v-20h8l-12-11 1-35s-3-3-6-3z"/>
    <path fill="none" stroke="#000" stroke-width="9" d="M276 246h-36s-13-28-11-47c2-20 13-29 28-29 18 0 27 8 30 28s-11 48-11 48z"/>
    <path fill="#fff" d="M195 312l-5 9 7-2-2-7zm4 11l-8 2 9 4-1-6zm3-11l4 11 10-2-3-6-11-3zm6 16l2 4 13 3-5-10-9 3zm15-10l4 10 10-3-3-5-11-2zm6 14l2 5 15 2-7-10-10 3zm14-11l6 9 14-5-2-3-18-1zm8 13l3 5 18-1-7-9-14 5zm19-13l4 8 11-5-3-4-12 1zm18 6l-11 6 3 5 14-3-6-8zm3-8l6 7 9-7-3-4-12 4zm17 4l-9 6 3 4 12-3-6-7zm12-14l3 3-6 9-7-8 10-4zm5 7l3 8-7 2-1-3 5-7z"/>
</svg>
