<svg xmlns="http://www.w3.org/2000/svg" viewBox="0 0 512 512">
    <path fill="#d3ae3b" d="M0 0h512v512H0z"/>
    <path fill="#c40308" d="M26 26h460v460H26z"/>
    <path fill="#b96b29" d="M367 252c3-1 14-4 21-10s9-11 10-13c0-3 0-5-1-4l-12 9a43 43 0 0 1-10 3c-2 1-3 1-1 1 2-1 8-4 13-9s10-12 10-17-1-5-2-3l-10 10a96 96 0 0 1-10 7c-3 2-6 3-1 0 4-3 13-11 17-21s3-16 3-17-1-3-2-1-7 14-12 19l-4 5c-1 1-3 3-1 0l10-17a55 55 0 0 0 3-17l-2-11c-1-2-2-3-2-1l-6 20a75 75 0 0 1-7 13c-1 1-3 4-1 0a83 83 0 0 0 7-30 47 47 0 0 0-2-22l-3-5s0 9-3 21l-6 18v-1l3-14c0-7 0-16-2-23-2-8-6-12-6-12-2 11-1 26-6 38 0-1-1-2-2 1a67 67 0 0 1-7 20c-5 10-7 11-7 11l-2-4c-1-1-1-2-2 0s-4 9-10 16-10 11-10 16c1 6 3 8 7 11 4 2 5 4 4 7 0 3-4 4-7 4h-8l-3 4-3 3h-1c0-15 5-21 5-21l-15-18-2 1a4 4 0 0 0-1-1 12 12 0 0 1-3-8h4c2 0 1-2 0-3a28 28 0 0 1 0-10l4 2 1-3a12 12 0 0 1 3-7l6 2c3 0 6-1 9-4l3-3 10 2c5 0 9 0 11-5 3-5 0-9-1-9 0-1-2-2-2 0s0 4-2 6c-3 2-5 2-7 1a22 22 0 0 0-14-1l6-4c3-1 5 0 6 2 1 1 2 3 3 0s1-6-1-9a8 8 0 0 0-8-3l-4 1s-1-5-6-5c-4-1-10 0-14 3h-7a22 22 0 0 1-6-3 302 302 0 0 1 1-4l2-1 1-1-2-3s0-2 3-4l3-1 3-1 1-1 2-1v-3-2a5 5 0 0 0 1-3v-1l1-2-1-3h-1l-1-2-2-2 1-2a3 3 0 0 0-2-2h-2l-4-2-2-1v-2l-2-1-1 1-7-2h-2l-5-3h-2l2-4a6 6 0 0 0-3-6h-2v-2h3v-5l-3 1 1-3h-7l1 3h-3v4h3v2l-2 1a6 6 0 0 0-3 5 9 9 0 0 0 1 4h-2l-5 3h-2l-6 2-2-1-2 1v2l-2 1-4 2h-1a3 3 0 0 0-2 2v2l-2 2-1 2c-1 1-2 1-2 3l1 2v1l1 3v2a4 4 0 0 0 0 3l2 1 1 1 3 1 3 1c3 2 3 4 3 4l-2 3 1 1 2 1 1 4-6 3h-6a23 23 0 0 0-15-3c-4 0-6 5-6 5l-4-1a8 8 0 0 0-8 3 11 11 0 0 0-1 9c1 3 2 1 3 0 1-2 3-3 6-2a19 19 0 0 1 7 4h-4c-4-1-8 0-10 1-3 1-5 1-7-1-3-2-3-5-3-6 0-2-1-1-2 0s-3 4-1 9c2 4 7 5 11 5l10-2 3 3c3 3 7 4 10 4l5-2a12 12 0 0 1 3 7c0 2 0 3 2 3s3-2 3-2l1 2-1 8v3h4a12 12 0 0 1-3 8 5 5 0 0 0 0 1 58 58 0 0 1-3-1l-15 18s5 6 5 21a21 21 0 0 1-1 0l-3-3-3-4h-8c-3 0-7-1-7-4-1-3 0-5 4-7 4-3 6-5 7-11 0-5-4-9-10-16s-9-14-10-16h-2l-2 4-7-11a67 67 0 0 1-7-20c-1-3-2-2-2-1-5-12-4-27-6-38 0 0-4 4-6 12a64 64 0 0 0-2 23l3 14v1s-4-6-6-18c-3-12-3-20-3-20l-3 4a47 47 0 0 0-2 22c0 13 5 25 7 30 2 4 0 2-1 0l-7-13a242 242 0 0 1-6-20c0-2-1-1-2 1l-2 11a55 55 0 0 0 3 17 68 68 0 0 0 10 17c2 3 0 1-1 0l-4-5a98 98 0 0 1-12-19c-1-2-2 0-2 1s-1 7 3 17a49 49 0 0 0 18 21c4 3 1 2-2 0a96 96 0 0 1-10-7l-10-10c-1-2-2-2-2 3s4 12 10 17c5 5 11 8 13 9 2 0 1 0-1-1a43 43 0 0 1-10-3l-11-8c-2-2-2 0-1 3 0 2 2 7 9 13s18 9 21 10 0 1 0 1l-7-2c-6-1-15-6-18-8-2-1-2-2-2 2 0 3 4 10 9 13a53 53 0 0 0 19 5c2 1 2 1 0 1a55 55 0 0 1-20-4 32 32 0 0 1-1-2h-1l-2 1c-2 1-1 0-1-1l-1-3-1-1-5 2c-1 1 0 2 1 3a157 157 0 0 0 1 3l-4 1v1l2 5 1 1 3-2 1 4-3 1c-2 1-1 2 1 3 2 0 4 1 6 6 2 4 3 11 4 23 2 12 9 18 10 18l1 2-1 4a6 6 0 0 0 4 4v8c1 5 5 10 6 11l1 2-2 1-4 4v4c0 2 3 4 3 4v2c-1 2 1 4 2 5l4 2 1 2 3 3h4c1-1 2 0 2 1l1 6-1 4 4-1c2-1 2 0 3 1l4 1v-2l1-4 4-1 2-2-4-2-4-3c-2-1-1-1-1-2l1-1v-2l2-2 2-3 3-5 4-3 5-5 7-3 1 4c1 1 3-1 8-5s9-5 9-5l3 4c1 1 2 0 9-9l14-16h1v2l-3 5-5 7a17 17 0 0 0-3 9c0 4 2 4 2 4l-4 6-2 7-1 3-7 6-8 5c-2 1-1 2-1 3l6 4h5c2 0 0 2-1 2l-1 6c0 3 2 3 5 2l6-2-1 1v4l1 4 3-1 5-2 3-1-1 2a19 19 0 0 0 0 5 10 10 0 0 0 4 5c1 2 2 1 3-1l3-4 2 6c2 5 7 9 7 9s5-4 7-9l2-6 3 4c2 2 2 2 3 1a10 10 0 0 0 3-5l1-5-1-2 3 1 5 2c1 0 2 2 3 1l1-4a9 9 0 0 0 0-4l-1-1 6 2c3 1 5 1 5-2a11 11 0 0 0-1-6c-1 0-3-2-1-2h5l6-4c0-1 1-2-1-3l-8-5-7-6-1-3-2-7-4-6s2 0 2-4l-3-9-5-7-3-5a34 34 0 0 0-1-2 152 152 0 0 1 2 0c3 2 10 8 15 16 6 8 7 10 9 9l2-4 10 5c5 4 6 6 8 5v-3l7 2a112 112 0 0 1 6 2l9 6c3 3 8 3 13 1a351 351 0 0 0 33-13 17 17 0 0 0 1-5l-2-3v-2l-1-3v-4a16 16 0 0 0-9-14l-1-1-1-1v-4h1l1 1 2-1 1-4v-1l-3-1 1-2c1-2 0-2-1-2a62 62 0 0 0-5-1c-1-1-1 0-1 1v3h-1l-2-1h-1l-1 5v2h3c1 0 0 0 0 0l-1 3h-4s-6 1-10 4a17 17 0 0 0-6 7l-2 2-2 3c0 1 0 2-2 3s-3 6-1 9l5 7-1 1a274 274 0 0 1-12-9c-3-1-1-1-1-1l2-1c2 0 2-1 0-1l-5-3c0-1-1-2 1-2 1-1 4-3 2-4l-8-2-2-1 1-2s1-2 0-2l-8-2a20 20 0 0 1-12-14c1 3 4 7 8 7 6 0 6-1 5-3l-3-5h1c1 2 4 7 13 6 9 0 9-2 9-3l-3-3h13c2-1 8-3 9-6l-7-2c-2-1-4-2-1-1h13c3-1 7-4 7-8l-7-2-3-1s8 2 15-1c7-4 7-9 7-10v-1l-11 1h-6s13-1 20-5c6-4 7-12 7-12l-13 3a55 55 0 0 1-9 1c-1 0-1-1 1-1 3 0 13-2 19-5a22 22 0 0 0 9-13c0-4 0-3-2-2a77 77 0 0 1-25 10s-3 0 0-1zm-240 15l-2 2-2-3v-1l3-1 1 3zm82 48a22 22 0 0 1-9 8l-8 2c-2 0-1 2-1 2l2 2-3 1-7 2c-3 1 0 3 2 4v2a18 18 0 0 1-5 3v1l6 2-3 2c-2 2-6 3-9 3h-19v-5a23 23 0 0 0-4-8l-4-6 1-1-1-4-4-4v-3l-2-12-8-15a42 42 0 0 1-5-21l1-1a14 14 0 0 0 3 3c7 4 20 5 20 5h-6l-11-1v1c0 1 0 6 7 10 7 3 15 1 15 1l-3 1a87 87 0 0 1-7 2c0 4 4 7 7 8h13c3-1 1 0-1 1l-7 2c1 3 7 5 9 6h13l-3 3c0 1 0 3 9 3s12-4 13-6h1l-3 5c-1 1-1 3 5 3 4 0 7-5 8-7h1a55 55 0 0 1-3 6zm71-190l-1-2 5 4 2 4v9l1 1-3 1h-4l-1-2c1-1 3-1 3-5 1-4-1-9-2-10zm-18 11v-8l-1-9s3 0 6 3c4 4 4 7 4 8l-1 6c-1 2 1 3 1 3l-3 1-3 1-4-1-2-1 3-3zm-17-14a15 15 0 0 1 6-3l-1 9v8l3 3-2 1-4 1-3-1-3-1 1-3-1-6c0-1 0-4 4-8zm-13 20h-4l-3-1 1-1v-4-5l2-4c2-3 5-4 5-4l-1 2c-1 2-3 6-2 10 0 4 2 4 3 5l-1 2zm47 34c-3 2-5 1-5 3l3 2-6 5-5 3-1 1a6 6 0 0 0 3 3l1 1-6 6a16 16 0 0 1-5 3v4a6 6 0 0 0 2 3v2l-4 6-4-6v-2l2-3v-4a16 16 0 0 1-5-3l-6-6 1-1a6 6 0 0 0 3-3l-1-1-5-3-6-5 3-2c0-2-1-1-5-3s-5-5-5-5 4-1 6-5a7 7 0 0 0 1-4l21 3 21-3 1 4c2 4 6 5 6 5l-5 5z"/>
    <path fill="#d4af3a" d="M300 254c0-11 5-18 5-18l-14-16c-13 5-24 6-35 0-11 6-22 5-35 0l-14 16s5 7 5 18-2 19-3 24c-2 5-3 15 0 22s6 13 18 18l23 11 6 7 6-7 23-11c12-5 15-11 18-18s2-17 0-22-3-13-3-24z"/>
    <path fill="#b96b29" d="M296 258a30 30 0 0 1 4-19l-12-14c-9 5-21 4-32-1-11 5-23 6-32 1l-12 14s6 9 4 19c-1 10-5 27-4 34 1 6 6 14 10 18a61 61 0 0 0 18 9 49 49 0 0 1 12 8l4 3 4-3c2-2 7-6 12-8a62 62 0 0 0 18-9 33 33 0 0 0 10-19c1-6-3-23-4-33z"/>
    <path fill="#1d5e91" d="M295 259a35 35 0 0 1 3-20l-11-12c-8 5-19 4-31 0-12 4-22 5-31 0l-11 12s5 9 4 20c-2 12-5 24-4 32v1h9l2-1 1-1 2-2h2l1-1 3-4 1-4 1-3h-2l-1-2 1-4v-3s-6 2-7-3l-2-8h-1l-3-3c-2-3-2-4-1-5h1l2 2v-3l-1-3v-3h1a4 4 0 0 1 1 1h1v-2l2-1a2 2 0 0 1 1 2v1l1-1 1-1 1 3-1 3v4l1 4c1 2 1 4 3 5h1l3-4 4-1 2-1-2-1-3-1v-2c-1 0-4-1-4-3l-1-3s1-2 2-1l2 3 1-1a5 5 0 0 1-1-3l1-1 4-1h1l2-1a10 10 0 0 1 3-1h3a6 6 0 0 1 3-1 4 4 0 0 1 2 1v1l1 1 3 1c1 1 2 0 1 1l-1 2-1 1v1l1 1c0 1 2 1 1 2l-3 2v1l2 3 2 1v1l-2 1h-2c-1 0-2 0-1 1l1 2v2h17l2 1 6-1c2 0 2-2 2-2 0-1 0-2-4-3l-8-1c-3 0-7-2-8-5-1-4 2-5 4-6l6-2a14 14 0 0 1 7-1h5l2 1c0 1-1 3-4 4l-9 1c-3-1-4-2-5-1-2 0-3 2-2 4 2 2 9 2 11 2 1 1 8 0 10 3 2 4 1 8-2 9a30 30 0 0 1-6 1l-1 1v2l1 3 4 1 3 2 1 6v5l-1 2-2 4h10a23 23 0 0 0 0-1c1-8-2-21-3-32z"/>
    <path fill="#6d8c3e" d="M215 297c2 6 6 12 13 15 8 6 12 5 20 10l8 7 8-7c8-5 12-4 21-10a29 29 0 0 0 12-15h-82z"/>
    <path fill="#d4af3a" d="M222 253l3 1c2 0 2 1 2 2s0 4 2 6c1 3 4 3 4 3l1-4s1-1-1-1-1-1-2-2a23 23 0 0 1-2-6l1-6v-2h-2v1l-1-2h-1v2l-1-1-2 1 2 3v3h-2a1 1 0 0 0-1 0v2zm0-3h-1l-1-1v1l1 1 1-1zm2-6v-1l-1-1v1l1 1zm2-3l1 1v-1l-1-1v2zm4 1v-1 1 0zm6 25c0 2 2-1 4-3s2 0 1 1a8 8 0 0 0 1 5h2l1-4c1-1 1 0 1 1a8 8 0 0 0 2 3c1 1 1 0 1-1l1-4h1l2 2c1 1 1-1 1-2l1-3 2 1c2 1 2 0 1-1a8 8 0 0 0-2-4l-1-2 3-1h2l1-1-2-1-2-2h-3v-1h-1l-1 2h-1c-1 0 0 0 0 0l1-2v-3h-3 1l2-2h2l1-2v-3h-2l-1 2h-1v-1-1l-1-2a9 9 0 0 0-4 1l-1 1h-2l-3 1h-1v2h1v1h-1l1 1 2 1 2 2-3 1-1 1h4l3 2v1l-2 1-1 1-5 1c-3 1-3 4-3 4l1-1 4-2c1-1 1 1 1 2h1l2-1h1l-1 3c0 2 2 0 3-1s1 0 1 1l-3 3-1-2-1-2-2 1h-2v-1h-1l-3 1-1 3 1 3z"/>
    <path fill="#d4af3a" d="M253 239h1l1-1 1-1h-2l-2 1h-1v1h1zm4 4l2-1 1-1-2-1-1 1-1 1v1zm-1 1l-3 2v1a7 7 0 0 0 1 3h1l1-1a4 4 0 0 1 2-1 6 6 0 0 0 3-1l-2-2a4 4 0 0 0-3-1zm-15 4l2-1-2-1c-3 0-5-1-6-3 0 0-1 1 1 3s4 2 5 2zm-9 44h5v-1l1-5 2-6v-2l-1-3h-2l-1 1v6l-4 5-2 1-2 1-1 1 1 1 1-1h3v2zm-7-1v1h2a2 2 0 0 0 0-1l-2 1z"/>
    <path fill="#d4af3a" d="M229 291a3 3 0 0 0-1 1h3v-1h-2zm26-1l-1 1-1 1h2v-1-1zm3 1h-1l-1 1h-1 3z"/>
    <path fill="#d4af3a" d="M269 278l1-2v-1l-3-1-5 1-1 4v1h1l2 2v3l-2 3h-3l-3 1 1 1h1v2h6l1-2 2-3 1-2a5 5 0 0 0-1-2 5 5 0 0 1 0-3l2-2z"/>
    <path fill="#d4af3a" d="M260 264v1h-3l-2 1a5 5 0 0 1 0 3h-3l-1 1-1 2-1 1-1-1-2-2c-1-1-1 0-2 1 0 1 0 2-1 1l-2-2-2-2-2 2h-2l-1 1 1 3 3-2h2l1 3 1 3 2-1 2-4 1 2c1 1 2 2 3 1l1-3 1 1v1l8-3h10l1-1-3-1-4 1-2-1h2a63 63 0 0 1 6-1c2 0 1 1 1 2l1 4 1 2c1 2 4 3 5 3v-1h2l3 1 1 1v4l-2 3h-3c-2 0-2 1-2 2v2a9 9 0 0 1 1-1h3l1 1h4l2-4v-3-6-3c0-1 0-2-2-2l-5-3-1-5c-1-2-2-3-5-3a25 25 0 0 0-8-1l-6 1c-2-1-2 0-1 1z"/>
    <path fill="#d4af3a" d="M275 292a2 2 0 0 0-1 0h2a1 1 0 0 0 0-1l-1 1zm4 0a2 2 0 0 0-1 0h3l-2-1zm-65 1l1 3h82a25 25 0 0 0 1-3h-84zm56-40c3 2 11 2 15 3s3 4 2 5c-1 2-7 2-8 2l2 2h2a12 12 0 0 0 6-3c2-1 2-4 1-6l-8-2-9-1c-3-1-4-2-4-4s1-3 3-3l5-1 7 1c4-1 5-3 5-3h-2l-7-1-6 2c-2 1-6 1-7 4-1 2 0 4 3 5z"/>
    <ellipse cx="248" cy="241" fill="#b96b29" rx="2" ry="2"/>
    <path fill="#b96b29" d="M282 244h-5 1l4 1 4-1h-4z"/>
    <path fill="#1d5e91" d="M262 282h-1c-1 1-1-1-1-2v-5l-4 1-5 1-2 1a19 19 0 0 0-3-1l-2 2-3 4-1 6-1 3h13l1-1a3 3 0 0 1 1-2h1l2-2h5l1-2v-2l-1-1zm21 1l-1-1-2-1v2h-3l-5-3-1-1h-1l-1 3 1 3-2 4-1 3h6l1-1 1-1h1l2-2 3-1 2-2v-2z"/>
    <path fill="#d4af3a" d="M231 352l4-2 2-5 2-2-2 5a17 17 0 0 0 0 7c0 3 2 3 3 3l3-3 1-2 2-4v3l-2 7c0 2 0 5 2 6 2 0 3-2 4-6l2-5 1 4a20 20 0 0 0 1 8h4l1-8 1-4 2 5c1 4 2 6 4 6 2-1 2-4 2-6l-2-7c0-2 0-2 2 0l1 3 3 3c1 0 3 0 4-3l-2-11 1 1 2 5 4 2c1 0 2-3 1-7s-5-6-7-9l-4-9a29 29 0 0 0-9 6l-6 7-6-7a29 29 0 0 0-9-6l-4 9-4 4a13 13 0 0 0-3 5c-1 4-1 6 1 7z"/>
    <path fill="#d4af3a" d="M231 365l2-2s1-1 1 1l-1 6c1 2 1 3 3 2l3-3c1-1 2-1 2 1l-1 6c0 3 2 4 4 1a34 34 0 0 0 3-6c1-1 2-2 2 0 0 5 1 13 7 15 6-2 7-10 7-15 0-2 1-1 2 0a35 35 0 0 0 3 6c2 3 4 2 4-1v-6c-1-2 0-1 1-1l3 3c2 1 3 0 3-2l-1-6c0-2 1-1 1-1l2 2 4 1s1-5-1-8l-3-5h-2l-2-1v3l3 3c1 1 2 2 0 1a54 54 0 0 1-3-3l-2 4h-2v1l2 5c0 1-1 1-1-1l-3-5c-1-1-2-2-2 0l-1 5-1 1 1 5s0 1 0 0l-2-4-3-1-2-3-2 4-2 2v6l-1 2-1-2v-6l-2-2-2-4-2 3-3 1-2 4c0 1-1 0 0 0l1-5-1-1a13 13 0 0 1-1-5c0-2-1-1-2 0l-3 5c0 2-1 2-1 1l2-5v-1h-3l-1-4-3 3c-2 1-1 0 0-1a77 77 0 0 1 3-3v-3l-2 1a8 8 0 0 1-2 0l-3 5c-2 3-1 8-1 8l3-1zm27 36l-2-3-2 3-5 4a17 17 0 0 0 7 12l5-5 2-7-5-4z"/>
    <path fill="#b96b29" d="M255 406l1 4 1-4v-3h-2v3z"/>
    <path fill="#d4af3a" d="M256 161a54 54 0 0 1-17-2l-4 1a55 55 0 0 0 21 4c9 0 15-1 21-4l-4-1a54 54 0 0 1-17 2zm22-5a43 43 0 0 0-4-2v-2a18 18 0 0 1 5-2l1-1-7-1-17-1-17 1-7 1s-1 1 1 1l5 2v2a31 31 0 0 0-4 2v1h3a101 101 0 0 1 38 0h3v-1z"/>
    <path fill="#d4af3a" d="M271 159l-15-1-15 1c3 1 7 2 15 2l15-2zm-20-61h4v3l3-1v-3l3 1v-3h-3v-3h-4l1 3h-4zm11 7h-5v-3a6 6 0 0 0-1-1 6 6 0 0 0-1 0v4h-4a5 5 0 0 0-1 2h12a6 6 0 0 0 0-2z"/>
    <path fill="#1d5e91" d="M256 112c3 0 5-1 6-4h-11c0 3 3 4 5 4zm3-10v2h3a6 6 0 0 0-3-2zm-5 0a6 6 0 0 0-3 2h3v-2z"/>
    <path fill="#b96b29" d="M260 149l-4-1-3 2-2 1 1 1 4 3 5-3v-1l-2-2z"/>
    <path fill="#d4af3a" d="M260 150l-4-1-4 1 4 2zm-4-15l-1 2v2l1 1 1-1v-2l-1-2z"/>
    <circle cx="256" cy="142" r="1" fill="#d4af3a"/>
    <path fill="#d4af3a" d="M253 138l2-2 1-2 1 2 2 2 2-4v-11a162 162 0 0 1-1-11 8 8 0 0 1-4 2 8 8 0 0 1-4-2l-1 11v11l2 4z"/>
    <ellipse cx="256" cy="130" fill="#b96b29" rx="3" ry="3"/>
    <ellipse cx="256" cy="124" fill="#b96b29" rx="3" ry="3"/>
    <ellipse cx="256" cy="117" fill="#b96b29" rx="3" ry="3"/>
    <ellipse cx="256" cy="130" fill="#d4af3a" rx="2" ry="2"/>
    <ellipse cx="256" cy="123" fill="#d4af3a" rx="2" ry="2"/>
    <ellipse cx="256" cy="117" fill="#d4af3a" rx="1" ry="1"/>
    <path fill="#b96b29" d="M256 359v-2l1-4-1-1-1 1 1 5z"/>
    <path fill="#d4af3a" d="M224 383l6-4a13 13 0 0 0 4-4h-1l-1-2v-4-4l-3 3h-3l-1-2-2 4c-1 2-4 5-7 6a31 31 0 0 1-6 5c-2 0-1 1-1 1s2 2 7 3 7-1 8-2z"/>
    <path fill="#d4af3a" d="M242 381c-2 0-3-1-3-3v-6l-1 2-3 1-1 1a10 10 0 0 1-3 4 54 54 0 0 0-5 3 30 30 0 0 1-4 3 8 8 0 0 0-4 6c-1 2 0 3 2 3l5-1 11-7c4-2 6-6 6-6z"/>
    <path fill="#d4af3a" d="M251 384l-2-4-2-5-1 3-3 3-2 3a23 23 0 0 1-6 5 23 23 0 0 0-7 5l-1 6c1 1 2 0 4-1l12-4c6-4 8-11 8-11z"/>
    <path fill="#d4af3a" d="M253 398c2-3 2-9 2-9l-1-1-2-3-2 4a16 16 0 0 1-4 4l-7 7v8h3l4-4 7-6z"/>
    <path fill="#b96b29" d="M234 347a23 23 0 0 1 2-5 16 16 0 0 0 2-2l-3 3a15 15 0 0 0-2 4c0 2 0 2 1 0zm8 2a54 54 0 0 0 1-2v-2l-2 3-1 5 2-4zm7 5v-1l1-3-1 1-1 2v3l1-2zm-21 20h-1l-1 1-2 2a9 9 0 0 1-3 3l-2 1h1l2-1 3-3 3-3zm7 9l1-1h-1l-3 2-2 2-3 2v1l1-1 2-1 2-1a26 26 0 0 0 3-3zm9 6l-1-1-4 4-3 2-1 1h1l1-1 1-1 3-1 3-3zm4 8c-2 0-4 2-5 4l-1 2h1l1-2 4-3a9 9 0 0 0 3-3v-2l-3 4z"/>
    <path fill="#c52126" d="M208 181a24 24 0 0 0-19-1h-6c-3-1-5-3-6-6 0 0-2 3 0 6a8 8 0 0 0 5 4c5 1 11-3 15-3 5 0 8 3 8 3h3v-3z"/>
    <path fill="#d4af3a" d="M192 339l-1-1a16 16 0 0 1-3 0h-2l-4 3h7c2 0 3-2 3-2z"/>
    <path fill="#d4af3a" d="M211 338v-1l-1-2-2 2-4 4c-1 1-2 2-1 0l3-4 2-3h-4l-6-2-3-2-7 2-1 1 4 2 5 1c2 0 4 0 3 1l-3 7a22 22 0 0 0-1 7v3l7-5 8-5 1-2-1-4z"/>
    <path fill="#d4af3a" d="M230 322h-1l-5 4c-1 2-3 2-1 0a19 19 0 0 1 3-4l1-1a56 56 0 0 1-8-5l-1 3-4 2 3-3 1-3a34 34 0 0 1-5-5 19 19 0 0 1-5 8c-4 5-12 7-12 7s-3 0 0 1l8 1 5-2c1 0 2 0 0 1l-9 2c-2-1-5-1-2 1l6 2h9l-1 5v7l2 3c0 1 0 2 1 0l2-7 1-3v1a142 142 0 0 0-1 5v2l8-9 2-3 4-3c0-2 3-4 4-5l-5-2zm-74-138c0 4 4 10 6 13l2 5-2-3-6-7-5-10h-1c-1 1-3 8-1 12l7 10 3 5-2-3a153 153 0 0 1-7-6 49 49 0 0 1-4-7h-1l-1 6c1 5 4 8 6 11l5 5-5-4-7-7c-1-1-2 0-2 4 0 5 5 9 7 12l5 4c-1 1-3 0-4-1l-7-5c-1-1-2 0-1 5l7 9 6 4-4-1-6-3-2 1s0 4 2 7a14 14 0 0 0 9 4l3 1-1 1h-6c-3 0-3 1-3 2s0 2 3 5l10 3 1 1-4 1c-3 0-4 1-5 2l3 4c2 2 5 2 9 2h6l-4 1-5 2c-2 1 0 3 2 4 2 2 7 2 9 2l6-1-4 3c-2 0-3 1-3 2s0 2 3 3h8c2-1 3-2 4-1l-1 1a10 10 0 0 1-4 2c-2 1-3 1-3 3-1 1 1 3 5 3l11-2 2-1v1l-5 3c-2 0-2 1-2 2s0 3 4 4c3 1 7 0 11-3a9 9 0 0 0 3-2v-8a14 14 0 0 1-4-1l-3-4-2-1-3 1a8 8 0 0 1-6-3l-2-6h-2l-6-2c-2-2-2-4-2-5l-2-1-3-2-3-5-4-2c-3-1-3-5-3-7l2-3-2-1c-1-1-4-2-4-6s3-4 3-4l-2-1c-1-1-4-3-4-5l2-4 3-1s-2-1-2-3v-6l5-1h3v-2-4s0-2 3-3 7 1 8 2 0-1 0-2l-4-7a78 78 0 0 1-11-25c0-2-1-1-1-1l-2 4a27 27 0 0 0-2 11z"/>
    <path fill="#d4af3a" d="M210 258a8 8 0 0 1-6-4c-2-3-5-4-10-4-5 1-7-2-8-5s0-7 5-9c5-3 7-6 7-10 1-4-5-9-10-15l-9-14-1 4v5l-4-2c-3-1-5-2-7 0s0 6 2 8l2 3-4-1c-1-1-2-3-5-3-3 1-4 1-4 4-1 2 2 4 4 5l2 2h-2-4c-2 1-4 3-2 5 2 3 7 4 8 4h1l-4 1c-3 0-3 3-3 5l7 4 3 1-1 1c-2 0-4 0-5 2 0 2 0 3 2 5s5 2 6 1h3c1 1-1 2-3 3-1 1-1 3 1 5a8 8 0 0 0 7 0c1 0 2-2 3-1s-2 2-3 3c-2 2-1 4 1 6h8l2-1c1 1 0 2-1 4 0 1-1 5 3 6 3 2 7-2 8-2l1-1v2a4 4 0 0 0 2 5 7 7 0 0 0 5 1l2-8h-1v1l-1 1c-1 0 0 0 0 0l-2 1 2-2 1-1 1-1v-1l1-8a61 61 0 0 0 1-5h-1zm-79-58c4 8 10 13 10 13l-1-3v-3l-4-6c-3-5-4-11-4-11l4 9a50 50 0 0 0 4 7l2-3h1l1 1-2-3-1-2-7-12-6-19c-1-4-1-2-2 1a29 29 0 0 0-1 11 57 57 0 0 0 6 20zm5 22a145 145 0 0 0 4 3v-2l-1-3-3-3a44 44 0 0 1-6-6c-3-4 0-1 2 1l8 7v-1-2l-2-2a80 80 0 0 1-19-27s-1 10 4 20c6 11 12 14 13 15zm31 60c3-1 2-4 2-4l-4 1-8 2h-1l4-1 7-3v-1a5 5 0 0 1-3-1l-4 1a53 53 0 0 1-23 1c-1 0-2 0 1 4 2 4 10 6 15 6s11-3 14-4zm-14-7c5 0 7-2 7-2l-1-1v-3h-11l8-1c2-1 1-1 0-2l-4-2-13 1-11-3h-1s-1 1 2 4a18 18 0 0 0 10 7 54 54 0 0 0 14 2zm-2-13l-1-2 1-2-5-1-7-1-4-2 2 1 11 2h4l2-1h-2a9 9 0 0 1-4-2l-4-1-12-3-12-6c-1-1-1 0-1 1s0 3 3 6c3 4 5 5 13 8 7 3 16 3 16 3zm-23-19a43 43 0 0 0 17 7v-3l3-1v-1l-4-1-9-2-4-3 5 2 9 3c2 1 1-1 0-2l-3-2-6-2-11-4-3-3-6-4c-1-1-1 0-1 1l4 6c2 3 2 4 9 9zm-1-13c7 5 13 7 14 7v-1-2l-5-3-8-5c-2-1 0-1 0-1l6 4 7 4 1-1 2-1-1-1-6-3a62 62 0 0 1-10-7l-10-10h-1l1 4c1 3 3 10 10 16zm24-51l2 4a56 56 0 0 1 2 3v-2a12 12 0 0 1 0-4v-2l-1-2-1-8a62 62 0 0 1-1-10c0-3 0-2 0 0l1 8 2 10 1-2 2-4v-2l-3-17-1-19c-4 3-6 12-7 21l1 15a38 38 0 0 0 3 11zm-8 18c0-3 1-4 3-5l-3-6a49 49 0 0 1-2-9c-1-5-2-12 0-1 2 10 4 13 4 13l3 5a18 18 0 0 1-1-6l1-7-5-14a87 87 0 0 1-3-24s-3 3-5 15a74 74 0 0 0 4 29 203 203 0 0 0 4 10zm36 95l-2-2c-2-1-1-4-1-4l-2 1-4 3-3 1c-1 0-1 0 0 0l3-2 6-5h-2l-4-1-9 5-12 4s0 3 4 4c2 1 6 2 13 0a47 47 0 0 0 13-4zm9 7l-1-5-2 1-5 4h-1c3-1 7-6 7-6h-1c-1-1-3 0-11 5-8 4-12 4-12 4s3 4 12 4c10 0 13-5 14-7zm17-4l-2 3-5 1-1 1a15 15 0 0 1-4 5l-4 1 3-2 4-4c1-1-1-1-1-1h-3l-2 1-3 3-5 6v1l5 2c2 0 5 0 8-2a25 25 0 0 0 6-5c5-5 4-10 4-10zm3 11l-2 2 1-3 1-1a28 28 0 0 1-1-5l-4 8c-2 4-4 5-3 6h7a7 7 0 0 0 3-6 26 26 0 0 1-1-2l-1 1z"/>
    <ellipse cx="207" cy="169" fill="#d4af3a" rx="2" ry="2"/>
    <path fill="#d4af3a" d="M203 166l5-1a28 28 0 0 1 9 4 16 16 0 0 0 10 1l3-2c5-2 4-7 4-7a18 18 0 0 1-12 3l1 1 2 2-4-3a21 21 0 0 0-7-3h-10c-3 2-3 4-2 4l1 1zm49 37l-4-2a76 76 0 0 1-7-8l2-2 2-2-5-2-7-6 1-2 1-1-4-2a76 76 0 0 1-4-4h-9l-8-2v1c-1 2-3 2-5 1s-1-4-1-4l-5-2h-8c-3 1-4 5-4 7 0 3 2 2 2 1 0 0 1-2 4-2 3-1 6 1 10 4l6 5c2 2 0 3-3 4s-7-1-7-1c-1 0 1 3 4 4s6 0 9-1c2-1 2 0 3 1 3 3 3 6 4 9a4 4 0 0 0 3-3s0-2 1-1l2 9-1 6 1-1 2-1c2 0 2 0 2 2l2 8c1 4 4 6 4 6l1-3 1-8-1-9s4 4 8 5c3 1 7 1 9-1 1-2 0-3-1-3z"/>
    <path fill="#d4af3a" d="M227 215l-2 3-1 1 3 2h3l-2-4-1-2zm23-2l-1-2a16 16 0 0 1-9-2l4 5 2 1-4-2-4-5v10l-1 4s5 1 10 0l6-2v-2a30 30 0 0 1-3-5z"/>
    <path fill="#b96b29" d="M240 199l-2-2v1l5 4a12 12 0 0 0 3 2v-1l-6-4zm-7 13v-9h-2l2 11 1 1-1-3zm-10-33h-1l4 5v3l-3-1-3-2c-1 0-2 0-1 1a26 26 0 0 0 4 4l4 2 2 2-2-9a28 28 0 0 0-4-5zm-34 106l-3 1h-1 2l3-1 1-2c-1-1-1 1-2 2zm11 6l-3 2h-1l-1 1h1l4-3v-1 1zm-45-80l1 1v-1l-1-1-2-2v1l2 2zm-3 7l1 2 1 1-1-2a8 8 0 0 0-2-1 11 11 0 0 0-1-1l2 2zm1 13h2l-1-1a24 24 0 0 1-4-2l-1-1 2 2 2 2zm2 9l-2-1h-1l1 1a3 3 0 0 1 2 0c0 1 0 1 0 0zm1 11l-2-1c-1 1 0 1 1 1l3 1 1-1h-3zm12 11h-1l-3 1a135 135 0 0 0-3 0h-1 7l1-1zm5 8l-2 1h-3 6l1-1h-2zm10 6l-3 2-1 1-1 1 1-1 3-1c1-1 2-1 1-2h-1zm-16-79l2 2c1 2 0 0 0 0l-4-5c-1-1-1-1 0 0l2 3zm-4 10l-1-1a537 537 0 0 1-3-4l-1-1 2 3 2 2 1 1zm5 20l-3-1h-4 1l4 1h2zm-5-11l3 2h2l-2-1-1-1h-2s-1-1 0 0zm11-7l-2-1h-1l2 1 2 2-1-2zm-7 28h-2l1 1 3-1 1-1h-1l-2 1zm2 10l1-1 3-1 1-1-2 1-2 1-1 1zm13 6v-2l-1 1-2 1-1 1-1 1 2-1 3-1zm6 8l2-1v-2l-2 1-3 3h-1c-1 0 0 0 0 0h2l2-1zm9 7l2-2 1-1-2 1-2 2-1 1c-1 0 0 0 0 0l2-1z"/>
    <path fill="#d4af3a" d="M232 151l-2 2 3 1 4-2z"/>
    <ellipse cx="244" cy="152" fill="#b96b29" rx="3" ry="3"/>
    <ellipse cx="244" cy="151" fill="#d4af3a" rx="2" ry="2"/>
    <path fill="#d4af3a" d="M237 140h2v-2l-2-2h-1v2l1 2z"/>
    <ellipse cx="239" cy="142" fill="#d4af3a" rx="1" ry="1"/>
    <path fill="#d4af3a" d="M234 141v1l1 1h2a1 1 0 0 0 1-1l-2-1h-2zM237 145l-5-2c0 2-2 3-3 3l3 2 3-1a10 10 0 0 0 3-1c2 0 1-3 1-3s0 2-2 2zm-9-2l-2-1-2 1 3 2 2-1-1-1zm-6-4h-2v2l2 1c1 1 2 0 2-1a5 5 0 0 0-2-2z"/>
    <ellipse cx="223" cy="144" fill="#d4af3a" rx="1" ry="1"/>
    <path fill="#d4af3a" d="M225 136c-1-3-1-6 2-10 2-4 7-6 7-6l2-1 4-4-5 1v1a2 2 0 0 1-3 2 2 2 0 0 1-1 0 24 24 0 0 0-6 3l1 1a2 2 0 0 1-3 2h-1a11 11 0 0 0 0 1 25 25 0 0 0-2 4 3 3 0 0 1 1 2l-2 2a4 4 0 0 0 0 2l2 2 3 2 1-4z"/>
    <path fill="#d4af3a" d="M233 118v-2h-1l-1 2h2zm-9 6v-2h-2v2h2z"/>
    <ellipse cx="219" cy="131" fill="#d4af3a" rx="1" ry="1"/>
    <path fill="#d4af3a" d="M249 112l-4 2 2 2-2 2a2 2 0 0 1-3-2l1-1-2 1c-5 3-6 5-8 9s-3 8-2 11 4 3 4 3v-5l2 1 1 2 2 1v-2l-1-5 3-8a24 24 0 0 1 7-6 2 2 0 0 0 2-2v-2l-2-1z"/>
    <path fill="#d4af3a" d="M245 117l1-2-1-1-2 1 1 2zm6 26h3v-2a2 2 0 0 0-2 0l-2 1 1 1z"/>
    <path fill="#d4af3a" d="M255 144l-2 1-4-1a8 8 0 0 1-1-2h-1l-1 3h-4l-2-2 1 2 3 1h9l2-1v-2l-1 1z"/>
    <path fill="#d4af3a" d="M242 143l2-1 1-1h-2l-2-1h-1l2 3z"/>
    <ellipse cx="235" cy="130" fill="#b96b29" rx="3" ry="3"/>
    <path fill="#b96b29" d="M240 120l-3 1v3h4c1-1 0-3-1-4z"/>
    <ellipse cx="235" cy="130" fill="#d4af3a" rx="2" ry="2"/>
    <path fill="#d4af3a" d="M239 121h-2l1 2c2 0 3-2 1-3zm-43 219l-6 3h-2l-5 4a19 19 0 0 1-8 3h-17c-4 0-6 1-8 3s-2 5 0 7 5 1 6 0v-4c-1-1 0-1 2-1a26 26 0 0 1 11 2v1a22 22 0 0 1-4-1 15 15 0 0 0-4-1l-1 1 1 1v3l1-1v-2h2a7 7 0 0 1 2 4v3l1 1-1 3 2-1a25 25 0 0 0 1-4l1-1a8 8 0 0 1 2 3v1l3-3a18 18 0 0 1 4-4l6-6 7-4 1-2 2-6 1-2zm-70-78l-1-3h-1l-3 1h-1v-4l-1-1-3 1v2l2 3-1 1-2 1-1 1 1 3h1l2-2 1 1 2 5h3v-2l-2-4v-2h3l1-1zm23 103v-3a9 9 0 0 1-2-3v-2h-2c-1 0-2 1-2 3s1 5 4 5h2zm3-1h-1c-1 1 0 1 1 2l2 2v-1-1-1l-2-1z"/>
    <path fill="#d4af3a" d="M156 373l2-1 5-1 2-4-3-2h-2a4 4 0 0 1-2 2l-2 1-1 1h-2l-2-1h-4l-1 1 1 3 4 1a24 24 0 0 0 3 1l2-1zm13 2v-3l-3-1h-1l-3 1-3 2c-2 0-2 2-3 2h-2-1v2l4 1 2-1 2-1 4-1 4-1zm0-5h1l1-3-1-2-1 4v1zm-5-8l-1-3-1 3a8 8 0 0 1-1 1l2 1 1-2zm-8 3l3-1 1-3-2-1h-1l-1 2-1 2c0 1 0 2 1 1zm3-6v-2l-1-1v1l-1 1 1 1h1zm-18-39l1-6c-1-6-4-12-7-16a79 79 0 0 1-6-14 40 40 0 0 1-2-11l1-4v-1l-2 1a8 8 0 0 0-1 2l-1 2-3-1-3 1 1 2 4 2c1 1 3 5 3 8a109 109 0 0 1 3 13 52 52 0 0 0 4 15c1 1 5 9 8 7zm4 11l-1 11 5 8h2l2-1 1-5-4-9c-2-4-4-4-5-4zm2-4c0-2-2-4-4-4l-2 1c-2 2-1 6 2 6l3-1 1-2zm28 56a13 13 0 0 1-6-5h-5l1 3v6l1 2 1-2 2-3h6v-1z"/>
    <path fill="#d4af3a" d="M170 386h-1l-1 2v1h1l1 1 1-1v-2l-1-1z"/>
    <path fill="#1d5e91" d="M379 346l-2-1-1 1-2 2s-3 0-3 2c-1 2 1 2 2 2l5-2 2-3-1-1zm3-13c-1-4-3-9-7-11l-3 8 1 2 7 2c1 0 3 1 2-2zm-22-4c2 0 1 0 2-2l2-8s-5 0-9 2-6 5-6 5l4 1 8 2zm-11 10h-2l3 6c2 2 4 4 7 4 4 0 7-2 7-4a12 12 0 0 1 1-3l-9-1-7-2z"/>
    <path fill="#d4af3a" d="M348 337l17 3h2l2-1 1-2v-2h2c2 1 2 3 2 5 1 2 4 3 5 3l2-1a16 16 0 0 0 2-5c0-2 0-2-2-2l-10-2-1-2 3-10a21 21 0 0 0-8-3l-2 11-3 1a636 636 0 0 1-12-3l-1 2a17 17 0 0 0-1 6l2 2z"/>
    <path fill="#d4af3a" d="M384 345h-3l-2 6-7 4c-3 0-4-1-4-4 1-3 5-4 6-5a3 3 0 0 0-1-5l-4-1a8 8 0 0 0-3 4l-3 6a13 13 0 0 1-9 2c-4-1-5-2-6-6l-4-9h-3l-2 3c0 2 0 3 2 5 1 2 3 3 3 5 1 2 3 5 0 5-2 0-3 0-5-2l-10-8-3-2-10-3 3 6v3l10 5a177 177 0 0 1 11 6c2 2 5 4 9 3l18-4c3-1 12-3 15-6l4-4c0-2 0-3-2-4zm-18-33h2c2-1 1 1 1 2l-1 2v2h3c1 1 1 0 1-1v-4h1l2 1 1-1 1-2h-4v-1l1-3v-1l-3-1h-1v3l-1 1c-1 1-1 0-2-1h-1l-1 3 1 1zm5 23v4l2 1v-2a7 7 0 0 0-1-2l-1-1zm11 7l1 1h1v-3h-1l-1 2zm-39-7h2v-3-2l-1 1-1 2v2z"/>
    <circle cx="351" cy="332" r="3" fill="#b96b29"/>
    <circle cx="358" cy="334" r="3" fill="#b96b29"/>
    <circle cx="378" cy="338" r="3" fill="#b96b29"/>
    <circle cx="365" cy="335" r="3" fill="#b96b29"/>
    <circle cx="367" cy="329" r="3" fill="#b96b29"/>
    <circle cx="369" cy="323" r="3" fill="#b96b29"/>
    <circle cx="351" cy="332" r="1" fill="#d4af3a"/>
    <circle cx="358" cy="333" r="1" fill="#d4af3a"/>
    <circle cx="379" cy="338" r="1" fill="#d4af3a"/>
    <circle cx="365" cy="335" r="1" fill="#d4af3a"/>
    <circle cx="367" cy="329" r="1" fill="#d4af3a"/>
    <circle cx="369" cy="323" r="1" fill="#d4af3a"/>
    <path fill="#d4af3a" d="M288 383l-6-4-4-4h1l1-2v-8l3 3h3l1-2 2 4 6 6 7 5c2 0 1 1 1 1s-2 2-7 3-7-1-9-2zM270 381c2 0 3-1 3-3v-6l1 2 3 1 1 1a10 10 0 0 0 3 4 54 54 0 0 1 5 3 30 30 0 0 0 4 3 8 8 0 0 1 4 6c1 2 0 3-2 3l-5-1-11-7c-4-2-6-6-6-6z"/>
    <path fill="#d4af3a" d="M261 384l2-4 1-5 2 3 3 3 2 3a23 23 0 0 0 6 5l6 5c1 2 2 5 1 6s-1 0-3-1l-12-4c-6-4-8-11-8-11z"/>
    <path fill="#d4af3a" d="M259 398c-2-3-2-9-2-9l1-1 3-3 2 4 3 4 7 7v8h-4l-3-4-7-6z"/>
    <path fill="#b96b29" d="M278 347l-2-5a16 16 0 0 1-2-2l3 3a15 15 0 0 1 2 4c0 2 0 2-1 0zm-8 2a54 54 0 0 1-1-2v-2l2 3 1 5-2-4zm-7 5v-1l-1-3 1 1v2l1 3-1-2zm21 20h1l1 1 2 2a9 9 0 0 0 3 3l2 1h-1l-2-1-4-3-2-3zm-7 9l-1-1h1l3 2 2 2 3 2v1l-1-1-2-1-2-1a26 26 0 0 1-3-3zm-9 6l1-1 4 4 3 2 1 1h-1l-1-1-1-1-3-1-3-3zm-4 8c2 0 4 2 5 4l1 2h-1l-1-2-4-3a9 9 0 0 1-3-3v-2l3 4z"/>
    <path fill="#c52126" d="M304 181a24 24 0 0 1 19-1h6a8 8 0 0 0 6-6s2 3 0 6a8 8 0 0 1-5 4c-5 1-11-3-15-3-5 0-8 3-8 3h-2c-2-1-2-2-1-3z"/>
    <path fill="#d4af3a" d="M320 339l1-1h4l5 3h-7c-2 0-3-2-3-2z"/>
    <path fill="#d4af3a" d="M301 338v-1l1-2 2 2 3 4c1 1 3 2 2 0l-3-4-2-3h4l6-2 3-2 6 2c2 0 3 1 1 1l-3 2a11 11 0 0 1-5 1c-2 0-5 0-3 1l3 7a22 22 0 0 1 1 7v3l-7-5-8-5c-1 0-2 0-1-2v-4z"/>
    <path fill="#d4af3a" d="M282 322h1l5 4c1 2 3 2 1 0a19 19 0 0 0-3-4 25 25 0 0 0-1-1l7-5 2 3 4 2-3-3-1-3a34 34 0 0 0 6-5 19 19 0 0 0 4 8c4 5 12 7 12 7s3 0 0 1l-8 1-5-2c-1 0-2 0 0 1l9 2c2-1 5-1 2 1l-6 2h-9l1 5a28 28 0 0 1 0 7l-2 3c0 1 0 2-1 0l-2-7-1-3v1l1 5v2l-8-9-2-3-4-3a30 30 0 0 0-4-5l5-2zm74-138c0 4-4 10-6 13l-2 5 2-3 6-7 5-10h1c1 1 3 8 0 12l-6 10-3 5 2-3a153 153 0 0 0 7-6l4-7c1 1 2 2 2 6-1 5-4 8-6 11l-5 5 5-4 7-7c1-1 2 0 2 4 0 5-5 9-7 12l-5 4c1 1 3 0 4-1l8-5v5c-1 5-5 7-8 9l-5 4 4-1 6-3 2 1s0 4-2 7a14 14 0 0 1-9 4l-3 1 1 1h6c3 0 3 1 3 2s0 2-3 5l-10 3c-1 0-2 0-1 1l4 1 4 2c1 0 0 3-2 4-2 2-5 2-9 2h-6l4 1 5 2c1 1 0 3-2 4-2 2-7 2-10 2l-5-1 4 3c2 0 2 1 3 2 0 1 0 2-3 3h-8c-2-1-3-2-4-1l1 1 4 2c2 1 3 1 3 3 1 1-1 3-5 3a25 25 0 0 1-11-2c-2-1-2-2-3-1l1 1 5 3 1 2c0 1 1 3-3 4-3 1-8 0-11-3a9 9 0 0 1-3-2v-8l4-1 3-4 2-1 3 1a8 8 0 0 0 6-3c2-3 1-5 1-6h3l6-2c2-2 2-4 2-5l2-1 3-2c2-1 3-4 3-5l4-2c3-1 3-5 3-7l-2-3 2-1c1-1 4-2 4-6s-3-4-3-4l2-1c1-1 4-3 4-5l-2-4-3-1s2-1 2-3v-6l-5-1h-3v-2-4s0-2-3-3-7 1-8 2 0-1 0-2l4-7a79 79 0 0 0 11-25c0-2 1-1 1-1l2 4a27 27 0 0 1 2 11z"/>
    <path fill="#d4af3a" d="M302 258a8 8 0 0 0 6-4c2-3 5-4 10-4 5 1 7-2 8-5s0-7-5-9c-5-3-7-6-7-10-1-4 5-9 10-15l9-14 1 4v5l4-2c3-2 5-2 7 0s0 6-2 8l-2 3 4-1c0-1 2-3 5-3 3 1 4 1 4 4 1 2-2 4-4 5l-2 2h6c2 1 4 3 2 5-2 3-7 4-8 4h-1l4 1c3 0 3 3 3 5l-7 4-3 1 1 1c1 1 4 0 5 2 0 2 0 3-2 5s-5 2-6 1h-3c-1 1 1 2 3 3 1 1 1 3-1 5a8 8 0 0 1-7 0c-1 0-2-2-3-1s2 2 3 3c2 2 1 4-1 6h-8l-2-1c-1 1 0 2 1 4 0 1 1 5-3 6-3 2-7-2-8-2l-1-1v2a4 4 0 0 1-1 5 7 7 0 0 1-5 1l-3-8h1v1l1 1 2 1-2-2-1-1-1-1a3 3 0 0 1 0-1 104 104 0 0 1-1-8 61 61 0 0 1-1-5h1zm79-58c-4 8-10 13-10 13l1-3v-3l4-6c3-5 4-11 4-11l-4 9-4 7-1-3h-2l-1 1 2-3 2-2 6-12 6-19c1-4 1-2 2 1a31 31 0 0 1 1 11 57 57 0 0 1-6 20zm-5 22l-4 3v-2l1-3 3-3 6-6c3-4 0-1-2 1a97 97 0 0 1-7 7v-1a3 3 0 0 0-1-2l2-2a73 73 0 0 0 19-27s1 10-4 20c-6 11-12 14-13 15zm-31 60c-3-1-2-4-2-4l4 1 8 2h1l-3-1-8-3v-1l3-1 4 1a53 53 0 0 0 23 1c1 0 2 0-1 4-2 4-10 6-15 6s-11-3-14-4zm14-7c-5 0-7-2-7-2l1-1v-3h11l-8-1c-2-1-1-1 0-2l4-2 13 1 11-3h1s1 1-1 4a18 18 0 0 1-10 7 54 54 0 0 1-14 2zm2-13l1-2-1-2 5-1 7-1 4-2-2 1-11 2h-4l-2-1h2a9 9 0 0 0 4-2l4-1 12-3 12-6c1-1 1 0 1 1s0 3-3 6c-3 4-5 5-13 8s-16 3-16 3zm23-19a43 43 0 0 1-17 7v-3l-2-2h-1l4-1 9-2 5-3-6 2-9 3c-3 0-1-1 0-2l3-2 6-2 11-5 3-2 6-4c1-1 1 0 1 1l-4 6c-2 3-2 4-9 9zm1-14c-7 6-13 7-14 8v-1-2l5-3 8-5c2-2 1-1 0-1l-6 4-7 4-1-1-2-1 2-1 5-3a62 62 0 0 0 10-7l10-10h1l-1 4c-1 3-3 10-10 15zm-24-50l-2 4-2 3v-2-6l1-2 1-8 1-10c0-3 0-2 0 0l-1 8-2 10-1-2-2-4v-2l3-17 1-19c4 3 6 12 7 21l-1 15-3 11zm8 18c0-2-1-4-3-5l3-6a35 35 0 0 0 2-8c1-6 2-13 0-2a44 44 0 0 1-4 13l-3 5 1-6a34 34 0 0 0-1-7l5-13a88 88 0 0 0 3-25s3 3 4 15a74 74 0 0 1-3 29l-4 10zm-36 95l2-2c2-1 1-4 1-4a81 81 0 0 0 6 4l3 1c1 0 1 0 0 0l-3-2-6-5h2l4-1 9 5 12 4s0 3-4 4c-2 1-6 2-13 0a47 47 0 0 1-13-4zm-9 7l1-5 2 1c1 1 2 3 5 4h1c-3-1-7-6-7-6h1c1-1 3 0 11 5a29 29 0 0 0 12 4s-3 5-13 4c-9 0-12-4-13-7zm-17-4l2 3 5 1 1 1 4 5 4 1-3-2-4-4v-1h4l2 1 3 3 4 6 1 1-5 2c-2 0-5 0-8-2a25 25 0 0 1-6-5c-5-5-4-10-4-10zm-3 12l2 1-1-3a20 20 0 0 0-1-1 28 28 0 0 0 1-5l4 8c2 4 4 5 3 6h-6c-3-2-4-4-4-6a26 26 0 0 0 1-2l1 2z"/>
    <ellipse cx="-305" cy="169" fill="#d4af3a" rx="2" ry="2" transform="scale(-1 1)"/>
    <path fill="#d4af3a" d="M309 166l-5-1a28 28 0 0 0-9 4 16 16 0 0 1-10 1l-3-2c-5-2-4-7-4-7a18 18 0 0 0 12 3l-1 1-2 2 4-3a21 21 0 0 1 7-3h10l2 4-1 1zm-49 37l4-2a78 78 0 0 0 6-8v-2c-2 0-3-2-3-2l5-2 7-6-1-2-1-1 4-2a76 76 0 0 0 4-4h9l7-2 1 1c1 2 3 2 4 1 2-1 2-4 2-4l5-2h8c2 1 4 5 4 7 0 3-2 2-2 1 0 0-1-2-4-2-3-1-6 1-10 4l-6 5c-2 2-1 3 3 4 3 1 7-1 7-1l-4 4c-3 1-6 0-9-1-2-1-2 0-3 1-3 3-4 6-4 9a4 4 0 0 1-3-3s0-2-1-1l-2 9 1 6-1-1-2-1c-2 0-2 0-2 2l-2 8-4 6-1-3-1-8 1-9s-4 4-8 5-7 1-9-1 0-3 1-3z"/>
    <path fill="#d4af3a" d="M285 215l2 3 1 1-3 2h-4l3-4 1-2zm-23-2l1-2a16 16 0 0 0 9-2l-4 5-2 1 4-2 4-5v10l1 4s-5 1-10 0l-6-2v-2a30 30 0 0 0 3-5z"/>
    <path fill="#b96b29" d="M272 199l2-2v1l-5 4a13 13 0 0 1-3 2v-1l6-4zm7 13v-9h2l-2 11-1 1 1-3zm10-33h1l-4 5v3l3-1 3-2c1 0 2 0 1 1a26 26 0 0 1-4 4l-4 2a39 39 0 0 1-2 2l2-9a28 28 0 0 1 4-5zm34 106l3 1h-1l-3-1-1-2 2 2zm-11 6a28 28 0 0 0 3 1l1 1 1 1h-1l-4-3v-1zm45-80l-1 1v-1l1-1 1-2 1 1-2 2zm3 7l-1 2-1 1 1-2a8 8 0 0 1 2-1 11 11 0 0 1 1-1l-2 2zm-1 12l-2 1 1-1a24 24 0 0 0 4-2l1-1-2 2-2 1zm-2 10v-1h3l-1 1h-2c0 1 0 0 0 0zm-1 10h3l-2 1-3 1-1-1h3zm-12 12h1l3 1 3-1 1 1h-7l-1-1zm-5 8a8 8 0 0 0 2 1h2-5l-1-1h2zm-9 6a28 28 0 0 0 3 3l1 1-1-1a17 17 0 0 1-3-1l-1-2h1zm15-79l-2 2c-1 2 0 0 0 0l4-5c1-1 1-1 0 0l-2 3zm4 10l1-2 3-3v-1l-1 3-2 2-1 1zm-5 20l3-1h3l-4 1h-2zm5-11l-3 2h-1l1-1 1-1h2s1-1 0 0zm-11-7l2-1h1l-2 1-2 2 1-2zm7 28h2l-1 1-3-1-1-1h1l2 1zm-2 10l-1-1-3-1-1-1 2 1 2 1 1 1zm-13 6v-2l1 1 2 1 1 1 1 1-2-1-3-1zm-6 8l-2-1v-2l2 1 3 2 1 1c1 0 0 0 0 0h-2l-2-1zm-9 7l-2-2-1-1 2 1 2 2 1 1c1 0 0 0 0 0l-2-1z"/>
    <path fill="#d4af3a" d="M279 155l-4-3 5-1 2 2z"/>
    <ellipse cx="-268" cy="152" fill="#b96b29" rx="3" ry="3" transform="scale(-1 1)"/>
    <ellipse cx="-268" cy="151" fill="#d4af3a" rx="2" ry="2" transform="scale(-1 1)"/>
    <path fill="#d4af3a" d="M275 140h-2v-2l2-2h1v2l-1 2z"/>
    <ellipse cx="-273" cy="142" fill="#d4af3a" rx="1" ry="1" transform="scale(-1 1)"/>
    <path fill="#d4af3a" d="M278 141v1l-1 1h-2a1 1 0 0 1-1-1l2-1h1zM275 145l5-2c0 2 2 3 3 3l-3 2-3-1a11 11 0 0 1-3-1c-2 0-1-3-1-3s0 2 2 2zm9-2l2-1 2 1-3 2-2-1 1-1zm6-4h2v2l-2 1c-1 1-2 0-2-1l2-2z"/>
    <ellipse cx="-289" cy="144" fill="#d4af3a" rx="1" ry="1" transform="scale(-1 1)"/>
    <path fill="#d4af3a" d="M287 136c1-3 1-6-2-10s-7-6-7-6l-2-1a33 33 0 0 0-4-4l5 1v1a2 2 0 0 0 3 2 2 2 0 0 0 1 0l6 3a3 3 0 0 0-1 1 2 2 0 0 0 3 2 2 2 0 0 0 1 0v1a25 25 0 0 1 2 4 3 3 0 0 0-1 2l2 2v2l-2 2-3 2-1-4z"/>
    <path fill="#d4af3a" d="M279 118v-2h1v2h-1zm9 6v-2h1l1 2h-2z"/>
    <ellipse cx="-293" cy="131" fill="#d4af3a" rx="1" ry="1" transform="scale(-1 1)"/>
    <path fill="#d4af3a" d="M263 112l4 2-2 2 2 2c2 0 3-1 3-2l-1-1 2 1c5 3 6 5 8 9s3 8 2 11-4 3-4 3v-3-2l-1 1-2 2-2 1v-2l1-5-3-8a24 24 0 0 0-7-6 2 2 0 0 1-2-2v-2l2-1z"/>
    <path fill="#d4af3a" d="M268 117l-2-2 1-1 2 1-2 2zm-7 26a3 3 0 0 1-3 0v-2a2 2 0 0 1 2 0l2 1-1 1z"/>
    <path fill="#d4af3a" d="M258 144l1 1 4-1a8 8 0 0 0 1-2h1l1 3h4l2-2-1 2-3 1h-9l-2-1v-2l1 1z"/>
    <path fill="#d4af3a" d="M270 143l-2-1-1-1h2l2-1-1 3z"/>
    <ellipse cx="-277" cy="130" fill="#b96b29" rx="3" ry="3" transform="scale(-1 1)"/>
    <path fill="#b96b29" d="M272 120a3 3 0 0 1 3 1v3a3 3 0 0 1-4 0c-1-1 0-3 1-4z"/>
    <ellipse cx="-277" cy="130" fill="#d4af3a" rx="2" ry="2" transform="scale(-1 1)"/>
    <path fill="#d4af3a" d="M273 121h2l-1 2c-2 0-3-2-1-3z"/>
</svg>
