<svg xmlns="http://www.w3.org/2000/svg" viewBox="0 0 512 512">
    <path fill="#c4272f" d="M0 0h512v512H0z"/>
    <path fill="#015197" d="M171 0h170v512H171z"/>
    <circle cx="86" cy="215" r="28" fill="#f9cf02"/>
    <circle cx="86" cy="203" r="31" fill="#c4272f"/>
    <path fill="#f9cf02" fill-rule="evenodd" d="M73 170a13 13 0 0 0 25 0c0-6-3-6-3-8s2-5-2-8c2 3-1 4-1 7l1 6a3 3 0 0 1-5 0c0-3 3-5 3-9s-1-5-3-8-5-6-2-8c-4 1-2 6-2 9s-3 5-3 9 2 4 2 7a3 3 0 0 1-5 0l1-6c0-3-3-4-1-7-4 3-2 6-2 8s-3 2-3 7z"/>
    <circle cx="86" cy="208" r="20" fill="#f9cf02"/>
    <path fill="#f9cf02" d="M30 248v123h25V248zm86 0v123h26V248zm-56 21v10h51v-10zm0 71v10h51v-10zm0-92h51l-25 16zm0 107h51l-25 16z"/>
    <circle cx="86" cy="309" r="27" fill="#f9cf02" stroke="#c4272f" stroke-width="3"/>
    <path fill="none" stroke="#c4272f" stroke-width="3" d="M86 282a14 14 0 0 1 0 27 14 14 0 1 0 0 27"/>
    <circle cx="86" cy="296" r="5" fill="#c4272f"/>
    <circle cx="86" cy="323" r="5" fill="#c4272f"/>
</svg>
