<svg xmlns="http://www.w3.org/2000/svg" xmlns:xlink="http://www.w3.org/1999/xlink" viewBox="0 0 512 512">
    <path fill="#00785e" d="M0 0h512v512H0z"/>
    <path fill="#fbd116" d="M273 147l-17-50-16 51 43-32h-54z"/>
    <g id="a">
        <path fill="#fff" d="M256 354H147a156 156 0 0 1-4-5h113a2 2 0 0 1 2 3l-2 2zm0-34c1-1 2-4 1-8a13 13 0 0 0-1-4 87 87 0 0 1-35 20 86 86 0 0 1-25 4h-67a154 154 0 0 0 6 9h65a86 86 0 0 0 56-21zm-117-26a34 34 0 0 1-10 2 86 86 0 0 0 65 29 86 86 0 0 0 62-26 470 470 0 0 0 5-63 470 470 0 0 0-5-72c-7 6-20 20-26 41a87 87 0 0 0-4 24 86 86 0 0 0 15 48 86 86 0 0 1-18-53 86 86 0 0 1 8-37 35 35 0 0 1-8-13 86 86 0 0 0-11 42 86 86 0 0 0 17 52 101 101 0 0 0-79-32 35 35 0 0 1 7 10 101 101 0 0 1 74 31 101 101 0 0 0-65-24c-14 0-27 3-39 8a87 87 0 0 0 88 56 87 87 0 0 1-16 1 86 86 0 0 1-60-24zm117 95h-57a153 153 0 0 0 57 10 12 12 0 0 0 1-5 12 12 0 0 0-1-5zm0-27H156a154 154 0 0 0 8 7h92a5 5 0 0 0 1-3l-1-4zm0 14h-82a153 153 0 0 0 16 8h66a8 8 0 0 0 1-4 8 8 0 0 0-1-4z"/>
        <path fill="#fbd116" d="M156 212l-7-37-16 34 32-18-36-5zm49-59l-30-22 11 35 12-35-30 21z"/>
    </g>
    <use width="100%" height="100%" transform="matrix(-1 0 0 1 512 0)" xlink:href="#a"/>
</svg>
