<svg xmlns="http://www.w3.org/2000/svg" viewBox="0 0 512 512">
    <defs>
        <clipPath id="a">
            <path d="M248 0h496v496H248z"/>
        </clipPath>
    </defs>
    <g clip-path="url(#a)" transform="translate(-256) scale(1.0321)">
        <path fill="#0071bc" fill-rule="evenodd" d="M0 0h992v496H0z"/>
        <path fill="#fff" fill-rule="evenodd" stroke="#000" stroke-width="2" d="M553 392s18-18 35-15c5-19 24-21 24-21s-2-21 22-26c1-14 16-27 16-27s-3-22 12-28c-9-17 3-30 3-31 0 0-16-28-2-36-15-13-10-27-10-27s-16-5-10-24c-14-2-16-24-16-24s-21 4-23-14c-14 2-16-11-16-11s-27 7-32-13c-11 5-15-5-15-5s-15 8-24-6c-18 11-28-1-28-1s-23 16-31 4c-14 14-26 8-26 8s-10 18-27 13c-4 17-23 18-23 18s2 15-22 19c-3 18-15 21-15 21s1 17-10 23c4 9-6 21-6 21s11 14-4 29c15 4 4 28 4 28s20 9 7 25c14 5 10 16 10 22 9 4 17 2 13 20 28 3 15 18 15 18s12 1 7 11c24 0 27 18 27 18s22-6 25 2c3 9-10 65-10 65s-18 0-32-14c-32-1-25-22-25-22s-11 4-16-14c-21 5-21-13-21-14 0 0-9-4-6-13-22 2-20-19-20-19-5-2-7-7-6-11-3-1-22-2-12-27-19-12-7-25-7-25s-26-13-6-28c-15-22 1-33 1-33s-20-21 0-36c-3-31 16-39 16-39s-10-26 17-36c2-26 20-27 20-27s1-21 30-19c6-18 26-15 26-15s7-22 34-11c14-27 35-13 35-13s13-9 19-6c9-15 26-1 38 2 4-2 19-13 30 1 15-10 28 8 28 8s21-11 31 14c44-4 38 25 38 25s35-8 27 26c32 3 29 23 29 23s20 16 11 29c18 1 11 18 11 18s14 5 2 27c26 20 5 41 5 41s14 17 1 36c4 31-11 39-11 39s4 20-14 26c0 23-22 26-22 26s6 10-16 21c-1 16-24 17-24 17s-3 29-32 21c-7 24-41 17-42 16l-6-50z"/>
        <path fill="#217900" fill-rule="evenodd" stroke="#000" stroke-linejoin="round" stroke-width="2" d="M341 115s7 6 6 16c-2 9-7 23-6 33v11s-6-10-6-20 7-19 7-27l-1-13zm-4 3s-9 9-11 18l-1 35-2 19c0 4 7-7 8-16a281 281 0 0 1 1-33c0-4 0-8 2-12l3-11z"/>
        <g fill="#ffd200" fill-rule="evenodd" stroke="#ef8a10">
            <path stroke-width="2" d="M549 88s12-6 16-17-11-11-13-7c-2 3 2 12 1 14s-6 8-4 10z"/>
            <path stroke-width="3" d="M438 92s8-12 6-23-14-4-14 0 7 10 7 12-1 10 1 11zm-22 6s9-11 6-22c-2-11-14-4-14 0s7 9 7 12c1 2-1 9 1 10zm-24 8s8-11 6-23c-2-11-15-4-15 0s8 10 8 12c0 3-2 10 1 11zm-17 17s8-11 6-22c-2-12-15-5-15-1s8 10 8 12c0 3-2 10 1 11zm-18 16s8-11 6-22-15-4-15 0 8 9 8 12c0 2-2 9 1 10z"/>
            <path stroke-width="2" d="M398 43s-10 9-11 20 13 8 14 4-5-11-4-13c0-3 4-9 1-11zm36-11s-10 9-11 20 13 8 14 4-5-11-4-14c0-2 4-8 1-10zm-134 97s2 14 12 20 13-7 10-10-12-2-13-3c-2-2-6-8-9-7zm-18 46s0 14 9 22c8 7 14-6 12-9s-12-3-14-5c-1-2-4-9-7-8zm42 52s-5-13-16-17c-10-5-11 10-8 12s12-1 14 0c3 1 8 6 10 5zm-9-23s8-11 7-22c-2-11-15-4-15 0s7 10 7 12-2 10 1 10zM575 99s12-6 16-17-11-11-13-7c-2 3 1 12 0 14 0 2-5 8-3 10zm37 19s8-12 5-23-15-3-15 1 8 9 8 11c1 3-1 10 2 11zm103 107s-5-13-15-18c-11-4-12 10-8 13 3 2 12-1 14 0s7 6 9 4zm-50 8s0-14 9-22c8-7 14 6 11 9-2 3-11 3-13 5s-4 8-7 7zm-8-146s-13-5-23 0 0 15 3 14c4-1 8-9 10-10s10-1 10-4zm-30-25s-12-5-23 0c-10 5 0 16 4 15s7-10 10-11c2-1 9-1 9-4zm-43-23s-11 8-12 19c-1 12 13 9 14 5s-5-11-4-14c0-2 4-9 2-10zm-29-7s-5 13 0 23 15 0 14-3-9-8-10-10-1-10-4-10zm-81 49s9-10 7-21c-1-12-14-6-14-2s6 10 7 13c0 2-3 9 0 10z"/>
        </g>
        <path fill="#8c8a8c" fill-rule="evenodd" stroke="#000" stroke-width="2" d="M522 104s22 1 23 13-5 20-5 20 2 26-19 34c-22 3-57 1-57 1s-10 2-14-19c-5-21-6-36-6-36s2-12 17-13h61z"/>
        <path fill="none" stroke="#000" stroke-linecap="round" stroke-width="2" d="M539 137s-11 14-10 20"/>
        <path fill="#8c8a8c" fill-rule="evenodd" stroke="#000" stroke-width="2" d="M524 170c3 3 6 5 6 14l1 18 15 134 13 97 1 15s-3 11-12 12c-6 13-41 17-44 17s-14-5-21-4c-7 0-18 5-24 4-5-1-17-5-19-13-14-5-17-16-17-16l16-112 16-142s1-19 9-22c8 0 49 1 60-2z"/>
        <path fill="none" stroke="#000" stroke-width="2" d="M444 364l-3 99m99-86l9 82"/>
        <path fill="none" stroke="#000" d="M285 313v1m412-5v1"/>
        <path fill="none" stroke="#6b18b5" stroke-linejoin="round" stroke-width="2" d="M274 179s7 9 8 14 3 15 6 20c3 4 19 27 20 37 0 6-7 17-17 17-6 0-23-4-23-18-1-14 5-15 5-23l1-47z"/>
        <path fill="none" stroke="#6b18b5" stroke-linejoin="round" d="M386 56s-6 0-12 3c-4 3-10 6-15 13-12 9-31 14-36 22-4 5-4 18 5 23 5 3 22 8 29-3 8-12 4-15 7-23 7-17 22-35 22-35zm164-17s-5-5-11-7l-20-1c-15-2-31-13-40-12-7 1-16 11-14 21 2 6 9 18 23 16 13-3 13-6 22-8 19-11 40-9 40-9zm162 158c2-3-1-8-2-14-1-4-4-11-9-17-6-14-5-34-11-41-5-5-17-8-25 0-4 4-13 19-3 29 9 11 13 7 20 12 15 11 23 29 30 31zm-5 122c2-3 6-8 5-13l2-20c2-15 11-28 9-41-2-6-11-15-21-12-6 2-19 9-16 23s7 13 10 21c9 17 3 37 11 42z"/>
        <path fill="none" stroke="#000" stroke-width="2" d="M594 417s-2 5 8 9m13-21s12-3 19 0m16-29s-2 5 7 12m-1-25s7 5 18 5m-86 9s0 14-7 20m29-40s12 3 21-2m51-17s2 3 15 2m-63-10s14 5 23 0m5-54l5 14m6-58s0 8-7 12m49-45s-9 7-8 11m-40-17s5 8-3 14m-21-50s9 0 13 7m-29-31h7m27-30s2 2-1 5m-60-4s5 7 4 16m23-41l8-3m-38-25s-3 9 2 12m-13 29c0 9 8 7 2 16m-21-24a66 66 0 0 0-12 10m-18-15s5 5 3 11m-18-15s-3 7-6 9m-21-11s-4 9-7 10m-29-10s4 8-1 14m-7-55s1 6-3 11m-33 2s1 7-9 9m-11 52l10 2m-35 21a413 413 0 0 1 12-4m-32 19h11m-16 8s2 1 0 14m-39-50l5 8m-22 29s5 8 12 9m26 29l9-3m-12 30s0-5 6-8m-14 20c0 1 5 8 9 9m-13 5c1 0 7-5 14-5m-16 24s0 6 19 4m-17 18c0-1 5-13 16-17m-1 32s1-5 11-9m-1 30l9-6m-1 22s4 4 14-3m-62 6c1 0 16-4 21 4m-15 8s15-2 17 0m38 3s-2 4 17-3m6 11c-3 6 1 10-3 13m-54-5c0-1 7-3 6-12m-1 26c1-1 12-5 14-3m7 16s1-9 4-10m12 24s9 0 12-3m5-29c0 1 8 5 25 1m-19 38l2 15"/>
        <g fill="#de2010" fill-rule="evenodd" stroke="#000">
            <path d="M233 119l-2-5h-4l-2 5c0 2 0 4 2 5h4l2-5z" transform="matrix(1.84875 -.23108 .23809 1.90478 237 58)"/>
            <path d="M233 119l-2-5h-4l-2 5c0 2 0 4 2 5h4l2-5z" transform="matrix(1.84875 -.23108 .23809 1.90478 236 38)"/>
            <path d="M233 119l-2-5h-4l-2 5c0 2 0 4 2 5h4l2-5z" transform="matrix(1.8213 -.39265 .40456 1.87649 218 57)"/>
            <path d="M233 119l-2-5h-4l-2 5c0 2 0 4 2 5h4l2-5z" transform="matrix(1.66103 -.84397 .86954 1.71136 193 160)"/>
            <path d="M233 119l-2-5h-4l-2 5c0 2 0 4 2 5h4l2-5z" transform="matrix(1.66103 -.84397 .86954 1.71136 185 141)"/>
            <path d="M233 119l-2-5h-4l-2 5c0 2 0 4 2 5h4l2-5z" transform="matrix(1.5836 -.9816 1.01134 1.63158 174 165)"/>
            <path d="M233 119l-2-5h-4l-2 5c0 2 0 4 2 5h4l2-5z" transform="matrix(1.48128 -1.1301 1.16435 1.52616 167 194)"/>
            <path d="M233 119l-2-5h-4l-2 5c0 2 0 4 2 5h4l2-5z" transform="matrix(1.30182 -1.3329 1.37328 1.34126 169 247)"/>
            <path d="M233 119l-2-5h-4l-2 5c0 2 0 4 2 5h4l2-5z" transform="matrix(1.17368 -1.44698 1.49084 1.20925 168 274)"/>
            <path d="M233 119l-2-5h-4l-2 5c0 2 0 4 2 5h4l2-5z" transform="matrix(.91718 -1.62175 1.6709 .94498 188 334)"/>
            <path d="M233 119l-2-5h-4l-2 5c0 2 0 4 2 5h4l2-5z" transform="matrix(.76579 -1.6985 1.74996 .78897 194 360)"/>
            <path d="M233 119l-2-5h-4l-2 5c0 2 0 4 2 5h4l2-5z" transform="matrix(.65019 -1.74601 1.79893 .66988 195 377)"/>
            <path d="M233 119l-2-5h-4l-2 5c0 2 0 4 2 5h4l2-5z" transform="matrix(.51503 -1.79055 1.84481 .53064 201 398)"/>
            <path d="M233 119l-2-5h-4l-2 5c0 2 0 4 2 5h4l2-5z" transform="matrix(.23314 -1.8485 1.90451 .2402 237 442)"/>
            <path d="M233 119l-2-5h-4l-2 5c0 2 0 4 2 5h4l2-5z" transform="matrix(.07476 -1.86165 1.91806 .07702 251 463)"/>
            <path d="M233 119l-2-5h-4l-2 5c0 2 0 4 2 5h4l2-5z" transform="matrix(.07476 -1.86165 1.91806 .07702 230 464)"/>
            <path d="M233 119l-2-5h-4l-2 5c0 2 0 4 2 5h4l2-5z" transform="matrix(-.41519 -1.81629 1.87134 -.42776 327 516)"/>
            <path d="M233 119l-2-5h-4l-2 5c0 2 0 4 2 5h4l2-5z" transform="matrix(-.56358 -1.77586 1.82969 -.58066 345 531)"/>
            <path d="M233 119l-2-5h-4l-2 5c0 2 0 4 2 5h4l2-5z" transform="matrix(-.77108 -1.69608 1.74749 -.79446 383 546)"/>
            <path d="M233 119l-2-5h-4l-2 5c0 2 0 4 2 5h4l2-5z" transform="matrix(-.91296 -1.62412 1.67333 -.94064 406 556)"/>
            <path d="M233 119l-2-5h-4l-2 5c0 2 0 4 2 5h4l2-5z" transform="matrix(-1.08406 -1.5153 1.56121 -1.1169 441 565)"/>
            <path d="M233 119l-2-5h-4l-2 5c0 2 0 4 2 5h4l2-5z" transform="matrix(-1.20839 -1.41812 1.4611 -1.245 464 570)"/>
            <path d="M233 119l-2-5h-4l-2 5c0 2 0 4 2 5h4l2-5z" transform="matrix(-1.30696 -1.32783 1.36808 -1.34656 483 577)"/>
            <path d="M233 119l-2-5h-4l-2 5c0 2 0 4 2 5h4l2-5z" transform="matrix(-1.41352 -1.21378 1.25056 -1.45636 509 581)"/>
            <path d="M233 119l-2-5h-4l-2 5c0 2 0 4 2 5h4l2-5z" transform="matrix(-1.5349 -1.05613 1.08813 -1.5814 545 577)"/>
            <path d="M233 119l-2-5h-4l-2 5c0 2 0 4 2 5h4l2-5z" transform="matrix(-1.69349 -.77677 .8003 -1.74482 606 552)"/>
            <path d="M233 119l-2-5h-4l-2 5c0 2 0 4 2 5h4l2-5z" transform="matrix(-1.75693 -.62003 .63882 -1.81018 632 544)"/>
            <path d="M233 119l-2-5h-4l-2 5c0 2 0 4 2 5h4l2-5z" transform="matrix(-1.85518 -.13795 .1773 -1.53226 704 439)"/>
            <path d="M233 119l-2-5h-4l-2 5c0 2 0 4 2 5h4l2-5z" transform="matrix(-1.81654 -.41408 .42661 -1.8716 667 525)"/>
        </g>
        <path fill="#ffe300" fill-rule="evenodd" d="M680 196c2-3 5-3 8-2-1-7-4-10-6-9-3 1-4 4-2 11zm4 21c2-2 5-3 8-2-1-7-3-9-6-9-3 1-4 4-2 11zm-9-40c2-4 4-5 7-5-3-6-6-8-8-6-3 1-3 5 1 11zm-10-19c2-4 4-5 7-5-2-6-5-8-8-6-2 1-2 5 1 11zm-22-35c1-4 3-5 6-6-4-6-7-7-9-5s-2 5 3 10zm-15-16c1-3 3-5 6-5-4-6-7-7-9-5s-2 5 3 10zm-31-26c1-3 2-6 4-7-5-4-9-4-10-2-1 3 0 6 6 9zm17 12c0-3 2-5 5-6-5-5-8-6-10-4s-1 6 5 10zm-35-22c0-4 1-6 3-7-6-4-9-4-10-1-1 2 1 6 7 8zm-18-8c-1-3-1-6 2-8-7-3-10-2-11 1 0 3 2 5 9 7zm-21-6c-1-4-1-6 2-8-7-2-10-2-11 1 0 3 3 6 9 7zm-19-4c-2-3-2-6 0-8-6-2-9-1-10 2 0 3 3 5 10 6zm-21-2c-2-3-2-5 0-8-7-1-10 1-10 3 0 3 3 6 10 5zm-41 3c-3-2-4-5-2-7-7 0-10 2-9 5s4 4 11 2zm20-2c-2-3-3-6-1-8-7-1-10 1-10 4 1 3 4 5 11 4zm-40 7c-3-3-4-5-3-8-7 2-9 4-8 7s5 4 11 1zm-38 17c-3-2-5-4-5-7-6 3-8 6-6 8 1 3 5 3 11-1zm18-9c-3-2-4-4-3-7-7 2-9 4-8 7 1 2 5 3 11 0zm-52 33c-4-1-5-3-6-6-6 4-7 8-5 9 2 2 6 2 11-3zm16-13c-3-1-5-3-5-6-6 3-8 6-6 9 2 2 6 1 11-3zm-31 27c-3-1-5-2-6-5-5 5-6 8-4 10 2 1 6 0 10-5zm-13 17c-3 0-5-2-6-5-5 6-5 9-3 10 2 2 6 1 9-5zm-10 17c-4 0-6-1-8-3-4 5-4 9-1 10s6-1 9-7zm-10 18c-3 1-6 0-8-2-3 6-2 9 0 10 3 1 6-1 8-8zm-7 19c-4 2-6 1-8-1-2 7-2 10 1 10 3 1 6-2 7-9zm-6 21c-3 2-5 2-8 0-1 6 0 9 3 10 2 0 5-3 5-10zm-2 18h-8c-1 6 1 8 4 8 2 0 5-3 4-8zm353-83c1-4 3-5 6-6-4-6-7-7-9-5s-1 5 3 11zm29 97c3-2 5-3 8-2-1-7-3-9-5-9-3 1-5 5-3 11z"/>
        <path fill="#217900" fill-rule="evenodd" stroke="#000" stroke-linejoin="round" stroke-width="2" d="M659 124c-1 0-8 8-7 17 1 10 7 22 6 32l-3 16s9-10 10-20c0-10-7-24-7-31v-14zm14 32s-6 5-6 15c1 10 12 30 12 30s8 16 7 20c0 4 2-4 1-13-1-10-13-30-13-30s-2-4-2-11l1-11z"/>
        <path fill="#6b18b5" fill-rule="evenodd" d="M488 27c0-2-2-4-5-4s-6 2-6 4 3 4 6 4 5-2 5-4zm2 9c0-2-2-4-5-4s-6 2-6 4 3 4 6 4 5-2 5-4zm7-11s-6 5-4 7c3 2 10-4 10-4l-6-3zm188 110a4 4 0 0 0-2-4 3 3 0 0 0-3 0 4 4 0 0 0-2 4 4 4 0 0 0 2 3 3 3 0 0 0 3 0 4 4 0 0 0 2-3zm-3-9c0-3-1-5-3-5s-4 2-4 5 2 4 4 4 3-2 3-4zm2 18l-1-2-2 2 2 2 1-2zm6-16c0-2-1-3-2-3l-1 3 1 2 2-2zm-16 1l-1-2-1 2 1 2 1-2zm3 13c0-1-1-3-3-3s-3 2-3 3c0 2 1 3 3 3s3-1 3-3zm-8-5c0-2-1-3-2-3-2 0-3 1-3 3s1 2 3 2l2-2zm-1-8l-1-2a2 2 0 0 0-2 0 2 2 0 0 0-1 2l1 2a2 2 0 0 0 2 0 2 2 0 0 0 1-2zm35 39c-3-4-8-6-12-4-3 2-3 7 1 11 3 5 8 6 11 4s3-7 0-11zm9 77c0-5-2-10-6-10-4-1-7 3-8 8 0 5 2 10 6 10 4 1 7-3 8-8zm2 44c1-5-1-9-5-10s-8 3-9 8 1 9 5 10 8-3 9-8zm8-41c0-2-1-4-3-4s-3 2-3 4 1 3 3 3 3-1 3-3zm-7 8l-7 7s-6 0-5 2c0 2 8 8 8 10s5 0 5 0l4-13s0-9-2-9c-3 0-3 3-3 3zm-411-3a3 3 0 1 0-6 0 3 3 0 0 0 6 0zm3-9l-3-3-3 3c0 1 1 3 3 3s3-1 3-3zm-25-43c-1-2-3-4-5-3s-2 3-1 6c1 2 4 4 5 3 2-1 2-3 1-6zm8 27c-2-3-5-5-7-4s-4 4-2 8 5 5 7 4 3-5 2-8zm8 20c0-4-2-8-4-9-3 0-5 3-6 7 0 4 1 7 4 8s5-2 6-6zm-13 2c2-3 1-7-1-8s-6 0-7 4-1 8 1 9 5-1 7-4z"/>
        <path fill="#6b18b5" fill-rule="evenodd" d="M279 242c0-2-1-3-3-3s-3 1-3 3 1 3 3 3 3-1 3-3zm-2-8a3 3 0 0 0-3-4c-2 0-3 2-3 4s1 3 3 3 3-2 3-4zm2-17c0-3-1-5-3-5-1 0-2 2-2 5s1 5 2 5 3-2 3-5zm9-1c1-3 0-6-2-6s-3 2-4 5c0 3 1 5 3 6 1 0 3-2 3-5zm64-127c1-4 0-8-3-9s-6 2-7 6 0 8 3 9 5-2 7-6zm-12 19c3-3 5-8 3-10s-6-1-10 2-4 7-3 9c2 2 6 2 10-1zm-7-11c3-2 5-6 3-8s-6-1-9 2c-4 2-5 6-4 8s6 1 10-2zm27-17c2-2 3-5 2-6s-4-1-6 1-4 4-3 6c1 1 4 0 7-1z"/>
        <path fill="#6b18b5" fill-rule="evenodd" d="M346 97v-6c-2-1-4 0-6 3s-2 5 0 6c1 1 4-1 5-3zm20-11c2-2 3-5 2-6s-4-1-7 1-3 5-2 7c1 1 4 0 7-2zm-37 25c2 0 4-1 4-3 0-1-2-2-5-2-2 0-4 2-4 3l5 2zm45-38v-6c-2-1-4 1-6 3s-2 5 0 6c1 1 4-1 5-3z"/>
        <path fill="#ffd200" fill-rule="evenodd" stroke="#ef8a10" d="M642 149s7-12 4-23-15-3-14 1c0 4 7 9 8 11 0 3-1 10 2 11z"/>
        <path fill="#217900" fill-rule="evenodd" stroke="#000" stroke-linejoin="round" stroke-width="2" d="M502 52s26 1 26 18l-1 14a18 18 0 0 0 8-16c0-18-23-29-33-16z"/>
        <path fill="#217900" fill-rule="evenodd" stroke="#000" stroke-linejoin="round" stroke-width="2" d="M485 51s21-4 21 13c1 17-6 20-6 20s16-4 16-21c0-18-21-25-31-12z"/>
        <path fill="#f7df73" fill-rule="evenodd" stroke="#000" stroke-linejoin="round" stroke-width="3" d="M557 420s100-28 130-150c-17 125-127 165-127 165l-3-15z"/>
        <path fill="#8c1800" fill-rule="evenodd" d="M568 428c3 0 10-8 15-9 4-1 5-6-1-6-5 0-9 6-9 6s-4 3-9 4c-4 0-1 6 4 5z"/>
        <path fill="#8c1800" fill-rule="evenodd" stroke="#8c1800" stroke-width="3" d="M625 385s-10 6-9 8c2 1 11-6 11-6s4-5-2-2z"/>
        <path fill="#8c1800" fill-rule="evenodd" d="M589 412s-3-1 5-4 7-7 10-8c2-1 8-5 9-3s-6 7-8 7l-11 9-5-1z"/>
        <path fill="none" stroke="#8c1800" stroke-linecap="round" stroke-width="3" d="M640 370l-6 7M651 357l-7 8M661 341l-8 12"/>
        <path fill="none" stroke="#8c1800" stroke-linecap="round" stroke-width="2" d="M669 325l-6 12m10-21l-2 4"/>
        <path fill="none" stroke="#8c1800" stroke-linecap="round" d="M678 304l-2 5"/>
        <path fill="#f7df73" fill-rule="evenodd" stroke="#000" stroke-linejoin="round" d="M160 216s52-15 68-78c-9 65-66 86-66 86l-2-8z" transform="matrix(-1.9021 0 0 1.9542 731 -4)"/>
        <path fill="#8c1800" fill-rule="evenodd" d="M416 426c-3 0-10-9-15-10-4-1-4-6 1-6s9 6 9 6 4 4 9 4c4 1 1 7-4 5z"/>
        <path fill="#8c1800" fill-rule="evenodd" stroke="#8c1800" d="M196 198s-6 3-5 4l6-4s2-2-1 0z" transform="matrix(-1.9021 0 0 1.9542 731 -4)"/>
        <path fill="#8c1800" fill-rule="evenodd" d="M395 410s3-1-5-5c-7-3-7-6-9-8-3-1-8-5-9-3s5 7 7 7l12 9h4z"/>
        <path fill="none" stroke="#8c1800" stroke-linecap="round" stroke-width="2" d="M204 190l-4 4M209 183l-3 4" transform="matrix(-1.9021 0 0 1.9542 731 -4)"/>
        <path fill="none" stroke="#8c1800" stroke-linecap="round" d="M214 175l-4 6M219 166l-4 6m6-10l-1 2M223 156l-1 2" transform="matrix(-1.9021 0 0 1.9542 731 -4)"/>
        <path fill="#217900" fill-rule="evenodd" stroke="#000" stroke-linejoin="round" stroke-width="2" d="M692 247c0 8 8 15 5 29-4 15-17 51-15 57-4-5-3-10-3-18-1-7 11-35 12-45l1-23z"/>
        <path fill="#217900" fill-rule="evenodd" stroke="#000" stroke-linejoin="round" stroke-width="2" d="M692 247s12 16 11 28c0 12-7 27-5 33-4-5-5-9-5-16 0-8 6-16 5-24l-6-21zm-401 4c-1 8-7 14-4 28 4 15 17 34 15 56a33 33 0 0 0 6-19c0-7-15-32-16-42l-1-23z"/>
        <path fill="#217900" fill-rule="evenodd" stroke="#000" stroke-linejoin="round" stroke-width="2" d="M291 251s-12 15-12 27c0 8 15 43 13 49 4-5 5-5 5-13-4-21-12-34-11-42 1-9 5-21 5-21z"/>
        <path fill="#fff" stroke="#000" stroke-dashoffset="1" stroke-linecap="square" stroke-linejoin="round" stroke-width="2" d="M100 126l22 68h72l-58 42 22 68-58-42-58 42 22-68-58-42h72z" transform="matrix(1.3389 0 0 1.3391 360 -55)"/>
    </g>
</svg>
