<svg xmlns="http://www.w3.org/2000/svg" viewBox="0 0 512 512">
    <g fill-rule="evenodd">
        <path fill="#ce0000" d="M256 0h256v512H256z"/>
        <path fill="#fff" d="M0 0h256v512H0z"/>
    </g>
    <g transform="matrix(.35005 0 0 .35003 41 -25)">
        <path fill="#f1eeee" fill-rule="evenodd" d="M183 382c0 2-3 4-6 4s-6-2-6-4c0-3 3-5 6-5s6 2 6 5z"/>
        <path fill="#c00" fill-rule="evenodd" d="M0 361v107h106a38 38 0 0 0 36 35v106h106V504a38 38 0 0 0 36-35h106V361H284a38 38 0 0 0-36-35V220H142v106a38 38 0 0 0-36 35H0z"/>
        <path fill="#ffe600" fill-rule="evenodd" d="M4 365v99h106a38 38 0 0 0 35 36v106h99V500a38 38 0 0 0 36-36h106v-99H280a38 38 0 0 0-35-35V223H145v106a38 38 0 0 0-35 36H4z"/>
        <path fill="#707070" fill-rule="evenodd" d="M7 369v92h106a38 38 0 0 0 36 35v106h92V496a38 38 0 0 0 35-35h107v-92H276a38 38 0 0 0-35-36V227h-92v106a38 38 0 0 0-36 35H7z"/>
        <path fill="#a0a0a0" fill-rule="evenodd" d="M11 372v85h106a38 38 0 0 0 35 36v106h85V493a38 38 0 0 0 36-36h106v-85H273a38 38 0 0 0-36-35V230h-85v107a38 38 0 0 0-35 35H11z"/>
        <g fill-rule="evenodd">
            <path fill="#d0d0d0" d="M153 328c6 6 1 21-11 34s-28 17-34 11-1-21 11-34 28-17 34-11z"/>
            <path fill="gray" d="M146 335c6 7 4 18-4 27s-20 10-26 3c-7-6-5-18 3-26s21-10 27-4z"/>
            <path fill="#d0d0d0" d="M114 354l3-2 10 5-5-10 2-3 10 20-20-10zm15-15l3-2 15 15-2 2z"/>
        </g>
        <g fill-rule="evenodd">
            <path fill="#d0d0d0" d="M282 373c-7 6-22 1-34-11s-18-28-11-34c6-6 21-1 33 11s18 28 12 34z"/>
            <path fill="gray" d="M274 365c-6 7-18 5-26-3s-10-20-4-27 18-4 26 4 10 20 4 26z"/>
            <path fill="#d0d0d0" d="M255 334l3 3-5 10 10-5 2 2-20 10 10-20zm15 15l3 3-15 15-3-3z"/>
        </g>
        <g fill-rule="evenodd">
            <path fill="#d0d0d0" d="M237 501c-7-6-2-21 11-33s27-18 34-12c6 6 1 22-12 34s-27 18-33 11z"/>
            <path fill="gray" d="M244 494c-6-6-4-18 4-26s20-10 26-4 5 18-4 26-20 10-26 4z"/>
            <path fill="#d0d0d0" d="M275 475l-2 3-10-5 5 10-3 2-10-20 20 10zm-15 15l-2 3-15-15 2-3z"/>
        </g>
        <g fill-rule="evenodd">
            <path fill="#d0d0d0" d="M108 456c6-6 22-1 34 11s18 28 11 34c-6 7-21 2-34-11s-17-28-11-34z"/>
            <path fill="gray" d="M116 464c6-7 18-5 26 3s10 21 4 27c-7 6-18 4-27-4s-10-20-3-26z"/>
            <path fill="#d0d0d0" d="M134 495l-2-2 5-10-10 5-3-3 20-10-10 20zm-15-15l-2-2 15-15 2 2z"/>
        </g>
        <path fill="none" stroke="#707070" d="M269 415c0 41-34 74-76 74s-76-33-76-74 34-75 76-75 76 34 76 75z" transform="matrix(.97674 0 0 1 6 0)"/>
        <path fill="none" stroke="#707070" d="M269 415c0 41-34 74-76 74s-76-33-76-74 34-75 76-75 76 34 76 75z" transform="matrix(.74419 0 0 .7619 51 99)"/>
        <path fill="#d0d0d0" fill-rule="evenodd" d="M170 475a4 4 0 1 1-7 0 4 4 0 0 1 7 0zm57 0a4 4 0 1 1-7 0 4 4 0 0 1 7 0zm-34 0v4h-5c-5 0-5 3 0 3h5v4c0 4 4 4 4 0v-4h5c5 0 5-4 0-4h-5v-3c0-4-4-4-4 0z"/>
        <path fill="#d0d0d0" fill-rule="evenodd" stroke="#707070" d="M181 163v7s-4 6-25 7h-25c1 6 5 18 4 32 0 16-4 31-4 31l-7 1c4-4 3-14 4-28 0-15-14-37-11-43s64-7 64-7z" transform="matrix(.33032 0 0 .29556 118 374)"/>
        <path fill="#d0d0d0" fill-rule="evenodd" stroke="#707070" d="M273 162l56-1s8 19 8 29-4 19-7 15 1-4 2-15-7-22-7-22-15 7-37 5-13-10-15-11z" transform="matrix(.33032 0 0 .29556 115 367)"/>
        <path fill="#d0d0d0" fill-rule="evenodd" stroke="#707070" d="M312 274c21-1 35 2 35 2s8 19 8 29-4 19-7 15 1-4 2-15-7-22-7-22-15 7-37 5c-22-1-16-3-19-3s-3 7-37 8-51-8-51-8-4 5-25 7-25 0-25 0c1 6 5 18 4 32 0 16-4 31-4 31l-7 1c4-4 3-14 4-28 0-15-14-37-11-43s18 0 21-4c3-3-13-25-10-46 3-20 20-15 42-14s70 7 82 0c11-7 6-33 17-49a32 32 0 0 1 29-15c7 0 17 29 17 36l-3 3h-4v4c-8 1-9-8-14-14-2 10 7 42 7 64 0 17-6 25-7 24z" transform="matrix(.33032 0 0 .29556 105 339)"/>
        <path fill="#d0d0d0" fill-rule="evenodd" stroke="#707070" d="M209 131c0 7-27 23-30 29s7 10 5 14c-3 3-6 2-6 2-1 1-11-24-11-24s26-13 25-19-19-9-22-23c-4-14-2-42-4-48-3-5-35-11-35-19s33-33 36-36c4-4 7 3 4 7-4 3-29 25-29 29 0 3 21 7 28 7s11-4 11-7-7-4-7-11 3-11 10-11c4 0 11 5 11 11s-6 7-7 11 7 7 14 7 31 20 35 24c3 3 7 3 3 7-3 3-1 8-5 4-3-3-3-7-3-7 0-3-26-18-30-14-4 3 0 46 0 49 0 7 7 7 7 18z" transform="matrix(.33032 0 0 .29556 116 372)"/>
        <path fill="#a7a7a7" fill-rule="evenodd" d="M170 387h14v15h-14z"/>
        <rect width="88" height="1" x="406" y="65" fill="gray" fill-rule="evenodd" rx="1" ry="1" transform="matrix(.5544 .83225 -.88236 .47057 0 0)"/>
        <path fill="#d0d0d0" fill-rule="evenodd" stroke="#707070" d="M181 43a7 7 0 1 1-15 0 7 7 0 0 1 15 0z" transform="matrix(.33032 0 0 .29556 114 363)"/>
        <path fill="gray" fill-rule="evenodd" d="M215 394l-12 2-12-2 12 2 12-2z"/>
        <path fill="#a7a7a7" fill-rule="evenodd" d="M171 402h12v4h-12z"/>
        <path fill="gray" fill-rule="evenodd" d="M209 391l-2 4 2-5 2-3-2 4zm3 6l-2 1 2-2 3-2-3 3z"/>
        <path fill="gray" fill-rule="evenodd" d="M211 394l1 3-2-3-1-3 2 3zm-1 9l-8 1-8-1h16zm-27-1l-6 1-6-1h12z"/>
        <path fill="#d0d0d0" fill-rule="evenodd" stroke="gray" d="M376 172s9 36 47 37 51-11 35-30-44-14-40 3-11 22-14 10c-4-11-17-46 7-48 25-2 77-15 90 9s-15 46 6 51 24-6 60-9 50 11 62 9 11-37 1-46-29-11-34-21c-4-9-17-1-16-13s18 8 19 2l3-4c-2-1-3 0-5 2l2-6c0-1-2 3-3 2s3-6 2-4c-1 1-4 4-4 2 0-1 2-3 1-4s-3 1-3 1v-6c-2-2-3-2-5 1 1-4 1-5-1-7-1-1-1-3-4 5V96c1-3 3-5 8-4 9 0 14 18 17 18s6-19 18-11l21 13c6 5-5 12-1 21 3 9 28 39 21 70s-25 36-27 49c-1 14 57 8 72 13s25 23 25 26-26 3-26 3-14-12-46-13c-33-1-46-23-58-26s-39 5-53 4c-15-1-30-5-39-7-10-3-57 35-57 44l-32-2c1 1 4-17 22-20s36-18 35-27l5-56c1-14 9-20 7-28-2-7-22-15-42-14-20 0-42 2-45 10s-1 31 3 28-1-18 4-21a57 57 0 0 1 26-6c10 0 28 15 28 19 0 5 6 21-3 27-8 7-25 9-41 8a71 71 0 0 1-39-17c-6-6-10-24-10-25z" transform="matrix(.21598 0 0 .12989 76 416)"/>
        <path fill-rule="evenodd" d="M210 432a1 1 0 1 1-2 0 1 1 0 0 1 2 0z"/>
        <path fill="#d0d0d0" d="M254 418l4 1 8-5-1 2-4 3-2 2 2 2 2 4-1 2-4-8-5-1 1-2zm-8-33l9-5-3-5h2l5 12-1 1-2-6-9 5-1-2zm-14-17l8-8 2 2v13l6-6 2 2-9 7-1-2v-12l-6 6-2-2zm-35-14l1-11h2l-1 9 9 2v1l-11-1zm-18 1l-2-11h3l1 9 9-1v1l-11 2zm-32 16l-1-1 6-5 3 4a16 16 0 0 1-2 3 16 16 0 0 1-3 2 15 15 0 0 1-4 3h-4l-2-1a5 5 0 0 1-1-3 6 6 0 0 1 1-4 14 14 0 0 1 3-3 14 14 0 0 1 3-2l2-1 2 1-1 1a4 4 0 0 0-2 0h-1a9 9 0 0 0-2 2l-2 2-1 1a4 4 0 0 0 0 4 4 4 0 0 0 3 1h2l3-2a12 12 0 0 0 2-2l1-2-1-1-4 3zm0 79l-9 7-7-10 1-1 5 8 3-2-5-7 2-1 4 7 4-3 2 2zm-14-14a4 4 0 0 0 3-3v-4a7 7 0 0 0-2-4 4 4 0 0 0-4-1 4 4 0 0 0-2 2 5 5 0 0 0-1 2v3a8 8 0 0 0 3 4l3 1zm1 2c-2 1-3 0-5-1l-3-5v-5l1-3a5 5 0 0 1 2-2 5 5 0 0 1 4 0 7 7 0 0 1 2 3 13 13 0 0 1 2 4l1 4a7 7 0 0 1-2 3 4 4 0 0 1-2 2zm1-22h-11v-8l1-4 1-2h1l2 1 1 4 1-2a10 10 0 0 1 1-2l3-3v3l-2 3-2 1v1a5 5 0 0 0-1 1v4l5 1v2zm-6-3v-7a3 3 0 0 0-1-1 2 2 0 0 0-1-1l-1 1a6 6 0 0 0-1 3v5h4zm31-48v-13l2-1 11 6-2 1-3-2-7 4v4l-1 1zm2-7l5-3-4-1-2-2v6zm53-3l11-5 3 2-1 13-2-2v-4l-6-4-3 1-2-1zm6-1l5 4v-4l1-2-2 1-4 1zm30 41l10-2 2 7 1 4a4 4 0 0 1-1 2l-1 1-2-1a8 8 0 0 1-2-3v1a10 10 0 0 1-1 3l-3 3v-3l1-2 1-2 1-2a5 5 0 0 0 0-1v-1l-1-3-5 2v-3zm6 1l1 5 1 2 1 1 1 1 1-1a6 6 0 0 0 0-3l-1-6-4 1z"/>
    </g>
</svg>
