<svg xmlns="http://www.w3.org/2000/svg" viewBox="0 0 512 512">
    <defs>
        <clipPath id="a">
            <path d="M180 0h708v709H180z"/>
        </clipPath>
    </defs>
    <g fill-rule="evenodd" clip-path="url(#a)" transform="translate(-130) scale(.72249)">
        <path fill="#f41408" d="M0 0h1063v709H0z"/>
        <path fill="#21873b" d="M0 472h1063v237H0z"/>
        <path d="M0 0h1063v236H0z"/>
        <path fill="#f31509" d="M401 214a147 147 0 0 1 193-80 142 142 0 0 1 80 80H401zm-36 10a420 420 0 0 1-72-12c-6-2-6-6-5-8a7 7 0 0 1 8-5c8 2 40 11 69 25zM538 93c-6-32-7-68-7-74 1-6 4-7 7-7a7 7 0 0 1 6 7c0 9 0 42-6 74zm16 0a428 428 0 0 1 0-73c1-6 4-7 7-7 2 1 6 4 6 8-1 8-4 41-13 72zm14 2c0-32 4-67 6-73s5-6 8-6a7 7 0 0 1 5 8c-1 8-7 41-19 71zm16 4c2-33 10-67 12-73 2-5 5-6 8-5a7 7 0 0 1 4 8c-2 8-10 40-24 70zm15 4a422 422 0 0 1 18-71c3-5 6-5 9-4a7 7 0 0 1 3 9c-2 7-14 39-30 67zm14 6c8-31 21-64 24-69s7-5 9-4a7 7 0 0 1 3 9c-4 8-17 38-36 64zm13 8a432 432 0 0 1 31-67c3-5 7-5 9-3a7 7 0 0 1 2 9c-4 7-20 36-42 61zm13 8a420 420 0 0 1 37-64c3-5 7-4 9-2a7 7 0 0 1 1 9c-4 7-23 34-47 57zm13 9c16-28 37-56 41-60 5-5 8-3 10-2 2 2 3 7 0 10-5 6-26 32-51 52zm11 11a424 424 0 0 1 47-57c4-4 8-2 9 0a7 7 0 0 1 0 9 410 410 0 0 1-56 48zm11 11c20-25 46-49 51-52s8-2 10 0a7 7 0 0 1-1 10 422 422 0 0 1-60 42zm9 12a422 422 0 0 1 55-48c6-3 8-1 10 2 1 2 1 6-2 9a416 416 0 0 1-63 37zm8 13a422 422 0 0 1 59-43c6-2 9 0 10 2s1 7-3 9c-7 4-35 21-66 32zm7 15a432 432 0 0 1 64-38c5-2 8 1 9 3a7 7 0 0 1-4 9 418 418 0 0 1-69 26zm6 14a413 413 0 0 1 66-32c6-1 8 1 9 4 1 2 0 7-4 8a413 413 0 0 1-71 20zm5 15a421 421 0 0 1 69-26c6-1 7 2 8 4a7 7 0 0 1-5 8c-8 3-40 11-72 14zM522 93a421 421 0 0 1-13-72c0-6 3-7 6-8a7 7 0 0 1 7 7c1 8 3 41 0 73zm-15 2a419 419 0 0 1-20-71c0-6 3-7 5-8a7 7 0 0 1 8 6c2 8 7 41 7 73zm-15 3a422 422 0 0 1-26-68c-1-6 2-8 4-9a7 7 0 0 1 8 5c3 8 11 40 14 73zm-15 5a420 420 0 0 1-31-66c-2-6 1-8 3-9a7 7 0 0 1 9 4c3 8 14 39 19 71zm-14 6a420 420 0 0 1-37-64c-2-5 0-8 3-9a7 7 0 0 1 9 4c3 7 17 37 25 69zm-14 7a420 420 0 0 1-43-60c-2-5 0-8 2-9a7 7 0 0 1 10 3c4 7 20 35 31 66zm-13 8a422 422 0 0 1-48-56c-3-5-1-8 2-9a7 7 0 0 1 9 2c5 7 24 34 37 63zm-12 9a419 419 0 0 1-52-51c-4-5-2-8 0-10a7 7 0 0 1 10 1c5 7 26 32 42 60zm-12 11a422 422 0 0 1-57-47c-3-4-2-7 0-9a7 7 0 0 1 10 0c5 6 29 29 47 56zm-10 11a421 421 0 0 1-60-42c-5-4-3-7-2-9a7 7 0 0 1 10-1c6 5 31 27 52 52zm-10 12a421 421 0 0 1-64-36c-4-4-3-7-2-9a7 7 0 0 1 10-2 423 423 0 0 1 56 47zm-8 14a421 421 0 0 1-67-30c-5-4-5-7-3-10a7 7 0 0 1 9-2c7 4 36 21 61 42zm-8 14c-31-8-64-22-69-25s-5-6-4-9a7 7 0 0 1 9-3c8 4 38 18 64 36zm-5 13a415 415 0 0 1-72-18c-5-3-5-6-4-9 1-2 5-5 9-3 7 2 39 14 67 30z"/>
        <path fill="#f31509" d="M366 224c-33-3-67-10-73-12s-6-6-5-8a7 7 0 0 1 8-5c8 2 40 11 69 25z"/>
        <path d="M275 215h528v19H275z"/>
    </g>
</svg>
