<svg xmlns="http://www.w3.org/2000/svg" xmlns:xlink="http://www.w3.org/1999/xlink" viewBox="0 0 512 512">
    <defs>
        <linearGradient id="a">
            <stop offset="0" stop-color="#fff"/>
            <stop offset="1" stop-color="#f15770"/>
        </linearGradient>
        <radialGradient id="b" cx="842" cy="104" r="26" gradientTransform="matrix(.11321 .02876 -.02762 .11359 180 193)" gradientUnits="userSpaceOnUse" xlink:href="#a"/>
        <radialGradient id="c" cx="652" cy="551" r="26" gradientTransform="matrix(-.10753 -.04307 .03971 -.09991 375 10)" gradientUnits="userSpaceOnUse" xlink:href="#a"/>
        <radialGradient id="d" cx="381" cy="740" r="26" gradientTransform="matrix(.06029 .00225 -.00274 .11843 377 -120)" gradientUnits="userSpaceOnUse" xlink:href="#a"/>
    </defs>
    <path fill="#ce1126" d="M341 0h171v512H341z"/>
    <path fill="#fff" d="M171 0h170v512H171z"/>
    <path fill="#006847" d="M0 0h171v512H0z"/>
    <path fill="#fcca3e" d="M285 296v3l1-1-1-3z"/>
    <circle cx="285" cy="295" r="1" fill="#fcca3e"/>
    <path fill="#fcca3e" d="M289 301l-3-2-1 1 4 2zM289 303v-2h2l-1 2h-1zm20-39l3 2v-1l-2-2z"/>
    <circle cx="309" cy="263" r="1" fill="#fcca3e"/>
    <path fill="#fcca3e" d="M316 265l-4 1v-1h4z"/>
    <circle cx="317" cy="265" r="1" fill="#fcca3e"/>
    <path fill="#fcca3e" d="M302 286l-2-4v-1l3 4z"/>
    <circle cx="300" cy="281" r="1" fill="#fcca3e"/>
    <path fill="#fcca3e" d="M303 286h3l-3-1z"/>
    <circle cx="307" cy="286" r="1" fill="#fcca3e"/>
    <path fill="#fcca3e" d="M228 294l-1 1-1-1 1-1 1 1zm0 2v4h-1v-4z"/>
    <path fill="#fcca3e" d="M229 295l-2 2-1-1 1-1h2z"/>
    <ellipse cx="222" cy="301" fill="#fcca3e" rx="1" ry="1"/>
    <path fill="#fcca3e" d="M224 301h4l-1-1h-3zM224 300c0 1 0 3-1 2l-1-1v-2c1-1 2 0 2 1z"/>
    <ellipse cx="212" cy="279" fill="#fcca3e" rx="1" ry="1"/>
    <path fill="#fcca3e" d="M212 282v4l-1-1v-3zM213 281l-2 1-1-1 1-1 2 1z"/>
    <ellipse cx="205" cy="285" fill="#fcca3e" rx="1" ry="1"/>
    <path fill="#fcca3e" d="M207 285h3l1 1h-4zM206 284l1 1-1 2-1-1 1-1v-1zm-2-23l-1 1v-2h1v1zm-3 6l1-4-2 2z"/>
    <path fill="#fcca3e" d="M202 263l-1-2h1l1 1h1v1a2 2 0 0 1-2 0zm-7-1l1 2h-2v-2l1 1zm2 2l3 2v1l-4-2z"/>
    <path fill="#fcca3e" d="M197 265h-2v-1h1v-1h1v1z"/>
    <path fill="#aa8c30" d="M285 296v1-2 1zM285 295l-1 1v-2h-1v1l1 1h1v-1zm4 6h-1a13 13 0 0 1-3-1l3 2 1-1zm2 1l-1 1h-1a1 1 0 0 1 0-1h-1l1 1h1l1-1zm19-38v1l-1-1h1zm0-1l-2 1v-2 2h1l1-1zm8 1l-1 1c-1 1-1 0-1-1v1l1 1 1-1v-1zM315 265a43 43 0 0 0-1 1l2-1h-1zm-14 18v1l-1-2 1 1zm0-2h-2v-1h-1v1h1v1h1l1-1zm4 4v1h-2 3l-1-1zM308 286l-2 1v-1h-1l1 1h2v-1zm-80 9v1h-2v-1 1l1 1h1v-1h1v-1zM228 297h-1v1-1h1zm-3 3l1 1h-2v-1h1zm-1 1a1 1 0 0 1 0 1h-1a1 1 0 0 1-1-1l1 1h1v-1zm-4 0l1 1 1-1v1h-1l-1-1zm-7-20l-2 1-1-1v-1 1l1 1h1l1-1zm-2 1v1-1zm-3 3l3 1h-4v-1h1zm-1 0v1l-1 1-1-1v1h2v-2zm-1 0l-1 1-1-1v1h1l1-1zm-2-23v1h-2l-1-1v1h3v-1zM202 263v1l-1 1 1-2zm-5 2l2 2-2-2v-1 1zm-1 0h-1v-1 1h1zm-1-1l-1-1v1h1z"/>
    <path fill="#9ca168" d="M320 256c0 3-3 5-5 6a9 9 0 0 0-2 3l-1 1v7l2-2h2l-2 3c-1 2-2 6-5 7l-4 2-1 1-1 1-1 1-1 1v1l-1 2h2v1s0 3-3 5-11 2-11 2l-1 1-2 1-1 1-2 2-2 1h2l3 2h-3c-1 1-7 4-9 3-3 0-6-3-6-3l-2-2h-6v-1h3l3 1a6 6 0 0 0 3-1l5-3 5-2h2l1 1-1 1h-1v1l3-1 1 1h1v-1l3-3h1l1-3v-1l4-4 2-2 1-3v5l3-2 2-1a5 5 0 0 0 2-1l1-2v-2l-1-6 2-4 3-2 1-1-1 1v1l3-2 1-2v-5l-1-1-1-4v-5l-1-1 2 2a11 11 0 0 1 2 4l2-8 2 2v3l1-2c1 1 2 2 2 5zm-54 52l-3-2a19 19 0 0 0-5-2v1l4 2 2 1h2z"/>
    <path fill="#717732" d="M284 301a19 19 0 0 1 4-3 8 8 0 0 1 2-1l6-2c4-2 4-4 5-5h2l-3 3-5 3c-2 2-6 2-6 2a6 6 0 0 0-3 2l-2 1v-1zm10-11l-4 6 4-4 5-3 1-2 1-1s-1-1-7 4zm-7 7l2-2 1-2 4-4c3-3 2-5 2-5l-1 2-6 6v3l-2 2zm-2 9l-4-1-9 2-6-2c-2-2-7-2-7-2v1h5c3 1 4 4 8 4s7-3 9-3l4 1zm-19-2s3 0 5-2l7-4 3 1-4-1a9 9 0 0 0-4 1l-4 3-3 2zm-1 4h-1l-2-2-3-1s-1 0 0 0l3 1a7 7 0 0 1 2 2l1 1 1-1h-1zm2-3h3c5 0 7-3 10-4h4a6 6 0 0 0-3-1c-4 0-9 3-11 4l-3 1zm45-32l-4 7-3 3-3 3v1l1-2 2-2 4-3 4-7 3-2s-1-1-4 2zm-7 9l1-2 2-3 2-6c0-2 2-3 2-3l-3 1a28 28 0 0 0-3 7l-1 6zm-2 2l1-3v-7l5-6-4 2-3 6 1 5v3zm9-17l1-3 2-4 3-3v-6l-1 1v5l-3 5v-4l1-5v-5l-2 2-1 6 1 5v3l-1 2a28 28 0 0 1 0 2zm-3-17l1 3v5c0 2 1 2 2 3v-2l-1-1v-5a4 4 0 0 0-2-3z"/>
    <path fill="#9ca168" d="M245 308l3-2c2-1 5-3 6-2l-1 1-2 1-1 1-2 1h-3z"/>
    <path fill="#9ca168" d="M251 302l-5 1h-1l-1-1h-1v2l-4-4v2l-1 1-4-4v3h-1l-3-2v1l1 2h-5l-1 1v1h2v-1l1 1 3-1c2 1-1 2-1 3h3l3-2c1 1-2 2-1 3 0 2 2 1 3 1l3-3c0 1-2 2-1 3l2-1c1 0 1-2 3-2l1-1 1-1 3-1h1l1 1h1l1-1-3-1zm-22 0l1-1h-1l-2-2a5 5 0 0 0-1-1 36 36 0 0 1-2-1l-1-2v-1h-1l-1-5-1-1-1 4-2-2v-4l-1 1-1 1-2-4v2a19 19 0 0 1-2-2l-3-2-1-2 1-2 1-2-2 1v-5l-1-1-2 3-1-1v-3l-1 1-1-2-1-3v-4-2-1s3-2 2-3h-3c1-2 4-2 4-4h-3l2-3v-1l-2 2-2-1-1 2v2l-2-1v3l1 2-2-1 1 3 1 1 1 1 1 1 1 1v2l1 2v2l-1 1h-1l1 2h-3l2 2 4 2c-1 0-4-2-4 0a3 3 0 0 0 2 2l4 1-3 1 2 1h3l3 4 4 2-2 1c-1 0 5 2 3 3l-3-1c-1 2 1 3 1 3 1 1 6 0 5 1l-4 1 3 3c1 0 2-2 3-1s-1 2 0 2l3-1 5 2a63 63 0 0 1 2 2z"/>
    <path fill="#717732" d="M247 307l1 1 2-2 3-1h1l-4 1-2 2h-2-1l2-1zm6-3a4 4 0 0 0-3-1 5 5 0 0 0-3 1l-1 1h2a6 6 0 0 1 3-2l1 1h2zm-40-17l-2-1-4-3 3 2a28 28 0 0 0 3 2zm29 21l1-2 1-2v-1-1 1l1 1h1v-1h-1l-2-2v2c-1 0-2-4-4-4l-2 1 1 2-4-3-2 1s2 0 2 2c-1 1-2-2-4-2l-1 1v1h-2l-2 2 3-1h4l-1-1-1-1 2 1 1 1h2l-1 1a23 23 0 0 1-1 2l1-1 1-1h1v-2a47 47 0 0 1-1-2l1 2 1 2h1v1l-1 2 1-1 1-2h2l-1-1-1-2 1 2 2 1h1l-1 2v2zm-18-10h2l-2-2-1-3-1 1v-5l-3-2c0 1 0 4-1 3v-4l-2-2v3l-1-2h-1l-1-1v1l1 2 1 1h-3 3l1 2 1-2v-2 6h-2l-3-1 3 1h3l1 2 1-2v-3 2a10 10 0 0 1 0 3 4 4 0 0 1-2 1l-3 1h3l2-1 1 1h1l-1 1-1 1 2-1h1v-3 3l1 1zm-24-29v-3l-1-4a4 4 0 0 1-1-1l1-1-1 1h-1l-1-1 1 1h1v-2l-2-1-2-1 2 1h3l1-1-1 1h-1l-1-2-1-1-1-2 1 1 2 1 1-1 2-1-2 1h-1v-1-1-3 1l1 1 2-2v-1l-2 1-1-1-1 2v2c-1 1-1-1-2-1l-1 2 1 3c0 1-2-2-3 0-1 1 3 3 3 3l1 2 2 1 2 5v2zm9 14l-1-3 1-5s-1 2-2 1l1-4-2-2-2 3v-3l-1-1-1 2-2-2 2 3 1-1v-1 3h-4 2l2 1 1 1 1 1v-2l1-2v3l-1 2h-2l-3-1 3 1 3 1 1 1v-1l1-1v1l-1 2h-3a16 16 0 0 0 3 0l1 2a4 4 0 0 0 1 1z"/>
    <path fill="#fff" d="M252 313l-2-1-1-1 1-1 4-4 1-5h3v6l5 3v2h-1l-2 1-3-3-2-1-2 3-2 1z"/>
    <path fill="#016848" d="M255 301v6l-4 2-1 3h-2l-1 1s0-2 3-4l3-3v-4l1-1h1zm6 13v-1l1-1h-1l-3-1a8 8 0 0 1-2-2l-1 1 2 2 2 1 2 1z"/>
    <path fill="#cd202a" d="M257 301h2v5a6 6 0 0 1-1 3l-4 3-2 2v-1l-1-1a8 8 0 0 1 3-2l3-4v-5z"/>
    <path fill="#cd202a" d="M266 312h-3l-1-2-3-1-2-2 1-1 2 2 4 2 2 2z"/>
    <path fill="#30c2dc" d="M276 293l-3-2 7-3v-1h-2a23 23 0 0 1-7 1h-3a1475 1475 0 0 0-24-1 14 14 0 0 1-1 0c-3-1-5-5-5-5h-1v3l-12-5v2s6 3 6 4l-2 1v2c1 0 10 0 10 3l-2 2 1 1 7 1 4 3a55 55 0 0 0 15 0l7-4 5-1z"/>
    <circle cx="228" cy="289" r="2" fill="#fff" stroke="#0872a7"/>
    <circle cx="237" cy="281" r="2" fill="#fff" stroke="#0872a7"/>
    <circle cx="277" cy="293" r="2" fill="#fff" stroke="#0872a7"/>
    <path fill="#f8c83c" d="M220 278c0 2 2 4 3 4l3-1-1-2c-1-1-4-2-5-1z"/>
    <path fill="#fff" d="M225 280l-2-1h-2l3 1-1 1h1l1-1z"/>
    <path fill="#f8c83c" d="M238 295l-2 2-3-1c-1-1 1-2 2-3l3 2z"/>
    <path fill="#fff" d="M236 295l1 1v-1l-1-1c-1 0-3 1-2 2h1l1-1z"/>
    <path fill="#f8c83c" d="M279 289c1 1 3 0 4-1l1-2-2-1-3 2v2z"/>
    <path fill="#fff" d="M280 288l1-2 2 1-1 1-1-1-1 1z"/>
    <path fill="#f9aa51" d="M258 285h-6l3 8 3 4 1 1h3v-2l-1-7-3-4z"/>
    <path fill="#f9aa51" d="M249 286v-1h1a4 4 0 0 1 2 0l2 4 2 5a59 59 0 0 0 3 4h-3l-2-1-4-7-1-4z"/>
    <path fill="#f9aa51" d="M247 285h2l3 4 1 5 3 4h-5l-3-1a7 7 0 0 0-1-1h-2v-11h2zm18 1l-3-1h-5v2l2 7 3 4 3-1 2-1v-10h-2z"/>
    <path fill="#f9aa51" d="M246 286l1 1v-1c1-1 0-2-1-2l-2 2 1 2-1 3 1 2-1 3c0 2 1 1 2 1l2-1-1-1h-1m20-8h-1l-1-1 2-1 2 2-1 2 1 2-1 2 1 3-1 2-3-2 2-1 1 1"/>
    <path fill="#953220" d="M248 295l1 1 7 1h7l2-2v2l-1 1h-2-14a4 4 0 0 1 0-1v-2zm16-9l-1 2v2h-5l-1-2 7-3z"/>
    <path fill="#231f20" d="M277 285l-1-1v-2l1 1v2zm9-2v1h1-1a7 7 0 0 1-1-1z"/>
    <path fill="#231f20" d="M288 283l-1 1-1-1h2zm4-3h-2 2zm-6-9l-1 1v0l1-1zm-4 3h-1v2l1-1v-1z"/>
    <path fill="#8cbebf" d="M274 279l-2 2s5 3 9 3 9-3 9-4v-4l-5-3-4 3c-2 1-2 3-4 3h-3z"/>
    <path fill="#0c8489" d="M274 280s5 0 7-1l4-5 2-1 1 1 2 2v4l-2 1-3 2-3 1h-3l-5-2-1-1 1-1z"/>
    <path fill="#04534e" d="M282 276h1l1 1-1 1-1-2zm2 2l1-1 1 1-1 1v-1zm0 3h1c1 0 0 0 0 0l-1 1v-1zm-3-1l1-1 1 1-1 1-1-1zm-5 1a1 1 0 1 1 2 0 1 1 0 0 1-2 0z"/>
    <path fill="#8cbebf" d="M285 278v-1l1 1-1 1v-1zm-1 3l1-1v2l-1-1zm-3-1l1-1v2l-1-1zm1-4h1v1l-1-1zm-6 4l1-1 2 1-2 2-1-2z"/>
    <path fill="#231f20" d="M278 280h-1v1l1-1zm4-1l-1 1h1v-1z"/>
    <path fill="#231f20" d="M283 280h-1l-1 1 1-1 1-1zm0-5v0zm3 2h-1v1h1v-1zm0 3l-1 1h-1 1a52 52 0 0 1 1-1z"/>
    <path fill="#04534e" d="M290 278l-1 2c-1 1-5 4-8 4l-8-3h-1l1 1 3 1 3 1h4l3-1 3-2 1-1v-2z"/>
    <path fill="#231f20" d="M220 258l1 1-1 1v-2zm6 6l-1 1v-1h1zm-13 0v1h1l-1-1zm2 5l1 1a1 1 0 0 0 1-1h-1-1zm4 4l2-1v-1l-1 1-1 1z"/>
    <path fill="#8cbebf" d="M226 270s1-5-3-9c-4-3-7-2-8-1s-2 5 2 9 9 3 9 3v-2z"/>
    <path fill="#0c8489" d="M214 265l1-4a6 6 0 0 1 8 3c2 4 2 6 1 8h-2l-3-2-3-2-2-3z"/>
    <path fill="#04534e" d="M226 270l-3 1c-1 0-7-2-9-8v3l2 2 2 2 2 1h1l2 1h1l1-2z"/>
    <path fill="#04534e" d="M222 269l1-1h1l-1 2-1-1zm0-3l1-1 1 1h-2zm-3 3l1-1 1 1-1 1-1-1zm0-4h1l1 1-1 1-1-2zm-3 1l1-1 1 1-1 1-1-1zm1-3l1-1 1 1-2 1v-1zm3-1h1l1 1-1 1-1-2z"/>
    <path fill="#8cbebf" d="M217 263l1-1v1h-1zm-1 3l1-1 1 1h-1-1zm4-4h1v1h-1v-1zm-1 4h2l-1-1-1 1zm4-1v1l1-1-1-1v1zm-4 4l1-1 1 1-1 1-1-1zm3 0l1-1 1 1h-2z"/>
    <path fill="#231f20" d="M223 264l1 1-1 1v-2zm-3-3l1 1-1 1v-2zm-3 0l1 1v1l-1-1v-1zM216 262h1v1l-1-1zm3 3h1v1h-1a7 7 0 0 1 0-1zm-3 0h1v1h-1v-1zm7 2v2l-1-1 1-1z"/>
    <path fill="#231f20" d="M222 268h1v1l-1-1zm-3 0h1v1h-1a6 6 0 0 0 0-1z"/>
    <path fill="#04534e" d="M218 259s-3 1-3 2l-1 4v-4l1-1 1-1h2zm8 10l-1-3-2-4 1 1 1 2 1 1v3z"/>
    <path fill="#231f20" d="M229 266l1 1h-1l-1-1zm-4 10l1-1h1l-1 1h-1zm6 3l1-1v-1l-1 2zm-1-1l1-1 1-1v1l-2 1z"/>
    <path fill="#8cbebf" d="M241 273s-4-6-10-6c-5 0-7 4-6 5 0 2 2 5 8 5 7 1 8-3 8-3v-1z"/>
    <path fill="#0c8489" d="M237 269l2 2v2l-7-4c-3 0-5 0-6 2l1 4 8 2h3l2-1v-1l1-2-2-2-2-2z"/>
    <path fill="#04534e" d="M231 270h-1l1-1v1zm-3 1h1c1 0 0 0 0 0l-1 1v-1zm4 2l1-1 1 1-2 1v-1z"/>
    <path fill="#8cbebf" d="M229 274h1v1l-1-1z"/>
    <path fill="#04534e" d="M234 276l1-1v1c0 1 0 0 0 0a1 1 0 0 1-1 0zm2-2l1-1 1 1-1 1-1-1z"/>
    <path fill="#8cbebf" d="M231 270h-1v-1l1 1zm-2 1l-1 1v-1h1zm1 3v1l-1-1h1zm3-1l-1 1v-1-1l1 1zm5 1h-1-1l1-1 1 1zm-3 1l-1 1v-1l1 1z"/>
    <path fill="#231f20" d="M236 274l1-1v1l-1-1zm-3 2l1-1v1h-1zm-2-4l1 1h1-1a44 44 0 0 1-1-1zM231 273h1-1zm-3 0l1 1c1 0 1 0 0 0l-1-1zM228 275l1-1v1h-1zm-1-4h2-2zm2-3l2 1v1l-1-1-1-1z"/>
    <path fill="#04534e" d="M240 275s-2 2-6 2c-4-1-8-2-9-4v1l1 1 3 1 3 1h6l2-1v-1zm1-2l-2-2a63 63 0 0 0-5-3l3 1 2 2 2 1v1z"/>
    <path fill="#231f20" d="M241 269l1 1h1l-1 1-1-1a8 8 0 0 1 0-1zm3-2l1 1 1 1h-1l-1-2z"/>
    <path fill="#231f20" d="M245 267l1 1v1l-1-1v-1zm6 1v2-2zm1 1l1 1-1 1v-2zm-10 12h1l1-1h-1v1h-1zm6 1h1v-1h-1a5 5 0 0 1 0 1zm4 1l1-1v-1 1a7 7 0 0 1-1 1z"/>
    <path fill="#231f20" d="M253 283l1-2s0-1 0 0h-1a68 68 0 0 0 0 1z"/>
    <path fill="#8cbebf" d="M240 275c0-2 3-6 6-6l6 2c2 0 2 1 3 2h3l4-1-3 5-1 1-4 3h-10c-2-1-4-3-4-6z"/>
    <path fill="#04534e" d="M240 275l1-1a10 10 0 0 1 2-3l3-2a24 24 0 0 1 6 2 7 7 0 0 1 2 1 5 5 0 0 0 3 1h1l4-1-3 5-1 1a7 7 0 0 1-4 3h-3l-6-1a7 7 0 0 1-3-1 5 5 0 0 1-2-4 5 5 0 0 0 1 4 7 7 0 0 0 3 2l7 1a11 11 0 0 0 3-1l4-3 1-1 4-5h-6a7 7 0 0 1-1 0h-2l-2-2a23 23 0 0 0-3-1h-6a9 9 0 0 0-2 3 7 7 0 0 0-1 3z"/>
    <path fill="#0c8489" d="M259 276h-1s-9-5-12-5-5 1-5 4l1 4 6 2h3l3-1 2-1 1-1 1-1 1-1z"/>
    <path fill="#04534e" d="M245 275l-1 1-1-1 1-1 1 1zm1-3l1-1 1 1-1 1-1-1zm5 2l1-1h1l-1 1a1 1 0 0 1-1-1zm1 3l1-1h1v2l-2-1zm-2 2l1-1 1 1-1 1-1-1zm-5-1l1-1a1 1 0 1 1 0 2 1 1 0 0 1-1-1z"/>
    <path fill="#8cbebf" d="M245 274l-1 1a1 1 0 0 1-1-1h2zm3-2l-1 1-1-1 1-1 1 1zm5 1l-1 1-1-1h2z"/>
    <path fill="#04534e" d="M250 275l-1 1-1-1h2z"/>
    <path fill="#8cbebf" d="M246 278v1a1 1 0 0 1-1-1l1-1v1zm4-3a1 1 0 0 1-1 1 1 1 0 0 1-1-1 1 1 0 0 1 1 0 1 1 0 0 1 1 0zm4 1l-1 1a1 1 0 0 1-1-1h2zm-3 3c1 0 0 0 0 0h-1l1-1v1z"/>
    <path fill="#231f20" d="M252 276h1v1l-1-1zm-1-4h1v1l-1-1zm-3 2l1 1v1l-1-1a78 78 0 0 0-1-1z"/>
    <path fill="#231f20" d="M247 275h2v1c0 1 0 0 0 0l-1-1h-1zm-2-4h2v1h-1l-1-1zm-2 2l1 1v1l-1-1a7 7 0 0 0-1-1z"/>
    <path fill="#231f20" d="M242 274h2v1l-2-1zm7 5l1-1 1 1h-1a49 49 0 0 1-1 0zm-5-1h1-1z"/>
    <path fill="#04534e" d="M258 277l-3 3-6 1a12 12 0 0 1-6-2 9 9 0 0 1-3-3v1l2 2 2 1 3 1h7l1-1h1l1-1 1-2zm-2-4l-3-1c-1-1-3-2-7-2-3 0-5 2-5 2l2-2 1-1h3l2 1h3l1 1 2 1 1 1zm4 1h-3l-1-1h5l-1 1z"/>
    <path fill="#0c8489" d="M257 288v1h5l1-1v-3l1-1 3-1 2-1h1l2-1 2-1h1v-4l-2-2-3-1h-2l-2 1-5 1-3 3-1 5v5z"/>
    <path fill="#8cbebf" d="M258 287l1-3 2-3h1l1-1 1-2 2-1h1v1l1-1v-1h2l1 1s-1 0 0 0v1h2v-1c-1 0-1 0 0 0l1 1v-2l-1-2-3-1h-3l-3 2-3 2-1 2-1-2-1 3-1 5 1 2z"/>
    <path fill="#8cbebf" d="M261 284h-1a1 1 0 0 0 0 1h2v-1h-1zm5-4h-1v1h1l1-1h-1v-1zm4 1l-1-1-1 1h2v-1zm-12 0l1 1a1 1 0 0 0 1-1h-1-1z"/>
    <path fill="#04534e" d="M262 284v1h-2 1l1-1zm11-6h-1l-1 1v-1l-1-1 2 1h1zm-10 2l-1 1h-1 1l1-1zm2 0v1h2v-1l-1 1h-1v-1zm3-4v1l-1 1 1-1v-1z"/>
    <path fill="#04534e" d="M257 289l5-1s0-3 2-4l6-2c1 0 4-1 5-4 0-2-2-2-3-3-1-2-3-1-3-1l-3 1-1 2h-4v2l-1-1 1-2 3-2 4-2h3l3 1 1 2v2a4 4 0 0 1 0 1 6 6 0 0 1-5 4l-6 2-1 5h-6z"/>
    <path fill="#231f20" d="M259 281v-2 2zm3-1v-1l1-1v1l-1 1zm-1 4v-2 2zM263 283l-1 1h-1c-1 0 0 0 0 0l2-1zm3-5v1 0-1zM268 280l-1-1-1 1s-1 0 0 0h2zm-1-4h1v-1h-1v1zm5 0l-1 1v1l1-1v-1zm-1 4l-1 1h-1v-1h2z"/>
    <ellipse cx="273" cy="229" fill="url(#b)" rx="2" ry="3" transform="rotate(9)"/>
    <path fill="#fcca3e" d="M236 262l-1 3h1l1-3zM237 260l-1 1 1 1 1-1-1-1zm59 9l-4 3h2l2-3zM297 267l-1 1a1 1 0 0 0 0 1h2a1 1 0 0 0-1-2zm-87-17l2 4 1-1-2-3zM210 249a1 1 0 0 0-1 1h2a1 1 0 0 0 0-1 1 1 0 0 0-1 0z"/>
    <path fill="#aa8c30" d="M237 260s1 0 0 0l-1 1 1 1h-1v-2h1zM237 263h-1l-1 1 1-2h1l-1 1zm61 5h-2v1c1 1 0 0 0 0v-2h1l1 1zM296 270h-1l-1 1 2-2-1 1zm-86-21s0-1 0 0v1a1 1 0 0 0 1 0l-1 1v-1h-1v-1h1zM211 251v2l-1-2 1-1v1z"/>
    <ellipse cx="327" cy="-73" fill="url(#c)" rx="4" ry="3" transform="rotate(63)"/>
    <path fill="#e92736" d="M210 257h1l1-1a3 3 0 0 0-1-2h-1l-1 1c0 1 0 0 0 0v1l1 1z"/>
    <path fill="#e92736" d="M211 255h2v-1-1-1l-2 1v2zM215 254v-1-1h-2 1l-1 1v1h2zm18 10l1 1h1v-2h-2v1zM235 264v1h1a1 1 0 0 0 1 0v-1-1h-1l-1 1zM238 266l1-1-1-1h-1v2h1zm53 4v1l1 1 1-1v-1l-1-1v1h-1z"/>
    <path fill="#e92736" d="M293 271h-1v1l1 1a1 1 0 0 0 0-1h1l1-1-1-1v1h-1z"/>
    <path fill="#e92736" d="M293 274h1v-1l1 1v-2h-2v2z"/>
    <path fill="#f7e204" d="M211 255v1h-1v-1h1zm1-1v1h1v-1l-1-1a3 3 0 0 0 0 1zm2-1v1h1v-1h-1zm21 11l-1 1v-1h1zm1 0h-1l1 1 1-1h-1zm2 0l-1 1v1l1-1v-1zm54 7v-1 1zm1 0v1h1l-1-1zm1 2h-1l1 1v-1z"/>
    <ellipse cx="398" cy="-31" fill="url(#d)" rx="2" ry="4" transform="rotate(48)"/>
    <path fill="#a8ac71" d="M229 223h-6c-2 0-1-5-1-6 0 0-2-1-1-2l4-5h2l1-1v1l-1 2-1 2-1 2v1l3-1 2-1-2 2-3 1s0 2 2 2l3-1-1 4zm-12 13s1 1 1 3c0 1-2 3-1 6 0 3 0 3 4 7l1 2c1 1 1 7 5 7s5-3 5-3l-2-2h-2a3 3 0 0 1-2-2l-1-4c-2-3-5-3-5-6l2-6c0-3-5-4-5-4l-1-1-1 3h2z"/>
    <path fill="#f1a720" d="M228 214v-4l-1 1 1 2v1z"/>
    <path fill="#a8ac71" d="M230 249h-1c0-1-2-2-2-7 1-6 9-9 10-12 0-2 2-3-5-8l-1 1 3 3-1 2-4 4-3 2-2 3v5s0 6 6 7z"/>
    <path fill="#78732e" d="M226 252l1 3h-3l-1 1v-1a17 17 0 0 0 0-1l1 1h1v-1l1-2zm-4 1v-1l-1-1h2v1l-1 1zm2-4l1 1 1 1h-3l1-1 1-1zm0 10l-1-1v-1h3l-1 1-1 1zm4-3l-1-1c0-1 0 0 0 0l-1 1v1h1l1-1zm-4 3l1 1h2v-1h-3zm4-1l2-1v-1h-2v2zm-2 2h4l2-1h-1l-1 1h-4zm-2-16v-2l1 1h1l-1 1h-1zm2 3l-1-1a10 10 0 0 1 0-1l1 1h1l-1 1z"/>
    <path fill="#c6c7a6" d="M221 214l1 1s2 0 3-2l1-2 1-1h-2a33 33 0 0 0-4 4z"/>
    <path fill="#a8ac71" d="M224 211l-2 1 2-1a3 3 0 0 1 3 0v-1h-2l-1 1z"/>
    <path fill="#78732e" d="M227 244v-2l-1 1 1 1zm-3-2v-2-3l1 1 1 2v1h-1l-1 1zm3-1l1-1v-1l-1 1-1 1h1m-3-5l1-1 1-1 1 2v2l-2-1-1-1zm4 3l1-1 1-1-3 1h1v1zm-1-6l1-1h1v3l-1-1-1-1zM230 237l1-2h-2v1zm1-4v-3l-1 1-1 1 1 1h1zm2-3v-2l-1 1a5 5 0 0 0 0 1h1zm1 3l1-1a5 5 0 0 0 2-1l-4-1v2l1 1zm-8-11v2h3l-1-1v-1l-1-1zm6 13l1-1 1-1h-3v2h1zm5-5v-2a5 5 0 0 0 0-1l-2 1v1l1 1h1z"/>
    <path fill="#78732e" d="M233 228l1-1v-1h2l1 1h-1l-1 1h-2zm4-2l-1-1-1-1-1 2h3z"/>
    <path fill="#fff" d="M217 242h2l2 1v-1l-2-1-2 1zm1-5l1-1h2l-1-1-1 1-1 1zm3 4l-1-2-2 1h2l1 1zm-4-4h1v-2l1-1-1 1-1 2zm0-2l1-1h-1v1l-1 1h1v-1zm6-16h1v2l-1 2h1v-1a5 5 0 0 0 2 2l1-2a4 4 0 0 0 1 1v-1l-1-1 1-1h1-1l-1 1a7 7 0 0 1-1-1l-2 1 1-2h-2l-1 1v1l1-2zm1 2l2-1 1 1-1 2-2-1a1 1 0 0 1 0-1zm-6 17v1l2-1 2 1v-1l-2-1-2 1zm17-9a8 8 0 0 1 0-1 10 10 0 0 0 2-1v-1h-3l1-1v-2l-1 1a7 7 0 0 1-2-1v1h3a7 7 0 0 0-1 1v1l1 1h2l-2 1-1-1 1 1h-2v2h-2v3l-2-1v3a5 5 0 0 1-2-2l-1 1 1 3v1a4 4 0 0 1-1 0l-2-2v1l2 3v1l-2 1a36 36 0 0 0 1 2h-1v1l2-1a7 7 0 0 0 1 0l-1-1 1-1v-1h-1l2-2-1-1a9 9 0 0 0 3-1l-1-2h3l-1-2h3l-1-2h4v-1l-2-1zm-8 12l-1 2a4 4 0 0 1-1 0l-1-1 2-1h1zm1-2l-2 1-2-3 2 1h1l1 1zm1-2h-2v-3l2 1v2zm0-2v-3l2 1v2h-2zm5-2h-3a18 18 0 0 1 0-3l2 1a8 8 0 0 0 1 2zm0-3h-1v-2h2v1l1 1h-3zm-6 15h-1l-1 1-1-1 1 1v2l1-2h1l-1 1a51 51 0 0 0 0 1h2-1a3 3 0 0 0-1 0l1-1v-1h-1v-1zm-10-1a3 3 0 0 1 2 1v-1l-1-1-2 1v1l1-1zm11 16h-2l1-1 2-2v-1l-2 2v-2l-2 1a6 6 0 0 0 1-2v-1l-2 1 1-3-1 3h-1a10 10 0 0 1-1-1l1 1-1 1v1h2a6 6 0 0 1-1 2h3l-1 1h3l2-1-1-1-1 2zm-5-4l1-1h1v2a7 7 0 0 1-2-1zm1 3l1-1a3 3 0 0 0 0-1l2-1-1 2-2 1zm-2-8l3 1v-1h-3l2-2h-1l-1 1-2 1h2l-1 2 1-2zm-2-5v-1h-3l-1 2v1l2-2h2zm2 2h-2l-1 2v1l1-2 2-1zm-3 0l2-1-1-1-2 1-1 2h1l1-2zm4-36l2-1a7 7 0 0 0 0 2l-1 1-1 3v1h0v-1l1-3 1-1v-2h-1a2 2 0 0 0-1 1l-2 1 2-1z"/>
    <path fill="#78732e" d="M228 220h-2l1 1zm-2 0l-1-1h-1v2l2-2zm-1 4l-1-3-1 2h2zm6 35a7 7 0 0 1-3 2l-3-1a3 3 0 0 1-1-2l-1-3a9 9 0 0 0-1-3l-3-2a6 6 0 0 1-2-5 9 9 0 0 1 1-4v-3l-1-1-1-1a7 7 0 0 1 1 1l1 1-1 3a9 9 0 0 0-1 4 6 6 0 0 0 3 5l3 2 1 4v2l2 2a6 6 0 0 0 3 1l4-1-1-1z"/>
    <path fill="#78732e" d="M230 255l-1 1a2 2 0 0 1-2-1l-1-2v-3l-3-2-3-3a3 3 0 0 1 0-1l1-2 1-3v-1c0-2-2-3-3-4a11 11 0 0 0-2-1v1l3 1 2 3v1l-1 3-1 2a3 3 0 0 0 0 1l3 3 2 3 1 2a4 4 0 0 0 1 2l2 1a2 2 0 0 0 1 0v-1z"/>
    <path fill="#a8ac71" d="M237 249l1 2v2l-2-1 1-1v-2z"/>
    <path fill="#f8c83c" d="M213 236l-2-1v-1-1h1l1-2 1 1-1 4z"/>
    <path fill="#f8c83c" d="M215 236h-2v-1l-1-1 1-1 2-1v4z"/>
    <path fill="#f8c83c" d="M217 236l-2 1v-2l-1-1 1-1 1-1 1 1-1 2 1 1z"/>
    <path fill="#af7029" d="M235 249l-2-2-2-2-1-1-2-2v-2l1-2v-1s-3 2-1 9c0 3 2 3 2 3h5z"/>
    <path fill="#816c2a" d="M233 225l1 1c-1 3-4 4-6 6a11 11 0 0 0-3 3 10 10 0 0 0-1 6c0 4 1 6 3 7a8 8 0 0 0 4 1h2a29 29 0 0 1 2 0 9 9 0 0 1 1 0h1a1 1 0 0 1 0 1v1h-1v1l1-1v-1a1 1 0 0 0 0-1h-1a9 9 0 0 0-1 0h-4l-4-1c-2-1-3-3-3-7v-1l1-5 5-4 4-4v-1l-1-1z"/>
    <path fill="#fff" d="M238 250l-1 2h1v1l-2-1v-1h1l1-1z"/>
    <path fill="#fcca3d" d="M242 251l-3 1-1-1v-1l-1-1h-2l-4-4h1l3-1h3l1 1h1v1l1 1v1l1 2v1z"/>
    <path fill="#af7029" d="M242 251h-4v4l2 1 1-1 1-2v-2z"/>
    <path fill="#fcca3d" d="M241 250v1h1v-1zm-2-24v-2l-1-1-1-1v-1l-1-1h-2l-2 2 5 4 2 2v-2z"/>
    <path fill="#af7029" d="M237 228l-1 3 2-2 1-1a6 6 0 0 0-2-2v2z"/>
    <path fill="#816c2a" d="M240 254l-1-1-1-1v1h1a13 13 0 0 1 1 1z"/>
    <path fill="#6f5b24" d="M242 252l-1 2-2 1 2 1 1-1-1-3z"/>
    <path fill="#404118" d="M242 254v1h-1l1-2v1z"/>
    <path fill="none" d="M229 223h-6c-2 0-1-5-1-6 0 0-2-1-1-2l4-5h2l1-1v1l-1 2-1 2-1 2v1l3-1 2-1-2 2-3 1s0 2 2 2l3-1-1 4z"/>
    <path fill="#ab6d29" d="M255 201s-6-1-6 3c0 2 1 2 2 2l6 3 2 4-1 2 1 6 2 5 3-3 3-6-3-13-9-3z"/>
    <path fill="#4d2a15" d="M261 224l2-2-2-3 2 1 1 1v-3l-1-2h-2 3a9 9 0 0 0-1-3l-1-1h-2 3a10 10 0 0 0 0-2 5 5 0 0 0-2-2h-2 2a40 40 0 0 0-3-2h-3l1-1h1l-2-1h-2l-3 1 1-1h1v-2h3l7 4 3 2 2 5-1 9-4 4h-2l1-2z"/>
    <path fill="#d2a567" d="M255 203v-2h-4l-1 4 2-1h2c1-1 0-1-1-1h-1l2-1 1 1z"/>
    <path fill="#8f4620" d="M261 225h-1l1 6 6 10 3-1 1-1 3 3h2l4 6v-2l-1-3-1-2h-1 3l2 2v1l1 1v2l1 1 1 2v-2l-2-5-1-2 2 1 2 2v2l1 1v1l1 2v-2l-1-3v-4l1 1 1 2v3l1 3 1 3 1 2 1 1v-1l-2-13 1-1v1l1 1v2l1 2v5l1 3 1 2 1-2-1-14 1 1 1 1v3l1 8v3l3-23h1v-1l-1-1-2-4-2-4-3-5-5-7-5-3-1-1v-1l1-1h-3l-1-1-4-2-4-2-2-1-5-1-5-1h-3l-2 1-1 1-1 2 3 2 5 3 1 2h1v1l1 9-2 5-2 1z"/>
    <path fill="#ab6d29" d="M267 239s1 1 2 0c2-1 0-5 0-5l1 1 1 3c0 2-2 3-2 3h-2v-2z"/>
    <path fill="#4d2a15" d="M300 259l-1-3v-3l-1-8v-2l-1-2h-1l1-1v-3l-3-7v1h1l1 2 3 1h2l1 2 1 6-1 6-1 9v2h-1z"/>
    <path fill="#8f4620" d="M300 249l1-2v-11a8 8 0 0 0-4-2l1 3 1 1v2l1 4v5z"/>
    <path fill="#4d2a15" d="M295 254l1-7-1-4a26 26 0 0 1-2-5l-2-5-1-1-1 1h-1v-4l2 1 3 2 2 7 1 5v13l-1-3zm2-19l2 1 1 1-2-1-1-1z"/>
    <path fill="#4d2a15" d="M291 253l1-3-2-7-3-4-1-4a74 74 0 0 1-2-2v-3l3 2h1l2 7 1 2 1 3v6l1 6-2-3zm-3-3l-1-4-1-4a28 28 0 0 1-4-4 45 45 0 0 0-3-4v-3l2 2a45 45 0 0 1 2 1l1 3 1 2 1 2 1 1 1 3v2l1 2-1 1zm-3 0l-1-1 1-1-1-3-1-2a98 98 0 0 0-4-3l-3-3-1-1v-3l1 2h2l2 4 1 1 2 2 1 2v2l1 2v2zm-4-1l-2-2v-3a10 10 0 0 0-3-3l-3-3 1-1v1l4 3 1 2 1 3v1l1 1v1zm13-19s2 3 3 1l-1-4-3-5-5-6-3-1 1 1 5 7c3 5 2 7 2 7h1zm-15-18l8 9c3 4 5 7 4 8l-3-2-5-7-4-4-2-3 2-1zm-2 10l4 4a30 30 0 0 1 3 4l1 1v-2h1l-9-10v3zm-1 0l3 3a298 298 0 0 0 3 4l1 2-5-2a7 7 0 0 0 1 2l-1-1-2-2-1-2-1-3 2-1z"/>
    <path fill="#4d2a15" d="M264 232s2 2 3 0v-4s3 5 4 0l-2-3 1-1 2 3 1-3-1-4 1 2s3 0 3-2-3-4-3-4l3-1-3-2c0-1 0-2 2-1 1 0 2 1 3-1v-1l-2-1-2-1-2-1h-3l1 2 1 4v7l-1 4h-1v1l-1 2-1 1-2 2-1 2z"/>
    <path fill="#ab6d29" d="M279 241l-2-3-3-1 4 4h1zm5 0l-3-3-2-3h-1l1 3 2 2 3 1zm3 0l-2-4-2-4v3l1 2 2 3h1zm3-1v-6a4 4 0 0 0-2-2v4l1 3 1 1zm3-8l2 2 2 7h-1l-3-5v-4z"/>
    <path fill="#d2a567" d="M272 238l2-1-2-3h2s-2-3-1-4l2 3v3c-1 3-3 2-3 2zm4-4h3l-3-2v-1h2l-2-3h1l2 2 1 4c-1 2-4 0-4 0zm11-4v-2h1l-2-1h-1l1 2 1 1z"/>
    <path fill="#d2a567" d="M280 232h3l-3-3v-1h2v2l2 1v-2l1 1 3 1v-1 2h-2l-1-1v2h-3l-2-2zm8-3l4 2v-7s3 7 1 8h-1l-2-1-2-2zm11 10h1l1 1h-2v-1zm-4-13h1v1a1 1 0 0 1 0-1h-1zm-1-2h1l1-1h-2v-1h-1l1 2zm4 12h1l1 1h-1l-1-1zm-7-19h1v2h-1a39 39 0 0 1-1-2h1zm-6-5h2l1 1v3l-3-2-1-2h1zm-2-1s2 0 2-1a3 3 0 0 0-1-2l-3 2 2 1zm-5-2h1l3-2h2l-1 1-3 2h-2v-1zm-1-4l-2-1s2 1 2 3v2h1v-2h-1v-2zm-4-1a12 12 0 0 0-5-3l4 3 1 3h1v-1l-1-1v-1zm-5-2a13 13 0 0 0-8-3c-3 0-4 1-4 2 1 2 2 2 4 2l4 1 3 1-2-2-2-1 2-1 4 3v2h1v-1l-1-2-1-1zm-8 23c2 0 4-2 5-6a27 27 0 0 0-2-10l1 1 2 8-2 6-4 2v-1zm5 9l1 1 3-3c0-2-2-3-2-3v-1h2v2l1 1 2-3-2-3a2 2 0 0 1 0-1l1 1 1 1h1s2-1 1-2l-1-2h2l2-2-1-1v-1l1 1 1 1-1 1-1 2h-1v3l-1 1h-1v2l-1 2-2 1-1 1v1l-2 1-2 1-1-2zM275 217s3 1 3-1l-4-4v-1l2 1s2 1 2 0l1-2h1v2l-1 4s0 2-1 2l-3-1zm3 24l-1-2-2-1a48 48 0 0 0 2 3h1zm4 0l-2-3-2-2 1 2 3 3zm4 0l-1-4-2-3v1l1 3 1 2 1 1zm4-2l-1-4a5 5 0 0 0-1-2v2l2 4zm6 2l-1-4a18 18 0 0 0-2-4v3l2 4 1 1zm6-7l-3-2a15 15 0 0 0-5-1h1l1 1 2 1 3 1h1z"/>
    <path fill="#202020" d="M279 235l1 3 3 4 2 4 1 4v2l-1-2v-1l-2-7-5-5-1-2h2z"/>
    <path fill="#202020" d="M284 248l-1-4a12 12 0 0 0-4-3l-2-1-3-3v1l4 4 2 4v2l1 1h1a8 8 0 0 1-2-3l-2-5h1l3 3 2 3 1 4-1-3zm-4-16l2 1h1l2 6 2 2 1 7a14 14 0 0 1 1 6l-1-3-2-5a10 10 0 0 0-2-4c-1 0 0 0 0 0a9 9 0 0 1 2 4l2 4v-1l-1-3-1-4-2-3a16 16 0 0 1-2-4v-1l-1-1-1-1zM285 231l1 1h2l1 6 3 3v6l1 6v9l-1-6-2-6-1-7-2-2 2 2 1 7 2 6v-8l-1-7c-1 0-2-1-2-3l-2-5-1-1-1-1z"/>
    <path fill="#202020" d="M288 229l3 2 2 1 1 6 2 3 1 11-1 12-1-9-1-2-1-9-1-3 1 3 2 9 1 3v-13l-3-7-1-3-2-2-2-2z"/>
    <path fill="#202020" d="M294 230l3 3 5 1a18 18 0 0 1 1 8l-1 8-1 13-1 1v3l-1-2v-5-5l-1-12-2-2 2 2 1 12v-2l1-7-2-9 1 2h1v1a2 2 0 0 1 0-1h-1a19 19 0 0 1 1 6v14l1-9 2-8-2-8-5-1-2-3zm-29 5h2l2-3v-1h1l2-2v-2h1l2-2-1-2h1l2-2c0-1 0-3-2-3h2l1-2-2-3h3v-2-1h2l3-2-2 2 2 2h3l-2 1a27 27 0 0 1 4 4h2-1a52 52 0 0 1 3 4v1h0a66 66 0 0 1 3 5l-6-8-3-3 3 5 3 5s-3-6-8-10c-4-4-4-5-5-4v3l6 6 6 9-7-8-6-6v2l-2 1 4 3 2 1 1 1-1-1h-1l3 4h1l2 1-2-1-1 1 2 3-6-7-4-2-1 1h-1l4 5a120 120 0 0 1 4 3l-4-3-3-3v2l3 4-4-5-1 1-1 1 5 6-4-4 1 4-3-4v1l-2 1 4 5-4-4s-1 0 0 0l1 3-2-2-1 1h-1l1 2 1 2-1-2-2-1-1-1z"/>
    <path fill="#202020" d="M302 234l1-1-2-1-7-14c-5-7-10-10-10-10s6 3 10 10c5 6 6 12 7 13l3 2-1 1h-2zm-39-2l2-2-1-1-1-1 1 1h2l2-2-1-1-1-2 1 2h2l1-3-1-1-1-1 1 1 2-1v-4h-2l-1-1 1 1 2-1v-2l-1-2h-2l-2-1 2 1 1-2v-2l-1-1-1 1-2-1h2l1-1-2-2a47 47 0 0 0-3-2l3 2 2 2h2v-2l-2-2 2 2v2l4 1-1-2-1-1 2 1v3l1 1h2l1-2-1-2 1 2v2l1 1h-2l-6-3 3 3 2 2-2-1-4-2 1 1v1l3 4-1 1-2-2 1 2v1l2 2-1 2 1 1-1-1-2-1a6 6 0 0 0 0 2l1 2v2l-2-2-1 1-1 2 2 1-1 2-2-2-2 2 1 2h-3z"/>
    <path fill="#202020" d="M284 208v-1l1-1h-2l-4-2s-7-5-19-6c-3 0-5 1-5 2 0 0 1-2 4-2a40 40 0 0 1 20 6l4 2h2l-1 1v1zm-20 2a10 10 0 0 0-2-3 30 30 0 0 0-7-3l7 3 2 2z"/>
    <path fill="#d2a567" d="M264 218l-1-1a8 8 0 0 0-2-1h2l1 2zm-1-4l-1-1-2-1h2a2 2 0 0 1 1 1zm0-4l-2-1-2-1 2 1c2 0 1 1 1 1zm-2-2l-3-1-3-1h4l2 2zm-4-3h-7l5-1 2 1z"/>
    <path fill="#f8c83c" d="M244 255l2 1 2 2-1 2h-4l-1-2 2-3zm0-2l-2-2v3l2-1z"/>
    <path fill="#f8c83c" d="M243 257h2m-3-1l2-2-1-1a6 6 0 0 0-1 2v1zM241 257l1 1 2-1-2-1h-1v1z"/>
    <path fill="#f8c83c" d="M243 256l-2 1-1-1 1-1h2v1z"/>
    <path fill="#f8c83c" d="M241 257l-2 2v-4l1 1 1 1z"/>
    <path fill="#f8c83c" d="M238 255l3 1-2 1-1-2z"/>
    <path fill="#202220" d="M231 259l2 1 2-1-3-1-1 1z"/>
    <path fill="#4b4139" d="M231 259l2 1 2-1-3-1-1 1 1-1 3 1-2 1-1-1a2 2 0 0 1-1 0z"/>
    <path fill="#202220" d="M232 258l2 1 3-1-3-2-2 2z"/>
    <path fill="#4b4139" d="M232 258l2 1a4 4 0 0 0 3-1l-3-2-2 2 2-2 3 2h-1a4 4 0 0 1-2 1 2 2 0 0 1-2 0 1 1 0 0 1 0-1zM232 259h3-3z"/>
    <path fill="#202220" d="M234 257l2 2 1-1-1-3-2 2z"/>
    <path fill="#4b4139" d="M234 257v1l2 1 1-1-1-3-2 2 2-1 1 2-1 1-2-1a3 3 0 0 1 0-1z"/>
    <path fill="#4b4139" d="M234 258l2 1 1-1-1 1h-1v-1h-1zm-3 1l2 1 1-1v1h-2l-1-1z"/>
    <path fill="#f8c83c" d="M238 255l2 2-1 2-3-2v-1l2-1zm-7 0l-1-1v2h1v-1zM231 256l-1 1v1l2-1-1-1z"/>
    <path fill="#f8c83c" d="M232 257l-2 1 1 1 1-1v-1zm0-4h-1l-1 1 1 2 2-1-1-2z"/>
    <path fill="#f8c83c" d="M232 254l-1 2 1 1 2-1-1-1z"/>
    <path fill="#f8c83c" d="M234 257l-2 2-1-2 2-1 1 1zm2-6l-2-1-2 3v2l3-2 1-2z"/>
    <path fill="#f8c83c" d="M233 256l-1-2 2-1 1 2-2 1zM236 256l-1 1h-2l1-1 1-1 1 1z"/>
    <path fill="#f8c83c" d="M235 254l-1 1 2 1h1l1-2-1-1-3 1z"/>
    <path fill="#202220" d="M237 250h-2l-1 2v2l2-1 1-1h-1l1-2z"/>
    <path fill="#4b4139" d="M237 250l-1 1-2 1v0l2-2a3 3 0 0 1 1 0z"/>
    <path fill="#f8c83c" d="M263 270l1-1 2-1v2l-1 1h-1l-1-1z"/>
    <path fill="#f8c83c" d="M261 270h2l1 1h-1l-1 1-1-1v-1zm10-1l-1-1-2-1v4h2l1-1v-1z"/>
    <path fill="#f8c83c" d="M261 270l-1-1-2 2 1 2h2l5-3-1 1h-2-1-1v-1z"/>
    <path fill="#f8c83c" d="M264 271l-1 1a7 7 0 0 1-1 0v1l2 1 1-1v-2h-1zm8-1l-1-1-1 1v1l1 1h1l1-1-1-1z"/>
    <path fill="#f8c83c" d="M266 270h-1l-1 1 1 1h1l2-1v-1h-2zm8 1h-1l-1-1-1 1v1l1 1h1l1-1v-1z"/>
    <path fill="#f8c83c" d="M270 273h2l1 2h2l2-2h-1v-2h-2l-1 2a2 2 0 0 1-1-1l-1-1-1-1h-1a3 3 0 0 1 0-1l-2 1-1 2h-1s0 2-1 1l-2-1-1 1-1 1 1 2h2l1-1 1-1 2-1"/>
    <path fill="#f8c83c" d="M269 265v5h-3v-2l3-3zM267 272v1a1 1 0 0 0 1 0v-1l1 1c2 0 1-1 1-1"/>
    <path fill="#202220" d="M257 275v-2h2v-1l-1-1s-2 0-2 2l1 2zm4 4v-2l1-1v-1l-2-1-1 3 2 2zm15-2s2 1 3-1c0-2-2-3-2-3l-1 1-1 1 2 1-1 1z"/>
    <path fill="#4b4139" d="M261 279s-2-1-2-3l1-2-1 2c0 2 2 3 2 3zm-4-4l-1-3c-1-1 2-1 2-1s-2 0-2 1l1 3zm19 2h1l1-1v-2l-1-1 1 1v2l-2 1h-1z"/>
    <path fill="#904720" d="M242 218v-1l1-1h3l1 1 1 2-3 1v1l-1-1v-1z"/>
    <path fill="#202020" d="M270 260l-1-4-12 4 5 4z"/>
    <path fill="#d2a567" d="M248 253l-1-1-2-1h-1l1 1 1 1 1 1 1 1v-2zm-1 2h2v1l1 1v1h-2l-3-2 1-1h1z"/>
    <path fill="#d2a567" d="M250 258l1-1v-6l-3-3-1 2 1 4 1 2z"/>
    <path fill="#ab6d29" d="M248 249v2l1 6-1-2-1-6c0-3 1 0 1 0zM250 252l-1 1v2l1-1v2l1-4h-1zm0 7h-3l-3-2h4l1 1h1l2-1v2h-2zm-6 0l1 1h-2l3 1 1-1a280 280 0 0 0-3-1z"/>
    <path fill="#d2a567" d="M243 258h4v1h1l-1 1-2-1-1-1h-1z"/>
    <path fill="#ab6d29" d="M251 256l1 1v-4l-1-1z"/>
    <path fill="#4d2a15" d="M248 253l-1-2-2-2 1-2 1 2v2l1 2z"/>
    <path fill="#d2a567" d="M241 259l1-1h2l2 2h1-4l-2-1z"/>
    <path fill="#8f4620" d="M251 252v3l1 2-1 1h-2l1-1v-2-1h-1l1-3 1 1z"/>
    <path fill="#ab6d29" d="M244 258h-1l3 1h3v1l-2 1h-1v-2h-2v-1z"/>
    <path fill="#8f4620" d="M248 253l-4-4v-5l2 4v1l2 4z"/>
    <path fill="#ab6d29" d="M246 263v-2a15 15 0 0 1 6-3v2l-5 3h-1z"/>
    <path fill="#8f4620" d="M246 261l2-1-2-1a8 8 0 0 1-2-1l2 2v1zm7 0l-1-1v-2l-1 1h-1l1 1h-2 1l-1 1a15 15 0 0 0-3 2h1l3-1 3-1z"/>
    <path fill="#ab6d29" d="M253 261l-1-4-1-4 2 1 1 2-1 5z"/>
    <path fill="#8f4620" d="M254 255l-1 4v2a7 7 0 0 0 2 2v-5l-1-3z"/>
    <path fill="#202020" d="M256 258s0 5-1 5l-2-2 2 2v-5zm-3 3c-1-1 0 0-3 1l-4 1 4-1 2-1h1z"/>
    <path fill="#ab6d29" d="M248 255l1 1 1 2-1-2-2-2 1 1z"/>
    <path fill="#8f4620" d="M246 261v-1h-2a27 27 0 0 1-3-1l2 1a95 95 0 0 0 3 1z"/>
    <path fill="#202020" d="M246 261l-3-1-2-1 2 1 3 1z"/>
    <path fill="#ab6d29" d="M247 255h-2l-1 2h1v-2h2z"/>
    <path fill="#8f4620" d="M244 251l2 2 1 1 1 1-3-2-1-2z"/>
    <path fill="#8f4620" d="M247 252l-1-1h-2l1 2h1l-1-1h2z"/>
    <path fill="#202020" d="M253 249l14-7 6 9-12 3-6 1-3-3z"/>
    <path fill="#4d2a15" d="M271 253l17 14-2 2-4-1-8-9-3-3z"/>
    <path fill="#4d2a15" d="M293 264l-10-7-12-9v4l14 13 5 2h2l1-2v-1z"/>
    <path fill="#803f1d" d="M271 254l9 8 8 6v-1l-17-14v1z"/>
    <path fill="#4d2a15" d="M283 268l-2 1h-2l-10-11 1-2h1z"/>
    <path fill="#202020" d="M293 264s-1 3-4 3c-3-1-18-15-18-15v1s15 14 18 15c3 0 5-2 5-3a36 36 0 0 0-1 0z"/>
    <path fill="#803f1d" d="M270 256l7 9 6 4c1-1-1-2-1-2l-7-7-4-4h-1z"/>
    <path fill="#202020" d="M271 256l13 13c2 1 5-1 5-1l-1-1s-1 1-4 1a82 82 0 0 1-13-12z"/>
    <path fill="#4d2a15" d="M275 268l-4-5-1-2v-2l8 9-1 1h-1z"/>
    <path fill="#202020" d="M283 268l-2 2a4 4 0 0 1-2-2l-9-8v-1l11 10 2-1z"/>
    <path fill="#202020" d="M279 268l-2 1h-2l-5-7v-1l7 8 1-1h1z"/>
    <path fill="#b07229" d="M273 252l6 4 2 1h-1l3 3h1l2 3h1l4 3c-1 1-5-3-5-2a4 4 0 0 1 0 1l-1-2-2-2-1 1v-2l-3-2v1l-1-2-5-5z"/>
    <path fill="#4d2a15" d="M264 266v2l-3-3v-4l2 2 1 3zm7-1v-4l-1-2h-1l-1 1v3l1 2 1 1 1-1z"/>
    <path fill="#4d2a15" d="M269 268v-2l-1-4-1-2h-1l-1 1v1l2 4 2 2z"/>
    <path fill="#202020" d="M268 260l1 2 1 3-1 1 2 1v-2h-1v-6l1 4v-2l-1-2 1-1v-1l1-1v-5l-6 7 2 2z"/>
    <path fill="#202020" d="M268 259l1 4 1 3v2l-2-5-1-3h-1l2-1z"/>
    <path fill="#4d2a15" d="M268 270v-1l-1-2-2-4-2-2-1-2v4l3 4 3 3z"/>
    <path fill="#202020" d="M260 261v2l1 3 2 2 1-1-1 1-2-5v-1l-1-1zm5 4l-1-2-1-2-1-1 2 1 1 1 1 1-1 2z"/>
    <path fill="#5c3a1d" d="M262 263l1 2 2 2-2-2-1-2z"/>
    <path fill="#202020" d="M266 261v-1h0l-1-1v1l1 1zm-1 1l2 4 1 3-1-2-2-4v-1z"/>
    <path fill="#4d2a15" d="M267 260l1-5-1-2-2-5-1 1a5 5 0 0 1-2-2 7 7 0 0 0 0 4l4 8h1z"/>
    <path fill="#8b441f" d="M259 263h1v-2l-7-8 6 10z"/>
    <path fill="#8b441f" d="M263 260l-1 3-8-9-3-3 4 1 7 7 1 1z"/>
    <path fill="#202020" d="M259 263l-1-2v-2a91 91 0 0 0-5-6l-1-1a12 12 0 0 0 0 2l3 4 4 5z"/>
    <path fill="#4d2a15" d="M265 262v-3l-3-8-1 1-2-2-1-1v4l3 4 4 5zm4-5l1-1-1-3-2-8h-1a6 6 0 0 1-1-1l1 5 2 6v2h1z"/>
    <path fill="#202020" d="M262 259l-3-3-1-3h-2l-1-1s-1 1 2 4c4 4 5 3 5 3z"/>
    <path fill="#8b441f" d="M268 260v-7l-3-5 2 6v3l-1-3-1-2 2 7-5-8s3 10 5 9z"/>
    <path fill="#4d2a15" d="M270 241l1 3 1 4v3l-1 6-1-1-1-6-2-7 1-1v-1h2z"/>
    <path fill="#8b441f" d="M265 262v-2h-1l-1-2v-2l-1 2-4-5s4 9 7 9z"/>
    <path fill="#202020" d="M263 258l1-3-2-4h-1l-2-1a30 30 0 0 0 4 8zm3-2l-2-5a13 13 0 0 0-2-4v3l2 2a28 28 0 0 1 2 4zm3-5l-1-4v-5l1 2v-2a11 11 0 0 0 0-1h-1v1h-1v3l1 3 1 3zm3 0l-1-7a9 9 0 0 0-1-4l-1 1 2 4 1 6zm-4 2l-1-5-1-3-1-1v4l1 2 1 3z"/>
    <path fill="#904720" d="M270 258v-6l-3-7 2 9-1-2 1 5-1-1v1l2 1z"/>
    <path fill="#904720" d="M271 256l-1-7-1-6 1 6 1 8-1-1v-1l1 1z"/>
    <path fill="#312317" d="M263 261l-1 2-2-2 2 2v-3l1 1z"/>
    <path fill="#d2a567" d="M267 240h2a3 3 0 0 0 2-3l-1-2 1 2c0 2 0 4-2 4h-1l-1-1z"/>
    <path fill="#8f4620" d="M266 236l1 4 1 2h-1l-1-6z"/>
    <path fill="#1e2121" d="M243 238l9 13 10-12-6-7z"/>
    <path fill="#4d2a15" d="M254 231v2l1 3 1 2 2 1 1-1v-2h2l1-1 1-2v-2l-2-4-1 2h-1l-1-1-1 2-2-1z"/>
    <path fill="#5c3818" d="M258 239l1-1v-5l-1-3 1 5-1 4c-1 0 0 0 0 0zM259 234s1 2 2 2v-5l-1-2v-1l1 3v5l-2-1v-1z"/>
    <path fill="#8f4620" d="M254 236l1-1h1l1 2 1 1v2h-1l-2-1v-1l-1-2z"/>
    <path fill="#d2a567" d="M258 253l-3-1-6-5v-3h1l3-1 1-1 4-2 2-1h4l1-2 2 3v5l-2-1v5l-3-2v4l-4-2v4z"/>
    <path fill="#8f4620" d="M257 248l1 1-1 3-1-3-2-3 3 2zm9-11v7l-3-2-3-5-1-1h2l4 1zM254 250l-1-1-2-3-2-2-1-1h1v-1l5 4v4zm7 0l-4-4-3-4a59 59 0 0 1-1-1h1l7 9zm1-3l-2-2-1-2 3 4zm1 0l-3-4-1-2a4 4 0 0 0-1-1h-1 1l1-1v-1l4 7v2z"/>
    <path fill="#ab6d29" d="M255 252h-1c-1 0-6-2-8-6a1712 1712 0 0 1-3-4l1-1 8 9 3 2z"/>
    <path fill="#8f4620" d="M255 252h-1c-1 0-3 0-6-4l-4-6v-1l1-1 5 8 5 4z"/>
    <path fill="#4d2a15" d="M260 249l-3-3-3-5h1v-2l2 1 2 2v1l1 3-2-1 2 3zm-3-1v1h-1l-2-3v2l-3-3-2-2v-4l1 1 3 3 2 3 2 2zm-11-5l4 6a14 14 0 0 0 5 3l-7-8-2-1zm17 2l-3-3a9 9 0 0 1-1-4v-2l3 3 1 3-2-1 2 4zm2-2l-1-2-1-3-1-2v-3h1l2 2 1 3v5zm-17 6l-4-5-1-2h1l4 6 3 3 1 3-4-5z"/>
    <path fill="#202020" d="M251 253l-5-5-3-6 1-1 3 6a610 610 0 0 0 4 6zm4-1l-5-5a18 18 0 0 1-2-3h1l2 3 4 5zm-1-6l-2-3-2-3 3 3h1v3zm1-8v2l-1 1 2 2 1 1-1-2-1-2 2 1 2 2-1-3a43 43 0 0 0-3-2z"/>
    <path fill="#202020" d="M262 242l-2-3-1-4v2l-1 3h-1c-1-1 0 0 0 0h1l1-2 1 2 2 2z"/>
    <path fill="#202020" d="M259 235s2 2 2 1l1-3h1v-1l3 4 1 4-2-4-2-3v2l1 3 1 3-1-2-2-1-1-2h-2v-1z"/>
    <path fill="#171717" d="M253 243l2 2 2 3-2-3-2-2z"/>
    <path fill="#8f4620" d="M264 243h-1l1 2 1 1v-3h-1z"/>
    <path fill="#d2a567" d="M245 232h-1l-1 2v5l2 2c0 1 2 4 3 3l1-2v-3l2 2 2 2 2-3-4-8-1-1-5 1z"/>
    <path fill="#ab6d29" d="M252 238l1 3v2l2-3-1-5v-4l-1-1-1 3v5zm-6-2l1 4 1 3 1-4v-4l-1-4-2 5z"/>
    <path fill="#45392d" d="M242 230l-2 6 1 3v5l1-1v-13z"/>
    <path fill="#ab6d29" d="M242 231l-2 5 1 3 1 5 1-1a7 7 0 0 0 2-2l-1-2-1-1v-7l-1-1z"/>
    <path fill="#dbad6c" d="M254 236h-2v-2l2 2z"/>
    <path fill="#d2a567" d="M242 231l-1 6a16 16 0 0 0 2 5v-11h-1z"/>
    <path fill="#8f4620" d="M246 232v1l-1 2-1 2 1-2h1v2l-1 1a3 3 0 0 0 0 2l1-2 1 2v-2l1-2c1 0 1 0 0 0v-4h1a9 9 0 0 0-1-2l-2 2z"/>
    <path fill="#dbad6c" d="M254 239l-2-1v-1l1 1 1 1z"/>
    <path fill="#8f4620" d="M244 239l-1 1v1l-1-2v-2-2-1h-1v1-1l2-2v-1h1l1 1-1 1-1 2 1 4zm7-7v2l-1 1v2-1l1-1v2l1 2v-1h1l1 1-1-1-1-2v-1h1l1 1h-1v-3l1-2v-1l-3 2z"/>
    <path fill="#1e2121" d="M260 229v3l1 3-1-3-1-3-1 1a10 10 0 0 0 1 3l-1-1-1-2v1l1 3-1-1-1-1 1 2 1 1-1-1a2 2 0 0 1-1 0l1 2 1 3-2-3a21 21 0 0 1 0-6l1-1 1-4 1 3 1 1zm-7-1v1l1 1-2 2-2 1-1-1 2-2a5 5 0 0 0 1-1l1-1zm-9 3l1 2 3-3v-1l-3 2a1 1 0 0 1-1 0zm0-2v2h-2v-1l1-1h1zm16-3l2 3 1 2-2-2a121 121 0 0 1-1-1v-2z"/>
    <path fill="#dbad6c" d="M242 230h1v-1h1v2h1a3 3 0 0 0 2-1l1-1v2l2 1 2-3 1-1h1l1-5h-3l-1-1-1 1v1h-2v-1h-1l-2 2h-1l-1 1-1 1-1 2 1 1z"/>
    <path fill="#8f4620" d="M251 225v3c0 2-2 3-2 3l3-3 1-5-2 2zm2-2l1 2-1 3v1l2 2 2-2 1-3v1l1 1 1 1v-1l-1-3-1-4-1-1-2 1-2 2z"/>
    <path fill="#ab6d29" d="M257 220l1 3v3-3l-1-2v-1z"/>
    <path fill="#4d2a15" d="M261 226v2c-1 1-1 0-2-2l-1-4-1-2h1l3 6zm-6 4s2-1 2-5l-1-5v5l-2 3h1v-1 3zm-2-7l-1 2-2 1 1-2v-1 1h-2l1-1 1-2 1 1 1 1z"/>
    <path fill="#1e2121" d="M260 219l1 3v4l-2-2v-3a3 3 0 0 0-1-1h-1l1-1a4 4 0 0 0 2 0zm-5 8l1-4v-3h-1l-1-2v3l-1 2h1l1-2v6z"/>
    <path fill="#8f4620" d="M241 230l1-3 2-3h1a3 3 0 0 0 2-1 8 8 0 0 0 0-2l1 2 1 1v2l-1 3v-3l-1 1-1 1 1-1v-1h-1 1v-2l1-1h-1l-1 1-1 1v2a13 13 0 0 1-1 2h-1l1-1 1-3h-1l-1 2-1 3h-1z"/>
    <path fill="#874f20" d="M261 218l-1 1a3 3 0 0 1-2 0v-1h3z"/>
    <path fill="#b27129" d="M245 220l-1 2-1 2h1l1-3v-1z"/>
    <path fill="#dbad6c" d="M255 218s-1 5-2 5l-2-2s0 3-2 3l-2-3-1 3h-3l2-4h1l1-1 2-1 1-1 1-1a3 3 0 0 0 1-1l2 2 1 1z"/>
    <path fill="#b27129" d="M249 213l2 3h1v1l1 5 1-4c0-2 0 0 0 0 1 1 2 3 3 2l1-2-1-3-5-3v1h-3z"/>
    <path fill="#8f4620" d="M256 213l1 1v5l-2-1-1-3a7 7 0 0 1-1-2v-2h2l1 2z"/>
    <path fill="#4d2a15" d="M256 212l2 3 2 2v1a2 2 0 0 1-2 0l-1-4a8 8 0 0 0-3-2l1-1 1 1z"/>
    <path fill="#1e2121" d="M255 210l2 3 2 3 2 2h-1a4 4 0 0 1-1-2l-2-3a7 7 0 0 0-2-1l1 1a6 6 0 0 1 1 3l-1-2-2-2 1 2 1 3-2-3-1-1-1-2h2l1-1z"/>
    <path fill="#8f4620" d="M250 213l2 1h1v1l-1 1v-1a21 21 0 0 0-2-2z"/>
    <path fill="#b27129" d="M251 217v3l-2 3v-3l-1 1v-3l2-1 1-1z"/>
    <path fill="#8f4620" d="M248 218h-1l-1 1h1v1l-2 2 2-2 1-1v-1l1 1v2a9 9 0 0 0 1-2v-2l-2-1v2z"/>
    <path fill="#dbad6c" d="M255 209l-1 2h-2l-4-2h-2v-1h3l2 1h4z"/>
    <path fill="#ab6d29" d="M255 209l-1 1h-1l-3-1-3-1c-1 0 0 0 0 0h3l3 1h2z"/>
    <path fill="#4d2a15" d="M246 208h1v-1 1h-1z"/>
    <path fill="#dbad6c" d="M252 212l1 2-2-1-3-2-2-1h-1 1v-1h2l3 1 1 2z"/>
    <path fill="#dbad6c" d="M250 213l1 3-4-3-2 3-3-2 3-3h2l3 1v1z"/>
    <path fill="#ab6d29" d="M249 209l3 1 2 1-2 1-1-1-2-1v-1z"/>
    <path fill="#4d2a15" d="M246 208l2 1h1v1l-2-1h-1v-1z"/>
    <path fill="#ab6d29" d="M252 213l1 1h-3l-2-2a15 15 0 0 0-2-1h-1 3l2 1 2 1zm-4 1l1 2-1 2h-1v-1l-2-1 1-2 1-1 1 1z"/>
    <path fill="#4d2a15" d="M245 210l2 1h2l2 1 1 1-1-1a14 14 0 0 0-3-1h-3v-1z"/>
    <path fill="#ab6d29" d="M251 216v1l-2-1-1-1-2-1v-1l3 2 2 1z"/>
    <path fill="#4d2a15" d="M251 216l-4-3h1-1a22 22 0 0 0-1 0l-2-1v1a11 11 0 0 1-1 0 4 4 0 0 1 2 0l1 1-1 2 2-1h1-1v-1l2 1 2 1z"/>
    <path fill="#dbad6c" d="M247 214s2 0 2 3c0 2-2 2-2 1-1-1 0 0 0 0l1-2v-1a10 10 0 0 0-1-1z"/>
    <path fill="#6c3f18" d="M237 208l-1 2a9 9 0 0 1-1 3l-3 3 1 1 4-5v-4z"/>
    <path fill="#dbad6c" d="M245 205l1 4-4 5-5 3h-3-1v-2l2-2 1-2 1-2v-1 1l1 1-1 2 2-1 1-1 1-1 1-3v-2l1 2v2l1-1 1-1v-2z"/>
    <path fill="#904720" d="M246 218v1l-2 2v-2l-1-1h-1l2-1 1 1z"/>
    <path fill="#ab6d29" d="M245 218l1-1v1l-2-1h-1c-1 0 0 0 0 0h1v1z"/>
    <path fill="#904720" d="M237 214h2l2-1 1-1c1 0 3-1 3-4v-4c0 1 3 4 0 7l-3 3h3v2l2 1h-3a4 4 0 0 0-2 1l-2-1-2 1-4-1 2-2 1-1z"/>
    <path fill="#ab6d29" d="M243 208l2-2v-1l-1 1a10 10 0 0 1-1 2z"/>
    <path fill="#904720" d="M243 205v5l-5 4 4-4 1-4v-1z"/>
    <path fill="#1e2121" d="M239 214h2l1-2-1 1v-1l-1 1a4 4 0 0 1-1 1zm3-4l1-4-1-2v6zm1 0l2-1v-2 2l-2 1zm-1 8l2-1 1 1-1-1a3 3 0 0 0-2 1zm-2-3h3l2-1-2 2-2 1 2-2h-3z"/>
    <path fill="#fff" d="M237 213a2 2 68 0 1-2 3"/>
    <path fill="#f16e16" d="M237 213a2 2 68 0 1-2 3"/>
    <path d="M236 214a1 1 0 1 1-1 1"/>
    <path fill="#d5d3ca" d="M236 215z"/>
    <path fill="#ab6d29" d="M238 211l1-2v-3l1 1v3l1-1a10 10 0 0 0 1-5v3c0 2-1 3-3 4a8 8 0 0 0-3 3 13 13 0 0 1-2 3l2-3 1-2 1-1z"/>
    <path fill="#904720" d="M237 212v-2-2l1 2-1 2z"/>
    <path fill="#4d2a15" d="M239 210l1-2-1-2 1 2-1 2z"/>
    <path fill="#ab6d29" d="M234 217l-1-1 1-2a9 9 0 0 0 2-2c1-1 2-3 1-4l-1 3a13 13 0 0 1-2 3l-1 2v1h1z"/>
    <path fill="#6c4119" d="M244 221l1-1v-1a3 3 0 0 0-2-1h-1l1 1h1v2z"/>
    <path fill="#6c4119" d="M244 221l2-2v-1 1l1-1s-1 3-3 3z"/>
    <path fill="#bf802d" d="M236 220l1 1v1l3-1 1-1-1-1h-2l-2 1z"/>
    <path fill="#f9c83a" d="M243 219l-1-1h-4-1l-2-1h-3l-1 1h0l-3 4c0 2 4 5 6 3 0 1-3-1-2-2 0-2 1-3 3-3l3-1s2-1 3 1c1 1-4 2-4 2s6-2 6-3z"/>
    <path fill="#fcf3d8" d="M232 225s-3-1-3-3a4 4 0 0 1 3-4l1-1h1l1 1s-4 2-4 5v2z"/>
    <path fill="#fdeaaf" d="M243 219l-3-1h-4l-3-1-1 1h-1l2-1 4 1 3-1 3 2z"/>
    <path fill="#513625" d="M236 221l2-1 2-1-2 2h-2z"/>
    <path fill="#f9c83a" d="M233 226l-3-1c-2-1-2-3-2-3l2-3 1-1v1l-1 1-1 1v3l2 1 2 1z"/>
    <path fill="#8b5122" d="M232 217a4 4 0 0 0-1 0 1 1 0 0 0 0 1h1a2 2 0 0 1 0-1z"/>
    <path fill="#f9c83a" d="M236 219l-3 1h2a4 4 0 0 1 1 0h4c1 1-3 2-3 2l3-1 1-1h1l-1-1h-5z"/>
    <path fill="#8f4620" d="M232 224l1 1-1 1c-1-1-3-1-4-4v1l1 1 1 1 1 1h2l1-1h-1l-1-2v1z"/>
    <path fill="#fcca3d" d="M242 250v1h-1v-1zm-4-27l-1-2h-1l1 2z"/>
    <path fill="#816c2a" d="M242 252h-2l-2-1a5 5 0 0 1 2 1 11 11 0 0 1 1 1l1-1zm0-2h-3l-1 1a3 3 0 0 1 2-1 18 18 0 0 1 2 0zm-1-2l-2 1-1 1 1-1a15 15 0 0 1 2-1zm-1-2a2 2 0 0 1 0 1 7 7 0 0 1-1 0l-1 2h-1v1a165 165 0 0 0 1-2l1-1h1v-1zm-2-1a3 3 0 0 1 0 1l-1 2v1l1-2a4 4 0 0 0 0-2zm-2-1a7 7 0 0 0 1 1 5 5 0 0 1-1 2 97 97 0 0 1 0 1v1l1-2v-3h-1zm-1 0v3a41 41 0 0 0 0 2v-2-3zm-1 1a10 10 0 0 0 0 2l-1 2h1a17 17 0 0 1 0-2v-2zm-1 0l-1 2v2l1-2a7 7 0 0 0 0-2zm-2 0v2l-1 1a8 8 0 0 1-1 1l2-2a5 5 0 0 0 1-2h-1zm0 0a5 5 0 0 1-1 1l-1 1h-1v1l2-2 1-1zm-1-1a7 7 0 0 1-1 1l-1 1 1-1h1v-1zm-1-1v1a14 14 0 0 1-1 0 5 5 0 0 1 0 1h-1 1l1-2zm0 0h-1l-1 1h1l1-1zm0-1l-1 1a2 2 0 0 1-1 0h1l1-1zm-1-1a3 3 0 0 1 0 1h-1 1a3 3 0 0 0 1-1h-1zm0-2v1l-1 1a1 1 0 0 0 1 0v-1h1l-1-1zm9-10h1-1zm0-1h1l1-1-1 1h-1zm0-1l1-1h1l-1 1h-1zm-1-1l2-1 1-1-1 1-2 1zm0-1l2-2-3 2h1zm-2-1l2-1 1-1h-1l-2 1v1zm0-1a93 93 0 0 1 2-2 90 90 0 0 0-3 2h1z"/>
    <path fill="#78732e" d="M236 220a14 14 0 0 1 2 2l1 4a8 8 0 0 1-2 4l-6 5a14 14 0 0 0-2 3 5 5 0 0 0-1 3l1 2a4 4 0 0 0 3 2l5-1 3 2 1 5a19 19 0 0 1 0 3 21 21 0 0 1 0 1l1-4-2-5a5 5 0 0 0-3-2l-5 1a3 3 0 0 1-3-2 5 5 0 0 1-1-2v-1l2-3 5-5c2-2 4-3 4-6l-2-4a14 14 0 0 0-1-2z"/>
    <path fill="#a8ac71" d="M234 223h-1 1zm0 1v-1 1z"/>
    <path fill="#78732e" d="M236 225h-1 1zm0 1zm1 1zm0 1zm0 1zm-10 12v-1 1z"/>
    <path fill="#fff" d="M227 242z"/>
    <path fill="#78732e" d="M227 243z"/>
    <path fill="#fff" d="M227 244zm1 1h-1zm0 1z"/>
    <path fill="#a8ac71" d="M229 248h-1zm1 1h-1c0-1 0 0 0 0h1zm7 1v-1 1z"/>
    <path fill="#fff" d="M238 250z"/>
    <path fill="#a8ac71" d="M238 250v1-1zm0 1z"/>
    <path fill="#fff" d="M238 253v-1 1zm-12-42z"/>
    <path fill="#f9c83a" d="M236 220z"/>
    <path fill="#8f4620" d="M236 220h-1 1z"/>
    <path fill="#977c2e" d="M241 255z"/>
</svg>
