<svg xmlns="http://www.w3.org/2000/svg" xmlns:xlink="http://www.w3.org/1999/xlink" viewBox="0 0 512 512">
    <path fill="#cc0001" d="M0 0h512v512H0z"/>
    <path id="a" fill="#fff" d="M0 476h512v36H0z"/>
    <use width="100%" height="100%" transform="translate(0 -73)" xlink:href="#a"/>
    <use width="100%" height="100%" transform="translate(0 -146)" xlink:href="#a"/>
    <use width="100%" height="100%" transform="translate(0 -219)" xlink:href="#a"/>
    <use width="100%" height="100%" transform="translate(0 -293)" xlink:href="#a"/>
    <use width="100%" height="100%" transform="translate(0 -366)" xlink:href="#a"/>
    <use width="100%" height="100%" transform="translate(0 -439)" xlink:href="#a"/>
    <path fill="#010066" d="M0 0h320v293H0z"/>
    <g fill="#fc0">
        <path d="M124 52a93 93 0 0 0-93 93 93 93 0 0 0 143 78 83 83 0 0 1-27 4 83 83 0 0 1-82-82c0-45 37-82 82-82a83 83 0 0 1 29 5 93 93 0 0 0-52-16z"/>
        <path d="M278 193l-39-20 12 42-27-35-8 42-8-43-26 36 12-42-40 20 29-33-44 2 41-17-41-18 44 2-29-33 40 21-12-42 26 35 8-43 8 43 27-35-12 42 39-20-29 32 45-1-41 17 41 17-45-2z"/>
    </g>
</svg>
