<svg xmlns="http://www.w3.org/2000/svg" viewBox="0 0 512 512">
    <defs>
        <clipPath id="a">
            <path d="M0 0h496v496H0z"/>
        </clipPath>
    </defs>
    <g clip-path="url(#a)" transform="scale(1.0321)">
        <path fill="#009a00" fill-rule="evenodd" d="M0 0h744v155H0z"/>
        <path fill="#fff" fill-rule="evenodd" d="M0 155h744v16H0z"/>
        <path fill-rule="evenodd" d="M0 171h744v155H0z"/>
        <path fill="#fff" fill-rule="evenodd" d="M0 326h744v15H0z"/>
        <path fill="#ffca00" fill-rule="evenodd" d="M0 341h744v155H0z"/>
        <path fill="red" fill-rule="evenodd" d="M0 0v496l326-248L0 0z"/>
        <path fill="#ffca00" fill-rule="evenodd" d="M192 323l-49-37-50 37 19-59-50-36 62 1 19-59 19 59 61-1-50 36z"/>
        <path fill="#fff" fill-rule="evenodd" stroke="#000" stroke-linecap="round" stroke-linejoin="round" d="M100 282h35c3 3 10 4 16 0 11-6 33 0 33 0l4-5-10-34-4-4s-8-5-23-3c-16 2-21-1-21-1s-13 2-17 4l-4 4-9 39z"/>
        <path fill="none" stroke="#000" stroke-linecap="round" stroke-linejoin="round" d="M107 273s34-4 44 9c-6 4-11 4-16 0 1-1 12-13 42-9"/>
        <path fill="none" stroke="#000" d="M143 239v38m31-37l6 29"/>
        <path fill="none" stroke="#000" stroke-linecap="round" stroke-linejoin="round" d="M113 239l-3 15"/>
        <path fill-rule="evenodd" stroke="#000" stroke-linecap="round" stroke-linejoin="round" d="M76 286l9 10h3l12-15 5-7a4 4 0 0 0 1-3l10-9 2 1v-2l2-2 2 2-3 4h-3l-5 4 2 2 4 10 4-3-3-10 6-6-2-4 1-2s21 13 29 10v-10s-21-2-22-6c0-4 5-5 5-5l-2-3v-2l4 5 9-7 50 57c2-1 3-2 3-5l-49-56 4-4 1-2 6-5a7 7 0 0 1 3 3l16-14h3l26-24-29 20-1-1v-3c-1-1-3 2-3 2l-5-3v4l-7 7h-6l-8 7-1 3 1 3-4 3-1-1 4-3 1-2-2-2-5 4-13-15v-3l-8-9c-3-1-8-1-9 6h-11l-19 28 11 14 22-29 1-8 4 5h5l13 15-2 2 2 2 2-2 1 2-3 2c-2-1-4-3-3-5l-8 6v1l-22 19h-2l-1 6 15-12v-2l1 1 11-9 1 1-10 9v1l-2 2-1-1-14 12h-2l-7 7-5 2-14 12z"/>
    </g>
</svg>
