<svg xmlns="http://www.w3.org/2000/svg" viewBox="0 0 512 512">
    <defs>
        <clipPath id="a">
            <path d="M0 0h512v512H0z"/>
        </clipPath>
    </defs>
    <g fill-rule="evenodd" clip-path="url(#a)">
        <path fill="#fff" d="M0 0h512v512H0z"/>
        <path fill="#3662a2" d="M-108 0l1 369L467 0h-575z"/>
        <path fill="#38a100" d="M631 512l-2-384L50 512h581z"/>
        <path fill="#c70000" d="M-108 397l1 115H18l612-410-1-101-124-1-613 397z"/>
        <path fill="#ffe700" d="M154 183l-23-14-13 24-13-24-24 14 1-27H55l14-23-24-13 24-13-14-24 27 1V56l23 14 14-23 13 24 23-14v27h27l-14 23 23 13-24 14 14 23-27-1z"/>
        <path fill="#3662a2" d="M168 120c0 27-22 49-50 49s-50-22-50-49a50 50 0 0 1 100 0z"/>
        <path fill="#ffe700" d="M157 120a39 39 0 1 1-78 0 39 39 0 0 1 78 0z"/>
    </g>
</svg>
