<svg xmlns="http://www.w3.org/2000/svg" viewBox="0 0 512 512">
    <defs>
        <clipPath id="a">
            <path d="M81 0h496v496H81z"/>
        </clipPath>
    </defs>
    <g clip-path="url(#a)" transform="translate(-84) scale(1.0321)">
        <g fill-rule="evenodd">
            <path d="M1 0L0 496h659L1 0z"/>
            <path fill="red" d="M659 496V0H0l659 496z"/>
        </g>
        <path fill="#fc0" stroke="#fc0" stroke-width="2" d="M407 123h-9c-3-6-10-9-15-6h-26l16 7c4 11 18 13 18 13-1 20-20-2-36 9-12 7-12 15-18 28a119 119 0 0 1-10 13l13-1-4 6 16-2-3 3 18-4-1 5 18-6 7 4 2-9 9 2 3-9c13 18 18 37 43 41l-2-9 20 9 2-4c11 8 20 8 26 9l-5-12 5 3-7-19 7 3-9-14 3-2-1-7c14 4 32 11 34 27 2 25-25 32-43 30 13 11 39 7 50-5a47 47 0 0 0 9-18c2 7 7 16 7 25-2 21-30 28-48 30 21 11 57-2 59-32 0-25-16-37-22-48a231 231 0 0 1-3-12l7 3-4-9-10-24 5 1-19-24h6s-22-17-28-20l7-2c-14-7-30-2-44 7l3-7h-5v-7l5-7-7-2 4-11-6 2 2-12s-5 3-8 2l3-7c-2-4 0-11 0-11-16 3-18 5-27 19-14 25-9 36-7 61z"/>
        <path fill="red" fill-rule="evenodd" stroke="red" stroke-width="3" d="M493 161l24 14c-2-11-21-13-24-14z"/>
        <path fill="#fff" fill-rule="evenodd" d="M179 412l-15-9-19 9 4-16-15-16 18-1 10-19 6 16 21 4-13 11zm37-81l-6-3-7 3 1-7-6-5 8-2 3-6 4 6 7 1-5 6zm33-47l-15-7-14 8 2-16-12-12 16-2 7-15 8 14 16 2-11 12zm-67-65l-18-9-17 10 3-20-14-13 19-3 8-18 9 17 20 3-14 14zm-63 68l-18-11-17 11 4-20-15-13 20-2 8-19 8 18 21 2-16 14z"/>
    </g>
</svg>
