<svg xmlns="http://www.w3.org/2000/svg" viewBox="0 0 512 512">
    <path fill="#0038a8" d="M0 0h512v256H0z"/>
    <path fill="#ce1126" d="M0 256h512v256H0z"/>
    <path fill="#fff" d="M443 256L0 512V0"/>
    <g fill="#fcd116">
        <path d="M25 44l16 14 18-10-8 19 15 14-21-2-9 18-4-19-20-3 17-11zm347 185l1 20 19 7-19 7-1 20-12-16-20 6 12-17-12-17 20 6zM37 415l8 18 20-2-14 14 8 19-18-10-16 14 4-20-17-11 20-3zM159 148l-7 7 4 50h-4l-6-46-5 6 8 41c-7 1-13 4-19 7l-23-34h-8l29 36-3 2-33-38H82v10l38 33-2 3-37-28v7l35 24a51 51 0 0 0-7 18l-41-8-6 5 46 6v4l-51-4-6 7 6 7 51-4v4l-46 6 6 5 41-8c1 7 4 13 7 18l-35 24v7l37-28 2 3-38 33v9h10l33-38 3 3-28 36h7l24-34a51 51 0 0 0 18 7l-8 41 5 6 6-46h4l-4 50 7 7 7-7-4-50h4l6 46 5-6-8-41c7-1 13-4 18-7l24 34h7l-28-36 3-2 33 38h9v-10l-38-33 2-3 37 28v-7l-35-24a51 51 0 0 0 8-18l41 8 6-5-46-6v-4l50 4 7-7-7-7-50 4v-4l45-6-5-5-41 8c-1-7-4-13-8-18l35-24v-7l-37 28-2-3 38-33v-9h-9l-34 38-2-3 28-36h-8l-23 34a51 51 0 0 0-18-7l8-41-6-6-6 46h-3l3-50z"/>
    </g>
</svg>
