<svg xmlns="http://www.w3.org/2000/svg" xmlns:xlink="http://www.w3.org/1999/xlink" viewBox="0 0 512 512">
    <path fill="red" d="M205 0h307v512H205z"/>
    <path fill="#060" d="M0 0h205v512H0z"/>
    <g fill="#ff0" fill-rule="evenodd" stroke="#000" stroke-linecap="round" stroke-linejoin="round">
        <path d="M294 327c-35-1-192-100-193-115l8-15c16 23 177 118 193 115l-8 15"/>
        <path d="M108 195c-4 8 41 36 94 68s99 52 102 50l2-3h-5c-14-4-52-21-98-49s-87-54-93-65a7 7 0 0 1-1-4h0l-1 3h0zm187 132l-4 1c-13-1-52-20-98-48-54-32-98-62-93-69l1-3h0c-4 13 88 66 93 69 53 33 98 53 102 48l-1 2z"/>
        <path d="M205 221c34 0 77-5 101-14l-5-9c-14 8-57 13-96 14-47 0-79-5-96-16l-5 9c30 13 61 16 101 16"/>
        <path d="M308 207c-1 1-17 7-41 11a416 416 0 0 1-62 4 444 444 0 0 1-60-4c-25-3-38-9-42-11l1-2a186 186 0 0 0 41 11 439 439 0 0 0 60 4 418 418 0 0 0 62-5c24-4 37-9 39-11l2 3zm-5-9c-3 2-16 7-38 10a414 414 0 0 1-60 5 400 400 0 0 1-57-4c-24-3-36-9-40-10l1-3c3 2 15 7 39 10a423 423 0 0 0 57 4 409 409 0 0 0 59-4c23-3 36-9 37-11l2 3zM92 262c21 12 68 18 113 18 40 0 93-6 113-17l-1-11c-6 9-63 19-113 18-50 0-97-8-112-18v10"/>
        <path d="M319 261v3c-3 3-22 9-45 12a463 463 0 0 1-70 5c-27 0-49-2-66-5a165 165 0 0 1-47-12v-4c10 7 38 12 47 14a433 433 0 0 0 181-13zm0-10v3c-3 3-22 9-45 13a463 463 0 0 1-70 4c-27 0-49-2-66-4a165 165 0 0 1-47-13v-3c10 7 38 12 47 13a433 433 0 0 0 181-13zm-115 74c-48-1-90-14-99-16l7 10c15 7 56 17 93 16s69-4 92-15l7-11c-16 7-69 16-99 16"/>
        <path d="M300 317a153 153 0 0 1-3 5 259 259 0 0 1-35 8 315 315 0 0 1-57 6c-43-1-79-9-95-17l-2-2h1l2 1a306 306 0 0 0 94 15 326 326 0 0 0 94-15l1-1zm5-9h0a302 302 0 0 1-2 4c-6 2-21 6-44 9-15 2-24 4-54 5a371 371 0 0 1-100-15l-2-3a424 424 0 0 0 102 15c27 0 39-2 54-4 26-4 40-9 44-10a3 3 0 0 0-1 0l3-1z"/>
        <path d="M306 253c0 32-16 61-30 74a106 106 0 0 1-72 30c-32 0-63-21-71-30-16-18-29-41-29-72 2-35 16-59 35-76a106 106 0 0 1 69-24c25 1 55 13 76 38 13 16 19 34 22 61zM204 144c62 0 113 50 113 112a113 113 0 0 1-113 112c-62 0-112-50-112-112s50-112 112-112"/>
        <path d="M205 143a113 113 0 0 1 0 226A113 113 0 0 1 92 256a113 113 0 0 1 113-113zM95 256c0 61 49 110 110 110a110 110 0 0 0 0-220A111 111 0 0 0 95 256z"/>
        <path d="M205 153c56 0 103 46 103 103s-47 103-103 103a104 104 0 0 1-103-103c0-57 46-103 103-103zM104 256c0 55 46 101 101 101s101-46 101-101-46-101-101-101-101 46-101 101z"/>
        <path d="M209 143h-9v226h9z"/>
        <path d="M208 142h3v229h-3V142zm-9 0h2v229h-2V142z"/>
        <path d="M317 261v-9l-6-6-39-11-56-5-67 3-48 11-9 8v8l24-11 58-9h56l41 5 28 6z"/>
        <path d="M205 239a394 394 0 0 1 73 6c21 4 36 10 41 16v3c-6-8-26-13-42-16a398 398 0 0 0-146 0c-16 3-38 9-40 16v-3c1-5 17-11 39-16a405 405 0 0 1 75-6zm0-10a396 396 0 0 1 73 7c21 4 36 9 41 15v3c-6-7-27-13-42-16-20-4-46-6-72-6a402 402 0 0 0-74 6c-16 3-38 10-40 16v-3c1-4 17-11 39-15a405 405 0 0 1 75-7zm-1-49c42-1 79 6 95 14l6 11c-14-8-53-16-101-15-38 0-79 4-100 15l7-12c17-9 57-13 93-13"/>
        <path d="M205 188c24 0 47 2 65 5 17 3 34 8 36 11l2 3c-6-4-20-8-38-12a367 367 0 0 0-65-4c-27 0-48 1-66 4-19 4-32 9-36 11l2-3c6-3 16-7 33-10 19-3 40-4 67-5zm0-9a371 371 0 0 1 63 4c14 3 27 7 33 11l2 4c-4-5-21-10-36-12a404 404 0 0 0-126 0c-16 3-27 7-31 10l2-4c6-3 16-6 29-9 17-3 40-4 64-4zm56 124a293 293 0 0 0-56-4c-70 0-93 14-96 18l-5-8c18-13 56-20 101-20 23 1 43 2 60 5l-4 9"/>
        <path d="M204 298c20 0 39 1 57 4l-1 2a298 298 0 0 0-56-4c-25 0-52 2-74 9-7 2-19 6-20 10l-2-2c1-2 8-7 21-11 26-7 51-8 75-9zm1-10a351 351 0 0 1 61 5l-1 3a319 319 0 0 0-60-6c-26 0-53 2-78 9-8 3-22 8-22 12l-2-2c1-4 13-9 24-12a285 285 0 0 1 78-9z"/>
        <path d="M304 310l-8 13-24-22-63-41-70-39-37-13 8-14 3-2 22 6 75 39 44 27 36 26 15 17z"/>
        <path d="M101 209c6-5 54 16 103 46s96 64 92 70l-1 2-1 1v-4c-2-7-36-33-91-67-54-32-99-51-104-46l2-2zm205 101c4-8-40-41-94-73-55-32-95-50-103-45l-1 3s0 0 0 0c1-2 4-1 5-1 12 0 48 16 99 45 22 13 93 59 93 72l-1 2 2-3z"/>
    </g>
    <g transform="translate(-68 28) scale(1.13778)">
        <path fill="#fff" stroke="#000" d="M181 211a59 59 0 0 0 17 42 59 59 0 0 0 42 17 59 59 0 0 0 42-17 59 59 0 0 0 17-42v-79H181v79z"/>
        <path fill="red" stroke="#000" d="M183 211a56 56 0 0 0 17 40 57 57 0 0 0 40 17 57 57 0 0 0 40-17 56 56 0 0 0 17-40v-77H183v77m91-54v54a33 33 0 0 1-10 24 34 34 0 0 1-24 10c-10 0-18-4-24-10a34 34 0 0 1-10-24v-54h68z"/>
        <g id="e">
            <g id="d" fill="#ff0" stroke="#000" stroke-width="1">
                <path stroke="none" d="M190 154c0-5 4-6 4-6s4 1 4 6h-8"/>
                <path d="M187 148l-1 6h4c0-5 4-6 4-6s4 1 4 6h5l-1-6h-15zm-1 6h17v2h-17l-1-1 1-1z"/>
                <path d="M192 154c0-3 2-4 2-4s3 1 3 4h-5m-6-9h16l1 1h-17s0 0 0 0v-1zm1 2h16l-1 1h-15l-1-1 1-1zm5-11h1v1h1v-1h1v1h1v-1h1v2s0 0 0 0h-5s0 0 0 0v-2zm4 3v6h-4v-6h4"/>
                <path id="a" d="M191 142v3h-4v-3h4z"/>
                <use width="100%" height="100%" x="11" xlink:href="#a"/>
                <path id="b" d="M186 139h2v1h0v-1h2v1h0v-1h2v2l-1 1h-4a1 1 0 0 1-1-1v-2z"/>
                <use width="100%" height="100%" x="11" xlink:href="#b"/>
                <path fill="#000" stroke="none" d="M194 141h1v1h-1v-1"/>
                <path id="c" fill="#000" stroke="none" d="M189 143c0-1 0-1 0 0v1-1"/>
                <use width="100%" height="100%" x="11" xlink:href="#c"/>
            </g>
            <use width="100%" height="100%" y="46" xlink:href="#d"/>
            <use width="100%" height="100%" transform="rotate(-45 313 180)" xlink:href="#d"/>
        </g>
        <use width="100%" height="100%" x="46" xlink:href="#d"/>
        <use width="100%" height="100%" transform="matrix(-1 0 0 1 480 0)" xlink:href="#e"/>
        <g id="f" fill="#fff">
            <path fill="#039" d="M233 202a8 8 0 0 0 2 6 7 7 0 0 0 5 2c2 1 4 0 5-2a8 8 0 0 0 3-6v-10h-15v10"/>
            <circle cx="236" cy="196" r="2"/>
            <circle cx="244" cy="196" r="2"/>
            <circle cx="240" cy="200" r="2"/>
            <circle cx="236" cy="204" r="2"/>
            <circle cx="244" cy="204" r="2"/>
        </g>
        <use width="100%" height="100%" y="-26" xlink:href="#f"/>
        <use width="100%" height="100%" x="-21" xlink:href="#f"/>
        <use width="100%" height="100%" x="21" xlink:href="#f"/>
        <use width="100%" height="100%" y="26" xlink:href="#f"/>
    </g>
</svg>
