<svg xmlns="http://www.w3.org/2000/svg" viewBox="0 0 512 512">
    <path fill="#0038a8" d="M0 341h512v171H0z"/>
    <path fill="#fff" d="M0 171h512v170H0z"/>
    <path fill="#d52b1e" d="M0 0h512v171H0z"/>
    <g fill="none" stroke="#000" transform="translate(-209) scale(1.55152)">
        <circle cx="300" cy="165" r="42"/>
        <circle cx="300" cy="165" r="35"/>
        <circle cx="300" cy="165" r="27" stroke="none"/>
    </g>
    <path d="M222 281l-8 5-2-4a7 7 0 0 1-1-2 2 2 0 0 1 0-1l1-1a2 2 0 0 1 2 0h1a3 3 0 0 1 0-1l1-1 1-2 2 2-2 3a2 2 0 0 0 0 1 1 1 0 0 0 0 1l3-2zm-6 1l-1-1a5 5 0 0 0 0-1 1 1 0 0 0-1 0l-1 1 1 1v1zm-7-6l-3-7 2-1 1 5 2-1-1-4h1l1 4 2-1-1-4 2-1 2 7zm-3-11l-1-4 1-2 1-1h3l1 3v1h3v2zm3-3v-1a1 1 0 0 0-1-1 1 1 0 0 0-1 1v2zm-4-13l1-3 5 1h1l1 1 1 1a4 4 0 0 1 0 2v2l-1 1v1a3 3 0 0 1-2 0h-6v-3h7v-1a2 2 0 0 0 0-1l-1-1zm1-7l2-4 1-2a2 2 0 0 1 2 0 2 2 0 0 1 1 2l2-1a2 2 0 0 1 1 0 2 2 0 0 1 2 2v1l-1 1-1 4zm5-1v-1-1-1a1 1 0 0 0-1 0l-1 1v1zm3 1v-2a1 1 0 0 0 0-1 1 1 0 0 0-1 0v1l-1 1zm-3-10l1-3 6 4 2-4 2 1-4 6zm5-8l2-2 6 5-1 2zm12-5l2-1 1 2a3 3 0 0 1-1 2 5 5 0 0 1-1 1 6 6 0 0 1-2 1h-2a5 5 0 0 1-2-2l-2-3 2-3a5 5 0 0 1 2-1 4 4 0 0 1 3 1l-2 2a2 2 0 0 0 0-1 2 2 0 0 0-1 0 2 2 0 0 0-1 1v1l1 2 1 1h2v-2-1zm9-3l-2 1v2l-3 1-1-9 3-2 7 6-3 2zm-1-2l-2-2v3zm8-9h4a5 5 0 0 1 2 0h2l1 1v4a4 4 0 0 1-1 2 3 3 0 0 1-1 1h-1l-4 1zm3 2l1 4h2v-2-2h-2zm9-3h7v2h-5v1h4v2h-4v2h5v2h-8zm10 1h3l-2 7 4 1v2l-7-2zm14 4l4 3 2 1-1 2a3 3 0 0 1-1 2l-3-1-1-1-2 3-2-1zm1 5l1 1a1 1 0 0 0 1-1 1 1 0 0 0 0-1h-1v-1zm7 10l-2-2-1 1-2-2 8-4 2 2-3 9-2-2zm1-2l2-3-3 2zm1 6l8-5 2 4 1 2v1l-1 1a2 2 0 0 1-1 1 3 3 0 0 1-1-1 3 3 0 0 1-1 0v2l-2 2-1-2 1-3v-1l-3 2zm6 0l1 1a1 1 0 0 0 1 0 1 1 0 0 0 1 0l-1-1v-1zm3 13l-1-3h-2l-1-3h10l1 3-7 6-1-2zm2-1l2-3-3 1zm2 9h2v4l-3 1a9 9 0 0 1-2-2 7 7 0 0 1 0-5l1-2a5 5 0 0 1 2-1 5 5 0 0 1 3 0 4 4 0 0 1 2 2l1 2a7 7 0 0 1 0 2 3 3 0 0 1-1 2l-1 1-1-3h1v-1a2 2 0 0 0-1-2h-2l-2 1a2 2 0 0 0-1 1l1 1v1h1zm6 13l-1 3-5-1a4 4 0 0 1-1 0 3 3 0 0 1-1-1 3 3 0 0 1-1-1 6 6 0 0 1 0-2v-3a3 3 0 0 1 1-1 3 3 0 0 1 1 0 5 5 0 0 1 2 0h5v3h-6-1v2l1 1zm-10 9l1-3-1-1v-2l8 6-1 3h-10l1-3zm2 0h3l-3-1zm3 8l-2 2h-3l2 3-2 3-3-6-3-2 2-2 3 2z"/>
    <g fill="#009b3a" stroke="none" stroke-width="0">
        <path d="M265 225s25 11 21 33c-5 22-19 22-24 25-5 2-9 6-11 5l-5-2s-1 4 4 4c4 1 10-5 13-6s19-3 24-25c4-24-22-33-22-34z"/>
        <path d="M278 230a3 1 75 0 1-2 0 3 1 75 1 1 2 0zm-1 0a4 1 63 1 1-2 1 4 1 63 0 1 2-1zm-3 2a3 1 17 0 1 0 2 3 1 17 0 1 0-2z"/>
        <path d="M275 231a4 1 34 1 1-1 1 4 1 34 1 1 1-1z"/>
        <path d="M276 231a4 1 46 1 1-1 1 4 1 46 0 1 1-1z"/>
        <path d="M278 234h-2-1l-1 2h1l1-1 2-1 1-1 1-2v-1a4 4 0 0 0-1 1l-1 2v1zm7 2a1 5-2 1 1-2 0 1 5-2 1 1 2 0z"/>
        <path d="M284 236a5 1 78 1 1-2 0 5 1 78 1 1 2 0z"/>
        <path d="M280 238a5 1 35 1 1-1 2 5 1 35 1 1 1-2z"/>
        <path d="M281 236a5 1 51 0 1-2 2 5 1 51 1 1 2-2z"/>
        <path d="M282 236a5 1 62 1 1-2 1 5 1 62 1 1 2-1z"/>
        <path d="M284 242h-2l-2-1-2 2h2l2-1h2l2-2 2-2v-1a5 5 0 0 0-2 1l-1 2-1 2zm5 5a1 5 9 1 1-2-1 1 5 9 1 1 2 1z"/>
        <path d="M288 246a1 5-2 1 1-2 0 1 5-2 1 1 2 0z"/>
        <path d="M284 247a5 1 46 1 1-1 2 5 1 46 1 1 1-2z"/>
        <path d="M285 246a5 1 62 1 1-2 1 5 1 62 1 1 2-1z"/>
        <path d="M287 246a6 1 73 1 1-2 1 6 1 73 1 1 2-1z"/>
        <path d="M287 252h-2l-1-1-3 1h6l2-2 3-1v-1a5 5 0 0 0-2 1l-1 1-2 1m3 7a1 5 31 0 1-2-2 1 5 31 0 1 2 2"/>
        <path d="M289 257a1 5 21 0 1-2-1 1 5 21 0 1 2 1m-4-1a5 1 70 0 1-2 2 5 1 70 0 1 2-2"/>
        <path d="M286 256a1 6-5 0 1-2 0 1 6-5 1 1 2 0"/>
        <path d="M287 257a1 6 6 1 1-2-1 1 6 6 1 1 2 1"/>
        <path d="M286 262l-2-1-1-1-2-1v2h3l2 1 2-1 3 1c1-1 2-1 1-2a5 5 0 0 0-3 0l-1 1-2 1m1 8a1 6 49 1 1-2-3 1 6 49 1 1 1 3"/>
        <path d="M286 269a1 6 38 1 1-2-2 1 6 38 1 1 2 2"/>
        <path d="M282 266a1 6-3 1 1-3 1 1 6-3 1 1 3-1"/>
        <path d="M283 266a1 6 12 0 1-2 0 1 6 12 1 1 2 0"/>
        <path d="M285 267a1 6 22 1 1-3-1 1 6 22 1 1 3 1"/>
        <path d="M281 272l-2-1v-2a4 4 0 0 0-3-1v2l3 1a10 10 0 0 1 2 2h2l4 1c1 0 2 0 1-1a6 6 0 0 0-2-1l-3 1-2-1m-3 8a2 7 80 1 1 1-3 2 7 80 1 1 0 3"/>
        <path d="M278 278a1 7 69 0 1 0-2 1 7 69 0 1 0 2M276 274a2 7 26 0 1-3-1 2 7 26 1 1 3 0"/>
        <path d="M278 274a1 7 42 0 1-3-1 1 7 42 0 1 3 1"/>
        <path d="M278 276a1 7 53 1 1-2-2 1 7 53 0 1 2 2"/>
        <path d="M272 279l-1-2v-2a5 5 0 0 0-2-3v2c0 2 1 2 2 3l1 2 2 2 3 4 2-1a7 7 0 0 0-2-2l-3-1-2-2"/>
        <path d="M268 286a2 7 89 0 1 0-4 2 7 89 0 1 0 4"/>
        <path d="M267 280a2 7 38 0 1-3-2 2 7 38 1 1 3 2"/>
        <path d="M268 283a2 7 67 0 1-1-3 2 7 67 0 1 1 3m2-57a4 1 41 0 1-2 1 4 1 41 1 1 2-1m-2 2a4 1 8 0 1 0 1 4 1 8 1 1 0-1"/>
        <path d="M269 227a4 1 27 1 1-1 1 4 1 27 0 1 1-1m-30 52l10 3 14 8c3 0 6 0 7-3-4 1-6 2-9 0l-9-6a103 103 0 0 0-12-3l-1 1m6-49l6-4-7 2v1l1 1"/>
        <path d="M251 231l-9-1 6-7-3 6 6 2"/>
        <path d="M244 230l5-4-6 3-1 1h2"/>
        <path d="M250 231l-9-1 5-7-2 6 6 2"/>
        <path d="M243 231l7-3-8 1-1 1 2 1"/>
        <path d="M249 231h-9l5-8-2 7 6 1"/>
        <path d="M242 231l5-6-6 4v2h1"/>
        <path d="M249 232h-9l3-9-1 7 7 2"/>
        <path d="M241 232a321 321 0 0 1 6-5l-7 3v2h1"/>
        <path d="M248 232h-10l6-10-3 8 7 2"/>
        <path d="M240 232l7-6-8 5-1 1h2"/>
        <path d="M247 232l-10 2a129 129 0 0 0 4-11l-2 9h8"/>
        <path d="M239 234a499 499 0 0 1 5-8l-7 6v2h2"/>
        <path d="M245 233l-10 1 5-10-2 8 7 1"/>
        <path d="M238 234l6-6-7 5-1 1h2"/>
        <path d="M244 233l-10 3 4-11-1 8h7"/>
        <path d="M237 235l4-9-6 8v1h2"/>
        <path d="M244 234l-10 3 3-12-1 9h8"/>
        <path d="M236 236l5-8-7 7v2l2-1"/>
        <path d="M243 235l-10 3 2-12v9h8"/>
        <path d="M235 238l4-9-6 7v2h1"/>
        <path d="M242 236l-11 3 4-12-1 9h8"/>
        <path d="M234 239l6-7-8 5v2l2-1"/>
        <path d="M241 237l-11 2 4-12-1 9 8 1"/>
        <path d="M232 238l5-9-7 7v2h2"/>
        <path d="M241 236l-11 5 2-14v11l9-2"/>
        <path d="M232 240l5-10-7 9v2l2-1"/>
        <path d="M240 237l-12 6 3-14v11l9-3"/>
        <path d="M230 242l4-11-6 10 1 2 1-1"/>
        <path d="M238 238l-11 6 2-14v10l9-2"/>
        <path d="M230 243l6-9-8 8-1 2 2-1"/>
        <path d="M238 238l-10 8-1-14 3 10 8-4"/>
        <path d="M230 244l1-12-3 11v2l2-1"/>
        <path d="M237 239l-10 8-1-14 3 10 8-4"/>
        <path d="M229 246a634 634 0 0 1 3-12l-5 11v2l2-1"/>
        <path d="M237 239l-10 10-2-15 4 11 8-6"/>
        <path d="M229 247l1-12-3 12 1 2 1-2"/>
        <path d="M236 241l-10 9-1-15 2 11 9-5"/>
        <path d="M228 248l4-11-6 10v3l2-2"/>
        <path d="M236 241l-9 10-2-14 3 10 8-6"/>
        <path d="M228 249v-12l-2 12 1 2 1-2"/>
        <path d="M235 242l-9 10-3-15 4 11 8-6"/>
        <path d="M228 250l1-12-3 11v3l2-2"/>
        <path d="M234 242l-8 11-4-14 5 10 7-7"/>
        <path d="M228 251l-1-12-2 12 1 2 2-2"/>
        <path d="M234 243l-7 11-5-14 5 10 7-7"/>
        <path d="M228 252l2-12-4 12 1 2 1-2"/>
        <path d="M234 244l-7 12-6-13 6 9 7-8"/>
        <path d="M228 253l-3-11 1 12 1 2 1-3"/>
        <path d="M233 246l-6 12-6-14 6 9 6-7"/>
        <path d="M228 256l-1-12-1 12 1 2 1-2"/>
        <path d="M234 247l-7 11-6-13 6 9 7-7"/>
        <path d="M228 257l-2-12v12l1 2 1-3"/>
        <path d="M233 248l-8 12-5-14 6 9 7-7"/>
        <path d="M227 258l1-12-3 11v2l2-1"/>
        <path d="M233 249l-6 12-7-13 7 9 6-8"/>
        <path d="M227 259l-4-11 1 12 2 1 1-2"/>
        <path d="M232 250l-4 13-8-11 8 7 4-10"/>
        <path d="M230 260l-4-11 2 12 1 1 1-2"/>
        <path d="M232 251l-4 13-8-11 7 7 5-9"/>
        <path d="M230 262l-5-11 3 12 2 1v-2"/>
        <path d="M232 252l-3 14-9-10 8 6 4-10"/>
        <path d="M230 263l-3-11 1 12 1 2 1-3"/>
        <path d="M232 253l-1 14-11-9 9 5 3-10"/>
        <path d="M230 264l-7-8 6 10 2 1-1-3"/>
        <path d="M232 254l-1 15-10-9 8 5 3-11"/>
        <path d="M231 266a602 602 0 0 1-6-10l4 11 2 2v-3"/>
        <path d="M233 256l-1 14-11-8c3 2 6 4 9 4l2-10"/>
        <path d="M232 268l-7-9 5 11h2v-2"/>
        <path d="M233 258l-1 14a128 128 0 0 0-11-8l9 4 3-10"/>
        <path d="M233 269l-5-10 2 11 2 2 1-3"/>
        <path d="M233 259v15l-11-7 9 3 2-11"/>
        <path d="M233 269l-9-6 8 8h2l-1-2"/>
        <path d="M233 260l1 14a128 128 0 0 0-11-6l9 2 1-11"/>
        <path d="M234 271l-7-8 6 10 2 1-1-3"/>
        <path d="M234 261l2 14-12-5 9 2 1-11"/>
        <path d="M236 273l-9-7 8 9h2l-1-2"/>
        <path d="M234 263l3 14-12-4 9 1v-11"/>
        <path d="M237 274l-7-9 5 11h2v-2"/>
        <path d="M234 264l5 14-13-3h10l-2-11"/>
        <path d="M237 274l-10-2 10 5 2-1-2-2"/>
        <path d="M235 265l4 14-12-3h9l-1-11"/>
        <path d="M239 275l-10-5 9 8 2-1-1-2"/>
        <path d="M235 266c2 3 4 9 7 12h-13l9-2-3-10"/>
        <path d="M240 276l-10-3 10 6 2-1-2-2"/>
        <path d="M236 267c2 4 4 10 7 13h-13l9-2-3-11"/>
        <path d="M242 277l-10-6 8 8h3l-1-2"/>
        <path d="M236 268l9 12-13 2c3-1 7-2 9-4l-5-10"/>
        <path d="M242 278h-10l10 3 2-1-2-2m6-50l8-1h-8l-1 1h1"/>
        <path d="M252 230l-7-3a97 97 0 0 0 8-3l-5 3 5 3"/>
        <path d="M248 228l7-2-7 1-1 1h1"/>
        <path d="M253 230h-9l6-6c-1 1-3 3-3 5l6 1"/>
        <path d="M245 229l8-1h-7l-2 1h1"/>
        <path d="M251 231l-8-2 7-4-4 4 5 2"/>
        <path d="M245 229l6-3-7 2-1 1h2"/>
        <path d="M251 231l-7-2 5-5-3 4 5 3"/>
        <path d="M245 229l5-2-5 1-1 1h1m-4 48h-11l11 3 2-2-2-1"/>
        <path d="M243 278l-11-3 10 5 2-1-1-2"/>
        <path d="M245 278h-11l11 3 1-1-1-2"/>
        <path d="M238 271l10 10-13 3c3-1 7-2 9-4l-6-9"/>
        <path d="M246 279l-11-4 10 6h2l-1-2"/>
        <path d="M239 272l10 9-11 4 8-5-7-9"/>
        <path d="M247 280l-10 2h10l2-1-2-2"/>
        <path d="M245 279l-11 1 11 2 2-2-2-1"/>
        <path d="M247 279l-11-1 10 4 2-1-1-2z"/>
        <path d="M249 280h-11l11 3 1-2-2-1z"/>
        <path d="M241 273l11 10-12 4 8-5-7-9z"/>
        <path d="M250 280l-11-2 11 5 2-1-2-2z"/>
        <path d="M242 274l12 8a168 168 0 0 0-12 6l8-6-8-8z"/>
        <path d="M251 281l-10 3h11l1-2-2-1z"/>
    </g>
    <path fill="#fedf00" stroke="#000" d="M265 266l-8-5-8 5 3-9-8-5h9l4-9 3 9h9l-7 5 3 9z"/>
</svg>
