<svg xmlns="http://www.w3.org/2000/svg" viewBox="0 0 512 512">
    <defs>
        <clipPath id="a">
            <path d="M124 0h496v496H124z"/>
        </clipPath>
    </defs>
    <g fill-rule="evenodd" clip-path="url(#a)" transform="translate(-128) scale(1.0321)">
        <path fill="#199d00" d="M0 0h744v496H0z"/>
        <path fill="#fff" d="M188 141c-1 11-2 32 8 34 11 1 5-21 9-24 1-2 2-2 3 0v18c-1 6 3 8 6 9 3 0 5 0 7 3l1 31s7 2 8-17c0-12-3-22-1-24 0-2 3-2 5-1 3 2 4 5 9 4 8-2 12-6 12-11a51 51 0 0 0-3-17c0-1-2-3-1-4 1 2 3 2 4 0-2-4-4-8-7-10-2-2-6-2-8 3a26 26 0 0 0 6 17 17 17 0 0 1 2 9c-2 1-4 1-6-1l-6-5c2-10 0-11-1-14 0-4-2-5-3-8h-5c-3 5-1 14 1 19l2 6c-1 2-2 2-4-1a61 61 0 0 1-2-17c0-4-1-14-4-16-1-3-4-1-5 1a80 80 0 0 0 0 13l4 21c0 9-6 4-6-1 2-6 1-16 0-19-1-2-2-3-4-3s-7 5-8 14l-2 9c-1 4-3 7-6-1-1-6-2-21-5-17z"/>
        <path fill="#fff" d="M220 188l-31 15c0-7 15-20 24-20 7 0 5 3 7 5z"/>
        <path fill="#fff" d="M215 198c-17 42 38 48 44 2 0-2 3-4 3-1-1 42-42 45-49 32-2-3-2-10-2-15-1-8-6-5-6 4l-1 10c2 33 55 18 64-9 4-15-1-26 1-26 5 6 13 1 14-1 1-1 3-2 4-1 4 3 11 2 13-3l2-16-6 3-1 5c0 1-3 1-3-1-2-5-7-6-10 3-2 1-6 2-7-1 1-6-1-7-6-4l-5-35c2 0 4 2 6-1-2-6-7-19-9-20h-3c-3 1-5 3-5 7l8 51c1 2-1 5-3 4-4-2-5-8-12-8-5 0-10 6-11 11v12c3 4 8 3 11 2s5-4 7-3c0 1 0 11-14 18-9 4-16 5-19-2-2-5 0-21-5-17z"/>
        <path fill="#fff" d="M284 155c3-1 19-19 19-19l-3-2v-2c4-2 3-7 1-10a9 9 0 0 0-8 0c-3 3-4 7-2 10 2 1 5 3 3 4-6 7-24 19-22 19h12zm-94 63c-6 9-6 23-3 27l6 3c4-2 6-9 5-12-1-2-2-2-4-1-2 5-3 2-3-1v-15c1-4 0-3-1-1zm249-15l-16-29a541 541 0 0 0-24-35c-6-7 10 3-2-11l-8-7c-2-2-7-4-8 0a24 24 0 0 0 1 9l4 7c19 25 36 51 52 84 3-2 3-16 1-18z"/>
        <path fill="#fff" d="M414 244c-1 1 3 6 8 6 8-1 16-5 23-18 1-3 5-9 5-14a298 298 0 0 0-6-75l4-1c1-2-4-14-7-18-1-2-2-4-3 0-2 3-3 8-3 13 4 28 5 52 8 79l-2 8a78 78 0 0 1-27 20zm113 0c-6 3-6 7-1 7 8-1 18-2 25-12 2-3 4-11 4-15 1-28 0-49-4-69-1-2-2-7-1-8 0-1 3 1 4-1 1-1-7-12-10-17-1-2-1-3-3 0s-3 9-2 13c5 30 8 53 8 79l-1 7-9 10-10 6z"/>
        <path fill="#fff" d="M532 217v-19a33 33 0 0 0-3-13c-2-4-1-7-2-11s0-11-2-16l-1-9 4-1c1-2-5-18-8-22-1-2-3-2-6 2-2 2-1 7-1 12 6 31 11 59 10 89 0 3 9-7 9-12zm-45-39c-3 0-11-8-14-12a8 8 0 0 1 1-6c1-1 3-2 5-1 0 0 2 2 1 3 2 1 3 0 4-1l-1-4c1-4 6-5 8-2l2 8h-3c-2 0-2 2-2 3l-1 12zm-69 46c1-9-1-26-1-32l-3-43c-1-8 3 1 2-4-1-8-6-13-11-21-1-2-1-2-4 1-3 7 0 11 0 16 4 17 6 32 7 47a381 381 0 0 1 1 48c3 0 7-5 9-12z"/>
        <path fill="#fff" d="M545 209l-20-28a639 639 0 0 0-28-36c-8-9 4-2-2-8l-9-10c-2-1-4-4-4 1l-1 10 4 7c20 25 42 50 59 82 3-2 2-16 0-18z"/>
        <path fill="#1ba400" d="M243 189c-1 0-2 2-1 3l2 1h3a3 3 0 0 0 1-4c-1-2-5-1-5 0z"/>
        <path fill="#fff" d="M467 351l23 2 9-1c10-1 11 14 11 14 0 10-4 10-8 11-3 0-4-2-6-4l-7 1-11-1h-10c0 2-2 3-4 3s-4-6-4-10c2-3 1-2 1-4l-108-2c-28 0-56 2-83 3-15-1-26-3-34-14 1 0 37 2 48 1l59-2c40 0 79 0 119 3-4-2-4-9 2-10l2 3c4 0 2 6 1 7zM307 131c-6 17 3 36 10 34 5 2 8-7 10-17 1-2 2-3 3-1-1 13 1 16 4 20a11 11 0 0 0 14 0l6-6h5c2 2 2 4 5 6 4 2 11 1 12-2l4-6c1-2 4-2 4-1s-2 2-1 4c2 2 3 1 4 1 4-2 6-11 6-11 1-3-1-2-2-2l-3 2c-2 1-6 2-8-1l-3-11c0-1-2-6 0-6 1 0 4 1 4-1 1-2-3-8-5-11-2-2-6-3-9 0-2 2-1 4-2 6a10 10 0 0 0 2 8c2 5 6 10 5 17 0 0-2 4-6 3-2 0-5-1-6-11-1-8 0-19-3-24-1-3-2-6-5-1-1 2-4 5-2 12a35 35 0 0 1 2 18l-3 5c-3 3-6 2-8 1s-3-2-4-6l-1-20c-2-4-5-3-6-1a46 46 0 0 0-11 22c-2 6-4 4-5 2-3-3-3-26-7-22z"/>
        <path fill="#fff" d="M325 169c3-2 2-4 6 0a70 70 0 0 1 9 31c-1 2 1 4 2 3 0-5 15-14 28-15 2 0 1-4 1-6-1-7 4-14 11-14 9 1 12 6 12 13-1 15-16 17-24 18-2 1-2 2 0 2h35l2 1-2 3c-2 2-3 8-3 11a173 173 0 0 1-33 6c-4 2-6 5-5 8s10 6 10 7c1 1 3 3-1 8-17-1-30-8-35-19-1-1-3 0-4 2a55 55 0 0 1-25 20c-7 2-14-1-17-5l-3-6c-4 1-36 15-31 9 7-9 21-15 33-23 1-3 2-12 7-15l-1 8v2c1-1 16-12 17-16v-7c-3-7-6-7-8-11-1-4-1-10 2-11 2-2 5-2 8 0 3 3 5 8 6 12h-5l4 7c2 8 1 11-1 16-6 14-14 18-22 23 0 0 0 3 3 5h9a53 53 0 0 0 21-23c2-7 0-14-2-21a253 253 0 0 1-6-16c0-4 0-5 2-7zm-93-38c4 2 12 1 12-5l-1-3c0-2-3-2-3 0v2c-1 1-2 0-2-1l-1-2h-1-1v2l-1 1h-1v-3a2 2 0 0 0-1 0c-3 0-3 2-3 3 0 0 0 5 3 6z"/>
        <path fill="#fff" d="M352 182c4 2 14 1 11-6v-3c-1-2-3-1-4 1v2s-2 0-2-2v-1h-1-1v2l-1 1-1-1h-1v-2l-1-1c-2 0-2 3-2 4 0 0 0 5 3 6zm70-21c4 2 11 1 11-5v-4c-1-2-3-1-4 1v2c-1 0-2 0-2-2v-1h-2l-1 2v1l-1-1h-1v-2l-1-1c-2 0-2 3-2 4 0 0-1 5 3 6zm36 53c-7 8-4 21-3 24l9 10c4 3 8 1 9-1 5-5 5-16 7-18 1-4 4-3 6-1a16 16 0 0 0 6 5c4 3 9 4 13 1 3-2 5-4 7-9s1-31 1-45l-4-21-1-12v-1l2 1 2-4-10-18c-1 0-2-1-3 1a7 7 0 0 0-3 5l2 13 4 22 2 44c0 6-2 12-4 13 0 0-3 2-5 0l-7-10c-3-3-5-2-7 0-5 6-8 16-12 23-1 2-4 3-7 0-8-11-3-26-4-22zm-35-91c4 1 7 9 6 12-1 5-3 10-4 9-2-1 1-4-1-9 0-2-5-7-5-8-1-3 2-5 4-4z"/>
        <path fill="#fff" d="M470 218l-1-20-7-49c-2-7 5-1 4-5l-10-18c-1-2-1-4-3-1a41 41 0 0 0-2 19c6 31 12 57 11 87 3 0 6-7 8-13zm62-83c3 2 5 11 5 14-1 5-3 10-4 9v-9l-5-10c-1-3 2-4 4-4zm-248 66c3 1 5 8 5 10-1 4-2 8-4 7v-7c0-3-5-5-5-7 0-3 2-3 4-3z"/>
        <path fill="#1b9d00" d="M361 211c4 1 6 4 3 5-4 2-8 3-8 8 2 8-2 5-4 4-2-2-9-6-10-14 0-2 2-4 4-4l15 1z"/>
        <path fill="#fff" d="M199 121c5 1 5 8 5 10-1 4-3 8-4 7l-1-7-4-7c-1-3 2-4 4-3zm93 32c-4 2-5 8-3 11s5 2 6 2c3 1 6-7 6-7s0-1-4 2c-2 1-2 0-3-1a9 9 0 0 1 1-6c0-1-1-2-3-1zm27-35c-2 1-6 5-6 9l1 4c2 2 3 2 5 0a5 5 0 0 0 2-3c1-3-3 1-3-2-1-3 1-4 3-7 0-1 0-3-2-1zm22 4a57 57 0 0 0-2 10c0 3 3 4 5 1l2-12c-1-4-3-4-5 1zm137 70l20-14c2-1 1 7 0 7a75 75 0 0 1-20 14c-1 0-2-6 0-7zm17 0c4 1 5 11 5 14 0 5-3 9-5 8v-8c-1-3-4-9-3-10-1-3 1-5 3-4zm-112 42l5-5c2-1 4 1 4 1l-1 6c1 1 1 2 3 1 3-2 6-2 9-2 2 0 2 4 1 4l-12 4c-2 1-4 0-4-1v-3c0-2-1-3-2-3h-3v-2zm132 5c1 1 2 2 0 3l-3 3c-1 2-1 3 1 4 3 1 11-5 11-5 2-1 1-3 1-3h-4s-2 0-1-2l1-3c1-1 0-2-2-3h-5l-2 3 3 3z"/>
        <path fill="#259f00" d="M384 184h-4c-2-1-3-3-2-4h4c2 0 2 3 2 4zm-86-52l-3-2v-3c1-1 3 1 3 2l-1 3z"/>
        <path fill="#209000" d="M468 363l27 1c2 1 0 5-1 4h-7c0-3-8-2-8 0h-11v-5z"/>
    </g>
</svg>
