<svg xmlns="http://www.w3.org/2000/svg" viewBox="0 0 512 512">
    <defs>
        <clipPath id="a">
            <path d="M28 0h708v709H28z"/>
        </clipPath>
    </defs>
    <g fill-rule="evenodd" clip-path="url(#a)" transform="translate(-20) scale(.72249)">
        <path fill="#fff" d="M0 0h1063v709H0z"/>
        <path fill="#df0000" d="M0 0h1063v354H0z"/>
        <path fill="#fff" d="M245 59a125 125 0 0 0 1 244 127 127 0 1 1-1-244z"/>
        <path fill="#fff" d="M202 162l-19-13 24-1 7-22 7 22h24l-19 14 7 23-19-14-19 14zm26 77l-19-13 24-1 7-22 7 22h24l-19 14 7 22-19-13-19 14zm86 0l-19-14h24l7-23 7 23h24l-19 14 7 22-19-14-19 14zm26-76l-19-14 24-1 7-22 7 22h24l-19 14 7 23-19-14-19 14zm-68-51l-19-14h23l7-22 8 22h23l-19 14 8 22-19-13-19 13z"/>
    </g>
</svg>
