<svg xmlns="http://www.w3.org/2000/svg" viewBox="0 0 512 512">
    <defs>
        <clipPath id="a">
            <path d="M0 0h512v512H0z"/>
        </clipPath>
    </defs>
    <g clip-path="url(#a)">
        <path fill="#006" d="M1024 512V0H0v512h1024z"/>
        <path fill="#fff" d="M0 85h108L0 31V0h62l151 75V0h85v75L449 0h62v31L403 85h108v86H403l108 54v31h-62l-151-75v75h-85v-75L62 256H0v-31l108-54H0V85z"/>
        <path fill="#ce1126" d="M471 0L301 85h40L511 0h-40zm40 256l-170-85h41l129 65v20zM171 85L0 0v20l130 65h41zm0 85L0 257h41l171-85h-41z"/>
        <path fill="#ce1126" d="M0 103h231V0h50v103h230v50H281v103h-50V153H0v-50z"/>
        <path fill="#8fc5ff" stroke="#fff" d="M400 641c0 16-3 34-24 42-21-8-24-26-24-42h48z" transform="matrix(4.9436 0 0 4.9441 -1483 -2891)"/>
        <path fill="#366cc9" stroke="#000" d="M376 683a34 34 0 0 0 19-16h-2l-23-3c-2-1-10 1-13 2a34 34 0 0 0 19 17z" transform="matrix(4.9436 0 0 4.9441 -1483 -2891)"/>
        <path fill="#5d3100" d="M302 436h6l2-1 3-1 4-1h5l2-2c0-1 2-2 3-1l2 1 1 2 3-1c2 2 2 1 2-1l-1-10-2-6c0-5 0-5-5-8 0-1-1-2-4-2l-1-2v-3c1 0 2 0 3-2h13l6-3c3-1 3-2 3-4l-2-12-4-9-4-8-1-3a7 7 0 0 0-3-5c-4-3-5-15-7-23-1-5 0-16-2-18-3-3-4-2-7-3l-4-12-6 4c-2 1-2 1-2 4l-3 9c-2 4-7 2-10 8-7-9-7-11-8-14 0-2-1-3-5-6v-8c-3-2-5-2-7 0-1 2-2 4-5 5l-8 12c3 44 13 89 43 124z"/>
        <path fill="#ff0" stroke="#fff" d="M400 641l-1-18a64 64 0 0 0-23-4c-5 0-16 1-24 4v18h48z" transform="matrix(4.9436 0 0 4.9441 -1483 -2891)"/>
        <path fill="#cf6200" d="M264 312l4 8 2-4c0-1 2-4 1-5s-1-2 1-1v5c0 6-3 7-4 11 4 9 1 13 6 21h9c3 0 5 3 5 5l1 3c1 1 2 3 1 4l1 3v3c0 1-1 2 1 4 1 2 5 10 5 15s0 7 2 8 3 1 2 3 1 13 2 15l1 2 4 2h7c2 3 4 7 4 10l1 6s2 1 2-3-1-4-2-5l-1-4 1-4c0-2-1-3 1 0l4 4v4l1 1c1-1 3 1 2 2s0 3 2 4l2 2c0 1 2 1 2-1l-2-9-1-7-1-2-2-2-2-1-1-2h-1l-2-1-2-3-1-4-1-5-3-5c-1-1-1-2-1 1s0 3 1 4c2 1 2 1 1 2s0 3 1 3v3c-1 1-2 1-2-1a8 8 0 0 0-1-4c0-1-1-2-2-1s-1 0-1-1v-1l1-2v-3c-1-1-3-10-5-12s-1-4 1-2l3 6 1 3 1-1c0-1 2-1 0-4s-5-7-7-15l-3-16-2-4-1-6c-1-1-1-2-1 0l1 9v4c0 1-2 3 2 5 2 1 1 3 1 4s-1 1-1-1l-3-3-1-3v-4c-1-1-1 0-1 1l-1 4s-1 1-1-1l1-7v-10c0-4 0-5-3-8l-8-11c-1-4-1-7-3-9a21 21 0 0 0-5-5v-5c0-2-1-3-2-2l-4 3-3 4c-1 3-4 5-4 9z"/>
        <path fill="#cf6200" d="M274 350h3c1-1 4-3 6-1l3 9c0 3 0 8 3 11s5 6 5 10l2 11 2 5 2 7v6c0 1 0 3-1 2l-2-2c-1-1-1-1-1 1s3 4 4 4l4 1c1 1 1 2 3 2h6l2 2 2 8 1 4v1h-2l-2-1-2-2-1-1c0 1 0 3-1 2h-4l-2-2-1-1-3-1-1-2-2-1v-3h-2v-2l-1-2v-3l-1-3-2-3c-2-2-3-1-4-5 0-4-1-13-3-14l-3-3c-1 0-2 0-2-3l-2-7-3-2v-4-7-5-4-2zm31-37a28 28 0 0 1-6 6c-3 2-6 3-4 6s3 3 3 6c1 2 1 4 3 4 2 1 2 0 2 4s0 5 2 6 1 3 2 6c0 4 0 11 3 15s6 14 6 16-1 3 1 6l3 7c0 2 1 3 3 2l3-2h4c2 1 5 2 7 1l4-3c2-1 3-5 4-6s0-1-1-2l-1-4-3-8-4-10c-2-1-2-4-2-6l-3-3-3-9-2-11-2-2-1-3-1-2c-1-1 0-3 1-4v-7c-1-3-1-4-4-4-3-1-3-1-5-4l-2-7c0-1-1-1-3 1s-3 2-3 6l1 4 2 4c1 3 3 9-1 12s-3 3-3 5c1 2-1 4-1 1s0-5 2-6 4-3 2-5l-2-8c0-2 0-3-1-2z"/>
        <path fill="#00b800" d="M274 357v11 4a3 3 0 0 0 2-4v-4-6c1-2-1-2-2-1zm22 33l-2-11a14 14 0 0 0-5-10c-2-2-3-6-3-9-2-1-3-1-3 2 0 2 3 3 2 6 0 4 0 3 2 5s2 3 1 3v3c2 0 2 1 1 3l2 2v4c0 1-1 3 1 2s1 0 2 2h3a11 11 0 0 1-1-2zm17 30c-1 2-2 1-3 0s-1-1-1-2l-1-2a8 8 0 0 0 0-1h-1c-2 1-2 0-3-1a9 9 0 0 0-1-1v1l-1 2c-1 1-2-2-2-3l-4-4c0-2 0-2 1-1l2 2c1 0 2 0 1-2a7 7 0 0 1 0-1l-1-2c-2 0-2-1-1-2 0-2-1-2-2-1s-1 0-1-3c0-2-2-2-2-1-1 2-1 1-2-2s-2-3-2 0c0 2-1 2-2 1v4c1 4 2 3 4 5l2 3 1 3v3l1 2 1 2h1l1-2c1-1 4 1 4 2s2 3 3 1 1-1 2 0l2 2h2c1 1 2 1 3-2 2-2-1-2-1 0zm4-70c1-4 0-8 2-9 1-2 3-4 3 1l-1 7c-2 2-3 2-1 4l1 6 1 7c1 1 2 1 2 3l3 6 4 8c0 3 2 4 4 5 3 2 0 4-2 3s-1 0-2 1-1 1-2-1l-5-4c-1-1-3-2-4-5-1-1-3-3-5-3l1 3c-1 2-2 3 0 6l4 7c0 2 1 3 3 2l3-2h4c2 1 5 2 7 1s2-3 4-3c2-1 3-5 4-6s0-1-1-2l-1-4-3-8-4-10c-2-1-2-4-3-6l-2-3-4-9-2-10c-1 2-2 3-2 1-1-1-1-2-2-1s-1-1-1-2l-1-1v-4c-1-2-1-3-2 0l-1 6v4 5c1 2 0 4-1 6 0 2 2 4 2 1zm-31-31c-1 0-2 1-1 5 0 2-2 2-2 1l-3-6c-1-3-1 1-1 3l2 4c1 2 1 2-1 2s0 3 0 5 0 2-1 1l-1-7c1-3 1-2-1-3s-2-1-1-3v-3l1-2 2-1c1-1 2 0 2-2s1-3 2-3l3 9zm17 20c0 4 0 5 2 6s1 3 2 6c0 4 0 11 2 15l3 6a10 10 0 0 0 2-4c1-1-1-3-2-5s0-3 1-6c2-2 0-2-2-3s-2-2-3-5v-6c1-1 0-2-1-3l-1-3c1-2 1-2-1-1l-2 1v2z"/>
        <path fill="#5d3100" d="M323 346l-1 4v3l1 4 1 4c1 1 2 0 1 2a7 7 0 0 0 3 6l2 4c-1 1 0 2 2 3s1 0 1 1l1 1 4 3c1 2 4 3 4 1s0-3-2-4-4-6-5-10c-1-3-3-8-5-9l-1-5a5 5 0 0 1-2-4l-2-3-1-2c0-1-1-1-1 1z"/>
        <path fill="#00d860" d="M314 438a50 50 0 0 0 12-3 19 19 0 0 0 7 3h-5l2 2-7-2c-3 1-7 2-9 0zm5 4l8 1c-2 2-1 3 2 3l-2 1a29 29 0 0 0 12-2c-3 3-15 6-20-3zm5 8h7-7z"/>
        <path d="M330 450c2-1 10 1 12-1-1 3-5 3-7 3-1-1-3-2-4-1 1-1 0-1-1-1z"/>
        <path fill="#00d860" d="M332 453c2 1 9 0 12-1l8 2h-8c-4 1-7 1-12-1z"/>
        <path fill="#00d860" d="M336 455l8-1h5l5 2h-10a26 26 0 0 0-10 2l2-4z"/>
        <path d="M332 440c3 1 11 0 15-1 1-1 2 0 0 1-6 2-11 3-15 1-2-1-2-2 0-1z"/>
        <path fill="#00d860" d="M372 429c-10 5-17 6-30 2-2-1-2 0-1 1l11 3c2 0 1 1 0 1s-2 1 0 1 10-1 13 1h2l1-1 1-1v-1-1c-1 0-2 0-1-1l3-1 1-3z"/>
        <path d="M355 430c6 1 16-2 22-7l6 2c1 0 3 2 1 2l-7-2a38 38 0 0 1-21 6c-2 0-2-1-1-1z"/>
        <path fill="#00d860" d="M339 399a15 15 0 0 0 9 4 21 21 0 0 0 8 3l-7 3-4-1v2l9 1c2 0 2 1 0 1-3 2-10 0-12-3-2-4-4-5-11-2 0-2 0-2-2-2s-3-2-1-2 6-1 11-4z"/>
        <path fill="#00d860" d="M340 408l-5 2c-1 0-3 1-1 1 2 1 5-2 6-2s2-2 0-1zm6 6l-5 1-1 1-1 1-3 1 1 1c2 1 2 0 3-1l5-2c2 0 3-2 1-2z"/>
        <path d="M342 418l11 3c3 0 2 1 0 2-4 1-9-1-12-4-2-1 0-2 1-1z"/>
        <path fill="#00d860" d="M375 422h-13c-2-1-4-1-3 1s6 2 9 1c-9 3-12 2-14 2a46 46 0 0 0-9 0l-4-1c-1-1-1-1 1-1h1c-2 0-6 0-3 2s10 0 14 1 13 2 21-5c1 0 1-1 0 0zm-26-8v2c0 1-1 1 0 0l2-1h4c1 0 2 0 0-1h-3l-3-1v1zM362 416l-4-1c-1-1-2 0-1 1s6 2 7 2 1-2 3-1l5 2c2 0 1 0 0-1l-2-1 1-1h3l5-1v-1l-4 1h-3l-4-1 1-1c1-1 1-1 0 0s-5 0-7-1h-4c-1 0-1 1 1 1l5 1c1 1 0 1-1 1s-3 0-1 1zM379 414v1l10 1 2-1h6l3-1 5-1c2 0 2 0 0-1l-6 1-7 1h-13z"/>
        <path d="M409 413c-4 3-9 3-14 4-2 0-1 0 0 0 6 1 13-1 15-4h-1z"/>
        <path fill="#00d860" d="M383 419l9 3 1-1 3-1h9l4-2h-13l-3 1h-10z"/>
        <path fill="#00d860" d="M405 420l4-2h6s0-2 2-2l7 1c3 0 4 1 8-1 0 2 1 2 2 2l3 1 13 1c3-1 4 0 2 1-2 0-2 1-2 2 1 0 1 1-1 1-2-1-2 0-3 1h-20l-5 1c-2 0-2-1-1-2l4-1c2 0 4-1 2-2s-2-1-4 0-3 2-6 1c-2-2-3-1-5-1l-6-1zm8 4l-7-2c-1 0-3 2 0 2h7c2-1 1-1 0-1zm-4 2h7c2 0 2 1 1 1h-7c-2 1-3 0-1-1zm-30 8c2 0 10 0 13-7h1c1 0 4 3 11 4 2 0 4 1 0 0l-11-2c-4 5-10 6-14 6-3 0-2-1 0-1z"/>
        <path fill="#00d860" d="M395 425c-1 2-4 4-6 4h-9l8 2h5l6 2h5c1 1 3 2 0 1l-6-1c2 2 5 5 7 5v2h5l1 1v1h-4c2 1 9 4 15 3 1-1 2-1 0-1l-5-1v-1h6c1 0 3-1 0-1l-7-1c-1 0-2 0-1-1l3-2c-4 0-9-2-6-4l-1-1-6-2c-2-1 0-1 1-1-2 0-7-1-11-4zm38 0c-2 2-7 3-9 3s-2 0 0 0l3 1h7l6-1c1 0 3 0 0 0h-7c-1 1-4 0-2-1l3-1-1-1zm-1 5a15 15 0 0 1-8 3l7 4-3 1c1 1 4 0 6-1 4 1 9 0 11-1a12 12 0 0 1-7-2l3-2c-3 1-8-1-9-2z"/>
        <path fill="#00d860" d="M428 438l3-1c-3 1-12-1-15-3-2-3-2-1 0 1s5 4 12 3zm6 6l-8 1h-2c1 1 0 2-1 1s-4 0-5 1c-1 0-3 1 0 1l6-1 9 1v-1-1l1-2zm-53-7a65 65 0 0 1-12 3 17 17 0 0 1-6 2l6 1-3 2h5a15 15 0 0 1-8 2l2 2a14 14 0 0 1-7 0l3 2c-2 0-5 1-7-1 2 3 5 3 11 3l11-4h-7l11-5a6 6 0 0 1-3-1l10-1a7 7 0 0 1-5-3 43 43 0 0 0 22 1c1-1 1-2-1-2l-12-2a13 13 0 0 0 5 3c-4 1-8 1-15-2z"/>
        <path fill="#00d860" d="M366 445l3-2a11 11 0 0 1-6-1l6-2-10-1-6-1c-2 1 0 3 4 2-1 2-7 2-9 2v4l13 3c-3-1-4-2-2-3l6-1z"/>
        <path d="M358 453c6 0 14 0 21-6 1-1 2-1 1 1-4 3-12 7-21 7-3 0-5-2-1-2z"/>
        <path fill="#00d860" d="M404 443l-7 1h-5c-1 1-1 2 1 2h4a7 7 0 0 0-2 2c2-1 5 0 7 1l-3-1c4 4 14 4 15 3l-2 2c3 0 6 0 10-2a29 29 0 0 1-6 0 6 6 0 0 1 3-1 17 17 0 0 0-6 0l2-2a39 39 0 0 1-14-1l9-2-6-2zm-13 3l-8 2c-1 1-2 1 1 1-1 0-2 0 0-1l7-2zm-5 6c1 0 5 0 6-2l7 4c2 0 2 0 0 0l-7-2h-6zm-30 17c4 2 9 3 13 2 2 1 7 2 9 1h7l10 2-5 1 1 1a27 27 0 0 0-14 4 8 8 0 0 1 7-5c-2-1-9-1-12 1l-1-3c-4 2-12-1-15-4zm-10-7c4-1 8-2 9-4 1 1 4 2 8 1a2 2 0 0 0 0 2l-9 2-8 1c-2 0-2-2 0-2z"/>
        <path fill="#00d860" d="M363 461l-9 2v3a56 56 0 0 1 20-2l-8 2c5-1 10 1 11 1s2 1 1 2-2 1 0 1 7 0 9-2l-4-1a9 9 0 0 0 4-2l-6-1c-1 0-2 0-1-1a8 8 0 0 0 3-2c-3 1-7 1-10-1l5-1-3-1c3-1 8-2 15 1h9l4-4c-8 1-21-1-21-5-2 3-8 5-10 5-1 1 0 2 1 3l-9 1 5 2h-6z"/>
        <path fill="#00d860" d="M378 470c2 0 7 0 9-2l-4-1a9 9 0 0 0 4-2l12-1 10-1-7 2 3 2c-2 0-5 2-5 3-3-2-5 0-5 1a10 10 0 0 0-8 2c-3-1-5-2-8-1 2-1 2-2-1-2zm25-15h7a8 8 0 0 0-2 2l12-1-6 2c-1 1 0 1 1 1s4 2 1 1h-9c-1 0-2 0 0-1l4-1h-6v-1l-1-1-5 3 4-4z"/>
        <path d="M384 458a11 11 0 0 0 8 4c1 0 3 1 0 1-5 0-8-1-10-4 0-1 0-2 2-1zm32-45c3 1 8 3 13 2 0 0 2 1 0 1a23 23 0 0 1-14-2c-1-1 0-2 1-1z"/>
        <path fill="#00d860" d="M419 413l9 1 8-1c1 0 2 0-1-1h-18l1 1zm17 2l9-1c-1 1 4 2 9 0l-7 2h-4c-1-1-5-2-7-1z"/>
        <path fill="#00d860" d="M454 414c-5 2-10 1-9 0l-9 1 5-3 4-1 4 2c1 0 2-1 1-2h6l4-1a30 30 0 0 1-6 4z"/>
        <path fill="#ff0" d="M363 393l-1-110c0-5-2-4-2 0v109l3 1zm36-116l4 116-1 1h-2l-3-117h2zm33 98l-2-94c0-3-2-2-2 1l2 93h2z"/>
        <path fill="#fff" d="M379 296h-35c-1 7 7 6 10 5 4 2 7 2 9 0 3 2 7 2 8 0 4 3 9 0 8-5zm2 17h-34c-7 6 1 9 8 5 1 2 5 3 8 2 3 2 7 0 9-2 3 2 8 2 10-5zm-1 22h-33c-1 6 6 5 9 4 2 4 8 3 10 0 3 3 6 2 8 0 3 3 7-1 6-4zm2 22h-38c-2 6 4 7 7 6 1 3 6 2 7 0 2 1 5 0 6-1 0 3 4 4 8 1 7 5 13-1 10-6zm33-9h-31c2 6 5 8 10 4 4 4 10 3 11 1 7 5 10-1 10-5zm-3-21l-30-1c0 7 8 7 12 4 2 3 7 2 10 0 3 4 9 1 8-3zm4-25h-32c0 6 7 9 13 4 1 6 7 4 10 2 3 5 12-1 9-5zm-2-16h-29c0 5 7 7 9 3 2 3 7 2 8 0 2 4 5 1 6 0 3 3 7 1 6-3zm35 11l-36-1c0 4 3 5 6 4 0 4 5 5 8 2 2 3 9 4 11 0 5 4 11 1 10-5zm-1 29h-35c0 5 6 6 9 4 1 4 5 4 8 2 3 3 8 4 11 0 4 1 8-2 7-6zm-2 26h-28c0 5 6 5 9 3 3 3 7 3 9 1 4 3 10 2 10-4z"/>
        <path d="M402 394l-40-1c-10-1-14-3-21-8l-28-16c-2-1-5 0-1 2l27 18c8 5 13 10 17 15 6 7 10 7 13 6s7-3 11-2 10 2 13 1c3 3 9 2 13 1h16c3 0 9-2 14-1h12a25 25 0 0 1 10-1c3-2 4-4 5-7 3 0 4-1 4-2l3-8h1v-3l-2-3 1-5 3-1-1-5-44 1a10 10 0 0 0-3 5l-13 2-4 3-6 9z"/>
        <path d="M454 374l6-24c1-2-1-3-2 0l-6 24h2z"/>
        <path fill="#fff" d="M479 347c-5 3-8 4-11 3h-7a2439 2439 0 0 1-6 19c4 2 11 2 13 0s6-1 9-1c1-2 2-5 1-6v-5c0-2 2-7 1-10z"/>
        <path fill="none" d="M355 301a263 263 0 0 1-40 69m10 6a269 269 0 0 0 56-62m-34 21l-8 49m13-19l-17 17m63-44c-4 4-8 9-13 10m16-9a35 35 0 0 0 13 9m-16-30a42 42 0 0 1-15 8m17-8l11 9m-27-25a35 35 0 0 0 14-7m1 0l13 8m-27-17a20 20 0 0 0 12-6m2-1c3 3 10 6 13 7m16 4c-2 2-8 6-11 6m13-6c2 2 6 6 8 6m-24 30a36 36 0 0 0 14-9m3 0a28 28 0 0 0 9 9m-20 26c2 0 7-3 9-7m3-1a35 35 0 0 0 10 8m-93 5c7-2 19-10 25-18m-11 10l15 8m-30-22a40 40 0 0 0 12-7m2-1c2 2 12 8 16 8m-18-29a48 48 0 0 1-13 7m15-7c4 3 11 7 15 7m-17-27c-3 3-8 8-12 10m14-9c2 3 8 8 12 9m39 13c10 16 27 36 43 47m-69-66c14 20 40 63 66 79m5-17a91 91 0 0 1-24 23m22-17c-8-14-13-31-20-55m-69 62l10 29m-12-30l9 30m-11-31l8 30m-9-30l6 30m0-1h9m-1-3h-8m7-2h-8m7-3h-8m6-3h-6m0-2h6m-7-2h6m-6-3h5m-6-1h5m-5-3h4m-5-2h5m-5-1h4m-4-2h4m-13 0l-6 24m8-24l-5 25m6-26l-4 27m6-28l-3 29m4-2h-10m10-3h-12m12-3h-11m10-2h-9m10-3h-10m10-3h-9m9-2h-9m8-2h-7m7-3h-6m6-2h-6m6-2h-5m5 27v-29m32-10l-20 40m21-40l-17 41m18-42l-13 42m15-41l-11 41m0-2h-12m13-4h-12m13-3h-10m12-3h-10m10-3h-9m10-3h-9m10-3h-8m9-2h-8m9-3h-7m7-2h-6m7-2h-7m6-2h-5m5-2h-4m5-2h-4m5-2h-4m4-1h-4m17-1l8 28m-6-27l10 26m-9-26l12 26m3-3l-14-24m14 25h-10m9-4h-10m9-3h-10m8-3h-9m7-3h-8m6-4h-7m5-3h-5m3-3h-4m15 0l-9 26m12-27l-8 26m3 0l6-25m2 1l-5 23m-9-1h9m-8-3h9m-8-3h8m-6-3h7m-6-4h7m-6-3h6m-5-3h6m-5-3h5m5 0l4 18m-3-19l6 18m-4-18l6 18m-3-17l6 17m0-1h-9m8-2h-8m7-3h-8m7-3h-8m6-2h-7m6-3h-6m5-2h-6"/>
        <path fill="#00b800" d="M358 403c4-3 11-2 14 1 4-3 12-2 15 1 5-4 10-4 15-1 4-3 10-3 15 0 5-2 10-3 14 1-2-2-8-3-14 1-4-4-12-3-15 0a10 10 0 0 0-14 1c-5-4-12-4-16-1-3-3-7-5-14-3z"/>
        <path fill="#cf6200" d="M428 398a303 303 0 0 1-75-2c-3-1-2-2 1-1a240 240 0 0 0 48 2l8-11 4-2 12-2v1l-1 1 1 12 1-1c1 0 2 2 1 3z"/>
        <path fill="#cf6200" d="M462 399l2-1c1 0 2 0 3-2l3-7-2-4a174 174 0 0 0 1-6l2-1-1-3-39 1c-1 0-2 0-2 2-3 9 1 22 10 29v-1a33 33 0 0 1-5-7h6l3 8v-1l-1-7h6l1 7c0 1 0 1 0 0v-7h7l-1 6c0 1 0 2 1 0l1-6h4l-2 6h1a30 30 0 0 0 2-6z"/>
        <path d="M432 397l-3-10h9a104 104 0 0 0 2 10h-8zm8-10l1 10h7v-10h-8zm-10-9l-1 8 9-1-1-7h-7zm9 0v7h9l-1-7h-8zm10 0v7h8v-8l-8 1zm9-1v8h8l1-8h-9zm8 9l-8 1a262 262 0 0 1-1 10h8a68 68 0 0 0 3-8l-2-3zm-17 1l1 10h6v-10h-6zm-34-2h-3a247 247 0 0 1-8 11h12l-1-11zm2 0v11h7l-1-13-6 2zM382 357h-38v-1l38 1zm30-30l-30-1h30zm-32 8c1 0 1 0 0 0h-33c-1 0 0 0 0 0h33zm1-22v1h-35v-1h35zm-2-17h-34v-1l34 1z"/>
        <path fill="#fff" d="M414 286h-29 29z"/>
        <path d="M416 303h-32c-1 0-1 0 0 0h32zm32 23h-35c-1 0-1 0 0 0h35zm0-30v1h-35v-1h36zm-33 52c1 0 1 0 0 0h-31 31zm31 4c1 0 1 0 0 0h-28 28z"/>
        <path fill="#ef072d" d="M471 357a15 15 0 0 0 0-7 5 5 0 0 1-3 0 15 15 0 0 0-1-1l-2 10-7-1-1 5a17 17 0 0 0 7 0c0 3 0 5-2 7l6-1 2-7h2l3-1 3-1v-3l1-2-8 3z"/>
        <path d="M349 190l-15 1c-2 1-2 2 1 2l11 4c3 2 5 5 5 10a30 30 0 0 0 15 31l1 3-2 5 1 2a99 99 0 0 1-5 8c-8-1-15 0-15 9 0 1 0 2 1 0 2-2 3-4 7-5l-3 8c0 2 1 3 2 0l4-5c1-1 1-1 1 1l1 5c1 1 2 1 1-1 0-2 0-5 3-6 3-2 5-1 6 1 2 2 3 0 1-2s-3-5-4-5l4-8c0-1 1-2 2-1l2-1 3-7 3-1 5 7v3l-2 8c-6 0-9 0-11 4-1 1 0 2 2 1a10 10 0 0 1 5-1v1c-4 2-6 4-6 8h1c2-3 4-5 7-5 0 2 0 6 2 7s2 0 1-1c-1-3 0-5 2-7 2-3 8 1 10 2 1 1 2 2 1-1-1-4-6-5-10-6l6-21c2 2 5-2 9-1 7 3 17 9 18 11h8c1 0 2 1 0-2a36 36 0 0 0-12-13l9-1-8-3a16 16 0 0 0 8-4c1-1 0-1-4-1-11 0-16 0-21-3l-19-13-5-7c-3-7-3-11-9-14s-15 1-18 4z"/>
        <path fill="#fff" d="M349 192h-8s-1 0 0 0l7 2c2 0 1 2 0 1s-2 0-1 1c5 3 6 5 5 18l3 2v1s-3 0-1 1 2 1 1 1-3 1 0 0c2 0 4 1 0 2-3 0-2 1 0 1 3 0 2 1 1 1s-1 1 1 1h4s1 0 0 0v1c1 0 3 0 1 1v1c4 0 4 1 3 1s-1 1 0 1 3 0 2 1c-1 0-2 1 0 1s2 1 1 1-1 1 0 1 2 1 1 1h-2-1l-1-1c-1-2-2-2-2 0s-1 0-2 0a16 16 0 0 0 20 4l1 1 3 5c1 1 2 0 2-1l3-8c0-1 2-2 1 2 2-1 8-2 13 0a60 60 0 0 1 13 7 3 3 0 0 0 2 0c2 0 2 0 0-2s-2-3 0-2c1 1 2 0 1-1l-5-5-3-1h-7c-1 0-2 0 1 1l9 6c1 1 2 3 0 1l-18-10c-13 2-24 3-32-5-4-5-4-14 2-18v-5l-2-3c-1 0-2-2-5-1s-3 0-4-1l-2-1h-3 3c4 1 7 2 9-1s-1-6-5-7-7 3-9 4z"/>
        <path fill="#fff" d="M371 191a14 14 0 0 0-5-3l-1 1v3c1 1 2 2 0 2-1 1 0 4 2 3s0 1 1 1v2h1v2l2 1 2 3c0 1 0 2-2 1s-2 0-3 1v2c1 0 2 0 1 1s-3 0-3 1l1 2 3-2h2c1 1 0 3-1 2s-2 0-2 0l-2 1c-1 0-2 0-2 3 0 7 5 12 15 12h17l-7-3h-1l-1-2h-2l-5 3c-1 0-3 0-1-1l4-2 1-1s0-2 1-1l9 4 1-1-1-2h2l7 3c2 1 2 0 0-1l-12-9c-1-1-1 0-1 1s-1 2-2 1-2-2 0-2 1-1-1-3h-2c1 2 1 3-1 2s-3-1-1-2c1-1 2-1 0-3s-1 0-2 1h-2c0-1-2-1-1-2h1c1 1 2 0 1-1h-2c0 1-1 2-3 0v-2-2c-3-6-2-10-6-14z"/>
        <path fill="#cf6200" d="M371 192h-1v2l2-1a11 11 0 0 0-1-1zm-4-4l-1 2h1c-1 1 0 1 1 1h2a14 14 0 0 0-3-3zm-2 6c-1 1 0 4 1 3h2v1a6 6 0 0 0 2-1c1-2 0-2-2-2s-2 0 0-1c1-1 0-2-2-1l-1 1zm8 7v-2h1l-1-3-1 2-2 1-1 1 1 1c2 0 2 2 3 3h1l-1-3z"/>
        <path fill="#ff0" d="M373 215l-1 1-4 1c-1 0-3 0-3 2l1 2 1 1c-1 0-1 2 1 2h3l1 3c0 1 1 2 3 2h8l-1-1-3-1v-3c1-1 2-1 2-3s-2-3-3-3c-2-1-1-3-3-3h-2z"/>
        <path fill="#cf6200" d="M365 229c2 0 3 0 2 1-2 0-2 1-1 1l2 1v1l1 1h-3l-2-1-1-1-2 1a22 22 0 0 0 4 3h4l4 1c2 1 1-1 1-2h-1c-1 1-1 0-1-1 0-2-1-1-1-1v-1h-1c-1 1-1 0-1-2s0-1 0 0l-2-2c-1-1-1 0-3 1h1z"/>
        <path fill="#ff0" d="M381 237c-7 3-12 1-16-1h4l4 1c2 1 1-1 1-2 1 1 1 2 3 2h4zm-15-33l-2-1-2-1c-1 0-2 0-2 2s-1 2-2 3c-2 1-2 2-2 3l-2 3-1 2 2 1-1 1c-1 0-2 0 0 0s2 1 1 1c-2 0-4 2-1 1 3 0 4 1 1 1-3 1-2 2 0 2 3 0 2 1 1 1h1l1-1c0-1 0-4 2-5l1-3 3-5 2-5z"/>
        <path fill="#cf6200" d="M363 204c-1 0-2 0-2 2s-1 2-2 2a4 4 0 0 0-2 3l-1 3v2l1 2 1-1 2-2 2-3v-3l2-2 1-1-2-2z"/>
        <path d="M363 203v0zm0 2c-1 0-2 2 0 1s2-1 0-1zm-2 2c-1 1 0 2 1 1s1-2-1-1zm-1 2c-1 1-1 2 1 1 1-1 1-2-1-1z"/>
        <path d="M358 210c-1 1 0 2 1 1s1-2-1-1zm1 1c-1 1 0 2 1 1s1-2-1-1zM358 212h0zm1 1c-1 0-1 2 1 1 1-1 1-2-1-1zM357 214h0zM357 215h0z"/>
        <path fill="#cf6200" d="M357 226l-1 1 2 1 1 2c1 1 2-1 1-1l-2-2-1-1z"/>
        <path fill="#ff0" d="M388 218l1 1 2-1c0-1-1-2 1-1l12 8c2 2 1 2 0 2l-7-3h-2l1 1-4-1-3-5-1-1z"/>
        <path fill="#00d860" d="M452 429c-2 1-4 3-2 5a158 158 0 0 0 16-24l1-1a23 23 0 0 1-6 4c1 2-3 5-5 5 1 2 1 4-1 4l-3 2-2 2 2-1v2l-2 1c1-1 4 0 2 1z"/>
        <path d="M376 216c-2-2-3-1-2 0s0 2-2 2h-5s-2 2 0 2l8-2c1 0 2-1 0-2zm3 3c-1-2-2-1-1 0s-1 1-2 1l-7 2c-2 0-2 2 1 2l8-3 1-1s2 0 0-1zm2 4l-5 2c-2 0-3 2 0 2s5-3 6-3l2-1s2-1 0-2-4 0-3 0v2zM361 191c-3-2-7 2-4 4s7-3 4-5z"/>
        <path fill="#fff" d="M357 192h1c-1 1 0 3 2 3-1 0-4-1-3-3zm12 47l5 1-1 3s-1 1-1-1 0-2-1-1l-1 3c-1 0-1 1-1-1v-4z"/>
        <path fill="none" d="M493 277c0 81-13 168-118 209-104-41-117-128-117-209h235zm0 0l-1-86a314 314 0 0 0-117-21c-26 0-77 4-116 21 1 26-1 55-1 86h235z"/>
    </g>
</svg>
