<svg xmlns="http://www.w3.org/2000/svg" viewBox="0 0 512 512">
    <g fill-rule="evenodd">
        <path fill="#19b6ef" d="M0 256h512v256H0z"/>
        <path fill="#fff" d="M0 0h512v256H0z"/>
    </g>
    <path fill="#fd0" fill-rule="evenodd" stroke="#7d6c00" stroke-width="2" d="M253 362c56-42 116-127 46-172-14-3-28-2-35 3-4-2-7-1-11 3-3-4-5-5-11-3a44 44 0 0 0-33-4c-62 37-24 125 44 173z"/>
    <g stroke="#3a9d4f" stroke-width="2">
        <path fill="#4fd46b" fill-rule="evenodd" stroke-linejoin="round" d="M356 267l7-9c6-3 7-8 7-8 6-2 4-7 5-8a7 7 0 0 0 1-8s2-8-1-10c0-8-5-7-9-2-5 2-6 5-4 9-6 0-6 9-4 14-8-1-4 8-4 9-3 1 2 13 2 13zm-49 73l4 2c1 3 4 5 6 4 1 5 6 4 9 1 3 5 7 5 11 3 5 4 10 2 14-1 4 3 7 1 9-3 3 1 5 0 7-3 6 0 3-6-2-8 4-4 8-11 2-12h-9c0-3-5-4-10 0-1-4-7-2-10 0-3-3-7-3-14 1l-17 16zm0-10c1-4-2-11 2-12-1-6 1-14 8-13 1-6 1-12 8-13 1 0 6-21 13-6 2 4 1 10-3 9 1 5-1 10-7 9 3 4 2 9-1 11l-20 15zm35-25l7-1c6-5 9-7 12-2 5-1 11 0 10 4 7 0 7 4 6 8 1 5-1 13-5 4-13-8-20-7-40-2l10-11zm4-6c0-1 18-5 16-11 6-1 7-6 7-6 11-4 10-10 10-10 3-3 9-7 7-13 1-6 1-11-8-6-6-1-9 3-11 9-3-4-8 2-9 8l-8 8-7 13 3 7z"/>
        <path fill="#4fd46b" fill-rule="evenodd" stroke-linejoin="round" d="M346 284c-4-3-7-7-6-11-3-4-5-6-2-10l-2-8c-6-2-4-7-2-9-3-3-3-7 0-11 0-7 5-4 9 0 0 0 6 5 1 9 5 2 7 6 4 8 4 2 5 6 3 9 4 3 2 8 4 12l-9 11zM354 252s-7-10-5-10c-1-3-3-6-2-9-3-3-3-8-1-11-2-3-1-8 2-10-1-6 3-7 6-8 3-9 7-6 9 0 4 3 3 8 2 11 4 3 1 6 0 8l-11 29z"/>
        <path fill="#4fd46b" fill-rule="evenodd" stroke-linejoin="round" d="M353 206l-6-6c1-3 3-9-2-12-3-6-15-13-17 1-2-4-6-8-9-3-7-6-10-4-7 3 0 0-3 5 5 8 1 1-2 9 7 9-2 3 1 7 5 7-3 3 2 7 5 5-1 4-1 6 4 6l6 7 5 7 4-32z"/>
        <path fill="none" stroke-linecap="round" d="M357 263l13-34m-12-12s2 21-4 37m-31-59s23 22 25 32m-9-34s2 18 8 36m33 30s-23 20-35 37m13 32s-31 5-44 5m34 9s-38-1-41-4m22-46s-19 32-20 43"/>
    </g>
    <path fill="#65c7ff" fill-rule="evenodd" stroke="#7d6c00" stroke-width="2" d="M253 356c-41-38-82-110-41-146 7 4 16 1 28-4 3 4 8 5 13 2 5 2 9 0 11-2 12 6 27 10 30 3 40 39 0 110-41 147z"/>
    <path fill="#8fc753" fill-rule="evenodd" d="M253 355a227 227 0 0 1-45-62c2-2 3-2 4-5a46 46 0 0 0 17-1c2 7 2 12 6 17l8-16a36 36 0 0 0 18 0c3 4 2 11 8 16 4-10 7-11 11-17 5 2 9 1 13 0l5 7a206 206 0 0 1-45 61z"/>
    <path fill="#fff" fill-rule="evenodd" stroke="#000" d="M206 175a4 4 0 1 1-8 0 4 4 0 0 1 8 0zm-4-8a4 4 0 1 1-7 0 4 4 0 0 1 7 0zm-5-8a4 4 0 1 1-7 0 4 4 0 0 1 7 0zm-3-7a4 4 0 1 1-7 0 4 4 0 0 1 7 0zm1-8a4 4 0 1 1-7 0 4 4 0 0 1 7 0zm19-13a4 4 0 1 1-7 0 4 4 0 0 1 7 0zm-7 1a4 4 0 1 1-7 0 4 4 0 0 1 7 0zm-8 4a4 4 0 1 1-7 0 4 4 0 0 1 7 0zm24-5a4 4 0 1 1-7 0 4 4 0 0 1 7 0zm10 0a4 4 0 1 1-7 0 4 4 0 0 1 7 0zm9 0a4 4 0 1 1-7 0 4 4 0 0 1 7 0z"/>
    <path fill="#fd0" fill-rule="evenodd" stroke="#7d6c00" d="M262 125a9 9 0 1 1-18 0 9 9 0 0 1 18 0z"/>
    <path fill="#fff" fill-rule="evenodd" stroke="#000" d="M272 131a4 4 0 1 1-7 0 4 4 0 0 1 7 0zm9 1a4 4 0 1 1-7 0 4 4 0 0 1 7 0zm9-1a4 4 0 1 1-7 0 4 4 0 0 1 7 0zm8 0a4 4 0 1 1-7 0 4 4 0 0 1 7 0zm9 1a4 4 0 1 1-7 0 4 4 0 0 1 7 0zm8 5a4 4 0 1 1-7 0 4 4 0 0 1 7 0z"/>
    <path fill="#e40000" fill-rule="evenodd" stroke="#ac0000" stroke-width="2" d="M202 162l9 17h85l9-17c-5-3-9-6-17-5-5-6-10-8-18-7a12 12 0 0 0-7-4l-18 1c-5 0-9 4-9 4-7-1-14-1-16 6-7-2-12 0-18 5z"/>
    <path fill="#fff" fill-rule="evenodd" stroke="#000" d="M318 144a4 4 0 1 1-7 0 4 4 0 0 1 7 0zm0 9a4 4 0 1 1-7 0 4 4 0 0 1 7 0zm-2 8a4 4 0 1 1-7 0 4 4 0 0 1 7 0zm-3 6a4 4 0 1 1-7 0 4 4 0 0 1 7 0zm-4 8a4 4 0 1 1-8 0 4 4 0 0 1 8 0zm-50-10a5 5 0 1 1-11 0 5 5 0 0 1 11 0zm1-12a6 6 0 1 1-13 0 6 6 0 0 1 13 0z"/>
    <path fill="#fff" fill-rule="evenodd" stroke="#000" d="M259 141a6 6 0 1 1-12 0 6 6 0 0 1 12 0z"/>
    <path fill="#fd0" fill-rule="evenodd" stroke="#7d6c00" d="M251 116v-4h-4v-4h4v-3h4v3h4v4h-4v4h-4z"/>
    <path fill="none" stroke="#fd0" stroke-width="3" d="M211 179c-8-12-19-30-12-37 9-11 32-1 46-8 1 13-2 33 3 37l-5 4c-3-4-9-9-16 1-4-4-9-3-11 1-2 1-2 2-5 2zm85 0c8-13 19-30 12-38-10-11-32-1-46-7-1 12 2 32-3 37l5 4c5-7 11-7 16 0 4-3 8-3 11 2l5 2z"/>
    <path fill="#fd0" fill-rule="evenodd" stroke="#7d6c00" stroke-width="2" d="M211 189a466 466 0 0 1 84 0l3-10c-29-5-50-6-88 0l1 10z"/>
    <path fill="#c76e2e" fill-rule="evenodd" d="M250 351v-4c3 1 6 0 8-1l3-3-2-3-4 4-5-1-2-7c-1-2-5-2-4 1v3l2 5v3l4 3zm1-19c-2 1-5-1-8-2-2 0-5 2-8 1l3-3c0-4 2-6 3-6l3 1h2l5 9z"/>
    <path fill="#ffe100" fill-rule="evenodd" stroke="#e9bf00" stroke-width="2" d="M236 391c7-13 60-37 109-90-50 48-82 60-123 89l13 1z"/>
    <path fill="#9d4916" fill-rule="evenodd" stroke="#68300e" d="M308 334a4 4 0 1 1-8 0 4 4 0 0 1 8 0zm36-37a4 4 0 1 1-8 0 4 4 0 0 1 8 0zm13-32a4 4 0 1 1-8 0 4 4 0 0 1 7 0zm-12-41a4 4 0 1 1-8 0 4 4 0 0 1 7 0z"/>
    <path fill="#fff" fill-rule="evenodd" stroke="#a9a9a9" d="M212 288v-17l-1-1v-4h3v-18l-2-1v-3h2l1-3-1-1 1-2-1-2-1-3 1-3v-1l-2-3 2-2-1-3 2-3 3-3 4-1 6 1 3 2v5l-1 3-2 1h-3l1 3v3l-1 4v3l-1 1v4l4 1v2l-3 1 1 16 4 1v5l-2 1v17h-16zm67 0v-16l-2-2v-3l3-1 1-18-2-1v-3h2v-3l-1-1 2-2-1-1-1-3 1-3-1-2-1-2 2-2-1-3a10 10 0 0 1 2-3l2-4 5-1 5 1 3 2 1 5-1 3-3 1h-3l1 3v10l-1 1v4l4 1v3h-3v17h5v5l-2 1-1 17h-15zm-34 0v-16l-1-1v-4h3v-18l-2-1v-3h2l1-4h-2l2-2-1-2-1-3 1-3-1-1-1-3 2-2-1-3a10 10 0 0 1 2-3l2-3 5-1 6 1 3 2v4l-1 3-2 2h-3l1 3v3l-1 4v2l-1 1v5l4 1v2h-3l1 17 4 1v5l-2 1v16h-16z"/>
    <path fill-rule="evenodd" d="M216 287v-12h8v13l-8-1zm34 1v-13h7v13h-7zm33 0v-12h6v12h-6zm-65-38h4v6h-4zm33 0h5v6h-5zm33 1h5v6h-5z"/>
    <path fill="none" stroke="#a8a8a8" d="M220 221l5 5m28-5c1 1 2 5 4 5m31-4s1 3 3 4"/>
    <path fill="#b97700" fill-rule="evenodd" d="M216 207c12-4-3-12-6 0-4 1-5 4-14 2-21 36-5 93 58 152-113-97-67-168-36-166 17 1 9 23-2 12z"/>
    <path fill="none" stroke="#7d6c00" stroke-width="2" d="M219 189s11 3 11 7m0-8s7 3 8 6m49-5s-10 1-12 4m-2-3s-6 5-5 6m3 13s-4-5-3-11m-32 8s3-3 3-8m14-2v12m10-2c0-1 4-8 0-12m-22-2s-2 8 0 15m21-8l-7 4m-12-2c0-1 5-2 6 1"/>
    <path fill="#c76e2e" fill-rule="evenodd" d="M235 322c1 0 4-1 4-3 2-1 1-4 1-4l-4-1-5-6v-5c-4 1-6 4-7 7l3 3h4l1 4c2 1 2 3 3 5zm-4-24v-6h-5l-2 2-3 1 4 4c2 1 4 1 6-1zm-15 10l-2-4a8 8 0 0 1 5 0v4h-3zm39 4a5 5 0 0 0 3-3l-5-6h-4l-4-1 3 3 7 7zm5 1a16 16 0 0 1 6-1l3-6 6 8-4 1-3 3c0 1-6 1-8-1s0-4 0-4zm3-14v-8h-7l-4 2s1 5 3 4c1 3 3 2 4 3l4-1zm27-6c-1 2-2 5 0 8l3 1 6-10c-4-1-7-1-9 1z"/>
    <path fill="#b97700" fill-rule="evenodd" d="M291 206c-12-4 3-12 6 0 4 1 5 4 14 3 21 35 5 92-58 151 113-97 67-168 36-166-17 1-9 23 2 12z"/>
    <path fill="#c76e2e" fill-rule="evenodd" d="M293 304l-4 2-4 2h-5l-1-3 4-4-9 3s0 4 2 6a41 41 0 0 0 5 4l6-1 6-9zm-25 32l12-14a11 11 0 0 0-5-6s-5 6-6 8l-2 10c0 1 0 3 1 2z"/>
    <path fill="#006800" fill-rule="evenodd" stroke="#004100" stroke-linejoin="round" stroke-width="2" d="M199 339c-16-14-37-22-67-11 8 3 17 4 24 8l43 3z"/>
    <path fill="none" stroke="#00a400" stroke-linecap="round" stroke-width="2" d="M153 329c31 0 40 8 39 7"/>
    <path fill="#006800" fill-rule="evenodd" stroke="#004100" stroke-linejoin="round" stroke-width="2" d="M199 340c-9 2-22 11-26 11-10-2-19-6-29-9h-12c35-17 47-14 68-2zM176 316l-17 2c-5-1-12-5-21-14-4-5-14-4-14-4 22-5 39-1 52 16zm-16-23c-15-1-35-15-40-32 0 0 6 4 5 5 26 6 28 11 36 27zm27 27c2-14 3-24-4-32-5-7-7-10-11-20-1 19-5 35 15 52zm-25-40c12-17 14-30 12-50a88 88 0 0 1-5 12c-17 11-9 28-7 39z"/>
    <path fill="#006800" fill-rule="evenodd" stroke="#004100" stroke-linejoin="round" stroke-width="2" d="M152 197c11 18 10 34 8 54a89 89 0 0 0-5-11c-17-11-6-32-3-43z"/>
    <path fill="#006800" fill-rule="evenodd" stroke="#004100" stroke-linejoin="round" stroke-width="2" d="M161 224c29-14 18-33 23-47-20 15-22 31-23 47z"/>
    <path fill="none" stroke="#00a400" stroke-linecap="round" stroke-width="2" d="M165 220l12-27m-20 49l-5-29"/>
    <path fill="#006800" fill-rule="evenodd" stroke="#004100" stroke-linejoin="round" stroke-width="2" d="M158 274c-16-1-33-23-38-40 0 0 6 4 5 5 23 10 26 19 33 35zm-5-15a67 67 0 0 1-11-51l4 12c18 11 10 28 8 39zm11-30c30-14 21-27 29-42-19 15-29 25-29 42z"/>
    <path fill="none" stroke="#00a400" stroke-linecap="round" stroke-width="2" d="M165 226c12-12 17-22 17-22"/>
    <g fill-rule="evenodd">
        <path fill="#ffe100" stroke="#e9bf00" stroke-width="2" d="M270 391h15c-48-45-140-64-127-146-13 89 75 97 112 146z"/>
        <path fill="#9d4916" stroke="#68300e" d="M166 227a5 5 0 1 1-9 0 5 5 0 0 1 9 0zm-3 25a4 4 0 1 1-9 0 4 4 0 0 1 9 0zm4 36a4 4 0 1 1-8 0 4 4 0 0 1 8 0zm33 40a4 4 0 1 1-7 0 4 4 0 0 1 7 0zm5 11a4 4 0 1 1-7 0 4 4 0 0 1 7 0z"/>
    </g>
    <g fill="#fff" fill-rule="evenodd">
        <g stroke="#000">
            <path d="M222 372a17 17 0 0 1-5-6l-15-2v9l20-1z"/>
            <path stroke-linejoin="round" d="M112 362c9 2 22-1 26 5 6 6-16 15-13 20 7 7 14 4 21 0l4-12c-3-6-10-9-8-19 12-4 36-4 38-2 2 4 0 5 1 9-2 3-8 10-8 14 13 4 16-1 28-1 13 0 22 4 24-1-2-5-14-1-19-4l-5-5c-2-2-8-2-9-7 2-11 18-10 21-11l41 3c7-1 11 13 1 17s-39-6-52 1c-1-3-10-7-11-8-4 2-11 1-11 1l-6 10c-9-4-17 3-26 1l-15 1-9-1-14 4 10-8-9-7z"/>
            <path d="M112 361a4 4 0 1 1-8 0 4 4 0 0 1 8 0zm-1 19a4 4 0 1 1-8 0 4 4 0 0 1 8 0z"/>
        </g>
        <g stroke="#000">
            <path d="M284 372c3-2 4-3 5-6l15-2v9l-20-1z"/>
            <path stroke-linejoin="round" d="M394 362c-9 2-22 0-26 5-6 6 16 15 13 20-7 7-14 4-21 0l-4-12c3-6 10-9 8-19-12-4-35-4-38-2-2 4 0 6 0 9 2 4 7 10 7 14-13 4-16-1-28-1-13 0-21 4-24-1 2-5 14-1 19-4l6-5c3-2 7-2 8-7-2-11-18-9-21-11l-41 3c-7-1-11 13-1 17s39-6 52 1c1-3 10-7 11-7h12l5 10c9-4 17 3 26 1l15 1h9l14 4-10-9 9-7z"/>
            <path d="M394 361a4 4 0 1 0 8 0 4 4 0 0 0-8 0zm1 19a4 4 0 1 0 8 0 4 4 0 0 0-8 0z"/>
        </g>
        <path d="M253 351h-7l-6 17h17c-5-1-4-17-4-17z"/>
    </g>
    <g font-family="Trebuchet MS" font-size="9" font-weight="bold">
        <text x="449" y="344" transform="translate(-581 -249) scale(1.7767)">
            <tspan x="449" y="344">L</tspan>
        </text>
        <text x="454" y="345" transform="translate(-581 -249) scale(1.7767)">
            <tspan x="454" y="345">I</tspan>
        </text>
        <text x="457" y="345" transform="translate(-581 -249) scale(1.7767)">
            <tspan x="457" y="345">B</tspan>
        </text>
        <text x="463" y="346" transform="translate(-581 -249) scale(1.7767)">
            <tspan x="463" y="346">E</tspan>
        </text>
        <text x="468" y="346" transform="translate(-581 -249) scale(1.7767)">
            <tspan x="468" y="346">R</tspan>
        </text>
        <text x="474" y="345" transform="translate(-581 -249) scale(1.7767)">
            <tspan x="474" y="345">T</tspan>
        </text>
        <text x="479" y="345" transform="translate(-581 -249) scale(1.7767)">
            <tspan x="479" y="345">A</tspan>
        </text>
        <text x="486" y="344" transform="translate(-581 -249) scale(1.7767)">
            <tspan x="486" y="344">S</tspan>
        </text>
    </g>
    <path fill="none" stroke="#00a400" stroke-linecap="round" stroke-width="2" d="M161 340h33m-49-37c9 7 29 12 29 12m11 2c-3-15-6-19-9-28m-46-17c15 7 18 11 27 18m6-15c1-19 4-23 8-28m-41-2a2102 2102 0 0 0 24 25m-8-42c7 5 7 23 7 23"/>
</svg>
