<svg xmlns="http://www.w3.org/2000/svg" viewBox="0 0 512 512">
    <defs>
        <clipPath id="a">
            <path d="M0 0h450v450H0z"/>
        </clipPath>
    </defs>
    <g clip-path="url(#a)" transform="scale(1.1378)">
        <path fill="#ed2939" fill-rule="evenodd" d="M0 0h675v225H300L0 0z"/>
        <path fill="#002395" fill-rule="evenodd" d="M0 450h675V225H300L0 450z"/>
        <path fill="#fff" fill-rule="evenodd" d="M0 0l300 225L0 450V0z"/>
        <path fill="#ff0" d="M151 170l1-4s-2-3 0-6c0 0-5-2-4-6 0 0-4-1-4-6 0 0-4 0-5-4 0 0-4 1-6-3 0 0-4 1-6-2 0 0-4 1-7-2 1 0-4 2-6-2-2 4-6 2-6 2-3 3-7 2-7 2-1 3-6 2-6 2-2 4-6 3-6 3 0 4-5 4-5 4a5 5 0 0 1-4 6c1 4-3 6-3 6 2 3 0 6 0 6v4h74"/>
        <path fill="none" d="M151 170v-4s-1-3 1-6c0 0-5-2-4-6 0 0-4-1-4-6 0 0-4 0-5-4 0 0-4 1-6-3 0 0-4 1-6-2 0 0-4 1-7-2 0 0-4 2-6-2-2 4-6 2-6 2-3 3-7 2-7 2-1 3-6 2-6 2-2 4-6 3-6 3-1 4-5 4-5 4a5 5 0 0 1-4 6c1 4-3 6-3 6 2 3 0 6 0 6v4h74z"/>
        <path fill="red" d="M150 166c-12-2-26-4-36 1-7-4-17-3-25-3l-14 2h-1c-9 1-16-2-24-5l7 41c2 20-10 38-5 58 3 10 14 16 24 17a189 189 0 0 1 28 4 28 28 0 0 1 5 2 17 17 0 0 1 5 4c6-6 14-7 21-8 14-2 32-1 40-14 5-7 4-18 2-26l-1-8c-9-22-2-47 2-70-4 3-9 4-14 5h-14"/>
        <path fill="#80cfe1" d="M167 230l1 4c2 10 3 23-7 29-11 7-26 4-38 8-3 0-7 3-8 4l-4-2c-11-6-25-4-37-7-6-2-12-7-14-13-4-16 6-30 5-46a196 196 0 0 0-6-36 50 50 0 0 0 31 3c8-1 17-1 24 3a49 49 0 0 1 13-3l26 2a44 44 0 0 0 16-4c-3 19-9 39-2 58"/>
        <path fill="#fff" d="M150 234v-18h2l-27-18v-9h3l-14-10-14 10h3v9l-27 18h2v18h72"/>
        <path fill="none" stroke="#000" d="M376 907v-18h2l-27-18v-9h3l-14-10-13 10h2v9l-27 18h2v17h72z" transform="matrix(1.0075 0 0 1.0074 -229 -679)"/>
        <path fill="#fff" d="M159 257v6H71v-6h88"/>
        <path fill="none" stroke="#000" d="M384 930v5h-87v-5h87z" transform="matrix(1.0075 0 0 1.0074 -229 -679)"/>
        <path fill="#fff" d="M77 257v-19h3v19-19h-5v-4h79v4h-5v19-19h3v19"/>
        <path fill="none" stroke="#000" d="M303 929v-18h3v19-19h-5v-4h78v4h-4v19l-1-19h4v19" transform="matrix(1.0075 0 0 1.0074 -229 -679)"/>
        <path fill="none" stroke="#000" d="M320 925v-13h-11v13h11" transform="matrix(1.0075 0 0 1.0074 -229 -679)"/>
        <path fill="none" stroke="#000" d="M312 914v8h5v-8h-5m59 11v-13h-11v13h11" transform="matrix(1.0075 0 0 1.0074 -229 -679)"/>
        <path fill="none" stroke="#000" d="M363 915v7h5v-7h-5m8-11v-13h-11v13h11z" transform="matrix(1.0075 0 0 1.0074 -229 -679)"/>
        <path fill="none" stroke="#000" d="M363 893v8h5v-8h-5m-43 11v-14h-11v13h11z" transform="matrix(1.0075 0 0 1.0074 -229 -679)"/>
        <path fill="none" stroke="#000" d="M312 893v8h5v-8h-5m26 11v-14h-10v13h11" transform="matrix(1.0075 0 0 1.0074 -229 -679)"/>
        <path fill="none" stroke="#000" d="M331 893v8h5v-8h-5m22 11v-13l-10-1v13h10" transform="matrix(1.0075 0 0 1.0074 -229 -679)"/>
        <path fill="none" stroke="#000" d="M345 893v8h5v-8h-5" transform="matrix(1.0075 0 0 1.0074 -229 -679)"/>
        <path fill="#fff" d="M130 227v30H99v-30h31"/>
        <path fill="none" stroke="#000" d="M356 900v30h-30l-1-30h31zm-31 8h31m-27 22v-22m23 22v-22m15-21l-17-13h-19l-17 13h53m-35-23v7h16v-7h-16" transform="matrix(1.0075 0 0 1.0074 -229 -679)"/>
        <path fill="none" stroke="#000" d="M336 866v4h8v-4h-8m4-11l9 6h-18l9-6" transform="matrix(1.0075 0 0 1.0074 -229 -679)"/>
        <path fill="#fff" d="M151 178c2 0 3 10 3 15a24 24 0 0 1 9 7h-25a24 24 0 0 1 9-6c0-6 1-16 4-16"/>
        <path fill="none" stroke="#000" d="M376 851c3 0 4 10 4 16 2 0 7 3 9 6h-25c2-3 7-6 9-6 0-6 1-16 3-16m-49 49h2l-1 1v4l1 1h-2v-6m4 0h3l-1 1v5h-2l1-1v-3l-1-2m5 0h2v6h-2l1-1v-3l-1-2zm6 0h2l-1 2s1 1 0 2l1 1h-2v-5zm5 0h2l-1 2s1 1 0 2l1 1h-2v-5m5 0h2l-1 2s1 1 0 2l1 1h-2v-5" transform="matrix(1.0075 0 0 1.0074 -229 -679)"/>
        <path fill="#ff0" d="M115 296a82 82 0 0 0 32-6l14-1v18a135 135 0 0 1-94 0l1-18 14 1a87 87 0 0 0 33 6"/>
        <path fill="none" d="M115 296c11 0 25-2 32-6l14-1 1 18c-13 6-41 8-47 8s-35-2-48-8l1-18 14 1c7 4 21 6 33 6"/>
        <path fill="#ff0" d="M30 221l13 4-4 20-12 2s-2-11 3-26"/>
        <path fill="none" d="M30 221l13 4-4 20-12 2s-2-11 3-26z"/>
        <path fill="#7e7e7e" d="M39 245l-12 2 8-11 4 9"/>
        <path fill="none" d="M39 245l-12 2 8-11 4 9"/>
        <path fill="#ff0" d="M23 236h12c0 11 1 51 49 53l-2 14c-57 1-62-48-59-67"/>
        <path fill="none" d="M23 236h12c0 11 1 51 49 53l-2 14c-57 1-62-48-59-67zm45 70l14-3"/>
        <path fill="#ff0" d="M198 221l-13 4 4 21 13 2s2-11-4-27"/>
        <path fill="none" d="M198 221l-13 4 4 20 13 3s2-11-4-27z"/>
        <path fill="#7e7e7e" d="M189 245l13 2-8-10-5 8"/>
        <path fill="none" d="M189 245l13 2-8-10-5 8"/>
        <path fill="#ff0" d="M206 236l-12 1c-1 10-2 50-49 52l2 14c57 1 61-48 59-67"/>
        <path fill="none" d="M206 236l-12 1c-1 10-1 50-49 52l2 14c57 1 61-48 59-67zm-45 70l-14-3"/>
        <path fill="#009fc5" d="M107 305h-4l1-3h3l1 2-1 1m-4 4v-3h3a3 3 0 0 0 2-1l1-1a2 2 0 0 0-1-2 3 3 0 0 0-2-1h-4v8h1m8-7h3l1 1 1 1-1 1h-4v-3m0 8v-4h4l1 1v3h1a1 1 0 0 1 0-1v-2l-1-1 1-1v-1l-1-2a4 4 0 0 0-2 0h-4v8h1m9-2a4 4 0 0 1-1-2l1-3 2-1 2 1 1 2v3l-3 1-2-1m-1-5a5 5 0 0 0-1 3 5 5 0 0 0 1 3 4 4 0 0 0 3 1 4 4 0 0 0 4-2 5 5 0 0 0 0-3 4 4 0 0 0-1-3l-3-1c-2 0-3 1-3 2m38-12a4 4 0 0 1 3 0l2 2h-2a2 2 0 0 0-1-1 3 3 0 0 0-1 0 3 3 0 0 0-2 1l-1 3 1 2h3a3 3 0 0 0 2-1v-2l-3 1v-1l4-1 1 5h-1l-1-1a4 4 0 0 1-1 1 4 4 0 0 1-1 0 4 4 0 0 1-3 0 5 5 0 0 1-2-3 5 5 0 0 1 1-4 4 4 0 0 1 2-1m9-1l2-1a2 2 0 0 1 1 0l1 1v1l-1 1-2 1-1-3m2 7l-1-3 3-1a3 3 0 0 1 1 0h1v2l1 1 1-1h-1v-2l-1-1a2 2 0 0 0-1 0l1-1a2 2 0 0 0 0-1l-2-2h-2l-4 2 3 7h1m10-4l-5-7 6-3v1l-4 2 1 2 4-2 1 1-4 2 1 3 5-3v1l-5 3m4-12l2-2 2-1a4 4 0 0 1 2 2 4 4 0 0 1 1 1v2l-1 1-1 1-5-4m7 3c1-1 2-2 1-3a6 6 0 0 0-2-2 5 5 0 0 0-2-2 3 3 0 0 0-3 2l-2 2 6 6 2-3m5-6l-7-5 1-1 7 5-1 1m3-5l-8-3 3-6h1l-2 5 2 1 2-4h1l-2 4 3 1 2-4h1l-3 6m4-10l-9-2 1-1 7-3-6-1v-1l8 2v1l-8 2 7 2v1m-1-11v-1h1l1-2v-1l-1-1h-1v2l-1 1-1 1-1 1a3 3 0 0 1-2-1l-1-2 1-2 2-1v1h-1l-1 2 1 1 1 1 1-1v-1l1-1v-1a2 2 0 0 1 2-1l2 1v3a3 3 0 0 1-1 2 3 3 0 0 1-2 0m-172 0v1l-1 1v3h3v-4l2-1a3 3 0 0 1 2 0l1 2a3 3 0 0 1-1 2l-1 2-1-1 1-1 1-2-1-1a1 1 0 0 0-1 0 1 1 0 0 0-1 0 4 4 0 0 0 0 2v1a3 3 0 0 1 0 1 2 2 0 0 1-2 1h-2a4 4 0 0 1-1-2 3 3 0 0 1 0-3 3 3 0 0 1 2-1m0 11l8-3 2 6h-1l-2-4h-2l1 5h-1l-1-4-3 1 2 4-1 1-2-6m3 10l8-4 1 1-6 6 8-2 1 2-8 4v-1l4-3h1l1-1-8 2v-1l5-6-1 1a6 6 0 0 1-1 0l-4 3-1-1m14 11l-1-1-2-2 3-2 1 2 1 1-1 1-1 1m-6 0l3-2 2 2a3 3 0 0 0 1 1 3 3 0 0 0 2-1l1-2-1-1-2-3-7 6h1m8 7l4-7 5 3v1l-5-2-1 2 4 2v1l-4-3-2 3 4 2v1l-5-3m13-1l3 1 1 1-1 1h-2l-2-1 1-2m-2 7l1-4 2 1 1 1v3h1v-2-1a2 2 0 0 0 0-1h1l1-1-1-3h-1l-4-2-3 8 1 1"/>
        <path fill="#bc715f" d="M69 154c1-2 10-8 39-6 0 0 5 4 8 3 2 0-1 0-3-2s-3-5 3-5c5 0 24 1 24 3s-10 2-14 2-3 2 0 2c12 0 25-5 39 5 2 1-4 1-8-1h-18s-4 4-9 3c1 2-2 8-19 4-2 0-12 2-11-1-3 0-8 1-8-1-1-1 8-3 9-5l-22-1s-11 3-10 0"/>
        <path fill="#008737" d="M75 180l1-1c2 0 3 4 6 2 1-1 1 0 1 1 1 1 2-1 3-1a14 14 0 0 1 9 0l-3 4 1 5-1 2-4-1 1 2h-3v2l-2-2v2c0 2 0 5-3 6l-1 1-1-4-3 4-3-4a5 5 0 0 1 2-6c-1-1-3 0-3-2-3-1-4 3-6 1a8 8 0 0 1 2-7l-2-1c-2-2-4-3-4-5a12 12 0 0 1 13 2"/>
        <path fill="#ff0" d="M77 180c0 2 2 1 3 2h-3v2c-1 1-1 0-1-1l-1-1-1 1-1-1h3v-2h1m6 2v1l2 1-1 1-1-1h-1l1 1h-2l-1-1-1 1v-2a1 1 0 0 1 1 0c1 0 1-3 3-1m-7 3v2c1-2 2 0 3 0v2l-4-1v1l1 2-3-1-1-2c0 1 0 2-2 1a2 2 0 0 1 0-2l3-1 1-2c1-1 1 0 2 1"/>
        <path fill="#fff" d="M80 186c-1 2-2-1-3-1 1-1 1 1 3 1m4 2l-1-2 1 2"/>
        <path fill="#ff0" d="M83 187v2l1-1 2 1c0 2-1 2-2 2h-1v-1a1 1 0 0 0-1 1v2c-1 0-3 1-3-1v-2c-1 1-1 2-2 1v-1l3-1v-3l3 1"/>
        <path d="M82 190l-1 1-1-1 1-1 1 1"/>
        <path fill="#fff" d="M81 190v-1 1"/>
    </g>
</svg>
