<svg xmlns="http://www.w3.org/2000/svg" viewBox="0 0 512 512">
    <defs>
        <clipPath id="a">
            <path d="M124 0h496v496H124z"/>
        </clipPath>
    </defs>
    <g clip-path="url(#a)" transform="translate(-128) scale(1.0321)">
        <path fill="#3e5eb9" fill-rule="evenodd" d="M0 0h744v496H0z"/>
        <path fill="#ffd900" fill-rule="evenodd" d="M0 89h744v319H0z"/>
        <path fill="#b10c0c" fill-rule="evenodd" d="M0 124h744v248H0z"/>
        <rect width="602" height="11" x="74" y="243" fill="#ffd900" fill-rule="evenodd" stroke="#000" rx="5" ry="5"/>
        <g stroke="#000" transform="translate(-609 -25)">
            <path fill="#fff" fill-rule="evenodd" stroke-width="4" d="M-106 266l-89 35 89 36 88-36-88-35z" transform="matrix(.34 0 0 .3 1257 136)"/>
            <rect width="443" height="7" x="762" y="223" fill="#ffd900" fill-rule="evenodd" rx="4" ry="4"/>
            <path fill="none" stroke-width="3" d="M1224 280c-3 0-7-4-7-7s4-7 7-7" transform="matrix(-.50001 0 0 .5 1806 90)"/>
            <path fill="none" stroke-width="3" d="M1224 280c-3 0-7-4-7-7s4-7 7-7" transform="matrix(-.50001 0 0 .5 1803 90)"/>
            <path fill="none" stroke-width="3" d="M1224 280c-3 0-7-4-7-7s4-7 7-7" transform="matrix(-.50001 0 0 .5 1799 90)"/>
        </g>
        <g stroke="#000" transform="translate(-638 -3)">
            <path fill="#fff" fill-rule="evenodd" stroke-width="4" d="M-106 266l-89 35 89 36 88-36-88-35z" transform="matrix(.34 0 0 .3 1257 136)"/>
            <rect width="443" height="7" x="762" y="223" fill="#ffd900" fill-rule="evenodd" rx="4" ry="4"/>
            <path fill="none" stroke-width="3" d="M1224 280c-3 0-7-4-7-7s4-7 7-7" transform="matrix(-.50001 0 0 .5 1806 90)"/>
            <path fill="none" stroke-width="3" d="M1224 280c-3 0-7-4-7-7s4-7 7-7" transform="matrix(-.50001 0 0 .5 1803 90)"/>
            <path fill="none" stroke-width="3" d="M1224 280c-3 0-7-4-7-7s4-7 7-7" transform="matrix(-.50001 0 0 .5 1799 90)"/>
        </g>
        <g fill-rule="evenodd">
            <path fill="#3d5da7" stroke="#000" d="M338 0c-5 12 4-4 28 16 5 4 9 14 9 21l-4-4c-1 2 2 13 3 17-4-2-4-4-5-7 0 4-1 15 1 19-3-1-3-4-4-4 1 5-1 10-1 15l-4-5-4 12-2-4c-1 3-8 14-8 17-5-5-18-19-20-27-1 5-3 6-8 9-1-12-8-25-4-35a84 84 0 0 0-7 6 68 68 0 0 1 30-46z" transform="matrix(.96345 0 0 .74716 308 244)"/>
            <path fill="#a70000" d="M614 290c2-5 4-6 6-9 2-5 3-9 5-8 2 0 2 2-1 7s-4 6-10 10zm15 10l1-6c-1-4-2-7 0-7s3 1 3 5-1 5-4 9zm12 7l-1-10c-1-5-3-9-1-9 2-1 3 1 4 7 0 5 0 7-2 12zm12-33l-7-4c-3-2-4-5-5-3-1 1-1 2 3 5 3 2 4 2 9 2zm-2 16l-4-6c-2-4-2-7-4-6s-2 3 0 6 3 4 8 6z"/>
        </g>
        <g fill-rule="evenodd">
            <path fill="#3d5da7" stroke="#000" d="M330 21c-1-3 0-3-2-5 3 1 3 3 5 1 1 0 2 0 1-3l13 4c4 0 11-5 16 1 4 5 3 10 3 17l-3-4v24l-2-2c-2 6-4 7-4 14l-1-4c-2 5-15 9-10 13-4-2-6-2-8-5l-3 4c-8-4-5-13-11-18l-2 5-3-12-3 4c-1-6-3-8-2-12l-3 3c2-17 12-29 19-25z" transform="matrix(1.1018 0 0 1.01684 -263 232)"/>
            <path fill="#a70000" d="M89 281c3-6 5-7 6-11 3-6 3-11 5-10 2 0 2 3-1 9a25 25 0 0 1-9 12zm9 14l3-10c1-6 0-10 2-10s3 2 2 8c-2 6-3 7-7 12zm10 9l2-10c0-5-1-9 1-9s3 2 2 8c-1 5-1 6-5 11zm22-31l-9-8c-5-4-7-9-9-7-2 1-1 4 4 8 5 5 7 5 14 7zm-2 16l-7-8c-3-5-4-9-6-8s-1 3 2 8 5 5 11 8z"/>
        </g>
        <g fill-rule="evenodd">
            <path fill="#fff" stroke="#000" stroke-width="2" d="M638 230c-53 59-124 178-266 178-124 0-213-119-266-178 53-59 142-177 266-177 142 0 213 118 266 177z" transform="matrix(.66667 0 0 .6 124 110)"/>
            <path d="M360 179c9 10 1 15 11 15 11 1 5 11 14 12 6 0-1 25 5 33 6 9 11 3 11 9s-16 5-17 25c0 11-14 12-14 19-1 7 26 11 26 17s-30 5-31 12c-1 6 40 11 44 29-6 2-24 4-37 4-83 0-142-71-177-106 35-35 94-106 177-106 0 0-25 22-12 37z"/>
            <path fill="#fff" d="M261 210h9v29h-9zm0 47h9v29h-9zm17-47h9v29h-9zm0 47h9v29h-9zm17-47h9v29h-9zm0 47h9v29h-9zm18-47h8v29h-8zm0 47h8v29h-8zm17-47h8v29h-8zm0 47h8v29h-8zm17-47h8v29h-8zm0 47h8v29h-8z"/>
            <path d="M391 210h9v29h-9zm0 47h9v29h-9zm17-47h9v29h-9zm0 47h9v29h-9zm17-47h9v29h-9zm0 47h9v29h-9zm18-47h8v29h-8zm0 47h8v29h-8zm17-47h8v29h-8zm0 47h8v29h-8zm17-47h8v29h-8zm0 47h8v29h-8z"/>
        </g>
        <g fill-rule="evenodd">
            <path fill="#3d5da7" stroke="#000" d="M338 0c-5 12 10-4 34 16a51 51 0 0 1 11 27l-15-7c1 0 11 12 11 26-4-3-5-2-7-6 0 5 4 8 4 15a50 50 0 0 0-8-6c4 7-6 21-1 26-9-2-18-8-21-15-2 1-2 3-3 6 1 0-13-12-12-16l-2 8a44 44 0 0 1-11-19l-5 6c-2-11-2-11 2-21a84 84 0 0 0-7 6 68 68 0 0 1 30-46z" transform="matrix(.8811 0 0 .76298 17 161)"/>
            <path fill="#a70000" d="M303 207c0-6 2-9 3-13 1-8 0-13 2-13 3 0 4 3 2 10s-2 10-7 16zm13 12l1-11c-1-7-3-11-1-11 3-1 4 1 4 8 0 6 0 8-4 14zm22 10l-6-10c-3-5-3-9-5-8-2 0-2 3 1 8s4 6 10 10zm7-43l-13-5c-6-4-10-8-12-5-1 2 1 4 8 7s9 3 17 3zm2 18c-4-4-7-4-9-7-5-4-8-8-9-6-2 2-1 4 4 8 5 3 7 4 14 5z"/>
        </g>
    </g>
</svg>
