<svg xmlns="http://www.w3.org/2000/svg" viewBox="0 0 512 512">
    <defs>
        <clipPath id="a">
            <path d="M0 0h512v512H0z"/>
        </clipPath>
    </defs>
    <g clip-path="url(#a)">
        <path fill="#006" d="M1024 512V0H0v512h1024z"/>
        <path fill="#006" fill-rule="evenodd" d="M0 0h512v256H0z"/>
        <path fill="#fff" d="M0 0v29l455 227h57v-29L57 0H0zm512 0v29L57 256H0v-29L455 0h57z"/>
        <path fill="#fff" d="M213 0v256h86V0h-86zM0 85v86h512V85H0z"/>
        <path fill="#c00" d="M0 102v52h512v-52H0zM230 0v256h52V0h-52zM0 256l171-85h38L38 256H0zM0 0l171 85h-39L1 19V0zm303 85L474 0h38L341 85h-38zm209 171l-171-85h39l132 66v19z"/>
        <path fill="#fff" d="M494 141v116c0 96-38 183-149 237a244 244 0 0 1-149-237V141h298z"/>
        <path fill="#fdc300" d="M484 153v108c0 90-35 171-139 221a227 227 0 0 1-139-221V153h278z"/>
        <g stroke="none" stroke-width="0">
            <path fill="#ff9e3d" d="M280 201a11 11 0 0 0-7-3c0-8-5-10-9-12-4-1-6-3-6-6s-2-5-6-6l-8-6c-1-2-2-2-3 1s-5 9-1 9c-3 2-4 4-3 8-1 2-2 4 0 4l3 3c-2 0-3 4 2 5-1 0-1 4 1 4-3 0-6 4-9 4-4 0-6 1-6 3l-3 5 6-1c2-1 4-2 5 0l7 1c-3 3-6 5-6 9 0 3-3 7-6 8-2 1-6 3-6 7 3 8 7 9 12 12 8 3 13 6 16 10 4 3 5 0 10 7 5 6 10 19 15 20 5 3 11 1 15-5s5-71-13-82z"/>
            <path fill="#ff927f" d="M289 173c-5 6-12 11-10 20s2 24-7 28c-8 6-12 18-2 26 10 7 11 16 12 24 2 9 6 16 13 10 7 1 10-2 10-7s0-8 6-10c4-2 6-4 8-8 3-5 4-7 3-9a21 21 0 0 1-1-13c1-4-2-5-3-8a11 11 0 0 1-1-8c0-4-1-6-3-8-3-1-4-3-3-5 0-3-2-5-5-7s-4-5-4-9-8-13-13-16z"/>
            <path fill="#ff9ee1" d="M290 283c12-3 11-21 9-29s-6-19-3-28c5-12-6-24-3-28 3-5 2-8 2-9s-3-3-3 0c0 4-1 5-3 7s-2 6 0 11c1 5 5 12 0 22s-3 14-2 18c4 8 11 32 3 36z"/>
            <path fill="none" d="M240 178l4 1m-6 7l6-1m-4 8c2 0 5 0 8-3m-6 8c3 0 6-1 7-4m-6 8h9m-8 12c2-3 8-4 9-6m-3-31c4 1 2 4 4 5 4 3 0 6 4 7 3 1 3 1 2 5s2 4 1 7m12-3c-2 0-7 0-9 4m-27 44l3-1c1-2 1-3 3-3l5-1c0-2 2 0 4-4s4-8 8-10"/>
        </g>
        <g stroke="none" stroke-width="0">
            <path fill="#00a728" d="M370 320c2 2 0 5 3 7 4 1 1 5 5 8 4 1 0 5 4 8 4 2 0 6 5 9s-1 8 2 11c4 2-1 7 4 10 4 2-2 6 2 9s-1 8 3 11-2 7 2 11c3 3-1 6 1 12 2 2-2 15-10 14-4 5-16 10-20 8-5 4-19 8-27 1-7 7-21 3-26 0-4 1-17-4-20-9-9 1-12-12-10-15 2-5-2-8 1-11 4-4-3-8 2-11s-1-8 3-11-3-8 2-9c5-3-1-8 3-10 4-3-2-8 3-11s0-7 5-9c4-2 0-7 4-8 4-2 1-7 5-8 3-2 1-5 3-8 10 4 39 7 51 0z"/>
            <path fill="#fdc300" d="M323 336l-1 5c-3 3 1 6-3 10-2 4 1 6-2 10-4 3 0 7-3 10-4 4 0 7-3 10-4 4 0 8-3 11-3 4 1 8-3 12s0 8-3 11 0 6-2 8c3-3 3-7 6-9s0-6 1-8 0-8 3-11 0-10 3-11 1-10 4-12 0-7 2-10c3-3 0-7 3-11 3-3 0-7 2-10 1-1 1-10-1-5zm9 4c-2 4 2 5-1 9s2 8-2 12 2 6-1 10c-3 5 1 7-1 10-3 3 2 6-1 10-4 4 1 7-2 10-2 4 1 8-1 11s2 6-2 10 1 6-1 9c4-1 2-6 4-8 1-1-1-8 2-10 2-2-2-8 0-10 4-5 1-7 3-11 2-3-1-7 1-10 3-4-1-7 0-10 3-4 0-7 2-9 3-4 0-8 1-11 1-1 3-11 0-12zm12 4c-2 5 2 7 0 12-1 4 2 8 0 12-1 5 3 9 0 15s2 8 0 14c-1 7 3 11 0 16s4 7 0 12c-1 3 0 9 3 1 3-7-1-8 0-11 3-3 0-11 1-17 1-4-2-10 0-14 2-6-4-11-1-15 1-4-1-9 1-12 2-4-2-8-1-10s-1-9-3-3z"/>
            <path fill="#ef072d" d="M368 323c0-36-5-48-24-48-18 0-23 12-23 48h47z"/>
            <path fill="none" d="M327 320c-3 4 1 6-2 11-4 4 0 6-3 10s1 6-3 10c-2 4 2 6-2 10-4 3 0 7-3 10-4 4 0 7-3 10-4 4 0 7-3 11s1 8-3 12 0 8-3 11 0 6-2 8-3 6-2 7m36-109c-3 5 2 6-1 10s1 5-1 9 2 5-1 9 2 8-2 12 2 6-1 10c-3 5 1 7-1 10-3 3 2 6-2 10-3 4 2 7-1 10-2 4 1 8-1 11s2 6-2 10 1 6-1 9-3 6-2 7m26-113c-1 7 3 13 0 19s2 7 0 12c-1 4 2 8 0 12-1 5 3 9 0 15s2 8 0 14c-1 7 4 11 0 16-3 5 3 6 0 12-2 6 2 8 0 14m18-119c3 4-2 6 2 11 4 4 0 6 3 10s-1 6 2 10 0 6 3 10c4 3 0 7 3 10 4 4 0 7 3 10 4 4-1 7 3 11 3 4-1 8 3 12s-1 8 3 11c2 3 0 6 2 8s3 6 2 7m-36-109c3 5-2 6 1 10s-1 5 1 9-2 5 1 9-2 8 2 12-2 6 1 10c3 5-1 7 1 10 3 3-2 6 1 10 4 4-1 7 2 10 2 4-1 8 1 11s-2 6 2 10-1 6 1 9 3 6 2 7"/>
            <path d="M321 323c0-36 5-48 23-48-8 0-13 7-15 11s0 4 1 2 1 3 0 4c-1 3-3 8-1 6 2-1 4 1 1 4s-4 11-1 9c2-3 2 1 1 4v9h-9zm43-2c0-28-3-37-10-39-4-2-4-2-2 1s2 6 0 4-2-3-4-2l5 11c2 4 0 6-2 2s-3 0 0 3c3 4 2 16 2 22l11-2z"/>
            <path fill="#ef072d" d="M344 328c8 0 16-1 22-3s6-5 4-8c-2-2-5-1-8 1a64 64 0 0 1-35 0c-3-1-6-3-8-1-2 3-2 6 4 8s14 3 21 3z"/>
        </g>
        <g fill="#b95a1e" fill-rule="evenodd">
            <path stroke="#000" stroke-width="4" d="M779 913v179c0 75 20 105 55 103 34-1 41-58 34-92-6-33-53-199-53-199l-36 9z" transform="matrix(.07727 -.0499 .04732 .08148 314 246)"/>
            <path stroke="#000" stroke-width="4" d="M779 913v179c0 75 20 105 55 103 34-1 41-58 34-92-6-33-53-199-53-199l-36 9z" transform="matrix(.08863 -.01984 .01882 .09346 330 212)"/>
            <path stroke="#000" stroke-width="4" d="M779 913v179c0 75 20 105 55 103 34-1 41-58 34-92-6-33-53-199-53-199l-36 9z" transform="matrix(.0906 0 0 .09555 343 195)"/>
            <path stroke="#000" stroke-width="6" d="M780 255c159-1 177-35 177-35s35-71 17-89c-17-18-194-18-194-18v142z" transform="matrix(.05623 0 0 .09555 370 257)"/>
            <path stroke="#000" stroke-width="4" d="M780 255c106 0 124-35 124-35s35-71 17-89c-17-18-142-18-142-18v142z" transform="matrix(.0906 0 0 .09555 343 251)"/>
            <path stroke="#000" stroke-width="4" d="M780 255c88 0 141-35 141-35s36-71 18-89-159-18-159-18v142z" transform="matrix(.0906 0 0 .09555 343 244)"/>
            <path stroke="#000" stroke-width="4" d="M833 113s71-88 195-177c124-88 213-156 230-141 0 17-106 106-195 177S868 149 868 149l-35-36z" transform="matrix(.11244 0 0 .09555 326 195)"/>
            <path stroke="#000" stroke-width="4" d="M833 113s70-52 204-124c132-64 319-53 319-35-18 18-177 18-283 71-102 51-205 124-205 124l-35-36z" transform="matrix(.11244 0 0 .09555 326 202)"/>
            <path stroke="#000" stroke-width="4" d="M833 113s61-35 204-88c142-53 330-18 330 0-18 18-170 7-277 35-110 28-222 89-222 89l-35-36z" transform="matrix(.11244 0 0 .09555 327 213)"/>
            <path stroke="#000" stroke-width="4" d="M833 113s71-71 222-88c152-18 276 88 276 106-17 18-159-78-265-64a434 434 0 0 0-198 82l-35-36z" transform="matrix(.11244 0 0 .09555 327 225)"/>
            <path stroke="#000" stroke-width="4" d="M780 255c159-1 159-45 159-45s35-71 18-89c-18-18-177-8-177-8v142z" transform="matrix(.0906 0 0 .09555 343 235)"/>
            <path stroke="#000" stroke-width="4" d="M780 255c159-1 177-35 177-35s35-71 17-89c-17-18-194-18-194-18v142z" transform="matrix(.0906 0 0 .09555 343 229)"/>
            <path stroke="#000" stroke-width="4" d="M780 255c159-1 195-35 195-35s35-71 17-89-212-18-212-18v142z" transform="matrix(.0906 0 0 .09555 343 220)"/>
            <path stroke="#000" stroke-width="4" d="M780 255c159-1 212-35 212-35s18-71 0-89-212-18-212-18v142z" transform="matrix(.0906 0 0 .09555 343 212)"/>
            <path stroke="#000" stroke-width="4" d="M833 113S947 25 947-46s-51-142-65-177c29 0 93 106 93 177 0 77-107 195-107 195l-35-36z" transform="matrix(.11244 0 0 .09555 323 188)"/>
            <path stroke="#000" stroke-width="4" d="M833 113s-15-53-15-159a355 355 0 0 1 86-230c6 27-57 124-57 230 0 78 21 195 21 195l-35-35z" transform="matrix(.11244 0 0 .09555 323 188)"/>
            <path stroke="#000" stroke-width="4" d="M780 255c159-1 212-35 212-35s0-71-18-89c-17-18-195-18-195-18v142z" transform="matrix(.0906 0 0 .09555 343 203)"/>
            <path stroke="#000" stroke-width="4" d="M780 255c159-1 195-35 195-35s0-71-18-89-177-18-177-18v142z" transform="matrix(.0906 0 0 .09555 343 195)"/>
            <path stroke="#fdc301" stroke-width="11" d="M319 1318c55-122 71-337 71-372 0-100-33-585-36-780s124-301 248-301c107 0 177 71 177 177h-53A121 121 0 0 0 602-82C496-82 414 2 407 166c-7 190 22 683 18 815s-51 250-106 337z" transform="matrix(-.0906 0 0 .09555 484 195)"/>
            <path stroke="#000" stroke-width="4" d="M779 913v179c0 75 20 105 55 103 34-1 41-58 34-92-6-33-53-199-53-199l-36 9z" transform="matrix(-.07727 -.0499 -.04732 .08148 514 246)"/>
            <path stroke="#000" stroke-width="4" d="M780 33c124 0 177 102 177 100l-36 33c-19 18-142 18-140 18l-2-151z" transform="matrix(.0906 0 0 .09555 343 195)"/>
            <path stroke="#000" stroke-width="4" d="M779 913v179c0 75 20 105 55 103 34-1 41-58 34-92-6-33-53-199-53-199l-36 9z" transform="matrix(-.08863 -.01984 -.01882 .09346 498 212)"/>
            <path stroke="#000" stroke-width="4" d="M779 913v179c0 75 20 105 55 103 34-1 41-58 34-92-6-33-53-199-53-199l-36 9z" transform="matrix(-.0906 0 0 .09555 484 195)"/>
            <path stroke="#000" stroke-width="6" d="M780 255c159-1 177-35 177-35s35-71 17-89c-17-18-194-18-194-18v142z" transform="matrix(-.05623 0 0 .09555 458 257)"/>
            <path stroke="#000" stroke-width="4" d="M780 255c106 0 124-35 124-35s35-71 17-89c-17-18-142-18-142-18v142z" transform="matrix(-.0906 0 0 .09555 484 251)"/>
            <path stroke="#000" stroke-width="4" d="M780 255c88 0 141-35 141-35s36-71 18-89-159-18-159-18v142z" transform="matrix(-.0906 0 0 .09555 484 244)"/>
            <path stroke="#000" stroke-width="4" d="M833 113s71-88 195-177c124-88 213-156 230-141 0 17-106 106-195 177S868 149 868 149l-35-36z" transform="matrix(-.11244 0 0 .09555 502 195)"/>
            <path stroke="#000" stroke-width="4" d="M833 113s70-52 204-124c132-64 319-53 319-35-18 18-177 18-283 71-102 51-205 124-205 124l-35-36z" transform="matrix(-.11244 0 0 .09555 501 202)"/>
            <path stroke="#000" stroke-width="4" d="M833 113s61-35 204-88c142-53 330-18 330 0-18 18-170 7-277 35-110 28-222 89-222 89l-35-36z" transform="matrix(-.11244 0 0 .09555 501 213)"/>
            <path stroke="#000" stroke-width="4" d="M833 113s71-71 222-88c152-18 276 88 276 106-17 18-159-78-265-64a434 434 0 0 0-198 82l-35-36z" transform="matrix(-.11244 0 0 .09555 500 225)"/>
            <path stroke="#000" stroke-width="4" d="M780 255c159-1 159-45 159-45s35-71 18-89c-18-18-177-8-177-8v142z" transform="matrix(-.0906 0 0 .09555 484 235)"/>
            <path stroke="#000" stroke-width="4" d="M780 255c159-1 177-35 177-35s35-71 17-89c-17-18-194-18-194-18v142z" transform="matrix(-.0906 0 0 .09555 484 229)"/>
            <path stroke="#000" stroke-width="4" d="M780 255c159-1 195-35 195-35s35-71 17-89-212-18-212-18v142z" transform="matrix(-.0906 0 0 .09555 484 220)"/>
            <path stroke="#000" stroke-width="4" d="M780 255c159-1 212-35 212-35s18-71 0-89-212-18-212-18v142z" transform="matrix(-.0906 0 0 .09555 484 212)"/>
            <path stroke="#000" stroke-width="4" d="M833 113S947 25 947-46s-51-142-65-177c29 0 93 106 93 177 0 77-107 195-107 195l-35-36z" transform="matrix(-.11244 0 0 .09555 504 188)"/>
            <path stroke="#000" stroke-width="4" d="M833 113s-15-53-15-159a355 355 0 0 1 86-230c6 27-57 124-57 230 0 78 21 195 21 195l-35-35z" transform="matrix(-.11244 0 0 .09555 504 188)"/>
            <path stroke="#000" stroke-width="4" d="M780 255c159-1 212-35 212-35s0-71-18-89c-17-18-195-18-195-18v142z" transform="matrix(-.0906 0 0 .09555 484 203)"/>
            <path stroke="#000" stroke-width="4" d="M780 255c159-1 195-35 195-35s0-71-18-89-177-18-177-18v142z" transform="matrix(-.0906 0 0 .09555 484 195)"/>
            <path stroke="#fdc301" stroke-width="11" d="M319 1318c55-122 71-337 71-372 0-100-33-585-36-780s124-301 248-301c107 0 177 71 177 177h-53A121 121 0 0 0 602-82C496-82 414 2 407 166c-7 190 22 683 18 815s-51 250-106 337z" transform="matrix(.0906 0 0 .09555 343 195)"/>
            <path stroke="#000" stroke-width="4" d="M780 33c124 0 177 102 177 100l-36 33c-19 18-142 18-140 18l-2-151z" transform="matrix(-.0906 0 0 .09555 484 195)"/>
        </g>
    </g>
</svg>
