<svg xmlns="http://www.w3.org/2000/svg" xmlns:xlink="http://www.w3.org/1999/xlink" viewBox="0 0 512 512">
    <path fill="#060" d="M0 0h512v512H0z"/>
    <path fill="#fff" d="M0 0h512v366H0z"/>
    <path fill="#c00" d="M0 0h512v146H0z"/>
    <g fill="#f8c300" transform="translate(-256) scale(.73143)">
        <path d="M672 341a13 13 0 0 1 23 6v50h10v-50a13 13 0 0 1 23-6 30 30 0 1 0-56 0"/>
        <path fill="#fff" d="M679 328a20 20 0 0 1 21 9 20 20 0 0 1 21-9 22 22 0 0 0-42 0"/>
        <path id="a" d="M695 377a38 38 0 0 1-64 24 40 40 0 0 1-59 17c3 37 58 29 62-6 17 30 55 22 66-15z"/>
        <use width="100%" height="100%" transform="matrix(-1 0 0 1 1400 0)" xlink:href="#a"/>
        <path id="b" d="M659 441c-8 17-23 20-36 6 0 0 5-3 11-4a18 18 0 0 1 4-15 22 22 0 0 1 9 12c8-1 12 1 12 1z"/>
        <use width="100%" height="100%" transform="rotate(9 700 804)" xlink:href="#b"/>
        <use width="100%" height="100%" transform="rotate(19 700 804)" xlink:href="#b"/>
        <path fill="none" stroke="#f8c300" stroke-width="16" d="M603 478a340 340 0 0 1 194 0"/>
        <g transform="translate(700 380)">
            <g transform="translate(0 -140)">
                <path id="c" d="M488533-158734l-790463 574305L0-513674l301930 929245-790463-574305z" transform="scale(.00005)"/>
            </g>
            <g id="d">
                <use width="100%" height="100%" transform="translate(-70 -121)" xlink:href="#c"/>
                <use width="100%" height="100%" transform="translate(-121 -70)" xlink:href="#c"/>
                <use width="100%" height="100%" transform="translate(-140)" xlink:href="#c"/>
            </g>
            <use width="100%" height="100%" transform="scale(-1 1)" xlink:href="#d"/>
        </g>
    </g>
</svg>
