<svg xmlns="http://www.w3.org/2000/svg" viewBox="0 0 512 512">
    <defs>
        <clipPath id="a">
            <path d="M0 0h496v496H0z"/>
        </clipPath>
    </defs>
    <g fill-rule="evenodd" clip-path="url(#a)" transform="scale(1.0321)">
        <path fill="#28ae66" d="M0 0h744v496H0z"/>
        <g fill="#fff">
            <path d="M255 133c27 13 59 0 71-18 12-17 13-45-7-71 32 27 39 57 23 82-21 28-69 27-87 7z"/>
            <path d="M297 76l2-5-5-4h6l1-5 2 5h6l-5 4 2 5-5-3zm-27 34l2-5-5-4h6l1-5 2 5h6l-5 3 2 6-4-3zm2-27l1-5-4-3 5-1 2-5 2 5h6l-5 4 2 5-5-3zm0-26l1-6-4-3h5l2-6 2 6h6l-5 3 2 6-5-4zm-30 33l2-5-5-3 6-1 1-5 2 5 6 1-5 3 2 5-5-3z"/>
        </g>
        <path fill="#ca3745" d="M46 0h160v496H46z"/>
        <g fill="#faae29">
            <path d="M46 129v-3l7-9-2-2 4-5-1-2-3 4-1-2 9-13 2 2-2 2 3 4 7-9-7-9-3 3 2 2-2 2-9-12 1-2 3 3 1-2-4-5 2-2-7-8v-4l9 12-1 2 4 6-3 3 3 4 4-6 9 13-9 12-4-5-3 3 3 4-4 5 1 2-9 12z"/>
            <path d="M46 85l1 4v5h4l3 2-3 1h-4v6l-1 3V85z"/>
        </g>
        <g fill="#faae29">
            <path d="M46 214v-3l7-9-2-2 4-5-1-2-3 4-1-2 9-12 2 1-2 2 3 4 7-9-7-9-3 3 2 2-2 2-9-12 1-2 3 3 1-1-4-6 2-1-7-9v-4l9 12-1 2 4 6-3 3 3 4 4-6 9 13-9 12-4-5-3 3 3 4-4 5 1 2-9 13z"/>
            <path d="M46 170l1 4v5h4l3 2-3 2h-4v5l-1 3v-21z"/>
        </g>
        <g fill="#faae29">
            <path d="M46 299v-3l7-9-2-2 4-5-1-2-3 4-1-2 9-13 2 2-2 2 3 4 7-9-7-9-3 3 2 2-2 2-9-12 1-2 3 3 1-1-4-6 2-1-7-9v-4l9 13-1 1 4 6-3 3 3 4 4-6 9 13-9 12-4-5-3 3 3 4-4 5 1 2-9 12z"/>
            <path d="M46 255l1 4v5h4l3 2-3 2h-4v5l-1 3v-21z"/>
        </g>
        <g fill="#faae29">
            <path d="M46 379v-3l7-9-2-2 4-5-1-2-3 4-1-2 9-13 2 2-2 2 3 4 7-9-7-9-3 3 2 2-2 2-9-13 1-1 3 3 1-2-4-5 2-2-7-8v-4l9 12-1 2 4 5-3 4 3 3 4-5 9 13-9 12-4-5-3 3 3 4-4 5 1 2-9 12z"/>
            <path d="M46 335l1 3v6h4l3 2-3 1h-4v6l-1 3v-21z"/>
        </g>
        <g fill="#faae29">
            <path d="M206 129v-3l-7-9 1-2-4-5 2-2 2 4 2-2-10-13-1 2 1 2-2 4-7-9 7-9 2 3-1 2 1 2 10-13-2-1-2 3-2-2 4-5-1-2 6-9v-3l-9 12 2 2-4 6 2 3-2 4-4-6-10 13 10 12 4-5 2 3-2 4 4 5-2 2 9 12z"/>
            <path d="M206 85l-2 4v5h-4l-3 2 3 1h4v6l1 3V85z"/>
        </g>
        <g fill="#faae29">
            <path d="M206 214v-3l-7-9 2-2-4-5 1-2 3 4 1-2-9-13-2 2 2 2-3 4-7-9 7-9 3 3-2 2 2 2 9-13-1-1-3 3-1-2 4-5-2-2 7-9v-3l-9 12 1 2-4 5 3 4-3 4-4-6-9 13 9 12 4-5 3 3-3 4 4 5-1 2 9 12z"/>
            <path d="M206 170l-1 4v5h-4l-3 2 3 2h4v5l1 3v-21z"/>
        </g>
        <g fill="#faae29">
            <path d="M206 299v-3l-7-9 1-2-4-5 2-2 2 4 2-2-10-13-1 2 1 2-2 4-7-9 7-9 2 3-1 2 1 2 10-12-2-2-2 3-2-1 4-6-1-1 7-9v-4l-10 13 2 1-4 6 2 3-2 4-4-6-10 13 10 12 4-5 2 3-2 4 4 5-2 2 10 12z"/>
            <path d="M206 255l-2 4v5h-4l-3 2 3 2h4v5l1 3v-21z"/>
        </g>
        <g fill="#faae29">
            <path d="M206 379v-3l-7-9 1-2-4-5 2-2 2 3 2-1-10-13-1 2 1 2-2 3-7-9 7-8 2 3-1 2 1 2 10-13-2-1-2 3-2-2 4-5-1-2 6-9v-3l-9 12 2 2-4 5 2 4-2 3-4-5-10 13 10 12 4-5 2 3-2 4 4 5-2 2 9 12z"/>
            <path d="M206 335l-2 3v6h-4l-3 2 3 1h4v6l1 3v-21z"/>
        </g>
        <path fill="#faae29" d="M46 34v-4l7-9-2-2 4-5-1-2-3 4-1-2 9-12 2 1-2 2 3 4 7-9h2l-9 12-4-5-3 4 3 3-4 6 1 1-9 13zm0-34h8l-3 2h-4v5l-1 4V0zm160 34v-4l-7-9 1-2-4-5 2-2 2 4 2-2-10-12-1 1 1 2-2 4-7-9h-3l10 12 4-5 2 3-2 4 4 5-2 2 10 13zm0-34h-8l2 2h4v5l1 4V0zM113 489s5-10 20-13c14-3 17 7 25 7s21-7 21-7-13 13-23 12c-10 0-13-6-24-5-10 1-20 6-20 6z"/>
        <path fill="#faae29" d="M140 489s-5-10-20-13c-14-3-17 7-25 7s-21-7-21-7 13 13 23 12c10 0 13-6 24-5 10 1 19 6 19 6z"/>
        <g fill="#faae29">
            <path d="M93 472c-1-2-4-14-3-15 3-1 10 11 9 21-4 3-19-1-19-4 1-4 9-3 13-2z"/>
            <path d="M84 462c-1-3-2-15 0-16 2 0 7 13 5 24-5 1-19-7-18-10 1-4 10 0 13 2z"/>
            <path d="M77 451c-1-3-1-15 1-16 3 0 6 14 3 24-5 0-18-9-17-12 2-4 9 1 13 4z"/>
            <path d="M71 439c0-3 1-15 3-16 3 1 4 16 0 25-5-1-17-13-15-16s9 3 12 7z"/>
            <path d="M67 426c0-3 3-15 5-15 2 2 2 16-3 25-4-2-15-16-14-19 3-3 9 5 12 9z"/>
            <path d="M68 412c0 12-3 13-7 3-2-3-2-18 0-18s7 10 7 15z"/>
        </g>
        <g fill="#faae29">
            <path d="M159 474c1-3 4-15 3-16-3-1-10 11-9 22 5 2 20-1 19-5s-9-3-13-1z"/>
            <path d="M168 464c1-3 2-16 0-17-2 0-7 14-5 24 5 1 19-6 18-9-1-4-9-1-13 2z"/>
            <path d="M175 452c1-3 1-15-1-16-2 0-6 14-3 24 5 1 18-9 17-12-2-4-9 1-13 4z"/>
            <path d="M181 440c0-3-1-15-3-15s-4 15 0 24c5-1 17-13 16-16-3-3-10 4-13 7z"/>
            <path d="M185 428c0-4-2-15-4-15-3 1-3 16 2 24 5-2 15-16 14-18-3-3-9 5-12 9z"/>
            <path d="M184 413c0 13 3 13 7 4 2-4 2-18 0-19-2 0-7 10-7 15z"/>
        </g>
        <g transform="matrix(.96875 0 0 1.2258 182 -75)">
            <path fill="#ca3745" d="M-2 321h-8v4h-8v5h-31l-6 4 3 2h13l3-2h-13l2-2h19l-8 6h-19l-5-2-5 2h-19l-7-6h18l3 2h-14l3 2h13l3-2-5-4h-29v-5h-8v-4h-8v-20h8v-4h8v-5h29l5-4-3-2h-13l-3 2h14l-3 2h-18l7-7h19l5 3 6-3h18l8 7h-19l-2-2h13l-3-2h-13l-3 2 6 4h31v5h8v4h8v20z"/>
            <path fill="#28ae66" stroke="#faae29" d="M376 500v24h10v8h11v7h35l15 10 14-10h39v-7h10v-7h11v-25h-11v-7h-10v-8h-39l-14-10-15 10h-35v8h-11v7h-10z" transform="matrix(.74419 0 0 .62 -392 -6)"/>
            <path fill="#ca3745" d="M-76 297l-15 11v-11h15zm32 0l16 11v-11h-16zm-32 28l-15-11v11h15zm32 0l16-11v11h-16zm5-22l-5 5h11l-6-5zm-42 0l-5 5h10l-5-5zm0 16l-5-5h10l-5 5zm42 0l-5-5h11l-6 5z"/>
            <path fill="#faae29" d="M-60 330l-5-5h11l-6 5zm0-22l-5-5h11l-6 5zm0-16l-5 5h11l-6-5zm0 22l-5 5h11l-6-5zM-44 308h11v2h-11z"/>
            <path fill="#c00" d="M-83 310h5v2h-5zm42 0h5v2h-5z"/>
            <path fill="#900" d="M-65 297h10v2h-10zm0 4h10v2h-10zM-68 299h16v2h-16zm3 20h10v2h-10zm0 4h10v2h-10zm-3-2h16v2h-16z"/>
            <path fill="#faae29" d="M-44 312h11v2h-11zm-42-4h10v2h-10zm0 4h10v2h-10zm-3-2h5v2h-5zm11 0h5v2h-5zm31 0h6v2h-6zm11 0h5v2h-5z"/>
            <ellipse cx="414" cy="582" fill="#fff" rx="1" ry="1" transform="matrix(.74419 0 0 .62 -374 -39)"/>
            <ellipse cx="414" cy="582" fill="#fff" rx="1" ry="1" transform="matrix(.74419 0 0 .62 -368 -39)"/>
            <ellipse cx="414" cy="582" fill="#fff" rx="1" ry="1" transform="matrix(.74419 0 0 .62 -361 -39)"/>
            <ellipse cx="414" cy="582" fill="#fff" rx="1" ry="1" transform="matrix(.74419 0 0 .62 -371 -41)"/>
            <ellipse cx="414" cy="582" fill="#fff" rx="1" ry="1" transform="matrix(.74419 0 0 .62 -364 -41)"/>
            <ellipse cx="414" cy="582" fill="#fff" rx="1" ry="1" transform="matrix(.74419 0 0 .62 -372 -37)"/>
            <ellipse cx="414" cy="582" fill="#fff" rx="1" ry="1" transform="matrix(.74419 0 0 .62 -364 -37)"/>
            <ellipse cx="414" cy="582" fill="#fff" rx="1" ry="1" transform="matrix(.74419 0 0 .62 -353 -50)"/>
            <ellipse cx="414" cy="582" fill="#fff" rx="1" ry="1" transform="matrix(.74419 0 0 .62 -347 -50)"/>
            <ellipse cx="414" cy="582" fill="#fff" rx="1" ry="1" transform="matrix(.74419 0 0 .62 -340 -50)"/>
            <ellipse cx="414" cy="582" fill="#fff" rx="1" ry="1" transform="matrix(.74419 0 0 .62 -350 -52)"/>
            <ellipse cx="414" cy="582" fill="#fff" rx="1" ry="1" transform="matrix(.74419 0 0 .62 -343 -52)"/>
            <ellipse cx="414" cy="582" fill="#fff" rx="1" ry="1" transform="matrix(.74419 0 0 .62 -351 -48)"/>
            <ellipse cx="414" cy="582" fill="#fff" rx="1" ry="1" transform="matrix(.74419 0 0 .62 -343 -48)"/>
            <ellipse cx="414" cy="582" fill="#fff" rx="1" ry="1" transform="matrix(.74419 0 0 .62 -374 -61)"/>
            <ellipse cx="414" cy="582" fill="#fff" rx="1" ry="1" transform="matrix(.74419 0 0 .62 -368 -61)"/>
            <ellipse cx="414" cy="582" fill="#fff" rx="1" ry="1" transform="matrix(.74419 0 0 .62 -361 -61)"/>
            <ellipse cx="414" cy="582" fill="#fff" rx="1" ry="1" transform="matrix(.74419 0 0 .62 -372 -63)"/>
            <ellipse cx="414" cy="582" fill="#fff" rx="1" ry="1" transform="matrix(.74419 0 0 .62 -364 -63)"/>
            <ellipse cx="414" cy="582" fill="#fff" rx="1" ry="1" transform="matrix(.74419 0 0 .62 -372 -59)"/>
            <ellipse cx="414" cy="582" fill="#fff" rx="1" ry="1" transform="matrix(.74419 0 0 .62 -364 -59)"/>
            <ellipse cx="414" cy="582" fill="#fff" rx="1" ry="1" transform="matrix(.74419 0 0 .62 -395 -50)"/>
            <ellipse cx="414" cy="582" fill="#fff" rx="1" ry="1" transform="matrix(.74419 0 0 .62 -389 -50)"/>
            <ellipse cx="414" cy="582" fill="#fff" rx="1" ry="1" transform="matrix(.74419 0 0 .62 -382 -50)"/>
            <ellipse cx="414" cy="582" fill="#fff" rx="1" ry="1" transform="matrix(.74419 0 0 .62 -393 -52)"/>
            <ellipse cx="414" cy="582" fill="#fff" rx="1" ry="1" transform="matrix(.74419 0 0 .62 -385 -52)"/>
            <ellipse cx="414" cy="582" fill="#fff" rx="1" ry="1" transform="matrix(.74419 0 0 .62 -393 -48)"/>
            <ellipse cx="414" cy="582" fill="#fff" rx="1" ry="1" transform="matrix(.74419 0 0 .62 -385 -48)"/>
        </g>
        <path fill="#fff" d="M135 248l4-2 4 2h-8zm-14 0l5-2 4 2h-9zm-13 0l5-2 4 2h-9zm27-48l4 3 4-2h-8zm-14 0l5 3 4-2h-9zm-13 0l5 3 4-2h-9z"/>
        <path fill="#28ae66" d="M131 254l-5 4-5-4-5 4-5-4v2l3 2-2 2v2h2l1-2 2 2h2v-2l-2-2 4-2 3 2-2 2v2h2l2-2 2 2h1v-2l-1-2 3-2 3 2-1 2v2h1l2-2 2 2h1v-2l-1-2 3-2v-2l-5 4-5-4zm0-60l-5-4-5 4-5-4-5 4v-2l3-2-2-2v-2h2l1 2 2-2h2v2l-2 2 4 2 3-2-2-2v-2h2l2 2 2-2h1v2l-1 2 3 2 3-2-1-2v-2h1l2 2 2-2h1v2l-1 2 3 2v2l-5-4-5 4zm39 35l5-5-5-4 5-5-5-4h2l3 3 3-2h3v2l-3 1 3 2v1h-3l-3-1-3 3 3 3 3-2h3v2l-3 1 3 2v1h-3l-3-1-3 3 3 3 3-2h3v2l-3 1 3 2v1h-3l-3-1-3 3h-2l5-5-5-4zm-88 0l-6-5 6-4-6-5 6-4h-3l-3 3-2-2h-3v2l3 1-3 2v1h3l2-1 3 3-3 3-2-2h-3v2l3 1-3 2v1h3l2-1 3 3-3 3-2-2h-3v2l3 1-3 2v1h3l2-1 3 3h3l-6-5 6-4zM172 244h2v2h-2zm-2 2h2v2h-2zm-11 10h2v2h-2zm2-2h2v2h-2zm-73 0h3v2h-3zm-11-10h3v2h-3zm3 2h2v2h-2zm0-46h2v2h-2zm-3 2h3v3h-3zm14-12h2v2h-2zm-3 2h3v2h-3zm71-2h2v2h-2zm2 2h2v2h-2zm9 8h2v2h-2zm2 3h2v2h-2zm-81 53h2v2h-2z"/>
        <path fill="#fff" d="M119 224h-6v-4h4v-4h4v-3h5v4c-4 0-7 3-7 7z"/>
        <path fill="#faae29" d="M132 224h7v-4h-5v-4h-4v-3h-4v4c3 0 6 3 6 7z"/>
        <path fill="#fff" d="M132 224h7v4h-5v4h-4v3h-4v-4c3 0 6-3 6-7z"/>
        <path fill="#faae29" d="M119 224h-6v4h4v4h4v3h5v-4c-4 0-7-3-7-7z"/>
        <path fill="#28ae66" d="M132 224h-6v-7c3 0 6 3 6 7z"/>
        <path fill="#ca3745" d="M132 224h-6v7c3 0 6-3 6-7z"/>
        <path fill="#28ae66" d="M119 224h7v7c-4 0-7-3-7-7z"/>
        <path fill="#ca3745" d="M119 224h7v-7c-4 0-7 3-7 7z"/>
        <path fill="#28ae66" d="M132 250l-6-4-7 4-6-4-7 4v-2l4-2-2-2v-2h2l3 2 2-2h2v2l-2 2 4 2 5-2-3-2v-2h3l2 2 2-2h2v2l-2 2 4 2 5-2-2-2v-2h2l2 2 2-2h2v2l-2 2 5 2v2l-7-4-7 4zm0-52l-6 5-7-5-6 5-7-5v2l4 3-2 2v2h2l3-2 2 2h2v-2l-2-2 4-3 5 3-3 2v2h3l2-2 2 2h2v-2l-2-2 4-3 5 3-2 2v2h2l2-2 2 2h2v-2l-2-2 5-3v-2l-7 5-7-5zm25 31l-4-5 3-5-3-5 3-5h-1l-2 3-1-2h-2v2l2 2-2 2v1h2l1-1 2 3-2 3-1-1h-2v1l2 2-2 2v2h2l1-2 2 3-2 4-1-2h-2v2l2 1-2 2v2h2l1-2 2 4h2l-4-6 4-5z"/>
        <path fill="#28ae66" d="M106 200l-9 9v30l9 9h40l8-8v-31l-8-9h-40zm-2-6l-22 21v18l22 21h44l22-21v-18l-22-21h-44z"/>
        <path fill="#faae29" d="M115 250l4 4 3-4h-7zM115 198l4-4 3 4h-7zM129 198l4-4 3 4h-7zM129 250l4 4 3-4h-7z"/>
        <path fill="#ca3745" d="M108 198l4-4 3 4h-7zM122 198l4-4 3 4h-7zM136 198l4-4 3 4h-7zM99 244l7 6h-7v-6z"/>
        <path fill="#28ae66" d="M95 229l3-5-3-5 3-5-3-5h2l1 3 2-2h2v2l-2 2 2 2v1h-2l-2-1-1 3 1 3 2-1h2v1l-2 2 2 2v2h-2l-2-2-1 3 1 4 2-2h2v2l-2 1 2 2v2h-2l-2-2-1 4h-2l3-6-3-5z"/>
        <path fill="#ca3745" d="M159 218h9l2 2-2 2h-9v-4zM99 205l-4 4v30l4 5h-6v-39h6zM108 250l4 4 3-4h-7zM122 250l4 4 3-4h-7zM136 250l4 4 3-4h-7zM152 205l5 4v30l-5 5h7v-39h-7zM152 244l-6 6h6v-6zM152 204l-6-6h6v6zM99 204l7-6h-7v6z"/>
        <path fill="#28ae66" d="M106 200l-9 9v30l9 9h40l8-8v-31l-8-9h-40zm0-2l-11 11v30l11 11h40l11-11v-30l-11-11h-40z"/>
        <path fill="#faae29" d="M159 222h9l2 2-2 2h-9v-4z"/>
        <path fill="#ca3745" d="M159 226h9l2 2-2 2h-9v-4z"/>
        <path fill="#faae29" d="M159 230h9l2 1-2 2h-9v-4zM159 215h9l2 2-2 2h-9v-4z"/>
        <path fill="#ca3745" d="M93 218h-9l-2 2 2 2h9v-4z"/>
        <path fill="#faae29" d="M93 222h-9l-2 2 2 2h9v-4z"/>
        <path fill="#ca3745" d="M93 226h-9l-2 2 2 2h9v-4z"/>
        <path fill="#faae29" d="M93 230h-9l-2 2 2 1h9v-3zM93 215h-9l-2 2 2 2h9v-4z"/>
        <path fill="#970000" d="M80 203v43h11v10h70v-10h11v-43h-11v-11H91v11H80zm2 2v39h11v10h66v-10h11v-39h-11v-11H93v11H82z"/>
        <path fill="#ca3745" d="M181 42l-7-8v-6l-6-6h-14l-11-6h-35l-11 6H84l-6 6v6l-7 8v16l7 7v6l6 6h13l11 6h35l11-6h14l6-6v-5l7-8V42z"/>
        <path fill="#faae29" d="M73 50v6l7 8v6l6 5h13l11 6h16V50H73z"/>
        <path fill="#ca3745" d="M107 64l-8 5h-5l2 1-3 4 1 1 5-1 2 1 1-4 8-6-3-2z"/>
        <path fill="#ca3745" d="M99 60l-8 5h-5l1 1-3 4 2 1 4-1 2 1 1-4 9-5-4-2zm-5-8l-8 5h-5l2 1-3 4 1 2 5-2 2 2v-5l9-5-3-2z"/>
        <path fill="#faae29" d="M179 50v-6l-7-8v-6l-7-6h-13l-11-6h-15v32h53z"/>
        <path fill="#ca3745" d="M126 81h-4l-5-4h-7l-4-2 2-2 4 2h4l4-6 6 2v4h-6l6 6z"/>
        <path fill="#fff" d="M73 50v-6l7-8v-6l6-6h13l11-6h16v32H73z"/>
        <path fill="#ca3745" d="M126 18h-4l-5 4h-7l-4 2 2 2 4-2h4l4 6 6-2v-4h-6l6-6zm0 0h4l5 4h7l4 2-2 2-4-2h-4l-4 6-6-2v-4h6l-6-6z"/>
        <path fill="#fff" d="M179 50v6l-7 8v6l-7 5h-13l-11 6h-15V50h53z"/>
        <path fill="#ca3745" d="M126 81h4l5-4h7l4-2-2-2-4 2h-4l-4-6-6 2v4h6l-6 6zM99 40l-8-5h-5l1-2-3-3 2-2 4 2 2-2 1 4 9 6-4 2zm45-4l8-5h5l-1-2 3-3-2-2-5 2-1-2-1 4-9 6 3 2z"/>
        <path fill="#ca3745" d="M107 36l-8-5h-5l2-2-3-3 1-2 5 2 2-2 1 4 8 6-3 2zM94 48l-8-5h-5l2-2-4-4 2-1 5 1 1-1 1 4 9 6-3 2z"/>
        <path fill="#fff" d="M77 50h2l2 2 2-2h43v27h-2l2 2v2l-6-6v-2h2v2h2v-2l-17-8H93v-9l-6-4h-4l-2 2 2 2h-2l-4-6z"/>
        <path fill="#faae29" d="M77 50h2l2-2 2 2h43V22h-2l2-2v-2l-6 6v2h2v-2h2v2l-17 9H93v8l-6 5h-4l-2-2 2-2h-2l-4 6z"/>
        <path fill="#28ae66" d="M86 50h40v23l-18-10H95v-7l-9-6z"/>
        <path fill="#ca3745" d="M153 40l8-5h5l-2-2 4-3-2-2-5 2-2-2v4l-9 6 3 2zm4 8l9-5h4l-1-2 3-4-2-1-4 1-2-1-1 4-9 6 4 2z"/>
        <path fill="#fff" d="M175 50h-2l-2-2-3 2h-42V22h2l-2-2v-2l6 6v2h-2v-2h-2v2l16 9h14v8l6 5h4l3-2-2-2h2l4 6z"/>
        <path fill="#28ae66" d="M165 50h-39V26l17 10h14v8l8 6z"/>
        <path fill="#ca3745" d="M144 64l8 5h5l-1 1 3 4-2 1-5-1-1 1-1-4-9-6 3-2z"/>
        <path fill="#ca3745" d="M153 60l8 5h5l-2 1 4 4-2 1-5-1-2 1v-4l-9-5 3-2zm4-8l9 5h4l-1 1 3 4-2 2-4-2-2 2-1-5-9-5 4-2z"/>
        <path fill="#faae29" d="M175 50h-2l-2 2-3-2h-42v27h2l-2 2v2l6-6v-2h-2v2h-2v-2l16-8h14v-9l6-4h4l3 2-2 2h2l4-6z"/>
        <path fill="#ca3745" d="M165 50h-39v23l17-10h14v-7l8-6zm-79 0h40V26l-18 10H95v8l-9 6zM130 50l11-6h7l-2-2 4-4-2-2-7 2-2-2-1 5-12 6 4 3zm-9 0l-10 6h-7l2 2-4 4 2 2 6-2 3 2 1-6 12-6-5-2z"/>
        <path fill="#28ae66" d="M122 50l-11-6h-7l2-2-4-4 2-2 6 2 3-2 1 5 12 6-5 3zm8 0l11 6h7l-2 2 4 4-2 2-7-2-2 2-1-6-12-6 4-2z"/>
        <path fill="#fff" d="M113 50l13-10 13 10-13 10-13-10z"/>
        <path fill="#ca3745" d="M83 54l2 2-2 2h-2l-6-8h2l4 6h2l-2-2 2-2h4v2h-4zm0-8l2-2-2-2h-2l-6 8h2l4-6h2l-2 2 2 2h4v-2h-4zm86 8l-2 2 2 2h2l6-8h-2l-4 6h-3l3-2-2-2h-4v2h4zm0-8l-2-2 2-2h2l6 8h-2l-4-6h-3l3 2-2 2h-4v-2h4zm-45-4h4v16h-4z"/>
        <path fill="#ca3745" d="M118 46h16v8h-16z"/>
        <path fill="#28ae66" d="M107 351l-36 20v32l37 21h36l37-21v-32l-37-20h-36z"/>
        <path fill="#c00" d="M85 384h2v-4h4v4h2v-10h-2v5h-4v-4h-3v9zm56 32h2v-4h4v4h2v-10h-2v4h-4v-4h-2v10zm-36-48h2v-4h5v4h2v-9h-2v4h-5v-4h-2v9zm33 0h2v-4h4v4h2v-9h-2v4h-4v-4h-2v9zm20 16h2v-4h5v4h2v-10h-2v5h-4v-4h-3v9zm0 16h2v-4h5v4h2v-10h-2v4h-4v-4h-3v10z"/>
        <path fill="#faae29" d="M126 422v-35h53v16l-35 19h-18zm0-70v35H73v-16l35-19h18z"/>
        <path fill="#fff" d="M126 352v35h53v-16l-35-19h-18zm0 70v-35H73v16l35 19h18z"/>
        <path fill="#faae29" d="M154 373h21l-21-10v10zm25-2v16h-34v-12h-7l-9-5v-11l6-5h-7v16h-2v-18h18l35 19z"/>
        <path fill="#ca3745" d="M108 376v22h5l13 6 12-6h6v-22h-6l-12-6-13 6h-5z"/>
        <path fill="#faae29" d="M97 401H76l21 10v-10zm-24 2v-16h33v13h7l9 4v12l-5 4h7v-16h2v18h-18l-35-19z"/>
        <path fill="#fff" d="M97 373H76l21-10v10zm-24-2v16h33v-12h7l9-5v-11l-5-5h7v16h2v-18h-18l-35 19zM154 401h21l-21 10v-10zm25 2v-16h-34v13h-7l-9 4v12l6 4h-7v-16h-2v18h18l35-19z"/>
        <path fill="#ca3745" d="M83 400h2v-5h5v5h2v-11h-2v4h-4v-4h-3v11zm21 16h3v-5h4v5h2v-11h-2v4h-4v-5h-2v12zm-21-41h2v4h5v-5h2v12h-2v-5h-4v5h-3v-11zm21-16h3v4h4v-4h2v11h-2v-5h-4v5h-2v-11zm34 56h2v-4h5v5h2v-11h-2v4h-5v-5h-2v12zm21-29h3v-5h4v5h2v-11h-2v4h-4v-5h-3v12z"/>
        <path fill="#ca3745" d="M138 416h2v-5h5v5h2v-11h-2v4h-5v-5h-2v12z"/>
        <path fill="#ca3745" d="M138 416h2v-5h5v5h2v-11h-2v4h-5v-5h-2v12zm21-16h3v-5h4v5h2v-11h-2v4h-4v-4h-3v11zm-21-30h2v-5h5v5h2v-11h-2v4h-5v-4h-2v11z"/>
        <path fill="#fff" d="M128 387l7-6h3v3h-3v2h5v-6h-5v-4h-7v4h1v-3h4v3l-7 6-7-6v-3h3v3h2v-4h-7v4h-5v6h5v-2h-4v-3h4l7 6-7 6h-4v-3h4v-1h-5v5h5v5h7v-5h-2v3h-3v-3l7-5 7 5v3h-4v-3h-1v5h7v-5h5v-5h-5v1h3v3h-3l-7-6z"/>
        <g transform="matrix(1 0 0 .92857 198 18)">
            <path fill="#ca3745" d="M-122 134l3-3h21l15-17h21l15 17h21l3 3-3 4h-21l-15 17h-21l-15-17h-21l-3-4z"/>
            <path fill="#ca3745" d="M-121 135l2-2h22l15-18h18l16 18h21l2 2-2 1h-21l-14 16h-21l-14-16h-22l-2-1z"/>
            <path fill="#faae29" d="M-64 136l7 8-4 3-1-2h-2v2l2 2h3l4-4v-3l-7-8 7-7v-4l-4-4h-3l-2 2v2h2l2-2 3 4-7 7-7-7 7-8v-1h-2l-7 7-6-7h-2v1l7 8-7 7-7-7 3-4 2 2h2v-2l-2-2h-3l-4 4v4l7 7-7 8v3l4 4h3l2-2v-2h-2l-2 2-3-3 7-8 7 8-7 7v2h1l7-7 7 7h2v-2l-7-7 7-8zm-9-9l-6 7 6 8 7-8-7-7zm-10 28v15l2-2 2 2 1-2 2 2 2-2 1 2 2-2 2 2 2-2 1 2 2-2 2 2v-15h-21zm21-41V99l-2 2-2-2-1 2-2-2-2 2-2-2-1 2-2-2-2 2-2-2-1 2-2-2v15h21zm29 17v-15l-2 2-2-2-1 2-2-2-2 2-1-2-2 2-2-2v15h14zm-65 0v-15l-2 2-2-2-1 2-2-2-2 2-2-2-1 2-2-2v15h14zm65 7v15l-2-2-2 2-1-2-2 2-2-2-1 2-2-2-2 2v-15h14zm-65 0v15l-2-2-2 2-1-2-2 2-2-2-2 2-1-2-2 2v-15h14z"/>
            <path fill="#28ae66" d="M-62 155v9l1-2 2 2 2-2 2 2 1-2 2 2 2-2 1 2 2-2v-24l-15 17zm-21 0v9l-2-2-1 2-2-2-2 2-2-2-1 2-2-2-2 2-1-2v-24l15 17zm0-41v-9l-2 1-1-1-2 1-2-1-2 1-1-1-2 1-2-1-1 1v25l15-17zm21 0v-9l1 1 2-1 2 1 1-1 2 1 2-1 2 1 1-1 2 1v25l-15-17zm-50 35l-2-2-2 2-1-2-2 2-2-2-1 2-2-2-2 2v-30l2 2 2-2 1 2 2-2 2 2 1-2 2 2 2-2v12h-7l-3 3 3 4h7v11zm79 0l1-2 2 2 2-2 2 2 1-2 2 2 2-2 1 2v-30l-1 2-2-2-2 2-1-2-2 2-2-2-2 2-1-2v12h7l3 3-3 4h-7v11z"/>
            <path fill="#fff" d="M-91 156l-2 2 2 2 2-2-1-2v-3s3 5 3 3-3-4-3-4h-1l-3 4c0 2 3-3 3-3v3z"/>
            <path fill="#ca3745" d="M-73 162l-2 3 2 3 3-3-2-3v-5s3 7 3 4l-3-6h-2l-3 6c0 3 3-4 3-4v5z"/>
            <ellipse cx="404" cy="392" fill="#28ae66" rx="4" ry="2" transform="matrix(.96774 0 0 1.0526 -482 -278)"/>
            <ellipse cx="404" cy="392" fill="#28ae66" rx="4" ry="2" transform="matrix(.96774 0 0 1.0526 -463 -278)"/>
            <ellipse cx="404" cy="392" fill="#28ae66" rx="4" ry="2" transform="matrix(.96774 0 0 1.0526 -445 -278)"/>
            <path fill="#fff" d="M-92 113l-1-2 2-3 2 2-1 3v3s3-5 3-3l-3 4h-2l-3-4c0-2 3 3 3 3v-3z"/>
            <path fill="#ca3745" d="M-74 107l-2-3 3-3 3 3-2 3v4s3-7 3-3c0 2-3 5-3 5h-2l-3-5c0-3 3 3 3 3v-4z"/>
            <path fill="#fff" d="M-55 156l-1 2 2 2 2-2-1-2v-3s3 5 3 3-3-4-3-4h-2l-3 4c0 2 3-3 3-3v3zm0-43l-2-3 3-2 2 2-2 3v3s3-5 3-3l-3 4h-1l-3-4c0-2 3 3 3 3v-3z"/>
            <path fill="#ca3745" d="M-106 146l-2 2 3 2 3-2-2-2v-3s3 4 3 2l-3-4h-2l-4 4c0 2 4-2 4-2v3zm-1-22l-2-2 3-2 3 2-2 2v3s4-4 4-2l-4 4h-2l-3-4c0-2 3 2 3 2v-2zm67 21l-2 2 3 2 2-2-2-2v-3s4 5 4 3l-4-4h-2l-3 4c0 2 4-3 4-3v3zm-1-21l-2-2 3-2 3 2-2 2v3s3-5 3-3-3 4-3 4h-2l-3-4c0-2 3 3 3 3v-3z"/>
            <path fill="#fff" d="M-120 145l-1-2 3-2 2 2-1 3v-3c-2 4-2 4-2 0l-1 2zm0-21l-1 3 3 2 2-3-1-2v2c-1-3-2-3-2 0l-1-2zm92 21v-3l2-1 2 2v2l-1-2c-1 3-1 3-2 0l-1 2zm0-21v2l2 2 2-2v-3l-1 3c-1-4-1-4-2 0l-1-2z"/>
            <path fill="#ca3745" d="M-83 170v-5h-16v-11h-14v-3h-13v-32h13v-4h14v-10h16v-6h21v6h16v10h14v4h13v32h-13v3h-14v11h-16v5h-21zm-2 2v-5h-16v-11h-14v-4h-12v-35h12v-4h14v-10h16v-6h25v6h16v10h14v4h12v35h-12v4h-14v11h-16v5h-25z"/>
        </g>
    </g>
</svg>
