<svg xmlns="http://www.w3.org/2000/svg" viewBox="0 0 512 512">
    <defs>
        <clipPath id="a">
            <path d="M0 0h512v512H0z"/>
        </clipPath>
    </defs>
    <g clip-path="url(#a)">
        <path fill="#fff" fill-rule="evenodd" d="M0-2h258v128H0z"/>
        <path fill="#c00" d="M0-2v9l62 32 23 1L0-2z"/>
        <path fill="#006" d="M26-2l75 39V-2H26z"/>
        <path fill="#c00" d="M111-2v50H0v28h111v50h34V76h111V48H145V-2h-34z"/>
        <path fill="#006" d="M155-2v37l73-37h-73z"/>
        <path fill="#c00" d="M157 39l21-1 80-40h-22l-79 40z"/>
        <path fill="#006" d="M0 84v27l51-26-51-1z"/>
        <path fill="#c00" d="M197 85h-21l80 40v-9l-59-31zM20 126l75-40-19 1-76 39"/>
        <path fill="#006" d="M257 9l-61 30h60v45h-51l51 28v14h-26l-75-37v37h-54V89l-69 37H0v128h512V-2H258M0 12v27h54L0 13z"/>
        <g fill="#009fca" fill-rule="evenodd">
            <path d="M256-2h256v256H256z"/>
            <path d="M0 126h270v128H0z"/>
        </g>
        <g fill="#009fca" fill-rule="evenodd" transform="translate(0 259) scale(.51604)">
            <path d="M506-20h486v516H506z"/>
            <rect width="524" height="521" y="-25" ry="0"/>
        </g>
        <path fill="#fff40d" fill-rule="evenodd" d="M478 226l7 21-18-13-19 13 7-21-18-12h23l7-21 7 21h23zm-57 163l7 21-19-13-18 13 7-21-18-13h22l7-20 7 21h23zm57-37l7 21-18-13-19 13 7-21-18-12h23l7-21 7 21h23zM232 470l7 21-18-13-19 13 7-21-18-12h23l7-21 7 21h22zm43-88l-7-21 18 13 19-13-7 21 18 12h-23l-7 21-7-21h-22zm67-93l-7-21 19 13 18-13-7 21 19 12h-23l-7 21-7-21h-23zm57-19l-7-21 18 13 19-13-7 21 18 12h-23l-7 21-7-21h-23zm-57 161l-7-21 19 13 18-13-7 21 19 12h-23l-7 21-7-21h-23zm-67 16l-7-21 18 13 19-12-7 20 18 12h-23l-7 21-7-21h-22z"/>
    </g>
</svg>
