<svg xmlns="http://www.w3.org/2000/svg" viewBox="0 0 512 512">
    <defs>
        <clipPath id="a">
            <path d="M0 0h496v496H0z"/>
        </clipPath>
    </defs>
    <g fill-rule="evenodd" clip-path="url(#a)" transform="scale(1.0321)">
        <path fill="#fe0000" d="M0 0h744v496H0z"/>
        <path fill="#000095" d="M0 0h374v248H0z"/>
        <path fill="#fff" d="M273 173l-45-9 9 45-35-31-14 45-15-45-35 32 10-46-46 10 31-35-45-15 45-15-32-34 46 9-9-46 35 31 14-44 15 44 35-31-10 46 46-10-31 35 44 14-44 15z"/>
        <path fill="#000095" d="M231 170l-14 7-15 8h-32l-14-9-15-7-7-15-9-14 1-16v-17l9-14 8-14 14-8 14-8 17 1 16-1 14 9 14 8 8 15 8 14v32l-9 14z"/>
        <path fill="#fff" d="M237 124a50 50 0 1 1-100 0 50 50 0 0 1 100 0z"/>
    </g>
</svg>
