<svg xmlns="http://www.w3.org/2000/svg" viewBox="0 0 512 512">
    <defs>
        <clipPath id="a">
            <path d="M124 0h496v496H124z"/>
        </clipPath>
    </defs>
    <g clip-path="url(#a)" transform="translate(-128) scale(1.0321)">
        <path fill="#ffe700" fill-rule="evenodd" d="M0 331h744v82H0z"/>
        <path fill-rule="evenodd" d="M0 248h744v83H0z"/>
        <path fill="#de3908" fill-rule="evenodd" d="M0 165h744v83H0z"/>
        <path fill="#ffe700" fill-rule="evenodd" d="M0 83h744v82H0z"/>
        <path fill-rule="evenodd" d="M0 0h744v83H0z"/>
        <path fill="#fffdff" fill-rule="evenodd" stroke="#000" d="M449 248a77 77 0 1 1-154 0 77 77 0 0 1 154 0z"/>
        <path fill="#de3108" fill-rule="evenodd" stroke="#000" d="M358 189l-5-9c2-2 6-4 11-4l-1 10-5 3z"/>
        <path fill="#ffe700" fill-rule="evenodd" stroke="#000" d="M363 186l1-10s10 0 16 6l-6 8-11-4z"/>
        <path fill="#de3108" fill-rule="evenodd" stroke="#000" d="M375 190l5-8c3 4 5 6 5 10l-8 2-2-4z"/>
        <path fill-rule="evenodd" stroke="#000" stroke-linecap="round" stroke-linejoin="round" d="M361 321s10-11 28-9c-3-4-12-4-12-4s-2-21 0-22h11c1 0 4-3 2-6s-7-10-5-11c2-2 13 1 13 1l-31-40s-3-15 3-22c8-7 7-14 7-14-1-6-12-11-19-5-4 5-1 9-1 9s-11 3-12 5c0 2 13 0 13 0l-1 8s-26 23-6 43v-1s7 8 14 10l6 6s2 11 0 13a93 93 0 0 0-21 0c-2 1-11 0-9 15l3-8s0 5 2 7c0-5 2-9 2-9s1 6 2 7 1-10 9-9l12 1s3 20 2 22c-5-1-18 1-19 4l11 1s-6 5-4 8z"/>
        <path fill="#9ca69c" fill-rule="evenodd" stroke="#9ca69c" stroke-linecap="round" stroke-linejoin="round" d="M364 208s-18 20-10 36v-4l2 2-1-4 3 1-2-3 4 1-1-4a94 94 0 0 1 3 0c-5-9 0-17 2-25z"/>
        <path fill="#9ca69c" fill-rule="evenodd" stroke="#9ca69c" d="M370 191s1 7-2 9l-3 2c0 2 1 2 3 2 4-1 8-10 2-13z"/>
        <path fill="#fff" fill-rule="evenodd" d="M364 197a2 2 0 1 1-3 0 2 2 0 0 1 3 0z"/>
        <path fill="#de3108" fill-rule="evenodd" stroke="#000" d="M358 203c-1 0-6 6-1 8 5-2 3-3 5-4 0-2-3-3-4-4z"/>
        <path fill="#9ca69c" fill-rule="evenodd" stroke="#9ca69c" stroke-linecap="round" stroke-linejoin="round" d="M369 252c-1 2-2 6 0 9 4-2 6-1 8 0-4-3-5-4-8-9z"/>
        <path fill="#fff" fill-rule="evenodd" stroke="#fff" stroke-linecap="round" stroke-linejoin="round" d="M376 272l1 10h5c1 0 0-7-6-10z"/>
        <path fill="#9ca69c" fill-rule="evenodd" stroke="#000" d="M401 274s-6-16-22-20-14-21-13-22 1-3 6-1c4 2 26 13 29 13s0 30 0 30z"/>
        <path fill="#de3108" fill-rule="evenodd" stroke="#000" stroke-linejoin="round" d="M386 254c0 1 21 13 15 24 6-4 4-11 4-11s5 13-7 20l2 1-2 2s-1 1 7-3l-2 3s0 2 6-3a30 30 0 0 0-6 8c12-1 38-40-8-51l2 2-11 8z"/>
        <path fill="#fff" fill-rule="evenodd" stroke="#000" stroke-linecap="round" stroke-linejoin="round" d="M387 251l4 3h-5l-7-6-5-3c-3-1-5-9 4-7l10 5 10 3 6 7-12-6 5 6-10-2z"/>
        <path fill="none" stroke="#fff" stroke-linecap="round" d="M345 203l12-2"/>
        <path fill="#de3908" fill-rule="evenodd" d="M0 413h744v83H0z"/>
    </g>
</svg>
