<svg xmlns="http://www.w3.org/2000/svg" viewBox="0 0 512 512">
    <defs>
        <clipPath id="a">
            <path d="M0 0h130v130H0z"/>
        </clipPath>
    </defs>
    <g fill-rule="evenodd" clip-path="url(#a)" transform="scale(3.9385)">
        <path fill="#bd3d44" d="M0 0h247v10H0zm0 20h247v10H0zm0 20h247v10H0zm0 20h247v10H0zm0 20h247v10H0zm0 20h247v10H0zm0 20h247v10H0z"/>
        <path fill="#fff" d="M0 10h247v10H0zm0 20h247v10H0zm0 20h247v10H0zm0 20h247v10H0zm0 20h247v10H0zm0 20h247v10H0z"/>
        <path fill="#192f5d" d="M0 0h99v70H0z"/>
        <path fill="#fff" d="M8 3l1 3h3l-2 2 1 2-3-2-2 2 1-3-2-1h3zm17 0l1 3h2l-2 1 1 3-2-2-3 2 1-3-2-1h3zm16 0l1 3h3l-2 1 1 3-3-2-2 2 1-3-3-1h3zm17 0l1 3h2l-2 1 1 3-2-2-3 2 1-3-2-1h3zm16 0l1 3h3l-2 1 1 3-3-1-2 1 1-3-3-1h3zm17 0v3h3l-2 2 1 2-2-2-3 2 1-3-2-1h3zm-74 7v3h3l-2 2 1 2-3-2-2 2 1-3-2-1h3zm16 0l1 3h3l-3 2 1 2-2-2-2 2v-3l-2-1h3zm16 0l1 3h3l-2 2 1 2-3-2-2 2 1-3-2-1h3zm17 0l1 3h3l-3 2 1 2-2-2-2 2 1-3-3-1h3zm16 0l1 3h3l-2 2 1 2-3-2-2 2 1-3-3-1h3zM8 17l1 3h3l-2 2 1 2-3-2-2 2 1-3-2-1h3zm17 0l1 3h3l-3 2 1 2-2-2-3 2 1-3-2-1h3zm16 0l1 3h3l-2 2 1 2-3-2-2 2 1-3-3-1h3zm17 0l1 3h2l-2 2 1 2-2-2-3 2 1-3-2-1h3zm16 0l1 3h3l-2 2 1 2-3-2-2 2 1-3-3-1h3zm17 0l1 3h2l-2 2 1 2-2-2-3 2 1-3-2-1h3zm-74 7v3h3l-2 2 1 2-2-2-3 2 1-3-2-1h3zm16 0l1 3h3l-3 2 1 2-2-2-2 2 1-3-3-1h3zm16 0l1 3h3l-2 2 1 2-3-2-2 2 1-3-2-1h3zm17 0l1 3h3l-3 2 1 2-2-2-2 2 1-3-3-1h3zm16 0l1 3h3l-2 2 1 2-3-2-2 2 1-3-3-1h3zM8 31l1 3h3l-2 1 1 3-3-1-2 1 1-2-2-2h3zm17 0l1 3h3l-3 1 1 3-2-1-3 1 1-2-2-2h3zm16 0l1 3h3l-2 1 1 3-3-1-2 1 1-2-3-2h3zm17 0l1 3h2l-2 1 1 3-2-1-3 1 1-2-2-2h3zm16 0l1 3h3l-2 1 1 3-3-1-2 1 1-2-3-2h3zm17 0l1 3h2l-2 2 1 2-2-1-3 1 1-2-2-2h3zm-74 7v3h3l-2 1 1 3-2-1-3 1 1-2-2-2h3zm16 0l1 3h3l-3 1 1 3-2-1-2 1 1-2-3-2h3zm16 0l1 3h3l-2 1 1 3-3-1-2 1 1-2-2-2h3zm17 0l1 3h3l-3 1 1 3-2-1-2 1 1-2-3-2h3zm16 0l1 3h3l-2 1 1 3-3-1-2 1 1-2-3-2h3zM8 45l1 3h3l-2 1 1 3-3-1-2 1 1-2-2-2h3zm17 0l1 3h3l-3 1 1 3-2-1-3 1 1-2-2-2h3zm16 0l1 3h3l-2 1 1 3-3-1-2 1 1-2-3-2h3zm17 0l1 3h2l-2 1 1 3-2-1-3 1 1-2-2-2h3zm16 0l1 3h3l-2 1 1 3-3-1-2 1 1-2-3-2h3zm17 0l1 3h2l-2 2 1 2-2-1-3 1 1-2-2-2h3zm-74 7v3h3l-2 1 1 3-2-1-3 1 1-2-2-2h3zm16 0l1 3h3l-3 1 1 3-2-1-2 1 1-2-3-2h3zm16 0l1 3h3l-2 1 1 3-3-1-2 1 1-2-2-2h3zm17 0l1 3h3l-3 1 1 3-2-1-2 1 1-2-3-2h3zm16 0l1 3h3l-2 1 1 3-3-1-2 1 1-2-3-2h3zM8 59l1 3h3l-2 1 1 3-3-1-2 1 1-2-2-2h3zm17 0l1 3h3l-3 1 1 3-2-1-3 1 1-2-2-2h3zm16 0l1 3h3l-2 1 1 3-3-1-2 1 1-2-3-2h3zm17 0l1 3h2l-2 1 1 3-2-1-3 1 1-2-2-2h3zm16 0l1 3h3l-2 1 1 3-3-1-2 1 1-2-3-2h3zm17 0l1 3h2l-2 2 1 2-2-1-3 1 1-2-2-2h3z"/>
    </g>
</svg>
