<svg xmlns="http://www.w3.org/2000/svg" xmlns:xlink="http://www.w3.org/1999/xlink" viewBox="0 0 512 512">
    <path fill="#4b92db" fill-rule="evenodd" d="M0 0h512v512H0z"/>
    <g transform="translate(-129) scale(.64)">
        <path id="a" fill="#fff" d="M664 587a71 71 0 0 1-10 9c-21-22-46-47-70-47-14 0-25 12-37 19-17 11-41 18-61 9a66 66 0 0 1-29-19 64 64 0 0 0 58 5c19-9 39-20 62-20 33 0 65 23 87 44zm-246-69c22 25 58 17 87 23 5 1 8 3 13 2l-12-4c-23-9-27-33-39-50 16 11 29 25 44 39a74 74 0 0 0 37 16l-11 2c-24 6-51 15-77 7a75 75 0 0 1-42-35zm-35-58c14 31 48 34 71 53a64 64 0 0 0 14 9 100 100 0 0 1-15-17c-13-19-9-45-19-65a142 142 0 0 1 23 35c9 20 11 43 31 59-21-7-45-6-63-18-20-13-38-33-42-56zm-15-63c2 28 31 42 45 65 3 4 6 9 11 13l-5-8a63 63 0 0 1-5-32c1-14 7-27 5-42 12 26 8 58 15 86 1 6 5 12 7 18-11-9-27-17-39-27a86 86 0 0 1-29-37 85 85 0 0 1-5-36zm1-50l5-18c-5 26 13 44 18 67 3 8 3 17 7 25v-1c-8-23 5-45 17-64a55 55 0 0 0 6-17c1 11-1 24-3 35-3 14-8 27-12 41a65 65 0 0 0 0 28l-1-1c-9-17-27-30-33-48a103 103 0 0 1-4-47zm10-28a79 79 0 0 1 19-50h1c-13 19-1 43-3 65l-2 22h1l1-7c3-18 19-31 33-43a29 29 0 0 0 7-11c-2 9-4 18-8 26-10 21-30 38-34 62-1-23-15-40-15-64zm33-66a46 46 0 0 1 22-15c-17 12-16 32-21 49l-6 18h1a54 54 0 0 1 13-20c12-10 29-17 35-33-1 22-20 39-37 52a63 63 0 0 0-18 22v-17c-1-20-3-41 11-56zm66-37c-12 11-20 24-29 37-8 10-19 16-28 25 5-10 6-22 12-32 11-17 29-24 45-30z"/>
        <use width="100%" height="100%" transform="matrix(-1 0 0 1 1202 0)" xlink:href="#a"/>
    </g>
    <path fill="#fff" d="M351 280l-2-2a103 103 0 0 1-19 27l-14-13a84 84 0 0 0 16-23l-2-1a82 82 0 0 1-16 22l-12-12a64 64 0 0 0 13-18l-3-2a62 62 0 0 1-12 18l-13-13a42 42 0 0 0 9-14l-3-1a40 40 0 0 1-8 13l-12-12a23 23 0 0 0 6-14h17a40 40 0 0 1-3 13l3 1a43 43 0 0 0 3-14h19a61 61 0 0 1-6 23l3 2a64 64 0 0 0 5-25h17a81 81 0 0 1-7 33l2 1c5-11 8-22 8-34h19a102 102 0 0 1-10 43l2 1a105 105 0 0 0 10-46c1-13-2-27-7-39l-2 1c4 12 7 24 7 37h-19a84 84 0 0 0-6-30l-2 1a81 81 0 0 1 5 29h-17a64 64 0 0 0-4-22l-3 1a62 62 0 0 1 4 21h-19a43 43 0 0 0-2-13l-2 1a40 40 0 0 1 2 12h-17a23 23 0 0 0-6-14l12-12a40 40 0 0 1 9 14l2-1a42 42 0 0 0-9-15l13-13a61 61 0 0 1 13 20l3-1a64 64 0 0 0-14-21l12-12a81 81 0 0 1 18 26l2-1a84 84 0 0 0-18-27l14-13a103 103 0 0 1 21 33l3-1a105 105 0 0 0-23-35 105 105 0 0 0-36-23l-1 2a103 103 0 0 1 34 22l-14 13a84 84 0 0 0-27-17l-1 2a81 81 0 0 1 27 17l-13 12a64 64 0 0 0-20-13l-1 2a61 61 0 0 1 20 13l-14 13a43 43 0 0 0-13-8l-1 3a40 40 0 0 1 12 7l-12 12a23 23 0 0 0-14-5v-18a40 40 0 0 1 14 3l1-2a43 43 0 0 0-15-3v-19a61 61 0 0 1 22 4l1-2a64 64 0 0 0-23-5v-17a81 81 0 0 1 30 6l1-2a84 84 0 0 0-31-7v-18c13 0 26 2 37 7l1-2a105 105 0 0 0-39-8 105 105 0 0 0-47 11l1 2a102 102 0 0 1 45-10v19a83 83 0 0 0-36 8l1 2a81 81 0 0 1 35-8v17a64 64 0 0 0-27 7l1 2a61 61 0 0 1 26-6v19a42 42 0 0 0-17 4l1 2a40 40 0 0 1 16-4v18l-8 1 1 3a20 20 0 0 1 8-2 20 20 0 0 1 14 6 20 20 0 0 1 6 14c0 12-9 21-20 21a20 20 0 0 1-14-6 20 20 0 0 1-6-15c0-5 2-10 6-14a20 20 0 0 1 6-4l-1-3a23 23 0 0 0-6 4l-12-12a40 40 0 0 1 10-7l-1-2a43 43 0 0 0-11 8l-14-14a62 62 0 0 1 16-11l-1-2a64 64 0 0 0-16 11l-13-12a81 81 0 0 1 21-15l-1-2a84 84 0 0 0-21 15l-14-13a103 103 0 0 1 26-19l-1-2a106 106 0 0 0-48 48l3 1a103 103 0 0 1 18-26l14 13a84 84 0 0 0-16 22l3 1a81 81 0 0 1 15-21l12 12a64 64 0 0 0-12 17l2 2a62 62 0 0 1 11-17l14 13a43 43 0 0 0-8 13l2 1a40 40 0 0 1 8-12l12 12a23 23 0 0 0-6 14h-17a40 40 0 0 1 3-14l-2-1a42 42 0 0 0-4 15h-19a61 61 0 0 1 6-24l-2-2a64 64 0 0 0-6 26h-17a81 81 0 0 1 8-34l-3-1a83 83 0 0 0-8 35h-19a102 102 0 0 1 11-44l-3-1a105 105 0 0 0-10 46 106 106 0 0 0 4 30l2-1a103 103 0 0 1-4-27h19a84 84 0 0 0 4 23l2-1a82 82 0 0 1-3-22h17a64 64 0 0 0 3 18l2-1a62 62 0 0 1-3-17h19a43 43 0 0 0 3 13l2-1a40 40 0 0 1-2-12h17a23 23 0 0 0 6 14l-12 12a40 40 0 0 1-9-14l-2 1a42 42 0 0 0 9 15l-13 13a61 61 0 0 1-15-24l-2 1a64 64 0 0 0 15 25l-12 12a81 81 0 0 1-20-33l-2 1a84 84 0 0 0 20 34l-14 13a102 102 0 0 1-25-43l-2 1a105 105 0 0 0 26 45c9 9 19 16 29 21l2-3a103 103 0 0 1-28-19l14-13a84 84 0 0 0 23 16l1-2a81 81 0 0 1-23-16l12-12a64 64 0 0 0 20 12l1-2a61 61 0 0 1-19-12l14-14a42 42 0 0 0 14 9l2-2a40 40 0 0 1-14-8l12-13a23 23 0 0 0 14 6v17a40 40 0 0 1-12-2l-2 3a43 43 0 0 0 14 2v19a61 61 0 0 1-23-5l-1 2a64 64 0 0 0 24 6v17a81 81 0 0 1-33-7l-1 2a84 84 0 0 0 34 7v19c-15 0-30-3-43-10l-2 3a105 105 0 0 0 46 10c17 0 33-4 48-11l-2-3a102 102 0 0 1-45 11v-19a84 84 0 0 0 37-8l-2-3a81 81 0 0 1-35 9v-17a64 64 0 0 0 28-7l-2-2a61 61 0 0 1-26 6v-19a42 42 0 0 0 18-4l-2-2a40 40 0 0 1-16 4v-18a23 23 0 0 0 14-5l12 12a40 40 0 0 1-10 6l2 3a43 43 0 0 0 10-7l14 13a62 62 0 0 1-16 11l2 2a64 64 0 0 0 15-11l13 12a82 82 0 0 1-21 14l2 2a84 84 0 0 0 20-14l14 13a103 103 0 0 1-26 18l1 3a106 106 0 0 0 27-20 106 106 0 0 0 21-29z"/>
    <path fill="#fff" d="M261 209v1h1v-1zm-1-1h1v1h-1zm0 0v-1h-1v1zm-2 0v-1zm-6-1h1-1zm-1 1v-1h-1v1zm-1 1h-1l1-1zm-1 1v-1 1zm-84 65v3h1v-2h-1zm8 9v1l-1-1-1-1v-1l-1-2 1 1 1 1 1 1zm22 29l-1-1h1l2 1v2l-1-1h-1zm58-97h-1l-1-2 1-1v-1h-4v-1h1l-1-1-1 1v1h-1v1h-1v1l-3 3h-6l-1-1-2 1-2-1-4-3c-2-2-5 1-5 1 0 2-2 1-2 1h-3l-2 1h-1v1h-1 3l-1 2h-3l-1 1h-2l-1 1-1 2v1l-1 1v1l-1 1v3h-1v2l-2 2v2l-1 1v2h-1v1l-1 2h1v2l-1 1h-1l-2-1-1-1h-5v2l-2 2-2 2c1 0 0 0 0 0v2l-1 1v3l1 1-1 2h-2v1h-10v-1h-1v-1h-2v1h-2l-2 2-1-2h2v-1h-6v2l-1 1v3l1 2-1 1 1 1 1 2v3l1 1h2l-1-3c-1-2 2-2 2-1l1 1c0 1 2 2 3 1 0-2 1-1 1 0l2 2h2v2c2 0 2 0 3 2a5 5 0 0 0 3 4h1c0-2 2 0 2 0l3 3 3 1 2 2h3c1-2 3 0 4 1 0 0 1 2 2 1l1 1 1 2h6l2-2h6c3 0 1-4 0-4-1-1 1-4 1-4l-8-7c-2 0 0-3 0-3 1-1-1-2-1-2v-3c-2-1-2-4-2-4v-2c-1-1 1-1 1-1 1-2-1-3-1-3v-1h-1l-1-5-4-6v-1-4l2-1 1-1h1v-2c0-2 1-1 1-1h2l1-2v-1h-1l-1-4c2-3 5-1 5-1h1c2 2 0 4 0 4v3l1 4-2 1v3c-2 0 1 2 0 1 2 1 1-1 1-1l3-2 2 2h5l1 3c2-1 4 0 2 1l2 2c1-1 1 1 1 1l1-2c-2-1 2-1 1 1l-1 1 1 1v2c3 0 2-3 2-3h1l1-1c-1-3 1-4 1-4 2 0 2-3 2-3-1-1 0-2 1-1l-1-2-1-1h-1v-1h-2v1h-1l-1 1h-2v-1l1-1h1v-2h2l1-1 1-1 1 1h1v1l-1 1 1 1h4v-2c-1-1 0-2 1-1l1-2s1 1 0 0 1-2 1-2l1-1v-2h-1c-1 2-2 0-1 0l1-1v-1h1v-1h1l2-1h2l2-2v-1c-2 0 0-1 0-1v-2z"/>
    <path fill="#fff" d="M210 237h-2v1h1v5h-2v1c0 1 2 0 2 2l1-1v-8zM210 250l1-1-1-1v-2l-1 1-1-1v3l2 2zm1 2h-1v1h1zm-1 6h-1v1h1zm1-3v-1 1z"/>
    <ellipse cx="212" cy="257" fill="#fff" rx="1" ry="1"/>
    <ellipse cx="212" cy="245" fill="#fff" rx="1" ry="1"/>
    <path fill="#fff" d="M242 241v-2l1-1 1-1v-1h2l1-1v-3h2v-2h-1v-1h-2v1h1v1h-1v1h-1l-2 2v1l-1 2h-2l-1 2 1 2zm9-5v-3l-2-1-1 1v3h-1l-1 3v1l-1 1h-2v2h-1v1l-1 4 2 1a2 2 0 0 1 1-1l1-1h5l1-1h1v-2h1v-2l1-2 1-1h-1v-1-1l-1-1h-2zm2 13l-2 2h-1l-1-1v-1h4zm5-7c1 1 1-1 1-1v-2l-2 2 1 1zm6-5c0 1 0 2 2 3l-1 1-2-3v-1h1zm1 32h-1v1h1zm-4-1v1m17-3l-1-1-1 1h1zm29 23h1v2h6v-4l-1-1v-2c1-2-2-4-2-3h-2v3l-1 2-1 3zm-2-5l-1 1v1a1 1 0 0 0 1 0l1-2h-1zm-5-19h1v2h-1zm11-21c0-1 2-2 3-1 0 2 0 1-1 1h-2zm2-14h2v-1h-1zm-2 1v-1l-1 1-1-1v1h1v1-1zm4-26h-2l-1-1h-4v2h-1v1h1l1 1c1-1 3 0 2 1 0 1 3 2 3 4l1 2h1l1-1h1v-1h-2v-3l-1-1 1-1h-1v-3zm4 11h-3l-1 2 1 1v6c-2 1 0 0 0 0v3h1l1-1a6 6 0 0 0 1-3v-2l1-2v-1-3h-1zm1 4v-1h1v1zm1 3h-1v-1l1 1zm-1-8l-1-1v-2-1l-1-1-1-1v-2l-1-1 1-1 1-1v1l1 2v2l1 2v4h-1zm-7-18l1 1v1l1 1a3 3 0 0 1 0 2l1 1h1v-1l-1-2v-1l-1-1-1-1h-1zm1-1a3 3 0 0 0-1-1h-2a1 1 0 0 1 0-1v-1c0-1 0-1 0 0l1 1 1 1h1l1 1h-1zm-13 12h-3c0-1 0-2 1-1l1-2v-2l-1-1h2l1-2 2-1v4h-1v1l-1 1v1h2l1 1v1l-3-1-1 1zm-7 1h2v1h-2v-1zm14-9l3-1 1-1v2h1v2h-1v1h-3v-1l-1-2zm-4-6c1 0 0 3 2 3l1 1 1-2v-2l-1-1-1-1-1-1-1 1-1 2h1zm3 10v-1h1l-1 1zm-1-1zm0-15v1-1zm-2 10h1v1h-1zm-1 0h1zm-9 11l-1-1h1zm-3-2v-1h1v1zm-21 0h2v-1zm-2 0v-1h1v1zm0 1v-1 1zm5-2v1h1l1 1 1 1 2-1v-2h-2-3zm5-1l1 1h2l1 2a5 5 0 0 0 2 0h4c1 2 2 2 2 1v-2l-2-2h-5l-2-1h-1-1l-1 1zm25-14l1-2-1-2-2-1-1-3h2l-5-5c-1 1-2 0-2-1l-4-4-2-1v2h2l1 2-1 1 1 1h1v2l2 1v2l-1 2 1 1h1v2l3 2 1 1 1 1c1 1 2 0 2-1z"/>
    <path fill="#fff" d="M285 177l1-2h3l1 1v1h-3v2h-2v-2zm-1-3v-1-1l-1-1-2-1-1-2c0 1 0 0 0 0h-2v-1h-1v1l1 2 2 1h2l2 3zm-11-12h-1v1h1zm0-4l1 1 2 1h1v-1l-1-1h-1l-1-1-1 1zm19 1l-1 2v1h2v2c2 0 2 2 2 2l1 1v2l1 1v3l1 1v4h2l3-1c2 0 3 3 3 4l-1 1 1 3 3 3c-1 1 1 1 1 1 0-2 2-2 2-1v2l1 1 1 1h3l1 2h2l1 1 1 2 1 1 1 1 1 1v1h1l1 1h2l1-1 2-2s0-2 1-1l1-3-2-1-1-2-1-2-1-2-2-1v-1h-1l-3-4v-2h-2l-3-3v-1h-1v-2l1-3h-3l1-1v-1h-3v-4h-1v-1h-1v-1h-1l-1-1v-1h-2l-1-1-1-1-2-1h-1l-1-1h-1v1h-2l-6 1zm11-3l3-1c1 1 2 1 2 4l-2-1-1-1-2-1zm-31 1v-1h1zm-5-10l-2-2v-1l-1-2h-2l-2 1h-1l-1 1 3 1 1 1h2l2 2 1-1zm-1-6v2h3v-1h6v-1h2v-1h-4-2v1h-3-1zm-10 19l2-1h1l-1-2h-1l-1-1-1 2 1 2zm-12 1h2l1 1 1 1h-2l-1-1-1-1zm35-23h-1l1 1 1-1zm-6-3v1h1v1l1-1v-1l-1 1zm-2 23h-1l-1 1h1l1 1 1-1-1-1zm-35 30v1h1v-1h-1zm2 0h1l-1 1zm-20-20l1-1v2zm30 138v2h1v-1zm-8-7h-1l1 1h1v-1zm80-20l-1-1v2l1-1zm0-2v-1h1v1zm25-9h2l-1 2v-2zm6-4v-1h-1v1h1v-1zm-2 0l1 1a13 13 0 0 1 0-1zm-2 3v1-1zm-3-13a1 1 0 0 0 0-1l-2 1h2zm-29-35l-1 1-1 1v2l-1 1h-4l1-1v-2l1-2-1-1-1-1h-4v1c0 1-3 3-2 0v-1l-2-1v-1l-3-3h-2l-1-1h-1c-2-1-4 0-4 2v2l-1-1h-1v2l-1 1-1-2c1 0-1-2 1-3v-1l1-1h1-3a5 5 0 0 0-2 2c-1 2-3-1-2-2l-3 1h-2c-1 1-2 0-2-1l1-1h-1l-1 1c-1 0-2 1-1 2h-1l1 1v1c0 1 2 0 1 1h-2l-3 1a80 80 0 0 0-1-2l-2-1c-1-1 1 0 1-2l1-3-2 1-1 1h-1l-1 1v1h-3l-1-1-2-1-1 1h-2v2h3v3l-1-1h-2v2h1v1h1l1 1h2l1 1h1l3 3v2h-2v1h2l1-2 2 1-1 1v1l1 1c1 1-1 2-1 2v1h-2v1h-1l2 1 1-1 1 1v2h1v3l1 1v1 4h-1v1h-6v1l-1 1-1 1v2l-1 2v3h2l2 1h1v-2h-1v-4l1-1 1 3c0 2 1 1 1 1v1l-1 1 1 1h-1l-1 1h-2l-1-1h-1v2l-1 2-1 1h-3v1h-1l1 1h1v2h-4v2h-1v3h1v1h3l4-4 3-1h1l1 1h2v1h1v-1h1l-1-1h-1l-1-1c-1-1 0-1 1-1h1l2 3 1 1h2v1h2v-1h-2v-1l-1-1c-1-2 0-2 1-1v-2h1v-2l-1-1h3v-2h1l3 1 2-3v-1h-1v-2h1v1h3l1 1c1-1 1 1 1 1h-2-1-2l-2 3v2h-1l-3 1v1c-1-1-2 1-2 2v1l1 1 2-1 2-2 2 2-1 1v1l-1 1v1h-5l-1 1h-1l-1 2c1 1-2 1-3-1h-3v-1l-2-1-4 1h-1l-1 1-2 1h-1v-1h-1l-1 2-4 2-1 1h-1l-1 1h-1v3h-1v2h-2l1 2h1l1 2h1v1l1 2 2 1v1h5v1h13l1 2 1 2 2 1h1l1 2h1v6l1 1v1l1 1h2l4 4 3 2v1h2l2-1 2-1h1l12-10-1-1v-2c2-1 2-4 0-4-1 0-1-2 1-2v-1l3-2v-2l-6-5c-2-1 0-6 2-6 2 1 0-8 0-8h-1v-3h-1l-2 3v2c-1 2-7 1-7 1l-3-1-2-1h-2l-1-1-2-1h1v-1l3 1h1l1 1h4l1 1 1 1h4v-4l1-1v-1h1v-8l-1-1h-2l-1 1v1l-1 1-1 1h-2l-1-1 2-1h1l1-1c0-2 1-1 1-1l3-3 2-4h3l1-2h5l2-1 3-1v-1l-2-2-2-1c-2 0-2-3-2-3l-1-1-2-3v-3c1 1 2-1 2-1v-2h2l1-1-1-1 1-2h5l1-2 1-1 1-1-1-3z"/>
    <path fill="#fff" d="M256 258l1 1v1h-1l-1 1v-1l-1 1h-1v-1l1-1v-1h1l-1-1v-1l2-1v3zm-5 1s0-3 1-2h1v2l-2 1v-1z"/>
</svg>
