<svg xmlns="http://www.w3.org/2000/svg" viewBox="0 0 512 512">
    <g fill-rule="evenodd">
        <path fill="#bd3d44" d="M0 0h973v39H0zm0 79h973v39H0zm0 79h973v39H0zm0 78h973v40H0zm0 79h973v39H0zm0 79h973v39H0zm0 79h973v39H0z"/>
        <path fill="#fff" d="M0 39h973v40H0zm0 79h973v40H0zm0 79h973v39H0zm0 79h973v39H0zm0 78h973v40H0zm0 79h973v40H0z"/>
        <path fill="#192f5d" d="M0 0h389v276H0z"/>
        <path fill="#fff" d="M32 12l4 11h11l-9 7 4 10-10-7-8 7 3-10-9-7h12zm65 0l4 11h11l-9 7 4 10-10-7-9 7 4-10-10-7h12zm65 0l4 11h11l-9 7 4 10-10-7-9 7 4-10-10-7h12zm65 0l4 11h11l-9 7 3 10-9-7-9 7 3-10-9-7h12zm65 0l3 11h12l-10 7 4 10-10-7-9 7 4-10-10-7h12zm65 0l3 11h12l-10 7 4 10-9-7-10 7 4-10-9-7h11zM65 39l4 11h11l-10 7 4 11-9-7-9 7 3-11-9-7h11zm65 0l4 11h11l-10 7 4 11-9-7-9 7 3-11-9-7h11zm65 0l3 11h12l-10 7 4 11-9-7-10 7 4-11-9-7h11zm65 0l3 11h12l-10 7 4 11-9-7-10 7 4-11-9-7h11zm64 0l4 11h11l-9 7 3 11-9-7-9 7 3-11-9-7h12zM33 67l3 11h12l-10 7 4 10-10-6-8 6 3-10-9-7h12zm64 0l4 11h11l-9 7 4 10-10-6-9 6 4-10-10-7h12zm65 0l4 11h11l-9 7 4 10-10-6-9 6 4-10-10-7h12zm65 0l4 11h11l-9 7 3 10-9-6-9 6 3-10-9-7h12zm65 0l3 11h12l-9 7 3 10-9-6-9 6 3-10-9-7h11zm65 0l3 11h12l-10 7 4 10-9-6-10 6 4-10-9-7h11zM65 95l4 11h11l-10 6 4 11-9-7-9 7 3-11-9-6h11zm65 0l4 11h11l-10 6 4 11-9-7-9 7 3-11-9-6h11zm65 0l3 11h12l-10 6 4 11-9-7-9 7 3-11-9-6h11zm65 0l3 11h12l-10 6 4 11-9-7-10 7 4-11-9-6h11zm64 0l4 11h11l-9 6 3 11-9-7-9 7 3-11-9-6h12zM33 122l3 11h12l-10 7 4 10-10-6-8 6 3-10-9-7h12zm64 0l4 11h11l-9 7 4 10-10-6-9 6 4-10-10-7h12zm65 0l4 11h11l-9 7 4 10-10-6-9 6 4-10-10-7h12zm65 0l4 11h11l-9 7 3 10-9-6-9 6 3-10-9-7h12zm65 0l3 11h12l-9 7 3 10-9-6-9 6 3-10-9-7h11zm65 0l3 11h12l-10 7 4 10-9-6-10 6 4-10-9-7h11zM65 150l4 11h11l-10 6 4 11-9-7-9 7 3-11-9-6h11zm65 0l4 11h11l-10 6 4 11-9-7-9 7 3-11-9-6h11zm65 0l3 11h12l-10 6 4 11-9-7-9 7 3-11-9-6h11zm65 0l3 11h12l-10 6 4 11-9-7-10 7 4-11-9-6h11zm64 0l4 11h11l-9 6 3 11-9-7-9 7 3-11-9-6h12zM33 177l3 11h12l-10 7 4 11-10-7-8 7 3-11-9-7h12zm64 0l4 11h11l-9 7 4 11-10-7-9 7 4-11-10-7h12zm65 0l4 11h11l-9 7 4 11-10-7-9 7 4-11-10-7h12zm65 0l4 11h11l-9 7 3 11-9-7-9 7 3-11-9-7h12zm65 0l3 11h12l-9 7 3 11-9-7-9 7 3-11-9-7h11zm65 0l3 11h12l-10 7 4 11-9-7-10 7 4-11-9-7h11zM65 205l4 11h11l-10 7 4 10-9-7-9 7 3-10-9-7h11zm65 0l4 11h11l-10 7 4 10-9-7-9 7 3-10-9-7h11zm65 0l3 11h12l-10 7 4 10-9-7-9 7 3-10-9-7h11zm65 0l3 11h12l-10 7 4 10-9-7-10 7 4-10-9-7h11zm64 0l4 11h11l-9 7 3 10-9-7-9 7 3-10-9-7h12zM33 232l3 11h12l-10 7 4 11-10-7-8 7 3-11-9-7h12zm64 0l4 11h11l-9 7 4 11-10-7-9 7 4-11-10-7h12zm65 0l4 11h11l-9 7 4 11-10-7-9 7 4-11-10-7h12zm65 0l4 11h11l-9 7 3 11-9-7-9 7 3-11-9-7h12zm65 0l3 11h12l-9 7 3 11-9-7-9 7 3-11-9-7h11zm65 0l3 11h12l-10 7 4 11-9-7-10 7 4-11-9-7h11z"/>
    </g>
</svg>
