<svg xmlns="http://www.w3.org/2000/svg" viewBox="0 0 512 512">
    <defs>
        <clipPath id="a">
            <path d="M0 0h496v496H0z"/>
        </clipPath>
    </defs>
    <g clip-path="url(#a)" transform="scale(1.0321)">
        <g fill-rule="evenodd">
            <path d="M0 0l337 213h407v71H337L0 496V0z"/>
            <path fill="#ff0" d="M0 478l344-219h400v-22H344L0 18v32l322 198L0 447v31z"/>
            <path fill="#40aa40" d="M0 496l344-220h400v220H0z"/>
            <path fill="#ce0000" d="M0 0l344 220h400V0H0z"/>
            <path fill="#ff0" d="M93 258c1 1 1 1 2-1l2-3c1-1 1-2 2-1h5c1-2 0-2-1-2h-4l2-3h4l2-1v-1h-4v-3l3 1 3-1c1-1 2-1 1-3l-1-1h-4c1-2 2-1 3-1 1 1 3-1 4-1l1-2-3 1-2-1 1-2 4-1c1 1 2 1 3-1l-1-2h-4l1-1 2 1 4-3h-3l-2-1c1-2 1-2 2-1l2-2-2-1-3-1h-2v2l2 1-3 1-1-3v4l2 1c-1 2-2 2-3 1l-1-3-1 2 1 4v3h-2l-1-3h-2l1 2 1 3v2h-3l-1-3-2 1 1 5 2 1-1 1h-2l-2-2h-1l1 3 2 3v3l-3-1-1-4h-2l1 2v4l3 1v2l-2 3v2z"/>
            <path fill="#ff0" d="M117 260v-4l-2-3v-2l1-4c2-1 1 0 1-2h-3l-1 4c-2-1-2-1-2-3l2-4c0-1 1-2-1-2l-1-1-1 4h-3l2-3 1-4c-1-1-1-3-2-2l-2 1c-1 1 0 3-2 3-1-1 0-2 1-3v-4c1-1 1 0-1-2l-1 4c0 1-1 2-2 1v-2-5-3c-1-1 0 0-2 1l-1 4-1-2 1-2v-5c-1 0 0 2-2 3l-2 1v-2c0-1 1-3-1-2l-1 1-2 3-1 2 2 1 2-1-1 2c-1 1-3-1-3 1l4 1 2-1c1 1 0 2-1 3h-3l2 2 4 1c1-1 1-2 2 0v2h-4l-1 2 3 1h3c1-1 1-1 2 1l-2 2h-3c0 2-1 2 1 2 1 1 3 2 5 1l1-1 1 2-2 2-2 1v1l3 1 3-2c2-1 2 0 3 1a7 7 0 0 1-2 2l-4 1v2h2l4 1 2-3 1 2 2 2 2 2z"/>
            <path fill="#ff0" d="M95 305v-11c45 0 57-31 57-51 0-21-16-41-46-41-34 0-45 20-45 41 0 20 17 36 34 36 23 0 28-5 45-26-5 26-34 36-45 36a44 44 0 0 1-45-46c0-26 17-52 56-52 34 0 57 26 57 52 0 36-28 62-68 62z"/>
        </g>
    </g>
</svg>
