<svg xmlns="http://www.w3.org/2000/svg" viewBox="0 0 640 480">
    <defs>
        <clipPath id="a">
            <path d="M0 0h640v480H0z"/>
        </clipPath>
    </defs>
    <g clip-path="url(#a)">
        <path fill="#fff" fill-rule="evenodd" d="M0 0h403v240H0z"/>
        <path fill="#c00" d="M0 0v18l97 60 36 1L1 0z"/>
        <path fill="#006" d="M42 0l116 73V1H42z"/>
        <path fill="#c00" d="M174 0v94H0v53h174v93h53v-93h173V94H227V0h-53z"/>
        <path fill="#006" d="M242 0v69L356 1H242z"/>
        <path fill="#c00" d="M246 77l32-1L403 2l-33 1-124 75z"/>
        <path fill="#006" d="M401 21l-95 57h94v85h-80l79 51 2 26h-43l-116-69v69h-84v-69L50 240H1v240h799V0H402M0 27v50l84 1L0 27zm0 136v51l80-51H0z"/>
        <path fill="#c00" d="M308 165l-33-1 125 75v-17l-92-57zM32 241l117-75-31 1L0 240"/>
        <path fill="#49497d" d="M525 248l2 2-2-2z"/>
        <path fill="#0e0e6e" d="M527 248l2 2-2-2z"/>
        <path fill="#262678" d="M521 250l2 2-2-2z"/>
        <path fill="#808067" d="M523 250l2 2-2-2z"/>
        <path fill="#58587b" d="M529 250l2 2-2-2z"/>
        <path fill="#0e0e6e" d="M454 252l2 2-2-2z"/>
        <path fill="#1b1b74" d="M517 252l2 2-2-2z"/>
        <path fill="#6e6c70" d="M519 252l2 2-2-2z"/>
        <path fill="#cc3" d="M458 256c0 52-6 111 33 152 8 9 23 28 36 27 14-1 32-21 40-31 34-45 28-98 29-150-15 7-23 9-36 9-10 1-25-5-34-10-6 4-15 9-31 9-18 1-24-2-37-6z"/>
        <path fill="#99994e" d="M532 252l2 2-2-2z"/>
        <path fill="#49497d" d="M534 252l2 2-2-2z"/>
        <path fill="#0e0e6e" d="M596 252l2 2-2-2z"/>
        <path fill="#a4a43d" d="M456 254l2 2-2-2z"/>
        <path fill="#6e6c70" d="M458 254l2 2-2-2z"/>
        <path fill="#3a3a7c" d="M460 254l2 2-2-2z"/>
        <path fill="#1b1b74" d="M513 254l2 2-2-2z"/>
        <path fill="#6e6c70" d="M515 254l2 2-2-2z"/>
        <path fill="#a4a43d" d="M517 254l2 2-2-2z"/>
        <path fill="#d0d045" d="M525 254l2 2-2-2z"/>
        <path fill="#a4a43d" d="M534 254l2 2-2-2z"/>
        <path fill="#8d8d5b" d="M536 254l2 2-2-2z"/>
        <path fill="#3a3a7c" d="M538 254l2 2-2-2z"/>
        <path fill="#262678" d="M590 254l2 2-2-2z"/>
        <path fill="#53527c" d="M592 254l2 2-2-2z"/>
        <path fill="#8d8d5b" d="M594 254l2 2-2-2z"/>
        <path fill="#737370" d="M465 256l2 2-2-2z"/>
        <path fill="#53527c" d="M467 256l2 2-2-2z"/>
        <path fill="#1b1b74" d="M469 256l2 2-2-2z"/>
        <path fill="#262678" d="M509 256l2 2-2-2z"/>
        <path fill="#6e6c70" d="M511 256l2 2-2-2z"/>
        <path fill="#a4a43d" d="M513 256l2 2-2-2z"/>
        <path fill="#e5e59d" d="M523 256l2 2-2-2z"/>
        <path fill="#fff" d="M462 261c-1 28 0 59 4 88 5 16 4 24 11 33h99c6-10 11-25 11-31 6-29 6-62 6-92a62 62 0 0 1-36 8 69 69 0 0 1-30-10c-10 6-13 9-28 9-13 1-22 2-37-5z"/>
        <path fill="#f2f1d7" d="M527 256l2 2-2-2z"/>
        <path fill="#d9d868" d="M529 256l2 2-2-2z"/>
        <path fill="#a4a43d" d="M538 256l2 2-2-2z"/>
        <path fill="#99994e" d="M540 256l2 2-2-2z"/>
        <path fill="#49497d" d="M542 256l2 2-2-2z"/>
        <path fill="#0e0e6e" d="M544 256l2 2-2-2z"/>
        <path fill="#3a3a7c" d="M584 256l2 2-2-2z"/>
        <path fill="#667" d="M586 256l2 2-2-2z"/>
        <path fill="#99994e" d="M588 256l2 2-2-2z"/>
        <path fill="#a4a43d" d="M590 256l2 2-2-2m-122 2l2 2-2-2z"/>
        <path fill="#99994e" d="M471 258l2 2-2-2z"/>
        <path fill="#6e6c70" d="M473 258l2 2-2-2z"/>
        <path fill="#49497d" d="M475 258l2 2-2-2z"/>
        <path fill="#1b1b74" d="M477 258l2 2-2-2m26 0l2 2-2-2z"/>
        <path fill="#53527c" d="M505 258l2 2-2-2z"/>
        <path fill="#8d8d5b" d="M507 258l2 2-2-2z"/>
        <path fill="#a4a43d" d="M509 258l2 2-2-2z"/>
        <path fill="#e5e59d" d="M519 258l2 2-2-2z"/>
        <path fill="#fbfaf2" d="M521 258l2 2-2-2z"/>
        <path fill="#f2f1d2" d="M532 258l2 2-2-2z"/>
        <path fill="#d9d868" d="M534 258l2 2-2-2z"/>
        <path fill="#a4a43d" d="M544 258l2 2-2-2z"/>
        <path fill="#6e6c70" d="M546 258l2 2-2-2z"/>
        <path fill="#3a3a7c" d="M548 258l2 2-2-2z"/>
        <path fill="#0e0e6e" d="M574 258l2 2-2-2z"/>
        <path fill="#32327b" d="M576 258l2 2-2-2z"/>
        <path fill="#58587b" d="M578 258l2 2-2-2z"/>
        <path fill="#808067" d="M580 258l2 2-2-2z"/>
        <path fill="#a4a43d" d="M584 259h1-1z"/>
        <path fill="#dddc7a" d="M460 260l2 2-2-2z"/>
        <path fill="#d0d045" d="M462 260l2 2-2-2z"/>
        <path fill="#a4a43d" d="M478 261h1-1z"/>
        <path fill="#808067" d="M481 260l2 2-2-2z"/>
        <path fill="#667" d="M483 260l2 2-2-2z"/>
        <path fill="#58587b" d="M485 260l2 2-2-2z"/>
        <path fill="#49497d" d="M487 260l2 2-2-2z"/>
        <path fill="#737370" d="M499 260l2 2-2-2z"/>
        <path fill="#99994e" d="M501 260l2 2-2-2z"/>
        <path fill="#a4a43d" d="M503 260l2 2-2-2z"/>
        <path fill="#e5e59d" d="M515 260l2 2-2-2z"/>
        <path fill="#fbfaf2" d="M517 260l2 2-2-2z"/>
        <path fill="#f2f1d2" d="M536 260l2 2-2-2z"/>
        <path fill="#d9d868" d="M538 260l2 2-2-2z"/>
        <path fill="#a4a43d" d="M549 261h1-1z"/>
        <path fill="#808067" d="M552 260l2 2-2-2z"/>
        <path fill="#667" d="M554 260l2 2-2-2z"/>
        <path fill="#58587b" d="M556 260l2 2-2-2z"/>
        <path fill="#3a3a7c" d="M558 260l2 2-2-2z"/>
        <path fill="#58587b" d="M567 261h2-2z"/>
        <path fill="#737370" d="M570 260l2 2-2-2z"/>
        <path fill="#99994e" d="M572 260l2 2-2-2z"/>
        <path fill="#a4a43d" d="M574 260l2 2-2-2z"/>
        <path fill="#dddc7a" d="M590 260l2 2-2-2z"/>
        <path fill="#d0d045" d="M592 260l2 2-2-2z"/>
        <path fill="#f2f1d7" d="M465 262l2 2-2-2z"/>
        <path fill="#e0dea1" d="M467 262l2 2-2-2z"/>
        <path fill="#dddc7a" d="M469 262l2 2-2-2z"/>
        <path fill="#d9d868" d="M509 262l2 2-2-2z"/>
        <path fill="#e5e3af" d="M511 262l2 2-2-2z"/>
        <path fill="#f6f6e4" d="M540 262l2 2-2-2z"/>
        <path fill="#e1e18c" d="M542 262l2 2-2-2z"/>
        <path fill="#d4d456" d="M582 262l2 2-2-2z"/>
        <path fill="#e1e18c" d="M584 262l2 2-2-2z"/>
        <path fill="#eeedc1" d="M586 262l2 2-2-2z"/>
        <path fill="#f2f1d2" d="M473 264l2 2-2-2z"/>
        <path fill="#e0dea1" d="M475 264l2 2-2-2z"/>
        <path fill="#dddc7a" d="M477 264l2 2-2-2z"/>
        <path fill="#d0d045" d="M479 264l2 2-2-2z"/>
        <path fill="#dddc7a" d="M503 264l2 2-2-2z"/>
        <path fill="#e5e3af" d="M505 264l2 2-2-2z"/>
        <path fill="#f6f6e4" d="M507 264l2 2-2-2z"/>
        <path fill="#eeedc1" d="M546 264l2 2-2-2z"/>
        <path fill="#e1e18c" d="M548 264l2 2-2-2z"/>
        <path fill="#d4d456" d="M550 264l2 2-2-2z"/>
        <path fill="#d9d868" d="M574 264l2 2-2-2z"/>
        <path fill="#e1e18c" d="M576 264l2 2-2-2z"/>
        <path fill="#eeedc1" d="M578 264l2 2-2-2z"/>
        <path fill="#f6f6e4" d="M580 264l2 2-2-2z"/>
        <path fill="#f2f1d7" d="M483 266l2 2-2-2z"/>
        <path fill="#f2f1d2" d="M485 266l2 2-2-2z"/>
        <path fill="#eeedc1" d="M487 266l2 2-2-2z"/>
        <path fill="#f2f1d2" d="M496 267h2-2z"/>
        <path fill="#fbfaf2" d="M499 266l2 2-2-2z"/>
        <path fill="#fef8f1" d="M509 266l4 4v-4h-4z"/>
        <path fill="#f2f1d7" d="M554 266l2 2-2-2z"/>
        <path fill="#f2f1d2" d="M556 266l2 2-2-2z"/>
        <path fill="#e5e3af" d="M558 266l2 2-2-2z"/>
        <path fill="#e5e59d" d="M561 267h2-2z"/>
        <path fill="#e0dea1" d="M564 266l2 2-2-2z"/>
        <path fill="#f2f1d2" d="M567 267h2-2z"/>
        <path fill="#fbfaf2" d="M570 266l2 2-2-2z"/>
        <path fill="#fef8f1" d="M505 268l2 2-2-2z"/>
        <path fill="#fbbe66" d="M507 268l2 2-2-2z"/>
        <path fill="#fbc477" d="M505 270l2 2-2-2z"/>
        <path fill="#fcb144" d="M509 270l2 2-2-2z"/>
        <path fill="#fe9f11" d="M505 272l2 2-2-2z"/>
        <path fill="#fea522" d="M509 272l2 2-2-2z"/>
        <path fill="#fae3c9" d="M503 274l2 2-2-2m8 0l2 2-2-2z"/>
        <path fill="#fbead6" d="M521 274l2 2-2-2z"/>
        <path fill="#f9d6aa" d="M523 274l2 2-2-2z"/>
        <path fill="#fae3c9" d="M532 274l2 2-2-2z"/>
        <path fill="#fef8f1" d="M534 274l2 2-2-2z"/>
        <path fill="#f9d099" d="M503 276l2 2-2-2z"/>
        <path fill="#fdab33" d="M511 276l2 2-2-2z"/>
        <path fill="#fcf1e4" d="M515 276l2 2-2-2z"/>
        <path fill="#fbc477" d="M517 276l2 2-2-2z"/>
        <path fill="#fea522" d="M519 276l2 2-2-2z"/>
        <path fill="#fcb755" d="M536 276l2 2-2-2z"/>
        <path fill="#f9d6aa" d="M538 276l2 2-2-2z"/>
        <path fill="#faca88" d="M503 278l2 2-2-2z"/>
        <path fill="#fea522" d="M513 278l2 2-2-2m27 0l2 2-2-2z"/>
        <path fill="#f8dcbb" d="M542 278l2 2-2-2z"/>
        <path fill="#f6f6e4" d="M460 280l2 2-2-2z"/>
        <path fill="#fbc477" d="M503 280l2 2-2-2z"/>
        <path fill="#fbbe66" d="M544 280l2 2-2-2z"/>
        <path fill="#f8dcbb" d="M546 280l2 2-2-2z"/>
        <path fill="#faca88" d="M503 282l2 2-2-2z"/>
        <path fill="#fcb755" d="M550 282l2 2-2-2z"/>
        <path fill="#f8dcbb" d="M552 282l2 2-2-2z"/>
        <path fill="#fef8f1" d="M501 284l2 2-2-2z"/>
        <path fill="#fe9f11" d="M503 284l2 2-2-2z"/>
        <path fill="#fdab33" d="M560 284l2 2-2-2z"/>
        <path fill="#fcb144" d="M562 284l2 2-2-2z"/>
        <path fill="#fbc477" d="M564 284l2 2-2-2z"/>
        <path fill="#f9d6aa" d="M566 284l4 4-4-4z"/>
        <path fill="#fef8f1" d="M568 284l2 2-2-2z"/>
        <path fill="#fcb144" d="M501 286l2 2-2-2z"/>
        <path fill="#fdab33" d="M529 286l2 2-2-2z"/>
        <path fill="#fbc477" d="M532 286l2 2-2-2zm8 0l2 2-2-2z"/>
        <path fill="#fea522" d="M542 286l2 2-2-2z"/>
        <path fill="#fae3c9" d="M499 288l2 2-2-2z"/>
        <path fill="#fcb144" d="M525 288l2 2-2-2z"/>
        <path fill="#fae3c9" d="M527 288l2 2-2-2z"/>
        <path fill="#f8dcbb" d="M544 288l2 2-2-2z"/>
        <path fill="#fdab33" d="M546 288l2 2-2-2z"/>
        <path fill="#fe9f11" d="M558 288l2 2-2-2z"/>
        <path fill="#fcb755" d="M560 288l2 2-2-2z"/>
        <path fill="#f9d099" d="M562 288l2 2-2-2z"/>
        <path fill="#fbead6" d="M564 288l2 2-2-2z"/>
        <path fill="#fcb144" d="M499 290l2 2-2-2z"/>
        <path fill="#fbbe66" d="M523 290l2 2-2-2z"/>
        <path fill="#f9d099" d="M548 290l2 2-2-2z"/>
        <path fill="#fbead6" d="M556 290l2 2-2-2z"/>
        <path fill="#fcf1e4" d="M497 293l2 2-2-2z"/>
        <path fill="#fbbe66" d="M521 293l2 2-2-2z"/>
        <path fill="#f9d099" d="M550 293l2 2-2-2z"/>
        <path fill="#fae3c9" d="M556 293l2 2-2-2z"/>
        <path fill="#fbc477" d="M497 295l2 2-2-2z"/>
        <path fill="#fcb144" d="M519 295l2 2-2-2m33 0l2 2-2-2z"/>
        <path fill="#fbbe66" d="M556 295l2 2-2-2z"/>
        <path fill="#f6f6e4" d="M460 297l2 2-2-2z"/>
        <path fill="#fea522" d="M497 297l2 2-2-2z"/>
        <path fill="#fbead6" d="M519 297l2 2-2-2z"/>
        <path fill="#fcf1e4" d="M552 297l2 2-2-2z"/>
        <path fill="#fef8f1" d="M558 297l2 2-2-2z"/>
        <path fill="#fcf1e4" d="M495 299l2 2-2-2z"/>
        <path fill="#fbbe66" d="M517 299l2 2-2-2z"/>
        <path fill="#faca88" d="M554 299l2 2-2-2z"/>
        <path fill="#f9d099" d="M558 299l2 2-2-2z"/>
        <path fill="#f9d6aa" d="M495 301l2 2-2-2z"/>
        <path fill="#fcf1e4" d="M517 301l2 2-2-2z"/>
        <path fill="#fae3c9" d="M527 301l2 2-2-2z"/>
        <path fill="#fea522" d="M529 301l2 2-2-2z"/>
        <path fill="#fcb144" d="M532 301l2 2-2-2z"/>
        <path fill="#f9d6aa" d="M534 301l2 2-2-2z"/>
        <path fill="#fef8f1" d="M554 301l2 2-2-2z"/>
        <path fill="#fea522" d="M556 301l2 2-2-2z"/>
        <path fill="#fdab33" d="M558 301l2 2-2-2z"/>
        <path fill="#faca88" d="M495 303l-2 6 2-6z"/>
        <path fill="#fea522" d="M515 303l2 2-2-2z"/>
        <path fill="#fef8f1" d="M517 303l2 2-2-2z"/>
        <path fill="#f9d099" d="M527 303l2 2-2-2z"/>
        <path fill="#fdab33" d="M536 303l2 2-2-2z"/>
        <path fill="#fae3c9" d="M538 303l2 2-2-2z"/>
        <path fill="#f8dcbb" d="M556 303l2 2-2-2z"/>
        <path fill="#f90" d="M558 303l2 2-2-2z"/>
        <path fill="#fbead6" d="M561 304v1-1z"/>
        <path fill="#fea522" d="M519 305l2 2-2-2z"/>
        <path fill="#fbbe66" d="M521 305l2 2-2-2z"/>
        <path fill="#faca88" d="M523 305l2 2-2-2z"/>
        <path fill="#fcb144" d="M525 305l2 2-2-2z"/>
        <path fill="#fae3c9" d="M527 305l2 2-2-2z"/>
        <path fill="#fe9f11" d="M529 305l2 2-2-2z"/>
        <path fill="#fdab33" d="M540 305l2 2-2-2z"/>
        <path fill="#fbc477" d="M542 305l2 2-2-2z"/>
        <path fill="#faca88" d="M544 305l2 2-2-2z"/>
        <path fill="#f9d6aa" d="M546 305l2 2-2-2z"/>
        <path fill="#fae3c9" d="M549 305l1 1-1-1z"/>
        <path fill="#fef8f1" d="M552 305l2 2-2-2z"/>
        <path fill="#fbc477" d="M558 305l2 2-2-2z"/>
        <path fill="#fef8f1" d="M471 307l2 2-2-2z"/>
        <path fill="#fcf1e4" d="M473 307l2 2-2-2z"/>
        <path fill="#fcb755" d="M525 307l2 2-2-2z"/>
        <path fill="#fbead6" d="M529 307l2 2-2-2z"/>
        <path fill="#fea522" d="M532 307l2 2-2-2z"/>
        <path fill="#fe9f11" d="M548 307l2 2-2-2z"/>
        <path fill="#fcb144" d="M550 307l-2 4 2-4z"/>
        <path fill="#fe9f11" d="M554 307l2 2-2-2z"/>
        <path fill="#fbbe66" d="M556 307l2 2-2-2z"/>
        <path fill="#fcf1e4" d="M558 307l2 2-2-2z"/>
        <path fill="#fae3c9" d="M471 309l2 2-2-2z"/>
        <path fill="#fe9f11" d="M473 309l4 4-4-4z"/>
        <path fill="#fbead6" d="M475 309l2 2-2-2zm18 0l2 2-2-2z"/>
        <path fill="#fae3c9" d="M495 309l2 2-2-2z"/>
        <path fill="#fe9f11" d="M513 309l2 2-2-2z"/>
        <path fill="#fbc477" d="M515 309l2 2-2-2z"/>
        <path fill="#fea522" d="M517 309l2 2-2-2z"/>
        <path fill="#fbc477" d="M523 309l2 2-2-2z"/>
        <path fill="#fef8f1" d="M525 309l2 2-2-2z"/>
        <path fill="#fbc477" d="M534 309l2 2-2-2z"/>
        <path fill="#fff" d="M550 309l2 2-2-2z"/>
        <path fill="#fdab33" d="M552 309l2 2-2-2z"/>
        <path fill="#fbc477" d="M560 309l2 2-2-2z"/>
        <path fill="#fef8f1" d="M471 311l2 2-2-2z"/>
        <path fill="#fbead6" d="M477 311l2 2-2-2z"/>
        <path fill="#f9d6aa" d="M487 311l2 2-2-2z"/>
        <path fill="#fe9f11" d="M497 311l2 2-2-2z"/>
        <path fill="#f9d6aa" d="M500 311l2 1-2-1z"/>
        <path fill="#f8dcbb" d="M513 311l2 2-2-2z"/>
        <path fill="#fcf1e4" d="M519 311l2 2-2-2z"/>
        <path fill="#f9d6aa" d="M536 311l2 2-2-2z"/>
        <path fill="#fdab33" d="M550 311l2 2-2-2z"/>
        <path fill="#fcb755" d="M562 311l2 2-2-2z"/>
        <path fill="#fef8f1" d="M564 311l2 2-2-2z"/>
        <path fill="#53527c" d="M454 313l2 2-2-2z"/>
        <path fill="#fcb755" d="M473 313l2 2-2-2z"/>
        <path fill="#fea522" d="M477 313l2 2-2-2z"/>
        <path fill="#fbead6" d="M485 313l2 2-2-2z"/>
        <path fill="#fe9f11" d="M489 313l2 2-2-2z"/>
        <path fill="#fcf1e4" d="M491 313l2 2-2-2z"/>
        <path fill="#fbbe66" d="M497 313l2 2-2-2z"/>
        <path fill="#fbc477" d="M499 313l2 2-2-2z"/>
        <path fill="#fbbe66" d="M501 313l2 2-2-2z"/>
        <path fill="#fea522" d="M511 313l2 2-2-2z"/>
        <path fill="#f9d6aa" d="M538 313l2 2-2-2z"/>
        <path fill="#fcb144" d="M564 313l2 2-2-2z"/>
        <path fill="#8d8d5b" d="M596 313l2 2-2-2z"/>
        <path fill="#e5e3af" d="M460 315l2 2-2-2z"/>
        <path fill="#f8dcbb" d="M473 315l2 2-2-2z"/>
        <path fill="#fdab33" d="M479 315l2 2-2-2z"/>
        <path fill="#fe9f11" d="M485 315l2 2-2-2z"/>
        <path fill="#faca88" d="M489 315l2 2-2-2z"/>
        <path fill="#fcf1e4" d="M497 315l2 2-2-2z"/>
        <path fill="#f9d099" d="M511 315l2 2-2-2m29 0l2 2-2-2z"/>
        <path fill="#fbbe66" d="M566 315l2 2-2-2z"/>
        <path fill="#fea522" d="M475 317l2 2-2-2z"/>
        <path fill="#fdab33" d="M481 317l2 2-2-2z"/>
        <path fill="#fea522" d="M483 317l2 2-2-2z"/>
        <path fill="#fe9f11" d="M487 317l2 2-2-2z"/>
        <path fill="#fef8f1" d="M489 317l2 2-2-2z"/>
        <path fill="#fbbe66" d="M499 317l2 2-2-2z"/>
        <path fill="#fef8f1" d="M511 317l2 2-2-2z"/>
        <path fill="#fbbe66" d="M542 317l2 2-2-2z"/>
        <path fill="#f9d099" d="M568 317l2 2-2-2z"/>
        <path fill="#f9d6aa" d="M475 319l2 2-2-2z"/>
        <path fill="#f9d099" d="M487 319l2 2-2-2z"/>
        <path fill="#fcf1e4" d="M499 319l2 2-2-2z"/>
        <path fill="#fdab33" d="M509 319l2 2-2-2m35 0l2 2-2-2z"/>
        <path fill="#fbead6" d="M570 319l2 2-2-2z"/>
        <path fill="#fea522" d="M477 321l2 2-2-2z"/>
        <path fill="#fe9f11" d="M485 321l2 2-2-2z"/>
        <path fill="#fcb144" d="M501 321l2 2-2-2z"/>
        <path fill="#faca88" d="M509 321l2 2-2-2z"/>
        <path fill="#f8dcbb" d="M544 321l2 2-2-2z"/>
        <path fill="#fcb144" d="M570 321l2 2-2-2z"/>
        <path fill="#d3d079" d="M460 323l2 2-2-2z"/>
        <path fill="#faca88" d="M477 323l2 2-2-2zm24 0l2 2-2-2z"/>
        <path fill="#fae3c9" d="M509 323l2 2-2-2m35 0l2 2-2-2z"/>
        <path fill="#f8dcbb" d="M572 323l2 2-2-2z"/>
        <path fill="#f2f1d7" d="M590 323l2 2-2-2z"/>
        <path fill="#58587b" d="M597 324l1 2-1-2z"/>
        <path fill="#d9d868" d="M461 326l1 2-1-2z"/>
        <path fill="#f8dcbb" d="M477 325l2 2-2-2z"/>
        <path fill="#f9d6aa" d="M542 325l2 2-2-2z"/>
        <path fill="#fe9f11" d="M544 325l2 2-2-2z"/>
        <path fill="#fcb144" d="M572 325l2 2-2-2z"/>
        <path fill="#f2f1d2" d="M591 326l1 2-1-2z"/>
        <path fill="#fcf1e4" d="M477 327l2 2-2-2z"/>
        <path fill="#fef8f1" d="M540 327l2 2-2-2z"/>
        <path fill="#fe9f11" d="M542 327l2 2-2-2z"/>
        <path fill="#fdab33" d="M548 327l-2 4 2-4z"/>
        <path fill="#fcb755" d="M550 327l2 2-2-2z"/>
        <path fill="#fea522" d="M574 327l2 2-2-2z"/>
        <path fill="#f9d099" d="M576 327l2 2-2-2z"/>
        <path fill="#53527c" d="M596 327l2 2-2-2z"/>
        <path fill="#808067" d="M457 330l1 2-1-2z"/>
        <path fill="#fea522" d="M479 329l2 2-2-2m6 0l2 2-2-2z"/>
        <path fill="#fe9f11" d="M507 329l2 2-2-2z"/>
        <path fill="#fae3c9" d="M540 329l2 2-2-2z"/>
        <path fill="#fef8f1" d="M548 329l2 2-2-2z"/>
        <path fill="#fcb144" d="M552 329l2 2-2-2z"/>
        <path fill="#fcb755" d="M578 329l2 2-2-2z"/>
        <path fill="#fef8f1" d="M580 329l4 4-4-4z"/>
        <path fill="#e5e59d" d="M591 330l1 2-1-2z"/>
        <path fill="#32327b" d="M597 330l1 2-1-2z"/>
        <path fill="#fcb755" d="M479 332l1 2-1-2z"/>
        <path fill="#fef8f1" d="M487 331l2 2-2-2z"/>
        <path fill="#fbbe66" d="M507 331l2 2-2-2z"/>
        <path fill="#fbead6" d="M540 331l2 2-2-2z"/>
        <path fill="#fe9f11" d="M544 331l2 2-2-2z"/>
        <path fill="#fcf1e4" d="M546 331l2 2-2-2z"/>
        <path fill="#fbead6" d="M552 331l2 2-2-2z"/>
        <path fill="#fdab33" d="M580 331l2 2-2-2z"/>
        <path fill="#667" d="M456 333l2 2-2-2z"/>
        <path fill="#f6f6e4" d="M462 333l2 2-2-2z"/>
        <path fill="#f9d6aa" d="M487 333l2 2-2-2z"/>
        <path fill="#fdab33" d="M503 333l2 2-2-2z"/>
        <path fill="#fe9f11" d="M505 333l2 2-2-2z"/>
        <path fill="#fcf1e4" d="M507 333l2 2-2-2z"/>
        <path fill="#fea522" d="M542 333l2 2-2-2z"/>
        <path fill="#faca88" d="M544 333l2 2-2-2m10 0l2 2-2-2z"/>
        <path fill="#fcb144" d="M582 333l2 2-2-2z"/>
        <path fill="#dddc7a" d="M590 333l2 2-2-2z"/>
        <path fill="#58587b" d="M456 335l2 2-2-2z"/>
        <path fill="#f2f1d2" d="M462 335l2 2-2-2z"/>
        <path fill="#fcb144" d="M479 337l1 1-1-1z"/>
        <path fill="#fea522" d="M487 335l2 2-2-2z"/>
        <path fill="#fef8f1" d="M507 335l2 2-2-2z"/>
        <path fill="#fea522" d="M509 335l2 2-2-2z"/>
        <path fill="#fcb144" d="M513 335l2 2-2-2z"/>
        <path fill="#fbead6" d="M515 335l2 2-2-2z"/>
        <path fill="#f8dcbb" d="M542 335l2 2-2-2z"/>
        <path fill="#fcf1e4" d="M544 335l2 2-2-2z"/>
        <path fill="#fef8f1" d="M554 335l2 2-2-2z"/>
        <path fill="#fe9f11" d="M556 335l2 2-2-2z"/>
        <path fill="#fbead6" d="M584 335l2 2-2-2z"/>
        <path fill="#d9d868" d="M590 335l2 2-2-2z"/>
        <path fill="#3a3a7c" d="M456 337l2 2-2-2z"/>
        <path fill="#e5e3af" d="M462 337l2 2-2-2z"/>
        <path fill="#faca88" d="M489 337l2 2-2-2z"/>
        <path fill="#fbead6" d="M509 337l2 2-2-2z"/>
        <path fill="#fe9f11" d="M515 337l2 2-2-2z"/>
        <path fill="#fcf1e4" d="M517 337l2 2-2-2z"/>
        <path fill="#fbead6" d="M540 337l2 2-2-2z"/>
        <path fill="#fae3c9" d="M542 337l2 2-2-2z"/>
        <path fill="#fbead6" d="M544 337l2 2-2-2z"/>
        <path fill="#fbbe66" d="M556 337l2 2-2-2m16 0l2 2-2-2z"/>
        <path fill="#fcf1e4" d="M574 337l2 2-2-2z"/>
        <path fill="#fef8f1" d="M576 337l2 2-2-2z"/>
        <path fill="#f8dcbb" d="M578 337l2 2-2-2z"/>
        <path fill="#fcb755" d="M580 337l2 2-2-2z"/>
        <path fill="#fae3c9" d="M584 337l2 2-2-2z"/>
        <path fill="#808067" d="M594 337l2 2-2-2z"/>
        <path fill="#32327b" d="M456 339l2 2-2-2z"/>
        <path fill="#a4a43d" d="M459 341l1 1-1-2z"/>
        <path fill="#e5e59d" d="M462 339l2 2-2-2z"/>
        <path fill="#fbc477" d="M479 339l2 2-2-2z"/>
        <path fill="#f9d6aa" d="M491 339l2 2-2-2z"/>
        <path fill="#fbbe66" d="M511 339l2 2-2-2z"/>
        <path fill="#f9d099" d="M517 339l2 2-2-2z"/>
        <path fill="#fae3c9" d="M536 339l2 2-2-2z"/>
        <path fill="#fcb144" d="M538 339l2 2-2-2z"/>
        <path fill="#fae3c9" d="M546 339l2 2-2-2z"/>
        <path fill="#f8dcbb" d="M556 339l2 2-2-2z"/>
        <path fill="#f9d099" d="M572 339l2 2-2-2z"/>
        <path fill="#fbc477" d="M582 339l2 2-2-2z"/>
        <path fill="#fbead6" d="M584 339l2 2-2-2z"/>
        <path fill="#737370" d="M594 339l2 2-2-2z"/>
        <path fill="#d9d868" d="M462 341l2 2-2-2z"/>
        <path fill="#f9d099" d="M479 341l2 2-2-2z"/>
        <path fill="#f9d6aa" d="M493 341l2 2-2-2m18 0l2 2-2-2z"/>
        <path fill="#fbc477" d="M517 341l2 2-2-2z"/>
        <path fill="#fef8f1" d="M527 341l2 2-2-2z"/>
        <path fill="#f8dcbb" d="M529 341l2 2-2-2z"/>
        <path fill="#fbc477" d="M532 341l2 2-2-2z"/>
        <path fill="#fea522" d="M534 341l2 2-2-2z"/>
        <path fill="#fbead6" d="M546 341l2 2-2-2z"/>
        <path fill="#f2f1d2" d="M588 341l2 2-2-2z"/>
        <path fill="#58587b" d="M594 341l2 2-2-2z"/>
        <path fill="#99994e" d="M458 343l2 2-2-2z"/>
        <path fill="#d0d045" d="M462 343l2 2-2-2z"/>
        <path fill="#fcb144" d="M495 343l2 2-2-2z"/>
        <path fill="#fae3c9" d="M497 343l2 2-2-2z"/>
        <path fill="#fef8f1" d="M511 343l2 2-2-2z"/>
        <path fill="#fcb755" d="M519 343l2 2-2-2z"/>
        <path fill="#fbc477" d="M521 343l2 2-2-2z"/>
        <path fill="#fcb144" d="M523 343l2 2-2-2z"/>
        <path fill="#fea522" d="M525 343l2 2-2-2z"/>
        <path fill="#fe9f11" d="M542 343l2 2-2-2z"/>
        <path fill="#f9d6aa" d="M544 343l2 2-2-2z"/>
        <path fill="#fef8f1" d="M572 343l2 2-2-2z"/>
        <path fill="#e0dea1" d="M588 343l2 2-2-2z"/>
        <path fill="#3a3a7c" d="M594 343l2 2-2-2z"/>
        <path fill="#737370" d="M458 345l2 2-2-2z"/>
        <path fill="#fbfaf2" d="M465 345l2 2-2-2z"/>
        <path fill="#fea522" d="M481 345l2 2-2-2z"/>
        <path fill="#fe9f11" d="M499 345l2 2-2-2z"/>
        <path fill="#fcb144" d="M501 345l2 2-2-2z"/>
        <path fill="#fbc477" d="M503 345l2 2-2-2z"/>
        <path fill="#faca88" d="M505 345l2 2-2-2z"/>
        <path fill="#fbc477" d="M507 345l2 2-2-2z"/>
        <path fill="#fcb144" d="M509 345l2 2-2-2z"/>
        <path fill="#fdab33" d="M511 345l2 2-2-2z"/>
        <path fill="#fbc477" d="M540 345l2 2-2-2z"/>
        <path fill="#fef8f1" d="M542 345l2 2-2-2z"/>
        <path fill="#fdab33" d="M570 345l2 2-2-2z"/>
        <path fill="#e1e18c" d="M588 345l2 2-2-2z"/>
        <path fill="#a4a43d" d="M593 347l1 1-1-1z"/>
        <path fill="#262678" d="M594 345l2 2-2-2z"/>
        <path fill="#58587b" d="M458 347l2 2-2-2z"/>
        <path fill="#f2f1d2" d="M465 347l2 2-2-2z"/>
        <path fill="#faca88" d="M481 347l2 2-2-2z"/>
        <path fill="#fe9f11" d="M536 347l2 2-2-2z"/>
        <path fill="#fbead6" d="M538 347l2 2-2-2z"/>
        <path fill="#fbc477" d="M556 347l2 2-2-2z"/>
        <path fill="#faca88" d="M570 347l2 2-2-2z"/>
        <path fill="#d4d456" d="M588 347l2 2-2-2z"/>
        <path fill="#32327b" d="M458 349l2 2-2-2z"/>
        <path fill="#e5e59d" d="M465 349l2 2-2-2z"/>
        <path fill="#fef8f1" d="M481 349l2 2-2-2z"/>
        <path fill="#fe9f11" d="M483 349l2 2-2-2z"/>
        <path fill="#fbead6" d="M536 349l2 2-2-2z"/>
        <path fill="#fea522" d="M556 349l2 2-2-2z"/>
        <path fill="#fcf1e4" d="M570 349l2 2-2-2z"/>
        <path fill="#808067" d="M592 349l2 2-2-2z"/>
        <path fill="#0e0e6e" d="M458 351l2 2-2-2z"/>
        <path fill="#a4a43d" d="M460 351l2 2-2-2z"/>
        <path fill="#d9d868" d="M465 351l2 2-2-2z"/>
        <path fill="#f8dcbb" d="M483 351l2 2-2-2z"/>
        <path fill="#f9d6aa" d="M554 351l2 2-2-2z"/>
        <path fill="#faca88" d="M568 351l2 2-2-2z"/>
        <path fill="#f2f1d2" d="M586 351l2 2-2-2z"/>
        <path fill="#58587b" d="M592 351l2 2-2-2z"/>
        <path fill="#8d8d5b" d="M460 353l2 2-2-2z"/>
        <path fill="#f9d6aa" d="M485 353l2 2-2-2z"/>
        <path fill="#fdab33" d="M525 353l2 2-2-2z"/>
        <path fill="#fff" d="M527 353l2 2-2-2z"/>
        <path fill="#fcb144" d="M531 354l1 1-1-1z"/>
        <path fill="#fef8f1" d="M552 353l-2 4 2-4z"/>
        <path fill="#fe9f11" d="M554 353l2 2-2-2z"/>
        <path fill="#fdab33" d="M566 353l-2 4 2-4z"/>
        <path fill="#e5e59d" d="M586 353l2 2-2-2z"/>
        <path fill="#3a3a7c" d="M592 353l2 2-2-2z"/>
        <path fill="#667" d="M460 355l2 2-2-2z"/>
        <path fill="#f2f1d2" d="M467 355l2 2-2-2z"/>
        <path fill="#f9d6aa" d="M487 355l2 2-2-2z"/>
        <path fill="#fe9f11" d="M525 355l2 2-2-2z"/>
        <path fill="#faca88" d="M527 355l2 2-2-2z"/>
        <path fill="#fea522" d="M529 355l2 2-2-2z"/>
        <path fill="#fcf1e4" d="M532 355l2 2-2-2z"/>
        <path fill="#fdab33" d="M552 355l2 2-2-2z"/>
        <path fill="#fef8f1" d="M566 355l2 2-2-2z"/>
        <path fill="#d9d868" d="M586 355l2 2-2-2z"/>
        <path fill="#a4a43d" d="M590 355l2 2-2-2z"/>
        <path fill="#0e0e6e" d="M592 355l2 2-2-2z"/>
        <path fill="#3a3a7c" d="M460 357l2 2-2-2z"/>
        <path fill="#e5e59d" d="M467 357l2 2-2-2z"/>
        <path fill="#fae3c9" d="M489 357l4 4-4-4z"/>
        <path fill="#fe9f11" d="M491 357l2 2-2-2z"/>
        <path fill="#f8dcbb" d="M529 357l2 2-2-2z"/>
        <path fill="#fcf1e4" d="M548 357l2 2-2-2z"/>
        <path fill="#fdab33" d="M550 357l2 2-2-2z"/>
        <path fill="#fcb144" d="M562 357l2 2-2-2z"/>
        <path fill="#fef8f1" d="M564 357l2 2-2-2z"/>
        <path fill="#fbfaf2" d="M584 357l2 2-2-2z"/>
        <path fill="#8d8d5b" d="M590 357l2 2-2-2z"/>
        <path fill="#0e0e6e" d="M460 360l2 2-2-2z"/>
        <path fill="#a4a43d" d="M462 360l2 2-2-2z"/>
        <path fill="#d4d456" d="M467 360l2 2-2-2z"/>
        <path fill="#f9d6aa" d="M527 360l2 2-2-2z"/>
        <path fill="#f9d099" d="M546 360l2 2-2-2z"/>
        <path fill="#fe9f11" d="M548 360l2 2-2-2z"/>
        <path fill="#faca88" d="M560 360l2 2-2-2z"/>
        <path fill="#eeedc1" d="M584 360l2 2-2-2z"/>
        <path fill="#58587b" d="M590 360l2 2-2-2z"/>
        <path fill="#737370" d="M462 362l2 2-2-2z"/>
        <path fill="#f6f6e4" d="M469 362l2 2-2-2z"/>
        <path fill="#fbbe66" d="M491 362l2 2-2-2z"/>
        <path fill="#fcb144" d="M523 362l2 2-2-2z"/>
        <path fill="#f8dcbb" d="M526 363l1 1-1-1z"/>
        <path fill="#fbbe66" d="M542 362l2 2-2-2z"/>
        <path fill="#fe9f11" d="M544 362l2 2-2-2z"/>
        <path fill="#fbc477" d="M556 362l2 2-2-2z"/>
        <path fill="#fcf1e4" d="M558 362l2 2-2-2z"/>
        <path fill="#d3d079" d="M584 362l2 2-2-2z"/>
        <path fill="#a4a43d" d="M588 362l2 2-2-2z"/>
        <path fill="#262678" d="M590 362l2 2-2-2z"/>
        <path fill="#49497d" d="M462 364l2 2-2-2z"/>
        <path fill="#e0dea1" d="M469 364l2 2-2-2z"/>
        <path fill="#fae3c9" d="M489 364l2 2-2-2z"/>
        <path fill="#fdab33" d="M517 364l2 2-2-2z"/>
        <path fill="#fbc477" d="M519 364l2 2-2-2z"/>
        <path fill="#fbead6" d="M521 364l2 2-2-2z"/>
        <path fill="#fcb144" d="M527 364l2 2-2-2z"/>
        <path fill="#f9d6aa" d="M554 364l2 2-2-2z"/>
        <path fill="#99994e" d="M588 364l2 2-2-2z"/>
        <path fill="#0e0e6e" d="M462 366l2 2-2-2z"/>
        <path fill="#a4a43d" d="M465 366l2 2-2-2z"/>
        <path fill="#d4d456" d="M469 366l2 2-2-2z"/>
        <path fill="#f9d099" d="M487 366l2 2-2-2z"/>
        <path fill="#fe9f11" d="M489 366l2 2-2-2m10 0l2 2-2-2z"/>
        <path fill="#f9d6aa" d="M501 366l2 2-2-2z"/>
        <path fill="#f9d099" d="M503 366l2 2-2-2z"/>
        <path fill="#f9d6aa" d="M511 366l2 2-2-2z"/>
        <path fill="#fae3c9" d="M513 366l2 2-2-2z"/>
        <path fill="#fef8f1" d="M515 366l2 2-2-2z"/>
        <path fill="#fbead6" d="M532 366l2 2-2-2z"/>
        <path fill="#fae3c9" d="M534 366l2 2-2-2z"/>
        <path fill="#faca88" d="M536 366l2 2-2-2z"/>
        <path fill="#fbc477" d="M538 366l2 2-2-2z"/>
        <path fill="#fdab33" d="M540 366l2 2-2-2z"/>
        <path fill="#fe9f11" d="M550 366l2 2-2-2z"/>
        <path fill="#f9d6aa" d="M552 366l2 2-2-2z"/>
        <path fill="#e5e3af" d="M582 366l2 2-2-2z"/>
        <path fill="#667" d="M588 366l2 2-2-2z"/>
        <path fill="#737370" d="M465 368l2 2-2-2z"/>
        <path fill="#f2f1d7" d="M471 368l2 2-2-2z"/>
        <path fill="#fea522" d="M485 368l2 2-2-2z"/>
        <path fill="#fe9f11" d="M495 368l2 2-2-2z"/>
        <path fill="#fbbe66" d="M497 368l2 2-2-2z"/>
        <path fill="#fcf1e4" d="M499 368l2 2-2-2z"/>
        <path fill="#fea522" d="M548 368l2 2-2-2z"/>
        <path fill="#fbead6" d="M550 368l2 2-2-2z"/>
        <path fill="#dddc7a" d="M582 368l2 2-2-2z"/>
        <path fill="#a4a43d" d="M586 368l2 2-2-2z"/>
        <path fill="#262678" d="M588 368l2 2-2-2z"/>
        <path fill="#49497d" d="M465 370l2 2-2-2z"/>
        <path fill="#a4a43d" d="M467 371l1 1-1-1z"/>
        <path fill="#d3d079" d="M471 370l2 2-2-2z"/>
        <path fill="#f9d099" d="M487 370l2 2-2-2z"/>
        <path fill="#fcb144" d="M489 370l2 2-2-2z"/>
        <path fill="#faca88" d="M491 370l2 2-2-2z"/>
        <path fill="#f8dcbb" d="M493 370l2 2-2-2z"/>
        <path fill="#fef8f1" d="M495 370l2 2-2-2z"/>
        <path fill="#f8dcbb" d="M540 370l2 2-2-2z"/>
        <path fill="#fcf1e4" d="M548 370l2 2-2-2z"/>
        <path fill="#f6f6e4" d="M580 370l2 2-2-2z"/>
        <path fill="#8d8d5b" d="M586 370l2 2-2-2z"/>
        <path fill="#fbfaf2" d="M473 372l2 2-2-2z"/>
        <path fill="#fbbe66" d="M540 372l2 2-2-2z"/>
        <path fill="#faca88" d="M546 372l2 2-2-2z"/>
        <path fill="#e1e18c" d="M580 372l2 2-2-2z"/>
        <path fill="#49497d" d="M586 372l2 2-2-2z"/>
        <path fill="#58587b" d="M467 374l2 2-2-2z"/>
        <path fill="#e5e59d" d="M473 374l2 2-2-2z"/>
        <path fill="#fe9f11" d="M540 374l2 2-2-2z"/>
        <path fill="#fdab33" d="M544 374l2 2-2-2z"/>
        <path fill="#fbfaf2" d="M578 374l2 2-2-2z"/>
        <path fill="#a4a43d" d="M584 374l2 2-2-2z"/>
        <path fill="#0e0e6e" d="M586 374l2 2-2-2z"/>
        <path fill="#1b1b74" d="M467 376l2 2-2-2z"/>
        <path fill="#a4a43d" d="M469 376l2 2-2-2z"/>
        <path fill="#d0d045" d="M473 376l2 2-2-2z"/>
        <path fill="#fbead6" d="M538 376l2 2-2-2z"/>
        <path fill="#fe9f11" d="M542 376l2 2-2-2z"/>
        <path fill="#fbead6" d="M544 376l2 2-2-2z"/>
        <path fill="#e5e59d" d="M578 376l2 2-2-2z"/>
        <path fill="#667" d="M584 376l2 2-2-2z"/>
        <path fill="#6e6c70" d="M469 378l2 2-2-2z"/>
        <path fill="#e5e3af" d="M475 378l2 2-2-2z"/>
        <path fill="#faca88" d="M538 379l1 2-1-2z"/>
        <path fill="#fae3c9" d="M542 378l2 2-2-2z"/>
        <path fill="#fbfaf2" d="M576 378l2 2-2-2z"/>
        <path fill="#a4a43d" d="M582 378l2 2-2-2z"/>
        <path fill="#1b1b74" d="M584 378l2 2-2-2m-116 2l2 2-2-2z"/>
        <path fill="#a4a43d" d="M471 380l2 2-2-2z"/>
        <path fill="#d0d045" d="M475 380l2 2-2-2z"/>
        <path fill="#fbfaf2" d="M477 380l2 2-2-2z"/>
        <path fill="#f9d6aa" d="M540 380l2 2-2-2z"/>
        <path fill="#e5e59d" d="M576 380l2 2-2-2z"/>
        <path fill="#6e6c70" d="M582 380l2 2-2-2m-111 2l2 2-2-2z"/>
        <path fill="#8cbf84" d="M477 382l2 2-2-2z"/>
        <path fill="#0cf" d="M478 382c7 15 32 50 51 49 18-1 39-35 47-49h-98z"/>
        <path fill="#a4a43d" d="M580 382l2 2-2-2z"/>
        <path fill="#1b1b74" d="M582 382l2 2-2-2m-111 2l2 2-2-2z"/>
        <path fill="#a4a43d" d="M473 384l2 2-2-2z"/>
        <path fill="#adb333" d="M477 384l2 2-2-2z"/>
        <path fill="#1ac5b5" d="M479 384l2 2-2-2z"/>
        <path fill="#68b070" d="M574 384l2 2-2-2z"/>
        <path fill="#667" d="M580 384l2 2-2-2z"/>
        <path fill="#58587b" d="M473 386l2 2-2-2z"/>
        <path fill="#7fb15c" d="M479 386l2 2-2-2z"/>
        <path fill="#27c2aa" d="M572 386l2 2-2-2z"/>
        <path fill="#a4a43d" d="M578 386l-2 4 2-4z"/>
        <path fill="#0e0e6e" d="M580 386l2 2-2-2m-107 2l2 2-2-2z"/>
        <path fill="#a4a43d" d="M475 388l4 4-4-4z"/>
        <path fill="#34be9e" d="M481 388l2 2-2-2z"/>
        <path fill="#96b247" d="M572 388l2 2-2-2z"/>
        <path fill="#53527c" d="M578 388l2 2-2-2z"/>
        <path fill="#3a3a7c" d="M475 390l2 2-2-2z"/>
        <path fill="#a2b23d" d="M481 390l2 2-2-2z"/>
        <path fill="#0dc9c1" d="M483 390l2 2-2-2z"/>
        <path fill="#5bb47c" d="M570 390l2 2-2-2z"/>
        <path fill="#8d8d5b" d="M576 390l2 2-2-2z"/>
        <path fill="#737370" d="M477 392l2 2-2-2z"/>
        <path fill="#74b166" d="M483 392l2 2-2-2z"/>
        <path fill="#27c2aa" d="M568 392l2 2-2-2z"/>
        <path fill="#a4a43d" d="M574 392l-2 4 2-4z"/>
        <path fill="#262678" d="M576 392l2 2-2-2z"/>
        <path fill="#0e0e6e" d="M477 394l2 2-2-2z"/>
        <path fill="#a4a43d" d="M479 394l4 4-4-4z"/>
        <path fill="#42bb92" d="M485 394l2 2-2-2z"/>
        <path fill="#0dc9c1" d="M566 394l2 2-2-2z"/>
        <path fill="#96b247" d="M568 394l2 2-2-2z"/>
        <path fill="#58587b" d="M574 394l2 2-2-2z"/>
        <path fill="#3a3a7c" d="M479 396l2 2-2-2z"/>
        <path fill="#adb333" d="M485 396l2 2-2-2z"/>
        <path fill="#27c2aa" d="M487 396l2 2-2-2z"/>
        <path fill="#74b166" d="M566 396l2 2-2-2z"/>
        <path fill="#8d8d5b" d="M572 396l2 2-2-2z"/>
        <path fill="#6e6c70" d="M481 398l2 2-2-2z"/>
        <path fill="#96b247" d="M487 398l2 2-2-2z"/>
        <path fill="#0dc9c1" d="M489 398l2 2-2-2z"/>
        <path fill="#42bb92" d="M564 398l2 2-2-2z"/>
        <path fill="#a4a43d" d="M570 398l-4 6 4-6z"/>
        <path fill="#1b1b74" d="M572 398l2 2-2-2z"/>
        <path fill="#0e0e6e" d="M481 400l2 2-2-2z"/>
        <path fill="#8d8d5b" d="M483 400l2 2-2-2z"/>
        <path fill="#7fb15c" d="M489 400l2 2-2-2z"/>
        <path fill="#34be9e" d="M562 400l2 2-2-2z"/>
        <path fill="#3a3a7c" d="M570 400l2 2-2-2z"/>
        <path fill="#1b1b74" d="M483 402l2 2-2-2z"/>
        <path fill="#a4a43d" d="M485 402l22 22-22-22z"/>
        <path fill="#74b166" d="M491 402l2 2-2-2z"/>
        <path fill="#27c2aa" d="M560 402l2 2-2-2z"/>
        <path fill="#adb333" d="M562 402l2 2-2-2z"/>
        <path fill="#667" d="M568 402l2 2-2-2z"/>
        <path fill="#32327b" d="M485 404l2 2-2-2z"/>
        <path fill="#42bb92" d="M493 404l2 2-2-2z"/>
        <path fill="#0dc9c1" d="M558 404l-8 10 8-10z"/>
        <path fill="#adb333" d="M560 404l2 2-2-2z"/>
        <path fill="#737370" d="M566 404l2 2-2-2z"/>
        <path fill="#49497d" d="M487 406l2 2-2-2z"/>
        <path fill="#42bb92" d="M495 406l2 2-2-2z"/>
        <path fill="#96b247" d="M558 406l2 2-2-2z"/>
        <path fill="#8d8d5b" d="M564 406l-2 4 2-4z"/>
        <path fill="#0e0e6e" d="M566 406l2 2-2-2z"/>
        <path fill="#53527c" d="M489 408l2 2-2-2z"/>
        <path fill="#42bb92" d="M497 408l2 2-2-2z"/>
        <path fill="#96b247" d="M556 408l2 2-2-2z"/>
        <path fill="#0e0e6e" d="M564 408l2 2-2-2z"/>
        <path fill="#6e6c70" d="M491 410l2 2-2-2z"/>
        <path fill="#42bb92" d="M499 410l2 2-2-2z"/>
        <path fill="#96b247" d="M554 410l2 2-2-2z"/>
        <path fill="#a4a43d" d="M560 410l-4 6 4-6z"/>
        <path fill="#262678" d="M562 410l2 2-2-2z"/>
        <path fill="#6e6c70" d="M493 412l2 2-2-2z"/>
        <path fill="#42bb92" d="M501 412l2 2-2-2z"/>
        <path fill="#96b247" d="M552 412l2 2-2-2z"/>
        <path fill="#262678" d="M560 412l2 2-2-2z"/>
        <path fill="#6e6c70" d="M495 414l2 2-2-2z"/>
        <path fill="#68b070" d="M503 414l2 2-2-2z"/>
        <path fill="#27c2aa" d="M548 414l2 2-2-2z"/>
        <path fill="#adb333" d="M550 414l2 2-2-2z"/>
        <path fill="#262678" d="M558 414l2 2-2-2z"/>
        <path fill="#667" d="M497 416l2 2-2-2z"/>
        <path fill="#74b166" d="M505 416l2 2-2-2z"/>
        <path fill="#34be9e" d="M546 416l2 2-2-2z"/>
        <path fill="#adb333" d="M548 416l2 2-2-2z"/>
        <path fill="#8d8d5b" d="M554 416l-2 4 2-4z"/>
        <path fill="#262678" d="M556 416l2 2-2-2z"/>
        <path fill="#49497d" d="M499 418l2 2-2-2z"/>
        <path fill="#96b247" d="M507 418l2 2-2-2z"/>
        <path fill="#0dc9c1" d="M509 418l2 2-2-2z"/>
        <path fill="#42bb92" d="M544 418l2 2-2-2z"/>
        <path fill="#0e0e6e" d="M554 418l2 2-2-2z"/>
        <path fill="#49497d" d="M501 420l2 2-2-2z"/>
        <path fill="#a2b23d" d="M509 420l2 2-2-2z"/>
        <path fill="#27c2aa" d="M511 420l2 2-2-2z"/>
        <path fill="#74b166" d="M542 420l2 2-2-2z"/>
        <path fill="#a4a43d" d="M548 420l-6 8 6-8z"/>
        <path fill="#808067" d="M550 420l2 2-2-2z"/>
        <path fill="#0e0e6e" d="M552 420l2 2-2-2z"/>
        <path fill="#262678" d="M503 422l2 2-2-2z"/>
        <path fill="#adb333" d="M511 422l2 2-2-2z"/>
        <path fill="#42bb92" d="M513 422l2 2-2-2z"/>
        <path fill="#0dc9c1" d="M538 422l2 2-2-2z"/>
        <path fill="#96b247" d="M540 422l2 2-2-2z"/>
        <path fill="#6e6c70" d="M548 422l2 2-2-2z"/>
        <path fill="#1b1b74" d="M505 424l2 2-2-2z"/>
        <path fill="#8d8d5b" d="M507 424l2 2-2-2z"/>
        <path fill="#74b166" d="M515 424l2 2-2-2z"/>
        <path fill="#0dc9c1" d="M517 424l2 2-2-2z"/>
        <path fill="#34be9e" d="M536 424l2 2-2-2z"/>
        <path fill="#adb333" d="M538 424l2 2-2-2z"/>
        <path fill="#49497d" d="M546 424l2 2-2-2z"/>
        <path fill="#0e0e6e" d="M507 427l2 2-2-2z"/>
        <path fill="#6e6c70" d="M509 427l2 2-2-2z"/>
        <path fill="#a4a43d" d="M511 427l4 4-4-4z"/>
        <path fill="#96b247" d="M517 427l2 2-2-2z"/>
        <path fill="#27c2aa" d="M519 427l2 2-2-2z"/>
        <path fill="#68b070" d="M534 427l2 2-2-2z"/>
        <path fill="#32327b" d="M544 427l2 2-2-2z"/>
        <path fill="#49497d" d="M511 429l2 2-2-2z"/>
        <path fill="#5bb47c" d="M521 429l2 2-2-2z"/>
        <path fill="#27c2aa" d="M529 429l2 2-2-2z"/>
        <path fill="#96b247" d="M532 429l2 2-2-2z"/>
        <path fill="#a4a43d" d="M538 429l-2 4 2-4z"/>
        <path fill="#808067" d="M540 429l2 2-2-2z"/>
        <path fill="#0e0e6e" d="M542 429l2 2-2-2z"/>
        <path fill="#262678" d="M513 431l2 2-2-2z"/>
        <path fill="#8d8d5b" d="M515 431l2 2-2-2z"/>
        <path fill="#8bb252" d="M523 431l2 2-2-2z"/>
        <path fill="#1ac5b5" d="M525 431l2 2-2-2z"/>
        <path fill="#5bb47c" d="M527 431l2 2-2-2z"/>
        <path fill="#58587b" d="M538 431l2 2-2-2z"/>
        <path fill="#0e0e6e" d="M515 433l2 2-2-2z"/>
        <path fill="#667" d="M517 433l2 2-2-2z"/>
        <path fill="#a4a43d" d="M519 433l2 2-2-2z"/>
        <path fill="#99994e" d="M534 433l2 2-2-2z"/>
        <path fill="#32327b" d="M536 433l2 2-2-2m-17 2l2 2-2-2z"/>
        <path fill="#99994e" d="M521 435l2 2-2-2z"/>
        <path fill="#a4a43d" d="M529 435l2 2-2-2z"/>
        <path fill="#667" d="M532 435l2 2-2-2z"/>
        <path fill="#0e0e6e" d="M534 435l2 2-2-2m-13 2l2 2-2-2z"/>
        <path fill="#667" d="M523 437l2 2-2-2z"/>
        <path fill="#a4a43d" d="M525 437l2 2-2-2z"/>
        <path fill="#99994e" d="M527 437l2 2-2-2z"/>
        <path fill="#32327b" d="M529 437l2 2-2-2z"/>
        <path fill="#262678" d="M525 439l2 2-2-2z"/>
        <path fill="#0e0e6e" d="M527 439l2 2-2-2z"/>
        <path fill="#f90" d="M529 303c4 7 14 15 16 19-3 4-4 4-3 11 6-6 6-7 10-6 8 9 1 27-6 31s-6 0-16 5c5 4 10 0 15 1 2 3-1 8 1 13 4 0 3-8 4-11 3-11 21-19 22-29 4-2 8 0 12 2-2-9-10-9-12-12-4-7-9-16-19-18-8-2-7 0-12-3-4-2-13-7-12-3z"/>
        <path fill="#fff" fill-rule="evenodd" d="M552 311a2 2 0 1 1-3 0 2 2 0 0 1 3 0z"/>
        <path fill="#f90" d="M504 334c5-6 8-19 10-23 5 1 5 2 12-2-9-3-10-2-11-6 4-12 24-14 30-10 8 4 3 5 13 12 1-6-6-9-7-13 2-4 8-3 12-7-2-4-9 0-13 1-10 2-26-10-35-6-3-3-4-6-4-12-7 7-4 13-5 17-5 7-10 15-7 25 2 8 4 6 3 12-1 4 0 15 2 12z"/>
        <path fill="#fff" fill-rule="evenodd" d="M501 310l2 1a2 2 0 1 1-2-1z"/>
        <path fill="#f90" d="M545 338c-8-1-20 3-25 4-1-5 0-6-7-9 2 8 3 9 0 12-12 3-24-13-24-21s3-5 4-17c-6 2-5 10-8 13-4 0-7-5-12-6-2 3 5 7 7 9 8 9 6 28 14 34-1 4-4 7-8 9 9 3 13-3 17-4 8 0 18 1 25-7 5-6 3-6 9-9 3-1 12-7 8-8z"/>
        <path fill="#fff" fill-rule="evenodd" d="M527 353a2 2 0 1 1 1-2 2 2 0 0 1-1 2z"/>
    </g>
</svg>
