<svg xmlns="http://www.w3.org/2000/svg" viewBox="0 0 640 480">
    <path fill="#3a7dce" fill-rule="evenodd" d="M0 0h640v480H0z"/>
    <path fill="#fff" d="M185 225c-3-6-3-6-3-11h-3c0-1-1 5-3 4-1-1 2-5-1-6v-6s-4 2-6-4c-1-2-3 1-3 1s1 2 0 2c-2-1-4 0-6-2s0-4-4-6c3-7 3-6 10-9l-7-7c-4-1-6-3-10-6-6-7-9-22-9-32 4-4 9 11 16 16l10 4c6 3 7 6 12 9l13 5c5 4 8 10 13 11 4 0 5-2 7-3 8 0 13-1 14-4 2-2 6 2 18-3l-2-6s3-2 7-1c0-3 0-10 4-13-2-3-1-5-1-5l3-3c-1-7 1-7 1-9s-2-1-1-4 5-3 6-5l-1-4v-9c7-2 10-9 13-6 1-9 2-12 11-12 1-2-3-5-1-6 3 0 5 0 8 5 1 1 1-2 2-3 1 0 4 0 4-2l3-7c1-2 2 1 3 6a157 157 0 0 1 26 3c4 1 7-1 11-2 3 3 6 1 8 8 2 3 6 0 7 1 4 14 21 5 22 5 2 0 5 6 7 6 2-1 2-3 4-2-1 5 5 11 5 15 0 0 1 1 2-1l3-4 7 2 15 4c1 3 3 4 5 4 3 2 1 4 2 4 3-2 4-3 7-2a18 18 0 0 1 7 8v16c1 3 1 5 5 10-1 5 4 14 4 16 0 3-3 5-4 8 6 4 0 12-3 16 22 4 11 13 29 9-5 10-3 9 1 20-8 6 0 7-6 15 0 0 4 6 9 6-1 12-6 8-4 25-12 0-7 14-15 12 1 9 5 9 3 18-6 1-6 1-8 6l-5-2c-1 8-4 9 0 17h-7c0 2 3 3 3 5 0 1-8 6-14 6-2 4 4 8 4 10-7 1-10 10-10 10s3 1 3 3c-2-2-3-2-6-2-2 0-5 0-9 6-3 1-5 1-8 4-1-3-3 0-5 2l-6 4 2-4-7 1h-1l-2-4c-1 0-5 6-7 6-1 0-1-2-3-2l-4 6c-1 0-4-3-7-3-14 5-16-10-18-1-3-2-3-1-6 0-2 0-2-3-4-3-3 0-3 4-5 3-1-7-10-6-11-9s4-3 5-5c1-3-1-4 4-7 6-4 2-6 3-9 2-5 2-6 1-10l-6-13c-3-1-3 5-7 6-9 3-24-7-27-7-2 0-14 2-13-3-2 5-8 1-8 1-6 0-4 4-8 4l-19-1v3l-12-6-10-3c-9-3-4-11-19-6v-9h-7c3-18 0-9-1-25l-6 1c-6-8 8-6-5-11 0 0 1-9-2-6l1 4c-12-1-14-4-14-16h8a73 73 0 0 1-3-18c0-2 9-7 7-11l5-1"/>
    <path fill="none" stroke="#fff" stroke-linecap="round" stroke-linejoin="round" stroke-width="2" d="M575 284a3 3 0 0 0 0 3v-3z"/>
    <path fill="none" stroke="#fff" stroke-linejoin="round" stroke-width="2" d="M203 168s-2 0-2 2l2-2zm1-5c-1 0-3 0-3 2 1-2 3-2 3-2zm9 28s2 0 2 2l-2-2z"/>
</svg>
