<svg xmlns="http://www.w3.org/2000/svg" viewBox="0 0 640 480">
    <path fill="#cf142b" d="M0 0h640v480H0z"/>
    <path fill="#00247d" d="M0 0h320v160H0z"/>
    <path fill="#fff" d="M0 0v18l284 142h36v-18L36 0H0zm320 0v18L36 160H0v-18L284 0h36z"/>
    <path fill="#fff" d="M133 0v160h54V0h-54zM0 53v54h320V53H0z"/>
    <path fill="#cf142b" d="M0 64v32h320V64H0zM144 0v160h32V0h-32zM0 160l107-53h24L24 160H0zM0 0l107 53H83L0 12V0zm190 53L296 0h24L213 53h-23zm130 107l-107-53h24l83 41v12z"/>
    <path fill="#fff" d="M554 148v136c0 36-73 48-73 48s-72-12-72-48V148h145z"/>
    <path fill="#2f8f22" d="M554 284c0 36-73 48-73 48s-72-12-72-48c0 0 0-3 2-5 0 0-1 6 3 11 0 0-3-7 0-13 0 0-1 8 4 13 0 0-3-7 0-14 0 0-1 12 4 14 0 0 2-7 0-11 0 0 3 1 3 11l2-8s0 8 3 10c0 0 1-1-1-5s1-5 1-5 0 4 3 8c0 0-1-7 1-8 0 0-1 6 4 7l-1-3v-4s1 5 3 6v-6s0 4 4 6c0 0-2-4-1-7l24 1 12 1 38-3 6-6s3 4-1 10c0 0 4-1 5-7 0 0 1 3-1 7 0 0 5-5 5-10 0 0 2 5-2 11 0 0 4-2 5-7 0 0 1 3-2 8 0 0 7-4 6-11 0 0 3 4 0 10l4-8s2 2 0 8c0 0 4-4 5-9 0 0 0 4-3 9 0 0 2 0 5-5l-2 5s2 0 4-5l-1 5s2-1 3-6l1 4v1z"/>
    <path fill="#d40000" stroke="#000" stroke-linejoin="round" d="M517 205h-12s2-3-2-5v4h-1l-3-2s3-1 3-4c-1-3-2-3-3-3a5 5 0 0 0 0 2s-3-2 1-4 3-4 2-5a11 11 0 0 0-3-3l1 2c0 1-2 2-2 0v-4c0 1 4 2 5-2 0 0 2-3-3-5l1 2s-1 2-2 1l-2-4s4 1 3-4c0 0-1 3-6-1 0 0 3-3 2-6l-4-1s3-2 2-3c0 0-1-2-4 0 0 0 1-2-2-4l-3 2-3-4-3 4s-1-2-4-2c0 0-1 2 1 4l-4-1s-2-1-2 1l1 3s-5-1-5 2a7 7 0 0 0 3 5s-3 4-6 1c0 0-1 1 1 4 0 0 2 2 0 3 1 0-2 2-3-1 0 0-3 3 1 6 0 0 3 1 5-1 0 0-1 7-3 5 0 0-2-1 1-2 0 0-4-1-4 3 0 0-1 3 3 4 0 0 2 1-1 3 0 0-2 2 0 4 0 0 1 2-3 3l-2-1-1 4s-2-2-6 0l-5 1-1 2 3 3-1 3 1 1 9-4 10-5h7l5 1 6 1 4-3h7l7 4 8 5h7v-6l-1-3z"/>
    <path fill="#d40000" stroke="#000" stroke-linejoin="round" d="M444 213s3 2 5 0c0 0 1-4-3-5 0 0 2-3 0-6h-3s-1-2-4-2c0 0-2 0-2 2 0 0-3-1-4 1 0 0-3 2 1 5h2l2-1h3s-1 3 2 6z"/>
    <path fill="#64b4d1" d="M522 207a6 6 0 0 1 6 3c2 5-3 8-3 8v2c7 1 6 9 6 9l-2-2c-4-2-8 2-11 7-3 6-1 8-1 15s11 10 11 10l-8 21c-3 8-10 5-12 3s-3-1-3 0c-1 1 4 5-6 9s-11 7-13 8h-9l-3-3-12-5c-4-2-4-5-4-6 0 0 1-5-4-1s-10-2-10-2l-6-14a78 78 0 0 0-4-10l4-2c4-2 6-6 8-10 1-4 0-10-1-11s-3-8-7-9-7 2-7 2-1-8 6-8v-3s-4-3-2-8c0 0 1-4 6-3l-1 2s-1 10 14 3c16-7 15-8 24-4h6s10-4 13-2l13 7s11 4 13-3l-1-3z"/>
    <path fill="#fff" stroke="#00247d" stroke-miterlimit="10" d="M475 253l-1-6s-1-3 1-5l2-3 4-3h2s2-4 7 0l4-3s2-1 4 1c0 0 2-2 5 2 0 0 3-2 6 2 0 0 3-2 5 1l2 5 2 6 5 7-13 5h-5l-12 3-20 1-6-6 8-7z"/>
    <path fill="#d40000" stroke="#000" stroke-linejoin="round" d="M458 287l-5 1-4 2-5 1s-6-2-6 3c0 0-7 1-4 7 0 0 2 5 6 2 0 0-3 3 3 5 0 0 3 1 4-3v-3l3-3s-4 5 0 7c0 0 5 1 6-4 0 0-1-3 1-4 0 0 4-1 6-5 0 0-6-4-5-6zm-12-49s-5-2-7 0h-7l-5 5s-2 1-1 5v4l-3 3s-2 3-5 0c0 0 1 4 5 3 0 0-2 2 0 6 0 0 1 3-1 7 0 0 4-2 4-6 0 0-1-3 1-5 0 0-2 2 1 6 0 0 2 3 0 6 0 0 4-1 4-6-1-5-3-3-1-7l1 3a6 6 0 0 1 2 6s2-2 2-5a11 11 0 0 0-1-4l7-4 3-6v-11z"/>
    <path fill="none" stroke="#000" stroke-miterlimit="10" d="M435 256s-3 0-4-2m-5-2l2 1 2 1"/>
    <path d="M439 248l-2-1h-2l1 2s2 1-1 3c0 0 3-1 2-3l-1-1h3z"/>
    <path fill="#784421" d="M485 256h2l-12-41z"/>
    <path d="M446 301s-3-2-5 0l2-2c0 1 1-2 4-2l-3 2 2 2z"/>
    <path fill="#64b4d1" d="M436 307s-4-3-2-7c0 0 1-2 2-1 0 0 3 0 1 4l-1 4zm9 4s-6-2-4-7c0 0 0-2 2-2 0 0 2 0 2 4v5z"/>
    <path d="M444 293l-3 3-2-2h2l3-1z"/>
    <path fill="#64b4d1" d="M449 310s5-1 4-6c0 0 0-2-2-2 0 0-3 1-1 4 0 0 1 2-1 4z"/>
    <path fill="#f5ce00" stroke="#000" stroke-miterlimit="3" d="M472 204l4 1s5 2 11 0l4-1-3 4v3l2 2-5-1s-3-3-8 0l-4 1 3-3-2-3-3-3z"/>
    <path fill="#fff" d="M451 304v0z"/>
    <path fill="#d40000" stroke="#000" stroke-linejoin="round" d="M519 213s-4 2-5 0c0 0-2-4 2-5 0 0-2-3 0-6h4s1-2 3-2c0 0 2 0 2 2 1 0 3-1 5 1 0 0 2 2-1 5h-3l-2-1h-3s1 3-2 6z"/>
    <path fill="#f5ce00" stroke="#000" stroke-miterlimit="3" d="M491 210l-1 1-1-1v0l1-3s2-1 7 1a161 161 0 0 0 12 6l7 2s5 0 7-4c0 0 2-3 0-5l-2-1-1 2v2l2-1v2s-4 5-13 0l-12-7s-6-3-10 2c0 0-2 4 1 7 0 0 3 1 5-1 0 0 1-3-1-4 0 0-2-1-3 1s2 3 2 1c0 0 0 0 0 0z"/>
    <path fill="#e4cb5e" d="M443 231v-8l1-1c1-1 2-2 3 1l4-3s2-2 3 0l2-2s3-2 3 3l2-2s2-1 4 1l3 3 1 3 1 2 2 1s2 0 3 3l1 9v18l-12 14-20-5-7-4-2-5 7-5 4-11-1-8-2-4z"/>
    <path fill="#784421" d="M497 240l1-1 2-2 3 11v3s5 1 6 9l-4 7-6-3-2-2v-22z"/>
    <path fill="#fff" d="M435 301v-1 1s-1 1 0 3v-3z"/>
    <path fill="none" stroke="#000" stroke-miterlimit="10" d="M455 299v-1l-1-1"/>
    <path fill="none" d="M459 221l1 3 2 5"/>
    <path fill="#d40000" stroke="#000" stroke-linejoin="round" d="M505 287l4 1 5 2 4 1s6-2 6 3c0 0 8 1 5 7 0 0-2 5-7 2 0 0 3 3-2 5 0 0-4 1-5-3 0 0-1-2 1-3l-3-3s4 5-1 7c1 0-5 1-5-4 0 0 0-3-2-4 0 0-4-1-6-5 0 0 6-4 6-6z"/>
    <path fill="none" d="M457 230l5 40m-4-41l5 38m-4-38l6 37"/>
    <path fill="#784421" d="M469 263h2l-12-41z"/>
    <path fill="none" d="M462 228l12 29m-12-29l11 31"/>
    <path fill="#fff" d="M443 309l-1-4v-1l-1 1 2 4v-1z"/>
    <path fill="none" d="M463 227l12 28m-15-26l7 37"/>
    <path fill="#f5ce00" stroke="#000" stroke-miterlimit="3" d="M521 256c-6-3-7-10-7-10a21 21 0 0 1 1-12c4-7 10-8 10-8s-6 4-8 9v9l1 7 2 5z"/>
    <path fill="#784421" d="M498 239l-23 7-1 10c-5 8-16 9-16 9l8 9 16 3 9-6 8-7-1-9 1-4s-2-9-1-12z"/>
    <path fill="none" d="M474 254l24-9m-31 17s19-3 32-11l4-3"/>
    <path fill="none" d="M503 251l-5 4s-20 9-36 9m36-3s-16 8-25 8"/>
    <path fill="#d40000" stroke="#000" stroke-linejoin="round" d="M517 238s5-2 7 0h6l6 5 1 5-1 4 3 3s3 3 5 0c0 0 0 4-5 3 0 0 2 2 1 6 0 0-2 3 0 7 0 0-3-2-3-6l-1-5s1 2-2 6c0 0-2 3 0 6 0 0-4-1-3-6 0-5 2-3 1-7 0 0 0 2-2 3a6 6 0 0 0-2 6s-2-2-1-5l1-4-7-4-4-6v-11z"/>
    <path fill="#fff" stroke="#00247d" stroke-miterlimit="10" d="M437 264s1-3 4-2c0 0 1-5 6-5 6-1 6 5 6 5l4-2s5 0 3 7l1 1s4-8 11-6c0 0 7 2 2 9 0 0 4 5 7 4 3 0 5-1 8-6s10-6 12-6l3 3s4-12 17-10l5 2 2 1-3 8-7 17-6 1-5-3-2 1-1 5-7 5-5 2-6 5-1 3s-3-1-7 0l-1-3-4-3-13-6-2-8-2-1-3 3-4 1-6-4-6-18z"/>
    <path fill="none" stroke="#000" stroke-miterlimit="3" d="M494 205s-5 0-5 5"/>
    <path fill="#f5ce00" stroke="#000" stroke-miterlimit="3" d="M526 260c-8-3-11-12-11-12a21 21 0 0 1 1-13c5-10 11-10 11-10a3 3 0 0 1 4 3l-1 3c-3 1-4-1-4-1v-2h1c2 0 1 1 1 1s1-1-1-1c0 0-2-1-5 3 0 0-4 5-4 11 0 1-1 13 12 16l-4 9-5 15s-4 7-12 4c0 0-5-2-5-5 0 0 0-3 3-4 0 0 3 0 3 3 0 0 0 2-3 2l-1-2h1c1 1 0 0 0 0h-1v1s0 0 0 0l2 1 2 2 6-1a9 9 0 0 0 3-4 95 95 0 0 0 4-11l3-7v-1z"/>
    <path fill="#f5ce00" stroke="#000" stroke-miterlimit="3" d="M502 283s2 0 2 1c0 0 0 2-3 2 0 0-2 0-2-3 0 0 1-2 3-2 0 0 3 0 4 3l-1 5c-1 3-5 4-7 5l-9 5s-4 2-2 4l1 1 1-1v1h-2v-2s1-2 3-1c0 0 2 1 1 3 0 0-1 2-3 2l-2-1c-2-2-2-5-1-7l4-3 8-3 5-3 2-4-1-2h-1z"/>
    <path fill="none" stroke="#000" stroke-miterlimit="3" d="M502 283s2 0 3 2l1 2m0-7s-1 0-1 2l4 4"/>
    <path fill="#f5ce00" stroke="#000" stroke-miterlimit="3" d="M472 210v1l1-1h1s0-2-2-3c0 0-2-1-6 1l-6 3-6 3-7 2s-6 0-8-4c0 0-2-3 0-5h2l1 1v2s-1 1-1-1v2s3 5 12 0l12-7s6-3 10 2c0 0 3 4-1 7 0 0-3 2-4-1 0 0-2-3 0-4 0 0 2-1 3 1s-1 3-1 1h-1zm-30 46c5-3 7-10 7-10 1-6-2-12-2-12-3-7-9-8-9-8s6 4 7 9l1 9-2 7-2 5z"/>
    <path fill="none" stroke="#000" stroke-miterlimit="3" d="M469 205s5 0 5 5"/>
    <path fill="#f5ce00" stroke="#000" stroke-miterlimit="3" d="M436 260c9-3 11-12 11-12a21 21 0 0 0-1-13c-4-10-11-10-11-10a3 3 0 0 0-3 3c-1 2 1 3 1 3 2 1 3-1 3-1 2-1 1-2 1-2h-2l-1 1 1-1s3-1 6 3c0 0 4 5 4 11 0 1 0 13-13 16 1 0 2 2 4 9l6 15s3 7 11 4c0 0 5-2 5-5 0 0 0-3-2-4 0 0-3 0-3 3 0 0 0 2 3 2l1-2h-2c-1 1 0 0 0 0h1l1 1h-1l-1 1-3 2a6 6 0 0 1-6-1 9 9 0 0 1-2-4 95 95 0 0 1-5-11l-2-7-1-1z"/>
    <path fill="#f5ce00" stroke="#000" stroke-miterlimit="3" d="M461 283s-2 0-2 1c0 0 0 2 2 2 1 0 3 0 2-3 0 0 0-2-3-2 0 0-2 0-3 3v5c2 3 6 4 7 5l10 5s3 2 2 4l-2 1-1-1 1 1h1v-2s0-2-2-1c0 0-2 1-1 3 0 0 0 2 2 2l3-1c2-2 2-5 0-7l-4-3-7-3-6-3-1-4v-2h2z"/>
    <path fill="none" stroke="#000" stroke-miterlimit="3" d="M460 283s-1 0-3 2v2m-1-7s2 0 1 2l-3 4m23-77s4-2 9 1"/>
    <path fill="none" d="M452 236s1-2-2-7l-3-6m7-3l2 6 2 6M454 239s2 1 2 4m-7-6s2 1 2 5c0 0 0 4 2 6m-4 1s5-1 6 3c0 0 0 3 2 3 0 0 3 1 3 3m-9-5l2 2m5-6l1 3m5-29l3 3m2 8s3 1 3 8v6"/>
    <path fill="#784421" d="M456 229v1s5 0 8-4-5-1-8 3z"/>
    <path fill="none" d="M474 256l24-9"/>
    <path fill="#784421" d="M472 224v-1l9-3z"/>
    <path fill="none" d="M473 223l6 28m-5-28l7 28m-6-28l7 27m-4-28l10 20m-9-21l11 21m-10-21l11 20m-13 11l5-2m-8-1l23-8m-23 9s16-4 23-7m-18 20l1 3 2-1-1-2m4-1l1 2 3-1-1-2m-14-15v-3l22-7 1 3m-14 1l1 3m7-5l1 3m0-4l2 3m0-4l1 3m0-3l3-1 1 2m-2-2l1 3"/>
    <path fill="none" stroke="#00247d" stroke-miterlimit="10" d="M445 276s-5-4 0-8c0 0-5-2-4-6m11 18s-4 0-3-8l-2 5a4 4 0 0 0 1 4c1 1 5 2 6-1m-7-13s-2 1 0 4m2-4l2 5m-1-6s0 3 3 5m-1-6s0 3 2 6m12-1s1-3 4-3l-1 2s-1 3 2 3l3-1M473 285s-8-4-7-9c0 0 0-3 3-4m-1 3s-1 2 1 3m1-5s-1 3 0 4m1-5s-1 2 1 4m-7 9s4 4 7 4m-9-3l6 4m-7-3s4 4 7 5m12 3s-5 3-1 6m-2-8l7-4m-5 5l10-6m-6 6l10-6m-6 6l9-6m1-4s-2-3-9 0c0 0 3-3 8-4m7-14v4M492 278s2-2 6-3c0 0 1 3 4 2 0 0 4-1 3-6 0 0-1-3-6-4m15-6s5 1 5 5c0 0 0 7-6 8m5-10s2-3 5-5m-4-1l2 2m-3-1l2 2m-2 0l1 1m-28-26s1-1 4-1m10 14s1-7 7-4m-2-1s0-3-1-5m-3 5v2"/>
    <path fill="#64b4d1" d="M517 311s6-2 5-7l-2-2s-3 0-2 3l-1 6z"/>
    <path fill="#fff" d="M520 309l1-4v-1 1s1 2-1 4v-1z"/>
    <path fill="#64b4d1" d="M526 307s5-3 2-7c0 0-1-2-2-1 0 0-3 0 0 4v4z"/>
    <path fill="#fff" d="M527 301v-1l1 1s1 1 0 3l-1 1v-1s1-2 0-3z"/>
    <path fill="#64b4d1" d="M513 310s-5-1-4-6c0 0 1-2 3-2 0 0 2 1 1 4v4z"/>
    <path fill="#fff" d="M511 304h1v2l-1 2v-2-2z"/>
    <path d="M517 301s2-2 5 0l-2-2c0 1-1-2-4-2l3 2-2 2zm2-8l2 3 2-2h-2l-2-1z"/>
    <path fill="none" stroke="#000" stroke-miterlimit="10" d="M508 299v-1-1m20-41s3 0 3-2m5-2l-2 1-1 1"/>
    <path d="M524 248l2-1h1s1 2-1 2c0 0-1 1 2 3 0 0-4-1-2-3v-1s0-1 0 0h-3z"/>
    <path fill="#64b4d1" d="M526 211v-4c0-2 2-3 3-2v3a7 7 0 0 1-3 3z"/>
    <path fill="#fff" d="M526 209l1-3v3h-1z"/>
    <path fill="#64b4d1" d="M525 210l-2-3c-2-2-1-4 1-4l1 2a7 7 0 0 1 0 5z"/>
    <path fill="#fff" d="M525 208l-2-3 2 3h-1z"/>
    <path fill="#64b4d1" d="M522 209l-3-1c-2-1-2-3-1-4l3 1a6 6 0 0 1 1 4z"/>
    <path fill="#fff" d="M521 208l-3-2v-1c0 1 3 1 3 3z"/>
    <path fill="#64b4d1" d="M524 210l-4-1c-3-1-4 1-3 2 0 0 0 2 2 1a7 7 0 0 0 5-2z"/>
    <path fill="#fff" d="M518 211h-1 1z"/>
    <path fill="none" stroke="#000" stroke-miterlimit="3" d="M520 202l1 2"/>
    <path fill="none" stroke="#000" stroke-miterlimit="10" d="M526 202v3"/>
    <path fill="#64b4d1" d="M437 211l-1-4c1-2-2-3-3-2v3a7 7 0 0 0 4 3z"/>
    <path fill="#fff" d="M436 209l-1-3 1 3s0 1 0 0z"/>
    <path fill="#64b4d1" d="M438 210l2-3c2-2 0-4-1-4l-2 2a7 7 0 0 0 1 5z"/>
    <path fill="#fff" d="M438 208l2-3h-1s-2 1-2 3h1z"/>
    <path fill="#64b4d1" d="M440 209l3-1c2-1 2-3 1-4l-2 1a6 6 0 0 0-2 4z"/>
    <path fill="#fff" d="M441 208l3-2v-1l-3 3z"/>
    <path fill="#64b4d1" d="M439 210l3-1c3-1 4 1 4 2 0 0-1 2-3 1a7 7 0 0 1-4-2z"/>
    <path fill="#fff" d="M445 211h-4 4z"/>
    <path fill="none" stroke="#000" stroke-miterlimit="3" d="M443 202l-1 2"/>
    <path fill="none" stroke="#000" stroke-miterlimit="10" d="M437 202v3"/>
    <path d="M493 188v4l1 3c1 0 2 0 2-2 0 0 2 3-1 5 0 0-3 2-5 0v-4l-1-5s2 2 1 4c0 0 0 5 3 5 0 0 3 0 3-3l-2 1a2 2 0 0 1-2-3l1-5zm-4 8s-1 4-4 5v-3l-1-3v6c-1 0 6 0 4-5zm-5-4l-1-3-1-3 1 3v2s-2 0-3-2c-1-3-3-3-3-3l2 3c1 2 2 3 5 3zm-9-6l1 4s-3-1-3-3c0 0-3 1-2 4l-3-3 2 2s0-3 3-4l2 3v-3zm4-5l3 2a3 3 0 0 0 3-2s0 3-3 3c0 0-3 0-3-3zm-11 16l2 2s1 1 1-1c0 0 1-2 3-1l-2 2-1 1-2-1-1-2zm14-25c-3 0-1 2-1 2 0 4-2 5-4 4s0-3 0-3-2 1-1 3 5 1 6-1c1 2 5 3 6 1s-1-3-1-3 2 2 0 3-5 0-5-3c0 0 3-3 0-3zm2-3v0zm-9 4s0-2-2-2l2 2zm14 0s0-2 2-2l-2 2zm-17 2h3-3zm-4-11s2 0 3 3l-2 1 1-1s0-2-2-3zm27 0s-2 0-3 3l2 1-1-1s0-2 2-3zm-13 2h4s2-2 3 0h-3s-3 2-4 0z"/>
    <path fill="#fff" d="M484 168s1-3 5-2c0 0-1 3-5 2z"/>
    <ellipse cx="486" cy="167" fill="#784421" rx="1" ry="1"/>
    <path d="M476 163l4 1h3l3-3-4 2-1-1 1-3s-2 1-2 3a6 6 0 0 0 1 2l-1-1h-4zm6 14c-2 2 0 2 0 2s2 0 0-2zm-1-11h-4s-2-2-3 0h7z"/>
    <path fill="#fff" d="M479 168s-1-3-5-2c0 0 1 3 5 2z"/>
    <ellipse cx="477" cy="167" fill="#784421" rx="1" ry="1"/>
    <path fill="none" stroke="#000" d="M554 148v136c0 36-72 48-72 48s-73-12-73-48V148h145z"/>
</svg>
