<svg xmlns="http://www.w3.org/2000/svg" viewBox="0 0 640 480">
    <path fill="#006" d="M0 0h640v480H0z"/>
    <path fill="#fff" d="M0 0v25l320 197h40v-25L40 0H0zm360 0v25L40 222H0v-25L320 0h40z"/>
    <path fill="#fff" d="M150 0v222h60V0h-60zM0 74v74h360V74H0z"/>
    <path fill="#c00" d="M0 89v44h360V89H0zM162 0v222h36V0h-36zM0 222l120-74h27L27 222H0zM0 0l120 74H93L0 17V0zm213 74L333 0h27L240 74h-27zm147 148l-120-74h27l93 57v17z"/>
    <path fill="#fff" fill-rule="evenodd" d="M472 213l5-17-14-10h17l6-17 6 17h18l-14 11 5 16-15-10m27 13l11-14-10-14 17 5 11-13v17l16 7-17 5-1 17-10-14m-98 15l-1-18-17-5 17-6v-17l11 13 17-6-10 15 10 14-17-4m-39 41l-8-16-17 2 13-13-7-16 15 8 13-12-3 18 15 9-17 2m-18 56l-13-11-15 9 6-17-13-11h17l8-16 4 17 17 2-15 9m4 61l-17-5-10 14-1-17-16-6 16-6v-18l11 14 16-6-10 15m30 51l-17 3-4 17-7-16-17 2 12-13-7-16 15 8 13-11-3 17m45 38l-15 8 2 18-12-13-16 8 7-16-12-13 17 3 9-16 3 18m54 9l-9 15 12 13-17-3-9 15-3-17-17-4 16-8-2-17 13 13m57-14l-1 18 17 6-17 5-1 18-10-15-17 5 10-14-9-15 17 6m54-203l12 12 16-7-8 16 11 13-17-3-9 16-2-18-17-3 16-8m34 21l5 16h18l-14 11 4 17-14-10-14 10 5-17-14-10 18-1m19 33l-2 18 16 8-17 3-3 17-9-15-17 3 12-13-8-15 16 7m3 40l-8 15 12 13-17-3-9 16-3-18-17-3 15-8-2-17 13 12m-10 39l-15 9 4 18-13-12-15 9 6-17-13-12 17 2 7-16 5 17"/>
</svg>
