<svg xmlns="http://www.w3.org/2000/svg" viewBox="0 0 640 480">
    <defs>
        <clipPath id="a">
            <path d="M-159 0h683v512h-683z"/>
        </clipPath>
    </defs>
    <g fill-rule="evenodd" clip-path="url(#a)" transform="translate(149) scale(.94)">
        <path d="M-180 0H844v256H-180z"/>
        <path fill="#107b00" d="M-180 256H844v256H-180z"/>
        <path fill="#fff" d="M-180 169H844v176H-180z"/>
        <path fill="#f0f" d="M310 196c-45-20-84 20-84 58 0 39 38 81 86 62-34-10-48-35-48-61 0-25 16-54 46-59z"/>
        <path fill="#ff1800" d="M363 294l-26-19-26 19 10-30-26-19h32l10-30 10 30h32l-26 19"/>
        <path fill="red" d="M314 316a65 65 0 0 1-89-60 65 65 0 0 1 90-61 61 61 0 0 0-52 60 61 61 0 0 0 51 61zM-180 0l349 257-349 255V0z"/>
    </g>
</svg>
