<svg xmlns="http://www.w3.org/2000/svg" xmlns:xlink="http://www.w3.org/1999/xlink" viewBox="0 0 640 480">
    <defs>
        <g id="c">
            <g id="b">
                <path id="a" fill="#fcd116" d="M0-1v1h1" transform="rotate(18 0 -1)"/>
                <use transform="scale(-1 1)" xlink:href="#a"/>
            </g>
            <use transform="rotate(72)" xlink:href="#b"/>
            <use transform="rotate(144)" xlink:href="#b"/>
            <use transform="rotate(216)" xlink:href="#b"/>
            <use transform="rotate(288)" xlink:href="#b"/>
        </g>
    </defs>
    <path fill="#ce1126" d="M0 0h640v480H0z"/>
    <path fill="#007a5e" d="M67 67h506v346H67z"/>
    <path fill="#fcd116" d="M67 67h506L67 413h506z"/>
    <circle cx="320" cy="240" r="58" fill="#ce1126"/>
    <use width="100%" height="100%" transform="matrix(52.8 0 0 52.8 320 240)" xlink:href="#c"/>
    <use width="100%" height="100%" x="-100" transform="translate(-30)" xlink:href="#d"/>
    <use id="d" width="100%" height="100%" transform="matrix(31.2 0 0 31.2 320 34)" xlink:href="#c"/>
    <use width="100%" height="100%" x="100" transform="translate(30)" xlink:href="#d"/>
    <path fill="#ce1126" d="M102 241a80 80 0 0 0 34 33 111 111 0 0 0-11-45l-23 12z"/>
    <path fill="#fcd116" d="M90 195c10 21-27 73 36 86a63 63 0 0 1-11-42 70 70 0 0 1 32 31c17-60-42-56-57-75z"/>
    <use width="100%" height="100%" x="-100" transform="translate(-30 415)" xlink:href="#d"/>
    <use width="100%" height="100%" transform="matrix(31.2 0 0 31.2 320 448)" xlink:href="#c"/>
    <use width="100%" height="100%" x="100" transform="translate(30 415)" xlink:href="#d"/>
</svg>
