<svg xmlns="http://www.w3.org/2000/svg" viewBox="0 0 640 480">
    <path fill="#006" d="M0 0h640v480H0z"/>
    <path fill="#fff" d="M0 0v31l373 243h47v-31L47 0H0zm420 0v31L47 274H0v-31L373 0h47z"/>
    <path fill="#fff" d="M175 0v274h70V0h-70zM0 91v91h420V91H0z"/>
    <path fill="#c00" d="M0 109v55h420v-55H0zM189 0v274h42V0h-42zM0 274l140-92h31L31 274H0zM0 0l140 91h-31L0 20V0zm248 91L388 0h31L281 91h-32zm171 183l-139-92h31l108 71v21z"/>
    <path fill="#fff" fill-rule="evenodd" d="M126 417l-28-3 24-14-16-23 26 10 9-27 8 27 26-10-15 23 23 14-27 3 4 27-19-20-19 20m370 2l-19-2 17-10-11-16 18 7 6-19 6 19 18-7-11 16 17 10-19 2 2 19-13-14-13 14m2-307l-19-2 17-10-11-16 18 7 6-19 6 19 18-7-11 16 17 10-19 2 2 19-13-14-13 14m-106 98l-19-2 17-10-11-16 18 7 6-19 6 19 18-7-11 16 17 10-19 2 2 19-13-14-13 14m206-48l-19-2 16-10-10-16 18 7 6-18 6 18 18-7-11 16 17 10-20 2 3 19-13-14-14 14m-22 41l-9 8 3 12-11-7-11 7 3-12-9-8 12-1 5-12 5 12"/>
</svg>
