<svg xmlns="http://www.w3.org/2000/svg" xmlns:xlink="http://www.w3.org/1999/xlink" viewBox="0 0 30 18">
    <defs>
        <clipPath id="a">
            <path d="M-5-6h40v30H-5z"/>
        </clipPath>
    </defs>
    <g clip-path="url(#a)" transform="matrix(.75 0 0 .75 4 2)">
        <path fill="#fff" d="M-10-6h50v30h-50z"/>
        <path fill="#df112d" fill-rule="evenodd" d="M-10-6v2L12 9l-22 13v2h3l22-13 22 13h3v-2L18 9 40-4v-2h-4L16 7-7-6h-3z"/>
        <g transform="translate(-10 -6) scale(.20361)">
            <path fill="#e8112d" d="M133 22c3 13 1 29-13 38-14-9-16-25-13-38 3-3 19-5 26 0z"/>
            <path fill="#f9dd16" d="M120 20a26 26 0 0 1 13 3 28 28 0 0 1 5-12c-3 0-4 1-4 2h-4c3 1 1 5-1 4-2 0-2-1-2-2a1 1 0 1 0-1 0 3 3 0 0 1-3 1l-2-2c0-3 3-4 3-3 0-2-2-3-3-2a5 5 0 0 0-1-6 5 5 0 0 0-1 6c-1-1-4 0-4 2 1-1 4 0 4 2l-2 3a3 3 0 0 1-3-1 1 1 0 0 0 0-1 1 1 0 1 0-1 1l-2 2a2 2 0 0 1-2-5c-1-1-3-1-4 1 1-1-1-2-3-2a28 28 0 0 1 5 12 26 26 0 0 1 13-3z"/>
            <g id="b" stroke="#000" stroke-width="0">
                <g fill="#f9dd16">
                    <path d="M131 32l-1 1 2-1v0h1l-1-2 1 1-1-2h1a1 1 0 0 1-1 0v-1h-5l3-2c0-1-1-2-4-1s-6 0-6-1h4l4-1h-4l-5 1c0 2 4 2 7 2h3l-3 1a10 10 0 0 0-4 0h-4l-3-1-2 2v2c1 1 0 1-1 1l-2-1-2-1v1h1a1 1 0 0 0-1 0c-1 0 0 0 0 0h1l-1 1c0 1 0 0 0 0h2a1 1 0 0 0-1 1h4v1l2-1s0 0 0 0l1-1s0 0 0 0l2-1h4l1-1 6 1c1-1 2 0 2 1h-2v1h-1 1v1s0 0 0 0l2-1zm-19-8l-1 1 1 1v-2z"/>
                    <path d="M115 24l1 1-1 1v-2zM114 24l1 2-1 2h-1v-1l-1-2 2-1zM109 28c0-1 0 0 0 0l1 1s0 0 0 0h2s0 1 0 0l1 2v-3c-2 0-2-1-3-2l-1-2-1-1v2l-1-1 1 1v1h-1 1l1 2zm13 4v1l2-1-1 1 2-1h1v-1l-1-1c-1-2-3-1-3 0l1 1h0-3l1 1h-1 1a2 2 0 0 1 1 0z"/>
                </g>
                <path fill="none" d="M124 29h-2m-6 0v2m-4-6h1s0 0 0 0m2 0h-1s0 0 0 0m0 0v0l-1 2v-2"/>
                <path fill="#ff0016" d="M114 28v-1-1l-1 1v-1 2z"/>
                <path d="M113 27l-1-1m1 0h-1m1 1h-1m2 0l1-1m-1 1h1m-1 0h1"/>
                <path fill="#0051ba" d="M108 23l-1 1h1v-1zm0 1l-1 1h1v-1zm0 1c-1 0-2 0-1 1 0 0 0 0 0 0v-1zm0 4l-1 1h1v-1zm0 1l-1 1 1-1h0zm0 1c0-1-1 0 0 0 0 0 0 0 0 0v-1zm12 1l-1 1 1-1h0zm1 0l-1 1h1v-1zm-1-1l-1 1 1-1v0zm9 1l-1 1 1-1s0 0 0 0zm0-1l-1 1h1v-1zm0 1l-1 2 1-1s0 0 0 0zm-16-5l1 1v2l-1-2s0 0 0 0l1-1z"/>
            </g>
            <use width="30" height="18" transform="matrix(.9 0 0 .9 12 14)" xlink:href="#b"/>
            <use width="30" height="18" transform="matrix(.67 0 0 .75 39 28)" xlink:href="#b"/>
        </g>
    </g>
</svg>
