<svg xmlns="http://www.w3.org/2000/svg" viewBox="0 0 640 480">
    <defs>
        <clipPath id="a">
            <path d="M-96 0h683v512H-96z"/>
        </clipPath>
    </defs>
    <g fill-rule="evenodd" clip-path="url(#a)" transform="translate(90) scale(.9375)">
        <path fill="#fff" d="M611 512h-731V0h731z"/>
        <path fill="#fff" d="M252 256a113 113 0 1 1-225 0 113 113 0 0 1 225 0z"/>
        <path fill="#c70000" d="M393 263c0 81-65 146-145 146s-145-65-145-146 65-147 145-147 145 66 145 147z"/>
        <path d="M-49 126l83-96 20 17-84 97zm27 24l84-97 19 17-83 97z"/>
        <path d="M-49 126l83-96 20 17-84 97z"/>
        <path d="M-49 126l83-96 20 17-84 97zm55 48l84-96 19 17-83 97z"/>
        <path d="M-49 126l83-96 20 17-84 97z"/>
        <path d="M-49 126l83-96 20 17-84 97zm508-96l83 97-20 17-83-97zm-55 47l83 98-20 17-83-98z"/>
        <path fill="#fff" d="M418 133l78-68 15 17-84 76-10-25z"/>
        <path d="M514 372l-80 96-20-17 81-95zM432 53l83 98-20 17-83-98zm110 342l-81 96-20-17 81-96zm-56-46l-80 96-20-17 81-95z"/>
        <path fill="#3d5897" d="M105 237c4 37 11 78 68 82 21 1 63-5 77-63 19-56 75-72 113-42 22 15 28 37 29 54-1 54-33 101-72 122-46 27-110 28-166-13-25-24-60-67-49-140z"/>
        <path fill="#fff" d="M436 371l79 67-15 17-87-72 23-12z"/>
        <path d="M-2 357l83 97-20 18-83-98z"/>
        <path fill="#fff" d="M-16 437l78-68 15 17-84 76-9-25z"/>
        <path d="M26 334l83 97-20 17-83-97zm-56 47l83 97-20 18-83-98z"/>
    </g>
</svg>
