<svg xmlns="http://www.w3.org/2000/svg" viewBox="0 0 640 480">
    <path fill="#006" d="M0 0h640v480H0z"/>
    <path fill="#006" fill-rule="evenodd" d="M0 0h400v200H0z"/>
    <path fill="#fff" d="M0 0v27l334 215h42v-27L43 0H0zm377 0v27L42 242H0v-27L334 0h42z"/>
    <path fill="#fff" d="M157 0v242h63V0h-63zM0 81v81h377V81H0z"/>
    <path fill="#c00" d="M0 97v48h377V97H0zM169 0v242h38V0h-38zM0 242l126-80h28L28 242H0zM0 0l126 81H98L0 18V0zm223 81L348 0h28L251 81h-28zm154 161l-126-80h28l98 62v18z"/>
    <path fill="#fff" fill-rule="evenodd" d="M448 179c-1 1-3 3-5 2s-6-9-11-7l-10 3c-2 0-8 1-8 6l1 9 3-3s0 6 4 6 11 1 12 2c0 2-4 6-3 10s6 10 6 10-7 5-7 8l1 6-29 1s-2 87-1 94l3 23s-6-2-12 3c-5 6-25 15-25 19-1 5-3 8-1 11s10 12 8 11c-7-1-10-11-14-14-5-4-14-3-15 1v11l8 25c2 4 17 11 24 10 14 0 20-6 20-5 1 0 29 30 87 30 45 0 79-30 79-29s19 6 26 4c6-2 16-6 18-10l8-30c1-4 0-8-5-9s-7-1-9 0-4 5-7 11l-6 5c2-1 5-10 5-13 1-3 2-9-1-12-4-3-9-4-15-9-6-4-11-10-15-10l-7-2s5-9 4-18v-97l-25 1c0-1 2-10 0-15s-11-10-8-11c2-1 13-4 13-9-1-5-8-4-11-6l-13-10c-1 0 26-17 24-17s-12-3-16-1c0-3 15-12 12-14-2-1-14-2-11-3 3 0 4-8 4-8l-14 2-4-4-5 2-3-6-5 3-3-3s-4 2-4 0l-2-3-5 4-6-8-4 15h-4c-1 1-20-11-20-11l5 11-4 3v5l-13-4 5 10h-10l5 8-2 5s14 10 13 11zm85 213l7 10c-1 0-18 11-25 13a351 351 0 0 1-28 6l28-15a119 119 0 0 0 18-15zm-106-1l-6 11s14 10 25 13c10 4 28 5 27 5s-23-10-29-15l-17-14z"/>
    <g fill="#fec500" fill-rule="evenodd" stroke="#6d6666">
        <path d="M395-213l35 21c7 5 28 23 30 22l13-10s-24-19-39-23-39-8-39-10z" transform="matrix(.307 0 0 .37108 317 244)"/>
        <path d="M391-232c2 0 47 23 61 35s20 26 22 26l22-3c-1 0-10-30-31-39-20-9-74-19-75-19z" transform="matrix(.307 0 0 .37108 317 244)"/>
        <path d="M604-296l-12 32-7 23s-36 3-34-1c1-4 55-54 52-54z" transform="matrix(.307 0 0 .37108 317 246)"/>
        <path d="M399-261s43 28 57 45c15 16 30 45 31 45l40-7c0 1-46-46-68-60s-59-22-60-23z" transform="matrix(.307 0 0 .37108 317 244)"/>
        <path d="M443-274s21 33 26 45a1347 1347 0 0 0 16 41h34s-17-37-35-55-40-29-41-31z" transform="matrix(.307 0 0 .37108 317 246)"/>
        <path d="M455-292c0 3 31 31 38 50a402 402 0 0 1 14 43l29-7s-26-49-43-62c-16-13-37-22-38-24z" transform="matrix(.307 0 0 .37108 317 246)"/>
        <path d="M701-210s-62 7-84 13-35 27-35 27 29 11 31 9 19-19 37-26c19-6 52-22 50-23z" transform="matrix(.307 0 0 .37108 317 244)"/>
        <path d="M698-250l-67 54-32 28c-1 1-32-4-30-5 2-2 45-37 74-53s53-22 55-24z" transform="matrix(.307 0 0 .37108 317 244)"/>
        <path d="M686-279c-5 6-54 45-67 59l-34 39s-26-11-24-16c1-5 36-34 61-51 24-16 66-29 64-31z" transform="matrix(.307 0 0 .37108 317 244)"/>
        <path d="M636-282a725 725 0 0 0-35 39c-6 9-23 45-23 45l-25-23c0-1 32-35 51-48s33-11 32-13z" transform="matrix(.307 0 0 .37108 317 244)"/>
        <path stroke-width="2" d="M565-242a11 11 0 1 1-21 0 11 11 0 0 1 21 0zm21 14c0 5-5 9-10 9s-11-4-11-9 5-9 11-9 10 4 10 9zm-46-10c0 5-6 9-13 9s-13-4-13-9 6-10 13-10 13 5 13 10z" transform="matrix(.307 0 0 .37108 317 246)"/>
        <path stroke-width="2" d="M573-219c0 10-6 18-14 18s-15-8-15-18 7-18 15-18 14 8 14 18zm-39 1c0 7-7 14-15 14s-14-7-14-14 6-14 14-14 15 6 15 14z" transform="matrix(.307 0 0 .37108 317 246)"/>
        <path stroke-width="2" d="M514-207c0 6-5 12-11 12s-11-6-11-13c0-6 5-12 11-12s11 6 11 13zm81-2c0 8-7 15-17 15-9 0-16-7-16-15s7-14 17-14c9 0 16 6 16 14zm-40-21c0 5-6 9-14 9s-13-4-13-9 6-8 13-8 14 4 14 8z" transform="matrix(.307 0 0 .37108 317 246)"/>
        <path stroke-width="2" d="M557-210c0 7-8 12-19 12s-18-5-18-12 8-13 18-13 19 6 19 13zm48 22c0 9-8 16-18 16s-17-7-17-16 8-15 17-15c10 0 18 7 18 15zm-96-4c0 6-4 11-10 11s-9-5-9-11 4-10 9-10 10 4 10 10z" transform="matrix(.307 0 0 .37108 317 246)"/>
        <path stroke-width="2" d="M579-193c0 7-7 13-15 13s-15-6-15-13 7-14 15-14 15 6 15 13zm-48-1c0 6-6 12-13 12s-13-6-13-12 6-12 13-12 13 6 13 12z" transform="matrix(.307 0 0 .37108 317 246)"/>
        <path stroke-width="2" d="M555-191c0 7-7 13-14 13-8 0-14-6-14-13s6-12 14-12 14 5 14 12zm-61-76c4 0 28 8 28 8l-25 10 31-4c-2 0-26 22-19 21 7-2 21-16 22-16s15 23 17 21l1-22 26 13a123 123 0 0 1-17-17l36 2-24-12s16-15 13-15-31 15-28 14l29-31-27 13s5-19 2-18l-22 25-6-24c1 0 2 26-5 27l-32 5z" transform="matrix(.307 0 0 .37108 317 246)"/>
    </g>
    <g fill-rule="evenodd">
        <path fill="#00389b" d="M446 217s5 16 14 16 12-3 12-4a18 18 0 0 1-6-8 44 44 0 0 1-3-8l-18 4zm31-6s6 15 9 17l12 4h7s-3-2-6-10l-3-12h-19zm39 5s-1 11 0 14 8 8 8 8 7-1 7-8a36 36 0 0 0-2-13l-13-1z"/>
        <path fill="#005120" stroke="#000" stroke-width="2" d="M289 21s1 5 0 8-11 13-11 21c0 7 11 30 47 31 35 1 80-19 80-20-1 0-85-57-86-56l-30 16zm234 40s8 21 11 23 4 7 4 7l49 10s5-13-2-24c-7-10-33-37-33-37l-29 21zm33-25c2 0 13 10 22 5 10-5 25-19 25-19s-13 4-22 3c-9 0-24 12-25 11z" transform="matrix(.307 0 0 .37108 351 189)"/>
        <path fill="#005120" stroke="#000" stroke-width="2" d="M287 23s-3-9-13-10c-9-1-26 1-32-4-5-4-7-15-10-15h-11c-1 0-4-9 5-14s15 0 19-4 12-6 21-6c10-1 25 11 32 14s22 7 28 4c5-3 38-16 50-16 11-1 36-2 45-1s46 5 57 10 70 26 78 31l26 11s-32 32-48 37a355 355 0 0 1-95 12c-30-2-53-5-76-17-22-11-47-22-48-28l-1-14-27 10z" transform="matrix(.307 0 0 .37108 351 189)"/>
        <path fill="#005120" stroke="#000" stroke-width="2" d="M251-14c-1 0-7 2-6 4 1 1 4 4 11 4 7-1 14-5 14-5s-8-4-19-3z" transform="matrix(.307 0 0 .37108 351 189)"/>
        <path stroke="#000" stroke-width="2" d="M251-13v6s8 2 8 1c0-2 0-6-2-6l-6-1z" transform="matrix(.307 0 0 .37108 351 189)"/>
        <path fill="#001707" stroke="#000007" stroke-width="2" d="M332-8c2-4 0-9 12-15s33-4 33-4-6 5-7 9l1 7s-12-4-20-1-19 4-19 4zm53-21c-1 1-10 11-9 14s13 11 17 10 22-9 23-13c1-5 2-11 0-12-1-1-30 2-31 1zm40-1c-3 2-2 13-1 14s15 16 18 16c3 1 26-1 28-4s7-13 6-15c-2-2-7-6-22-9s-24-3-29-2zm58 13l38 21c13 9 18 18 21 19 4 1 19-8 20-11 0-2-19-15-31-21-13-6-48-7-48-8zm-5 9c-2 2 23 45 28 47 5 1 33-9 33-12-1-3-8-10-26-19-17-10-31-16-35-16zM448 8c-4 2-11 41-7 43s52-5 54-9-20-39-26-39-18 2-22 5zm-50-8c-5 5-4 41-2 43s31 10 34 7c3-2 7-43 4-46S423-7 417-7c-6-1-16 6-19 7zm-65-1c-5 4-5 14 0 15l30 13c12 5 19 11 22 11 4 0 7-37 3-39a62 62 0 0 0-24-3 156 156 0 0 0-31 3z" transform="matrix(.307 0 0 .37108 351 189)"/>
    </g>
    <path fill="#d40f0f" fill-rule="evenodd" d="M388 359c3-2 7-9 12-9 6 0 11 5 11 5l6 24-10 6s-4-9-7-8c-4 1-4 13-4 12l-15-18 7-12zm152-3c2 0 9-6 15-6 5 0 8 3 11 6 3 2 7 9 7 9l-8 19h-4c-1-1-2-6-6-7-3 0-4 7-4 7l-11-28z"/>
    <path fill="#fddc59" fill-rule="evenodd" d="M544 362c0 2 10 28 28 33 17 5 22-5 24-8s9-3 9-3-1 24-4 28c-3 3-5 9-21 10-16 0-31-15-36-20a92 92 0 0 1-14-22c-2-5 14-18 14-18zm-188 52s8 8 19 8c11-1 29-8 38-19a96 96 0 0 0 13-23l-13-23c0 1-1 8-4 13-2 4-8 18-19 22s-11 6-15 5a59 59 0 0 1-15-7l-6 13s-1 9 2 12z"/>
    <path fill="#fddc59" fill-rule="evenodd" d="M388 358c-1 0-21 11-21 16 1 5 35 72 109 73 73 1 118-61 114-71-3-10-26-22-26-22s6 4 5 11c-1 6-26 61-89 59-64-1-94-50-94-55s3-9 2-11z"/>
    <path fill="#d40f0f" fill-rule="evenodd" d="M586 407c2-1 13-30 19-29 6 0 4 9 3 11l-7 23s1-5-3-6-11 2-12 1zm-230 8c0-2-5-8 1-9 6-2 13 2 13 2l-9-22c-5-9-7-8-11-6-4 1-4 6-1 12l7 23z"/>
    <path fill="#fdc400" fill-rule="evenodd" d="M423 360l7-24-19-15h24l8-24 8 24h25l-20 15 8 24-21-14z"/>
    <path fill="#fff" fill-rule="evenodd" d="M556 236v92c0 45-46 84-76 92-31-8-77-47-77-92v-92h153z"/>
    <path fill="#d40f0f" fill-rule="evenodd" stroke="#000" stroke-width="2" d="M177 326l1 161s2-4 35-2c32 2 35 36 71 36 35 0 35-36 70-36s36 36 71 36 36-36 71-36 36 36 73 38c33-2 33-38 69-40l35 2V326H177z" transform="matrix(.307 0 0 .35829 349 119)"/>
    <path fill="#0062bb" fill-rule="evenodd" d="M403 312v19h11c10 1 11 13 22 13s11-13 22-13 11 13 21 13 11-13 22-13 10 12 22 13c10-1 11-12 22-13h11v-19h-11c-11 0-11 13-22 13s-11-13-22-13-11 13-22 13-10-13-21-13-11 13-22 13-11-13-22-13h-11zm4 38l7 19c10 1 11 13 22 13s11-13 22-13 11 13 22 13 10-13 21-13 11 12 22 13c10-1 11-12 22-13l7-19h-7c-11 0-11 13-22 13s-11-13-22-13-11 13-22 13-10-13-21-13-11 13-22 13-11-13-22-13h-7zm73 70c10 0 35-19 35-19s-3-13-14-13-11 13-22 13-10-13-21-13-14 13-14 13 25 19 36 19z"/>
    <path fill="#fdc400" fill-rule="evenodd" stroke="#000" d="M91 118h13c6 0 8-2 8-3v-1h7v6l-3 2-1-2-1 2-1-1-2 1v-1l-2 2-2-1-2 2-3-2-4 3-1-4-5 1-2 2-2-2s2-1 1-2h-2l-1-3h2v-2h2l1 3z" transform="matrix(1.5005 0 0 1.3054 287 126)"/>
    <path fill="#fdc400" fill-rule="evenodd" stroke="#000" d="M98 94s-3 3-3 7c1 4 8 9 8 9s3-2 5 0 1 7 1 7h-6v-2l-5 1v-2l-4-1 2-1-6-3 2-2-4-3h3l-4-3h2l-1-3h1l-1-3h2l1 2v-5h3v4l1-3 3 1z" transform="matrix(1.5005 0 0 1.3054 287 126)"/>
    <path fill-rule="evenodd" d="M530 282l-3 3 5-1a7 7 0 0 1-2-2zm4 3v4a29 29 0 0 0 3-3l-3-1zm7 1l4 3-1-4-2 1zm-62-5l-4 3 6-1-2-2zm4 3l-2 5a27 27 0 0 0 5-3l-3-2zm-2-5l-4-1 5-1-1 2zm-61-2l-5-3 6 2-1 1zm-4 3l-7 3h9l-2-3zm4 4a40 40 0 0 0-5 4h7l-2-4zm-1-33l-2-4 5 3-3 1zm5-5v-2l4 3-4-1zm6 2v-4l4 5-4-1z"/>
    <path fill="#fdc400" fill-rule="evenodd" stroke="#000" d="M137 111l5 4-8 1-3-1-1 2 2 1h-4l1 2h3l-1 1 2 1 2-2h3l-1 2 4-2v2l2-3 1 2 3-2 3 3 1-3 2-1-2-2v-5h-14z" transform="matrix(1.5005 0 0 1.3054 286 127)"/>
    <path fill="#fdc400" fill-rule="evenodd" stroke="#000" d="M115 105h41c4 0 7-2 7-5 1-2-6-2-8-1-3 0-14 5-18 5s-9-4-9-6c-1-3 2-6 6-6l12 1 5-4h5l-2 1 6-1s-4 4-8 5c-4 2-13 1-16 1s-5 0-5 2c0 3 3 4 5 4l8-3-1-1h7v-1h4l-2-1h5c3 0 11 2 10 5 0 3-3 6-6 6s-5-1-5 1l5 2 5-2 2 3 3-1-2 4 3 1-1 2h3l-3 3 2 2-2 2-2-2-1 1h-3l1-3-2 2-2-2s4-1 4-3-2-4-8-4l-10 1c-5 0-5-2-8-2s-13 4-18 4h-11l4-10z" transform="matrix(1.5005 0 0 1.3054 286 127)"/>
    <path fill="#fdc400" fill-rule="evenodd" stroke="#000" d="M107 103s-4 0-4 4v4l2-4s-2 5 0 6a9 9 0 0 0 3 1v-4s-1 4 2 5h3a70 70 0 0 0-1-4l2 3s1 2 3 1c3-1 1-3 1-3l-3-2s3 3 4 2-1-4-1-3 2 3 3 1-1-3-2-5v-3l1-4s2 1 2-2c0-2-3-2-3-2l-1-2-2 1-1-3-4 2-2 2s-4-2-4 1 3 2 3 3l-1 5z" transform="matrix(1.5005 0 0 1.3054 287 126)"/>
    <path fill-rule="evenodd" d="M451 253l3-1c1 0 3 1 2 2h-3l-2-1zm12 0l-3-1c-2 0-3 1-2 2a4 4 0 0 0 3 0l3-1z"/>
    <path fill="#000039" fill-rule="evenodd" d="M454 261l1 6 2-6h-3z"/>
    <path fill="none" stroke="#000" d="M110 103l2-1c2 0 3 1 3 2h-3l-2-1z" transform="matrix(1.5005 0 0 1.3054 287 127)"/>
    <path fill="none" stroke="#000" stroke-width="2" d="M112 100v2m7-7l1 1-1 1m-11-3l-1 1 1 2" transform="matrix(1.5005 0 0 1.3054 287 127)"/>
    <path fill="none" stroke="#000" stroke-width="2" d="M111 136s-1 2 1 2 1-2 1-2" transform="matrix(1.5005 0 0 1.3054 287 78)"/>
    <path fill="#fdc400" fill-rule="evenodd" d="M462 404l7-21-18-14h22l7-21 8 21h22l-18 14 7 21-18-13z"/>
    <path fill="#003017" fill-rule="evenodd" d="M465 398l6-17-15-10h18l7-17 6 16 18 1-15 10 6 17-15-10z"/>
    <path fill="#fdc400" fill-rule="evenodd" d="M426 361l6-20-18-12 22-1 8-19 7 19 22 1-18 12 7 20-18-12z"/>
    <path fill="#003017" fill-rule="evenodd" d="M429 356l5-16-15-10h19l6-16 6 16h18l-15 10 6 16-15-10z"/>
    <path fill="#fdc400" fill-rule="evenodd" d="M500 361l6-20-18-12 22-1 8-19 7 19 22 1-17 12 6 20-18-12z"/>
    <path fill="#003017" fill-rule="evenodd" d="M503 356l5-16-15-10h19l6-16 6 16h18l-14 10 5 16-15-10z"/>
    <path fill="none" d="M373 373c8 34 42 60 88 66 58 8 114-22 125-66"/>
    <path d="M373 378l11-6 1 2-4 2 1 3 5-2 1 2-11 7-1-3 5-2-2-4-5 3-1-2m5 9l10-7 4 6-2 1-2-4-3 2 2 4-1 1-2-4-3 2 2 4-2 2-3-6m7 11l9-10 2 2-4 4 2 2 4-3 1 2-9 9-1-2 4-4-2-3-4 4-2-1m12 5l1 2 3-5-4 3m-6 2l10-8 3 2-6 12-2-2 1-3-2-2-2 3-2-2m9 8l6-9-2-2 1-2 6 5-1 2-2-2-6 10-2-2m5 4l6-12 2 2-2 4 3 2 2-4 2 1-6 12-2-2 3-5-3-2-3 5-2-1m12 8l5-13 6 3-1 2-4-2-1 3 4 2-1 2-4-2-2 6-2-1m12-2a15 15 0 0 0-1 4v1h2l2-4 1-4a1 1 0 0 0-1-1h-2l-1 4m-3-1a16 16 0 0 1 3-5 3 3 0 0 1 1-1l2 1 2 1 1 2v2a25 25 0 0 1-1 3l-1 3-2 2-1 1-2-1-2-1a4 4 0 0 1-1-2v-2l1-3m11-3l2 1-2 9a5 5 0 0 0 0 2l1 1h1l1-2 2-9 2 1-2 9a10 10 0 0 1-1 2 3 3 0 0 1-2 1 5 5 0 0 1-2 0l-3-2v-4l3-9m6 16l3-13 2 1 1 10 2-10 2 1-3 13h-2l-1-11-2 10-2-1m12 1h2a1 1 0 0 0 1 0v-2a24 24 0 0 0 1-5 3 3 0 0 0 0-2 1 1 0 0 0-1 0h-1l-1-1-1 10m-3 2l2-14 4 1h2l1 1v5a31 31 0 0 1-1 4 6 6 0 0 1-1 2l-1 1h-6m10 1l1-13h6v3l-4-1v3l4 1v2l-4-1-1 4 5 1-1 2-6-1m10-1h3l1-2a23 23 0 0 0 0-3v-3a3 3 0 0 0-1-1l-1-1h-1l-1 10m-2 2l1-14h3a6 6 0 0 1 2 1l1 1a4 4 0 0 1 1 1v4a32 32 0 0 1 0 4 4 4 0 0 1-1 2l-1 1h-6m14 0l-1-13 3-1v14h-2m6 0l-1-12-3 1v-3h8v2h-3l1 12h-2m8-15h2l2 9v2h2l1-1v-2l-2-9h3l1 9v3a3 3 0 0 1-1 1 5 5 0 0 1-2 1h-3l-2-4-1-9m12 4l1-1 2-1v-1l-1-2h-2l-1 1 1 4m0 8l-3-14 4-1h3l1 3v3l-3 2h-1l1 6-2 1m9-10a15 15 0 0 0 1 4h2l1-1-1-4-2-4-1-1-1 2 1 4m-3 1v-4a6 6 0 0 1 0-2v-1a5 5 0 0 1 2-1 4 4 0 0 1 2-1l2 1 1 2a25 25 0 0 1 2 6 6 6 0 0 1 0 2 4 4 0 0 1-1 2 4 4 0 0 1-2 1l-2 1a3 3 0 0 1-1-1 5 5 0 0 1-1-2l-2-3m12 3l-5-13 2-1 6 8-3-9 2-1 5 13-2 1-7-8 4 9-2 1m14-7l-5-10-2 1-1-2 6-4 2 2-3 2 5 10-2 1m5-3l-6-12 2-1 2 4 3-2-3-4 2-2 7 12-2 1-3-5-3 2 3 5-2 2m9-6l-8-11 5-5 1 2-3 3 2 3 3-3 1 2-3 2 2 3 4-2 1 1-5 5m6-12l2-2v1l1 1 1-1 1-1a2 2 0 0 0 0-1 2 2 0 0 0-1 0 4 4 0 0 0-2 0h-1a6 6 0 0 1-3 0 3 3 0 0 1-1-1 4 4 0 0 1-1-3 4 4 0 0 1 1-2l2-2 3 2-1 2h-1a3 3 0 0 0-1-1h-1v2h4a5 5 0 0 1 2 0l2 1a4 4 0 0 1 1 3 5 5 0 0 1-1 3l-3 1-2-1-1-1m10-4l-10-9 4-5 2 1-3 4 2 2 3-3 1 1-2 3 2 3 3-4 2 2-4 5m2-12l1-2-5-2 4 4m2 6l-8-10 1-3 12 5-1 2-3-1-2 2 3 3-2 2m2-11l1-3v1h3v-2l-1-1a2 2 0 0 0-1 0l-1 1-2 1a7 7 0 0 1-2 1 3 3 0 0 1-2-1 4 4 0 0 1-1-2 4 4 0 0 1 0-3l2-2h3a4 4 0 0 1 0 1l-1 2-2-1v1 2l2-1 2-1 2-1 2 1 2 2-1 3c0 2-1 2-2 3l-3-1"/>
</svg>
