<svg xmlns="http://www.w3.org/2000/svg" viewBox="0 0 640 480">
    <path fill="#006" d="M0 0h640v480H0z"/>
    <g fill-rule="evenodd">
        <path fill="#fff" d="M408 192h215l-1 154c2 61-36 100-106 117-50-13-108-38-108-116V192z"/>
        <path fill="#00a2bd" stroke="#000" d="M44 23h169v121c2 48-29 78-84 92-40-10-85-30-85-91V23z" transform="matrix(1.2096 0 0 1.2172 360 169)"/>
        <path fill="#a53d08" d="M616 361c-7 57-50 81-100 95-45-12-92-31-102-94l202-1z"/>
    </g>
    <g fill-rule="evenodd" stroke="#000">
        <path fill="#ffc6b5" stroke-linejoin="round" d="M156 197s0 9-5 15c5 1 8 0 9-2l2-4 2-2c0-3-1-3-2-3v-6s-5-3-6 2z" transform="matrix(1.2096 0 0 1.2172 360 169)"/>
        <path fill="#ff9a08" stroke-linecap="round" d="M156 210l-2-1" transform="matrix(1.2096 0 0 1.2172 360 169)"/>
    </g>
    <path fill="#ffc6b5" fill-rule="evenodd" stroke="#000" d="M142 69l-1 7-3 2 3 6 7-2 4-8s-2-3-2-6c-2-8-8 1-8 1z" transform="matrix(1.2096 0 0 1.2172 360 169)"/>
    <path fill="#005121" fill-rule="evenodd" stroke="#000" stroke-linejoin="round" d="M131 203s5 4 10 4c11-1 14-11 18-11s5 6 9 5a56 56 0 0 1-6-25l1-42-8-20a19 19 0 0 0 4-14V89l1-6c0-4-7-10-8-10l-11 10v-7c2-1-4-2-7 3-4 4-3 124-3 124z" transform="matrix(1.2096 0 0 1.2172 360 169)"/>
    <path fill-rule="evenodd" d="M468 224h40l-1-18h15v18h40v15h-40v169h-15V239h-39v-15z"/>
    <path fill="#ffc6b5" fill-rule="evenodd" stroke="#000" d="M122 82h-4c-2 0 3-19 3-21 1-1 9-2 9-8-1-3-12 0-12 5-1 2-8 23-7 30 3 2 8 1 11 1v-7z" transform="matrix(1.2096 0 0 1.2172 360 169)"/>
    <path fill="none" stroke="#000" stroke-linecap="round" d="M124 53s0 4 3 5" transform="matrix(1.2096 0 0 1.2172 360 169)"/>
    <path fill="none" d="M516 234l-5 3m5-1l-4 3m2-6l-4 2"/>
    <path fill="#ff9a08" fill-rule="evenodd" stroke="#000" d="M96 164l30 31c10-12 3-55-11-62-2 5-4 11-7 13-7 4-23 9-18 13 2-2 5-4 6 0 2 6-6 6-6 6s-6 0-7-5c-1-6 8-11 9-11 1-1 13-4 15-14s5-9 5-9c15 2 25 29 26 48 0 19-8 32-10 33l-36-42 3-1z" transform="matrix(1.2096 0 0 1.2172 360 169)"/>
    <path fill="none" stroke="#000" d="M118 134v57m-4-55v51m-4-44l1 41m-4-38l1 33m-4-32v29m-3-26v22m-3-21v17" transform="matrix(1.2096 0 0 1.2172 360 169)"/>
    <path fill="none" stroke="#ffdf00" stroke-linecap="round" d="M95 167l31 36m2-58s14 30 1 56m-38-40s1-3 3-2m-5-6s-6 5-3 8" transform="matrix(1.2096 0 0 1.2172 360 169)"/>
    <path fill="none" stroke="#000" d="M141 83v8c-1 4 3 12 1 14m1 9h12" transform="matrix(1.2096 0 0 1.2172 360 169)"/>
    <path fill="none" stroke="#000" stroke-linecap="round" d="M139 119l1 10m2-8l-5 15m8-22l-1 10m7-10s8 18 8 25 3 21 1 27m-6-28s-1 14-6 19c-6 5 13 20 13 20M154 176s2 18 5 19m-22-50c0 1-2 13-1 15 2 2 15 20 15 39m-4-6s0 12-11 13m8-20s3 12-8 20" transform="matrix(1.2096 0 0 1.2172 360 169)"/>
    <path fill="none" stroke="#000" stroke-linecap="round" d="M148 157s12 13 13 18m-9-61l1 11" transform="matrix(1.2096 0 0 1.2172 360 169)"/>
    <path fill="#ffc6b5" fill-rule="evenodd" stroke="#000" d="M114 133l-2-5c0-2 0-7 8-10 5-5 11-8 14-10 4-3 7-2 10-3 2-2 1-6 3-10s5-12 9-11c3 2 1 12-1 16s-2 7-5 9l-14 7c-2 1-12 3-14 6-3 4-3 9-9 11z" transform="matrix(1.2096 0 0 1.2172 360 169)"/>
    <path fill="none" stroke="#000" d="M113 126s4-2 6 2" transform="matrix(1.2096 0 0 1.2172 360 169)"/>
    <path fill="#ffc6b5" fill-rule="evenodd" stroke="#000" stroke-linejoin="round" d="M142 55l-2 5c-1 1-2 0-3 3h2l-1 2-1 3c0 1 1 3 10-1s-2-14-5-12z" transform="matrix(1.2096 0 0 1.2172 360 169)"/>
    <path fill="#c59200" fill-rule="evenodd" stroke="#000" stroke-linecap="round" stroke-linejoin="round" d="M141 56c1-1 7-1 6 11l3 1 2 3 2-1c0-1 5 1 7-4l-4-4c1-2 0-10-10-10-5 0-6 2-6 4z" transform="matrix(1.2096 0 0 1.2172 360 169)"/>
    <path fill="none" stroke="#000" stroke-linecap="round" d="M140 58l4 2" transform="matrix(1.2096 0 0 1.2172 360 169)"/>
    <path fill-rule="evenodd" d="M532 244l-1 1-1-1 1-1 1 1z"/>
    <path fill="none" stroke="#000" stroke-linecap="round" stroke-linejoin="round" d="M154 62s-1 5 4 7m-7-7s2 0 2 2l-2 3 3 3m-11-17s9 1 8 3c0 2-2 1-2 3s4 0 4 0l1-1c1 0 1 2 3 2" transform="matrix(1.2096 0 0 1.2172 360 169)"/>
    <path fill="none" stroke="#000" stroke-linecap="round" d="M138 66l2-1M143 74s1 3-2 3" transform="matrix(1.2096 0 0 1.2172 360 169)"/>
    <path fill="#fff" d="M0 0v29l344 226h43v-29L43 0H0zm387 0v29L43 255H0v-29L344 0h43z"/>
    <path fill="#fff" d="M161 0v254h65V0h-65zM0 85v85h387V85H0z"/>
    <path fill="#c00" d="M0 102v51h387v-51H0zM174 0v254h39V0h-39zM0 254l129-84h29L29 254H0zM0 0l129 85h-29L0 19V0zm229 85L358 0h29L258 85h-29zm158 169l-129-84h29l100 65v19z"/>
</svg>
