<svg xmlns="http://www.w3.org/2000/svg" viewBox="0 0 640 480">
    <defs>
        <clipPath id="a">
            <path d="M-15-7h30V8h-30z"/>
        </clipPath>
    </defs>
    <path fill="#00247d" d="M0 0h640v480H0z"/>
    <g clip-path="url(#a)" transform="translate(320 160) scale(21.33333)">
        <circle r="20" fill="#00247d"/>
        <path stroke="#fff" stroke-width="3" d="M-20-10l40 20m-40 0l40-20"/>
        <path stroke="#cf142b" stroke-width="2" d="M-20-10l40 20m-40 0l40-20"/>
        <path fill="#fff" d="M0 0l20 10h-3L-3 0m3 0l20-10h3L3 0M0 0l-20 10h-3L-3 0m3 0l-20-10h3L3 0"/>
        <path stroke="#fff" stroke-width="5" d="M-20 0h40M0-10v20"/>
        <path stroke="#cf142b" stroke-width="3" d="M-20 0h40M0-10v20"/>
    </g>
    <path fill="#f7e017" stroke="#000" d="M410 310a60 60 0 0 0-20 30c-6 29-14 35-27 29 0 15 14 16 20 7 0 15 5 27 17 38 5 5 6 2 4-3s-3-22-7-31c7 6 18 3 17-12-9 5-19 5-20-9-1-16 5-39 16-49zm-12-114c1-6 0-12-4-16-8-7-16-4-22 1-9-4-14 12-24 10 2 5 4 7 9 6-5 4 1 10-6 16 12 3 18-3 17-14 4 4 11 4 15 0-6-2-6-7-4-12 3-7 20-7 19 9z"/>
    <path fill="#337321" stroke="#000" d="M424 279c-12 6-36 3-38-13-2-17 14-24 18-26 7-3 12 2 10 9a11 11 0 0 0 6-16c9 1 19-6 22-17-3 3-12 1-20 1 2-3 2-8 2-11-9 9-20 5-36 29l10-36a27 27 0 0 0 0-3c1-16-15-16-19-9 4 4 2 9 0 17-1 9-5 31-8 38-1-11-8-12-10-17-2 1-3 5-3 7-2-2-11 1-15-3-3 7 3 14 9 17-4 1-5 5-9 5a23 23 0 0 0 17 9c6 0 11 2 14 10 6 12 29 19 50 8z"/>
    <path fill="#f7e017" stroke="#000" d="M456 264c-8 20-27 34-36 36-15 4-46 18-54 26"/>
    <path fill="#337321" stroke="#000" d="M410 310c-11 10-17 33-16 49 0 5 2 8 3 10 1-9 7-33 24-43 13-9 34-29 42-51a18 18 0 0 0-8-10c-8 21-29 32-45 45z"/>
    <path fill="#316d3a" stroke="#000" d="M448 255c-4 6-13 14-22 18 2-3 3-5 3-8a81 81 0 0 1-43 1 58 58 0 0 0 58-17c2 2 4 4 4 6z"/>
    <path fill="#337321" stroke="#000" d="M363 305c-19 17-7 32 1 35-2 12 9 10 9 20 4-2 5-9 5-15 5 7 20 0 23 11 2-13-8-25-20-24 5-4 2-12-3-14-1 10-11 10-15 7s-7-12 0-20z"/>
    <path fill="#f7e017" stroke="#000" d="M402 413c-2 1-2 4 0 5 2 4-2 11 6 13 2 1 4-1 5-4 3-7-5-8-6-12-1-3-3-3-5-2z"/>
    <path fill="#f7e017" stroke="#000" d="M409 427c-3 1-5 3-4 12 1 3 0 12-3 12 2 1 6 2 8 0 1 2 5 2 7-2 1 2 4-1 4-3 2 1 5 0 4-6 2 1 5 0 6-2-3 0-11-4-12-8-2-3-7-4-10-3z"/>
    <path fill="none" stroke="#000" d="M368 186a31 31 0 0 1 4-5m41 37c2-1 5-2 9-1m-12 234l-1-10m7 8"/>
    <path fill="#f7e017" stroke="#000" d="M535 305c29 25 31 44 27 55-3-10-15-27-27-31v-24z"/>
    <path fill="#337321" stroke="#000" d="M483 291h54v65c0 54-31 87-62 104a114 114 0 0 1-61-104v-65h38c0 3 0 8 4 13 9-1 20-7 27-13z"/>
    <path fill="#006ec7" stroke="#000" d="M537 291v65c0 16-3 31-8 43l-54-99-54 99"/>
    <g fill="#f7e017" stroke="#000">
        <path d="M500 430l5 2a38 38 0 0 0 3-21c-3 8-14 8-17 13a35 35 0 0 1 5 3 55 55 0 0 1-17 11v-51l-1-10v-10c0-3 0-6-3-6-2 0-2 3-2 6v10l-1 10v51c-3-8-13-5-18-13a14 14 0 0 1 6 0c-4-12-14-13-16-17 1 5-2 17 2 22a13 13 0 0 1 3-3c4 9 22 9 26 23 4-5 16-11 25-20z"/>
        <path d="M475 387l22-1 2-4-2-4-21-2-22 2-2 4 2 4 21 1zm-2-21"/>
        <path d="M454 386l2-4-2-4M456 386l2-4-2-4m11 9c2 0 3-2 3-5s-1-5-3-5m3 10c2 0 3-2 3-5s-1-5-3-5m9 10c2 0 3-2 3-5s-1-5-3-5m3 10c2 0 3-3 3-5 0-3-1-5-3-5m13 9l2-4-2-4m-46 49a18 18 0 0 1 5-2m43 3l-1-1m4 3l8-13"/>
    </g>
    <g stroke="#000">
        <path fill="#fff" d="M465 337c0-2 1-2 2-3l3-1h15l2 1v21c0 1 0 2-2 2h-20v-21"/>
        <path fill="#e5e5e5" d="M482 359c2 0 1 0 3-2l1-3v-19l-1-1h-15l-3 1-2 2v21h16z"/>
        <path fill="#fff" d="M483 358l-1 1h-16l-1-1v-21l1-2h16l1 2v21z"/>
    </g>
    <path fill="#96877d" stroke="#000" d="M513 279a12 12 0 0 1 3 12h-5c2-6 1-11-7-12-12-1-26 23-48 25-6-7-6-21 2-28a87 87 0 0 0-18-30"/>
    <path d="M461 285c-1-16-8-29-17-38a25 25 0 0 0 19-3c8-5 28-14 36-10a12 12 0 0 1 0 6c-1-5-21 2-27 5-5 2-8 5-6 13-3-3-2-5-5-7a50 50 0 0 1 3 13c-1-3-4-10-8-14a78 78 0 0 1 6 37 30 30 0 0 0 13-6c-3 4-10 6-14 7-2 3-4 9-4 13 0-5 1-15 3-16zm52-6c-4-5-11-7-20-5a30 30 0 0 1 7-2l-3-16 2-1a178 178 0 0 0 5 17l4 1-5-22 4-2 6 30z"/>
    <path fill="#96877d" stroke="#000" d="M511 291c2-6 1-11-7-12-6 0-13 6-21 12h28zm-53-51"/>
    <path fill="none" stroke="#000" d="M458 276l3 11m-13-58c-3 3-4 6-5 9 4 2 12 2 15 2"/>
    <path fill="none" stroke="#000" d="M440 246l4 1a25 25 0 0 0 19-3c6-4 22-18 41-19"/>
    <path fill="none" stroke="#000" d="M435 242c6 1 18 2 24-2a80 80 0 0 1 40-16"/>
    <path fill="#337321" stroke="#000" d="M535 305c20 14 35 27 39 49 4 21 13 27 23 21-3 12-15 14-26 4 1 15-5 32-19 38-1-9 4-15 3-22-1-3-1-11 3-14-8 3-20-2-22-14 9 4 21 5 26-6 4-12 2-31-27-56zm25-111c6-17 23-15 28-8 16-9 18 11 32 7 0 4-5 8-10 7 5 5-2 12 9 17-9 4-23-1-26-14-3 6-15 6-19 1 10-2 9-11 3-15-5-3-15-2-17 4zm-48 35a87 87 0 0 0 23 37c12 10 29 8 39-2 0 20-21 21-32 15-5-3-9-1-4 3 7 7 23 12 42 16 34 7 22 33 12 33 3 0 5-3 1-7-29-26-88-15-87-73-6 15-31 9-20-9 4 3 11 3 13-2 1-3 0-10-6-15 1 0 3 0 3-3 0 2 2 4 5 3 1 2 3 3 4 2l1-2c0 3 4 4 6 4z"/>
    <path fill="#f7e017" stroke="#000" d="M542 279c14 9 29 9 44-8 4-5 11-9 16-10s5-5 9-6c-2-1-3-4-7-3 9-3 6-11 11-14-4 1-9-4-14 3 1-3-1-7-2-8 0 3-7 4-9 13 0 5-3 5-4-3 0-6-3-22-6-30s-4-19 0-21m-33 234c3 2 5 4 4 13-1 4-1 14 2 14-2 1-6 2-8 0-2 3-6 2-8-2-2 1-5-2-5-4-1 1-5-1-4-7-2 1-5-1-6-2 3-1 12-5 14-8 2-4 7-5 11-4z"/>
    <path fill="none" stroke="#000" d="M545 453l1-11m-9 9a16 16 0 0 0 5-8m-10 4c2-1 7-7 8-10m-12 3a26 26 0 0 0 12-9"/>
    <path fill="#f7e017" stroke="#000" d="M506 251c0 24 10 36 24 44-5-3-3-13-10-17 2 0 4 2 9 1-2-4-6-11-14-12l10-1c-4-6-15-3-19-15zm-2-24l-3-2c-3 1-5-1-5-3 0 3-2 3-3 3 6 5 7 12 6 15-2 5-9 5-13 2 0 10 13 13 18 1 0 2 2 2 3 4 4-5 1-13-3-20z"/>
    <path fill="#cf142b" stroke="#000" d="M487 151c0-3 4-5 9-5 6 0 10 5 15 5 5-1 3 2 2 3-1 0-2 1-2 3 1 1 0 2-2 1-4-3-8 1-14-1-5-2-8-3-8-6z"/>
    <path fill="#96877d" stroke="#000" d="M463 207a37 37 0 0 0-16-18l-1-4a53 53 0 0 0 11-8c18 9 42-3 54-16l4 3-2 2-3-1c-2 4-13 13-16 15a61 61 0 0 0 12 2c10-7 18-14 21-14l4 4-3 2-3-1a115 115 0 0 0-27 41c-7-1-31 0-36-7z"/>
    <path fill="none" stroke="#000" d="M463 204c-1-9 1-18 6-21a36 36 0 0 0 37-1"/>
    <path fill="none" stroke="#000" d="M463 200c8-1 25 1 29 1 4 1 10 3 9 5m-34-8l2-2-2-2-2 2 2 2z"/>
    <path fill="#337321" stroke="#000" d="M472 154c-3-4-10-5-12 0l-3 6c-2 1-2 4-1 6 2 3 0 6 4 9 0-3 4-6 8-7 3 0 8-4 9-7s2-6-5-7z"/>
    <path fill="#96877d" stroke="#000" d="M455 188h1v7h0l6-3 1 1-6 3a2 2 0 0 1 0 1l6 3-1 1-6-3"/>
    <path fill="#337321" stroke="#000" d="M451 215l-2-5a6 6 0 0 1 4 2v-5l5 4"/>
    <path fill="#f7e017" d="M491 152c0-1 2-3 5-3 4 0 8 3 11 3 4 0 2 1 1 1v1l-2 1-10-1-6-2z"/>
    <g stroke="#000">
        <path fill="#f7e017" d="M454 222c-3 4-7 4-8 1 0-3 3-4 2-6-1-3 1-4 2-3s5-2 7 1c1 4 3 6 2 8-1 1-4 1-5-1zm16-6c-1-2 3-5 5-3s5-2 6 1l3 7c1 2-4 3-6 2 0 1-5 2-6-2l-2-5zm24 2c0-2 4-4 6-1 1-2 5-2 5 2l1 7c0 1-3 3-5-1-3 1-5-1-5-3a17 17 0 0 0-2-4z"/>
        <path fill="#337321" d="M457 215c-1-1 3-3 5-1 3 1 6-2 7 1l3 8c-1 2-5 1-6-1 0 2-4 1-5 0-2-1-4-5-4-7zm25 1c-1-2 4-4 7-1 1-1 4-1 5 3 2 3 2 5 1 6h-4c-2 0-6 0-7-2l-2-6zm23 3c0-1 3-2 5 0 1 3 4 0 5 4a9 9 0 0 1-2 6c-1 1-7 0-7-3"/>
        <path fill="none" d="M454 222c-1-2-3-5-5-1m17 1"/>
    </g>
</svg>
