<svg xmlns="http://www.w3.org/2000/svg" viewBox="0 0 640 480">
    <path fill="#006" d="M640 480V0H0v480h640z"/>
    <path fill="#fff" d="M0 73h76L0 27V0h44l106 65V0h60v65L316 0h44v27l-76 46h76v74h-76l76 46v27h-44l-106-65v65h-60v-65L43 220H0v-27l76-46H0V73z"/>
    <path fill="#ce1126" d="M332 0L212 73h28L360 0h-28zm28 220l-120-73h29l91 56v17zM120 73L0 0v18l91 55h29zm0 74L0 220h29l120-73h-29z"/>
    <path fill="#ce1126" d="M0 89h163V0h35v89h162v43H198v88h-35v-88H0V89z"/>
    <path fill="#8fc5ff" stroke="#fff" d="M400 641c0 16-3 34-24 42-21-8-24-26-24-42h48z" transform="matrix(4.4862 0 0 4.4867 -1191 -2609)"/>
    <path fill="#366cc9" stroke="#000" d="M376 683a34 34 0 0 0 19-16h-2l-23-3c-2-1-10 1-13 2a34 34 0 0 0 19 17z" transform="matrix(4.4862 0 0 4.4867 -1191 -2609)"/>
    <path fill="#5d3100" d="M429 411h5c2 0 2 0 2-2s2-1 3 0 3 0 4-1h4l2-2 2-1 3 1 1 1c0 1 0 2 2 0 2 2 2 1 2-1l-1-9-2-6c0-5 0-5-4-7 0-1-1-2-5-2v-2-3l3-1h12l5-3c2-1 3-1 3-3l-2-11-3-9-4-7-1-2a7 7 0 0 0-3-5c-3-3-4-13-6-21-1-5 0-15-2-17l-6-2-5-11-4 4c-1 1-2 1-2 3l-3 8c-1 3-6 2-9 7-7-7-7-10-7-12s-1-2-5-6v-6c-3-3-5-2-6 0l-5 4-7 10c3 41 12 81 39 114z"/>
    <path fill="#ff0" stroke="#fff" d="M400 641l-1-18a64 64 0 0 0-23-4c-5 0-16 1-24 4v18h48z" transform="matrix(4.4862 0 0 4.4867 -1191 -2609)"/>
    <path fill="#cf6200" d="M395 298l3 7 2-4 1-4v-1l1 4c-1 6-3 7-4 11 4 8 1 11 5 19h3c2-2 3-1 6-1 3 1 4 3 4 5l1 3c1 1 2 3 1 4l1 2-1 3c-1 1 0 2 2 3 1 2 4 10 4 14s1 6 2 7c2 1 3 2 2 3s1 12 1 13l2 2c1 1 1 2 3 2h6c3 3 4 7 4 9l2 6 1-3-1-5c-2-1-2-2-2-3l1-3c0-1-1-3 1-1l3 4 1 3 1 2c1-1 2 0 1 2s1 2 2 3l2 1c0 1 2 2 2 0l-2-8-1-6-1-3-2-2-1-1-1-1h-1l-2-1-2-3-1-4-1-4-2-4c-1-1-2-2-2 0s0 4 2 4c1 1 2 1 1 2s0 2 0 3v3l-1-1a7 7 0 0 0-1-4c-1-1-1-2-2-1s-1 0-1-1v-1l1-1v-3l-4-12v-1c1 2 3 3 3 5l1 3 1-1v-3c-2-3-5-7-6-14l-3-14-2-5v-5c-1-1-2-1-2 1l1 7v4c0 1-2 3 2 5l1 3h-2l-2-3-1-3v-4l-1 1-1 4-1-1c-1-2 0-4 1-6l1-9-3-8c-3-3-6-6-7-9l-3-9a19 19 0 0 0-5-4v-5c0-2 0-2-2-2s-2 1-3 3l-3 4c-1 3-3 5-3 8z"/>
    <path fill="#cf6200" d="M403 332h3c1-1 3-2 5 0s3 5 3 7c0 3 0 8 3 10 3 3 5 6 5 9a61 61 0 0 0 1 11l2 4 2 6v6c0 1 0 3-1 2l-2-2v1l3 3 3 1c1 1 1 2 3 2h6l2 2 2 7 1 3c1 1 0 3-1 2h-1l-2-1-2-2-1-1c0 1 0 3-1 2h-3l-2-2-1-1-3-1-1-1-1-2-1-2h-1l-1-2-1-2 1-3-1-2c-1-1 0-2-2-3s-3 0-3-4l-3-13-3-3c-1 0-2 0-2-2l-2-7-3-2v-4l1-6-1-4v-6zm28-33a25 25 0 0 1-5 5c-2 2-5 3-4 6 2 2 3 3 3 5l3 4c1 0 2 0 2 3s0 5 1 6l2 5c1 3 1 10 3 14s6 13 5 14-1 3 1 5 3 5 3 7 1 2 3 2a7 7 0 0 0 3-2h4c1 1 4 2 6 1l3-2 4-6-1-2-1-4c0-2 0-4-2-7-2-4-3-8-5-9l-2-5-2-3-3-8-2-10-1-2-1-2-1-3c-1-1 0-2 1-3s0-4 0-6-1-4-4-5c-2 0-3-1-4-3l-2-6c0-1-1-1-3 1-1 1-2 2-2 5l1 3 1 5c0 3 3 7 0 10-4 3-3 3-3 5s-1 3-2 1c0-3 0-5 2-6s4-3 3-4c-2-2-2-6-2-8s-1-2-2-1z"/>
    <path fill="#00b800" d="M403 339l1 3-1 6v4c2-1 3-3 2-4a4 4 0 0 1 0-3v-3-3c1-2 0-2-2 0zm20 30l-1-11c-1-3-2-6-5-9-2-2-3-5-3-8-2-1-2 0-2 2l2 6c-1 3-1 2 1 4s2 3 1 3v2c1 1 2 2 1 3l2 2v4 2c1-1 2-1 3 1h2a10 10 0 0 1-1-1zm15 27h-2l-1-2-1-2h-1c-2 0-2-1-3-2v1l-2 1c-2 0-1-1-1-2a4 4 0 0 0 0-1l-3-3v-1l2 2c1 1 1 0 1-2a6 6 0 0 1 0-1l-1-1c-2-1-1-1-1-3l-2-1c-1 1-1 0-1-2s-1-2-2-1c0 2-1 1-1-2s-2-2-2 0-1 2-2 1l1 4c0 4 1 2 3 4l2 3 1 2-1 3 1 2 1 2h1l1-1c1-2 3 0 4 1s1 3 3 1 0-1 1 0l2 1 2 1c1 1 1 0 3-2 1-2-1-2-2 0zm5-64l1-8c2-1 3-4 3 1l-1 7c-1 1-2 1-1 3l1 5 1 6 2 4c0 1 1 4 3 5s3 5 3 7c0 3 2 3 4 5s0 3-2 2l-2 1c-1 2-1 2-2 0l-5-4-3-4a6 6 0 0 0-4-3v2c0 2-1 3 1 5s3 5 3 7 1 2 3 2a8 8 0 0 0 3-2h4c1 1 4 2 6 1l3-2 4-6-1-2-1-4c0-2 0-4-2-7l-5-9-2-5-2-3-3-8-2-9-2 1-2-2c0 2-1 0-1-1l-1-1v-4c0-2-1-2-1 1 0 2-2 4-1 5l-1 3 1 5c1 2-1 3-1 5s1 4 2 1zm-29-28c-1 0-2 1-1 5 0 2-1 1-2 0l-2-5c-2-2-1 1-1 3l2 4c1 1 0 2-1 2v4c1 2-1 2-1 0l-1-6c1-2 1-2-1-2-2-1-1-1-1-3l1-3v-1l2-2c1 0 2 0 2-2l2-2 2 8zm16 18l1 6 2 5c1 3 1 10 3 14l2 5a9 9 0 0 0 2-3l-2-5c-1-2 0-3 1-5s0-3-2-3l-2-5-1-5v-3c-2 0-1-1-1-2 1-2 1-2-1-2l-2 1v2z"/>
    <path fill="#5d3100" d="M448 329l-1 3 1 3v4l1 3 1 2a7 7 0 0 0 2 6l2 3 2 2 1 2 1 1 4 2c1 1 3 3 3 1s0-3-2-4-3-5-4-8l-4-8c-1-3 0-4-2-5a5 5 0 0 1-2-3l-1-3-1-2c0-1-1-1-1 1z"/>
    <path fill="#00d860" d="M440 412a45 45 0 0 0 11-3l6 3h-5l2 2-6-2c-3 1-6 2-8 0zm5 4l6 1c-1 1 0 2 3 2l-2 1a28 28 0 0 0 10-2c-2 3-13 6-17-2zm4 7h6-6z"/>
    <path d="M454 423c2-1 9 1 12-1-1 3-5 3-7 2l-4-1h-1z"/>
    <path fill="#00d860" d="M456 426a35 35 0 0 0 11-1l7 1c-2 2-6 1-7 0a13 13 0 0 1-11 0z"/>
    <path fill="#00d860" d="M460 427c2 1 4 0 7-1l4 1 5 2a19 19 0 0 1-9-1 22 22 0 0 0-9 2l1-3z"/>
    <path d="M456 414c2 1 10 0 13-1 2-1 3 0 1 1-6 2-11 3-14 1-2-1-2-2 0-1z"/>
    <path fill="#00d860" d="M492 404c-9 4-15 6-27 2h-1l10 3c2 0 1 1 0 1s-1 1 0 1 9-1 12 1h2l1-1 1-1v-1h-1v-1l3-1v-3z"/>
    <path d="M477 405c5 0 15-2 20-7l5 3c1 1 3 1 1 1l-6-1a34 34 0 0 1-20 5v-1z"/>
    <path fill="#00d860" d="M462 377c2 1 5 3 9 3a20 20 0 0 0 7 3l-7 3-3-1v2l8 1c2 0 2 0 0 1-3 1-9 0-11-4-2-3-4-4-10-1l-1-2-2-1c1 0 6-1 10-4z"/>
    <path fill="#00d860" d="M464 385l-5 1c-1 1-3 2-1 2l5-2 1-1zm5 6h-4l-2 1-1 1-2 1c0 1-1 0 0 0h4l4-2 1-1z"/>
    <path d="M465 394l10 3c2 0 2 1 0 1a14 14 0 0 1-11-3c-1-1 0-2 1-1z"/>
    <path fill="#00d860" d="M495 397c-5 2-10 1-12 1s-4-1-2 0c1 2 5 2 8 2-9 2-11 2-13 1h-12c-1 0-1-2 1-1 3 0 3-1 1-1s-5 0-2 2 8 0 12 1a21 21 0 0 0 19-4v-1zm-24-7v2h1l2-1h3c1 0 1 0 0 0l-3-1h-2-1zM484 392l-4-1c-1-1-2 0-1 1l6 2c1 0 1-2 3-1l4 2c1 0 2 0 0-1l-2-1 1-1 4 1 4-2v-1l-4 1h-6l1-1v-1h-7l-3-1v2l5 1h-1c0-1-2 0 0 1z"/>
    <path fill="#00d860" d="M499 390l-1 1 10 2 2-2h8l4-2c1 0 2 0 0 0l-5 1h-18z"/>
    <path d="M526 389c-4 3-8 3-13 4-1 0-1 0 0 0 6 1 12-1 14-3 0-1 0-2-1-1z"/>
    <path fill="#00d860" d="M502 395a54 54 0 0 1 8 2l2-1c0-1-1-1 2-1h8l4-1h-15l-1 1-4-1-4 1z"/>
    <path fill="#00d860" d="M522 395l4-1h5c-1 0 0-2 2-2l6 1c2 0 4 1 8-1l1 2 4 1h12c2 0 3 1 1 2l-1 1-2 1-3 1-4 1h-7l-7-1-4 1c-1 0-2 0-1-1l3-2c2 0 4 0 2-1s-2-1-3 0-3 2-5 0h-5c-2 1-4-1-6-2zm7 4l-6-1c-1 0-2 1 0 1l6 1c3 0 2-1 1-1zm-3 2h6l1 1h-6c-2 1-3 0-1-1zm-28 7c2 1 9 0 12-5l1-1c1 0 4 3 10 3 2 0 4 1 0 1l-10-2c-3 5-8 5-12 5-3 0-2-1 0-1z"/>
    <path fill="#00d860" d="M514 401l-6 3-7-1c-1 0-3 0-1 1l7 2h5l4 2h6s2 1 0 1l-6-1c2 2 4 4 6 4v2c1 0 4 1 5-1l1 1v1h-4c2 2 8 4 14 3 1 0 2-1 0-1h-5l1-1 5-1c1 0 2 0 0 0l-7-1-1-1 3-2c-3 0-8-2-6-4 1 0 1 0 0 0l-5-2v-1l-9-3zm34 0l-8 2h-1l4 1h6l5-1c1 0 3 0 0 0h-6c-1 1-4 0-2-1l3-1-1-1zm-1 4a14 14 0 0 1-7 3l6 3-3 1c1 1 4 0 6-1 4 1 8 0 10-1l-7-2 3-1-8-2z"/>
    <path fill="#00d860" d="M543 412l2-1a22 22 0 0 1-12-3c-3-2-3 0-1 1s5 4 11 3zm6 6h-8c-2-1-2 0-2 1s1 1 0 1h-5c-1 0-2 1 0 1h14c2 0 0-1-1-1l2-2zm-48-7l-11 3-6 1c1 1 4 2 5 1l-3 2 6 1a14 14 0 0 1-8 1l2 2a13 13 0 0 1-6 0l2 2h-6c1 2 5 2 10 2l10-4h-6a37 37 0 0 0 10-4 6 6 0 0 1-3-1 31 31 0 0 0 9-1 7 7 0 0 1-4-3 39 39 0 0 0 19 1c1-1 1-2-1-2-3 1-9 0-11-1a12 12 0 0 0 5 2c-3 1-7 1-14-2z"/>
    <path fill="#00d860" d="M487 418l2-2c-1 1-4 0-5-1l5-1-8-1-6-1c-1 0 0 2 4 2a15 15 0 0 1-8 1v4c2 2 9 3 12 3-3-1-4-2-2-2l5-2z"/>
    <path d="M479 426c6 0 13-1 19-6 2-1 3 0 1 1a33 33 0 0 1-18 7c-3 0-4-2-2-2z"/>
    <path fill="#00d860" d="M521 417l-6 1h-4v1h4a6 6 0 0 0-2 2l6 1a3 3 0 0 1-2 0c3 3 12 3 14 2l-2 2c3 0 6 0 9-2h-5a6 6 0 0 1 2-1h-6a4 4 0 0 1 2-2l-12-1 8-2-6-1zm-12 2l-6 2c-1 0-2 1 0 1a126 126 0 0 1 1 0c-1 0-2 0-1-1l6-2zm-4 6c1 0 4 0 5-2l6 3c2 0 2 1 1 1a12 12 0 0 1-7-2h-5zm-27 15c3 2 8 3 12 2l8 1h7l8 2h-4c-1 1-1 1 1 2-4-1-11 1-13 3a7 7 0 0 1 6-4h-10a7 7 0 0 1-2-2c-3 2-10-1-13-4zm-10-6a16 16 0 0 0 9-3h7v2a26 26 0 0 0-8 2h-7c-2 0-2-1-1-1z"/>
    <path fill="#00d860" d="M484 433a26 26 0 0 0-8 2v2a51 51 0 0 1 18-2l-7 2 10 1 1 2c0 1-2 1 0 1s6 0 8-2l-3-1a8 8 0 0 0 3-2 29 29 0 0 1-6 0v-1a8 8 0 0 0 2-2c-2 1-6 1-9-1h5a6 6 0 0 0-3-1c3-1 7-2 13 0h9c1-1 2-3 4-3-7 0-20-1-19-5-3 3-8 5-10 4l1 3-8 1 4 2h-5z"/>
    <path fill="#00d860" d="M498 441c2 0 6 0 8-2l-3-1a8 8 0 0 0 3-2h11l9-1-6 2 2 1c-2 0-4 2-5 3-2-1-4 1-4 1-1 0-5 0-7 2-2-1-4-2-7-1 2 0 2-2-1-2zm23-14l6 1a8 8 0 0 0-2 1h11c-2-1-4 1-5 1l1 1c2 0 3 2 0 1h-8c-1 0-2 0 0-1l3-1h-4s-2 0-1-1 1 0 0 0l-5 2 4-3z"/>
    <path d="M503 430a10 10 0 0 0 8 4s2 1 0 1c-5 0-7-1-10-4 0-1 1-2 2-1zm29-41c3 2 8 3 12 2 0 1 2 1 0 1a21 21 0 0 1-12-2v-1z"/>
    <path fill="#00d860" d="M535 389l8 1h7c1 1 2-1 0-1l-9-1-8 1h2zm15 2l9-1c-1 2 4 2 8 1l-7 1h-3c-1-1-5-2-7-1z"/>
    <path fill="#00d860" d="M567 391c-4 1-9 1-8-1l-9 1c2-1 3 0 5-3h3l4 1c1 1 2 0 1-1h5l4-1a28 28 0 0 1-5 4z"/>
    <path fill="#ff0" d="M484 371l-1-100c0-4-2-3-2 0v99l3 1zm33-105l3 105v1h-3l-2-106h2zm30 89l-2-85c0-3-2-3-2 0l2 85h2z"/>
    <path fill="#fff" d="M499 284l-32-1c-1 6 6 6 9 5 4 2 6 2 8 0 3 2 7 1 8 0 3 3 8 0 7-5zm2 15h-32c-5 5 2 8 8 4 1 2 5 3 7 2 3 1 7 0 8-2 3 2 8 2 9-4zm-1 20h-31c0 5 6 5 9 3 2 4 7 3 9 1 3 2 6 1 7 0 3 2 6-1 6-4zm2 20l-35-1c-2 6 4 7 6 6 1 3 5 2 7 0 2 1 4 0 5-1 0 3 4 3 7 1 7 4 12-1 9-5zm30-8h-28c1 5 4 6 8 3 4 4 9 3 10 1 7 5 10-1 10-5zm-3-20l-28-1c1 7 7 7 11 4 2 3 7 2 9 0 3 4 9 1 8-3zm4-22h-30c0 5 7 8 12 3 1 6 6 4 9 2 3 4 11-1 9-5zm-2-15l-27 1c0 4 6 6 9 2 1 3 5 2 7 0 1 3 4 1 5 0 3 3 6 1 6-3zm31 10h-32c0 3 3 4 5 3 0 3 4 4 8 2 1 3 7 3 9 0 5 4 10 0 9-5zm-1 26h-31c0 5 5 6 8 4 1 4 5 4 7 2 3 3 7 3 10 0 4 1 7-2 6-6zm-1 24h-26c0 5 6 5 8 3 3 3 6 3 9 0 3 3 8 2 9-3z"/>
    <path d="M520 372l-37-1c-9-1-12-3-19-7l-25-15c-2-1-5 1-1 2l25 17c6 4 11 8 15 13 5 6 9 6 12 5s6-2 10-1l12 1c2 2 8 2 11 1l7-1h8l12-1h11a22 22 0 0 1 9 0c3-2 4-4 5-6l4-3 3-7v-2l-1-3 1-5h2l-1-5-40 1a9 9 0 0 0-2 5l-12 2c-1 0-3 0-4 2l-5 8z"/>
    <path d="M567 354l6-22c1-2-2-2-3 0l-5 22h2z"/>
    <path fill="#fff" d="M590 330c-5 2-8 3-10 2h-7a2213 2213 0 0 1-5 18h11c2-2 6-2 8-2 2-2 2-4 2-5v-4c0-1 2-7 1-9z"/>
    <path fill="none" d="M477 288a239 239 0 0 1-36 62m9 6a244 245 0 0 0 51-57m-32 20l-6 44m11-18l-15 16m57-40c-3 4-8 8-12 9m14-8a31 31 0 0 0 12 9m-14-28a38 38 0 0 1-13 7m15-7l10 8m-24-22a31 31 0 0 0 12-7m1 0c3 3 9 7 12 7m-25-14a18 18 0 0 0 11-7m2-1c3 3 9 7 12 7m14 4c-2 2-7 6-10 6m12-6c2 2 5 6 7 6m-21 26a32 32 0 0 0 12-8m3 0a25 25 0 0 0 8 8m-18 24c2 0 7-3 8-6m3-1a31 31 0 0 0 9 7m-84 4c6-1 17-9 23-15m-11 8c4 3 10 7 14 8m-28-20a36 36 0 0 0 11-7m2-1c2 2 11 8 15 8m-17-26a44 44 0 0 1-11 6m13-6c3 2 10 6 14 6m-16-24c-3 2-7 7-11 8m13-8c2 3 8 8 11 8m36 12c9 15 24 33 39 43m-63-60c12 18 37 57 60 72m4-16a83 83 0 0 1-22 21m21-16c-8-12-12-28-18-49m-63 55l9 27m-11-27l9 27m-11-28l8 28m-9-28l6 28m0-1h8m-1-3h-7m6-2h-7m6-3h-7m6-2h-6m-1-2h6m-6-2h6m-6-3h5m-6-1h5m-5-3h4m-5-1h5m-5-2h4m-4-2h4m-12 0l-5 23m7-23l-5 24m6-24l-4 24m6-25l-3 26m3-2h-9m9-2h-10m10-3h-9m9-2h-9m9-2h-8m8-3h-8m8-2h-8m8-2h-7m7-2h-6m6-3h-6m6-1h-5m4 25v-27m29-9l-18 37m20-37l-16 37m17-38l-12 38m13-37l-10 37m1-1h-12m12-4h-10m11-3h-9m11-2h-9m9-3h-8m9-3h-8m9-3h-7m7-2h-6m7-3h-6m7-2h-6m6-1h-6m6-2h-5m5-2h-4m4-1h-3m4-2h-4m4-1h-3m15-1l8 25m-6-24l9 24m-8-24l11 23m3-2l-13-22m13 23h-9m8-4h-9m8-3h-9m7-3h-8m6-3h-7m5-3h-6m5-3h-6m4-3h-4m14 1l-8 23m10-24l-7 24m3-1l5-22m2 1l-5 21m-7-1h7m-6-3h7m-7-3h8m-6-3h7m-6-3h6m-5-3h5m-4-3h5m-4-3h4m4 1l4 16m-2-17l5 16m-3-16l5 16m-3-15l6 15m-1-1h-7m6-2h-7m6-2h-6m5-3h-6m5-2h-6m5-3h-6m5-2h-5"/>
    <path fill="#00b800" d="M480 380c3-2 9-2 13 1 3-2 10-2 13 1 5-3 9-4 14 0a12 12 0 0 1 13 0c5-2 9-4 13 0a11 11 0 0 0-13 1c-4-4-11-2-13 0a9 9 0 0 0-14 1c-4-4-10-4-13-1a15 15 0 0 0-13-3z"/>
    <path fill="#cf6200" d="M543 375a268 268 0 0 1-67-2c10 2 32 2 44 2l7-10 4-2 10-2v1l-1 1 1 10h1l1 2zM574 376h2c1 0 2 0 2-2l3-7-2-3 1-6 2-1v-2l-36 1c-1 0-2 0-2 2a27 27 0 0 0 9 26v-1a30 30 0 0 1-5-6h6l2 7 1-1-1-6h6v6h1v-6l5-1v6c0 1 0 2 0 0l1-6h4l-2 6h1a35 35 0 0 0 2-6z"/>
    <path d="M547 375l-3-9h8l2 9h-7zm7-9l1 9h7l-1-9h-7zm-9-8a38 38 0 0 0 0 7l7-1v-6h-7zm8 0l1 6h7v-7l-8 1zm9-1l1 7h6v-7h-7zm9 0l-1 7h7l2-7h-8zm7 8l-8 1v9l7-1a62 62 0 0 0 2-6l-1-3zm-15 1v9h5l1-10-6 1zm-31-2h-3a225 225 0 0 1-8 10h11v-10zm1 0v10h7l-1-11-6 1zM502 339h-35v-1h35zm27-28l-27-1c-1 0-1 0 0 0h27zm-29 8h-31 31zm1-20h-32 32zm-2-16v1h-31v-1h31z"/>
    <path fill="#fff" d="M531 274l-27 1 27-1z"/>
    <path d="M532 289c1 0 1 0 0 0h-29 29zm29 21h-31c-1 0-1 0 0 0h31zm0-26c1 0 1 0 0 0h-31c-1 0-1 0 0 0h32zm-29 46v1h-29v-1h29zm28 4h-26 26z"/>
    <path fill="#ef072d" d="M582 339a13 13 0 0 0 0-7 5 5 0 0 1-2 0 13 13 0 0 0-2 0l-1 8-6-1-2 5a16 16 0 0 0 7 0c0 2 0 5-2 6l5-1c2-2 2-4 2-6h2l3-1 3-1v-2l1-2-8 2z"/>
    <path d="M471 187l-13 1c-2 1-2 1 1 2l10 3c3 2 4 5 4 9a27 27 0 0 0 14 29v2l-1 5 1 2a90 90 0 0 1-5 7c-7-1-13 0-13 8 0 1 0 2 1 0s3-4 6-5l-3 8c0 1 1 2 2 0l4-5v1c-1 1 1 4 2 5s1 0 1-1c0-2 0-5 2-6 2-2 5-1 6 1s2 0 1-2-3-4-5-4l5-7c0-1 1-2 2-1l1-1 3-6 3-1 4 6v3l-2 7c-5 0-8 0-10 3-1 2 1 2 2 2a9 9 0 0 1 5-2v2c-4 1-6 3-6 6 0 1 1 2 2 0s3-4 5-4c0 2 1 6 3 7 1 1 1 0 1-2-1-2 0-4 1-5 2-3 8 0 9 1s2 2 1-1-5-5-9-5l5-19c2 1 5-3 8-1 7 3 16 8 17 10h7c1 0 2 1 0-2a32 32 0 0 0-10-12l8-1-8-2a15 15 0 0 0 7-4c1-1 0-1-3-1-10 0-15 0-20-3-8-4-13-10-17-12l-4-6c-2-7-2-10-8-12s-14 0-17 3z"/>
    <path fill="#fff" d="M472 189h-8s-1 0 0 0l7 2v1h-1c4 4 5 5 4 17l3 2c1 0 0 1 0 0s-3 0-1 1l1 1c-1 0-3 1 0 1 2 0 3 0 0 1-3 0-2 1 0 1 3 0 2 1 1 1s-1 1 1 1h3s1 0 0 0v1h1v1c3 0 4 1 3 2s-1 0 0 0 3 1 1 1v1l2 1c-1 0-2 1 0 1s2 1 1 1h-3-1v-1c-1-2-2-2-2 0s-1 0-2 0a15 15 0 0 0 18 3l2 2 2 5 2-1 2-8c0-1 2-2 2 1h11a55 55 0 0 1 12 7 3 3 0 0 0 2 1c2 0 2 0 0-3s-1-3 0-2 2 1 1-1l-5-4-2-1h-7c-1 0-2 0 1 1l9 6a120 120 0 0 0-17-8c-12 1-22 2-29-5-4-5-4-13 2-17v-4l-2-2c-1 0-2-3-4-2s-3 0-4 0l-2-1-3-1h3c3 1 6 2 8-1s-1-5-4-6c-4-1-7 3-9 4z"/>
    <path fill="#fff" d="M491 188a13 13 0 0 0-4-3l-1 1v4c-1 1 0 4 1 3h1l1 2v1h1v2l1 1 2 3-2 1-2 1v1l1 1-4 1 1 2 4-2h2c1 1 0 3-1 2s-2 0-2 0l-3 1-1 2c0 7 5 11 14 11h15l-6-3h-1l-1-1h-2l-5 2s-2 0 0-1l4-1v-1s0-2 1-1l8 4c1 0 2-1 1-2l-1-1h2l6 2c1 0 2 1 0-1l-10-7c-2-2-2 0-1 1s-2 1-2 0-2-1 0-2 0-1-1-2h-2c1 1 1 2-1 2s-2-1-1-2 2-1 0-3-1 0-1 1h-2l-1-1h1c1 1 2 0 0-2s-1-1-1 0-1 2-3 0v-2-1c-3-5-1-9-5-13z"/>
    <path fill="#cf6200" d="M492 188l-1 1v2l2-1a10 10 0 0 0-1-2zm-4-2l-1 1v1h2c1 0 0-1 0 0h2l-3-2zm-2 5c-1 0 0 3 1 2l1 1a5 5 0 0 0 2-1c1-1 0-1-1-1s-2 0-1-1c2-1 1-2-1-2l-1 2zm7 6c-1-1 0-1 1-1a1 1 0 0 0 0-1l-1-3-1 2-1 1-1 1v1c2 0 3 2 3 3h1c1-1 0-2-1-3z"/>
    <path fill="#ff0" d="M494 210h-2l-3 1-3 2 1 2 1 1c-1 0-1 1 1 2h3v3l3 2h7v-1l-3-1v-3c1-1 2-1 1-3l-3-3c-1 0 0-3-2-3l-1 1z"/>
    <path fill="#cf6200" d="M486 222l2 1-1 1 2 1c-1 0-2 1 0 1s2 1 1 1h-3l-1-1-2-1-1 1 3 3h3l4 1c1 1 1-1 1-2h-1c-1 1-1 0-1-1v-1l-1-1c0-1 0-1 0 0l-1-2h-1l-1-1h-3 1z"/>
    <path fill="#ff0" d="M500 230c-6 2-11 1-14-1h4l3 1c1 1 2-1 1-2l3 2h3zm-13-30c-1-1-1-2-2-1l-2-1-2 2c0 2 0 2-2 3l-1 2c0 2-1 2-2 3l-1 2 1 1c1 0 1 1 0 0s-1 1 0 1 2 1 1 1c-2 0-3 1-1 1 3-1 4 1 1 1s-2 1 0 1c3 0 2 1 1 1h1v-1l2-4 2-3 2-5 2-4z"/>
    <path fill="#cf6200" d="M484 200c-1-1-2 0-2 1l-1 2a4 4 0 0 0-2 3l-1 3v3c1 1 2 0 2-1l1-1 2-3v-2l2-2 1-2-2-1z"/>
    <path d="M484 199v0zm0 2v1c1 0 2-1 0-1zm-1 2v1c1 0 2-2 0-1zm-2 2h1c1-1 1-2-1-1z"/>
    <path d="M480 205c-1 1 0 2 1 1s1-2-1-1zm1 1c-1 1-1 2 1 1s1-2-1-1zM479 207h0zm1 1h0z"/>
    <path d="M479 209h1c1-1 1-2-1-1z"/>
    <path d="M479 210h1c1-1 1-2-1-1z"/>
    <path fill="#cf6200" d="M479 219l-1 2 1 1 2 2c1 0 2-1 1-2l-2-1-1-2z"/>
    <path fill="#ff0" d="M507 213h3s-1-3 1-1l10 7c2 2 1 2 0 1l-6-2h-2l1 1-4-1-3-4v-1z"/>
    <path fill="#00d860" d="M565 404c-2 1-4 2-2 5a142 142 0 0 0 15-22v-1a21 21 0 0 1-5 3c1 2-3 5-4 5l-1 4-3 1c-2 0-2 1-2 2l2-1v2l-2 1c1-1 3 0 2 1z"/>
    <path d="M496 210h-2l-1 3h-5c-1 0-2 1 0 1l7-1c1 0 2-1 0-3zm3 3h-1c1 1-1 1-2 1l-6 2c-2 0-2 2 1 2l7-3 1-1v-1zm1 4l-4 2c-1 0-2 1 0 1l5-2 2-1s2-1 0-2-3 0-3 0v2zM482 188c-3-2-6 2-3 4s6-3 3-5z"/>
    <path fill="#fff" d="M479 189l2 2c-1 1-3 0-2-2zm11 43h5l-2 3v-1c0-1-1-2-2 0l-1 2v-1-3z"/>
    <path fill="none" d="M602 266c0 73-11 152-107 190-94-38-106-117-106-190h213zm0 0l-1-78a285 285 0 0 0-106-19c-23 0-70 3-105 19l-1 78h213z"/>
</svg>
