<svg xmlns="http://www.w3.org/2000/svg" viewBox="0 0 640 480">
    <defs>
        <clipPath id="a">
            <path d="M-85 0h682v512H-85z"/>
        </clipPath>
    </defs>
    <g clip-path="url(#a)" transform="translate(80) scale(.9375)">
        <path fill="#3e5eb9" fill-rule="evenodd" d="M-128 0h768v512h-768z"/>
        <path fill="#ffd900" fill-rule="evenodd" d="M-128 91h768v330h-768z"/>
        <path fill="#b10c0c" fill-rule="evenodd" d="M-128 128h768v256h-768z"/>
        <rect width="622" height="11" x="-51" y="251" fill="#ffd900" fill-rule="evenodd" stroke="#000" stroke-width="2" rx="6" ry="6"/>
        <g stroke="#000" transform="translate(-757 -26) scale(1.0321)">
            <path fill="#fff" fill-rule="evenodd" stroke-width="4" d="M-106 266l-89 35 89 36 88-36-88-35z" transform="matrix(.34 0 0 .3 1257 136)"/>
            <rect width="443" height="7" x="762" y="223" fill="#ffd900" fill-rule="evenodd" rx="4" ry="4"/>
            <path fill="none" stroke-width="3" d="M1224 280c-3 0-7-4-7-7s4-7 7-7" transform="matrix(-.50001 0 0 .5 1806 90)"/>
            <path fill="none" stroke-width="3" d="M1224 280c-3 0-7-4-7-7s4-7 7-7" transform="matrix(-.50001 0 0 .5 1803 90)"/>
            <path fill="none" stroke-width="3" d="M1224 280c-3 0-7-4-7-7s4-7 7-7" transform="matrix(-.50001 0 0 .5 1799 90)"/>
        </g>
        <g stroke="#000" transform="translate(-786 -4) scale(1.0321)">
            <path fill="#fff" fill-rule="evenodd" stroke-width="4" d="M-106 266l-89 35 89 36 88-36-88-35z" transform="matrix(.34 0 0 .3 1257 136)"/>
            <rect width="443" height="7" x="762" y="223" fill="#ffd900" fill-rule="evenodd" rx="4" ry="4"/>
            <path fill="none" stroke-width="3" d="M1224 280c-3 0-7-4-7-7s4-7 7-7" transform="matrix(-.50001 0 0 .5 1806 90)"/>
            <path fill="none" stroke-width="3" d="M1224 280c-3 0-7-4-7-7s4-7 7-7" transform="matrix(-.50001 0 0 .5 1803 90)"/>
            <path fill="none" stroke-width="3" d="M1224 280c-3 0-7-4-7-7s4-7 7-7" transform="matrix(-.50001 0 0 .5 1799 90)"/>
        </g>
        <g fill-rule="evenodd">
            <path fill="#3d5da7" stroke="#000" d="M338 0c-5 12 4-4 28 16 5 4 9 14 9 21l-4-4c-1 2 2 13 3 17-4-2-4-4-5-7 0 4-1 15 1 19-3-1-3-4-4-4 1 5-1 10-1 15l-4-5-4 12-2-4c-1 3-8 14-8 17-5-5-18-19-20-27-1 5-3 6-8 9-1-12-8-25-4-35a84 84 0 0 0-7 6 68 68 0 0 1 30-46z" transform="matrix(.9944 0 0 .77118 190 252)"/>
            <path fill="#a70000" d="M506 299l6-9c2-5 3-9 5-9 2 1 2 3-1 8s-4 6-10 10zm15 11l1-7c0-4-2-7 0-7s3 1 3 5 0 5-4 9zm12 7l-1-10c-1-6-3-9-1-10 2 0 3 1 4 7s0 7-2 13zm12-34l-6-4c-3-2-5-5-6-4s0 3 3 5c4 2 5 3 9 3zm-2 16l-4-6c-1-4-1-7-3-6s-2 3 0 6 3 4 7 6z"/>
        </g>
        <g fill-rule="evenodd">
            <path fill="#3d5da7" stroke="#000" d="M330 21c-1-3 0-3-2-5 3 1 3 3 5 1 1 0 2 0 1-3l13 4c4 0 11-5 16 1 4 5 3 10 3 17l-3-4v24l-2-2c-2 6-4 7-4 14l-1-4c-2 5-15 9-10 13-4-2-6-2-8-5l-3 4c-8-4-5-13-11-18l-2 5-3-12-3 4c-1-6-3-8-2-12l-3 3c2-17 12-29 19-25z" transform="matrix(1.1372 0 0 1.0495 -399 239)"/>
            <path fill="#a70000" d="M-36 290l6-11c3-7 3-12 5-11 3 1 3 3 0 10a25 25 0 0 1-11 12zm9 14l3-10c1-6 1-10 3-10s2 2 1 8c-2 6-2 7-7 12zm11 10l1-10c0-6-1-10 1-10s3 2 2 8c0 6-1 7-4 12zm22-32c-4-5-7-5-10-8-4-5-7-10-9-8-1 2 0 4 5 9 5 4 7 5 14 7zm-2 16l-7-8c-3-5-4-9-6-8s-1 3 2 8 5 6 11 8z"/>
        </g>
        <g fill-rule="evenodd">
            <path fill="#fff" stroke="#000" stroke-width="2" d="M638 230c-53 59-124 178-266 178-124 0-213-119-266-178 53-59 142-177 266-177 142 0 213 118 266 177z" transform="matrix(.68807 0 0 .61926 0 113)"/>
            <path d="M243 184c10 11 2 16 12 17 11 0 5 11 14 12 6 0-1 25 6 34 6 8 11 2 11 9 0 6-17 5-17 26-1 11-15 12-15 20-1 7 27 11 27 17-1 6-31 5-32 12s41 12 45 31c-6 2-24 4-38 4-85 0-146-73-183-110 37-37 98-110 183-110 0 0-25 23-13 39z"/>
            <path fill="#fff" d="M141 217h9v29h-9zm0 49h9v29h-9zm18-49h9v29h-9zm0 49h9v29h-9zm18-49h9v29h-9zm0 49h9v29h-9zm18-49h9v29h-9zm0 49h9v29h-9zm17-49h9v29h-9zm0 49h9v29h-9zm18-49h9v29h-9zm0 49h9v29h-9z"/>
            <path d="M276 217h8v29h-9zm0 49h8v29h-9zm17-49h9v29h-9zm0 49h9v29h-9zm18-49h9v29h-9zm0 49h9v29h-9zm18-49h9v29h-9zm0 49h9v29h-9zm17-49h9v29h-9zm0 49h9v29h-9zm18-49h9v29h-9zm0 49h9v29h-9z"/>
        </g>
        <g fill-rule="evenodd">
            <path fill="#3d5da7" stroke="#000" d="M338 0c-5 12 10-4 34 16a51 51 0 0 1 11 27l-15-7c1 0 11 12 11 26-4-3-5-2-7-6 0 5 4 8 4 15a50 50 0 0 0-8-6c4 7-6 21-1 26-9-2-18-8-21-15-2 1-2 3-3 6 1 0-13-12-12-16l-2 8a44 44 0 0 1-11-19l-5 6c-2-11-2-11 2-21a84 84 0 0 0-7 6 68 68 0 0 1 30-46z" transform="matrix(.9094 0 0 .78749 -111 166)"/>
            <path fill="#a70000" d="M184 214l3-14c1-8 0-13 3-13s4 3 2 11c-1 7-2 9-8 16zm15 12v-12c-1-6-3-11-1-11 3 0 4 2 4 8 0 7 0 9-4 15zm22 10l-6-9c-3-6-4-11-6-10s-2 3 1 9c3 5 5 6 11 10zm7-44l-13-5c-7-4-11-8-12-6-2 2 0 5 7 8s10 3 18 3zm2 18l-9-6c-5-4-8-8-10-7-1 2 0 4 5 8s7 4 15 5z"/>
        </g>
    </g>
</svg>
