<svg xmlns="http://www.w3.org/2000/svg" viewBox="0 0 640 480">
    <path fill="#006" d="M640 480V0H0v480h640z"/>
    <path fill="#006" fill-rule="evenodd" d="M0 0h374v232H0z"/>
    <path fill="#fff" d="M0 0v26l332 206h42v-26L42 0H0zm374 0v26L42 232H0v-26L332 0h42z"/>
    <path fill="#fff" d="M156 0v232h62V0h-62zM0 77v78h374V77H0z"/>
    <path fill="#c00" d="M0 93v46h374V93H0zM168 0v232h37V0h-37zM0 232l125-77h27L28 232H0zM0 0l125 77H97L0 17V0zm221 77L346 0h28L249 77h-28zm153 155l-125-77h28l97 60v17z"/>
    <path fill="#fff" d="M613 212v80c0 66-26 126-103 162-76-36-102-96-102-162v-79h205z"/>
    <path fill="#fdc300" d="M606 221v74c0 61-24 117-96 151-71-34-95-90-95-151v-74h191z"/>
    <g stroke="none" stroke-width="0">
        <path fill="#ff9e3d" d="M466 253a8 8 0 0 0-5-2c0-5-3-7-6-7-3-2-4-3-4-5s-2-3-4-4c-2 0-5-3-5-4-1-1-2-1-2 1s-4 6-1 6c-2 1-3 3-2 5l-1 3 3 2c-2 0-2 3 1 4 0 0-1 2 1 2-2 0-4 3-7 3-2 0-3 1-3 2l-3 3h4c1 0 3-2 4 0h5c-3 2-4 4-5 7 0 2-2 4-3 5-2 1-4 2-5 5 2 5 5 6 8 8 6 2 9 4 12 7 2 2 3 0 6 5 4 4 7 13 11 14 3 1 7 1 10-4 2-4 4-49-9-56z"/>
        <path fill="#ff927f" d="M472 235c-4 4-8 7-7 13s2 16-4 19c-6 4-9 13-2 18s8 11 8 17c1 6 5 10 9 7 5 0 7-2 7-6s0-5 4-6c3-1 4-3 6-6l2-6a14 14 0 0 1-1-9c1-2-1-3-2-5a7 7 0 0 1 0-6c0-2-1-4-3-5l-2-4c0-2-1-3-3-5s-3-3-3-5-5-9-9-11z"/>
        <path fill="#ff9ee1" d="M473 310c8-2 7-15 6-20s-4-13-2-19c3-8-4-16-2-20 2-3 2-5 1-6 0-1-2-1-2 1s0 3-2 4-1 5 0 8 4 8 0 15-2 9-1 12c3 6 7 22 2 25z"/>
        <path fill="none" d="M439 238l2 1m-4 4l5-1m-3 6c1 0 3 0 5-2m-4 6c2 0 4-1 5-3m-4 5h6m-6 8c2-1 6-2 7-4m-3-21c3 1 2 3 4 4s0 4 2 4c2 1 2 1 1 4 0 2 2 2 1 4m8-2c-1 0-5 0-6 4m-19 30l3-1 2-2 3-1c0-1 2 0 3-3 2-2 2-5 5-6"/>
    </g>
    <g stroke="none" stroke-width="0">
        <path fill="#00a728" d="M528 335c1 2 0 4 2 5 3 1 0 4 3 5s0 4 3 6c3 1 0 4 3 6 4 2-1 6 2 7 3 2-1 6 3 7 2 2-2 5 1 7s-1 6 2 8-1 4 1 7c3 2-1 4 1 8 1 2-1 10-7 10-2 3-11 7-14 5-3 3-13 6-18 1-5 5-15 2-18 0-3 1-11-3-13-6-7 0-9-8-7-11 1-3-2-5 0-7 3-3-2-6 2-7s-1-6 2-8-2-5 1-7c3-1 0-5 2-7 3-1-1-5 2-7 4-2 0-5 4-6 2-1 0-5 2-6 3-1 1-4 4-5 2-1 1-3 2-5 6 2 26 4 35 0z"/>
        <path fill="#fdc300" d="M495 346v4c-2 2 0 3-2 6s1 5-2 7c-2 3 1 5-2 7-2 3 1 5-2 7-2 3 1 5-2 8-2 2 1 5-2 8-2 3 0 5-2 7s0 4-1 6c2-2 2-5 4-6 2-2 0-4 1-5s0-6 2-8 0-7 2-8 0-6 3-8 0-5 1-7c2-2 0-5 2-8 2-2 0-4 1-6 1-1 1-7-1-4zm7 3c-2 3 1 4-1 6s1 6-1 8 1 5-1 7c-2 3 1 5-1 7s1 4-1 7 1 5-1 7c-1 2 1 5-1 7s2 5-1 7 1 4 0 6c2 0 1-4 2-5l1-7c2-1-1-5 0-7 3-3 1-5 2-7 2-3 0-5 1-7 2-3-1-5 1-7 2-3 0-5 1-7 2-2 0-5 0-7 1-1 2-7 0-8zm8 3v16c-1 4 2 6 0 11s1 5 0 9c-1 5 2 8 0 11-2 4 3 5 0 8 0 2 0 7 2 1 2-5-1-6 0-8 2-2 0-7 1-11 0-3-2-7 0-10 1-4-3-7-1-10 1-3-1-6 1-8 1-3-2-6-1-7s-1-6-2-2z"/>
        <path fill="#ef072d" d="M527 337c0-24-4-33-17-33s-16 9-16 33h33z"/>
        <path fill="none" d="M499 336c-3 2 0 3-2 7-3 2 0 4-2 7s0 3-2 6 1 5-2 7c-2 3 1 5-2 7-2 3 1 5-2 7-2 3 1 5-2 8-2 2 1 5-2 8-2 3 0 5-2 7s0 4-1 6c-2 1-2 4-1 5m24-75c-2 3 1 4 0 7-2 2 0 3-1 6s1 4-1 6 1 6-1 8 1 5-1 7c-2 3 1 5-1 7s1 4-1 7 1 5-1 7c-1 2 1 5-1 7s2 5-1 7 1 4 0 6c-2 2-3 5-2 5m18-77c-1 5 2 9 0 13s1 5 0 8v8c-1 4 2 6 0 11s1 5 0 9c-1 5 3 8 0 11-2 4 2 5 0 8v10m12-81c2 2-1 3 2 7 2 2 0 4 2 7s-1 3 1 6 0 5 2 7c3 3 0 5 2 7 3 3 0 5 2 7 3 3 0 5 2 8 3 2 0 5 2 8 3 3 0 5 2 7s0 4 2 6c1 1 2 4 1 5m-25-75c2 3-1 4 1 7 2 2-1 3 1 6 1 3-1 4 1 6s-1 6 1 8-1 5 1 7c2 3-1 5 0 7 2 2-1 4 1 7 3 3-1 5 1 7s0 5 1 7-1 5 1 7 0 4 1 6l1 5"/>
        <path d="M494 337c0-24 4-33 16-33-6 0-9 5-10 8s-1 3 1 2 0 1 0 2c-2 2-3 6-1 4 1-1 3 1 1 3s-3 8-2 6c2-2 2 1 1 3v6h-6zm30-1c0-19-2-25-7-27-3-1-3-1-2 1s2 4 0 2-1-2-2-1l3 8c1 2 0 4-1 1s-2 0 0 2c2 3 1 12 1 15l8-1z"/>
        <path fill="#ef072d" d="M510 341l15-2c4-2 4-3 3-5s-4-1-6 0a44 44 0 0 1-23 0c-3-1-5-2-6 0-2 2-2 3 3 5l14 2z"/>
    </g>
    <g fill="#b95a1e" fill-rule="evenodd">
        <path stroke="#000" stroke-width="6" d="M779 913v179c0 75 20 105 55 103 34-1 41-58 34-92-6-33-53-199-53-199l-36 9z" transform="matrix(.053 -.03423 .03246 .0559 489 284)"/>
        <path stroke="#000" stroke-width="6" d="M779 913v179c0 75 20 105 55 103 34-1 41-58 34-92-6-33-53-199-53-199l-36 9z" transform="matrix(.0608 -.01361 .0129 .06412 500 261)"/>
        <path stroke="#000" stroke-width="6" d="M779 913v179c0 75 20 105 55 103 34-1 41-58 34-92-6-33-53-199-53-199l-36 9z" transform="matrix(.06216 0 0 .06555 509 249)"/>
        <path stroke="#000" stroke-width="8" d="M780 255c159-1 177-35 177-35s35-71 17-89c-17-18-194-18-194-18v142z" transform="matrix(.03857 0 0 .06555 528 292)"/>
        <path stroke="#000" stroke-width="6" d="M780 255c106 0 124-35 124-35s35-71 17-89c-17-18-142-18-142-18v142z" transform="matrix(.06216 0 0 .06555 509 288)"/>
        <path stroke="#000" stroke-width="6" d="M780 255c88 0 141-35 141-35s36-71 18-89-159-18-159-18v142z" transform="matrix(.06216 0 0 .06555 509 283)"/>
        <path stroke="#000" stroke-width="6" d="M833 113s71-88 195-177c124-88 213-156 230-141 0 17-106 106-195 177S868 149 868 149l-35-36z" transform="matrix(.07714 0 0 .06555 497 250)"/>
        <path stroke="#000" stroke-width="6" d="M833 113s70-52 204-124c132-64 319-53 319-35-18 18-177 18-283 71-102 51-205 124-205 124l-35-36z" transform="matrix(.07714 0 0 .06555 498 254)"/>
        <path stroke="#000" stroke-width="6" d="M833 113s61-35 204-88c142-53 330-18 330 0-18 18-170 7-277 35-110 28-222 89-222 89l-35-36z" transform="matrix(.07714 0 0 .06555 498 262)"/>
        <path stroke="#000" stroke-width="6" d="M833 113s71-71 222-88c152-18 276 88 276 106-17 18-159-78-265-64a434 434 0 0 0-198 82l-35-36z" transform="matrix(.07714 0 0 .06555 498 270)"/>
        <path stroke="#000" stroke-width="6" d="M780 255c159-1 159-45 159-45s35-71 18-89c-18-18-177-8-177-8v142z" transform="matrix(.06216 0 0 .06555 509 277)"/>
        <path stroke="#000" stroke-width="6" d="M780 255c159-1 177-35 177-35s35-71 17-89c-17-18-194-18-194-18v142z" transform="matrix(.06216 0 0 .06555 509 273)"/>
        <path stroke="#000" stroke-width="6" d="M780 255c159-1 195-35 195-35s35-71 17-89-212-18-212-18v142z" transform="matrix(.06216 0 0 .06555 509 267)"/>
        <path stroke="#000" stroke-width="6" d="M780 255c159-1 212-35 212-35s18-71 0-89-212-18-212-18v142z" transform="matrix(.06216 0 0 .06555 509 261)"/>
        <path stroke="#000" stroke-width="6" d="M833 113S947 25 947-46s-51-142-65-177c29 0 93 106 93 177 0 77-107 195-107 195l-35-36z" transform="matrix(.07714 0 0 .06555 496 245)"/>
        <path stroke="#000" stroke-width="6" d="M833 113s-15-53-15-159a355 355 0 0 1 86-230c6 27-57 124-57 230 0 78 21 195 21 195l-35-35z" transform="matrix(.07714 0 0 .06555 496 245)"/>
        <path stroke="#000" stroke-width="6" d="M780 255c159-1 212-35 212-35s0-71-18-89c-17-18-195-18-195-18v142z" transform="matrix(.06216 0 0 .06555 509 255)"/>
        <path stroke="#000" stroke-width="6" d="M780 255c159-1 195-35 195-35s0-71-18-89-177-18-177-18v142z" transform="matrix(.06216 0 0 .06555 509 249)"/>
        <path stroke="#fdc301" stroke-width="16" d="M319 1318c55-122 71-337 71-372 0-100-33-585-36-780s124-301 248-301c107 0 177 71 177 177h-53A121 121 0 0 0 602-82C496-82 414 2 407 166c-7 190 22 683 18 815s-51 250-106 337z" transform="matrix(-.06216 0 0 .06555 606 249)"/>
        <path stroke="#000" stroke-width="6" d="M779 913v179c0 75 20 105 55 103 34-1 41-58 34-92-6-33-53-199-53-199l-36 9z" transform="matrix(-.053 -.03423 -.03246 .0559 627 284)"/>
        <path stroke="#000" stroke-width="6" d="M780 33c124 0 177 102 177 100l-36 33c-19 18-142 18-140 18l-2-151z" transform="matrix(.06216 0 0 .06555 509 249)"/>
        <path stroke="#000" stroke-width="6" d="M779 913v179c0 75 20 105 55 103 34-1 41-58 34-92-6-33-53-199-53-199l-36 9z" transform="matrix(-.0608 -.01361 -.0129 .06412 616 261)"/>
        <path stroke="#000" stroke-width="6" d="M779 913v179c0 75 20 105 55 103 34-1 41-58 34-92-6-33-53-199-53-199l-36 9z" transform="matrix(-.06216 0 0 .06555 606 249)"/>
        <path stroke="#000" stroke-width="8" d="M780 255c159-1 177-35 177-35s35-71 17-89c-17-18-194-18-194-18v142z" transform="matrix(-.03857 0 0 .06555 588 292)"/>
        <path stroke="#000" stroke-width="6" d="M780 255c106 0 124-35 124-35s35-71 17-89c-17-18-142-18-142-18v142z" transform="matrix(-.06216 0 0 .06555 606 288)"/>
        <path stroke="#000" stroke-width="6" d="M780 255c88 0 141-35 141-35s36-71 18-89-159-18-159-18v142z" transform="matrix(-.06216 0 0 .06555 606 283)"/>
        <path stroke="#000" stroke-width="6" d="M833 113s71-88 195-177c124-88 213-156 230-141 0 17-106 106-195 177S868 149 868 149l-35-36z" transform="matrix(-.07714 0 0 .06555 618 250)"/>
        <path stroke="#000" stroke-width="6" d="M833 113s70-52 204-124c132-64 319-53 319-35-18 18-177 18-283 71-102 51-205 124-205 124l-35-36z" transform="matrix(-.07714 0 0 .06555 618 254)"/>
        <path stroke="#000" stroke-width="6" d="M833 113s61-35 204-88c142-53 330-18 330 0-18 18-170 7-277 35-110 28-222 89-222 89l-35-36z" transform="matrix(-.07714 0 0 .06555 618 262)"/>
        <path stroke="#000" stroke-width="6" d="M833 113s71-71 222-88c152-18 276 88 276 106-17 18-159-78-265-64a434 434 0 0 0-198 82l-35-36z" transform="matrix(-.07714 0 0 .06555 617 270)"/>
        <path stroke="#000" stroke-width="6" d="M780 255c159-1 159-45 159-45s35-71 18-89c-18-18-177-8-177-8v142z" transform="matrix(-.06216 0 0 .06555 606 277)"/>
        <path stroke="#000" stroke-width="6" d="M780 255c159-1 177-35 177-35s35-71 17-89c-17-18-194-18-194-18v142z" transform="matrix(-.06216 0 0 .06555 606 273)"/>
        <path stroke="#000" stroke-width="6" d="M780 255c159-1 195-35 195-35s35-71 17-89-212-18-212-18v142z" transform="matrix(-.06216 0 0 .06555 606 267)"/>
        <path stroke="#000" stroke-width="6" d="M780 255c159-1 212-35 212-35s18-71 0-89-212-18-212-18v142z" transform="matrix(-.06216 0 0 .06555 606 261)"/>
        <path stroke="#000" stroke-width="6" d="M833 113S947 25 947-46s-51-142-65-177c29 0 93 106 93 177 0 77-107 195-107 195l-35-36z" transform="matrix(-.07714 0 0 .06555 620 245)"/>
        <path stroke="#000" stroke-width="6" d="M833 113s-15-53-15-159a355 355 0 0 1 86-230c6 27-57 124-57 230 0 78 21 195 21 195l-35-35z" transform="matrix(-.07714 0 0 .06555 620 245)"/>
        <path stroke="#000" stroke-width="6" d="M780 255c159-1 212-35 212-35s0-71-18-89c-17-18-195-18-195-18v142z" transform="matrix(-.06216 0 0 .06555 606 255)"/>
        <path stroke="#000" stroke-width="6" d="M780 255c159-1 195-35 195-35s0-71-18-89-177-18-177-18v142z" transform="matrix(-.06216 0 0 .06555 606 249)"/>
        <path stroke="#fdc301" stroke-width="16" d="M319 1318c55-122 71-337 71-372 0-100-33-585-36-780s124-301 248-301c107 0 177 71 177 177h-53A121 121 0 0 0 602-82C496-82 414 2 407 166c-7 190 22 683 18 815s-51 250-106 337z" transform="matrix(.06216 0 0 .06555 509 249)"/>
        <path stroke="#000" stroke-width="6" d="M780 33c124 0 177 102 177 100l-36 33c-19 18-142 18-140 18l-2-151z" transform="matrix(-.06216 0 0 .06555 606 249)"/>
    </g>
</svg>
