<svg xmlns="http://www.w3.org/2000/svg" xmlns:xlink="http://www.w3.org/1999/xlink" viewBox="0 0 640 480">
    <path fill="#4b92db" fill-rule="evenodd" d="M0 0h640v480H0z"/>
    <g transform="matrix(.6 0 0 .6 -41 0)">
        <path id="a" fill="#fff" d="M664 587a71 71 0 0 1-10 9c-21-22-46-47-70-47-14 0-25 12-37 19-17 11-41 18-61 9a66 66 0 0 1-29-19 64 64 0 0 0 58 5c19-9 39-20 62-20 33 0 65 23 87 44zm-246-69c22 25 58 17 87 23 5 1 8 3 13 2l-12-4c-23-9-27-33-39-50 16 11 29 25 44 39a74 74 0 0 0 37 16l-11 2c-24 6-51 15-77 7a75 75 0 0 1-42-35zm-35-58c14 31 48 34 71 53a64 64 0 0 0 14 9 100 100 0 0 1-15-17c-13-19-9-45-19-65a142 142 0 0 1 23 35c9 20 11 43 31 59-21-7-45-6-63-18-20-13-38-33-42-56zm-15-63c2 28 31 42 45 65 3 4 6 9 11 13l-5-8a63 63 0 0 1-5-32c1-14 7-27 5-42 12 26 8 58 15 86 1 6 5 12 7 18-11-9-27-17-39-27a86 86 0 0 1-29-37 85 85 0 0 1-5-36zm1-50l5-18c-5 26 13 44 18 67 3 8 3 17 7 25v-1c-8-23 5-45 17-64a55 55 0 0 0 6-17c1 11-1 24-3 35-3 14-8 27-12 41a65 65 0 0 0 0 28l-1-1c-9-17-27-30-33-48a103 103 0 0 1-4-47zm10-28a79 79 0 0 1 19-50h1c-13 19-1 43-3 65l-2 22h1l1-7c3-18 19-31 33-43a29 29 0 0 0 7-11c-2 9-4 18-8 26-10 21-30 38-34 62-1-23-15-40-15-64zm33-66a46 46 0 0 1 22-15c-17 12-16 32-21 49l-6 18h1a54 54 0 0 1 13-20c12-10 29-17 35-33-1 22-20 39-37 52a63 63 0 0 0-18 22v-17c-1-20-3-41 11-56zm66-37c-12 11-20 24-29 37-8 10-19 16-28 25 5-10 6-22 12-32 11-17 29-24 45-30z"/>
        <use width="100%" height="100%" transform="matrix(-1 0 0 1 1202 0)" xlink:href="#a"/>
    </g>
    <path fill="#fff" d="M409 262l-2-1a97 97 0 0 1-18 25l-12-12a79 79 0 0 0 14-22l-2-1a77 77 0 0 1-14 21l-12-12a60 60 0 0 0 12-17l-2-1a58 58 0 0 1-11 17l-13-13a40 40 0 0 0 8-12l-2-1a38 38 0 0 1-8 12l-11-12a21 21 0 0 0 5-13h16a37 37 0 0 1-2 13l2 1a40 40 0 0 0 3-14h18a57 57 0 0 1-5 22l2 1a60 60 0 0 0 5-23h16a76 76 0 0 1-7 31l2 1a78 78 0 0 0 8-32h17a96 96 0 0 1-9 41l2 1a99 99 0 0 0 10-43 99 99 0 0 0-7-37l-2 1a96 96 0 0 1 7 35h-18a79 79 0 0 0-6-28l-2 1a76 76 0 0 1 5 27h-16a60 60 0 0 0-4-21l-2 1a58 58 0 0 1 4 20h-18a40 40 0 0 0-2-13l-3 1a38 38 0 0 1 3 12h-17a21 21 0 0 0-5-13l12-12a37 37 0 0 1 7 13l3-1a40 40 0 0 0-9-13l13-13a58 58 0 0 1 12 19l2-1a60 60 0 0 0-13-20l12-11a76 76 0 0 1 16 25l2-1a79 79 0 0 0-16-26l12-12a96 96 0 0 1 21 31l2-1a99 99 0 0 0-22-33 99 99 0 0 0-33-22l-1 2a96 96 0 0 1 32 21l-13 12a79 79 0 0 0-25-16l-1 2a76 76 0 0 1 24 16l-11 12a60 60 0 0 0-19-13l-1 2a58 58 0 0 1 18 12l-12 13a40 40 0 0 0-12-8l-1 2a37 37 0 0 1 11 8l-12 11a21 21 0 0 0-13-5v-17a37 37 0 0 1 13 3l1-2a40 40 0 0 0-14-3v-18a58 58 0 0 1 21 4l1-2a60 60 0 0 0-22-4v-16a76 76 0 0 1 28 5v-2a79 79 0 0 0-28-6v-18a96 96 0 0 1 35 7l1-2a99 99 0 0 0-37-7 98 98 0 0 0-44 11l1 2a96 96 0 0 1 42-10v17a78 78 0 0 0-34 8l1 2a76 76 0 0 1 33-7v16a60 60 0 0 0-25 6l1 2a58 58 0 0 1 24-6v18a40 40 0 0 0-16 4l1 2a37 37 0 0 1 15-4v17a21 21 0 0 0-7 1l1 2a19 19 0 0 1 7-1 19 19 0 0 1 13 5 19 19 0 0 1 6 14 19 19 0 0 1-19 19 19 19 0 0 1-13-6 19 19 0 0 1-6-13 19 19 0 0 1 6-13 19 19 0 0 1 6-5l-1-2a21 21 0 0 0-6 4l-12-11a38 38 0 0 1 10-7l-1-2a40 40 0 0 0-10 7l-13-13a58 58 0 0 1 15-10l-1-2a60 60 0 0 0-16 11l-11-12a76 76 0 0 1 19-14l-1-2a79 79 0 0 0-20 14l-12-12a97 97 0 0 1 24-17l-1-3a100 100 0 0 0-45 45l2 1a97 97 0 0 1 18-25l13 13a79 79 0 0 0-15 21l2 1a76 76 0 0 1 14-20l12 11a60 60 0 0 0-12 17l2 1a58 58 0 0 1 11-16l13 12a40 40 0 0 0-8 12l2 1a37 37 0 0 1 8-11l11 11a21 21 0 0 0-5 14h-16a38 38 0 0 1 2-14l-2-1a40 40 0 0 0-3 15h-18a58 58 0 0 1 6-23l-2-1a60 60 0 0 0-6 24h-16a76 76 0 0 1 7-32l-2-1a78 78 0 0 0-8 33h-17a96 96 0 0 1 9-42l-2-1a98 98 0 0 0-10 44 99 99 0 0 0 4 28l2-1a97 97 0 0 1-3-26h17a79 79 0 0 0 4 22l2-1a76 76 0 0 1-3-21h16a60 60 0 0 0 3 17h2a58 58 0 0 1-3-17h18a40 40 0 0 0 2 12h3a38 38 0 0 1-3-12h17a21 21 0 0 0 5 13l-11 12a37 37 0 0 1-8-13h-3a40 40 0 0 0 9 14l-13 13a58 58 0 0 1-13-22h-2a60 60 0 0 0 14 24l-12 11a76 76 0 0 1-18-31l-2 1a78 78 0 0 0 18 32l-12 12a96 96 0 0 1-23-40l-3 1a98 98 0 0 0 25 42 99 99 0 0 0 27 19l2-2a96 96 0 0 1-26-18l12-13a79 79 0 0 0 22 15l2-2a76 76 0 0 1-22-14l11-12a60 60 0 0 0 18 12l2-2a58 58 0 0 1-18-11l13-13a40 40 0 0 0 14 8l1-2a37 37 0 0 1-14-8l12-11a21 21 0 0 0 13 5v16a38 38 0 0 1-11-2l-1 2a40 40 0 0 0 12 3v18a58 58 0 0 1-21-5l-2 2a60 60 0 0 0 23 5v16a76 76 0 0 1-30-7l-2 2a78 78 0 0 0 32 8v17a96 96 0 0 1-40-9l-2 2a99 99 0 0 0 43 10c16 0 31-4 45-11l-2-2a96 96 0 0 1-42 10v-18a78 78 0 0 0 34-8l-1-2a76 76 0 0 1-33 8v-16a60 60 0 0 0 26-6l-1-2a57 57 0 0 1-25 6v-18a40 40 0 0 0 17-4l-1-2a37 37 0 0 1-16 3v-16a21 21 0 0 0 13-5l12 11a38 38 0 0 1-10 7l2 2a40 40 0 0 0 9-7l13 12a58 58 0 0 1-14 11l1 2a60 60 0 0 0 15-11l11 12a77 77 0 0 1-19 13l1 2a79 79 0 0 0 20-14l12 13a97 97 0 0 1-24 17l2 2a99 99 0 0 0 25-18 99 99 0 0 0 19-27z"/>
    <path fill="#fff" d="M326 196h-1v1h1zm-2-1h1v1h-1zm-1 0l1-1h-1zm-1 0h-1v-1h1zm-6-1h1-1zm-1 1v-1zm0 1h-1v-1h1zm-2 1v-1h1v1zm-78 61h-1v1h1v1h1v-1zm7 9l-1-1-1-1v-1l-1-2 2 1v2h1l1 2zm21 27l-1-2 1 1 1 1 1 1h-1zm54-91h-1v-4h-3v-2h-1v1l-1 1v1h-1v1l-3 2h-6-1-2l-2-1-3-2c-2-2-5 0-5 1h-2-3l-1 1-1 1h-2 3l-1 2h-1v1h-4l-1 1-1 2-1 1v2h-1v3l-1 1v1l-2 2v2l-1 1v2h-1v1l-1 2h2v2c-1 0-2 0-1 1l-2-1-1-1c-1 1-1-1-1-1-1-1-5 1-5 1v1l-2 2-1 2h-1v7l-1 1-2 1v1h-3l-1-1h-6v-1h-4l-1 3-1-2a13 13 0 0 1 1-1h-5v2h-1v3l1 2-1 1 1 1v2l1 1v2l1 1h1v-3c-1-1 1-2 1-1l2 1 2 1c1-2 1-1 1 0l2 2h2v2c2-1 2 0 3 2a4 4 0 0 0 3 3h1l1 1 3 3h3l2 2h3c0-2 3 0 3 1l2 1 1 1 1 1h6l2-1 5-1c3 0 1-3 1-3v-4l-7-7c-2 0-1-2-1-2 2-1 0-2 0-2l-1-3-1-3v-2c-1-1 1-2 1-2 1-1-1-2-1-2v-1h-1l-1-5-3-5v-2l-1-1v-2l2-1h2v-3l2-1h1l1-1v-1h-1l-1-4c2-3 4-1 4-1h2c2 1 0 4 0 4v6l-1 1v2c1 0 1 2-1 1l1 1c1 1 1-1 1-1l2-2 3 2h4l1 3c1-2 4 0 2 1l2 1 1 1v-1c-1-1 2-2 1 0v1l1 1v2c2 0 1-3 1-3h2c-1-4 2-4 2-4l1-3c-1-1 0-2 1-1l-1-2-1-1h-1v-1h-2v1h-1v1h-2v-1h1v-1l1-2h3c0-2 1-1 1-1l1 1v3h1c0-2 2-2 3-1v-1c-1-1 0-2 1-2l1-1s1 1 0 0v-2l2-1v-2h-2c0 2-1 0 0 0l1-1v-2h2l1-1h2l2-2v-3z"/>
    <path fill="#fff" d="M277 223l-2-1v1h1v5l-2-1v2l2 1 1-1v-6zM277 231v-1l-1 1h-1v2l2 2v-2zm0 7v-1zm0 4h-1v1zm1-3v-1l-1 1h1zM312 215l-1-1v3h-1l-2 2v1l-1 1v1h-2l-1 2 1 2h1l1-1v-1l1-1 1-1 1-1h1v-3h1l1-1v-2h-1zm3 6v-2l-1-1-1 1-1 1v1l-1 1v2h-1v2h-2v1l-1 1v1l-1 3 2 1 1-1v-1h5l1-1h1v-1h1v-2l1-2h1l-1-1 1-1-1-1h-3zm2 13l-2 1h-1l-1-1v-1h1l1 1h2zm5-7l1-1v-2l-2 2 1 1zm5-5l2 3v1a15 15 0 0 1-2-3v-1h1zm1 31l1-1h-1l-1 1zm-3-2v1m14-2l1-1v-1l-1 1zm29 21h1v2h5v-7l-3-3-1 1v3l-1 1-1 3zm-2-4l-1 1c-1-1 0 0 0 0h1l1-1h-1zm-5-19h1v2h-1zm11-19c-1-1 2-2 2-1v1h-2zm2-14v1h1v-1zm-5 2h3v-1h-1l-1 1v-1zm6-25h-1l-1-1h-4v2h-1v1h1v1c1-1 3 0 3 1s3 2 2 4l1 1h2v-1l1 1v-1h-1v-4h-1v-1h-1l1-2-1-1zm4 10l-2 1-1 2 1 1-1 5c-1 1 0 0 0 0v3h1l1-1 1-3v-2l1-1v-2-2l-1-1zm2 5v-1zm0 2h-1v-1l1 1zm-1-8l-1-1v-1-1l-1-1v-1l-1-2v-1l1-1v-1l1 1v2l1 2v6-1zm-7-16l1 1 1 1h1v3h1l1-1-1-1-1-2h-1l-1-1h-1zm1-1l-1-1h-1a1 1 0 0 1 0-1l-1-1 1-1 1 1 1 1 1 1v1h-1zm-11 11h-3l1-1 1-2s-1 0 0 0l-1-2h1l1-3h2v3h-1v1l-1 1v1h2l1 1c1 0 0 0 0 0h-3v1zm-7 1h2l-1 1h-1v-1zm13-8l2-1 1-1 1 1 1 1v1h-1v1h-3v-1l-1-1zm-4-6c1 0 0 3 2 2l1 1 1-1v-2l-1-1-1-1-1-1-1 1-1 2h1zm3 9v-1l1 1h-1zm-1-1v1zm0-14v1zm-1 10zm-2 0v-1h1v1zm-8 10l-1-1h1zm-3-2v-1h1v1zm-18 0h-2 2zm-3 0h-1l1-1v1zm-1 1v-1l1 1zm5-2v1h1l1 1h2v-2h-1-3zm5-1l1 1h1l1 2a5 5 0 0 0 2 0h4l2 1v-2l-2-2-2 1c-1 1-3 0-3-1l-1-1h-1l-1 1h-1zm23-13l1-2-1-1-2-2v-2h1l-4-5c-1 1-3 0-3-1l-3-4h-2v1h2l1 2-1 1 1 1h1v2l1 1v3l1 1 1 1v1l2 2 1 1 2 1 1-1z"/>
    <path fill="#fff" d="M348 166v-2h3l1 1v1h-2l-1 2h-2l1-2zm-1-3v-1l-1-1-1-1-2-1-1-1v-1h-1v-1h-2l1 1 1 2 1 1h2v1l3 2zm-11-10v-1l-1-1v2zm0-5l1 1 1 1h1v-2h-1l-1-1-1 1zm18 1l-1 2v1h2v2l2 2v3l2 1-1 3 1 1 1 3h1l3-1c2 0 3 3 3 4h-1v3l3 4h2c0-2 1-1 2-1v3l1 1h2l1 1 1 1h2l1 1 1 2h1l1 2h1v1h1v2h2l1-1a6 6 0 0 0 2-2l2-2v-2s-2-1-1-2l-2-2-1-1-1-2-1-1v-1h-1l-3-3v-2h-2l-2-3-1-1h-1l1-2v-3l-2 1v-3h-2l-1-1v-2l-1-1h-1v-1l-1-1v-1h-2l-1-1-1-1h-2l-1-1h-1l-1-1v1h-2v1h-5zm11-3l2-1s2 1 2 4l-2-1h-1l-1-2zm-30 2v-2l1 1zm-5-10l-1-2v-1h-1v-2h-3l-1 1-1 1-1 1h3v1h3l1 1c2 1 2 0 1-1zm0-5c0-1-2 1 0 1h8v-1l2-1v-1h-4-2v1h-3l-1 1zm-10 17l2-1h1l-1-1-1-1-1-1-1 2 1 2zm-11 1h2l1 1v1l-1-1h-2l-1-1zm34-22l-1 1-1-1v1l1 1v-1h1zm-6-2h-1l1 1 1-1zm-3 21h-1v1l1 1 1-1-1-1zm-33 28v1h1c1 0 0 0 0 0l-1-1zm2 0h1l-1 1zm-19-19h1v1zm30 131l-1-1-1 1h1v1l1-1zm-8-8h-1l-1 1h2-1zm74-19l-1-1v2l1-1zm1-2h-1v-1l1 1zm23-8l1 1-1 1v-2zm5-4a2 2 0 0 0 0-1l-1 1 1 1v-1zm-1 1v1h1a12 12 0 0 1-1-2v1zm-3 2v1h1l-1-1zm-2-12a1 1 0 0 0-1 0h-1 2zm-28-32h-1v1l-1 1v1l-1 1h-3v-1-2h1l1-2-1-1-1-1h-2l-1 1h-1v1c0 1-3 2-2 0l1-1v-1h-2l-1-1v-1l-2-2h-3v-1h-2c-1-1-3 0-3 1v3l-1-1h-1v1l-1 1v-1c0-1-2-3 0-3v-1l1-1h1-2l-1-1a4 4 0 0 0-2 3c-1 1-3-1-2-2l-3 1h-2l-1-1v-1l-1 1-1 1-1 1 1 1v1h1l-2 1h-2l-2-2h-2l1-2 1-3-2 1-1 1s-1 0 0 0l-1 1v1h-3l-1-1-2-1-1 1h-2v1l3 1v2h-2v-1h-1v2l1 1h1l1 2h4l3 3v1l-1 1h-1v1h1l1-2 2 1-1 1v1h1v2l-1 1-1 1-1 1h-1 4v1h1v4l1 1v4l-1 1v1h-5l-1 1-1 1v3l-1 1v3h2l1 1h1v-5l1-1v3h1v1 2h-1l-1 1h-2v-1h-1v2l-2 1c2 0 0 1 0 1 1 1 0 2-3 1v2h1v1c0 2-4 1-4 0v2h-1l1 2v1h1v1h2l4-4 2-1h2l1 1h1l1 1c0 1 0 0 0 0v-1h1-1l-1-1h-1c-1-2 0-1 1-1h1l2 2 1 1h2v1h2v-1h-2v-1h-1c0-2 0-3 1-2v-1h1v-3h-1v-1l3 1v-2h3l3-2v-1h-2v-2h2v1h2l1 1 1 1h-2-1-1l-3 2h1v2h-1l-1 1h-2v1c-2 0-2 1-2 2v1l1 1 2-1 2-1c0-1 2 1 1 2v2h-2v1h-4l-1 1h-1l-1 2-3-1h-2v-1l-2-1-4 1h-1l-1 1-2 1h-1v-1h-1l-1 1-4 2v1l-1 1-1 1h-1v2h-1v1l-1 1h-1l1 2h1l1 2 1 1 1 2 1 1 1 1h4v1h6l4-1 2 1 2 1 1 3h1l2 1v1h1v6l1 1 1 2h1l4 4 3 1 1 1h3l2-1 1-1 11-9-1-1v-2c2-1 2-4 0-4-1 0-1-1 1-1v-2l3-2v-1l-5-5c-3 0 0-5 1-5 2 0 0-8 0-8h-1v-2h-1l-1 2-1 2c0 2-6 1-7 1l-2-1-2-1h-2l-1-1-2-1h2l-1-1 3 1h1l1 1h4l1 1h4v-1l1-1v-3h1v-2h1v-5l-2-2-2 1v1 1l-1 1h-2v1h-2v-2h2l1-1 1-1 1-1 2-2c0-1 1-4 3-4h2l1-2h1v1h2l1-1 3-1h2v-1l-2-2-2-1-1-3-1-1-2-3a2 2 0 0 1 0-2l2-2v-1l2-1v-1h-1l2-2h4l1-2 1-1 1-1s0-3-1-2z"/>
    <path fill="#fff" d="M320 242h1v2h-1c0 1 0 0 0 0h-1v1l-2-1h1v-1c0-1 0 0 0 0l1-1-1-1v-1h2v1h1-1v1zm-5 1l1-2h1v2l-1 1-1-1z"/>
</svg>
