<svg xmlns="http://www.w3.org/2000/svg" xmlns:xlink="http://www.w3.org/1999/xlink" viewBox="0 0 640 480">
    <path fill="#1eb53a" d="M0 320h640v160H0z"/>
    <path fill="#0099b5" d="M0 0h640v160H0z"/>
    <path fill="#ce1126" d="M0 154h640v172H0z"/>
    <path fill="#fff" d="M0 163h640v154H0z"/>
    <circle cx="134" cy="77" r="58" fill="#fff"/>
    <circle cx="154" cy="77" r="58" fill="#0099b5"/>
    <g fill="#fff" transform="matrix(1.92 0 0 1.92 261 123)">
        <g id="e">
            <g id="d">
                <g id="c">
                    <g id="b">
                        <path id="a" d="M0-6l-2 6 3 1"/>
                        <use width="100%" height="100%" transform="scale(-1 1)" xlink:href="#a"/>
                    </g>
                    <use width="100%" height="100%" transform="rotate(72)" xlink:href="#b"/>
                </g>
                <use width="100%" height="100%" transform="rotate(-72)" xlink:href="#b"/>
                <use width="100%" height="100%" transform="rotate(144)" xlink:href="#c"/>
            </g>
            <use width="100%" height="100%" y="-24" xlink:href="#d"/>
            <use width="100%" height="100%" y="-48" xlink:href="#d"/>
        </g>
        <use width="100%" height="100%" x="24" xlink:href="#e"/>
        <use width="100%" height="100%" x="48" xlink:href="#e"/>
        <use width="100%" height="100%" x="-48" xlink:href="#d"/>
        <use width="100%" height="100%" x="-24" xlink:href="#d"/>
        <use width="100%" height="100%" x="-24" y="-24" xlink:href="#d"/>
    </g>
</svg>
