<svg xmlns="http://www.w3.org/2000/svg" xmlns:xlink="http://www.w3.org/1999/xlink" viewBox="0 0 640 480">
    <defs>
        <linearGradient id="a">
            <stop offset="0" stop-color="red"/>
            <stop offset="1" stop-color="#ff0"/>
        </linearGradient>
        <linearGradient id="c" x1="103" x2="93" y1="111" y2="108" gradientTransform="matrix(.64274 0 0 1.4534 -95 29)" gradientUnits="userSpaceOnUse" xlink:href="#a"/>
        <linearGradient id="d" x1="103" x2="93" y1="111" y2="108" gradientTransform="matrix(.64274 0 0 1.4534 -95 30)" gradientUnits="userSpaceOnUse" xlink:href="#a"/>
        <linearGradient id="e" x1="103" x2="93" y1="111" y2="108" gradientTransform="matrix(.64274 0 0 1.4534 -98 31)" gradientUnits="userSpaceOnUse" xlink:href="#a"/>
        <linearGradient id="f" x1="103" x2="93" y1="111" y2="108" gradientTransform="matrix(.64274 0 0 1.4534 -95 32)" gradientUnits="userSpaceOnUse" xlink:href="#a"/>
        <linearGradient id="g" x1="103" x2="93" y1="111" y2="108" gradientTransform="matrix(.64274 0 0 1.4534 -95 33)" gradientUnits="userSpaceOnUse" xlink:href="#a"/>
        <linearGradient id="h" x1="103" x2="93" y1="111" y2="108" gradientTransform="matrix(.64274 0 0 1.4534 -95 34)" gradientUnits="userSpaceOnUse" xlink:href="#a"/>
        <linearGradient id="i" x1="103" x2="93" y1="111" y2="108" gradientTransform="matrix(.64274 0 0 1.4534 -98 34)" gradientUnits="userSpaceOnUse" xlink:href="#a"/>
        <linearGradient id="j" x1="103" x2="93" y1="111" y2="108" gradientTransform="matrix(.64274 0 0 1.4534 -98 33)" gradientUnits="userSpaceOnUse" xlink:href="#a"/>
        <linearGradient id="k" x1="103" x2="93" y1="111" y2="108" gradientTransform="matrix(.64274 0 0 1.4534 -98 32)" gradientUnits="userSpaceOnUse" xlink:href="#a"/>
        <linearGradient id="l" x1="103" x2="93" y1="111" y2="108" gradientTransform="matrix(.8281 0 0 1.8726 603 148)" gradientUnits="userSpaceOnUse" xlink:href="#a"/>
        <linearGradient id="m" x1="103" x2="93" y1="111" y2="108" gradientTransform="matrix(.64274 0 0 1.4534 -98 30)" gradientUnits="userSpaceOnUse" xlink:href="#a"/>
        <linearGradient id="n" x1="103" x2="93" y1="111" y2="108" gradientTransform="matrix(.64274 0 0 1.4534 -95 31)" gradientUnits="userSpaceOnUse" xlink:href="#a"/>
        <clipPath id="b">
            <path d="M0 0h640v480H0z"/>
        </clipPath>
    </defs>
    <g clip-path="url(#b)">
        <path fill="#006" d="M0 0h960v480H0z"/>
        <path fill="#006" fill-rule="evenodd" d="M0 0h350v175H0z"/>
        <path fill="#fff" d="M0 0v20l311 155h39v-20L39 0H0zm350 0v20L39 175H0v-20L311 0h39z"/>
        <path fill="#fff" d="M146 0v175h58V0h-58zM0 58v59h350V58H0z"/>
        <path fill="#c00" d="M0 70v35h350V70H0zM158 0v175h35V0h-35zM0 175l117-58h26L26 175H0zM0 0l117 58H91L0 13V0zm207 58L324 0h26L233 58h-26zm143 117l-117-58h26l91 45v13z"/>
        <path fill="#fff" fill-rule="evenodd" d="M379 155l219-1-1 195s8 30-92 75c36-4 75-42 75-42s16-20 24-9a87 87 0 0 0 21 22c5 4 10 16 1 25-8 9-22 10-25-1-6 3-41 46-113 48a159 159 0 0 1-112-48s-10 15-24 3c-13-16-3-26-3-26s11-6 14-11c6-6 7-14 16-14 11 1 15 9 15 9s37 39 76 44c-89-43-92-69-92-76l1-193z"/>
        <path fill="#006129" fill-rule="evenodd" stroke="#000" stroke-width="2" d="M384 160l209-2v189c0 24-41 49-105 81-66-35-105-55-105-82l1-186z"/>
        <path fill="none" stroke="#f7c600" stroke-width="2" d="M409 367l12-18 13 18"/>
        <path fill="#f7c600" fill-rule="evenodd" stroke="#000" d="M424 360a3 3 0 1 1-5 0 3 3 0 0 1 5 0z"/>
        <path fill="#f7c600" fill-rule="evenodd" stroke="#000" d="M411 380h19s1-2-2-4c10-1 8-10 16-10 2 0-4 3-4 3s-5 4-3 6c2 1 3-1 3-3s8-3 7-8c-2-4-13 3-13 3h-8c0-1-3-4-5-4s-4 4-4 4h-18s-1 5 8 6l6 4-2 3z"/>
        <path fill="none" stroke="#000" d="M413 376h16m-24-9s2 8 8 9"/>
        <path fill="url(#c)" fill-rule="evenodd" stroke="#000" d="M66 171l2-6c1-2-2-2-1-4s1-3-2-5c1 3-3 5-3 7s2 2 2 5l-1 3h3z" transform="translate(317 141) scale(1.3225)"/>
        <path fill="#f7c600" fill-rule="evenodd" stroke="#000" d="M424 349a2 2 0 1 1-5 0 2 2 0 0 1 5 0z"/>
        <path fill="none" stroke="#f7c600" stroke-width="2" d="M408 330l13-19 12 19"/>
        <path fill="#f7c600" fill-rule="evenodd" stroke="#000" d="M423 323a3 3 0 1 1-5 0 3 3 0 0 1 5 0z"/>
        <path fill="#f7c600" fill-rule="evenodd" stroke="#000" d="M411 343h19s0-2-2-4c10-1 7-10 15-11 2 1-4 4-4 4s-5 4-3 6c2 1 3-1 3-3 1-2 8-3 7-8-2-4-13 3-13 3h-7c-1-1-3-5-5-5-3 0-5 5-5 5h-18s0 4 9 5c2 3 3 4 5 4l-1 4z"/>
        <path fill="none" stroke="#000" d="M412 339h16m-23-9s1 7 7 9"/>
        <path fill="url(#d)" fill-rule="evenodd" stroke="#000" d="M66 171l2-6c1-2-2-2-1-4s1-3-2-5c1 3-3 5-3 7s2 2 2 5l-1 3h3z" transform="translate(316 104) scale(1.3225)"/>
        <path fill="#f7c600" fill-rule="evenodd" stroke="#000" d="M423 312a2 2 0 1 1-5 0 2 2 0 0 1 5 0z"/>
        <path fill="none" stroke="#f7c600" stroke-width="2" d="M539 296l13-18 12 18"/>
        <path fill="#f7c600" fill-rule="evenodd" stroke="#000" d="M554 289a3 3 0 1 1-5 0 3 3 0 0 1 5 0z"/>
        <path fill="#f7c600" fill-rule="evenodd" stroke="#000" d="M542 309h19s0-2-2-4c10-1 7-10 16-11 1 1-5 4-5 4s-5 4-2 6c1 1 2-1 2-3 1-2 9-3 7-8-1-4-12 3-12 3h-8c-1-1-3-5-5-5-3 0-5 5-5 5h-18s0 4 9 5c2 3 3 4 5 4l-1 4z"/>
        <path fill="none" stroke="#000" d="M543 305h16m-23-9s1 7 7 9"/>
        <path fill="url(#e)" fill-rule="evenodd" stroke="#000" d="M66 171l2-6c1-2-2-2-1-4s1-3-2-5c1 3-3 5-3 7s2 2 2 5l-1 3h3z" transform="translate(447 70) scale(1.3225)"/>
        <path fill="#f7c600" fill-rule="evenodd" stroke="#000" d="M554 278a2 2 0 1 1-4 0 2 2 0 0 1 4 0z"/>
        <path fill="none" stroke="#f7c600" stroke-width="2" d="M411 259l13-18 12 18"/>
        <path fill="#f7c600" fill-rule="evenodd" stroke="#000" d="M426 253a3 3 0 1 1-5 0 3 3 0 0 1 5 0z"/>
        <path fill="#f7c600" fill-rule="evenodd" stroke="#000" d="M414 273h19s0-3-2-4c10-2 7-10 16-11l-5 4s-5 3-3 5 3-1 3-2c1-2 8-3 7-8-2-4-13 3-13 3h-7c-1-1-3-5-5-5-3 0-5 5-5 5h-18s0 4 9 5c2 3 3 3 5 4l-1 4z"/>
        <path fill="none" stroke="#000" d="M415 269h16m-23-10s1 8 7 10"/>
        <path fill="url(#f)" fill-rule="evenodd" stroke="#000" d="M66 171l2-6c1-2-2-2-1-4s1-3-2-5c1 3-3 5-3 7s2 2 2 5l-1 3h3z" transform="translate(319 34) scale(1.3225)"/>
        <path fill="#f7c600" fill-rule="evenodd" stroke="#000" d="M426 242a2 2 0 1 1-5 0 2 2 0 0 1 5 0z"/>
        <path fill="none" stroke="#f7c600" stroke-width="2" d="M412 224l12-18 12 18"/>
        <path fill="#f7c600" fill-rule="evenodd" stroke="#000" d="M426 217a3 3 0 1 1-5 0 3 3 0 0 1 5 0z"/>
        <path fill="#f7c600" fill-rule="evenodd" stroke="#000" d="M414 237h19s0-2-2-4c10-1 7-10 16-11 2 1-5 4-5 4s-5 4-2 6c2 1 2-1 3-3 0-2 8-3 7-8-2-4-13 3-13 3h-8c-1-1-3-5-5-5-3 0-5 5-5 5h-17s-1 4 8 5c2 3 4 4 5 4l-1 4z"/>
        <path fill="none" stroke="#000" d="M415 233h16m-23-9s1 7 7 9"/>
        <path fill="url(#g)" fill-rule="evenodd" stroke="#000" d="M66 171l2-6c1-2-2-2-1-4s1-3-2-5c1 3-3 5-3 7s2 2 2 5l-1 3h3z" transform="translate(319 -2) scale(1.3225)"/>
        <path fill="#f7c600" fill-rule="evenodd" stroke="#000" d="M426 206a2 2 0 1 1-4 0 2 2 0 0 1 4 0z"/>
        <path fill="none" stroke="#f7c600" stroke-width="2" d="M412 188l13-19 12 19"/>
        <path fill="#f7c600" fill-rule="evenodd" stroke="#000" d="M427 181a3 3 0 1 1-5 0 3 3 0 0 1 5 0z"/>
        <path fill="#f7c600" fill-rule="evenodd" stroke="#000" d="M415 201h19s0-2-2-4c10-1 7-10 16-11 1 1-5 4-5 4s-5 4-3 5c2 2 3 0 3-2 1-2 8-3 7-8-2-4-13 3-13 3h-7c-1-1-3-5-5-5-3 0-5 5-5 5h-18s0 4 9 5a11 11 0 0 0 5 4l-1 4z"/>
        <path fill="none" stroke="#000" d="M416 197h16m-23-9s1 7 7 9"/>
        <path fill="url(#h)" fill-rule="evenodd" stroke="#000" d="M66 171l2-6c1-2-2-2-1-4s1-3-2-5c1 3-3 5-3 7s2 2 2 5l-1 3h3z" transform="translate(320 -38) scale(1.3225)"/>
        <path fill="#f7c600" fill-rule="evenodd" stroke="#000" d="M427 170a2 2 0 1 1-5 0 2 2 0 0 1 5 0z"/>
        <path fill="none" stroke="#f7c600" stroke-width="2" d="M540 188l13-18 12 18"/>
        <path fill="#f7c600" fill-rule="evenodd" stroke="#000" d="M555 181a3 3 0 1 1-5 0 3 3 0 0 1 5 0z"/>
        <path fill="#f7c600" fill-rule="evenodd" stroke="#000" d="M543 202h19s0-3-2-4c10-2 7-11 16-11l-5 4s-5 3-2 5c1 1 2-1 2-3 1-1 8-3 7-8-2-4-13 3-13 3h-7c-1-1-3-4-5-4-3 0-5 4-5 4h-18s0 5 9 6a11 11 0 0 0 5 4l-1 4z"/>
        <path fill="none" stroke="#000" d="M544 198h16m-23-10s1 8 7 9"/>
        <path fill="url(#i)" fill-rule="evenodd" stroke="#000" d="M66 171l2-6c1-2-2-2-1-4s1-3-2-5c1 3-3 5-3 7s2 2 2 5l-1 3h3z" transform="translate(448 -37) scale(1.3225)"/>
        <path fill="#f7c600" fill-rule="evenodd" stroke="#000" d="M555 170a2 2 0 1 1-4 0 2 2 0 0 1 4 0z"/>
        <path fill="none" stroke="#f7c600" stroke-width="2" d="M539 224l13-19 12 19"/>
        <path fill="#f7c600" fill-rule="evenodd" stroke="#000" d="M554 217a3 3 0 1 1-5 0 3 3 0 0 1 5 0z"/>
        <path fill="#f7c600" fill-rule="evenodd" stroke="#000" d="M542 237h19s0-2-2-4c10-1 7-10 16-11 1 1-5 4-5 4s-5 4-3 5c2 2 3 0 3-2 1-2 8-3 7-8-2-4-13 3-13 3h-7c-1-1-3-5-5-5-3 0-5 5-5 5h-18s0 4 9 5c2 3 3 4 5 4l-1 4z"/>
        <path fill="none" stroke="#000" d="M543 233h16m-23-9s1 7 7 9"/>
        <path fill="url(#j)" fill-rule="evenodd" stroke="#000" d="M66 171l2-6c1-2-2-2-1-4s1-3-2-5c1 3-3 5-3 7s2 2 2 5l-1 3h3z" transform="translate(447 -2) scale(1.3225)"/>
        <path fill="#f7c600" fill-rule="evenodd" stroke="#000" d="M554 206a2 2 0 1 1-5 0 2 2 0 0 1 5 0z"/>
        <path fill="none" stroke="#f7c600" stroke-width="2" d="M538 260l12-18 12 18"/>
        <path fill="#f7c600" fill-rule="evenodd" stroke="#000" d="M552 253a3 3 0 1 1-5 0 3 3 0 0 1 6 0z"/>
        <path fill="#f7c600" fill-rule="evenodd" stroke="#000" d="M540 273h19s0-2-2-4c10-1 8-10 16-10l-5 3c1 0-4 4-2 6 2 1 2-1 3-3s8-3 7-8c-2-4-13 3-13 3h-8c0-1-3-4-5-4-3 0-4 4-4 4h-18s-1 5 8 5a11 11 0 0 0 6 4c-2 1-2 3-2 4z"/>
        <path fill="none" stroke="#000" d="M541 269h16m-23-9s1 7 7 9"/>
        <path fill="url(#k)" fill-rule="evenodd" stroke="#000" d="M66 171l2-6c1-2-2-2-1-4s1-3-2-5c1 3-3 5-3 7s2 2 2 5l-1 3h3z" transform="translate(445 34) scale(1.3225)"/>
        <path fill="#f7c600" fill-rule="evenodd" stroke="#000" d="M552 242a2 2 0 1 1-4 0 2 2 0 0 1 4 0z"/>
        <path fill="none" stroke="#f7c600" d="M539 367l13-18 12 18"/>
        <path fill="#f7c600" fill-rule="evenodd" stroke="#000" d="M554 361a3 3 0 1 1-5 0 3 3 0 0 1 5 0z"/>
        <path fill="#f7c600" fill-rule="evenodd" stroke="#000" d="M542 381h19s0-3-2-4c10-2 7-11 16-11l-5 4s-5 3-3 5 3-1 3-3c1-1 8-2 7-7-2-4-13 2-13 2h-8c0-1-2-4-4-4-3 0-5 4-5 4h-18s0 5 9 6c2 3 3 3 5 4l-1 4z"/>
        <path fill="none" stroke="#000" d="M543 377h16m-23-10s1 8 7 10"/>
        <path fill="url(#l)" fill-rule="evenodd" stroke="#000" d="M815 330l2-6c0-4-3-3-2-6 2-2 1-5-2-6 1 3-4 6-4 8 1 3 3 2 3 6l-1 4h4z" transform="translate(-301 28) scale(1.0265)"/>
        <path fill="#f7c600" fill-rule="evenodd" stroke="#000" d="M554 350a2 2 0 1 1-5 0 2 2 0 0 1 5 0z"/>
        <path fill="none" stroke="#f7c600" stroke-width="2" d="M539 331l12-18 13 18"/>
        <path fill="#f7c600" fill-rule="evenodd" stroke="#000" d="M554 325a3 3 0 1 1-5 0 3 3 0 0 1 5 0z"/>
        <path fill="#f7c600" fill-rule="evenodd" stroke="#000" d="M541 345h19s1-3-2-4c10-2 8-10 16-11 2 0-4 4-4 4s-5 3-3 5 3-1 3-2c0-2 8-3 7-8-2-4-13 3-13 3h-8c0-1-2-5-5-5-2 0-4 5-4 5h-18s-1 4 8 5c2 3 4 3 6 4l-2 4z"/>
        <path fill="none" stroke="#000" d="M543 341h16m-24-10s2 8 8 10"/>
        <path fill="url(#m)" fill-rule="evenodd" stroke="#000" d="M66 171l2-6c1-2-2-2-1-4s1-3-2-5c1 3-3 5-3 7s2 2 2 5l-1 3h3z" transform="translate(447 106) scale(1.3225)"/>
        <path fill="#f7c600" fill-rule="evenodd" stroke="#000" d="M554 314a2 2 0 1 1-5 0 2 2 0 0 1 5 0z"/>
        <path fill="none" stroke="#f7c600" stroke-width="2" d="M435 298l12-18 12 18"/>
        <path fill="#f7c600" fill-rule="evenodd" stroke="#000" d="M450 291a3 3 0 1 1-5 0 3 3 0 0 1 5 0z"/>
        <path fill="#f7c600" fill-rule="evenodd" stroke="#000" d="M437 311h19s0-2-2-4c10-1 8-10 16-10 2 0-4 3-4 3s-5 4-3 6c2 1 2-1 3-3s8-3 7-8c-2-4-13 3-13 3h-8c0-1-3-4-5-4s-4 4-4 4h-18s-1 5 8 6a11 11 0 0 0 6 4c-2 1-2 2-2 3z"/>
        <path fill="none" stroke="#000" d="M438 308h16m-23-10s1 8 7 9"/>
        <path fill="url(#n)" fill-rule="evenodd" stroke="#000" d="M66 171l2-6c1-2-2-2-1-4s1-3-2-5c1 3-3 5-3 7s2 2 2 5l-1 3h3z" transform="translate(342 73) scale(1.3225)"/>
        <path fill="#f7c600" fill-rule="evenodd" stroke="#000" d="M449 280a2 2 0 1 1-4 0 2 2 0 0 1 4 0z"/>
        <g stroke="#000">
            <path fill="#f7c600" fill-rule="evenodd" d="M501 384s5 12 10 5 4-11 4-11l-13-7-3 8 2 5z"/>
            <path fill="#ffc6b5" fill-rule="evenodd" d="M512 383l1-1c1-1-1-2-2-4l-1 3 2 2zm-29-3l-11 6s-6 1-6 0c-1-1 0-2 3-2l11-8 3 4zm0-200v4l-2 4-1 1 2 1v3s-2 4 0 5l6 2v5l-4 9 22-3-5-7s-2-1-1-5l-1-22-15-2-1 5zm-4 32s-7 3-7 11l-2 17s-9 9-11 13l-8 12c-2 2-6 7-6 10 0 2-2 12 4 13l6-12s0-5-2-6 4-4 4-4l11-8 8-8 3-38z"/>
            <path fill="#fff" fill-rule="evenodd" d="M487 205s2 5 6 4l9-4h4c0 1 10 10 10 13-1 3-5 2-6 4s-4 7-4 10l3 10-2 4 1 4-1 6v32l2 2 9 42-1 1 4 8 4 18-1 6s3 9 2 10c0 2-6 2-6 2l-1-1-1 2h-10l-3 3-4-2 1 4c-1 0-8 2-9-2v-3l-4-2 2 3c0 2-3 4-4 4s-4-5-8-5l-6 2s-5 2-6 1c-2 0-3-2-3-3l1-5-1-4 3-7v-26s-3 0-3-2l5-43 2-11h-2l6-23 1-14v-7s-6-2-6-6c0-6 6-9 6-11l3-8s3-5 8-6z"/>
            <path fill="#f7c600" fill-rule="evenodd" d="M485 381l-15 8c-2 1-4-2-2-3l5-1-4-4 6-2s2 4 3 3l5-3 2 2z"/>
            <path fill="#ffc6b5" fill-rule="evenodd" d="M504 385c1 2 2 5 5 3s-2-5-2-5l-3 2zm5 0s2 1 3 0-3-4-3-4l-1 2 1 2z"/>
            <path fill="none" d="M505 211s-12 7-12 10m15-9l-3 3m7 0s-6 5-6 9m-23-14l-2 5c1 1 4 6 4 9v5m-5-12l1 5 3 6m-5 7s3 2 7-5m5-5s-3 7 2 10 7 2 9 1l4-2m-17 0s0 9 14 18m-13-10s-1 8 5 12m-8-21s-4 12-7 13m6-4l-2 11m-1 2s3 4 6 3c3 0 4-4 6-3s4 2 9 2m-7 3s0 8 1 8l1 8m-19-19l-1 9-2 10m-5 4l3-3m1 2s-6 25-4 41m5-40s-3 19-1 23m0-23h12m1-1s3 2 8 1m-9 8l-2 40m19-32s4 28 6 31m-13-28l3 28m-35 9s5-2 9-6c4 6 11 1 11 1s10 7 15-1c7 4 11-1 11-1s3 4 5 4m-12 2s6 26 14 33m-42-35l2 36m-3-12l-1 15m-7 1s2 6 9 0 8 2 8 3 2 7 5 2m6-8s-2 12 9 3c12-9 13 0 14 3"/>
            <path fill="#9c5100" fill-rule="evenodd" d="M483 179l4-1c2 0 4-1 5 1l3 2s-2 5 0 6l3 1s-2 2-1 3l1 2-1 3 3 3c1 0 0 4 3 3s2-3 2-3 3-1 3-3c1-3 3-3 3-3s3-2-1-5c0-19-13-17-13-17s-2-3-4-3c-3 0-3 3-5 3l-2-1-2 3c0 1-4-1-4 3s3 3 3 3z"/>
            <path fill="none" d="M496 174s-1 6 5 6c0 3 2 4 2 4m5 4s3 2 0 4m-10 1l4 1 4 2h2m-18 2s5 2 8-5m-17-3h3"/>
            <path fill="none" stroke-linejoin="round" d="M482 193h2l-2 1M485 185h0z"/>
            <path fill="#ffc6b5" fill-rule="evenodd" d="M515 218s5 14 5 18a112 112 0 0 1 2 19l-9 13c0 3-5 12-5 12l-2 9c-1 1 1 3 1 3 0 1-4 5-6 5l-4-4 1-10 8-18 7-15c0-2-2-7-4-8-4-13-3-21 6-24z"/>
            <path fill="none" d="M451 278v6m-6-7s4 7 3 10"/>
            <path fill="none" stroke-linejoin="round" d="M497 291s3 0 3 5c2-6 6-7 6-7"/>
        </g>
        <path fill="#f7c600" fill-rule="evenodd" stroke="#000" stroke-width="2" d="M487 430c59-2 97-44 96-44 0-1 8-12 14-11 7 2 16 21 28 25 5 9-2 17-4 19-3 2-14 6-15 0-2-7-5-6-5-6s-52 51-113 49c-62 1-113-49-113-49l-5 5s-5 5-7 5-13-7-14-14 7-12 7-12 18-13 20-21c4-4 11 3 11 3s48 54 100 51z"/>
        <path fill="none" stroke="#000" stroke-width="2" d="M355 399s4-2 6 0l14 14"/>
        <path fill="none" stroke="#000" stroke-width="2" d="M366 404l-5 4s12 2 9 10m250-20s-2-1-6 2a159 159 0 0 0-13 13"/>
        <path fill="none" stroke="#000" stroke-width="2" d="M609 404l6 4s-11 1-9 11"/>
        <path d="M417 411l-1 1a4 4 0 0 0-2 0l-4 2-16 9h-1l4-19 1-4-1-2 9 6h-1l-1-1a1 1 0 0 0-1 1 2 2 0 0 0-1 0v3l-3 11 10-5a26 26 0 0 0 2-2h1v-2a5 5 0 0 0-2-1l1-1 5 4m6 28v1l-10-6h1l1 1 1-1 1-2 7-12 1-2a2 2 0 0 0 0-1 3 3 0 0 0-1-1l-1-1 11 5-1 1a3 3 0 0 0-2-1h-1a7 7 0 0 0-1 2l-7 13a7 7 0 0 0-1 2v1l2 1m38-8l-3 7h-1a10 10 0 0 0-1-6 8 8 0 0 0-4-3 6 6 0 0 0-4 0 8 8 0 0 0-4 3 19 19 0 0 0-2 4l-2 6 2 4a7 7 0 0 0 3 3 9 9 0 0 0 2 0h1l2-4v-2-1a3 3 0 0 0-1-1h-1l11 3-1 1h-2l-1 1-2 5h-4a23 23 0 0 1-5-1 14 14 0 0 1-5-3 14 14 0 0 1-2-3 11 11 0 0 1-2-4 11 11 0 0 1 1-5 11 11 0 0 1 6-7 12 12 0 0 1 10-1l2 2 3 1a10 10 0 0 0 1 1h1a3 3 0 0 0 1-1l1 1m15 25l-11-1v-1h1a3 3 0 0 0 1 0l1-1v-2l3-14v-2a2 2 0 0 0-1-1l-1-1h-1l12 1v1h-1a3 3 0 0 0-2 0l-1 1a7 7 0 0 0 0 2l-2 14a7 7 0 0 0 0 2v1l2 1m30-7v7l-20 1h1a3 3 0 0 0 1-1h1v-2l-1-15a7 7 0 0 0 0-2l-1-1h-2v-1h12-1a3 3 0 0 0-2 1v17l1 2v1h4a6 6 0 0 0 3-1 6 6 0 0 0 2-2l2-4m22-4l-8 2v4l1 1h2l1 1-7 2-1-1a3 3 0 0 0 2-1l1-4 2-19h1l13 15 2 2h2v1l-10 3v-1h2a1 1 0 0 0 0-1 2 2 0 0 0 0-1l-1-1-2-2m-1-1l-5-7-1 9 6-2m28-29l3 5a9 9 0 0 0-3-2 5 5 0 0 0-2 0 5 5 0 0 0-2 1h-1l8 16 1 1 1 1 1-1h1v1l-10 5v-1a3 3 0 0 0 2-1v-1l-1-2-8-15-2 1-2 2a6 6 0 0 0 0 4v1l-3-6 17-9m14-8l5 7h1l1-3-1-4 7 9v1a9 9 0 0 0-3-2 4 4 0 0 0-2-1l-2 1 4 5a10 10 0 0 0 1 2h2l1-1a8 8 0 0 0 4-4 8 8 0 0 0-1-6h1l3 6-15 12-1-1h1l1-1v-1a7 7 0 0 0-1-2l-9-12-1-1a2 2 0 0 0-1-1l-2 1v1l-1-1 15-11 4 5v1a8 8 0 0 0-4-2 5 5 0 0 0-2 0l-3 2-2 1"/>
        <path fill="none" d="M381 413c72 59 144 60 214 0"/>
    </g>
</svg>
